<svg id="Intelligence" xmlns="http://www.w3.org/2000/svg" width="48" height="48" viewBox="0 0 48 48">
  <circle id="Ellipse_44" data-name="Ellipse 44" cx="24" cy="24" r="24" fill="#ddefe2"/>
  <path id="Path_55" data-name="Path 55" d="M21,12a2,2,0,0,0-2,2c0,.017,0,.036,0,.052A3.974,3.974,0,0,0,18.5,14,4.5,4.5,0,0,0,14,18.5a4.362,4.362,0,0,0,.228,1.344,4.991,4.991,0,0,0,0,8.313A4.363,4.363,0,0,0,14,29.5a4.487,4.487,0,0,0,4.047,4.453A2.5,2.5,0,0,0,23,33.5V33a2,2,0,0,0-2-2,1,1,0,0,1,0-2,3.942,3.942,0,0,1,2,.558V20.968A4.9,4.9,0,0,1,20,22a1,1,0,1,1,0-2,3.008,3.008,0,0,0,3-3V14A2,2,0,0,0,21,12Zm6,0a2,2,0,0,0-2,2v3a3.006,3.006,0,0,0,3,3,1,1,0,1,1,0,2,4.9,4.9,0,0,1-3-1.028V33.5a2.5,2.5,0,0,0,4.952.454,4.481,4.481,0,0,0,4.033-4.3A5.982,5.982,0,0,1,32,30a1,1,0,0,1,0-2,4,4,0,0,0,4-4,4.979,4.979,0,0,0-2.225-4.156A4.433,4.433,0,0,0,34,18.5,4.5,4.5,0,0,0,29.5,14a3.967,3.967,0,0,0-.506.052c0-.017,0-.036,0-.052A2,2,0,0,0,27,12Z" fill="#168d24"/>
</svg>
