<svg id="Memory_Performance" data-name="Memory Performance" xmlns="http://www.w3.org/2000/svg" width="48" height="48" viewBox="0 0 48 48">
  <circle id="Ellipse_42" data-name="Ellipse 42" cx="24" cy="24" r="24" fill="#ddefe2"/>
  <path id="Path_53" data-name="Path 53" d="M18.846,12a3.218,3.218,0,0,0-3.187,2.819,3.478,3.478,0,0,0-.5-.05A3.231,3.231,0,0,0,11.923,18a3.16,3.16,0,0,0,.245,1.225,3.2,3.2,0,0,0,.364,5.206,3.2,3.2,0,0,0-.609,1.874,3.211,3.211,0,0,0,3.966,3.141,2.153,2.153,0,0,0,.123.219.047.047,0,0,1-.013.011S17.46,33.229,15.615,36h3.694s0-4.075,3.659-4.619l.033,0a3.685,3.685,0,0,0,3.317-2.091,3.662,3.662,0,0,0,4.906-2.681,3.637,3.637,0,0,0,4.7-3.534,3.691,3.691,0,0,0-.281-1.41,2.755,2.755,0,0,0-.772-4.921,2.76,2.76,0,0,0-2.639-1.977c-.083,0-.164.02-.245.026a4.137,4.137,0,0,0-6.215-2.1A4.16,4.16,0,0,0,23.46,12a4.109,4.109,0,0,0-2.468.829A3.229,3.229,0,0,0,18.846,12Zm3.821,2.769h.664a.231.231,0,0,1,.23.206l.029.235a.7.7,0,0,0,.557.6,4.842,4.842,0,0,1,.57.151.7.7,0,0,0,.783-.243l.14-.188a.234.234,0,0,1,.3-.066l.576.333a.236.236,0,0,1,.1.3l-.1.224a.7.7,0,0,0,.18.8,5.193,5.193,0,0,1,.412.41.7.7,0,0,0,.8.18l.219-.092a.225.225,0,0,1,.292.092l.336.579a.231.231,0,0,1-.066.3l-.186.14a.7.7,0,0,0-.246.783,4.953,4.953,0,0,1,.151.57.7.7,0,0,0,.6.559l.237.024a.231.231,0,0,1,.206.23v.664a.229.229,0,0,1-.206.23c-.068.009-.151.015-.237.026a.7.7,0,0,0-.6.559,5.081,5.081,0,0,1-.151.57.693.693,0,0,0,.246.78l.186.142a.23.23,0,0,1,.066.3l-.336.576a.229.229,0,0,1-.292.1l-.219-.1a.705.705,0,0,0-.8.178,5.23,5.23,0,0,1-.412.414.7.7,0,0,0-.18.8l.1.221a.229.229,0,0,1-.1.292l-.576.331a.224.224,0,0,1-.3-.061l-.14-.186a.7.7,0,0,0-.783-.246,4.842,4.842,0,0,1-.57.151.7.7,0,0,0-.557.6l-.029.237a.229.229,0,0,1-.23.206h-.664a.23.23,0,0,1-.23-.206l-.028-.237a.7.7,0,0,0-.555-.6,4.842,4.842,0,0,1-.57-.151.694.694,0,0,0-.783.246l-.14.186a.225.225,0,0,1-.3.061l-.579-.331a.231.231,0,0,1-.1-.292l.1-.221a.7.7,0,0,0-.18-.8,5.2,5.2,0,0,1-.41-.414.706.706,0,0,0-.8-.178l-.219.1a.235.235,0,0,1-.3-.1l-.333-.576a.232.232,0,0,1,.066-.3l.188-.142a.7.7,0,0,0,.243-.78,5.082,5.082,0,0,1-.151-.57.7.7,0,0,0-.6-.559l-.235-.026a.231.231,0,0,1-.206-.23V20.9a.245.245,0,0,1,.246-.235l.2-.024a.7.7,0,0,0,.6-.559,5,5,0,0,1,.151-.566.7.7,0,0,0-.243-.787l-.188-.136a.234.234,0,0,1-.066-.3l.333-.579a.235.235,0,0,1,.3-.1l.219.1a.707.707,0,0,0,.8-.18,5.2,5.2,0,0,1,.41-.414.7.7,0,0,0,.18-.8l-.1-.219a.236.236,0,0,1,.1-.3l.579-.333a.238.238,0,0,1,.3.061l.14.193a.7.7,0,0,0,.783.243,4.842,4.842,0,0,1,.57-.151.7.7,0,0,0,.555-.6l.028-.239A.232.232,0,0,1,22.667,14.769ZM23,17.537a3.693,3.693,0,1,0,3.692,3.694A3.691,3.691,0,0,0,23,17.537Zm0,1.848a1.846,1.846,0,1,1-1.846,1.846A1.844,1.844,0,0,1,23,19.385Z" fill="#25772f"/>
</svg>
