<svg width="24" height="24" viewBox="0 0 24 24" fill="none" xmlns="http://www.w3.org/2000/svg">
<circle cx="12" cy="12" r="12" fill="#25772F"/>
<path d="M11.9448 6.00042C11.9139 6.00231 11.8848 6.00789 11.8548 6.02291C11.8126 6.04351 10.8714 6.53197 10.7748 7.92787C10.7542 7.92882 10.7345 7.93439 10.7148 7.93534C10.4542 7.11416 9.54019 6.93604 9.06487 6.96042C8.93267 6.96694 8.83326 7.08317 8.83988 7.21537C8.8464 7.34757 8.96641 7.44698 9.09483 7.44037C9.13329 7.43753 9.94048 7.40285 10.2123 7.98032C7.97173 8.31692 6.21031 10.0587 5.98995 12.2552C5.42845 12.3546 5 12.8505 5 13.4402C5 14.0035 5.40029 14.4817 5.9375 14.6027C6.59936 17.1038 9.06015 18 10.9998 18C12.9394 18 15.4003 17.1038 16.0621 14.6027C16.6002 14.4817 16.9996 14.0035 16.9996 13.4402C16.9996 12.8505 16.5711 12.3546 16.0096 12.2552C15.7724 9.88528 13.7391 8.05157 11.2473 7.93534C11.3345 6.84598 12.0347 6.47385 12.0648 6.45788C12.1838 6.39882 12.2363 6.25443 12.1772 6.13546C12.1332 6.04635 12.0385 5.99475 11.9448 6.00042ZM9.0799 12.2402C9.47735 12.2402 9.79987 12.5627 9.79987 12.9602C9.79987 13.3577 9.47735 13.6802 9.0799 13.6802C8.68235 13.6802 8.35993 13.3577 8.35993 12.9602C8.35993 12.5627 8.68235 12.2402 9.0799 12.2402ZM12.9198 12.2402C13.3172 12.2402 13.6397 12.5627 13.6397 12.9602C13.6397 13.3577 13.3172 13.6802 12.9198 13.6802C12.5222 13.6802 12.1997 13.3577 12.1997 12.9602C12.1997 12.5627 12.5222 12.2402 12.9198 12.2402ZM9.52989 15.1726C9.59075 15.1651 9.65831 15.1763 9.70981 15.2176C9.71454 15.2204 10.2076 15.6001 10.9998 15.6001C11.8013 15.6001 12.285 15.2213 12.2898 15.2176C12.3938 15.1351 12.5447 15.1586 12.6272 15.2626C12.7097 15.3667 12.6938 15.5101 12.5897 15.5926C12.5645 15.6123 11.9663 16.0801 10.9998 16.0801C10.0333 16.0801 9.43521 15.6123 9.40988 15.5926C9.30575 15.5101 9.28987 15.3667 9.37236 15.2626C9.41357 15.211 9.46894 15.1801 9.52989 15.1726Z" fill="white"/>
<path d="M15.3932 12.8726L15.453 12.9923H15.3615V13.2923V13.5692C15.3615 13.9598 15.6233 14.2889 15.9812 14.3906C16.0777 14.5744 16.2706 14.7 16.4923 14.7C16.714 14.7 16.9068 14.5744 17.0034 14.3906C17.3612 14.2889 17.6231 13.9598 17.6231 13.5692V13.2923V12.9923H17.5315L17.5914 12.8726C17.7747 12.5059 18.0135 12.2184 18.2705 11.9087C18.3778 11.7795 18.4883 11.6464 18.5993 11.5021C18.9644 11.0276 19.2846 10.479 19.2846 9.69229C19.2846 8.14956 18.035 6.89998 16.4923 6.89998C14.9496 6.89998 13.7 8.14956 13.7 9.69229C13.7 10.479 14.0202 11.0276 14.3853 11.5021C14.4963 11.6464 14.6068 11.7795 14.714 11.9087C14.9711 12.2184 15.2098 12.5059 15.3932 12.8726Z" fill="white" stroke="#25772F" stroke-width="0.6"/>
<circle cx="16.3999" cy="10.2" r="1.8" fill="white"/>
</svg>
