<svg id="_10_" data-name="10%" xmlns="http://www.w3.org/2000/svg" width="145" height="145" viewBox="0 0 145 145">
  <path id="Path_150" data-name="Path 150" d="M145,72.5A72.5,72.5,0,1,1,72.5,0,72.5,72.5,0,0,1,145,72.5Zm-130.5,0a58,58,0,1,0,58-58A58,58,0,0,0,14.5,72.5Z" fill="#f1f1f1"/>
  <path id="Path_151" data-name="Path 151" d="M72.5,7.25A6.718,6.718,0,0,1,79.738.362a72.5,72.5,0,0,1,29.308,9.523,6.718,6.718,0,0,1,1.807,9.827,8.019,8.019,0,0,1-10.378,1.981,58,58,0,0,0-20.744-6.74A8.019,8.019,0,0,1,72.5,7.25Z" fill="#41c752"/>
  <path id="Path_152" data-name="Path 152" d="M61.674,88.252V59.945H55.351l-9.888,9.761,4.159,4.371,4.753-4.8v18.97Zm15.8.509c8.276,0,12.138-7.172,12.138-14.641s-3.862-14.6-12.138-14.6-12.138,7.13-12.138,14.6S69.2,88.761,77.473,88.761Zm0-6.451c-3.4,0-4.753-3.183-4.753-8.191s1.358-8.148,4.753-8.148,4.753,3.141,4.753,8.148S80.868,82.311,77.473,82.311Z" fill="#41c752"/>
  <path id="Path_153" data-name="Path 153" d="M100.359,63.907A3.152,3.152,0,1,0,97.1,60.776,3.1,3.1,0,0,0,100.359,63.907Zm.377,6.47L108.79,57.8h-1.641L99.114,70.377Zm6.734.226a3.152,3.152,0,1,0-3.263-3.131A3.1,3.1,0,0,0,107.47,70.6Zm-7.111-8.431a1.247,1.247,0,0,1-1.264-1.4,1.26,1.26,0,0,1,1.264-1.433,1.42,1.42,0,0,1,0,2.829Zm7.111,6.7a1.229,1.229,0,0,1-1.264-1.4c0-.943.528-1.434,1.264-1.434a1.277,1.277,0,0,1,1.3,1.434A1.255,1.255,0,0,1,107.47,68.868Z" fill="#41c752"/>
</svg>
