<svg width="24" height="24" viewBox="0 0 24 24" fill="none" xmlns="http://www.w3.org/2000/svg">
<circle cx="12" cy="12" r="12" fill="#EEFAF0"/>
<path d="M11.2999 12.0001V5.71913C11.2999 5.34394 11.0045 5.02125 10.63 5.01635C9.71301 5.00305 8.80443 5.34674 8.12544 6.02573C7.42406 6.72642 7.06916 7.663 7.10696 8.61848C7.10766 8.63318 7.10906 8.64718 7.10976 8.66188C7.11676 8.78998 7.12866 8.91878 7.14966 9.04687C7.14896 9.04687 7.14896 9.04687 7.14826 9.04757C7.26936 9.81336 7.63755 10.5168 8.20104 11.0488C8.45094 11.2847 8.50343 11.6613 8.31304 11.9483C8.07644 12.3039 7.57105 12.376 7.25956 12.0841C6.66037 11.5234 6.21798 10.8234 5.96108 10.0521C5.35699 10.7877 5 11.7173 5 12.7001C5 13.9447 5.53899 15.0927 6.48817 15.8941C6.83887 17.6847 8.40614 19 10.2499 19C10.4025 19 10.553 18.9902 10.7021 18.9713C11.0472 18.9279 11.2999 18.6227 11.2999 18.2755V14.4088C10.8876 14.6503 10.4144 14.7987 9.90341 14.7994C9.90201 14.7994 9.90131 14.8001 9.89991 14.8001C9.51352 14.8001 9.19992 14.4865 9.19992 14.1001C9.19992 13.7137 9.51352 13.4001 9.89991 13.4001H9.90061V13.3994C10.6699 13.3994 11.2999 12.7694 11.2999 12.0001Z" fill="#25772F"/>
<path d="M18.0394 10.0521C17.7818 10.8228 17.3394 11.5227 16.7409 12.0841C16.4294 12.376 15.9233 12.3032 15.6874 11.9483C15.497 11.662 15.5488 11.2854 15.7994 11.0495C16.365 10.5162 16.7346 9.80917 16.8543 9.04058C16.9208 8.64859 16.9159 8.2608 16.8375 7.86461C16.6121 6.71873 15.8015 5.73315 14.7256 5.27815C14.258 5.07936 13.8002 4.99466 13.3557 5.00026C12.9862 5.00586 12.6999 5.32995 12.6999 5.69955V14.1001C12.6992 14.8708 13.3249 15.4987 14.0949 15.4994V15.5008C14.097 15.5008 14.0984 15.5001 14.0998 15.5001C14.4862 15.5001 14.7998 15.8137 14.7998 16.2001C14.7998 16.5864 14.4862 16.9 14.0998 16.9C14.097 16.9 14.0949 16.8986 14.0921 16.8986V16.8993C13.5825 16.8986 13.1114 16.7509 12.6999 16.5108V18.2755C12.6999 18.6227 12.9526 18.9279 13.2976 18.9713C13.4467 18.9902 13.5972 19 13.7498 19C15.5936 19 17.1609 17.6847 17.5116 15.8942C18.4607 15.0927 18.9997 13.9447 18.9997 12.7001C18.9997 11.7166 18.6427 10.7871 18.0394 10.0521Z" fill="#25772F"/>
</svg>
