<svg width="24" height="24" viewBox="0 0 24 24" fill="none" xmlns="http://www.w3.org/2000/svg">
<circle cx="12" cy="12" r="12" fill="#EAF0F3"/>
<path d="M7.78268 5C7.63944 5 7.51795 5.10103 7.49237 5.24043C7.36193 5.92336 7 7.88773 7 8.76889C7 10.9238 8.61524 11.4622 8.61524 11.4622V18.193C8.61524 18.6394 8.97716 19 9.42349 19C9.86983 19 10.2318 18.6394 10.2318 18.193V11.4622C10.2318 11.4622 11.847 10.9238 11.847 8.76889C11.847 7.88773 11.4851 5.92336 11.3572 5.24043C11.329 5.10103 11.2075 5 11.0643 5C10.9019 5 10.7702 5.133 10.7702 5.29414V8.42231C10.7702 8.61414 10.6141 8.76889 10.4223 8.76889C10.2458 8.76889 10.0962 8.63716 10.0783 8.46067L9.72275 5.26089C9.70485 5.11382 9.57952 5 9.42733 5H9.41966C9.26747 5 9.14214 5.11382 9.12424 5.26345L8.7687 8.46195C8.7508 8.63716 8.60117 8.76889 8.42468 8.76889C8.23285 8.76889 8.07682 8.61414 8.07682 8.42231V5.29414C8.07682 5.133 7.9451 5 7.78268 5ZM16.6927 5C16.5073 5 16.3372 5.09464 16.2387 5.25066C16.2387 5.25066 14.5391 7.72148 14.5391 10.3854V11.452C14.5391 11.805 14.6669 12.1477 14.901 12.4124L15.6159 13.1094V18.193C15.6159 18.6394 15.9778 19 16.4241 19C16.8692 19 17.2311 18.6394 17.2311 18.193V5.53841C17.2311 5.24171 16.9894 5 16.6927 5Z" fill="#A5B3BE"/>
</svg>
