<svg id="information" xmlns="http://www.w3.org/2000/svg" width="12.975" height="13" viewBox="0 0 12.975 13">
  <g id="Group_244" data-name="Group 244">
    <g id="Group_243" data-name="Group 243">
      <circle id="Ellipse_82" data-name="Ellipse 82" cx="0.635" cy="0.635" r="0.635" transform="translate(5.853 8.976)" fill="#25772f"/>
      <path id="Path_591" data-name="Path 591" d="M6.487,0a6.5,6.5,0,1,0,6.487,6.5A6.49,6.49,0,0,0,6.487,0Zm0,11.984A5.484,5.484,0,1,1,11.961,6.5,5.476,5.476,0,0,1,6.487,11.984Z" fill="#25772f"/>
      <path id="Path_592" data-name="Path 592" d="M178.031,128.5A2.034,2.034,0,0,0,176,130.531a.508.508,0,0,0,1.016,0,1.016,1.016,0,1,1,1.016,1.016.508.508,0,0,0-.508.508v1.27a.508.508,0,0,0,1.016,0V132.5a2.031,2.031,0,0,0-.508-4Z" transform="translate(-171.544 -125.237)" fill="#25772f"/>
    </g>
  </g>
</svg>
