<svg id="Logo" xmlns="http://www.w3.org/2000/svg" xmlns:xlink="http://www.w3.org/1999/xlink" width="47.993" height="48.58" viewBox="0 0 47.993 48.58">
  <defs>
    <linearGradient id="linear-gradient" x1="0.5" x2="0.5" y2="1" gradientUnits="objectBoundingBox">
      <stop offset="0" stop-color="#41c752"/>
      <stop offset="1" stop-color="#216429"/>
    </linearGradient>
  </defs>
  <path id="Path_145" data-name="Path 145" d="M21.516,24.427c.021,6.3-8.455,6.32-8.455,0V17.872h8.455Z" transform="translate(14.192 19.421)" fill="url(#linear-gradient)"/>
  <path id="Path_146" data-name="Path 146" d="M14.364,4.668l-.043,6.747H5.887c0-2.989.043-5.594.043-6.619C5.909-1.524,14.364-1.63,14.364,4.668Z" transform="translate(6.398 0)" fill="url(#linear-gradient)"/>
  <path id="Path_147" data-name="Path 147" d="M36.869,24.429H14.834s-8.968.6-8.946-7.772V10.7h8.455v5.3H36.89C43.168,15.952,43.168,24.429,36.869,24.429Z" transform="translate(6.398 11.627)" fill="url(#linear-gradient)"/>
  <path id="Path_148" data-name="Path 148" d="M4.727,6.069H26.762s8.968-.6,8.946,7.772V19.8H27.253V14.5H4.705C-1.572,14.524-1.572,6.069,4.727,6.069Z" transform="translate(0 6.585)" fill="url(#linear-gradient)"/>
</svg>
