<svg xmlns="http://www.w3.org/2000/svg" width="13.556" height="13.555" viewBox="0 0 13.556 13.555">
  <path id="Icon_Area" data-name="Icon Area" d="M6.778,2.1c1.81,0,2.024.007,2.739.04A2.547,2.547,0,0,1,12.3,4.922c.033.714.039.929.039,2.739S12.328,9.685,12.3,10.4a2.547,2.547,0,0,1-2.778,2.778c-.715.033-.929.04-2.739.04s-2.024-.007-2.739-.04A2.547,2.547,0,0,1,1.261,10.4c-.033-.714-.04-.929-.04-2.739s.007-2.024.04-2.739A2.546,2.546,0,0,1,4.039,2.143C4.754,2.111,4.968,2.1,6.778,2.1Zm0-1.222c-1.841,0-2.071.008-2.794.041A3.741,3.741,0,0,0,.041,4.866C.008,5.589,0,5.82,0,7.661s.008,2.072.041,2.795A3.741,3.741,0,0,0,3.983,14.4c.724.033.954.041,2.795.041S8.85,14.43,9.572,14.4a3.741,3.741,0,0,0,3.942-3.942c.033-.723.041-.954.041-2.795s-.008-2.071-.041-2.794A3.741,3.741,0,0,0,9.573.924C8.85.891,8.619.883,6.778.883Zm0,3.3a3.481,3.481,0,1,0,3.48,3.48A3.481,3.481,0,0,0,6.778,4.18Zm0,5.74A2.259,2.259,0,1,1,9.037,7.661,2.259,2.259,0,0,1,6.778,9.92ZM10.4,3.23a.813.813,0,1,0,.813.813A.814.814,0,0,0,10.4,3.23Z" transform="translate(0 -0.883)" fill="#41c752" fill-rule="evenodd"/>
</svg>
