<svg xmlns="http://www.w3.org/2000/svg" width="13.556" height="11.016" viewBox="0 0 13.556 11.016">
  <path id="Icon_Area_Copy_2" data-name="Icon Area Copy 2" d="M13.556,4.187a5.553,5.553,0,0,1-1.6.438,2.786,2.786,0,0,0,1.223-1.539,5.571,5.571,0,0,1-1.766.675A2.783,2.783,0,0,0,6.676,6.3,7.9,7.9,0,0,1,.944,3.392,2.785,2.785,0,0,0,1.8,7.1,2.769,2.769,0,0,1,.545,6.757a2.783,2.783,0,0,0,2.23,2.762,2.788,2.788,0,0,1-1.256.047,2.783,2.783,0,0,0,2.6,1.931A5.592,5.592,0,0,1,0,12.65,7.873,7.873,0,0,0,4.263,13.9a7.865,7.865,0,0,0,7.9-8.272A5.662,5.662,0,0,0,13.556,4.187Z" transform="translate(0 -2.883)" fill="#41c752" fill-rule="evenodd"/>
</svg>
