<svg xmlns="http://www.w3.org/2000/svg" width="48" height="48" viewBox="0 0 48 48">
  <g id="Group_328" data-name="Group 328" transform="translate(-167 -804)">
    <g id="Group_299" data-name="Group 299">
      <circle id="Ellipse_38" data-name="Ellipse 38" cx="24" cy="24" r="24" transform="translate(167 804)" fill="#ddefe2"/>
    </g>
    <g id="Recommendations" transform="translate(126 810)">
      <path id="Path_165" data-name="Path 165" d="M24.049,12a1.113,1.113,0,0,0-.117.029.927.927,0,0,0-.721.923v2.767a.924.924,0,1,0,1.849,0V12.956A.925.925,0,0,0,24.049,12Zm-7.933,3.258a.925.925,0,0,0-.461,1.589l1.962,1.962a.93.93,0,0,0,.926.318.915.915,0,0,0,.692-.692.93.93,0,0,0-.318-.926l-1.962-1.962a.939.939,0,0,0-.75-.289Zm15.748,0a.949.949,0,0,0-.549.289l-1.958,1.962a.923.923,0,1,0,1.3,1.3l1.962-1.962a.924.924,0,0,0-.75-1.589Zm-7.728,3.346a5.365,5.365,0,0,0-5.367,5.367c0,3.042,2.625,4.814,2.625,6.373v.373a.7.7,0,0,0,.692.7h4.1a.7.7,0,0,0,.692-.7v-.373c0-1.563,2.625-3.28,2.625-6.373A5.364,5.364,0,0,0,24.137,18.608Zm0,1.79a3.517,3.517,0,0,1,1.845.52c-.066,0-.139-.029-.2-.029a4.547,4.547,0,0,0-4.558,4.528c0,.154.015.308.029.461a3.445,3.445,0,0,1,2.885-5.48ZM12.8,23.107a.933.933,0,0,0,.26,1.849h2.767a.924.924,0,1,0,0-1.849H12.8Zm19.383,0a.933.933,0,1,0,.26,1.849h2.767a.924.924,0,1,0,0-1.849H32.184ZM18.167,28.964a.919.919,0,0,0-.549.289l-1.962,1.958a.924.924,0,1,0,1.3,1.3l1.962-1.962a.922.922,0,0,0-.666-1.585Zm11.652,0a.922.922,0,0,0-.461,1.585l1.958,1.962a.924.924,0,1,0,1.3-1.3l-1.962-1.958a.908.908,0,0,0-.663-.289h-.172Zm-7.761,3.375a.694.694,0,0,0-.692.692v1.384a.7.7,0,0,0,.692.692h.578a1.7,1.7,0,0,0,3,0h.578a.7.7,0,0,0,.692-.692V33.031a.694.694,0,0,0-.692-.692Z" transform="translate(41 -6)" fill="#25772f"/>
    </g>
  </g>
</svg>
