<svg id="Calculator" xmlns="http://www.w3.org/2000/svg" width="48" height="48" viewBox="0 0 48 48">
  <circle id="Ellipse_78" data-name="Ellipse 78" cx="24" cy="24" r="24" fill="#ddefe2"/>
  <path id="Path_149" data-name="Path 149" d="M32,12H17a2,2,0,0,0-2,2V34a2,2,0,0,0,2,2H32a2,2,0,0,0,2-2V14A2,2,0,0,0,32,12ZM19.5,25A1.5,1.5,0,1,1,18,26.5,1.5,1.5,0,0,1,19.5,25ZM18,21.5A1.5,1.5,0,1,1,19.5,23,1.5,1.5,0,0,1,18,21.5ZM24.5,33h-5a1.5,1.5,0,0,1,0-3h5a1.5,1.5,0,0,1,0,3Zm0-5A1.5,1.5,0,1,1,26,26.5,1.5,1.5,0,0,1,24.5,28Zm0-5A1.5,1.5,0,1,1,26,21.5,1.5,1.5,0,0,1,24.5,23Zm5,10A1.5,1.5,0,1,1,31,31.5,1.5,1.5,0,0,1,29.5,33Zm0-5A1.5,1.5,0,1,1,31,26.5,1.5,1.5,0,0,1,29.5,28Zm0-5A1.5,1.5,0,1,1,31,21.5,1.5,1.5,0,0,1,29.5,23ZM31,18H18V15H31Z" fill="#25772f"/>
</svg>
