<svg xmlns="http://www.w3.org/2000/svg" width="48" height="48" viewBox="0 0 48 48">
  <g id="Group_361" data-name="Group 361" transform="translate(-696 -1667)">
    <circle id="Ellipse_30" data-name="Ellipse 30" cx="24" cy="24" r="24" transform="translate(696 1667)" fill="#ddefe2"/>
    <path id="news-paper" d="M16,2h4V17a3,3,0,0,1-3,3H3a3,3,0,0,1-3-3V0H16Zm0,2V17a1,1,0,0,0,2,0V4ZM2,2V17a1,1,0,0,0,1,1H14.17A2.98,2.98,0,0,1,14,17V2Zm2,8h8v2H4Zm0,4h8v2H4ZM4,4h8V8H4Z" transform="translate(710 1681)" fill="#25772f"/>
  </g>
</svg>
