<svg xmlns="http://www.w3.org/2000/svg" width="48" height="48" viewBox="0 0 48 48">
  <g id="click-gesture" transform="translate(-163.223 8.983)">
    <circle id="Ellipse_36" data-name="Ellipse 36" cx="24" cy="24" r="24" transform="translate(163.223 -8.983)" fill="#ddefe2"/>
    <g id="Group_50" data-name="Group 50" transform="translate(179.222)">
      <path id="Path_12" data-name="Path 12" d="M328.177,830.9a.569.569,0,0,0,.567.567h8.385a.569.569,0,0,0,.567-.567v-1.3h-9.52Z" transform="translate(-323.952 -806.067)" fill="#25772f"/>
      <path id="Path_14" data-name="Path 14" d="M194.454,152.158a1.274,1.274,0,0,0-.882-1.214c-1.574-.513-4.751-1.538-5.237-1.634a2.376,2.376,0,0,0-.44-.043,1.405,1.405,0,0,0-.919.284h0v0c0-.023-.735-7.1-.735-7.112a.947.947,0,0,0-1.016-.837,1.032,1.032,0,0,0-1.115.99l-.006,11.469a.272.272,0,0,1-.235.269h-.006a.161.161,0,0,1-.037,0h-.009a2.409,2.409,0,0,1-2.1-1.251c-.113-.162-.216-.309-.309-.445a1.294,1.294,0,0,0-1.061-.6,1.139,1.139,0,0,0-1.1,1.407,15.5,15.5,0,0,0,4.2,6.774h9.52l.962-1.625a3.722,3.722,0,0,0,.525-1.906Z" transform="translate(-179.222 -137.583)" fill="#25772f"/>
    </g>
  </g>
</svg>
