<svg xmlns="http://www.w3.org/2000/svg" width="48" height="48" viewBox="0 0 48 48">
  <g id="danger-sing" transform="translate(12.002 -14.811)">
    <circle id="Ellipse_98" data-name="Ellipse 98" cx="24" cy="24" r="24" transform="translate(-12.002 14.811)" fill="#ddefe2"/>
    <path id="Path_172" data-name="Path 172" d="M20.567,50.144H4A3.993,3.993,0,0,1,.541,44.155L8.825,29.806a3.993,3.993,0,0,1,6.916,0l8.284,14.349a3.993,3.993,0,0,1-3.458,5.989ZM12.283,28.957A2.816,2.816,0,0,0,9.819,30.38L1.534,44.729A2.845,2.845,0,0,0,4,49H20.567a2.845,2.845,0,0,0,2.464-4.268L14.747,30.38A2.816,2.816,0,0,0,12.283,28.957ZM22.3,44.794,14.31,30.958a2.341,2.341,0,0,0-4.054,0L2.268,44.794A2.341,2.341,0,0,0,4.295,48.3H20.271A2.341,2.341,0,0,0,22.3,44.794ZM10.836,35.275a1.447,1.447,0,0,1,2.893,0V39.97a1.447,1.447,0,1,1-2.893,0Zm1.447,10.408A1.482,1.482,0,1,1,13.765,44.2,1.484,1.484,0,0,1,12.283,45.683Z" transform="translate(0)" fill="#25772f"/>
  </g>
</svg>
