<svg xmlns="http://www.w3.org/2000/svg" width="48" height="48" viewBox="0 0 48 48">
  <g id="Group_361" data-name="Group 361" transform="translate(-696 -3029)">
    <circle id="Ellipse_57" data-name="Ellipse 57" cx="24" cy="24" r="24" transform="translate(696 3029)" fill="#ddefe2"/>
    <g id="molecule" transform="translate(669.42 3043)">
      <g id="Group_174" data-name="Group 174" transform="translate(42.58 0)">
        <path id="Path_137" data-name="Path 137" d="M55.072,11.831l-2.141-1.388a2.993,2.993,0,0,0-.185-2.4L54.5,6.473a2.5,2.5,0,1,0-.936-1.046L51.81,7a2.989,2.989,0,0,0-2.834-.3L46.951,3.905a2.431,2.431,0,1,0-1.135.826l2.025,2.787A2.985,2.985,0,0,0,48,11.563c.021.021.043.041.065.062l-1.962,3.444a2.5,2.5,0,1,0,1.219.7l1.962-3.443a2.984,2.984,0,0,0,2.879-.7l2.143,1.39a1.98,1.98,0,1,0,.763-1.178ZM44.608,16.945c-.048.054-.092.1-.136.149a.566.566,0,0,1-.222.15.319.319,0,0,1-.327-.087c-.239-.239-.147-.69.212-1.049s.811-.451,1.05-.212a.319.319,0,0,1,.087.327.564.564,0,0,1-.15.222c-.044.044-.095.089-.149.136s-.127.111-.19.175S44.662,16.883,44.608,16.945ZM54.429,2.959c.36-.36.811-.451,1.05-.212a.319.319,0,0,1,.087.327.565.565,0,0,1-.15.222c-.044.044-.095.089-.149.136s-.127.111-.19.175-.12.128-.175.19-.092.1-.136.149a.566.566,0,0,1-.222.15.319.319,0,0,1-.327-.087C53.978,3.77,54.07,3.318,54.429,2.959ZM44.117,1.893c-.046.053-.09.1-.132.145a.552.552,0,0,1-.216.146A.311.311,0,0,1,43.45,2.1c-.232-.232-.143-.672.207-1.022S44.447.638,44.679.87a.31.31,0,0,1,.085.318.551.551,0,0,1-.146.216c-.043.043-.092.086-.145.132s-.123.109-.185.17S44.171,1.832,44.117,1.893Zm4.332,5.9c.43-.43.969-.539,1.254-.254a.381.381,0,0,1,.1.391.678.678,0,0,1-.179.266c-.052.052-.113.106-.178.162s-.151.133-.227.209-.144.153-.209.227-.11.125-.163.178a.674.674,0,0,1-.266.179.381.381,0,0,1-.391-.1C47.911,8.757,48.02,8.218,48.45,7.788Zm6.957,5.317a.45.45,0,0,1-.176.119.253.253,0,0,1-.259-.069c-.189-.189-.117-.547.168-.832s.642-.357.832-.168a.253.253,0,0,1,.069.259.447.447,0,0,1-.119.176c-.035.035-.075.07-.118.108s-.1.088-.151.139-.1.1-.139.151S55.441,13.071,55.407,13.105Z" transform="translate(-42.58 0)" fill="#25772f"/>
      </g>
    </g>
  </g>
</svg>
