<svg width="52" height="52" viewBox="0 0 52 52" fill="none" xmlns="http://www.w3.org/2000/svg">
<circle cx="26" cy="26" r="26" fill="#DFF0E3"/>
<path d="M26.0048 8.66663C25.3746 8.66663 24.7318 8.9738 24.3644 9.59449L23.6392 10.801C23.3257 11.3235 22.8159 11.6782 22.2332 11.8334C22.2237 11.8397 22.2174 11.8397 22.211 11.8429C21.6188 12.0044 20.995 11.9537 20.4566 11.6561L19.2216 10.9752C17.9581 10.2722 16.4063 11.1684 16.3778 12.6156L16.3588 14.0406C16.343 14.6455 16.077 15.2092 15.6495 15.6367L15.64 15.6462C15.2125 16.0737 14.6488 16.3429 14.0439 16.3556L12.6189 16.3746C11.1748 16.4031 10.2755 17.9548 10.9785 19.2183L11.6593 20.4597C11.957 20.9917 12.0045 21.6092 11.8462 22.1982C11.843 22.2077 11.8367 22.2204 11.8367 22.2299C11.6752 22.8094 11.3332 23.3225 10.817 23.6296L9.59778 24.3548C8.3564 25.099 8.3564 26.8977 9.59778 27.6419L10.817 28.3703C11.3332 28.6775 11.6752 29.1873 11.8367 29.7732C11.8367 29.7827 11.843 29.789 11.8462 29.7985C12.0045 30.3875 11.957 31.0114 11.6593 31.5434L10.9785 32.7816C10.2755 34.0483 11.1748 35.6 12.6189 35.6254L14.0439 35.6475C14.6488 35.6634 15.2125 35.9294 15.64 36.3569L15.6495 36.3696C16.077 36.7939 16.3462 37.3544 16.3588 37.9593L16.3778 39.3812C16.4063 40.8284 17.9581 41.7309 19.2216 41.0279L20.463 40.3407C20.9887 40.043 21.6125 39.9955 22.2015 40.157C22.211 40.1634 22.2237 40.1634 22.2332 40.1665C22.8127 40.3249 23.3257 40.6732 23.6329 41.1894L24.3581 42.4023C25.1023 43.6436 26.901 43.6436 27.6452 42.4023L28.3736 41.1894C28.6808 40.6732 29.1906 40.3249 29.7701 40.1665C29.7796 40.1634 29.7923 40.1634 29.8018 40.157C30.3908 39.9955 31.0083 40.043 31.5467 40.3407L32.7817 41.0279C34.0453 41.7309 35.597 40.8284 35.6255 39.3812L35.6508 37.9593C35.6603 37.3544 35.9263 36.7939 36.3538 36.3696L36.3633 36.3569C36.7909 35.9294 37.3545 35.657 37.9562 35.6475L39.3844 35.6254C40.8317 35.6 41.7279 34.0483 41.0248 32.7816L40.3376 31.5434C40.0463 31.0114 39.9988 30.3907 40.1571 29.8017C40.1603 29.7922 40.1666 29.7827 40.1698 29.7732C40.3281 29.1937 40.6765 28.6775 41.1927 28.3703L42.3992 27.6483C43.6469 26.9009 43.6469 25.099 42.4055 24.3548L41.1958 23.6296C40.6828 23.3225 40.3313 22.8126 40.1698 22.2299C40.1698 22.2204 40.1666 22.2077 40.1666 22.1982C40.0051 21.6156 40.0526 20.9917 40.344 20.4597L41.0312 19.2183C41.7342 17.9579 40.838 16.4031 39.3908 16.3746L37.9626 16.3556C37.3577 16.3429 36.7972 16.0737 36.3728 15.6462L36.3602 15.6367C35.9327 15.2092 35.6603 14.6455 35.6508 14.0406L35.6287 12.6156C35.6033 11.1684 34.0516 10.2722 32.7849 10.9752L31.5467 11.6561C31.021 11.9537 30.394 12.0012 29.805 11.8429C29.7955 11.8397 29.786 11.8334 29.7765 11.8334C29.1969 11.6719 28.6808 11.3299 28.3736 10.8137L27.6516 9.59449C27.2747 8.9738 26.6382 8.66663 26.0048 8.66663ZM21.4668 18.585C23.5664 18.585 24.9376 20.0227 24.9376 22.2362C24.9376 24.4372 23.5664 25.8907 21.4668 25.8907C19.3831 25.8907 18.0024 24.4372 18.0024 22.2362C18.0024 20.0322 19.3736 18.585 21.4668 18.585ZM29.0101 18.9396H32.2687L26.8725 26.3879L23.0914 33.0634H19.8201L25.134 25.6532L29.0101 18.9396ZM21.4668 20.6877C20.8747 20.6877 20.5105 21.2545 20.5105 22.2299C20.5105 23.1894 20.8747 23.7658 21.4668 23.7658C22.0559 23.7658 22.42 23.1894 22.42 22.2299C22.42 21.2514 22.078 20.6877 21.4668 20.6877ZM30.546 26.1092C32.6361 26.1092 34.0041 27.5533 34.0041 29.7573C34.0041 31.9709 32.6361 33.4181 30.546 33.4181C28.4622 33.4181 27.0942 31.9709 27.0942 29.7573C27.0942 27.5533 28.4622 26.1092 30.546 26.1092ZM30.546 28.2183C29.9538 28.2183 29.5865 28.7883 29.5865 29.7573C29.5865 30.7137 29.9538 31.2932 30.546 31.2932C31.135 31.2932 31.4992 30.7137 31.4992 29.7573C31.4992 28.7756 31.1445 28.2183 30.546 28.2183Z" fill="#25772F"/>
</svg>
