<svg id="Carbs" xmlns="http://www.w3.org/2000/svg" width="48" height="48" viewBox="0 0 48 48">
  <circle id="Ellipse_65" data-name="Ellipse 65" cx="24" cy="24" r="24" fill="#ddefe2"/>
  <path id="Path_140" data-name="Path 140" d="M27.325,12a.384.384,0,0,0-.177.049c-.293.233-.188,2.1.605,3.105a1.444,1.444,0,1,0,2.267-1.789A4.044,4.044,0,0,0,27.325,12Zm5.925,2.744a4.244,4.244,0,0,0-2.523,1.139,1.425,1.425,0,0,0-.3,1.451.987.987,0,0,0-.256-.038.967.967,0,0,0-.778.376,1.44,1.44,0,0,0-.79-.865c-1.2-.526-3-.147-3.154.2s.827,1.94,2,2.451a1.438,1.438,0,0,0,1.808-.583,21.729,21.729,0,0,1,.116,2.293,1.448,1.448,0,0,0-1.083-.711c-1.3-.147-2.913.748-2.958,1.12s1.361,1.605,2.631,1.752a1.449,1.449,0,0,0,1.274-.519,12.554,12.554,0,0,1-.827,2.7,1.443,1.443,0,0,0-1.068-1.105c-1.271-.308-2.985.372-3.075.737s1.15,1.763,2.391,2.068a1.452,1.452,0,0,0,.947-.1,13.136,13.136,0,0,1-1.41,1.966,1.437,1.437,0,0,0-.684-1.244c-1.113-.684-2.955-.556-3.15-.237s.553,2.03,1.647,2.7a1.38,1.38,0,0,0,.718.207,13.206,13.206,0,0,1-1.951,1.384,1.442,1.442,0,0,0-.44-1.508c-.992-.853-2.834-1.019-3.079-.733s.226,2.094,1.2,2.925a1.4,1.4,0,0,0,.4.237,18.735,18.735,0,0,1-6.876,1.184.962.962,0,1,0,0,1.925,20.248,20.248,0,0,0,8.211-1.594,1.437,1.437,0,0,0,1.071,1.6c1.244.3,2.988-.364,3.079-.729.079-.335-.94-1.545-2.1-1.974a15.621,15.621,0,0,0,1.71-1.244c0,.045-.015.09-.015.139a1.444,1.444,0,0,0,1.459,1.429c1.278-.008,2.8-1.09,2.8-1.462s-1.515-1.436-2.823-1.425a.261.261,0,0,0-.027.008c.1-.109.211-.211.3-.316a16.434,16.434,0,0,0,1.143-1.5,1.38,1.38,0,0,0,.045.507,1.442,1.442,0,0,0,1.789.981c1.229-.353,2.4-1.812,2.3-2.169s-1.85-.966-3.1-.6a1.391,1.391,0,0,0-.331.15A15.265,15.265,0,0,0,30.546,25.4a1.36,1.36,0,0,0,.166.455,1.446,1.446,0,0,0,1.985.5c1.094-.654,1.861-2.361,1.669-2.68s-2.038-.466-3.158.207a1.5,1.5,0,0,0-.271.214,11.473,11.473,0,0,0,.346-2.271c.023.038.041.075.068.113a1.444,1.444,0,0,0,2.023.282c1.019-.767,1.6-2.545,1.372-2.846s-2.068-.244-3.113.541a1.466,1.466,0,0,0-.361.4,19.388,19.388,0,0,0-.169-2.177,1.444,1.444,0,0,0,1.729-.282c.876-.932,1.143-2.782.872-3.038A.68.68,0,0,0,33.25,14.747Z" fill="#25772f"/>
</svg>
