<svg xmlns="http://www.w3.org/2000/svg" width="48" height="48" viewBox="0 0 48 48">
  <g id="Group_361" data-name="Group 361" transform="translate(-828 -993)">
    <circle id="Ellipse_29" data-name="Ellipse 29" cx="24" cy="24" r="24" transform="translate(828 993)" fill="#ddefe2"/>
    <path id="cog" d="M3.94,6.5,2.22,3.64,3.64,2.22,6.5,3.94a7.075,7.075,0,0,1,1.7-.7L9,0h2l.8,3.24a7.075,7.075,0,0,1,1.7.7l2.86-1.72,1.42,1.42L16.06,6.5a7.075,7.075,0,0,1,.7,1.7L20,9v2l-3.24.8a7.075,7.075,0,0,1-.7,1.7l1.72,2.86-1.42,1.42L13.5,16.06a7.075,7.075,0,0,1-1.7.7L11,20H9l-.8-3.24a7.075,7.075,0,0,1-1.7-.7L3.64,17.78,2.22,16.36,3.94,13.5a7.075,7.075,0,0,1-.7-1.7L0,11V9l3.24-.8A7.075,7.075,0,0,1,3.94,6.5ZM10,13a3,3,0,1,0-3-3A3,3,0,0,0,10,13Z" transform="translate(842 1007)" fill="#25772f"/>
  </g>
</svg>
