<svg id="Stay_full_longer" data-name="Stay full longer" xmlns="http://www.w3.org/2000/svg" width="72" height="72" viewBox="0 0 72 72">
  <circle id="Ellipse_83" data-name="Ellipse 83" cx="36" cy="36" r="36" fill="#ddefe2"/>
  <path id="Path_163" data-name="Path 163" d="M36,16A20,20,0,1,0,56,36,20.022,20.022,0,0,0,36,16Zm1.667,3.412A16.649,16.649,0,0,1,52.588,34.333a1.669,1.669,0,0,0,0,3.334A16.649,16.649,0,0,1,37.667,52.588a1.669,1.669,0,0,0-3.334,0A16.649,16.649,0,0,1,19.412,37.667a1.669,1.669,0,0,0,0-3.334,16.659,16.659,0,0,1,8.613-12.975L36,29.333V21A1.672,1.672,0,0,0,37.667,19.412ZM27.653,25.987a1.663,1.663,0,0,0-1.165,2.858l8.333,8.333a1.665,1.665,0,0,0,1.5.456l8.333-1.667a1.667,1.667,0,1,0-.651-3.269L36.547,34.19l-7.7-7.7A1.645,1.645,0,0,0,27.653,25.987Z" fill="#25772f"/>
</svg>
