<svg xmlns="http://www.w3.org/2000/svg" width="48" height="48" viewBox="0 0 48 48">
  <g id="Group_361" data-name="Group 361" transform="translate(-828 -1805)">
    <circle id="Ellipse_29" data-name="Ellipse 29" cx="24" cy="24" r="24" transform="translate(828 1805)" fill="#ddefe2"/>
    <g id="atomic" transform="translate(842 1816.761)">
      <g id="Group_97" data-name="Group 97" transform="translate(7.828 9.895)">
        <g id="Group_96" data-name="Group 96">
          <path id="Path_108" data-name="Path 108" d="M206.029,201.258a2.535,2.535,0,1,0,2.535,2.535A2.538,2.538,0,0,0,206.029,201.258Zm0,4.111a1.576,1.576,0,1,1,1.576-1.576A1.578,1.578,0,0,1,206.029,205.369Z" transform="translate(-203.494 -201.258)" fill="#25772f" stroke="#25772f" stroke-width="0.5"/>
        </g>
      </g>
      <g id="Group_99" data-name="Group 99" transform="translate(0 2.239)">
        <g id="Group_98" data-name="Group 98" transform="translate(0 0)">
          <path id="Path_109" data-name="Path 109" d="M19.63,8.047a4.779,4.779,0,0,0-.62-3.4,1.7,1.7,0,0,0-3.038-1.54,10.7,10.7,0,0,0-5.609,1.686C6.887,2.783,3.74,2.541,2.107,4.174A4.037,4.037,0,0,0,1.032,7.126,1.705,1.705,0,0,0,1.705,10.4h.029a15.208,15.208,0,0,0,.99,2.033c-2.009,3.476-2.25,6.623-.617,8.256a4.028,4.028,0,0,0,2.944,1.076,11.048,11.048,0,0,0,5.312-1.693,11.047,11.047,0,0,0,5.312,1.693,4.029,4.029,0,0,0,2.944-1.076c1.633-1.633,1.391-4.78-.618-8.256A12.368,12.368,0,0,0,19.63,8.047ZM17.456,3.2a.746.746,0,1,1-.746.746A.747.747,0,0,1,17.456,3.2Zm-1.7.859A1.7,1.7,0,0,0,18.347,5.4a4.077,4.077,0,0,1,.332,2.52A10.912,10.912,0,0,1,17.423,11.5,21.567,21.567,0,0,0,14.66,8.133,21.585,21.585,0,0,0,11.3,5.369,9.522,9.522,0,0,1,15.755,4.057ZM1.705,9.438a.746.746,0,1,1,.746-.746A.747.747,0,0,1,1.705,9.438Zm.948.671a1.7,1.7,0,0,0-.662-3.1,3.056,3.056,0,0,1,.794-2.159c1.227-1.227,3.786-1.011,6.643.517A22.316,22.316,0,0,0,3.3,11.5,13.782,13.782,0,0,1,2.653,10.109Zm.132,9.9c-1.227-1.227-1.011-3.786.517-6.643a21.581,21.581,0,0,0,2.763,3.363A21.586,21.586,0,0,0,9.429,19.49C6.571,21.019,4.012,21.234,2.786,20.007Zm3.958-3.958a20.338,20.338,0,0,1-2.9-3.619,21.193,21.193,0,0,1,6.52-6.52,20.341,20.341,0,0,1,3.619,2.9,20.316,20.316,0,0,1,2.9,3.619,20.315,20.315,0,0,1-2.9,3.619,20.339,20.339,0,0,1-3.619,2.9A20.337,20.337,0,0,1,6.744,16.049Zm11.2,3.958c-1.227,1.227-3.786,1.011-6.643-.517a21.581,21.581,0,0,0,3.363-2.763,21.564,21.564,0,0,0,2.762-3.363C18.952,16.222,19.168,18.781,17.941,20.007Z" transform="translate(0 -2.239)" fill="#25772f" stroke="#25772f" stroke-width="0.5"/>
        </g>
      </g>
    </g>
  </g>
</svg>
