<svg xmlns="http://www.w3.org/2000/svg" width="72" height="72" viewBox="0 0 72 72">
  <g id="Group_364" data-name="Group 364" transform="translate(-326 -4351)">
    <circle id="Ellipse_38" data-name="Ellipse 38" cx="36" cy="36" r="36" transform="translate(326 4351)" fill="#ddefe2"/>
    <g id="Group_53" data-name="Group 53" transform="translate(-1 -98)">
      <path id="news-paper" d="M21.5,2.688h5.375V22.844a4.031,4.031,0,0,1-4.031,4.031H4.031A4.031,4.031,0,0,1,0,22.844V0H21.5Zm0,2.688V22.844a1.344,1.344,0,0,0,2.688,0V5.375ZM2.688,2.688V22.844a1.344,1.344,0,0,0,1.344,1.344h15.01a4,4,0,0,1-.228-1.344V2.688Zm2.688,10.75h10.75v2.688H5.375Zm0,5.375h10.75V21.5H5.375Zm0-13.437h10.75V10.75H5.375Z" transform="translate(347 4469)" fill="#25772f"/>
      <g id="Group_52" data-name="Group 52" transform="translate(364.901 4483.086)">
        <path id="Path_36" data-name="Path 36" d="M2825.986,4483.253c-.378.21-6.3,2.939-6.3,2.939v8.188l6.845,5.543,6.593-5.543v-8.9S2826.364,4483.043,2825.986,4483.253Z" transform="translate(-2819.196 -4482.223)" fill="#ddefe2"/>
        <g id="Page-1" transform="translate(0 0)">
          <g id="_001---Insurance-Document" data-name="001---Insurance-Document">
            <path id="Shape" d="M31.009,25.752l-.01,0-1,.432V33.8a4.516,4.516,0,0,0,1.9,3.667l5.271,3.755,5.271-3.753a4.516,4.516,0,0,0,1.9-3.666V26.191l-7.175-3.1Zm11.9,1.018a.552.552,0,0,1,.331.507v6.53a3.411,3.411,0,0,1-1.439,2.767l-4.311,3.069a.552.552,0,0,1-.64,0l-4.311-3.069A3.41,3.41,0,0,1,31.1,33.807v-6.53a.552.552,0,0,1,.331-.507l5.519-2.384a.552.552,0,0,1,.437,0Z" transform="translate(-30 -23.089)" fill="#25772f"/>
            <path id="Shape-2" data-name="Shape" d="M34,29.592V35.76a2.3,2.3,0,0,0,.976,1.868l3.991,2.841,3.991-2.838a2.306,2.306,0,0,0,.976-1.871V29.592l-4.967-2.145Zm8.623,1.04a.552.552,0,0,1,.086.776l-4.415,5.519a.552.552,0,0,1-.762.1l-2.208-1.656a.552.552,0,1,1,.662-.883l1.78,1.335,4.081-5.1a.552.552,0,0,1,.776-.086Z" transform="translate(-31.792 -25.042)" fill="#25772f"/>
          </g>
        </g>
      </g>
    </g>
  </g>
</svg>
