<svg id="Grain" xmlns="http://www.w3.org/2000/svg" width="48" height="48" viewBox="0 0 48 48">
  <circle id="Ellipse_69" data-name="Ellipse 69" cx="24" cy="24" r="24" fill="#ddefe2"/>
  <path id="Path_142" data-name="Path 142" d="M33.818,12H14.182A2.181,2.181,0,0,0,12,14.182V33.818A2.181,2.181,0,0,0,14.182,36H33.818A2.181,2.181,0,0,0,36,33.818V14.182A2.181,2.181,0,0,0,33.818,12ZM22.879,19.385a4.3,4.3,0,0,1,3.367-2.868,5.763,5.763,0,0,1-.375,3.993c-.622,1.619-1.747,2.365-2.122,2.241A3.692,3.692,0,0,1,22.879,19.385Zm-1.747.626a5.236,5.236,0,0,1,1.121,3.614c0,1.747-1.121,2.868-1.743,2.868s-1.5-.5-1.5-2.868A4.517,4.517,0,0,1,21.132,20.011ZM16.769,30.235c-.622,0-1.5-.5-1.5-2.868a4.517,4.517,0,0,1,2.118-3.614,5.225,5.225,0,0,1,1.125,3.614C18.516,29.114,17.391,30.235,16.769,30.235Zm3.865,2.493c-2.369,0-2.868-.873-2.868-1.5s1.121-1.747,2.868-1.747a5.226,5.226,0,0,1,3.614,1.125A4.517,4.517,0,0,1,20.634,32.727Zm3.741-3.741c-2.369,0-2.868-.874-2.868-1.5s1.121-1.743,2.868-1.743a5.238,5.238,0,0,1,3.614,1.121A4.518,4.518,0,0,1,24.375,28.986Zm4.24-3.865a3.2,3.2,0,0,1-3.367-1c-.128-.247.622-1.5,2.241-2.118a6.762,6.762,0,0,1,3.989-.375A4.28,4.28,0,0,1,28.615,25.121Zm2.991-5.859a2.957,2.957,0,0,1-3.494.75c-.371-.251-.869-1.994.626-3.49,1.244-1.249,3.989-1.249,3.989-1.249S32.727,18.017,31.607,19.261Z" fill="#25772f"/>
</svg>
