<svg id="bread_icon" data-name="bread icon" xmlns="http://www.w3.org/2000/svg" width="48" height="48" viewBox="0 0 48 48">
  <path id="Path_164" data-name="Path 164" d="M24,0A24,24,0,1,1,0,24,24,24,0,0,1,24,0Z" fill="#ddefe2"/>
  <path id="Path_158" data-name="Path 158" d="M22,13a32.361,32.361,0,0,0-6.578.477,5.935,5.935,0,0,0-2.3.93A2.664,2.664,0,0,0,12,16.5a2.355,2.355,0,0,0,1,1.984V33a2.014,2.014,0,0,0,2,2H33a2,2,0,0,0,2-2V18.2a2.089,2.089,0,0,0,1-1.7c0-2.762-6.285-3.5-10-3.5Zm0,2a31.944,31.944,0,0,1,6.148.429,4.53,4.53,0,0,1,1.555.59c.27.2.3.266.3.48a.75.75,0,0,1-.422.594A1,1,0,0,0,29,18V33H15V18a1,1,0,0,0-.6-.918A.633.633,0,0,1,14,16.5c0-.215.027-.281.3-.48a4.529,4.529,0,0,1,1.555-.59A31.942,31.942,0,0,1,22,15Zm-2.5,4A1.5,1.5,0,1,0,21,20.5,1.5,1.5,0,0,0,19.5,19ZM25,22a1,1,0,1,0,1,1A1,1,0,0,0,25,22Zm-5,5a1,1,0,1,0,1,1A1,1,0,0,0,20,27Z" fill="#25772f"/>
</svg>
