<svg xmlns="http://www.w3.org/2000/svg" width="48" height="48" viewBox="0 0 48 48">
  <g id="Group_351" data-name="Group 351" transform="translate(814.615 -344.73)">
    <circle id="Ellipse_92" data-name="Ellipse 92" cx="24" cy="24" r="24" transform="translate(-814.615 344.73)" fill="#ddefe2"/>
    <circle id="Ellipse_93" data-name="Ellipse 93" cx="2.679" cy="2.679" r="2.679" transform="translate(-793.407 356.73)" fill="#25772f"/>
    <circle id="Ellipse_94" data-name="Ellipse 94" cx="1.482" cy="1.482" r="1.482" transform="translate(-794.251 377.638)" fill="#25772f"/>
    <circle id="Ellipse_95" data-name="Ellipse 95" cx="1.482" cy="1.482" r="1.482" transform="translate(-790.103 377.638)" fill="#25772f"/>
    <g id="Group_349" data-name="Group 349" transform="translate(-802.615 362.309)">
      <circle id="Ellipse_96" data-name="Ellipse 96" cx="1.287" cy="1.287" r="1.287" transform="translate(0 0)" fill="#25772f"/>
      <path id="Path_166" data-name="Path 166" d="M-772.033,477.255l.952.073a1.793,1.793,0,0,0-.8,1.494,1.785,1.785,0,0,0,.449,1.186l-.922-.137-1.695-.252-.03,0,.312-2.493.081.006Z" transform="translate(775.42 -477.049)" fill="#25772f"/>
      <path id="Path_167" data-name="Path 167" d="M-663.32,486.122v8.318h-.311l-.3,6.85h0l-.01.221h-2.948l-.005-.954,0-.719a1.768,1.768,0,0,0,.417.049,1.781,1.781,0,0,0,.943-.268,1.793,1.793,0,0,0,.851-1.525,1.791,1.791,0,0,0-.586-1.326,1.786,1.786,0,0,0-1.207-.468,1.777,1.777,0,0,0-.436.054l0-.719-.04-7.4-1.1-.163-.92-.136a1.793,1.793,0,0,0,.851-1.525,1.791,1.791,0,0,0-.586-1.326l.953.073,2.934.224Z" transform="translate(675.253 -484.635)" fill="#25772f"/>
    </g>
    <g id="Group_350" data-name="Group 350" transform="translate(-790.728 362.309)">
      <circle id="Ellipse_97" data-name="Ellipse 97" cx="1.287" cy="1.287" r="1.287" transform="translate(9.361 0)" fill="#25772f"/>
      <path id="Path_168" data-name="Path 168" d="M-538.806,479.615l-.03,0-6.922,1.027v.079l0,.708a1.863,1.863,0,0,0-.211.04,1.768,1.768,0,0,0-.556.246,1.793,1.793,0,0,0-.8,1.494,1.785,1.785,0,0,0,.449,1.186,1.8,1.8,0,0,0,.928.559,1.712,1.712,0,0,0,.173.032l0,.708-.043,7.93v.3h-2.949l-.312-7.072h-.31v-8.318l1.509-.743,8.692-.665.081-.006Z" transform="translate(549.4 -477.049)" fill="#25772f"/>
    </g>
    <path id="Path_169" data-name="Path 169" d="M-737.6,461.357a2.5,2.5,0,0,0-2.16-1.245,2.494,2.494,0,0,0-1.944.931,2.483,2.483,0,0,0-.553,1.567,2.483,2.483,0,0,0,.231,1.049,2.5,2.5,0,0,0,2.266,1.448,2.489,2.489,0,0,0,1.863-.836,2.485,2.485,0,0,0,.635-1.661A2.483,2.483,0,0,0-737.6,461.357Zm-2.16,3.046a1.79,1.79,0,0,1-1.344-.607,1.786,1.786,0,0,1-.449-1.186,1.793,1.793,0,0,1,.8-1.494,1.78,1.78,0,0,1,.992-.3,1.786,1.786,0,0,1,1.207.468,1.791,1.791,0,0,1,.586,1.326,1.793,1.793,0,0,1-.851,1.525A1.781,1.781,0,0,1-739.763,464.4Z" transform="translate(-57.522 -98.529)" fill="#25772f" stroke="#25772f" stroke-width="0.5"/>
    <path id="Path_170" data-name="Path 170" d="M-664.323,710.327a2.5,2.5,0,0,0-2.16-1.245,2.468,2.468,0,0,0-.44.039,2.5,2.5,0,0,0-1.5.892,2.483,2.483,0,0,0-.553,1.567,2.483,2.483,0,0,0,.231,1.049,2.5,2.5,0,0,0,1.853,1.414,2.209,2.209,0,0,0,.28.03c.044,0,.088,0,.133,0a2.48,2.48,0,0,0,1.559-.548,2.447,2.447,0,0,0,.3-.288,2.485,2.485,0,0,0,.635-1.661A2.483,2.483,0,0,0-664.323,710.327Zm-1.217,2.778a1.781,1.781,0,0,1-.943.268,1.771,1.771,0,0,1-.417-.049,1.8,1.8,0,0,1-.928-.558,1.786,1.786,0,0,1-.449-1.186,1.793,1.793,0,0,1,.8-1.494,1.766,1.766,0,0,1,.556-.246,1.777,1.777,0,0,1,.436-.054,1.786,1.786,0,0,1,1.207.468,1.791,1.791,0,0,1,.586,1.326A1.793,1.793,0,0,1-665.54,713.105Z" transform="translate(-127.362 -335.811)" fill="#25772f" stroke="#25772f" stroke-width="0.5"/>
    <path id="Path_171" data-name="Path 171" d="M-515.653,554.907a2.5,2.5,0,0,0-2.16-1.245q-.112,0-.221.01c-.074.006-.147.016-.219.029a2.5,2.5,0,0,0-1.5.892,2.483,2.483,0,0,0-.553,1.567,2.482,2.482,0,0,0,.231,1.049,2.5,2.5,0,0,0,1.853,1.414c.054.009.109.017.165.022.038,0,.076.007.115.008s.088,0,.133,0a2.48,2.48,0,0,0,1.559-.547,2.5,2.5,0,0,0,.3-.289,2.485,2.485,0,0,0,.635-1.661A2.484,2.484,0,0,0-515.653,554.907Zm-1.217,2.778a1.781,1.781,0,0,1-.943.268,1.816,1.816,0,0,1-.244-.016,1.732,1.732,0,0,1-.173-.032,1.8,1.8,0,0,1-.928-.559,1.785,1.785,0,0,1-.449-1.186,1.793,1.793,0,0,1,.8-1.494,1.766,1.766,0,0,1,.556-.246,1.841,1.841,0,0,1,.211-.04,1.778,1.778,0,0,1,.225-.014,1.786,1.786,0,0,1,1.207.468,1.791,1.791,0,0,1,.586,1.326A1.793,1.793,0,0,1-516.87,557.685Z" transform="translate(-269.052 -187.687)" fill="#25772f" stroke="#25772f" stroke-width="0.5"/>
  </g>
</svg>
