<svg xmlns="http://www.w3.org/2000/svg" width="72" height="72" viewBox="0 0 72 72">
  <g id="Group_363" data-name="Group 363" transform="translate(-804 -4351)">
    <circle id="Ellipse_38" data-name="Ellipse 38" cx="36" cy="36" r="36" transform="translate(804 4351)" fill="#ddefe2"/>
    <g id="surface1" transform="translate(827 4372.002)">
      <path id="Path_37" data-name="Path 37" d="M126.157,158.457a5.716,5.716,0,1,0,5.716,5.716A5.723,5.723,0,0,0,126.157,158.457Zm3.394,4.64-4.1,4.095a.88.88,0,0,1-1.245,0l-1.565-1.565a.88.88,0,1,1,1.245-1.245l.943.943,3.473-3.473a.88.88,0,0,1,1.245,1.245Zm0,0" transform="translate(-113.384 -149.173)" fill="#25772f"/>
      <path id="Path_38" data-name="Path 38" d="M25.518,8.139V8.116c-.013-.288-.022-.593-.027-.932A3.18,3.18,0,0,0,22.5,4.068,12.338,12.338,0,0,1,14.1.529L14.079.51a1.92,1.92,0,0,0-2.609,0L11.45.529a12.339,12.339,0,0,1-8.4,3.54A3.179,3.179,0,0,0,.059,7.184c-.005.337-.014.642-.027.932V8.17c-.067,3.517-.15,7.895,1.314,11.868a15.108,15.108,0,0,0,3.624,5.646,18.96,18.96,0,0,0,7.093,4.2,2.2,2.2,0,0,0,.291.079,2.147,2.147,0,0,0,.844,0,2.2,2.2,0,0,0,.292-.08,18.973,18.973,0,0,0,7.085-4.2A15.129,15.129,0,0,0,24.2,20.034C25.668,16.049,25.585,11.663,25.518,8.139ZM12.774,22.477A7.477,7.477,0,1,1,20.25,15,7.485,7.485,0,0,1,12.774,22.477Zm0,0" transform="translate(0)" fill="#25772f"/>
    </g>
  </g>
</svg>
