<svg id="Help_icon" data-name="Help icon" xmlns="http://www.w3.org/2000/svg" width="48" height="48" viewBox="0 0 48 48">
  <circle id="Ellipse_1" data-name="Ellipse 1" cx="24" cy="24" r="24" fill="#ddefe2"/>
  <path id="Path_12" data-name="Path 12" d="M14.182,12A2.182,2.182,0,0,0,12,14.182V33.818A2.18,2.18,0,0,0,14.182,36h1.7a4.309,4.309,0,0,1-.606-2.182V14.182A4.323,4.323,0,0,1,15.879,12Zm5.457,0a2.182,2.182,0,0,0-2.184,2.182V33.818A2.18,2.18,0,0,0,19.638,36h14.18A2.178,2.178,0,0,0,36,33.818V14.182A2.18,2.18,0,0,0,33.818,12Zm7.089,4.363a4.368,4.368,0,0,1,4.366,4.366,5.061,5.061,0,0,1-2.112,3.816c-.718.666-1.163,1.1-1.163,1.637H25.636A4.449,4.449,0,0,1,27.5,22.944c.873-.806,1.407-1.342,1.407-2.215a2.183,2.183,0,0,0-4.366,0H22.364A4.367,4.367,0,0,1,26.727,16.363Zm.005,12.709a1.482,1.482,0,1,1,0,2.949c-1.026,0-1.64-.544-1.64-1.467A1.436,1.436,0,0,1,26.732,29.072Z" fill="#25772f"/>
</svg>
