<svg xmlns="http://www.w3.org/2000/svg" width="48" height="48" viewBox="0 0 48 48">
  <g id="Group_361" data-name="Group 361" transform="translate(-696 -1608)">
    <circle id="Ellipse_30" data-name="Ellipse 30" cx="24" cy="24" r="24" transform="translate(696 1608)" fill="#ddefe2"/>
    <g id="tag" transform="translate(633.961 1622)">
      <g id="Group_140" data-name="Group 140" transform="translate(85.229 3.186)">
        <g id="Group_139" data-name="Group 139">
          <path id="Path_128" data-name="Path 128" d="M238.223,81.573a.723.723,0,1,0,.723.723A.723.723,0,0,0,238.223,81.573Z" transform="translate(-237.5 -81.573)" fill="#25772f"/>
        </g>
      </g>
      <g id="Group_142" data-name="Group 142" transform="translate(79.039)">
        <g id="Group_141" data-name="Group 141">
          <path id="Path_129" data-name="Path 129" d="M90.578,0H86.537V2.108a1.895,1.895,0,1,1-1.172,0V0H81.325L79.039,4.549V15.938H92.864V4.549ZM87.853,12.652a1.4,1.4,0,0,1-.44.5,1.857,1.857,0,0,1-.629.274q-.123.03-.249.049v1.037H85.362V13.446a4.252,4.252,0,0,1-.495-.114,4.68,4.68,0,0,1-.559-.2,3.108,3.108,0,0,1-.5-.274l.533-1.058a1.031,1.031,0,0,0,.192.141,2.863,2.863,0,0,0,.4.207,4.09,4.09,0,0,0,.536.185,2.246,2.246,0,0,0,.6.081q.644,0,.644-.392a.331.331,0,0,0-.1-.244.907.907,0,0,0-.266-.174,2.892,2.892,0,0,0-.4-.144q-.233-.067-.507-.148a4.376,4.376,0,0,1-.629-.24,1.656,1.656,0,0,1-.44-.3,1.086,1.086,0,0,1-.259-.392,1.441,1.441,0,0,1-.085-.518,1.649,1.649,0,0,1,.155-.732,1.581,1.581,0,0,1,.422-.536,1.835,1.835,0,0,1,.618-.329c.045-.014.09-.026.136-.038V7.245h1.172v.963a4.067,4.067,0,0,1,.486.128,3.666,3.666,0,0,1,.455.185q.211.1.388.207l-.533,1.006a.743.743,0,0,0-.155-.111,2.922,2.922,0,0,0-.333-.17,3.224,3.224,0,0,0-.436-.155,1.743,1.743,0,0,0-.473-.067q-.651,0-.651.436a.346.346,0,0,0,.07.222.619.619,0,0,0,.207.159,1.9,1.9,0,0,0,.344.129q.207.059.481.133a6.311,6.311,0,0,1,.681.226,1.829,1.829,0,0,1,.514.3,1.231,1.231,0,0,1,.326.44,1.529,1.529,0,0,1,.115.621A1.558,1.558,0,0,1,87.853,12.652Z" transform="translate(-79.039)" fill="#25772f"/>
        </g>
      </g>
      <g id="Group_144" data-name="Group 144" transform="translate(79.039 17.109)">
        <g id="Group_143" data-name="Group 143">
          <rect id="Rectangle_242" data-name="Rectangle 242" width="13.825" height="2.891" fill="#25772f"/>
        </g>
      </g>
    </g>
  </g>
</svg>
