<svg xmlns="http://www.w3.org/2000/svg" width="48" height="48" viewBox="0 0 48 48">
  <g id="Group_355" data-name="Group 355" transform="translate(-696 -1094)">
    <circle id="Ellipse_69" data-name="Ellipse 69" cx="24" cy="24" r="24" transform="translate(696 1094)" fill="#ddefe2"/>
    <path id="surface1_1_" data-name="surface1 (1)" d="M15,16V14a5.21,5.21,0,0,0,1.871-2.953c.356-.027.91-.351,1.074-1.633a1.167,1.167,0,0,0-.473-1.2A5.305,5.305,0,0,0,18,6c0-2.426-.953-4.5-3-4.5A3.181,3.181,0,0,0,12,0C7.758,0,6,2.723,6,6a5.963,5.963,0,0,0,.527,2.215,1.171,1.171,0,0,0-.473,1.2c.164,1.281.719,1.605,1.074,1.633A5.21,5.21,0,0,0,9,14v2c-1,3-9,1-9,8H24C24,17,16,19,15,16Z" transform="translate(708 1106)" fill="#25772f"/>
  </g>
</svg>
