<svg xmlns="http://www.w3.org/2000/svg" width="48" height="48" viewBox="0 0 48 48">
  <g id="Group_361" data-name="Group 361" transform="translate(-696 -4182)">
    <circle id="Ellipse_37" data-name="Ellipse 37" cx="24" cy="24" r="24" transform="translate(696 4182)" fill="#ddefe2"/>
    <path id="lock-closed" d="M4,8V6A6,6,0,1,1,16,6V8h1a2,2,0,0,1,2,2v8a2,2,0,0,1-2,2H3a2,2,0,0,1-2-2V10A2.006,2.006,0,0,1,3,8Zm5,6.73V17h2V14.73a2,2,0,1,0-2,0ZM7,6V8h6V6A3,3,0,0,0,7,6Z" transform="translate(710 4196)" fill="#25772f"/>
  </g>
</svg>
