<svg width="119" height="30" viewBox="0 0 119 30" fill="none" xmlns="http://www.w3.org/2000/svg">
<path d="M22.0507 27.0778C22.0639 30.9674 16.8293 30.9806 16.8293 27.0778V23.0299H22.0507C22.0507 24.889 22.0507 26.4449 22.0507 27.0778Z" fill="black"/>
<path d="M12.821 2.88288L12.7946 7.04942H7.58643C7.58643 5.20348 7.6128 3.59488 7.6128 2.96199C7.59961 -0.940844 12.821 -1.00677 12.821 2.88288Z" fill="black"/>
<path d="M26.7183 22.2652H13.1111C13.1111 22.2652 7.57326 22.6344 7.58645 17.4658C7.58645 17.4658 7.58645 15.2507 7.58645 13.7871H12.8078V17.0571C13.2429 17.0571 14.3637 17.0571 15.4185 17.0571H15.9855C17.6072 17.0571 19.6378 17.0571 21.5101 17.0571H22.077C24.1999 17.0571 26.0458 17.0571 26.7314 17.0571C30.6079 17.0307 30.6079 22.2652 26.7183 22.2652Z" fill="black"/>
<path d="M2.91889 7.81424H16.5261C16.5261 7.81424 22.0639 7.44505 22.0507 12.6137C22.0507 12.6137 22.0507 14.842 22.0507 16.2924H16.8293V13.0224C16.3942 13.0224 15.2735 13.0224 14.2186 13.0224H13.6517C12.0299 13.0224 9.99937 13.0224 8.12706 13.0224H7.56009C5.43727 13.0224 3.59133 13.0224 2.9057 13.0224C-0.970762 13.0356 -0.970762 7.81424 2.91889 7.81424Z" fill="black"/>
<path d="M71.9436 9.04036C71.9436 8.15695 72.6424 7.45813 73.5258 7.45813H77.5605C82.0831 7.45813 85.208 10.5698 85.208 14.6177V14.6573C85.208 18.7051 82.0831 21.8564 77.5605 21.8564H73.5258C72.6424 21.8564 71.9436 21.1576 71.9436 20.2742V9.04036ZM77.5605 18.9952C80.158 18.9952 81.8985 17.2416 81.8985 14.6968V14.6573C81.8985 12.1125 80.1448 10.3193 77.5605 10.3193H75.1081V18.9952H77.5605Z" fill="black"/>
<path d="M88.3857 8.96126C88.3857 8.07785 89.0846 7.37903 89.968 7.37903H90.2976C91.0623 7.37903 91.5106 7.74822 91.9458 8.302L98.0505 16.3186V8.89534C98.0505 8.02511 98.7494 7.32629 99.6196 7.32629C100.49 7.32629 101.189 8.02511 101.189 8.89534V20.3533C101.189 21.2367 100.49 21.9356 99.6064 21.9356H99.5009C98.7362 21.9356 98.2879 21.5664 97.8528 21.0126L91.5238 12.7059V20.4192C91.5238 21.2895 90.825 21.9883 89.9548 21.9883C89.0846 21.9883 88.3857 21.2895 88.3857 20.4192V8.96126Z" fill="black"/>
<path d="M104.182 19.8259L109.205 8.48661C109.561 7.70868 110.194 7.23401 111.051 7.23401H111.236C112.106 7.23401 112.712 7.70868 113.068 8.48661L118.092 19.8259C118.198 20.0501 118.25 20.261 118.25 20.4588C118.25 21.3027 117.591 21.9751 116.747 21.9751C116.009 21.9751 115.508 21.54 115.231 20.8807L114.268 18.6129H107.939L106.937 20.973C106.674 21.5928 106.133 21.9619 105.474 21.9619C104.656 21.9619 104.01 21.3027 104.01 20.4852C103.997 20.2742 104.076 20.0501 104.182 19.8259ZM113.082 15.8308L111.091 11.0841L109.1 15.8308H113.082Z" fill="black"/>
<path d="M43.991 20.2083V21.8169H35.8293V7.04944H37.5171V20.2083H43.991Z" fill="black"/>
<path d="M48.4739 7.51089C48.4739 8.17015 48.0124 8.64482 47.3927 8.64482C46.7862 8.64482 46.3115 8.15696 46.3115 7.51089C46.3115 6.86481 46.773 6.37695 47.3927 6.37695C47.9992 6.37695 48.4739 6.86481 48.4739 7.51089ZM46.5884 21.8169V10.7017H48.2102V21.8169H46.5884Z" fill="black"/>
<path d="M54.2755 9.60726V11.0444H57.4664V12.3893H54.2755V21.8168H52.6537V12.3893H51.2166V11.0444H52.6537V9.81822C52.6537 7.39213 54.3678 6.08679 56.2138 6.08679C57.0576 6.11316 57.9278 6.36369 58.6003 6.86472L57.9278 8.19643C57.4268 7.84043 56.8071 7.62947 56.2401 7.62947C55.1589 7.61628 54.2755 8.3151 54.2755 9.60726Z" fill="black"/>
<path d="M68.5946 16.8988H59.5232C59.8132 19.0744 61.3955 20.4456 63.5578 20.4456C64.9291 20.4456 66.129 19.9578 66.9992 19.048L67.909 20.0237C66.8541 21.2104 65.2983 21.8828 63.4392 21.8828C60.1692 21.8828 57.9146 19.5886 57.9146 16.2659C57.9146 12.9432 60.1956 10.649 63.426 10.649C66.986 10.6358 68.766 13.1278 68.5946 16.8988ZM67.1179 15.5539C67.0124 13.4179 65.5752 12.073 63.3996 12.073C61.29 12.073 59.7737 13.4443 59.5232 15.5539H67.1179Z" fill="black"/>
</svg>
