<svg id="Logo" xmlns="http://www.w3.org/2000/svg" width="187" height="47.43" viewBox="0 0 187 47.43">
  <path id="Path_1" data-name="Path 1" d="M838,235.113a2.485,2.485,0,0,1,2.5-2.5h6.375c7.156,0,12.1,4.912,12.1,11.319v.065c0,6.408-4.944,11.385-12.1,11.385H840.5a2.485,2.485,0,0,1-2.5-2.5Zm8.88,15.743a6.488,6.488,0,0,0,6.863-6.8v-.065a6.539,6.539,0,0,0-6.863-6.863H843v13.727Z" transform="translate(-724.213 -220.811)" fill="#fff"/>
  <path id="Path_2" data-name="Path 2" d="M941.683,234.4a2.485,2.485,0,0,1,2.5-2.5h.52a3.1,3.1,0,0,1,2.6,1.464l9.661,12.686V234.3a2.472,2.472,0,0,1,4.944,0v18.118a2.485,2.485,0,0,1-2.5,2.5h-.163a3.1,3.1,0,0,1-2.6-1.464l-10.018-13.141v12.2a2.472,2.472,0,0,1-4.944,0Z" transform="translate(-801.912 -220.227)" fill="#fff"/>
  <path id="Path_3" data-name="Path 3" d="M1040.472,251.088l7.937-17.922a3.1,3.1,0,0,1,2.927-1.984h.293a3.052,3.052,0,0,1,2.895,1.984l7.937,17.922a2.439,2.439,0,0,1,.26,1.008,2.374,2.374,0,0,1-2.375,2.407,2.55,2.55,0,0,1-2.407-1.724l-1.529-3.578h-10.018l-1.594,3.741a2.459,2.459,0,0,1-2.309,1.561,2.3,2.3,0,0,1-2.309-2.342A2.655,2.655,0,0,1,1040.472,251.088Zm14.084-6.31-3.155-7.514-3.155,7.514Z" transform="translate(-875.721 -219.741)" fill="#fff"/>
  <path id="Path_4" data-name="Path 4" d="M388.64,234.8h21.525s8.75-.578,8.746,7.583v5.825l-8.251.006-.009-5.175-4.119,0h-.9c-2.574,0-5.775,0-8.73,0H396c-3.362,0-6.27,0-7.357,0C382.487,243.063,382.487,234.8,388.64,234.8Z" transform="translate(-384.025 -222.448)" fill="#fff"/>
  <path id="Path_5" data-name="Path 5" d="M462.128,285.906H440.6s-8.75.578-8.746-7.583c0,0,0-3.513,0-5.82h8.251l.009,5.164h5.02c2.574,0,5.775,0,8.73,0h.9c3.362,0,6.27,0,7.357,0C468.28,277.645,468.28,285.906,462.128,285.906Z" transform="translate(-419.868 -250.706)" fill="#fff"/>
  <path id="Path_6" data-name="Path 6" d="M440.189,190.1l-.032,6.582h-8.239c0-2.929.038-5.472.035-6.467C431.929,184.058,440.189,183.943,440.189,190.1Z" transform="translate(-419.914 -185.539)" fill="#fff"/>
  <path id="Path_7" data-name="Path 7" d="M498.513,337.218c.024,6.153-8.26,6.161-8.26.008v-6.4h8.26C498.513,333.755,498.509,336.222,498.513,337.218Z" transform="translate(-463.628 -294.407)" fill="#fff"/>
  <g id="Group_1" data-name="Group 1" transform="translate(56.67 9.611)">
    <path id="Path_8" data-name="Path 8" d="M623.038,250.825v2.535H610.127V230.008H612.8v20.817Z" transform="translate(-610.127 -228.473)" fill="#fff"/>
    <path id="Path_9" data-name="Path 9" d="M679.68,227.55a1.7,1.7,0,1,1-1.7-1.8A1.712,1.712,0,0,1,679.68,227.55Zm-2.969,22.619V232.588h2.569v17.581Z" transform="translate(-659.697 -225.282)" fill="#fff"/>
    <path id="Path_10" data-name="Path 10" d="M711.994,229.456v2.269h5.037v2.135h-5.037v14.912h-2.569V233.86h-2.269v-2.135h2.269V229.79a5.535,5.535,0,0,1,5.638-5.9,6.609,6.609,0,0,1,3.77,1.234l-1.068,2.1a4.751,4.751,0,0,0-2.669-.9A2.949,2.949,0,0,0,711.994,229.456Z" transform="translate(-682.837 -223.885)" fill="#fff"/>
    <path id="Path_11" data-name="Path 11" d="M766.261,262.642H751.916a6.159,6.159,0,0,0,6.372,5.6,7.338,7.338,0,0,0,5.438-2.2l1.434,1.535a9.237,9.237,0,0,1-7.073,2.936c-5.171,0-8.74-3.636-8.74-8.874s3.6-8.874,8.708-8.874C763.726,252.734,766.528,256.671,766.261,262.642Zm-2.335-2.135a5.479,5.479,0,0,0-5.871-5.5,5.933,5.933,0,0,0-6.139,5.5Z" transform="translate(-714.453 -245.528)" fill="#fff"/>
  </g>
</svg>
