<svg xmlns="http://www.w3.org/2000/svg" width="58.243" height="63.1" viewBox="0 0 58.243 63.1">
  <g id="thumbs-up" transform="translate(-18.283)">
    <path id="Path_593" data-name="Path 593" d="M74.668,35.266a10.961,10.961,0,0,0,1.858-6.181,9.84,9.84,0,0,0-9.706-9.67H60.145a16.649,16.649,0,0,0,1.821-7.28,15.733,15.733,0,0,0-1.328-7.053A8.334,8.334,0,0,0,56.77,1.232,12.952,12.952,0,0,0,51.045,0a4.81,4.81,0,0,0-3.413,1.4,9.118,9.118,0,0,0-2.351,4.1q-.721,2.5-1.157,4.8a6.436,6.436,0,0,1-1.346,3.242q-1.859,2.01-4.058,4.854-3.83,4.967-5.195,5.878H23.137a4.854,4.854,0,0,0-4.854,4.854V53.391a4.856,4.856,0,0,0,4.854,4.854h10.92a28.041,28.041,0,0,1,5.233,1.517q4.664,1.631,8.209,2.484a30.6,30.6,0,0,0,7.186.854h4.891a12.086,12.086,0,0,0,8.607-3.053,10.739,10.739,0,0,0,3.223-8.323,10.673,10.673,0,0,0,2.275-6.749,11.47,11.47,0,0,0-.114-1.631,10.889,10.889,0,0,0,1.442-5.46A9.9,9.9,0,0,0,74.668,35.266Zm-47.4,17.4a2.381,2.381,0,1,1,.721-1.707A2.334,2.334,0,0,1,27.27,52.671ZM70.858,32.2q-.815,1.744-2.029,1.782a5.122,5.122,0,0,1,.948,1.8,6.818,6.818,0,0,1,.378,2.1A5.993,5.993,0,0,1,68.147,42.4a5.243,5.243,0,0,1,.683,2.616,6.387,6.387,0,0,1-.664,2.787,4.227,4.227,0,0,1-1.8,1.99,12.966,12.966,0,0,1,.189,2.123q0,6.332-7.281,6.332H54.686q-4.969,0-12.969-2.768-.19-.076-1.1-.4T39.271,54.6q-.436-.153-1.327-.436T36.5,53.751q-.549-.132-1.251-.246a7.644,7.644,0,0,0-1.194-.114H32.844V29.124h1.213a3.26,3.26,0,0,0,1.346-.341,6.409,6.409,0,0,0,1.517-1.024q.778-.683,1.46-1.346A21.573,21.573,0,0,0,39.9,24.744q.834-1.005,1.308-1.612T42.4,21.578q.72-.948.872-1.138,2.085-2.578,2.919-3.451a9.63,9.63,0,0,0,2.256-4.152q.7-2.522,1.156-4.759a6.275,6.275,0,0,1,1.442-3.223q3.639,0,4.853,1.782a9.9,9.9,0,0,1,1.213,5.5,15.488,15.488,0,0,1-1.821,6.086,15.468,15.468,0,0,0-1.819,6.048H66.819a4.672,4.672,0,0,1,3.375,1.46,4.625,4.625,0,0,1,1.48,3.394A7.452,7.452,0,0,1,70.858,32.2Z" fill="#41c752"/>
  </g>
</svg>
