<svg width="172" height="145" viewBox="0 0 172 136" fill="none" xmlns="http://www.w3.org/2000/svg">
<rect x="140.638" y="104.393" width="31.1403" height="31.1403" rx="15.5701" fill="#DFF0E3"/>
<rect x="140.638" y="0.924072" width="31.1403" height="31.1403" rx="15.5701" fill="#DFF0E3"/>
<path d="M82.7133 51.5139H117.983V17.5139H138.713" stroke="#B7D1B5" stroke-width="2" stroke-dasharray="2 2"/>
<path d="M82.7133 91.5139H117.983V124.514H138.713" stroke="#B7D1B5" stroke-width="2" stroke-dasharray="2 2"/>
<rect x="140.638" y="56.0232" width="31.1403" height="31.1403" rx="15.5701" fill="#DFF0E3"/>
<path d="M83.7133 71.5139H137.713" stroke="#B7D1B5" stroke-width="2" stroke-dasharray="2 2"/>
<path d="M161.354 65.3047H151.063C150.431 65.3047 149.919 65.8166 149.919 66.448V71.0225H150.4L150.581 70.5961C150.761 70.1752 151.169 69.9145 151.63 69.9118C152.088 69.9172 152.495 70.1955 152.665 70.6205L153.3 72.2173L155.094 66.839C155.18 66.5865 155.424 66.429 155.693 66.4507C155.959 66.4778 156.171 66.6829 156.205 66.949L157.021 73.4815L157.663 71.4244C157.738 71.1854 157.959 71.0225 158.209 71.0225H159.226C159.423 70.683 159.788 70.4508 160.21 70.4508C160.843 70.4508 161.354 70.9614 161.354 71.5941C161.354 72.2255 160.843 72.7374 160.21 72.7374C159.788 72.7374 159.424 72.5052 159.226 72.1657H158.63L157.325 76.337C157.252 76.5786 157.028 76.7389 156.78 76.7389C156.763 76.7389 156.747 76.7389 156.729 76.7375C156.461 76.7131 156.247 76.5053 156.213 76.2392L155.382 69.5927L153.892 74.0613C153.816 74.2894 153.607 74.4455 153.366 74.4523C153.129 74.4482 152.908 74.3165 152.818 74.0925L151.602 71.0442L151.304 71.8195C151.213 72.03 151.006 72.1657 150.778 72.1657H149.919V76.7389C149.919 77.3716 150.431 77.8822 151.063 77.8822H161.354C161.986 77.8822 162.497 77.3716 162.497 76.7389V66.448C162.497 65.8166 161.986 65.3047 161.354 65.3047Z" fill="#638D60"/>
<path d="M152.937 9.89746C150.769 9.89746 149.012 11.6545 149.012 13.8224C149.012 17.596 153.389 21.2017 155.434 22.8074C155.436 22.809 155.438 22.8105 155.44 22.8121C155.454 22.8231 155.473 22.8388 155.487 22.8496L155.488 22.8484C155.695 23.0052 155.948 23.0903 156.208 23.0908C156.469 23.0905 156.722 23.0054 156.93 22.8484V22.8496C156.934 22.8464 156.94 22.8422 156.944 22.839C156.947 22.8366 156.951 22.8333 156.954 22.8308C156.958 22.8273 156.962 22.8238 156.966 22.8203C159.005 21.2203 163.405 17.605 163.405 13.8224C163.405 11.6545 161.647 9.89746 159.48 9.89746C157.408 9.89746 156.208 11.6966 156.208 11.6966C156.208 11.6966 155.009 9.89746 152.937 9.89746Z" fill="#638D60"/>
<rect y="26.9299" width="89.3269" height="89.3269" rx="44.6635" fill="#DFF0E3"/>
<path d="M56.8098 47.1266C55.5265 47.4705 54.4324 48.31 53.7681 49.4606C53.1039 50.6111 52.9239 51.9784 53.2677 53.2616C53.6116 54.5449 54.4511 55.639 55.6016 56.3033C56.7522 56.9675 58.1195 57.1475 59.4027 56.8037C60.686 56.4598 61.7801 55.6203 62.4443 54.4698C63.1086 53.3192 63.2886 51.9519 62.9448 50.6687C62.6009 49.3854 61.7614 48.2913 60.6108 47.6271C59.4603 46.9628 58.093 46.7828 56.8098 47.1266ZM40.7763 53.5012C40.6849 53.5308 40.5957 53.5668 40.5095 53.6092L31.351 58.1375C30.8844 58.3673 30.5254 58.7694 30.3499 59.259C30.1743 59.7485 30.196 60.2871 30.4103 60.761C30.6246 61.2349 31.0147 61.6069 31.4982 61.7984C31.9818 61.9899 32.5208 61.9859 33.0015 61.7873L42.0121 58.1737L45.6998 60.4754L39.1579 69.3103C38.6073 69.9297 38.219 70.6761 38.0278 71.4825C37.8366 72.2889 37.8484 73.1302 38.0623 73.9309C38.3747 75.0913 39.0938 76.1007 40.0885 76.775L47.2243 82.026L37.0437 85.6128C37.0412 85.6135 37.0387 85.6142 37.0362 85.6149L36.9918 85.6308C36.7284 85.6928 36.4802 85.8075 36.2624 85.968C36.0445 86.1285 35.8614 86.3315 35.7241 86.5648C35.5868 86.798 35.4981 87.0566 35.4635 87.325C35.4289 87.5934 35.449 87.866 35.5226 88.1265C35.5962 88.3869 35.7218 88.6297 35.8918 88.8403C36.0618 89.0508 36.2727 89.2248 36.5118 89.3516C36.7509 89.4784 37.0132 89.5555 37.2829 89.5782C37.5525 89.6009 37.824 89.5688 38.0809 89.4837L52.4793 85.6256C54.6141 85.0536 55.4205 82.3 54.0537 80.6296L54.0703 80.6009L48.342 73.5871L53.1051 67.1857L55.9519 70.7337C56.0482 70.8963 56.167 71.0445 56.3049 71.1739L56.3223 71.1935L56.3261 71.1925C56.5743 71.419 56.8755 71.5794 57.202 71.659C57.5285 71.7386 57.8697 71.7349 58.1943 71.6481L65.936 69.5737C66.1935 69.5095 66.4358 69.3948 66.6486 69.2361C66.8615 69.0775 67.0407 68.8782 67.1759 68.6498C67.3111 68.4213 67.3995 68.1683 67.4361 67.9054C67.4726 67.6425 67.4566 67.3749 67.3889 67.1182C67.3212 66.8616 67.2032 66.6209 67.0417 66.4102C66.8802 66.1996 66.6785 66.0231 66.4482 65.891C66.2179 65.759 65.9637 65.674 65.7004 65.641C65.437 65.608 65.1696 65.6276 64.9139 65.6988L58.5098 66.8679L55.0732 60.2569C54.9897 60.0687 54.8947 59.8858 54.7887 59.7092L54.7839 59.7065C54.1302 58.6307 53.0954 57.8405 51.8855 57.4931L42.1497 53.5465C41.7115 53.37 41.2251 53.3539 40.7763 53.5012ZM24.1162 68.3331L22.6993 70.7871L33.7032 67.8386L35.6228 65.2499L24.1162 68.3331ZM19.8657 75.6951L20.3843 77.6305L32.0913 74.4936C31.9913 73.811 31.958 73.125 32.015 72.4397L19.8657 75.6951ZM23.3569 80.9827L25.8109 82.3996L35.0759 79.917C34.5003 79.4178 33.9807 78.8684 33.5518 78.251L23.3569 80.9827ZM46.8598 91.2801L44.6266 96.8416C44.4594 97.2483 44.4306 97.6988 44.5447 98.1235C44.6823 98.6369 45.0181 99.0745 45.4783 99.3402C45.9385 99.6059 46.4854 99.6779 46.9987 99.5404C47.2801 99.4652 47.5416 99.3296 47.7652 99.1431C47.9888 98.9565 48.1691 98.7235 48.2934 98.4601L48.2962 98.4553C48.2971 98.4537 48.298 98.4521 48.2989 98.4505L52.4732 89.776L46.8598 91.2801Z" fill="#25772F"/>
<path d="M160.125 113.598L159.146 114.577L161.594 117.025L162.573 116.046L161.696 115.168L161.94 114.924C162.086 114.782 162.127 114.568 162.05 114.382C161.971 114.195 161.787 114.076 161.584 114.084C161.457 114.087 161.336 114.14 161.248 114.232L161.003 114.476L160.125 113.598ZM157.677 114.088L156.698 115.067L158.555 116.924L153.169 122.31L151.312 120.453L150.333 121.432L154.74 125.838L155.719 124.859L153.862 123.002L159.247 117.617L161.104 119.474L162.083 118.495L157.677 114.088ZM150.822 122.901L149.843 123.88L150.721 124.758L150.477 125.003C150.348 125.125 150.297 125.309 150.342 125.479C150.386 125.651 150.52 125.785 150.692 125.829C150.863 125.875 151.047 125.823 151.169 125.695L151.413 125.451L152.291 126.328L153.27 125.349L150.822 122.901Z" fill="#638D60"/>
</svg>
