<svg width="123" height="145" viewBox="0 0 123 123" fill="none" xmlns="http://www.w3.org/2000/svg">
<circle cx="61" cy="61" r="49" fill="#F7FFF9" stroke="#A1D2AD" stroke-width="2" stroke-dasharray="2 2"/>
<circle cx="27.0472" cy="27.0472" r="27.0472" fill="#DFF0E3"/>
<path d="M16.791 12.1002C16.1581 12.1112 15.6507 12.6322 15.6589 13.265C15.6589 16.683 17.121 19.4926 19.1778 21.8222C20.899 23.778 23.0458 25.442 25.2117 27.0486C20.3262 30.6739 15.6589 34.5801 15.6589 40.8295C15.6589 41.4678 16.1745 41.9779 16.8073 41.9779C17.4402 41.9779 17.9557 41.4678 17.9557 40.8295C17.9557 35.4639 22.3311 32.0187 27.1457 28.478C29.0606 29.8883 30.8883 31.2958 32.4022 32.7907H24.1669C24.1669 32.7907 22.8249 33.8463 22.192 35.0875H34.4126C34.9282 35.8185 35.3564 36.5823 35.6728 37.3843H20.9263C20.4298 38.4482 20.348 39.6811 20.348 39.6811H36.2621C36.3057 40.0548 36.333 40.4367 36.333 40.8295C36.3302 41.2442 36.5457 41.6288 36.9031 41.8388C37.2632 42.0461 37.7023 42.0461 38.0597 41.8388C38.4198 41.6288 38.6352 41.2442 38.6298 40.8295C38.6298 37.4116 37.1677 34.6047 35.1136 32.2751C33.0596 29.9456 30.4109 28.017 27.8277 26.1185C25.2417 24.2254 22.7212 22.365 20.899 20.3C19.0796 18.2378 17.9557 16.0474 17.9557 13.265C17.9612 12.9568 17.8412 12.654 17.6202 12.4358C17.3993 12.2148 17.0992 12.0948 16.791 12.1002ZM37.4814 12.1166C36.8485 12.1166 36.333 12.6294 36.333 13.265C36.333 13.6606 36.303 14.0424 36.2566 14.4134H20.348C20.348 14.4134 20.4298 15.6491 20.9263 16.7102H35.6701C35.351 17.5177 34.9118 18.276 34.3962 19.0071H22.192C22.8249 20.2509 24.1669 21.3066 24.1669 21.3066H32.4158C31.4066 22.3023 30.28 23.2515 29.0661 24.1817C29.107 24.2117 29.1425 24.239 29.1834 24.2663C29.7753 24.7055 30.3809 25.1501 30.9865 25.6002C35.1136 22.3595 38.6298 18.6934 38.6298 13.265C38.6298 12.6294 38.1142 12.1166 37.4814 12.1166Z" fill="#25772F"/>
<circle cx="95.0472" cy="27.0472" r="27.0472" fill="#DFF0E3"/>
<circle cx="95.0472" cy="95.0472" r="27.0472" fill="#DFF0E3"/>
<circle cx="27.0472" cy="95.0472" r="27.0472" fill="#DFF0E3"/>
<path d="M24.7326 80.0001C24.5787 80.0001 24.4191 80.0343 24.2709 80.0998L21.5177 81.294C20.9135 81.5562 20.6371 82.2659 20.8993 82.8701L21.988 85.3725C18.3599 87.7808 16 91.865 16 96.445C16 100.421 17.7813 103.992 20.5801 106.423C19.3631 106.537 18.3998 107.549 18.3998 108.8V110H37.6007V108.8C37.6007 107.475 36.5291 106.4 35.201 106.4H30.6836L35.7396 103.875C36.2412 103.63 36.5149 103.069 36.3838 102.519C36.2555 101.977 35.7681 101.592 35.2067 101.595C35.0186 101.595 34.8305 101.644 34.6623 101.726L25.3198 106.4H24.9578C24.0971 106.027 23.2962 105.54 22.5637 104.961C23.6268 104.516 24.3393 103.499 24.3963 102.348L33.3399 97.8729C33.8415 97.6307 34.1151 97.0692 33.984 96.5191C33.8557 95.9748 33.3684 95.5929 32.8069 95.5957C32.6188 95.5957 32.4307 95.6442 32.2625 95.7268L23.5328 100.096C22.9713 99.5231 22.2018 99.2011 21.4009 99.2011C20.5202 99.2011 19.6794 99.5887 19.1123 100.264C18.6591 99.0757 18.3998 97.7903 18.3998 96.445C18.3998 92.8397 20.1925 89.6334 22.9713 87.6326L24.2709 90.6081L29.1959 88.4278L25.8413 80.7183C25.6447 80.2623 25.1972 79.9944 24.7326 80.0001ZM30.2105 90.5796L25.2684 92.8254L26.6336 94.0823C26.9899 94.4101 27.4944 94.4899 27.9304 94.2932L29.5008 93.5893C29.9312 93.3983 30.2105 92.9708 30.2105 92.5034V90.5796Z" fill="#25772F"/>
<path d="M100.438 13C98.2343 13 96.0274 13.8356 94.3534 15.5123L83.513 26.3527C80.1623 29.7034 80.1623 35.1722 83.513 38.5256C83.624 38.6339 83.7517 38.7199 83.8961 38.781C83.8961 38.781 83.8961 38.781 83.9016 38.781C87.2745 41.7986 92.4491 41.7625 95.6859 38.5256L106.526 27.6852C109.877 24.3345 109.877 18.863 106.526 15.5123C104.85 13.8356 102.645 13 100.438 13ZM100.438 15.3208C102.04 15.3208 103.645 15.937 104.872 17.1641C107.329 19.6208 107.329 23.5767 104.872 26.0335L100.28 30.625C99.8222 31.0831 99.0838 31.0831 98.6313 30.6306C97.0795 29.0788 93.887 25.8863 93.887 25.8863C92.9737 24.973 91.4941 24.973 90.5808 25.8863L86.8498 29.6201C86.3945 30.0782 85.6533 30.0782 85.1981 29.6201C84.7456 29.1676 84.7456 28.4375 85.1897 27.9823L96.0052 17.1641C97.2322 15.937 98.8367 15.3208 100.438 15.3208Z" fill="#25772F"/>
<path d="M94.8536 79C92.9029 79 91.2984 80.6073 91.2984 82.5552H86.5552C84.6073 82.5552 83 84.1626 83 86.1105V107.445C83 109.395 84.6073 111 86.5552 111H103.149C105.1 111 106.704 109.395 106.704 107.445V86.1105C106.704 84.1626 105.1 82.5552 103.149 82.5552H98.4089C98.4089 80.6073 96.8015 79 94.8536 79ZM94.8536 81.3702C95.5208 81.3702 96.0387 81.8881 96.0387 82.5552C96.0387 83.2224 95.5208 83.7403 94.8536 83.7403C94.1865 83.7403 93.6685 83.2224 93.6685 82.5552C93.6685 81.8881 94.1865 81.3702 94.8536 81.3702ZM86.5552 84.9254H91.2984V86.1105C91.2984 86.7635 91.8304 87.2956 92.4835 87.2956H97.2238C97.8768 87.2956 98.4089 86.7635 98.4089 86.1105V84.9254H103.149C103.822 84.9254 104.334 85.4405 104.334 86.1105V107.445C104.334 108.118 103.822 108.63 103.149 108.63H86.5552C85.8853 108.63 85.3702 108.118 85.3702 107.445V86.1105C85.3702 85.4405 85.8853 84.9254 86.5552 84.9254ZM90.1133 92.0387C89.6854 92.0331 89.2885 92.2555 89.0718 92.6242C88.8578 92.9958 88.8578 93.449 89.0718 93.8205C89.2885 94.1893 89.6854 94.4117 90.1133 94.4089H94.8536C95.2787 94.4117 95.6784 94.1893 95.8951 93.8205C96.1091 93.449 96.1091 92.9958 95.8951 92.6242C95.6784 92.2555 95.2787 92.0331 94.8536 92.0387H90.1133ZM99.5939 92.0387C98.9409 92.0387 98.4089 92.5707 98.4089 93.2238C98.4089 93.8768 98.9409 94.4089 99.5939 94.4089C100.247 94.4089 100.779 93.8768 100.779 93.2238C100.779 92.5707 100.247 92.0387 99.5939 92.0387ZM90.1133 96.779C89.6854 96.7734 89.2885 96.9958 89.0718 97.3673C88.8578 97.7361 88.8578 98.1893 89.0718 98.5609C89.2885 98.9324 89.6854 99.1548 90.1133 99.1492H94.8536C95.2787 99.1548 95.6784 98.9324 95.8951 98.5609C96.1091 98.1893 96.1091 97.7361 95.8951 97.3673C95.6784 96.9958 95.2787 96.7734 94.8536 96.779H90.1133ZM99.5939 96.779C98.9409 96.779 98.4089 97.311 98.4089 97.9641C98.4089 98.6172 98.9409 99.1492 99.5939 99.1492C100.247 99.1492 100.779 98.6172 100.779 97.9641C100.779 97.311 100.247 96.779 99.5939 96.779ZM90.1133 101.519C89.6854 101.514 89.2885 101.736 89.0718 102.108C88.8578 102.476 88.8578 102.932 89.0718 103.301C89.2885 103.673 89.6854 103.895 90.1133 103.89H94.8536C95.2787 103.895 95.6784 103.673 95.8951 103.301C96.1091 102.932 96.1091 102.476 95.8951 102.108C95.6784 101.736 95.2787 101.514 94.8536 101.519H90.1133ZM99.5939 101.519C98.9409 101.519 98.4089 102.051 98.4089 102.704C98.4089 103.357 98.9409 103.89 99.5939 103.89C100.247 103.89 100.779 103.357 100.779 102.704C100.779 102.051 100.247 101.519 99.5939 101.519Z" fill="#25772F"/>
</svg>
