<svg width="146" height="145" viewBox="0 0 146 145" fill="none" xmlns="http://www.w3.org/2000/svg">
<rect x="46.8124" y="46.028" width="53.3749" height="53.3749" rx="26.6875" fill="#E8E8E8"/>
<rect x="21.3262" y="20.9456" width="105.19" height="105.19" rx="52.5948" stroke="#C9C9C9" stroke-width="2.22562" stroke-dasharray="2.23 2.23"/>
<path d="M86.2565 47.0929C82.072 46.7041 77.7348 47.9012 74.2612 50.7891L51.7694 69.457C44.8173 75.2271 43.8528 85.6093 49.6224 92.5666C49.8141 92.7917 50.0413 92.9776 50.3046 93.119C50.3046 93.119 50.3046 93.119 50.3152 93.12C56.1862 99.4435 66.0161 100.288 72.732 94.7136L95.2238 76.0456C102.176 70.2755 103.141 59.8881 97.3708 52.9361C94.4834 49.4572 90.4462 47.4821 86.2565 47.0929ZM85.8472 51.4987C88.888 51.7812 91.8255 53.2342 93.9385 55.78C98.1692 60.8774 97.4715 68.3873 92.3741 72.6181L82.8475 80.5251C81.8971 81.3139 80.4953 81.1836 79.716 80.2448C77.0437 77.0251 71.5461 70.4014 71.5461 70.4014C69.9733 68.5064 67.1644 68.2454 65.2694 69.8182L57.5278 76.2485C56.5827 77.0378 55.1756 76.9071 54.3921 75.9572C53.6128 75.0183 53.7416 73.6323 54.6651 72.8463L77.1056 54.2162C79.6514 52.1032 82.8063 51.2162 85.8472 51.4987Z" fill="#ACACAC"/>
<rect x="114.767" y="56.9595" width="30.836" height="30.836" rx="15.418" fill="#F7F7F7"/>
<rect x="58.082" y="114.086" width="30.836" height="30.836" rx="15.418" fill="#F3F3F3"/>
<rect x="0.681641" y="57.2864" width="30.836" height="30.836" rx="15.418" fill="#F3F3F3"/>
<rect x="58.082" y="0.874023" width="30.836" height="30.836" rx="15.418" fill="#F3F3F3"/>
<path d="M73.5009 8.73242C71.323 8.73242 69.5556 10.4998 69.5556 12.6762V13.335C69.5556 15.5114 71.323 17.2787 73.5009 17.2787C75.6789 17.2787 77.4446 15.5114 77.4446 13.335V12.6762C77.4446 10.4998 75.6789 8.73242 73.5009 8.73242ZM73.5009 19.2506C70.8655 19.2506 67.487 20.676 66.5158 21.9391C65.9148 22.7197 66.4846 23.8516 67.4713 23.8516H79.5305C80.5141 23.8516 81.0855 22.7197 80.4844 21.9391C79.5117 20.676 76.1332 19.2506 73.5009 19.2506Z" fill="#C9C9C9"/>
<path d="M130.185 64.0476C125.779 64.0476 122.208 67.6189 122.208 72.0254C122.208 76.4319 125.779 80.0016 130.185 80.0016C134.592 80.0016 138.162 76.4319 138.162 72.0254C138.162 67.6189 134.592 64.0476 130.185 64.0476ZM134.644 70.5003L129.619 75.5257C129.494 75.6504 129.323 75.7199 129.15 75.7199C128.973 75.7199 128.804 75.6504 128.679 75.5257L126.384 73.2301C126.123 72.9696 126.123 72.5496 126.384 72.2907C126.642 72.0302 127.064 72.0302 127.323 72.2907L129.15 74.1158L133.703 69.5609C133.963 69.3004 134.383 69.3004 134.644 69.5609C134.903 69.8198 134.903 70.2413 134.644 70.5003Z" fill="#C9C9C9"/>
<path d="M66.2641 121.524C64.699 126.611 65.6324 130.374 68.8084 131.35C69.0942 131.436 69.3595 131.496 69.6138 131.54C69.5127 131.143 69.4559 130.733 69.4559 130.314C69.4559 129.654 69.5475 129.026 69.7149 128.432C69.0168 126.99 68.3046 125.902 68.2919 125.883C68.0898 125.576 68.1719 125.163 68.4767 124.96C68.7863 124.758 69.1953 124.839 69.399 125.145C69.4432 125.213 69.876 125.872 70.3956 126.837C70.9799 125.854 71.8122 125.02 72.8435 124.381C71.659 123.168 69.5475 122.181 66.2641 121.524ZM78.1373 124.299C74.2664 124.299 70.7856 126.545 70.7856 130.314C70.7856 131.462 71.3652 132.546 72.1833 133.384C71.2942 135.242 70.8693 136.624 70.8693 136.624C70.762 136.977 70.9594 137.348 71.31 137.454C71.6637 137.562 72.0349 137.364 72.1423 137.014C72.1423 137.014 73.0567 134.04 75.0245 131.034C75.8694 129.762 76.9102 128.446 78.1957 127.239C78.4642 126.987 78.8843 126.999 79.137 127.268C79.3881 127.532 79.3754 127.953 79.1085 128.204C76.8359 130.346 75.3372 132.884 74.4228 134.814C74.7781 134.927 75.1319 134.992 75.4635 134.992C79.1338 134.992 81.4791 132.764 81.4791 127.642V124.299H78.1373Z" fill="#C9C9C9"/>
<path d="M16.1006 80.0187C15.96 80.0187 15.8194 79.9745 15.7026 79.8861C15.3931 79.6587 8.12061 74.196 8.12061 70.0458C8.12061 67.4795 10.21 65.3901 12.7762 65.3901C14.3444 65.3901 15.4768 66.2366 16.1006 66.8604C16.7244 66.2366 17.8567 65.3901 19.4249 65.3901C21.9912 65.3901 24.0789 67.4795 24.0789 70.0458C24.0789 74.196 16.8065 79.6587 16.4969 79.8892C16.3801 79.9745 16.2411 80.0187 16.1006 80.0187Z" fill="#C9C9C9"/>
</svg>
