<svg width="192" height="145" viewBox="0 0 192 134" fill="none" xmlns="http://www.w3.org/2000/svg">
<line x1="95.4167" y1="34.3333" x2="95.4167" y2="60" stroke="#DFDFDF" stroke-width="1.16667" stroke-dasharray="2.33 2.33"/>
<line x1="31.8334" y1="96.75" x2="62.1667" y2="96.75" stroke="#DFDFDF" stroke-width="1.16667" stroke-dasharray="2.33 2.33"/>
<line x1="47.4125" y1="49.0875" x2="68.8614" y2="70.5364" stroke="#DFDFDF" stroke-width="1.16667" stroke-dasharray="2.33 2.33"/>
<line x1="123.588" y1="71.7031" x2="145.036" y2="50.2542" stroke="#DFDFDF" stroke-width="1.16667" stroke-dasharray="2.33 2.33"/>
<line x1="129.833" y1="96.75" x2="160.167" y2="96.75" stroke="#DFDFDF" stroke-width="1.16667" stroke-dasharray="2.33 2.33"/>
<circle cx="17.8334" cy="96.1667" r="17.5" fill="#F7F7F7"/>
<path d="M16.8542 87.9999C12.8849 87.9999 9.66663 90.9249 9.66663 94.5342C9.66663 96.3869 10.5216 98.0535 11.8871 99.2405C11.6901 99.8829 11.282 100.519 10.5325 101.087C10.5325 101.087 10.5325 101.087 10.5294 101.087C10.4037 101.137 10.3199 101.259 10.3199 101.394C10.3199 101.576 10.4658 101.72 10.6473 101.72C10.669 101.72 10.6908 101.719 10.7125 101.712C11.9818 101.711 13.0618 101.166 13.9245 100.488C14.3295 100.656 14.7562 100.792 15.2 100.885C15.003 100.325 14.8943 99.7278 14.8943 99.1071C14.8943 95.864 17.824 93.2276 21.4271 93.2276C22.3302 93.2276 23.1914 93.3921 23.975 93.6947C23.5203 90.4827 20.5084 87.9999 16.8542 87.9999ZM21.4271 94.5342C18.5409 94.5342 16.2009 96.5809 16.2009 99.1071C16.2009 101.633 18.5409 103.68 21.4271 103.68C22.0958 103.68 22.7569 103.565 23.3776 103.346C24.1782 103.908 25.1481 104.321 26.2591 104.327C26.2808 104.332 26.3041 104.333 26.3274 104.333C26.5089 104.333 26.6532 104.189 26.6532 104.007C26.6532 103.869 26.5679 103.747 26.4391 103.702C25.8417 103.247 25.46 102.746 25.2272 102.238C26.1412 101.391 26.6517 100.271 26.6532 99.1071C26.6532 96.5809 24.3132 94.5342 21.4271 94.5342Z" fill="#CACACA"/>
<circle cx="41.1666" cy="41.3333" r="17.5" fill="#F7F7F7"/>
<path d="M44.3391 33.1667C43.0533 33.1667 41.766 33.6542 40.7895 34.6323L34.4659 40.9558C32.5114 42.9104 32.5114 46.1005 34.4659 48.0567C34.5307 48.1199 34.6052 48.1701 34.6894 48.2057C34.6894 48.2057 34.6894 48.2057 34.6926 48.2057C36.6601 49.9659 39.6786 49.9449 41.5668 48.0567L47.8904 41.7331C49.8449 39.7786 49.8449 36.5868 47.8904 34.6323C46.9123 33.6542 45.6265 33.1667 44.3391 33.1667ZM44.3391 34.5205C45.2735 34.5205 46.2095 34.88 46.9252 35.5958C48.3583 37.0289 48.3583 39.3365 46.9252 40.7696L44.2468 43.448C43.9796 43.7152 43.5489 43.7152 43.2849 43.4513C42.3797 42.546 40.5174 40.6838 40.5174 40.6838C39.9847 40.151 39.1216 40.151 38.5888 40.6838L36.4124 42.8618C36.1468 43.129 35.7144 43.129 35.4489 42.8618C35.1849 42.5979 35.1849 42.172 35.444 41.9064L41.753 35.5958C42.4688 34.88 43.4047 34.5205 44.3391 34.5205Z" fill="#CACACA"/>
<circle cx="150.833" cy="41.3333" r="17.5" fill="#F7F7F7"/>
<path d="M157.515 33.1667H144.151C143.331 33.1667 142.667 33.8315 142.667 34.6514V40.592H143.291L143.525 40.0383C143.76 39.4917 144.289 39.1531 144.888 39.1496C145.483 39.1566 146.012 39.5181 146.232 40.07L147.057 42.1436L149.387 35.1593C149.498 34.8313 149.815 34.6268 150.164 34.655C150.51 34.6902 150.785 34.9565 150.829 35.3021L151.889 43.7853L152.723 41.1139C152.82 40.8035 153.107 40.592 153.431 40.592H154.752C155.008 40.1511 155.482 39.8496 156.031 39.8496C156.852 39.8496 157.515 40.5126 157.515 41.3343C157.515 42.1542 156.852 42.819 156.031 42.819C155.482 42.819 155.01 42.5175 154.752 42.0766H153.978L152.284 47.4935C152.188 47.8073 151.897 48.0154 151.577 48.0154C151.554 48.0154 151.532 48.0154 151.51 48.0136C151.162 47.9819 150.884 47.7121 150.839 47.3665L149.76 38.7352L147.826 44.5382C147.727 44.8344 147.456 45.0372 147.142 45.046C146.835 45.0407 146.548 44.8697 146.431 44.5787L144.851 40.6202L144.465 41.627C144.347 41.9003 144.077 42.0766 143.781 42.0766H142.667V48.0154C142.667 48.8371 143.331 49.5001 144.151 49.5001H157.515C158.337 49.5001 159 48.8371 159 48.0154V34.6514C159 33.8315 158.337 33.1667 157.515 33.1667Z" fill="#CACACA"/>
<circle cx="174.167" cy="96.1667" r="17.5" fill="#F7F7F7"/>
<path d="M168.96 87.9999C168.619 87.9999 168.325 88.2319 168.245 88.5606C168.245 88.5606 167.48 91.6189 167.48 96.1414C167.48 96.2539 167.506 96.3664 167.559 96.4683C166.64 97.7145 166 100.015 166 102.061V103.437C166 104.371 166.758 105.127 167.691 105.127H172.662C172.662 105.127 169.7 104.037 169.7 101.075C169.7 98.1645 170.941 98.0871 171.565 97.3085C172.233 97.9571 173.141 98.3613 174.141 98.3613C175.34 98.3613 176.402 97.7743 177.079 96.8814H178.671C179.03 97.9254 179.321 99.6304 179.321 100.685V101.532C179.321 104.07 177.312 104.177 177.312 104.177H180.59C181.524 104.177 182.281 103.418 182.281 102.483V100.335C182.281 98.7375 181.657 96.8603 180.796 95.8901C180.768 91.51 180.038 88.5606 180.038 88.5606C179.958 88.2319 179.662 87.9999 179.321 87.9999H168.96ZM169.577 89.4799H178.706C178.845 90.0986 179.197 92.1392 179.272 95.4014H177.766C177.815 95.1606 177.841 94.9146 177.841 94.6615C177.841 92.6261 176.177 90.9598 174.141 90.9598C172.106 90.9598 170.442 92.6261 170.442 94.6615C170.442 94.9146 170.466 95.1606 170.515 95.4014H169.013C169.085 92.1392 169.438 90.0986 169.577 89.4799ZM174.141 92.4415C175.375 92.4415 176.361 93.4258 176.361 94.6615C176.361 95.8953 175.375 96.8814 174.141 96.8814C172.906 96.8814 171.922 95.8953 171.922 94.6615C171.922 93.4258 172.906 92.4415 174.141 92.4415ZM174.141 93.9215C173.734 93.9215 173.402 94.2537 173.402 94.6615C173.402 95.0692 173.734 95.4014 174.141 95.4014C174.549 95.4014 174.881 95.0692 174.881 94.6615C174.881 94.2537 174.549 93.9215 174.141 93.9215Z" fill="#CACACA"/>
<circle cx="96" cy="18" r="17.5" fill="#F7F7F7"/>
<path d="M88.1024 9.83334C87.3095 9.83334 86.6666 10.4762 86.6666 11.2691V24.1927C86.6666 24.9873 87.3095 25.6285 88.1024 25.6285H103.898C104.692 25.6285 105.333 24.9873 105.333 24.1927V12.7049C105.333 11.912 104.692 11.2691 103.898 11.2691H93.2708L92.8292 10.5291C92.57 10.0976 92.1028 9.83334 91.598 9.83334H88.1024ZM96.0008 14.1406C98.3795 14.1406 100.308 16.0709 100.308 18.4496C100.308 20.8284 98.3795 22.7569 96.0008 22.7569C93.6221 22.7569 91.6918 20.8284 91.6918 18.4496C91.6918 16.0709 93.6221 14.1406 96.0008 14.1406ZM96.0008 15.5781C95.6052 15.5781 95.2829 15.9004 95.2829 16.296V17.7318H93.8472C93.4516 17.7318 93.1293 18.054 93.1293 18.4496C93.1293 18.8452 93.4516 19.1675 93.8472 19.1675H95.2829V20.6033C95.2829 20.9989 95.6052 21.3212 96.0008 21.3212C96.3964 21.3212 96.7187 20.9989 96.7187 20.6033V19.1675H98.1545C98.5501 19.1675 98.8723 18.8452 98.8723 18.4496C98.8723 18.054 98.5501 17.7318 98.1545 17.7318H96.7187V16.296C96.7187 15.9004 96.3964 15.5781 96.0008 15.5781Z" fill="#CACACA"/>
<circle cx="96" cy="96.1667" r="37.3333" fill="#F0F0F0"/>
<path d="M84.4728 77.5001C83.4052 77.5001 82.4192 78.0711 81.8907 78.9933H81.4864C79.8549 78.9933 78.5 80.3481 78.5 81.9797V90.9424C78.5 95.9646 81.6283 100.27 86.0333 102.03C86.271 103.693 87.413 105.051 88.9559 105.601V105.874C88.9559 110.804 92.985 114.833 97.915 114.833H102.395C107.325 114.833 111.354 110.804 111.354 105.874V99.6461C113.145 99.0077 114.34 97.3159 114.34 95.4219C114.34 92.9463 112.336 90.9424 109.861 90.9424C107.388 90.9424 105.381 92.9463 105.381 95.4219C105.381 97.3159 106.583 99.0077 108.367 99.639V105.874C108.367 109.187 105.707 111.847 102.395 111.847H97.915C94.6024 111.847 91.9423 109.187 91.9423 105.874V105.601C93.4816 105.051 94.6236 103.693 94.8648 102.03C99.2664 100.27 102.395 95.9646 102.395 90.9424V81.9797C102.395 80.3481 101.04 78.9933 99.4082 78.9933H99.0039C98.4683 78.0711 97.4894 77.5001 96.4218 77.5001C94.769 77.5001 93.4355 78.8372 93.4355 80.4865C93.4355 82.1393 94.769 83.4729 96.4218 83.4729C97.4894 83.4729 98.4754 82.9018 99.0039 81.9797H99.4082V90.9424C99.4082 95.9043 95.411 99.9015 90.4491 99.9015C85.4836 99.9015 81.4864 95.9043 81.4864 90.9424V81.9797H81.8943C82.4263 82.9018 83.4052 83.4729 84.4728 83.4729C86.1256 83.4729 87.4591 82.1393 87.4591 80.4865C87.4591 78.8372 86.1256 77.5001 84.4728 77.5001Z" fill="#A6A6A6"/>
</svg>
