<svg id="Energy_Balance" data-name="Energy Balance" xmlns="http://www.w3.org/2000/svg" width="48" height="48" viewBox="0 0 48 48">
  <circle id="Ellipse_32" data-name="Ellipse 32" cx="24" cy="24" r="24" fill="#ddefe2"/>
  <path id="Path_43" data-name="Path 43" d="M24.216,10a3.36,3.36,0,1,0,3.36,3.36A3.36,3.36,0,0,0,24.216,10ZM14.134,18.962a1.129,1.129,0,0,0-.984.553,1.121,1.121,0,0,0,.984,1.686l6.722.42V36.846a1.156,1.156,0,0,0,2.309.074l.49-7.358a.565.565,0,0,1,.561-.521c.1,0,1.12-.013,1.12-.013l2.112,1.75-2.6,1.737-.013.005a1.121,1.121,0,0,0,1.005,2l4.48-2.24a1.124,1.124,0,0,0,.378-1.7l-3.12-4.642V21.622l6.719-.42a1.12,1.12,0,1,0,0-2.24Z" fill="#25772f"/>
</svg>
