<svg id="Post_Exercise_Recovery_Rate" data-name="Post Exercise Recovery Rate" xmlns="http://www.w3.org/2000/svg" width="48" height="48" viewBox="0 0 48 48">
  <circle id="Ellipse_23" data-name="Ellipse 23" cx="24" cy="24" r="24" fill="#ddefe2"/>
  <path id="Path_34" data-name="Path 34" d="M24,12a3,3,0,1,0,3,3A3,3,0,0,0,24,12Zm0,8c-.036,0-.066,0-.1,0h-.01a7.277,7.277,0,0,0-1.1.1,5.19,5.19,0,0,0-3.9,3.149l-1.674,4.019-3.665,1.836a1,1,0,0,0,.891,1.791l4-2a.986.986,0,0,0,.477-.508L20,25.8V30.15l-3.166,2.242a1.994,1.994,0,0,0-.71,2.323A2.093,2.093,0,0,0,18.105,36h2.085a2.678,2.678,0,0,1,.6-2.89,2.963,2.963,0,0,1,2.427-1.1,2.5,2.5,0,0,1,.781.159c.178.059,3.313,1.055,3.313,1.055L22.924,34A1,1,0,0,0,23,36h7.011A1.881,1.881,0,0,0,31.7,34.72a.984.984,0,0,0,.3-.708,1.983,1.983,0,0,0-.836-1.62s0,0,0,0L28,30.15V25.8l1.078,2.591a1,1,0,0,0,.473.508l4,2a1,1,0,0,0,.9-1.791l-3.667-1.836L29.1,23.251a5.178,5.178,0,0,0-3.9-3.149h0a7.379,7.379,0,0,0-1.109-.1C24.062,20,24.031,20,24,20Z" fill="#25772f"/>
</svg>
