<svg id="Injury_Predisposition" data-name="Injury Predisposition" xmlns="http://www.w3.org/2000/svg" width="48" height="48" viewBox="0 0 48 48">
  <circle id="Ellipse_25" data-name="Ellipse 25" cx="24" cy="24" r="24" fill="#ddefe2"/>
  <path id="Path_36" data-name="Path 36" d="M28.145,12a3.12,3.12,0,0,0-.7.045,3.011,3.011,0,0,0-2.395,2.379,2.981,2.981,0,0,0,.328,2.029,2.03,2.03,0,0,1-.289,2.451l-2.437,2.438.643.855h2.176l.664,1.658,2.885-2.885a3.544,3.544,0,1,0,1.971-5.924c0-.017.006-.034.006-.051A3,3,0,0,0,28.145,12ZM22.428,23.572l-3.453,3.453A3.544,3.544,0,1,0,17,32.949c0,.017-.006.034-.006.051a3,3,0,1,0,5.617-1.457,2.03,2.03,0,0,1,.289-2.451L25.8,26.2l-.48-1.2H23.5Z" fill="#25772f"/>
</svg>
