<svg id="Exercise_Induced_Ischemia" data-name="Exercise Induced Ischemia" xmlns="http://www.w3.org/2000/svg" width="48" height="48" viewBox="0 0 48 48">
  <circle id="Ellipse_26" data-name="Ellipse 26" cx="24" cy="24" r="24" fill="#ddefe2"/>
  <path id="Path_37" data-name="Path 37" d="M18.044,12A6.043,6.043,0,0,0,12,18.044c0,.136.022.276.028.419h1.046a2.717,2.717,0,0,1,1.916.78l.443.441,2.2-4.4a.9.9,0,0,1,.89-.509.924.924,0,0,1,.811.627l1.973,5.917.454-1.136a2.721,2.721,0,0,1,2.543-1.719h.872a1.846,1.846,0,1,1,0,1.846h-.872a.89.89,0,0,0-.831.561l-1.388,3.472a.923.923,0,0,1-.857.581H21.2a.924.924,0,0,1-.848-.631l-2.065-6.2-1.771,3.549a.928.928,0,0,1-1.471.246l-1.352-1.328a.872.872,0,0,0-.62-.254h-.743c1.4,4.989,6.923,9.5,9.635,11.627l0,0a1.831,1.831,0,0,0,1.107.375c.068,0,.134-.007.2-.013l4.672-7.475a2.935,2.935,0,0,1,2.51-1.434,2.867,2.867,0,0,1,1.644.544,10.963,10.963,0,0,0,2.048-5.884A6.041,6.041,0,0,0,28.11,12a6.58,6.58,0,0,0-5.033,2.769A6.58,6.58,0,0,0,18.044,12ZM30.46,25.23a1.07,1.07,0,0,0-.93.544L24.175,34.33a1.1,1.1,0,0,0-.175.592A1.079,1.079,0,0,0,25.079,36H35.844a1.081,1.081,0,0,0,1.079-1.079,1.064,1.064,0,0,0-.178-.592l-5.353-8.556A1.074,1.074,0,0,0,30.46,25.23Zm-.923,3.385h1.846l-.151,3.692H29.689Zm.927,4.244a.837.837,0,1,1,0,1.666c-.581,0-.927-.311-.927-.829A.811.811,0,0,1,30.465,32.859Z" fill="#25772f"/>
</svg>
