<svg id="Pain_Tolerance" data-name="Pain Tolerance" xmlns="http://www.w3.org/2000/svg" width="48" height="48" viewBox="0 0 48 48">
  <circle id="Ellipse_29" data-name="Ellipse 29" cx="24" cy="24" r="24" fill="#ddefe2"/>
  <path id="Path_40" data-name="Path 40" d="M23.155,12C20.908,12,13,12.923,13,22.155V26.77a3.85,3.85,0,0,0,1.241,2.942,1.888,1.888,0,0,0,.794.443c.335.859,2.455,5.777,8.015,5.843.033,0,.068,0,.105,0s.072,0,.112,0c5.553-.068,7.673-4.983,8.009-5.843a1.887,1.887,0,0,0,.794-.443,3.849,3.849,0,0,0,1.239-2.942V22.155a12.517,12.517,0,0,0-.215-2.254l-3.227,1.381a14.84,14.84,0,0,1,.673,4.565h.923v.923a1.84,1.84,0,0,1-.605,1.557,1.43,1.43,0,0,1-.542.318l-.493.118-.158.485s-1.587,4.906-6.509,4.906-6.509-4.906-6.509-4.906l-.162-.485-.491-.118a1.414,1.414,0,0,1-.539-.318,1.84,1.84,0,0,1-.607-1.557v-.923h.923c0-5.01,5.551-3.365,9.333-5.38a2.35,2.35,0,0,1,.588-2.322l1.19-1.19a2.342,2.342,0,0,1-.419-1.846,2.311,2.311,0,0,1,1.107-1.55C27.132,13.035,25.92,12,23.155,12Zm10.548.923a.471.471,0,0,0-.167.044l-4.968,2.127a.5.5,0,0,0-.294.364.508.508,0,0,0,.138.452l1.063,1.061-2.484,2.484a.5.5,0,0,0-.059.638c.02.024.037.05.059.072a.494.494,0,0,0,.55.1l4.966-2.122a.514.514,0,0,0,.3-.368.5.5,0,0,0-.136-.452L31.6,16.262l2.486-2.48a.508.508,0,0,0,.057-.64A.492.492,0,0,0,33.7,12.923ZM20.833,24,18.54,26.294A1.622,1.622,0,1,0,20.833,24Zm4.643,0a1.622,1.622,0,1,0,2.293,2.293Zm-2.322,4.615a3.466,3.466,0,0,0-2.534,1.23A.924.924,0,1,0,22,31.078a2.539,2.539,0,0,1,1.158-.616,2.552,2.552,0,0,1,1.158.616.924.924,0,1,0,1.377-1.232A3.466,3.466,0,0,0,23.155,28.616Z" fill="#25772f"/>
</svg>
