<svg id="Exercise_Heart_Rate_Profile" data-name="Exercise Heart Rate Profile" xmlns="http://www.w3.org/2000/svg" width="48" height="48" viewBox="0 0 48 48">
  <circle id="Ellipse_30" data-name="Ellipse 30" cx="24" cy="24" r="24" fill="#ddefe2"/>
  <path id="Path_41" data-name="Path 41" d="M18.143,12A7.142,7.142,0,0,0,11,19.143a9.662,9.662,0,0,0,.153,1.586H13.36a3.2,3.2,0,0,1,2.264.925l.523.518,2.6-5.2a1.067,1.067,0,0,1,1.052-.6,1.092,1.092,0,0,1,.959.741L23.095,24.1l.536-1.342a3.216,3.216,0,0,1,3.006-2.031h2.122a2.182,2.182,0,1,1,0,2.182H26.636a1.052,1.052,0,0,0-.982.663l-1.64,4.1A1.091,1.091,0,0,1,23,28.365h-.034a1.091,1.091,0,0,1-1-.746L19.524,20.3l-2.094,4.192a1.1,1.1,0,0,1-1.739.29l-1.6-1.568a1.022,1.022,0,0,0-.733-.3H11.751c2.065,5.4,7.887,10.18,10.916,12.561a.425.425,0,0,1,.049.039l.062.052v-.005A2.175,2.175,0,0,0,24.092,36a2.152,2.152,0,0,0,1.311-.443v.005a.1.1,0,0,0,.026-.021.057.057,0,0,1,.021-.013.224.224,0,0,1,.023-.021C29.181,32.6,37.182,26.02,37.182,19.143A7.14,7.14,0,0,0,30.041,12a7.777,7.777,0,0,0-5.949,3.272A7.777,7.777,0,0,0,18.143,12Z" fill="#25772f"/>
</svg>
