<svg id="Carbohydrate_sensitiviy" data-name="Carbohydrate sensitiviy" xmlns="http://www.w3.org/2000/svg" width="48" height="48" viewBox="0 0 48 48">
  <circle id="Ellipse_2" data-name="Ellipse 2" cx="24" cy="24" r="24" fill="#ddefe2"/>
  <path id="Path_13" data-name="Path 13" d="M34.956,13.4c-1.413-1.418-4.415-1.774-7.785-.988A2.009,2.009,0,0,0,25.717,15l.228.684a1,1,0,0,1-.634,1.266A.976.976,0,0,1,25,17a1,1,0,0,1-.95-.682l-.4-1.209a1.151,1.151,0,0,0-1.665-.632c-.164.093-.333.192-.5.292a3.041,3.041,0,0,0-1.332,3.544l.793,2.37a1,1,0,0,1-.632,1.266A.99.99,0,0,1,20,22a1,1,0,0,1-.95-.684s-.418-1.259-.774-2.309a.879.879,0,0,0-1.5-.3q-.385.445-.746.91a4.071,4.071,0,0,0-.739,3.453l.672,2.688a1,1,0,0,1-.727,1.211.86.86,0,0,1-.242.031,1,1,0,0,1-.969-.758L13.464,24c-1.957,4.558-1.924,9.108-.071,10.966a2.762,2.762,0,0,0,4.313,0l17.25-17.25A2.759,2.759,0,0,0,34.956,13.4Z" fill="#25772f"/>
</svg>
