<svg id="Magnesium_Need" data-name="Magnesium Need" xmlns="http://www.w3.org/2000/svg" width="48" height="48" viewBox="0 0 48 48">
  <circle id="Ellipse_11" data-name="Ellipse 11" cx="24" cy="24" r="24" fill="#ddefe2"/>
  <path id="Path_22" data-name="Path 22" d="M25.225,13c-4.9,0-10.777,2.939-10.777,8.818a6.673,6.673,0,0,0,4.746,6.524,17.329,17.329,0,0,1-6.452,3.792.978.978,0,1,0,.475,1.9,19.615,19.615,0,0,0,7.4-4.314v.007a20.423,20.423,0,0,0,1.71-1.5l8.08-8.083a5.272,5.272,0,0,1-1.556,4.323l-5.144,5.144a23.423,23.423,0,0,1-2.21,1.917,6.428,6.428,0,0,0,5.686,3.022C33.061,34.552,36,30.308,36,22.8V13Z" fill="#25772f"/>
</svg>
