<svg id="Sugar_Preference" data-name="Sugar Preference" xmlns="http://www.w3.org/2000/svg" width="48" height="48" viewBox="0 0 48 48">
  <circle id="Ellipse_13" data-name="Ellipse 13" cx="24" cy="24" r="24" fill="#ddefe2"/>
  <path id="Path_24" data-name="Path 24" d="M24.163,12a3.039,3.039,0,0,0-1.042.185L14,15.5h0a3.047,3.047,0,0,0-2,2.855V28.814a3.04,3.04,0,0,0,1.781,2.763l9.123,4.15a3.032,3.032,0,0,0,2.513,0l9.123-4.15a3.042,3.042,0,0,0,1.784-2.763V18.357a3.045,3.045,0,0,0-2-2.855L25.2,12.185A3.026,3.026,0,0,0,24.163,12Zm0,2.027a1.072,1.072,0,0,1,.344.063h0l7.833,2.85-8.182,2.978L15.979,16.94l7.835-2.85A1.113,1.113,0,0,1,24.163,14.027ZM14.027,18.389,23.15,21.7V33.611l-8.529-3.875a1.01,1.01,0,0,1-.595-.922Z" fill="#25772f"/>
</svg>
