<svg id="Salt_Sensitivity" data-name="Salt Sensitivity" xmlns="http://www.w3.org/2000/svg" width="48" height="48" viewBox="0 0 48 48">
  <circle id="Ellipse_16" data-name="Ellipse 16" cx="24" cy="24" r="24" fill="#ddefe2"/>
  <path id="Path_27" data-name="Path 27" d="M20.306,12a1.045,1.045,0,0,0-1.043,1.043v1.043a1.044,1.044,0,0,0-.919,1.569,1.05,1.05,0,0,0,.919.518H29.7a1.044,1.044,0,1,0,0-2.087V13.043A1.045,1.045,0,0,0,28.653,12Zm-3.133,6.26A4.174,4.174,0,0,0,13,22.436V33.913A2.085,2.085,0,0,0,15.087,36H33.87a2.084,2.084,0,0,0,2.087-2.087V22.436a4.173,4.173,0,0,0-4.174-4.176Zm7.306,3.133a3.135,3.135,0,0,1,3.13,3.13,1.043,1.043,0,0,1-2.087,0,1.043,1.043,0,0,0-2.087,0,1.031,1.031,0,0,0,.416.83l2.506,1.883a3.13,3.13,0,1,1-5.009,2.5,1.043,1.043,0,1,1,2.087,0,1.043,1.043,0,0,0,2.087,0,1.034,1.034,0,0,0-.416-.83L22.6,27.026a3.13,3.13,0,0,1,1.879-5.633Z" fill="#25772f"/>
</svg>
