<svg id="Caffeine_Sensitivity" data-name="Caffeine Sensitivity" xmlns="http://www.w3.org/2000/svg" width="48" height="48" viewBox="0 0 48 48">
  <circle id="Ellipse_17" data-name="Ellipse 17" cx="24" cy="24" r="24" fill="#ddefe2"/>
  <path id="Path_28" data-name="Path 28" d="M22.469,12a.962.962,0,0,0-.943.975v2.878a.959.959,0,1,0,1.919,0V12.975A.965.965,0,0,0,22.469,12Zm3.837.962a.96.96,0,0,0-.943.973v1.919a.959.959,0,1,0,1.919,0V13.934a.957.957,0,0,0-.975-.973Zm-7.674.959a.964.964,0,0,0-.946.973v.959a.96.96,0,1,0,1.921,0v-.959a.968.968,0,0,0-.282-.693A.953.953,0,0,0,18.632,13.921Zm-3.673,4.81a.957.957,0,0,0-.948,1.1L16.068,33.9a2.419,2.419,0,0,0,2.47,2.1h8.016a2.5,2.5,0,0,0,2.465-2.1l.376-2.7h2.14a2.889,2.889,0,0,0,2.848-2.472l.542-3.839a2.893,2.893,0,0,0-2.848-3.281H30.722l.246-1.789a.96.96,0,0,0-.95-1.091Zm15.5,4.8h1.618a.936.936,0,0,1,.948,1.094l-.542,3.837a.948.948,0,0,1-.948.825H29.66Z" fill="#25772f"/>
</svg>
