<svg id="Omega_3_Need" data-name="Omega 3 Need" xmlns="http://www.w3.org/2000/svg" width="48" height="48" viewBox="0 0 48 48">
  <circle id="Ellipse_18" data-name="Ellipse 18" cx="24" cy="24" r="24" fill="#ddefe2"/>
  <path id="Path_29" data-name="Path 29" d="M35.869,23.116C35.716,22.872,30.177,15,21.429,15a.856.856,0,0,0-.857.857v1.832a23.052,23.052,0,0,0-5.348,4.633s-1.584-2.53-1.6-2.565A.859.859,0,0,0,12,20.146a19.707,19.707,0,0,0,.857,3.426A19.2,19.2,0,0,0,12,27a.865.865,0,0,0,.425.739.854.854,0,0,0,1.172-.307c.018-.031,1.59-2.321,1.59-2.321a17.407,17.407,0,0,0,7.956,5.649v1.382A.856.856,0,0,0,24,33c2.53,0,4.352-1.781,5.163-2.591a8.277,8.277,0,0,1-3.448-6.836,12.149,12.149,0,0,1,.556-3.654.858.858,0,0,1,1.635.519,10.424,10.424,0,0,0-.476,3.135,6.748,6.748,0,0,0,3.426,5.912,15.451,15.451,0,0,0,5.055-5.531A.852.852,0,0,0,35.869,23.116Zm-5.012,1.313a.857.857,0,1,1,.857-.857A.858.858,0,0,1,30.857,24.429Z" fill="#25772f"/>
</svg>
