<svg id="Celiac_Predisposition" data-name="Celiac Predisposition" xmlns="http://www.w3.org/2000/svg" width="48" height="48" viewBox="0 0 48 48">
  <circle id="Ellipse_19" data-name="Ellipse 19" cx="24" cy="24" r="24" fill="#ddefe2"/>
  <path id="Path_30" data-name="Path 30" d="M13.155,12,12,13.155,34.847,36,36,34.847l-8.5-8.5a4.315,4.315,0,0,0,2.056-1.732,5.124,5.124,0,0,0-3.327-.979,3.19,3.19,0,0,0-1.207.234l-.88-.88a3.157,3.157,0,0,0,.248-1.236,5.12,5.12,0,0,0-.979-3.329,4.308,4.308,0,0,0-1.746,2.089Zm20.636,2.209s-2.448,0-3.62,1.078a2.57,2.57,0,0,0-.589,3.133,2.8,2.8,0,0,0,3.23-.686C33.791,16.657,33.791,14.209,33.791,14.209Zm-5.775,1.078a3.807,3.807,0,0,0-3.036,2.544,2.717,2.717,0,0,0,.882,3.037c.295.1,1.372-.587,1.862-1.959A6.028,6.028,0,0,0,28.016,15.287Zm3.622,4.552a7.881,7.881,0,0,0-2.548.44c-1.465.589-2.054,1.568-1.955,1.86a2.718,2.718,0,0,0,3.037.884,3.781,3.781,0,0,0,2.544-3.038A2.388,2.388,0,0,0,31.638,19.838ZM19.162,22.586a3.688,3.688,0,0,0-1.335,2.771c0,2.155.88,2.647,1.37,2.647a2.494,2.494,0,0,0,1.566-2.548,6.868,6.868,0,0,0-.143-1.417Zm-3,3.176a3.963,3.963,0,0,0-1.957,3.232c0,2.151.88,2.643,1.37,2.643a2.494,2.494,0,0,0,1.57-2.548A5.11,5.11,0,0,0,16.166,25.763ZM22.548,27.2A2.5,2.5,0,0,0,20,28.772c0,.49.49,1.37,2.645,1.37A3.679,3.679,0,0,0,25.4,28.82l-1.479-1.477A6.662,6.662,0,0,0,22.548,27.2Zm-3.538,3.653c-1.568,0-2.55,1.074-2.55,1.564s.492,1.37,2.645,1.37a3.964,3.964,0,0,0,3.232-1.959A5.136,5.136,0,0,0,19.009,30.857Z" fill="#25772f"/>
</svg>
