<svg id="Saturated_Fat_Sensitivity" data-name="Saturated Fat Sensitivity" xmlns="http://www.w3.org/2000/svg" width="48" height="48" viewBox="0 0 48 48">
  <circle id="Ellipse_3" data-name="Ellipse 3" cx="24" cy="24" r="24" fill="#ddefe2"/>
  <path id="Path_14" data-name="Path 14" d="M19.818,12a.9.9,0,0,0-.667.264l-6.887,6.887a.9.9,0,0,0,.35,1.5,4.006,4.006,0,0,1,2.5,2.5.891.891,0,0,0,.215.345,5.74,5.74,0,0,0,3.41,3.279,4.031,4.031,0,0,1,2.5,2.5.914.914,0,0,0,.212.346,5.773,5.773,0,0,0,3.412,3.279,4,4,0,0,1,2.5,2.5.906.906,0,0,0,1.494.348l2.605-2.6a1.055,1.055,0,0,0,.148-.2l.659-1.182,1.311-.779a.812.812,0,0,0,.176-.137l1.991-1.987a.91.91,0,0,0,.219-.929,5.782,5.782,0,0,0-3.283-3.41.84.84,0,0,0-.346-.215,4.012,4.012,0,0,1-2.5-2.5,5.928,5.928,0,0,0-.788-1.524.9.9,0,0,0-1.468,1.058,4.058,4.058,0,0,1,.543,1.049.935.935,0,0,0,.212.339,5.771,5.771,0,0,0,3.412,3.286,3.961,3.961,0,0,1,2.225,2.058l-1.264,1.264a4.905,4.905,0,0,0-2.659-2.189,4.9,4.9,0,0,1-3.062-3.06,4.886,4.886,0,0,0-3.06-3.06,4.907,4.907,0,0,1-3.06-3.065A4.918,4.918,0,0,0,18.674,15.3l1.264-1.264A3.93,3.93,0,0,1,22,16.256a.91.91,0,1,0,1.479-.959,5.771,5.771,0,0,0-3.393-3.247A.8.8,0,0,0,19.818,12Zm-2.61,4.76A4.913,4.913,0,0,1,19.4,19.419a4.912,4.912,0,0,0,3.065,3.06,4.921,4.921,0,0,1,3.06,3.06,4.907,4.907,0,0,0,3.06,3.065A4.9,4.9,0,0,1,31,30.422a.808.808,0,0,0-.2.238l-.721,1.286-.416.414a4.9,4.9,0,0,0-2.657-2.189,4.9,4.9,0,0,1-3.06-3.06,4.9,4.9,0,0,0-3.06-3.06,4.906,4.906,0,0,1-3.06-3.06,4.916,4.916,0,0,0-2.189-2.659Zm8.281,1.084A.9.9,0,0,0,25.2,19.6c.114.041.225.086.339.135a.9.9,0,1,0,.73-1.653c-.112-.051-.232-.094-.352-.142A.918.918,0,0,0,25.49,17.844Z" fill="#25772f"/>
</svg>
