<svg id="Anti_Oxidant_Need" data-name="Anti Oxidant Need" xmlns="http://www.w3.org/2000/svg" width="48" height="48" viewBox="0 0 48 48">
  <circle id="Ellipse_22" data-name="Ellipse 22" cx="24" cy="24" r="24" fill="#ddefe2"/>
  <path id="Path_33" data-name="Path 33" d="M24.158,12a1,1,0,0,0-.822.423,5.61,5.61,0,0,0-.882,2.015,5.476,5.476,0,0,0-3.324-1.485.46.46,0,0,0-.509.507,3.914,3.914,0,0,0,.884,2.226h9.3a3.887,3.887,0,0,0,.886-2.226.459.459,0,0,0-.511-.507,5.477,5.477,0,0,0-3.322,1.485,5.609,5.609,0,0,0-.879-2.015A1,1,0,0,0,24.158,12Zm-1.722,4.82a3.257,3.257,0,0,1-1.947.713,8.967,8.967,0,0,1-2.267-.259c-1.044.239-1.645.447-1.645.447A3.684,3.684,0,0,0,14,21.228C14,27.691,22.123,35.1,22.123,35.1a2.755,2.755,0,0,0,4.068,0s8.123-7.412,8.123-13.875a3.683,3.683,0,0,0-2.579-3.507,16.879,16.879,0,0,0-1.636-.447,9.052,9.052,0,0,1-2.274.259,3.252,3.252,0,0,1-1.947-.713,5.132,5.132,0,0,1-1.136,2.272.768.768,0,0,1-1.169,0A5.108,5.108,0,0,1,22.436,16.82Zm-3.82,3.689s.926,1.134.926,1.642a.924.924,0,0,1-1.849,0C17.693,21.642,18.616,20.509,18.616,20.509Zm5.542,0s.923,1.134.923,1.642a.923.923,0,1,1-1.847,0C23.235,21.642,24.158,20.509,24.158,20.509Zm5.539,0s.923,1.134.923,1.642a.923.923,0,1,1-1.847,0C28.774,21.642,29.7,20.509,29.7,20.509Zm-8.309,4.618s.923,1.132.923,1.64a.923.923,0,1,1-1.847,0C20.465,26.259,21.388,25.127,21.388,25.127Zm5.539,0s.923,1.132.923,1.64a.923.923,0,1,1-1.847,0C26,26.259,26.928,25.127,26.928,25.127Zm-2.77,4.616s.923,1.132.923,1.64a.923.923,0,0,1-1.847,0C23.235,30.875,24.158,29.743,24.158,29.743Z" fill="#25772f"/>
</svg>
