<svg id="Vitamin_B_and_folate" data-name="Vitamin B and folate" xmlns="http://www.w3.org/2000/svg" width="48" height="48" viewBox="0 0 48 48">
  <circle id="Ellipse_4" data-name="Ellipse 4" cx="24" cy="24" r="24" fill="#ddefe2"/>
  <path id="Path_15" data-name="Path 15" d="M21.355,12a.89.89,0,0,0-.3,1.737,2.745,2.745,0,0,1,.988.673,3.6,3.6,0,0,1,1.019,2.181A3.541,3.541,0,0,0,20.445,20C20.445,22.67,16,25.336,16,29.78,16,33.216,19.58,36,24,36s8-2.784,8-6.22c0-4.443-4.443-7.109-4.443-9.777a3.551,3.551,0,0,0-2.708-3.443,5.615,5.615,0,0,0-1.551-3.407,4.917,4.917,0,0,0-1.68-1.1A.994.994,0,0,0,21.355,12Zm9.332.009a4.261,4.261,0,0,0-4.021,4.1.351.351,0,0,0,.393.336,4.3,4.3,0,0,0,4.051-4.089A.349.349,0,0,0,30.687,12.009Z" fill="#25772f"/>
</svg>
