<svg id="Appetite_Hunger_and_Satiety" data-name="Appetite Hunger and Satiety" xmlns="http://www.w3.org/2000/svg" width="48" height="48" viewBox="0 0 48 48">
  <circle id="Ellipse_5" data-name="Ellipse 5" cx="24" cy="24" r="24" fill="#ddefe2"/>
  <path id="Path_16" data-name="Path 16" d="M15,12a1,1,0,0,0-1,1v6c0,4.655,3.793,4,3.572,6.987S17,32,17,34a2,2,0,0,0,4,0c0-.045,0-.093,0-.14-.017-2-.356-4.94-.57-7.871C20.208,23,24,23.657,24,19V13a1,1,0,1,0-2,0v5a1,1,0,1,1-2,0V13a1,1,0,0,0-2,0v5a1,1,0,1,1-2,0V13A1,1,0,0,0,15,12Zm14,0a1,1,0,0,0-1,1V34a2,2,0,1,0,4,0,1.291,1.291,0,0,0-.014-.214A39.154,39.154,0,0,0,31.2,28.77c-.382-2.05-.3-2.769.8-2.769a2.006,2.006,0,0,0,2-2V17a5,5,0,0,0-4.9-4.992C29.067,12,29.037,12,29,12Z" fill="#25772f"/>
</svg>
