<svg id="Iron_Need" data-name="Iron Need" xmlns="http://www.w3.org/2000/svg" width="48" height="48" viewBox="0 0 48 48">
  <circle id="Ellipse_6" data-name="Ellipse 6" cx="24" cy="24" r="24" fill="#ddefe2"/>
  <path id="Path_17" data-name="Path 17" d="M25.948,14a15.672,15.672,0,0,0-9.836,3.629C13.62,19.671,12,22.1,12,24.286V28.28A3.753,3.753,0,0,0,15.8,32a6.64,6.64,0,0,0,2.335-.478,4.646,4.646,0,0,1,1.578-.379c.753,0,1.743.694,3.1,1.578A9.806,9.806,0,0,0,28.3,34.57,7.789,7.789,0,0,0,36,26.706V22.572a6.079,6.079,0,0,0-.43-1.972,10.419,10.419,0,0,0-1.527-2.834A9.777,9.777,0,0,0,25.948,14Zm0,1.714a7.887,7.887,0,0,1,6.734,3.09,8.908,8.908,0,0,1,1.272,2.365,6.42,6.42,0,0,1,.33,1.4s0,0,0,0v1c-.053,4.092-2.272,5.856-5.989,5.856-4.263,0-6.237-3.428-8.58-3.428-1.384,0-2.284.857-3.913.857a2.236,2.236,0,0,1-2.089-2.237v-.334c0-1.219,1.26-3.505,3.483-5.331A14.029,14.029,0,0,1,25.948,15.714Zm-.234,1.714a9.78,9.78,0,0,0-3.442.678.438.438,0,0,0-.053.8l1.189.649a.634.634,0,0,1,.312.389l.48,1.708a.769.769,0,0,0,.456.511l.855.358a.789.789,0,0,0,1.018-.391l1.7-3.66a.51.51,0,0,0-.309-.706A7.987,7.987,0,0,0,25.714,17.428Zm4.244,1.28A.519.519,0,0,0,29.4,19l-1.655,3.558a.8.8,0,0,0,.415,1.075l3.163,1.327a.75.75,0,0,0,1-.45,4.859,4.859,0,0,0,.222-1.559,4.951,4.951,0,0,0-2.378-4.153A.5.5,0,0,0,29.958,18.708Zm-9.92.633a1,1,0,0,0-.525.157c-2.414,1.557-4.106,3.562-4.106,4.45a1.181,1.181,0,0,0,1.079,1.195c1.466,0,2.3-.857,3.22-.857A6.3,6.3,0,0,1,23.182,25.4a.4.4,0,0,0,.607-.456L22.65,20.885a.84.84,0,0,0-.405-.507l-1.667-.906A1.068,1.068,0,0,0,20.039,19.341Zm5.327,4.588a.463.463,0,0,0-.362.58l.715,2.541a4.674,4.674,0,0,0,4.78-.124.539.539,0,0,0-.073-.957l-4.8-2.009A.422.422,0,0,0,25.366,23.93Z" fill="#25772f"/>
</svg>
