<svg id="Detoxification_Ability" data-name="Detoxification Ability" xmlns="http://www.w3.org/2000/svg" width="48" height="48" viewBox="0 0 48 48">
  <circle id="Ellipse_7" data-name="Ellipse 7" cx="24" cy="24" r="24" fill="#ddefe2"/>
  <path id="Path_18" data-name="Path 18" d="M26,18V13.5a1.5,1.5,0,0,0-2.907-.5H23a1,1,0,0,0-1,1v4c0,3.772-9.849,4.095-10,10.845a5.947,5.947,0,0,0,6.745,6.1A6.085,6.085,0,0,1,18,32a20.133,20.133,0,0,1,.463-3.214,1,1,0,1,1,1.952.43A18.565,18.565,0,0,0,20,32a4,4,0,0,0,8,0c0-2.741-1.874-6.515-1.9-6.55a1,1,0,1,1,1.791-.9c.086.171,2.1,4.237,2.1,7.448a6.058,6.058,0,0,1-.75,2.943A5.464,5.464,0,0,0,30,35a6.015,6.015,0,0,0,6-6C36,22,26,21.4,26,18Z" fill="#25772f"/>
</svg>
