<svg id="Alcohol_Addiction" data-name="Alcohol Addiction" xmlns="http://www.w3.org/2000/svg" width="48" height="48" viewBox="0 0 48 48">
  <circle id="Ellipse_8" data-name="Ellipse 8" cx="24" cy="24" r="24" fill="#ddefe2"/>
  <path id="Path_19" data-name="Path 19" d="M31.8,13.014l-7.3,1.3a.924.924,0,0,0-.749,1.073l.064.363L16.9,14.238a.937.937,0,0,0-1.11.709L13.811,24a4.642,4.642,0,0,0,2.652,5.235L16,31.362l-3.112.064v0a.927.927,0,0,0-.152,1.832l3.42.751a1,1,0,0,0,.412.09l3.414.747a.929.929,0,0,0,.568-1.762l-2.742-1.332.471-2.128a.28.28,0,0,0,.064.009A4.646,4.646,0,0,0,22.87,25.99l1.524-6.977.987,5.508a4.62,4.62,0,0,0,4.449,3.815l.383,2.145-2.78,1.22a.928.928,0,0,0,.489,1.786l3.478-.619h0a.946.946,0,0,0,.333-.062l3.489-.623A.928.928,0,0,0,35.1,30.34l-3.061-.185-.383-2.136a4.646,4.646,0,0,0,2.854-5.127l-1.632-9.127A.927.927,0,0,0,31.8,13.014ZM31.217,15l.731,4.105H28.133l.938,5.25c.22,1.416-1.079,1.346-1.229,1.178a2.794,2.794,0,0,1-.636-1.341L25.739,15.98ZM17.408,16.251l5.433,1.189-.566,2.594H18.41L17.5,24.2c-.3,1.35-1.1,2.918-1.5,2.293a2.769,2.769,0,0,1-.372-2.094Z" fill="#25772f"/>
</svg>
