<svg id="Phosporus" xmlns="http://www.w3.org/2000/svg" width="48" height="48" viewBox="0 0 48 48">
  <circle id="Ellipse_9" data-name="Ellipse 9" cx="24" cy="24" r="24" fill="#ddefe2"/>
  <path id="Path_20" data-name="Path 20" d="M20,12a4.941,4.941,0,0,0-4.938,4.392A5,5,0,0,0,17,26a4.347,4.347,0,0,0,.853-.083,22.754,22.754,0,0,1,2.121,8.161,2.035,2.035,0,0,0,2,1.921H26.02a2.024,2.024,0,0,0,2-1.936,16.3,16.3,0,0,1,1.489-6.482,7.075,7.075,0,0,1,1.054-1.7A4.333,4.333,0,0,0,31.5,26a4.49,4.49,0,0,0,1.218-8.814A6,6,0,0,0,27,13h-.012a.732.732,0,0,0-.636,1.064c.062.133.121.264.176.4a1,1,0,0,1-.922,1.387,1,1,0,0,1-.933-.646A5.117,5.117,0,0,0,20,12Zm5,14.215A4.448,4.448,0,0,0,27.5,27c.033,0,.059-.007.09-.007a18.466,18.466,0,0,0-1.57,6.987c0,.036.012.019,0,.019H21.973c-.012,0,0,.017,0-.026A24.012,24.012,0,0,0,20.36,26.7,4.858,4.858,0,0,0,22,27a4.981,4.981,0,0,0,1-.114V30.9a1,1,0,1,0,2,0Z" fill="#25772f"/>
</svg>
