<svg id="Calcium_Need" data-name="Calcium Need" xmlns="http://www.w3.org/2000/svg" width="48" height="48" viewBox="0 0 48 48">
  <circle id="Ellipse_10" data-name="Ellipse 10" cx="24" cy="24" r="24" fill="#ddefe2"/>
  <path id="Path_21" data-name="Path 21" d="M32.5,15a3.469,3.469,0,0,0-.5.052c0-.017,0-.036,0-.052a3,3,0,1,0-5.618,1.458,2.023,2.023,0,0,1-.29,2.449l-8.117,8.119a3.518,3.518,0,0,0-3.2-.952A3.5,3.5,0,0,0,15.5,33a3.52,3.52,0,0,0,.5-.05c0,.014,0,.036,0,.05a3,3,0,1,0,5.62-1.456,2.026,2.026,0,0,1,.287-2.449l8.119-8.119a3.52,3.52,0,0,0,3.195.952A3.5,3.5,0,0,0,32.5,15Z" fill="#25772f"/>
</svg>
