<svg width="24" height="24" viewBox="0 0 24 24" fill="none" xmlns="http://www.w3.org/2000/svg">
<circle cx="12" cy="12" r="12" fill="#25772F"/>
<path d="M12.0008 6C9.79793 6 8.00001 7.79673 8.00001 10.0008C7.99882 10.1801 8.09264 10.3476 8.24821 10.4402C8.40496 10.5292 8.59615 10.5292 8.75291 10.4402C8.90847 10.3476 9.00229 10.1801 9.0011 10.0008C9.0011 8.33825 10.3383 6.9999 12.0008 6.9999C13.6645 6.9999 15.0005 8.32637 15.0005 10.0008C15.0005 11.6111 14.345 12.5575 13.6348 13.3093C13.2821 13.6857 12.9164 14.0004 12.6076 14.321C12.2989 14.6428 12.0008 14.9979 12.0008 15.5002C12.0008 16.3363 11.3346 17.0001 10.501 17.0001C9.66612 17.0001 9.0011 16.3339 9.0011 15.5002C9.00229 15.3209 8.90847 15.1523 8.75291 15.0609C8.59615 14.9706 8.40496 14.9706 8.24821 15.0609C8.09264 15.1523 7.99882 15.3209 8.00001 15.5002C8.00001 16.8754 9.12579 18 10.501 18C11.8761 18 13.0007 16.8778 13.0007 15.5002C13.0007 15.4492 13.0767 15.2794 13.3308 15.0145C13.585 14.7485 13.9697 14.4148 14.3664 13.9921C15.1573 13.1513 16.0004 11.8973 16.0004 10.0008C16.0004 7.78961 14.2013 6 12.0008 6ZM12.3582 7.9998C11.3263 7.9998 10.501 8.72538 10.501 9.75022C10.501 10.7679 9.50105 10.9342 9.50105 11.5006C9.50105 11.959 10.001 12.0707 10.001 12.5005C10.001 12.9304 9.50105 13.0029 9.50105 13.5004C9.50105 13.998 10.1376 14.5003 10.7503 14.5003C11.3643 14.5003 12.0008 13.7225 12.0008 13.0005C12.0008 12.2773 11.5009 11.7821 11.5009 10.3345C11.5009 9.47472 11.749 8.9997 12.3582 8.9997C12.6646 8.9997 13.0007 9.16002 13.0007 9.50084C13.0007 9.77516 13.2251 10.0008 13.5007 10.0008C13.7762 10.0008 14.0006 9.77516 14.0006 9.50084C14.0006 9.46759 13.997 9.43434 13.9911 9.40109C13.9377 8.87976 13.4757 7.9998 12.3582 7.9998Z" fill="white"/>
</svg>
