<svg xmlns="http://www.w3.org/2000/svg" width="48" height="51" viewBox="0 0 48 51">
  <g id="Group_362" data-name="Group 362" transform="translate(-208 -613)">
    <circle id="Ellipse_29" data-name="Ellipse 29" cx="24" cy="24" r="24" transform="translate(208 616)" fill="#ddefe2"/>
    <circle id="Ellipse_29-2" data-name="Ellipse 29" cx="8.208" cy="8.208" r="8.208" transform="translate(239 613)" fill="#25772f"/>
    <text id="_1" data-name="1" transform="translate(245 625)" fill="#fff" font-size="10" font-family="Helvetica-Bold, Helvetica" font-weight="700"><tspan x="0" y="0">1</tspan></text>
    <g id="lab-microscope" transform="translate(72.051 630)">
      <g id="Group_89" data-name="Group 89" transform="translate(152.95)">
        <path id="Path_91" data-name="Path 91" d="M161.976,592.248a.426.426,0,0,0,.425-.425v-.2a.426.426,0,0,0-.425-.425h-7.1a.426.426,0,0,0-.425.425v.2a.426.426,0,0,0,.425.425Z" transform="translate(-154.418 -578.632)" fill="#25772f"/>
        <path id="Path_92" data-name="Path 92" d="M219.156,4.851a7.255,7.255,0,0,0-2.311-1.558l0,0a.632.632,0,0,0-.776.24l-.493.767a1.577,1.577,0,0,0-.391-.079c-.04,0-.083,0-.125,0a1.594,1.594,0,0,0-.336.036l.869-1.356.27-.421a.637.637,0,0,0-.193-.88L213.342.1a.641.641,0,0,0-.882.193l-4.041,6.3a.637.637,0,0,0,.193.88l.44.283-.2.312-.2.313-.125.2a.637.637,0,0,0,.193.88l.378.242a.637.637,0,0,0,.88-.193l.125-.2L210.3,9l.2-.312.434.279a.641.641,0,0,0,.882-.193l1.658-2.587a1.538,1.538,0,0,0,.166.432,1.623,1.623,0,0,0,1.46.829,1.62,1.62,0,0,0,1.475-2.164,5.36,5.36,0,0,1-.989,9.826.637.637,0,0,1-.189.028H213.31a.637.637,0,0,1-.638-.638v-.142h-3.046v2.87c.066,0,.134-.006.2-.006h9.145a1.555,1.555,0,0,0,.74-2.71,7.256,7.256,0,0,0-.555-9.656Zm-4.1,1.562a.579.579,0,0,1-.561-.434.57.57,0,0,1-.019-.149.58.58,0,0,1,.483-.572.514.514,0,0,1,.1-.009.581.581,0,1,1,0,1.163Zm3.867,9.768a.53.53,0,0,1-.225.049.544.544,0,0,1,0-1.088.529.529,0,0,1,.225.049.639.639,0,0,1,.1.062.544.544,0,0,1,.215.432A.55.55,0,0,1,218.923,16.182Z" transform="translate(-207.141 0)" fill="#25772f"/>
        <path id="Path_93" data-name="Path 93" d="M155.435,845.006a2.685,2.685,0,0,0-2.485,2.679h11.144a.637.637,0,0,0,.638-.638V845h-9.1C155.567,845,155.5,845,155.435,845.006Z" transform="translate(-152.95 -827.037)" fill="#25772f"/>
      </g>
    </g>
  </g>
</svg>
