<svg id="DNA_testing_choice" data-name="DNA testing choice" xmlns="http://www.w3.org/2000/svg" width="173.293" height="33.607" viewBox="0 0 173.293 33.607">
  <path id="Path_59" data-name="Path 59" d="M24.78,21.324A1.909,1.909,0,0,0,22.7,19.237a1.909,1.909,0,0,0-2.085,2.087v5.663h-.057a4.584,4.584,0,0,0-4.112-2.116c-4.4,0-6.424,3.746-6.424,7.75,0,5.4,3.055,7.95,6.538,7.95a4.37,4.37,0,0,0,4.4-2.632h.057V38.6A1.729,1.729,0,0,0,22.9,40.57c1.284,0,1.884-.688,1.884-1.974V21.324ZM14.186,32.764c0-1.945.657-4.634,3.312-4.634,2.541-.028,3.341,2.488,3.341,4.633,0,2.374-.914,4.547-3.341,4.547-2.227-.057-3.312-2.087-3.312-4.547Zm13.906,5.718a1.852,1.852,0,0,0,2.084,2.089,1.852,1.852,0,0,0,2.085-2.089V31.59A3.24,3.24,0,0,1,35.43,28.3c1.8,0,2.627,1.2,2.627,2.889v7.292a1.853,1.853,0,0,0,2.085,2.089,1.852,1.852,0,0,0,2.085-2.089V30.361c0-4.232-2.741-5.491-5.254-5.491A5.974,5.974,0,0,0,31.919,27.5h-.057v-.543c0-1.259-.571-2.089-1.885-2.089s-1.884.83-1.884,2.089V38.484ZM59.387,29.16c0-3-2.77-4.29-6.768-4.29-4.283,0-6.623,2.116-6.623,3.774a1.66,1.66,0,0,0,1.769,1.6c1.657,0,1.742-2.287,4.826-2.287,1.4,0,2.627.514,2.627,1.716s-.8,1.43-1.8,1.544l-2.541.286c-3.2.372-5.825,1.344-5.825,4.8a4.463,4.463,0,0,0,4.712,4.261,7.175,7.175,0,0,0,5.711-2.432,2.255,2.255,0,0,0,2.456,2.431,1.746,1.746,0,0,0,1.884-1.6,15.064,15.064,0,0,1-.428-2.8V29.159Zm-4.169,5.633c0,1.544-1.4,3.031-3.683,3.031-1.428,0-2.313-.772-2.313-1.716,0-1.258.943-1.8,2.684-2.059l1.513-.229a3.749,3.749,0,0,0,1.8-.658v1.63Zm7.32,3.93c0,1.085.553,1.639,1.889,1.639.882,0,1.335-.29,1.335-.819a.577.577,0,0,0-.642-.617h-.264c-.328,0-.479-.151-.479-.429V34.814h.554c.541,0,.831-.164.831-.6s-.29-.606-.831-.606h-.554V32.481a.919.919,0,1,0-1.838,0V33.6h-.315c-.516,0-.731.2-.731.6s.215.606.731.606h.314v3.91Zm9.9-1.477c.617,0,.807-.163.807-.794a3.1,3.1,0,0,0-3.325-3.014,3.289,3.289,0,0,0-3.475,3.582,3.221,3.221,0,0,0,3.538,3.342c1.109,0,2.885-.517,2.885-1.627a.76.76,0,0,0-.756-.719c-.743,0-.743.908-2.129.908a1.587,1.587,0,0,1-1.7-1.678h4.155ZM68.28,36.188a1.652,1.652,0,0,1,1.675-1.463A1.574,1.574,0,0,1,71.5,36.188H68.28Zm5.855-.694c0,1.237.831,1.678,1.9,1.942l1.083.265c.656.164,1.058.239,1.058.706,0,.378-.416.668-1.07.668-1.36,0-1.436-1.135-2.228-1.135a.707.707,0,0,0-.745.769c0,.909,1.386,1.653,3.048,1.653,1.386,0,2.833-.694,2.833-2.195,0-1.286-1.246-1.728-2.292-1.967l-.768-.176c-.567-.127-.982-.227-.982-.657,0-.391.416-.568,1.057-.568,1.158,0,1.184.845,1.9.845a.765.765,0,0,0,.768-.807c0-.846-1.41-1.4-2.807-1.4-1.272,0-2.759.555-2.759,2.056Zm7.531,3.229c0,1.085.553,1.639,1.889,1.639.882,0,1.335-.29,1.335-.819a.578.578,0,0,0-.643-.617h-.264c-.328,0-.479-.151-.479-.429V34.814h.553c.542,0,.832-.164.832-.6s-.291-.606-.832-.606H83.5V32.481a.919.919,0,1,0-1.839,0V33.6H81.35c-.516,0-.73.2-.73.6s.214.606.731.606h.315v3.91Zm4.281.719a.92.92,0,1,0,1.84,0V34.36a.92.92,0,1,0-1.84,0Zm-.038-7.58a.957.957,0,1,0,.958-.959.958.958,0,0,0-.958.959Zm3.438,7.58a.92.92,0,1,0,1.84,0V36.4a1.428,1.428,0,0,1,1.4-1.45c.794,0,1.159.529,1.159,1.274v3.216a.92.92,0,1,0,1.84,0V35.86a2.164,2.164,0,0,0-2.318-2.421,2.634,2.634,0,0,0-2.228,1.16h-.026v-.24c0-.555-.252-.92-.831-.92s-.831.366-.831.92v5.082Zm9.256-2.56c0-1.135.365-2.005,1.549-2.005.857,0,1.36.593,1.36,1.929,0,1.313-.629,1.855-1.448,1.855-1.045,0-1.461-.933-1.461-1.779Zm4.672-2.573c0-.568-.265-.87-.831-.87a.763.763,0,0,0-.831.87v.227h-.026a2.068,2.068,0,0,0-1.939-1.1c-1.549,0-2.883,1.122-2.883,3.505a2.776,2.776,0,0,0,2.947,3.078,2.26,2.26,0,0,0,1.775-.883h.025v.378c0,1.45-.453,2.018-1.574,2.018-1.033,0-1.184-.946-1.952-.946a.765.765,0,0,0-.756.782c0,.9,1.373,1.526,2.771,1.526a2.966,2.966,0,0,0,3.273-3.242V34.309Z" transform="translate(-4.838 -9.291)" fill="#b0b0b0"/>
  <path id="Path_60" data-name="Path 60" d="M192.53,47.931a3.051,3.051,0,0,0,3.337,3.33c1.889,0,2.8-1.11,2.8-1.917a.729.729,0,0,0-.768-.707c-.97,0-.693,1.186-1.978,1.186-1.007,0-1.549-.745-1.549-1.892,0-1.665.843-2.156,1.561-2.156,1.322,0,1.007,1.085,1.877,1.085a.778.778,0,0,0,.856-.8c0-.857-1.146-1.727-2.683-1.727a3.254,3.254,0,0,0-3.45,3.593Zm7.115,2.409a.919.919,0,1,0,1.839,0V47.3a1.428,1.428,0,0,1,1.4-1.45c.793,0,1.158.529,1.158,1.274V50.34a.919.919,0,1,0,1.839,0V46.758a2.163,2.163,0,0,0-2.316-2.421,2.471,2.471,0,0,0-2.054.971h-.025V42.773a.919.919,0,1,0-1.839,0Zm9.255-2.547c0-1.2.491-2.094,1.561-2.094s1.561.894,1.561,2.094c0,1.122-.465,2.106-1.561,2.106s-1.561-.984-1.561-2.106Zm-1.839,0c0,1.841.894,3.468,3.4,3.468s3.4-1.627,3.4-3.468a3.4,3.4,0,1,0-6.8,0Zm8.085,2.547a.92.92,0,1,0,1.839,0V45.258a.919.919,0,1,0-1.839,0V50.34Zm-.038-7.58a.957.957,0,1,0,.957-.959.958.958,0,0,0-.957.959Zm3.085,5.171a3.051,3.051,0,0,0,3.337,3.33c1.889,0,2.8-1.11,2.8-1.917a.728.728,0,0,0-.769-.707c-.969,0-.693,1.186-1.977,1.186-1.008,0-1.549-.745-1.549-1.892,0-1.665.844-2.156,1.561-2.156,1.322,0,1.007,1.085,1.877,1.085a.777.777,0,0,0,.856-.8c0-.857-1.147-1.727-2.682-1.727a3.255,3.255,0,0,0-3.451,3.593Zm12.832.214c.617,0,.807-.163.807-.794a3.1,3.1,0,0,0-3.325-3.014,3.289,3.289,0,0,0-3.476,3.582,3.221,3.221,0,0,0,3.539,3.342c1.108,0,2.883-.517,2.883-1.627a.759.759,0,0,0-.755-.719c-.743,0-.743.908-2.129.908a1.588,1.588,0,0,1-1.7-1.678h4.155Zm-4.155-1.059a1.651,1.651,0,0,1,1.674-1.463,1.575,1.575,0,0,1,1.549,1.463H226.87Z" transform="translate(-92.986 -20.189)" fill="#b0b0b0"/>
  <path id="Path_61" data-name="Path 61" d="M271.15,52.517a1.033,1.033,0,1,0,1.033-1.034,1.038,1.038,0,0,0-1.033,1.034Zm3.337-2.22a3.051,3.051,0,0,0,3.337,3.33c1.888,0,2.8-1.11,2.8-1.917a.728.728,0,0,0-.768-.707c-.969,0-.693,1.186-1.977,1.186-1.007,0-1.549-.745-1.549-1.892,0-1.665.844-2.156,1.561-2.156,1.323,0,1.008,1.085,1.877,1.085a.778.778,0,0,0,.856-.8c0-.857-1.146-1.727-2.682-1.727a3.255,3.255,0,0,0-3.451,3.593Zm8.677-.138c0-1.2.491-2.094,1.561-2.094s1.561.894,1.561,2.094c0,1.122-.466,2.106-1.561,2.106s-1.561-.984-1.561-2.106Zm-1.839,0c0,1.841.894,3.468,3.4,3.468s3.4-1.627,3.4-3.468a3.4,3.4,0,1,0-6.8,0Zm7.983,2.547a.919.919,0,1,0,1.838,0V49.641a1.359,1.359,0,0,1,1.335-1.425c.718,0,1.007.529,1.007,1.186v3.3a.919.919,0,1,0,1.838,0V49.641a1.358,1.358,0,0,1,1.335-1.424c.719,0,1.008.529,1.008,1.186v3.3a.919.919,0,1,0,1.838,0V48.934a2.033,2.033,0,0,0-2.292-2.232,2.5,2.5,0,0,0-2.166,1.16,1.831,1.831,0,0,0-1.763-1.161,2.591,2.591,0,0,0-2.215,1.16h-.026v-.24a.87.87,0,1,0-1.737,0V52.7Z" transform="translate(-130.957 -22.555)" fill="#b0b0b0"/>
  <path id="Path_62" data-name="Path 62" d="M13.811,6.918A6.906,6.906,0,1,1,6.905,0a6.911,6.911,0,0,1,6.906,6.918" transform="translate(0 0)" fill="#afafaf"/>
  <path id="Path_63" data-name="Path 63" d="M4.27,9.937a.979.979,0,0,1,0-1.392,1,1,0,0,1,1.4,0l2.449,2.43,4-4.581a1,1,0,0,1,1.4,0,.977.977,0,0,1,0,1.389L8.123,14.747,4.271,9.937Z" transform="translate(-1.922 -2.948)" fill="#fff"/>
  <text id="_" data-name="®" transform="translate(168.294 22.545)" fill="#ccc" font-size="6" font-family="Helvetica"><tspan x="0" y="0">®</tspan></text>
</svg>
