<svg width="20" height="20" viewBox="0 0 20 20" fill="none" xmlns="http://www.w3.org/2000/svg">
<circle cx="10" cy="10" r="10" fill="#A5B3BE"/>
<path d="M10 0C4.477 0 0 4.477 0 10C0 15.523 4.477 20 10 20C15.523 20 20 15.523 20 10C20 4.477 15.523 0 10 0ZM10 2C11.105 2 12 2.895 12 4C12 5.105 11.105 6 10 6C8.895 6 8 5.105 8 4C8 2.895 8.895 2 10 2ZM15 10H12V11.807L13.557 15.7C13.762 16.213 13.513 16.795 13 17C12.487 17.205 11.905 16.956 11.7 16.443L10.323 13H9.677L8.3 16.443C8.095 16.956 7.513 17.205 7 17C6.487 16.795 6.238 16.213 6.443 15.7L8 11.807V10H5C4.448 10 4 9.552 4 9C4 8.448 4.448 8 5 8H15C15.552 8 16 8.448 16 9C16 9.552 15.552 10 15 10Z" fill="#EAEFF3"/>
</svg>
