<svg id="_120_" data-name="120%" xmlns="http://www.w3.org/2000/svg" width="145" height="145" viewBox="0 0 145 145">
  <path id="Path_154" data-name="Path 154" d="M145,72.5A72.5,72.5,0,1,1,72.5,0,72.5,72.5,0,0,1,145,72.5Zm-130.5,0a58,58,0,1,0,58-58A58,58,0,0,0,14.5,72.5Z" fill="#f3f3f3"/>
  <path id="Path_155" data-name="Path 155" d="M145,72.5A72.5,72.5,0,1,1,72.5,0,72.5,72.5,0,0,1,145,72.5Zm-130.5,0a58,58,0,1,0,58-58A58,58,0,0,0,14.5,72.5Z" fill="#41c752"/>
  <path id="Path_156" data-name="Path 156" d="M47.968,86V62.361h-5.28L34.43,70.513l3.473,3.65,3.969-4V86ZM70.2,86V80.684H61.551c5.883-4.111,8.47-7.194,8.47-10.809,0-4.749-4-7.868-9.569-7.868a13.033,13.033,0,0,0-9.569,3.934l3.367,4.04a8.827,8.827,0,0,1,6.308-2.587c1.737,0,3.26.851,3.26,2.481,0,2.339-1.914,3.969-12.156,11.376V86Zm12.49.425c6.911,0,10.136-5.989,10.136-12.227S89.6,62.007,82.689,62.007,72.553,67.961,72.553,74.2,75.778,86.425,82.689,86.425Zm0-5.387c-2.835,0-3.969-2.658-3.969-6.84s1.134-6.8,3.969-6.8,3.969,2.623,3.969,6.8S85.524,81.038,82.689,81.038Z" fill="#41c752"/>
  <path id="Path_157" data-name="Path 157" d="M103.311,74.206a5.87,5.87,0,0,0,4.5-2v-4.06h-5.043v1.967h2.791v1.269a3.567,3.567,0,0,1-2.252.809,3.477,3.477,0,0,1,0-6.947,3,3,0,0,1,2.506,1.38l1.872-1.015a4.947,4.947,0,0,0-4.378-2.363,5.482,5.482,0,1,0,0,10.959ZM116.328,74V72.018h-4.473v-8.6H109.6V74Z" fill="#41c752"/>
</svg>
