<svg width="24" height="24" viewBox="0 0 24 24" fill="none" xmlns="http://www.w3.org/2000/svg">
<circle cx="12" cy="12" r="12" fill="#EAF0F3"/>
<path d="M12 4C7.5816 4 4 7.5816 4 12C4 16.4184 7.5816 20 12 20C16.4184 20 20 16.4184 20 12C20 7.5816 16.4184 4 12 4ZM14.8 8.8C15.464 8.8 16 9.336 16 10C16 10.664 15.464 11.2 14.8 11.2C14.136 11.2 13.6 10.664 13.6 10C13.6 9.336 14.136 8.8 14.8 8.8ZM9.2 8.8C9.864 8.8 10.4 9.336 10.4 10C10.4 10.664 9.864 11.2 9.2 11.2C8.536 11.2 8 10.664 8 10C8 9.336 8.536 8.8 9.2 8.8ZM12 16.4C10.3744 16.4 8.9616 15.512 8.2024 14.2024C8.048 13.936 8.2464 13.6 8.5536 13.6H15.4456C15.7536 13.6 15.9512 13.936 15.7968 14.2024C15.0384 15.512 13.6256 16.4 12 16.4Z" fill="#A5B3BE"/>
</svg>
