<svg xmlns="http://www.w3.org/2000/svg" width="25" height="25" viewBox="0 0 25 25">
  <g id="Group_363" data-name="Group 363" transform="translate(-189 -444)">
    <circle id="Ellipse_36" data-name="Ellipse 36" cx="12.5" cy="12.5" r="12.5" transform="translate(189 444)" fill="#ddefe2"/>
    <g id="link" transform="translate(195 450)">
      <g id="Group_195" data-name="Group 195" transform="translate(0)">
        <path id="Path_140" data-name="Path 140" d="M12.667,1A3.421,3.421,0,0,0,7.834,1L5.877,2.956a.285.285,0,0,0-.059.316.275.275,0,0,0,.274.17l.087-.006a2.443,2.443,0,0,1,.448.011,4.112,4.112,0,0,1,.8.162.282.282,0,0,0,.283-.071l1.33-1.33a1.751,1.751,0,0,1,2.417,0,1.711,1.711,0,0,1,0,2.417L9.553,6.529A3.325,3.325,0,0,0,8.68,4.986a3.369,3.369,0,0,0-2.1-.973,3.416,3.416,0,0,0-2.017.441,3.359,3.359,0,0,0-.711.531L1,7.834a3.417,3.417,0,0,0,4.833,4.833l1.956-1.956a.285.285,0,0,0-.212-.486l-.09.006a2.4,2.4,0,0,1-.446-.012,4.13,4.13,0,0,1-.8-.162.282.282,0,0,0-.282.072l-1.33,1.33a1.751,1.751,0,0,1-2.417,0,1.711,1.711,0,0,1,0-2.417L4.112,7.137A3.324,3.324,0,0,0,4.986,8.68a3.369,3.369,0,0,0,2.105.972q.159.015.318.014a3.513,3.513,0,0,0,2.41-.987l2.848-2.848A3.421,3.421,0,0,0,12.667,1ZM7.892,7.893A1.694,1.694,0,0,1,5.774,5.774,1.694,1.694,0,0,1,7.892,7.893Z" transform="translate(0.001 0)" fill="#25772f"/>
      </g>
    </g>
  </g>
</svg>
