<svg xmlns="http://www.w3.org/2000/svg" width="24" height="24" viewBox="0 0 24 24">
  <path id="Icon_Area_Copy_4" data-name="Icon Area Copy 4" d="M22.675.883H1.325A1.325,1.325,0,0,0,0,2.208V23.559a1.325,1.325,0,0,0,1.325,1.324H12.82V15.589H9.692V11.967H12.82V9.3c0-3.1,1.893-4.788,4.659-4.788a25.657,25.657,0,0,1,2.8.143v3.24H18.356c-1.5,0-1.8.715-1.8,1.763v2.313h3.587l-.467,3.622h-3.12v9.293h6.116A1.324,1.324,0,0,0,24,23.558V2.208A1.325,1.325,0,0,0,22.675.883Z" transform="translate(0 -0.883)" fill="#fff" fill-rule="evenodd"/>
</svg>
