<svg xmlns="http://www.w3.org/2000/svg" width="13.556" height="13.555" viewBox="0 0 13.556 13.555">
  <path id="Icon_Area_Copy_4" data-name="Icon Area Copy 4" d="M12.807.883H.748A.748.748,0,0,0,0,1.631V13.691a.748.748,0,0,0,.748.748H7.241V9.189H5.474V7.143H7.241V5.635a2.465,2.465,0,0,1,2.631-2.7,14.491,14.491,0,0,1,1.579.081v1.83H10.368c-.849,0-1.014.4-1.014,1V7.144H11.38L11.116,9.19H9.354v5.249h3.454a.748.748,0,0,0,.747-.748V1.631A.748.748,0,0,0,12.807.883Z" transform="translate(0 -0.883)" fill="#41c752" fill-rule="evenodd"/>
</svg>
