<svg xmlns="http://www.w3.org/2000/svg" width="24" height="24" viewBox="0 0 24 24">
  <path id="Icon_Area" data-name="Icon Area" d="M12,3.046c3.2,0,3.584.012,4.85.07,3.252.148,4.771,1.691,4.919,4.919.058,1.265.069,1.645.069,4.849s-.012,3.584-.069,4.849C21.62,20.958,20.1,22.5,16.85,22.652c-1.266.058-1.644.07-4.85.07s-3.584-.012-4.849-.07c-3.26-.149-4.771-1.7-4.919-4.92-.058-1.265-.07-1.644-.07-4.849s.013-3.583.07-4.849C2.381,4.807,3.9,3.263,7.151,3.115,8.417,3.058,8.8,3.046,12,3.046ZM12,.883C8.741.883,8.333.9,7.053.955c-4.358.2-6.78,2.618-6.98,6.98C.014,9.216,0,9.624,0,12.883s.014,3.668.072,4.948c.2,4.358,2.618,6.78,6.98,6.98,1.281.058,1.689.072,4.948.072s3.668-.014,4.948-.072c4.354-.2,6.782-2.618,6.979-6.98.059-1.28.073-1.689.073-4.948s-.014-3.667-.072-4.947c-.2-4.354-2.617-6.78-6.979-6.98C15.668.9,15.259.883,12,.883Zm0,5.838a6.162,6.162,0,1,0,6.162,6.162A6.162,6.162,0,0,0,12,6.721Zm0,10.162a4,4,0,1,1,4-4A4,4,0,0,1,12,16.883ZM18.406,5.038a1.44,1.44,0,1,0,1.439,1.44A1.441,1.441,0,0,0,18.406,5.038Z" transform="translate(0 -0.883)" fill="#fff" fill-rule="evenodd"/>
</svg>
