<svg id="Lower_risk_of_type_2_diabetes" data-name="Lower risk of type 2 diabetes" xmlns="http://www.w3.org/2000/svg" width="72" height="72" viewBox="0 0 72 72">
  <circle id="Ellipse_81" data-name="Ellipse 81" cx="36" cy="36" r="36" fill="#ddefe2"/>
  <path id="Path_161" data-name="Path 161" d="M22.349,21a8.2,8.2,0,0,0-5.864,2.512L14,26.077v22a11.548,11.548,0,0,0,8.171,3.385H36l.006-.007A3.376,3.376,0,0,0,39.18,46.92a3.3,3.3,0,0,1,.39-3.048,3.767,3.767,0,0,0,.661-2.142,3.657,3.657,0,0,0-.192-1.177,3.041,3.041,0,0,1,.833-2.981,3.75,3.75,0,0,0,1.051-2.611,3.9,3.9,0,0,0-.687-2.2,1.006,1.006,0,0,1,.8-1.606h12.58A3.387,3.387,0,0,0,57.953,27.2a3.513,3.513,0,0,0-3.523-2.816h-25.2l-.979-.978A8.221,8.221,0,0,0,22.349,21ZM54.616,41.308s-3.385,4.9-3.385,6.769a3.385,3.385,0,1,0,6.769,0C58,46.206,54.616,41.308,54.616,41.308Z" fill="#25772f"/>
</svg>
