<svg id="Refined" xmlns="http://www.w3.org/2000/svg" width="72" height="72" viewBox="0 0 72 72">
  <circle id="Ellipse_70" data-name="Ellipse 70" cx="36" cy="36" r="36" fill="#ddefe2"/>
  <path id="Path_143" data-name="Path 143" d="M35.813,16a3.289,3.289,0,0,0-1.147.2l-8.389,3.048a3.376,3.376,0,0,0-2.209,3.159v9.641a3.339,3.339,0,0,0,.184,1.055L16.209,36.03A3.377,3.377,0,0,0,14,39.189v9.641a3.367,3.367,0,0,0,1.966,3.054l8.39,3.815a3.37,3.37,0,0,0,2.779,0l8.39-3.815a2.681,2.681,0,0,0,.289-.183,2.628,2.628,0,0,0,.288.183l8.39,3.815a3.371,3.371,0,0,0,2.779,0l8.389-3.815a3.367,3.367,0,0,0,1.966-3.054V39.189a3.385,3.385,0,0,0-2.209-3.159l-8.042-2.924a3.325,3.325,0,0,0,.184-1.055V22.41a3.385,3.385,0,0,0-2.209-3.159L36.96,16.2A3.654,3.654,0,0,0,35.813,16Zm0,3.356,7.472,2.714-7.472,2.72-7.472-2.72Zm-8.39,5.951,6.712,2.438v7.36l-6.712-3.054ZM25.746,36.135l7.472,2.72-7.472,2.714-7.472-2.714Zm20.135,0,7.472,2.72-7.472,2.714-7.472-2.714ZM17.356,42.086l6.712,2.438v7.36l-6.712-3.054Zm20.135,0L44.2,44.525v7.36l-6.712-3.054Z" fill="#25772f"/>
</svg>
