<svg xmlns="http://www.w3.org/2000/svg" width="48" height="48" viewBox="0 0 48 48">
  <g id="Group_362" data-name="Group 362" transform="translate(-140 -1246)">
    <g id="Group_361" data-name="Group 361">
      <circle id="Ellipse_36" data-name="Ellipse 36" cx="24" cy="24" r="24" transform="translate(140 1246)" fill="#ddefe2"/>
      <g id="atom_1_" data-name="atom (1)" transform="translate(155 1261)">
        <path id="Path_138" data-name="Path 138" d="M212.582,211a1.582,1.582,0,1,0,1.582,1.582A1.584,1.584,0,0,0,212.582,211Zm0,0" transform="translate(-203.583 -203.583)" fill="#25772f"/>
        <path id="Path_139" data-name="Path 139" d="M16.382,3.2a1.568,1.568,0,0,0-1.022.384,7.166,7.166,0,0,0-3.339.179C11.411,1.6,10.393,0,9,0S6.587,1.6,5.977,3.762a7.162,7.162,0,0,0-3.339-.179A1.567,1.567,0,0,0,1.617,3.2,1.614,1.614,0,0,0,0,4.781a1.611,1.611,0,0,0,1.152,1.5,7.264,7.264,0,0,0,1.8,2.729c-.224.232-.455.464-.645.7C1.152,11.114.757,12.375,1.16,13.3a1.561,1.561,0,0,0-.07.441,1.577,1.577,0,0,0,2.941.8,9.861,9.861,0,0,0,1.946-.3C6.588,16.4,7.605,18,9,18s2.417-1.609,3.027-3.78c2.037.534,3.982.569,4.737-.738.54-.936.16-2.276-1.071-3.772-.191-.232-.421-.464-.645-.7a7.262,7.262,0,0,0,1.8-2.729A1.611,1.611,0,0,0,18,4.781,1.614,1.614,0,0,0,16.382,3.2ZM14.825,4.536a1.535,1.535,0,0,0,.935,1.7A7.277,7.277,0,0,1,14.281,8.28,18.794,18.794,0,0,0,12.59,6.932a19.542,19.542,0,0,0-.318-2.142,7.186,7.186,0,0,1,2.552-.254Zm-4.507,6.747c-.439.253-.884.481-1.328.694-.43-.21-.867-.439-1.309-.694s-.869-.523-1.264-.787c-.034-.482-.054-.981-.054-1.5s.02-1.01.054-1.491c.406-.273.826-.539,1.265-.793s.887-.49,1.318-.7c.431.211.871.442,1.318.7s.859.52,1.265.793c.034.481.054.977.054,1.491s-.02,1.014-.054,1.5c-.4.265-.815.528-1.264.787Zm1.125.544c-.053.377-.113.741-.183,1.086-.332-.11-.676-.239-1.027-.382.2-.11.409-.217.613-.335s.4-.246.6-.369Zm-3.689.7c-.344.137-.685.265-1.016.374-.069-.34-.129-.7-.18-1.072.2.123.391.25.6.369.183.106.386.216.6.328ZM5.321,9.706q-.452-.351-.84-.7c.267-.237.541-.472.84-.7-.007.231-.013.463-.013.693s.005.471.013.707ZM6.556,6.178c.053-.38.114-.747.185-1.094.333.111.68.241,1.036.385-.207.112-.415.214-.622.334s-.4.251-.6.376Zm3.667-.709c.355-.144.7-.274,1.036-.385.071.347.132.714.185,1.094-.2-.124-.391-.256-.6-.376s-.415-.222-.622-.334Zm2.455,2.837c.3.232.573.467.84.7q-.389.345-.84.7c.008-.236.013-.472.013-.707s-.005-.462-.013-.693ZM9,1.054c.72,0,1.488,1.173,2.009,3A19.068,19.068,0,0,0,9,4.859a19.07,19.07,0,0,0-2.009-.8C7.511,2.227,8.279,1.054,9,1.054ZM5.726,4.79a19.532,19.532,0,0,0-.318,2.142A18.793,18.793,0,0,0,3.718,8.28,7.285,7.285,0,0,1,2.239,6.235a1.534,1.534,0,0,0,.935-1.7,7.2,7.2,0,0,1,2.552.254Zm-1.5,8.676a1.574,1.574,0,0,0-2.147-1.184,4.571,4.571,0,0,1,1.043-1.9c.175-.213.389-.427.6-.641A19,19,0,0,0,5.409,11.07a19.538,19.538,0,0,0,.314,2.122,10.32,10.32,0,0,1-1.5.274ZM9,16.944c-.72,0-1.487-1.17-2.007-3a19.125,19.125,0,0,0,2.029-.806c.627.281,1.3.551,1.993.781C10.493,15.764,9.722,16.944,9,16.944Zm6.85-3.99c-.36.623-1.73.719-3.577.254a19.512,19.512,0,0,0,.317-2.139,19.022,19.022,0,0,0,1.693-1.331c.206.214.42.428.6.641.9,1.1,1.268,2.062.972,2.575Zm0,0" transform="translate(0)" fill="#25772f"/>
      </g>
    </g>
  </g>
</svg>
