<svg xmlns="http://www.w3.org/2000/svg" width="48" height="48" viewBox="0 0 48 48">
  <g id="Group_355" data-name="Group 355" transform="translate(-696 -1094)">
    <circle id="Ellipse_69" data-name="Ellipse 69" cx="24" cy="24" r="24" transform="translate(696 1094)" fill="#ddefe2"/>
    <path id="Vector" d="M3,0A3,3,0,0,0,0,3V21a.986.986,0,0,0,.3.707A2.882,2.882,0,0,0,3,24H19a1,1,0,1,0,0-2H3a1,1,0,0,1,0-2H18a2,2,0,0,0,2-2V2a2,2,0,0,0-2-2ZM7,6h7a1,1,0,0,1,0,2H7A1,1,0,1,1,7,6Z" transform="translate(710 1108)" fill="#25772f"/>
  </g>
</svg>
