<svg id="Lower_risk_of_cardiac_disease" data-name="Lower risk of cardiac disease" xmlns="http://www.w3.org/2000/svg" width="72" height="72" viewBox="0 0 72 72">
  <circle id="Ellipse_80" data-name="Ellipse 80" cx="36" cy="36" r="36" fill="#ddefe2"/>
  <path id="Path_159" data-name="Path 159" d="M25.782,16A11.779,11.779,0,0,0,14,27.783a15.669,15.669,0,0,0,.253,2.615H17.9a5.287,5.287,0,0,1,3.733,1.526l.865.858,4.3-8.584a1.756,1.756,0,0,1,1.736-.991,1.8,1.8,0,0,1,1.582,1.223l3.846,11.537.886-2.215A5.306,5.306,0,0,1,39.794,30.4h3.5a3.6,3.6,0,1,1,0,3.6h-3.5a1.732,1.732,0,0,0-1.617,1.1l-2.707,6.77A1.8,1.8,0,0,1,33.8,43h-.056a1.8,1.8,0,0,1-1.652-1.23L28.06,29.688l-3.451,6.917a1.807,1.807,0,0,1-2.868.478L19.1,34.5A1.694,1.694,0,0,0,17.9,34H15.237c3.41,8.915,13.013,16.8,18.011,20.725a.787.787,0,0,1,.077.063c.035.028.077.063.105.084v-.007a3.606,3.606,0,0,0,2.166.731,3.563,3.563,0,0,0,2.165-.731v.007a.174.174,0,0,0,.042-.035.177.177,0,0,1,.035-.021l.035-.035c6.116-4.794,19.319-15.649,19.319-27A11.779,11.779,0,0,0,45.411,16C39.2,16,35.6,21.4,35.6,21.4S32,16,25.782,16Z" fill="#25772f"/>
  <path id="Path_160" data-name="Path 160" d="M52.358,47.382V40.226a2.134,2.134,0,0,0-2.135-2.135H47.364a2.135,2.135,0,0,0-2.135,2.135v7.156H42.311a1.425,1.425,0,0,0-1.312.87h0l0,.009a1.43,1.43,0,0,0,.311,1.546l6.483,6.483.5-.5-.5.5a1.42,1.42,0,0,0,2.009,0l6.483-6.483h0a1.421,1.421,0,0,0,.419-1,1.447,1.447,0,0,0-.108-.542v0a1.419,1.419,0,0,0-1.312-.876Z" fill="#25772f" stroke="#fff" stroke-width="1.412"/>
</svg>
