<svg xmlns="http://www.w3.org/2000/svg" width="48" height="48" viewBox="0 0 48 48">
  <g id="Group_353" data-name="Group 353" transform="translate(-428 -645)">
    <g id="Carbs" transform="translate(428 645)">
      <circle id="Ellipse_65" data-name="Ellipse 65" cx="24" cy="24" r="24" fill="#ddefe2"/>
    </g>
    <path id="surface1" d="M19.979,1.013a1,1,0,1,0-2,0c0,4.667-3.8,7.664-7.992,10.743a42.035,42.035,0,0,1-4.573-3.75h7.164a7.212,7.212,0,0,0,1.717-2H3.668a9.633,9.633,0,0,1-1.1-2H15.4a6.369,6.369,0,0,0,.5-2H2.06a8.314,8.314,0,0,1-.062-1A1,1,0,0,0,.5.135a1,1,0,0,0-.5.878A11.092,11.092,0,0,0,3.059,8.454,39.45,39.45,0,0,0,9.4,13.808a38.237,38.237,0,0,1,6.025,5.061,8.931,8.931,0,0,1,2.56,6.119,1,1,0,1,0,2,0,11.092,11.092,0,0,0-3.059-7.441A33.372,33.372,0,0,0,11.672,13C15.921,9.847,19.979,6.448,19.979,1.013ZM15.9,23.989a6.368,6.368,0,0,0-.5-2H2.575a9.572,9.572,0,0,1,1.108-2H14.3a7.215,7.215,0,0,0-1.717-2H5.4a30.474,30.474,0,0,1,2.915-2.5c-.035-.027-.066-.051-.1-.074-.515-.382-1.042-.769-1.569-1.159C3.059,17.078,0,20.266,0,24.987a1,1,0,0,0,2,0,8.3,8.3,0,0,1,.066-1Z" transform="translate(442 656)" fill="#25772f"/>
  </g>
</svg>
