<svg id="Group_150" data-name="Group 150" xmlns="http://www.w3.org/2000/svg" width="64" height="63.999" viewBox="0 0 64 63.999">
  <g id="discount" transform="translate(0 0)">
    <path id="Path_130" data-name="Path 130" d="M174.325,172.111a2.966,2.966,0,1,0-2.965-2.966A2.969,2.969,0,0,0,174.325,172.111Zm0,0" transform="translate(-149.939 -145.408)" fill="#41c752"/>
    <path id="Path_131" data-name="Path 131" d="M296.161,298.371a2.966,2.966,0,1,0,2.965,2.966A2.969,2.969,0,0,0,296.161,298.371Zm0,0" transform="translate(-256.546 -261.075)" fill="#41c752"/>
    <path id="Path_132" data-name="Path 132" d="M60.382,36.5,64,32l-3.618-4.5,2.062-5.395-4.838-3.155.284-5.767-5.573-1.5-1.5-5.573-5.767.284L41.891,1.556,36.5,3.618,32,0,27.5,3.618l-5.4-2.062L18.954,6.395,13.187,6.11l-1.5,5.573-5.573,1.5.284,5.767L1.556,22.109,3.619,27.5,0,32l3.618,4.5L1.556,41.891l4.838,3.155-.284,5.767,5.573,1.5,1.5,5.573,5.767-.284,3.155,4.838,5.4-2.062L32,64l4.5-3.618,5.4,2.062L45.046,57.6l5.767.284,1.5-5.573,5.573-1.5-.284-5.767,4.838-3.155Zm-36-19.5a6.743,6.743,0,1,1-6.743,6.743A6.75,6.75,0,0,1,24.386,16.995ZM20.021,46.714,17.35,44.043,43.573,17.821l2.671,2.671ZM39.615,47a6.743,6.743,0,1,1,6.743-6.743A6.75,6.75,0,0,1,39.615,47Zm0,0" transform="translate(0 0)" fill="#41c752"/>
  </g>
  <ellipse id="Ellipse_54" data-name="Ellipse 54" cx="21.297" cy="21.296" rx="21.297" ry="21.296" transform="translate(11.14 12.232)" fill="#41c752"/>
</svg>
