<svg xmlns="http://www.w3.org/2000/svg" width="25.145" height="21" viewBox="0 0 25.145 21">
  <g id="left-quote" transform="translate(0 -7.858)">
    <g id="Group_151" data-name="Group 151" transform="translate(0 7.858)">
      <path id="Path_133" data-name="Path 133" d="M8.048,17.375a6.663,6.663,0,0,0-1.841-.269,5.786,5.786,0,0,0-2.309.473c.58-2.124,1.974-5.79,4.751-6.2a.66.66,0,0,0,.538-.475L9.8,8.731A.66.66,0,0,0,9.25,7.9a4.61,4.61,0,0,0-.621-.042C5.3,7.858,1.994,11.337.6,16.319c-.818,2.923-1.057,7.317.957,10.082a6.013,6.013,0,0,0,4.887,2.457h.026A5.85,5.85,0,0,0,8.048,17.375Z" transform="translate(0 -7.858)" fill="#41c752"/>
      <path id="Path_134" data-name="Path 134" d="M60.191,20.138a5.864,5.864,0,0,0-3.517-2.763,6.663,6.663,0,0,0-1.841-.269,5.787,5.787,0,0,0-2.309.473c.58-2.124,1.974-5.79,4.752-6.2a.66.66,0,0,0,.538-.475l.607-2.171a.66.66,0,0,0-.545-.831,4.6,4.6,0,0,0-.621-.042c-3.333,0-6.634,3.479-8.028,8.461-.817,2.923-1.057,7.317.957,10.083a6.013,6.013,0,0,0,4.887,2.456H55.1a5.85,5.85,0,0,0,5.094-8.72Z" transform="translate(-35.8 -7.858)" fill="#41c752"/>
    </g>
  </g>
</svg>
