<svg xmlns="http://www.w3.org/2000/svg" width="17.32" height="16.594" viewBox="0 0 17.32 16.594">
  <path id="star" d="M16.944,8.567a1.242,1.242,0,0,0-.689-2.119l-4.194-.609a.548.548,0,0,1-.413-.3l-1.875-3.8a1.242,1.242,0,0,0-2.228,0l-1.875,3.8a.548.548,0,0,1-.413.3l-4.194.609A1.242,1.242,0,0,0,.375,8.567l3.034,2.958a.549.549,0,0,1,.158.486l-.716,4.176a1.216,1.216,0,0,0,.271,1.007,1.255,1.255,0,0,0,1.531.3L8.4,15.524a.561.561,0,0,1,.511,0L12.666,17.5a1.229,1.229,0,0,0,.578.145,1.246,1.246,0,0,0,.953-.447,1.216,1.216,0,0,0,.271-1.007l-.716-4.176a.549.549,0,0,1,.158-.486Z" transform="translate(0.001 -1.047)" fill="#41c752"/>
</svg>
