<svg xmlns="http://www.w3.org/2000/svg" xmlns:xlink="http://www.w3.org/1999/xlink" width="170" height="23.764" viewBox="0 0 170 23.764">
  <defs>
    <linearGradient id="linear-gradient" x1="0.756" y1="0.901" x2="0.41" y2="0.359" gradientUnits="objectBoundingBox">
      <stop offset="0" stop-color="#fb8c0c"/>
      <stop offset="0.234" stop-color="#f9870c"/>
      <stop offset="0.499" stop-color="#f6790e"/>
      <stop offset="0.62" stop-color="#f5710f"/>
      <stop offset="0.746" stop-color="#f36910"/>
      <stop offset="1" stop-color="#f15d12"/>
    </linearGradient>
    <linearGradient id="linear-gradient-2" x1="0.701" y1="0.893" x2="0.195" y2="-0.096" gradientUnits="objectBoundingBox">
      <stop offset="0" stop-color="#f5710f" stop-opacity="0"/>
      <stop offset="0.082" stop-color="#ee6a11" stop-opacity="0.102"/>
      <stop offset="0.289" stop-color="#df5d16" stop-opacity="0.329"/>
      <stop offset="0.488" stop-color="#d3521a" stop-opacity="0.506"/>
      <stop offset="0.675" stop-color="#ca4a1d" stop-opacity="0.635"/>
      <stop offset="0.844" stop-color="#c5451f" stop-opacity="0.714"/>
      <stop offset="0.982" stop-color="#c44420" stop-opacity="0.741"/>
    </linearGradient>
    <clipPath id="clip-path">
      <path id="Path_564" data-name="Path 564" d="M298.234,335.727a2.083,2.083,0,1,1-2.083-2.083A2.084,2.084,0,0,1,298.234,335.727Z" transform="translate(-294.067 -333.644)" fill="none"/>
    </clipPath>
    <radialGradient id="radial-gradient" cx="10.512" cy="10.453" r="16.064" gradientTransform="translate(0.007 0.007)" gradientUnits="userSpaceOnUse">
      <stop offset="0" stop-color="#9dd5f6"/>
      <stop offset="0.071" stop-color="#98d3f5"/>
      <stop offset="0.157" stop-color="#89cef3"/>
      <stop offset="0.252" stop-color="#70c6ef"/>
      <stop offset="0.351" stop-color="#4ebbea"/>
      <stop offset="0.455" stop-color="#23ade3"/>
      <stop offset="0.5" stop-color="#0da6e0"/>
      <stop offset="1" stop-color="#2e77bc"/>
    </radialGradient>
  </defs>
  <g id="Group_214" data-name="Group 214" transform="translate(-362 -815)">
    <g id="g4158" transform="translate(362 818.431)">
      <path id="polygon9" d="M437.29,125.359h-3.783l2.366-14.632h3.783Z" transform="translate(-417.051 -110.462)" fill="#00579f"/>
      <path id="path11" d="M576.528,105.671a9.324,9.324,0,0,0-3.393-.623c-3.736,0-6.367,1.992-6.384,4.841-.031,2.1,1.884,3.269,3.316,3.97,1.464.716,1.961,1.183,1.961,1.822-.015.98-1.183,1.432-2.272,1.432a7.53,7.53,0,0,1-3.55-.778l-.5-.234-.529,3.285a11.515,11.515,0,0,0,4.22.779c3.97,0,6.554-1.962,6.585-5,.015-1.666-1-2.942-3.176-3.985-1.323-.67-2.134-1.121-2.134-1.806.016-.623.685-1.261,2.179-1.261a6.428,6.428,0,0,1,2.818.56l.342.155.515-3.16h0Z" transform="translate(-542.574 -105.048)" fill="#00579f"/>
      <path id="path13" d="M796.375,120.176c.312-.841,1.511-4.094,1.511-4.094-.016.031.311-.856.5-1.4l.264,1.261s.716,3.5.872,4.234Zm4.67-9.449h-2.927a1.867,1.867,0,0,0-1.977,1.214l-5.62,13.418h3.97l.794-2.195h4.858c.109.514.451,2.195.451,2.195h3.5l-3.052-14.632Z" transform="translate(-757.393 -110.462)" fill="#00579f"/>
      <path id="path15" d="M175.177,110.727l-3.705,9.978-.4-2.024a11.2,11.2,0,0,0-5.231-6.133l3.394,12.8h4l5.947-14.617Z" transform="translate(-161.881 -110.462)" fill="#00579f"/>
      <path id="path17" d="M87.315,110.727H81.228l-.062.3c4.748,1.214,7.893,4.141,9.185,7.659l-1.323-6.725a1.566,1.566,0,0,0-1.712-1.23Z" transform="translate(-81.166 -110.462)" fill="#faa61a"/>
    </g>
    <g id="Layer_2" data-name="Layer 2" transform="translate(425.23 815)">
      <g id="Layer_1" data-name="Layer 1">
        <rect id="Rectangle_322" data-name="Rectangle 322" width="28.971" height="23.763" fill="none"/>
        <path id="Path_150" data-name="Path 150" d="M24.182,94.5V93.32a.7.7,0,0,0-.742-.75.73.73,0,0,0-.663.336.693.693,0,0,0-.624-.336.624.624,0,0,0-.553.28v-.233h-.41V94.5H21.6V93.466a.442.442,0,0,1,.462-.5c.272,0,.41.178.41.5v1.05h.414V93.466a.444.444,0,0,1,.462-.5c.28,0,.414.178.414.5v1.05Zm6.132-1.887h-.675v-.572h-.414v.572h-.375v.375h.383v.868c0,.438.17.7.655.7a.963.963,0,0,0,.513-.146l-.118-.351a.758.758,0,0,1-.363.107c-.2,0-.272-.126-.272-.316v-.86h.671Zm3.5-.047a.557.557,0,0,0-.5.276v-.229h-.407V94.5h.41V93.447c0-.312.134-.485.395-.485a.669.669,0,0,1,.257.047l.126-.395a.878.878,0,0,0-.292-.051Zm-5.293.2a1.411,1.411,0,0,0-.77-.2c-.478,0-.789.229-.789.6,0,.308.229.5.651.557l.2.028c.225.032.332.091.332.2,0,.146-.15.229-.43.229a1,1,0,0,1-.628-.2l-.2.32a1.362,1.362,0,0,0,.817.245c.545,0,.86-.257.86-.616s-.249-.505-.659-.564l-.2-.028c-.178-.024-.32-.059-.32-.186s.134-.221.359-.221a1.216,1.216,0,0,1,.592.162Zm10.995-.2a.557.557,0,0,0-.5.276v-.229h-.407V94.5h.41V93.447c0-.312.134-.485.395-.485a.669.669,0,0,1,.257.047l.126-.395a.878.878,0,0,0-.292-.051Zm-5.289.987a.953.953,0,0,0,1.006.987.987.987,0,0,0,.679-.225l-.2-.332a.829.829,0,0,1-.493.17.606.606,0,0,1,0-1.208.829.829,0,0,1,.493.17l.2-.332a.987.987,0,0,0-.679-.225.953.953,0,0,0-1.006.987Zm3.844,0v-.939h-.41v.229a.716.716,0,0,0-.592-.276.987.987,0,0,0,0,1.974.716.716,0,0,0,.592-.276V94.5h.41Zm-1.528,0a.566.566,0,1,1,.154.427.57.57,0,0,1-.154-.427ZM31.59,92.57a.987.987,0,0,0,.028,1.974,1.147,1.147,0,0,0,.783-.257l-.2-.3a.9.9,0,0,1-.549.2.523.523,0,0,1-.564-.462h1.4v-.158a.9.9,0,0,0-.9-.987Zm0,.367a.468.468,0,0,1,.478.458h-.987a.485.485,0,0,1,.5-.458Zm10.284.624v-1.7H41.48v.987a.716.716,0,0,0-.592-.276.987.987,0,0,0,0,1.974.716.716,0,0,0,.592-.276V94.5h.395Zm.685.669a.19.19,0,0,1,.178.112.184.184,0,0,1,0,.146.189.189,0,0,1-.1.1.185.185,0,0,1-.075.016.2.2,0,0,1-.178-.114.186.186,0,0,1,0-.146.192.192,0,0,1,.184-.112Zm0,.334a.14.14,0,0,0,.057-.012.148.148,0,0,0,.045-.032.142.142,0,0,0-.045-.229.142.142,0,0,0-.057-.012.148.148,0,0,0-.057.012.144.144,0,0,0-.047.032.143.143,0,0,0,.111.241Zm.012-.235a.079.079,0,0,1,.051.016.049.049,0,0,1,.018.041.047.047,0,0,1-.014.036.069.069,0,0,1-.041.018l.057.065H42.6l-.053-.065h-.018V94.5h-.037v-.174Zm-.043.034v.047h.043a.041.041,0,0,0,.024,0,82.661,82.661,0,0,1,0-.036.041.041,0,0,0-.024,0Zm-2.171-.8a.566.566,0,1,1,.154.427A.57.57,0,0,1,40.357,93.561Zm-13.86,0v-.943h-.41v.229a.716.716,0,0,0-.592-.276.987.987,0,0,0,0,1.974.716.716,0,0,0,.592-.276V94.5h.41Zm-1.528,0a.56.56,0,1,1,.151.429.57.57,0,0,1-.151-.429Z" transform="translate(-17.008 -73.731)" fill="#231f20"/>
        <g id="_Group_" data-name="&lt;Group&gt;" transform="translate(2.991 2.99)">
          <rect id="Rectangle_323" data-name="Rectangle 323" width="6.217" height="11.172" transform="translate(8.386 1.52)" fill="#ff5f00"/>
          <path id="_Path_" data-name="&lt;Path&gt;" d="M23.936,22.26a7.093,7.093,0,0,1,2.714-5.587,7.1,7.1,0,1,0,0,11.172,7.093,7.093,0,0,1-2.714-5.585Z" transform="translate(-15.155 -15.154)" fill="#eb001b"/>
          <path id="Path_151" data-name="Path 151" d="M84.9,22.257a7.1,7.1,0,0,1-11.5,5.585,7.1,7.1,0,0,0,0-11.172,7.1,7.1,0,0,1,11.5,5.585Z" transform="translate(-61.905 -15.151)" fill="#f79e1b"/>
          <path id="Path_152" data-name="Path 152" d="M127.632,72.336v-.229h.093V72.06h-.235v.047h.1v.229Zm.456,0V72.06h-.071l-.083.2-.083-.2h-.063v.276h.051v-.207l.077.18h.053l.077-.18v.209Z" transform="translate(-105.32 -60.829)" fill="#f79e1b"/>
        </g>
      </g>
    </g>
    <g id="Group_211" data-name="Group 211" transform="translate(470.978 818.431)">
      <path id="Path_153" data-name="Path 153" d="M214.765,300.02h26.871v17.114H214.768Z" transform="translate(-214.67 -299.92)" fill="#fff"/>
      <path id="Path_154" data-name="Path 154" d="M275.116,362.923s-7.343,5.181-20.791,7.5h20.791Z" transform="translate(-248.244 -353.307)" fill="#f36a10"/>
      <path id="Path_155" data-name="Path 155" d="M241.1,299.368l-26.966,0v17.308H241.2l0-17.311Zm-.1.2v16.918H214.332c0-.192,0-16.725,0-16.918Z" transform="translate(-214.137 -299.368)" fill="#1a1818"/>
      <path id="Path_156" data-name="Path 156" d="M223.488,334.377h-1.121v3.916h1.115a2.039,2.039,0,0,0,1.4-.452,1.959,1.959,0,0,0-1.391-3.464Zm.892,2.942a1.448,1.448,0,0,1-1.045.311h-.205v-2.59h.205a1.416,1.416,0,0,1,1.045.317,1.319,1.319,0,0,1,.423.975A1.344,1.344,0,0,1,224.381,337.319Z" transform="translate(-221.122 -329.08)" fill="#1a1818"/>
      <rect id="Rectangle_324" data-name="Rectangle 324" width="0.764" height="3.916" transform="translate(4.82 5.297)" fill="#1a1818"/>
      <path id="Path_157" data-name="Path 157" d="M254.526,335.517c-.458-.17-.593-.282-.593-.493,0-.247.24-.434.569-.434a.789.789,0,0,1,.616.317l.4-.523a1.713,1.713,0,0,0-1.151-.434,1.15,1.15,0,0,0-1.221,1.122c0,.54.246.816.964,1.074a3.047,3.047,0,0,1,.528.223.469.469,0,0,1,.229.405.558.558,0,0,1-.593.552.9.9,0,0,1-.834-.522l-.494.475a1.522,1.522,0,0,0,1.356.745,1.263,1.263,0,0,0,1.351-1.286C255.653,336.116,255.4,335.834,254.526,335.517Z" transform="translate(-247.074 -328.717)" fill="#1a1818"/>
      <path id="Path_158" data-name="Path 158" d="M272.428,335.841a2.028,2.028,0,0,0,2.067,2.044,2.113,2.113,0,0,0,.958-.228v-.9a1.222,1.222,0,0,1-.922.429,1.28,1.28,0,0,1-1.315-1.351,1.3,1.3,0,0,1,1.28-1.345,1.28,1.28,0,0,1,.958.441v-.9a1.951,1.951,0,0,0-.94-.241A2.059,2.059,0,0,0,272.428,335.841Z" transform="translate(-263.608 -328.584)" fill="#1a1818"/>
      <path id="Path_159" data-name="Path 159" d="M321.912,337.008l-1.044-2.631h-.835l1.662,4.017h.411l1.692-4.017h-.828Z" transform="translate(-304.011 -329.08)" fill="#1a1818"/>
      <path id="Path_160" data-name="Path 160" d="M347.2,338.293h2.166v-.663h-1.4v-1.057h1.351v-.663h-1.351v-.869h1.4v-.664H347.2Z" transform="translate(-327.066 -329.08)" fill="#1a1818"/>
      <path id="Path_161" data-name="Path 161" d="M367.38,335.533c0-.733-.505-1.156-1.386-1.156h-1.133v3.916h.763V336.72h.1l1.057,1.573h.939l-1.233-1.65A1.041,1.041,0,0,0,367.38,335.533Zm-1.533.647h-.223v-1.186h.235c.476,0,.734.2.734.581S366.335,336.18,365.847,336.18Z" transform="translate(-342.056 -329.08)" fill="#1a1818"/>
      <g id="Group_209" data-name="Group 209" transform="translate(12.094 5.185)">
        <g id="Group_205" data-name="Group 205" transform="translate(0 0)">
          <path id="Path_162" data-name="Path 162" d="M298.235,335.723a2.083,2.083,0,1,1-2.083-2.083A2.083,2.083,0,0,1,298.235,335.723Z" transform="translate(-294.068 -333.64)" fill="url(#linear-gradient)"/>
          <path id="Path_163" data-name="Path 163" d="M298.235,335.723a2.083,2.083,0,1,1-2.083-2.083A2.083,2.083,0,0,1,298.235,335.723Z" transform="translate(-294.068 -333.64)" opacity="0.65" fill="url(#linear-gradient-2)"/>
        </g>
        <g id="Group_208" data-name="Group 208" transform="translate(0 0.001)" opacity="0.5">
          <g id="Group_207" data-name="Group 207" clip-path="url(#clip-path)">
            <g id="Group_206" data-name="Group 206" transform="translate(-0.351 -0.335)">
              <path id="Path_164" data-name="Path 164" d="M298.085,335.533a2.125,2.125,0,1,1-2.125-2.126A2.125,2.125,0,0,1,298.085,335.533Z" transform="translate(-293.518 -333.109)" fill="#1a1818"/>
              <path id="Path_165" data-name="Path 165" d="M295.968,333.418a2.125,2.125,0,1,1-2.125,2.125A2.125,2.125,0,0,1,295.968,333.418Z" transform="translate(-293.526 -333.118)" fill="#1b1819"/>
              <path id="Path_166" data-name="Path 166" d="M295.977,333.429a2.125,2.125,0,1,1-2.125,2.125A2.125,2.125,0,0,1,295.977,333.429Z" transform="translate(-293.533 -333.127)" fill="#1c191a"/>
              <path id="Path_167" data-name="Path 167" d="M295.986,333.439a2.125,2.125,0,1,1-2.125,2.125A2.125,2.125,0,0,1,295.986,333.439Z" transform="translate(-293.541 -333.135)" fill="#1c1a1b"/>
              <path id="Path_168" data-name="Path 168" d="M295.994,333.449a2.124,2.124,0,1,1-2.124,2.125A2.125,2.125,0,0,1,295.994,333.449Z" transform="translate(-293.548 -333.144)" fill="#1d1b1c"/>
              <path id="Path_169" data-name="Path 169" d="M296,333.46a2.124,2.124,0,1,1-2.124,2.124A2.124,2.124,0,0,1,296,333.46Z" transform="translate(-293.556 -333.153)" fill="#1e1c1d"/>
              <path id="Path_170" data-name="Path 170" d="M296.013,333.469a2.124,2.124,0,1,1-2.124,2.124A2.124,2.124,0,0,1,296.013,333.469Z" transform="translate(-293.565 -333.161)" fill="#1f1d1d"/>
              <path id="Path_171" data-name="Path 171" d="M296.021,333.48A2.124,2.124,0,1,1,293.9,335.6,2.124,2.124,0,0,1,296.021,333.48Z" transform="translate(-293.571 -333.17)" fill="#201e1e"/>
              <path id="Path_172" data-name="Path 172" d="M296.03,333.489a2.124,2.124,0,1,1-2.124,2.124A2.124,2.124,0,0,1,296.03,333.489Z" transform="translate(-293.579 -333.178)" fill="#201e1f"/>
              <path id="Path_173" data-name="Path 173" d="M296.038,333.5a2.123,2.123,0,1,1-2.123,2.123A2.124,2.124,0,0,1,296.038,333.5Z" transform="translate(-293.587 -333.187)" fill="#211f20"/>
              <path id="Path_174" data-name="Path 174" d="M296.047,333.51a2.123,2.123,0,1,1-2.123,2.123A2.123,2.123,0,0,1,296.047,333.51Z" transform="translate(-293.594 -333.196)" fill="#222021"/>
              <path id="Path_175" data-name="Path 175" d="M296.057,333.52a2.123,2.123,0,1,1-2.123,2.123A2.123,2.123,0,0,1,296.057,333.52Z" transform="translate(-293.603 -333.204)" fill="#232122"/>
              <path id="Path_176" data-name="Path 176" d="M296.065,333.53a2.123,2.123,0,1,1-2.123,2.123A2.123,2.123,0,0,1,296.065,333.53Z" transform="translate(-293.61 -333.213)" fill="#242223"/>
              <path id="Path_177" data-name="Path 177" d="M296.074,333.54a2.123,2.123,0,1,1-2.122,2.123A2.123,2.123,0,0,1,296.074,333.54Z" transform="translate(-293.618 -333.221)" fill="#252324"/>
              <path id="Path_178" data-name="Path 178" d="M296.082,333.55a2.122,2.122,0,1,1-2.122,2.123A2.123,2.123,0,0,1,296.082,333.55Z" transform="translate(-293.625 -333.23)" fill="#262425"/>
              <path id="Path_179" data-name="Path 179" d="M296.091,333.56a2.122,2.122,0,1,1-2.122,2.122A2.122,2.122,0,0,1,296.091,333.56Z" transform="translate(-293.632 -333.238)" fill="#272526"/>
              <path id="Path_180" data-name="Path 180" d="M296.1,333.57a2.122,2.122,0,1,1-2.122,2.122A2.122,2.122,0,0,1,296.1,333.57Z" transform="translate(-293.64 -333.247)" fill="#282627"/>
              <path id="Path_181" data-name="Path 181" d="M296.109,333.581a2.122,2.122,0,1,1-2.122,2.122A2.122,2.122,0,0,1,296.109,333.581Z" transform="translate(-293.648 -333.256)" fill="#292729"/>
              <path id="Path_182" data-name="Path 182" d="M296.118,333.591A2.122,2.122,0,1,1,294,335.713,2.122,2.122,0,0,1,296.118,333.591Z" transform="translate(-293.655 -333.264)" fill="#29282a"/>
              <path id="Path_183" data-name="Path 183" d="M296.126,333.6a2.121,2.121,0,1,1-2.121,2.121A2.122,2.122,0,0,1,296.126,333.6Z" transform="translate(-293.663 -333.273)" fill="#2a292b"/>
              <path id="Path_184" data-name="Path 184" d="M296.135,333.611a2.121,2.121,0,1,1-2.121,2.121A2.121,2.121,0,0,1,296.135,333.611Z" transform="translate(-293.671 -333.281)" fill="#2b2a2c"/>
              <path id="Path_185" data-name="Path 185" d="M296.144,333.622a2.121,2.121,0,1,1-2.121,2.121A2.121,2.121,0,0,1,296.144,333.622Z" transform="translate(-293.678 -333.291)" fill="#2c2b2d"/>
              <path id="Path_186" data-name="Path 186" d="M296.153,333.631a2.121,2.121,0,1,1-2.121,2.121A2.121,2.121,0,0,1,296.153,333.631Z" transform="translate(-293.686 -333.298)" fill="#2d2c2e"/>
              <path id="Path_187" data-name="Path 187" d="M296.162,333.642a2.12,2.12,0,1,1-2.121,2.121A2.121,2.121,0,0,1,296.162,333.642Z" transform="translate(-293.694 -333.308)" fill="#2e2e2f"/>
              <path id="Path_188" data-name="Path 188" d="M296.17,333.652a2.12,2.12,0,1,1-2.12,2.12A2.12,2.12,0,0,1,296.17,333.652Z" transform="translate(-293.701 -333.316)" fill="#2f2f30"/>
              <path id="Path_189" data-name="Path 189" d="M296.179,333.662a2.12,2.12,0,1,1-2.12,2.12A2.12,2.12,0,0,1,296.179,333.662Z" transform="translate(-293.709 -333.325)" fill="#303031"/>
              <path id="Path_190" data-name="Path 190" d="M296.188,333.672a2.12,2.12,0,1,1-2.12,2.12A2.12,2.12,0,0,1,296.188,333.672Z" transform="translate(-293.716 -333.333)" fill="#313032"/>
              <path id="Path_191" data-name="Path 191" d="M296.2,333.682a2.12,2.12,0,1,1-2.12,2.12A2.12,2.12,0,0,1,296.2,333.682Z" transform="translate(-293.724 -333.342)" fill="#313133"/>
              <path id="Path_192" data-name="Path 192" d="M296.2,333.692a2.12,2.12,0,1,1-2.12,2.12A2.12,2.12,0,0,1,296.2,333.692Z" transform="translate(-293.731 -333.35)" fill="#323234"/>
              <path id="Path_193" data-name="Path 193" d="M296.214,333.7a2.119,2.119,0,1,1-2.119,2.119A2.119,2.119,0,0,1,296.214,333.7Z" transform="translate(-293.739 -333.359)" fill="#333334"/>
              <path id="Path_194" data-name="Path 194" d="M296.223,333.712a2.119,2.119,0,1,1-2.119,2.119A2.119,2.119,0,0,1,296.223,333.712Z" transform="translate(-293.747 -333.367)" fill="#343435"/>
              <path id="Path_195" data-name="Path 195" d="M296.232,333.723a2.119,2.119,0,1,1-2.119,2.119A2.119,2.119,0,0,1,296.232,333.723Z" transform="translate(-293.755 -333.376)" fill="#343436"/>
              <path id="Path_196" data-name="Path 196" d="M296.241,333.733a2.119,2.119,0,1,1-2.119,2.119A2.119,2.119,0,0,1,296.241,333.733Z" transform="translate(-293.762 -333.385)" fill="#353537"/>
              <path id="Path_197" data-name="Path 197" d="M296.249,333.743a2.118,2.118,0,1,1-2.118,2.119A2.119,2.119,0,0,1,296.249,333.743Z" transform="translate(-293.769 -333.393)" fill="#363638"/>
              <path id="Path_198" data-name="Path 198" d="M296.258,333.753a2.118,2.118,0,1,1-2.118,2.118A2.119,2.119,0,0,1,296.258,333.753Z" transform="translate(-293.778 -333.402)" fill="#373738"/>
              <path id="Path_199" data-name="Path 199" d="M296.267,333.763a2.118,2.118,0,1,1-2.118,2.118A2.118,2.118,0,0,1,296.267,333.763Z" transform="translate(-293.785 -333.41)" fill="#373839"/>
              <path id="Path_200" data-name="Path 200" d="M296.276,333.773a2.118,2.118,0,1,1-2.118,2.118A2.118,2.118,0,0,1,296.276,333.773Z" transform="translate(-293.793 -333.419)" fill="#38383a"/>
              <path id="Path_201" data-name="Path 201" d="M296.284,333.784a2.118,2.118,0,1,1-2.117,2.118A2.118,2.118,0,0,1,296.284,333.784Z" transform="translate(-293.801 -333.428)" fill="#39393b"/>
              <path id="Path_202" data-name="Path 202" d="M296.293,333.794a2.117,2.117,0,1,1-2.117,2.117A2.118,2.118,0,0,1,296.293,333.794Z" transform="translate(-293.808 -333.437)" fill="#3a3a3c"/>
              <path id="Path_203" data-name="Path 203" d="M296.3,333.8a2.117,2.117,0,1,1-2.117,2.117A2.118,2.118,0,0,1,296.3,333.8Z" transform="translate(-293.816 -333.445)" fill="#3b3b3d"/>
              <path id="Path_204" data-name="Path 204" d="M296.311,333.814a2.117,2.117,0,1,1-2.117,2.117A2.117,2.117,0,0,1,296.311,333.814Z" transform="translate(-293.823 -333.454)" fill="#3b3c3d"/>
              <path id="Path_205" data-name="Path 205" d="M296.32,333.824a2.117,2.117,0,1,1-2.117,2.117A2.117,2.117,0,0,1,296.32,333.824Z" transform="translate(-293.831 -333.462)" fill="#3c3c3e"/>
              <path id="Path_206" data-name="Path 206" d="M296.329,333.835a2.117,2.117,0,1,1-2.117,2.117A2.117,2.117,0,0,1,296.329,333.835Z" transform="translate(-293.839 -333.471)" fill="#3d3d3f"/>
              <path id="Path_207" data-name="Path 207" d="M296.337,333.845a2.116,2.116,0,1,1-2.116,2.116A2.116,2.116,0,0,1,296.337,333.845Z" transform="translate(-293.846 -333.48)" fill="#3e3e40"/>
              <path id="Path_208" data-name="Path 208" d="M296.345,333.855a2.116,2.116,0,1,1-2.116,2.116A2.116,2.116,0,0,1,296.345,333.855Z" transform="translate(-293.853 -333.488)" fill="#3e3f41"/>
              <path id="Path_209" data-name="Path 209" d="M296.355,333.865a2.116,2.116,0,1,1-2.116,2.116A2.116,2.116,0,0,1,296.355,333.865Z" transform="translate(-293.862 -333.497)" fill="#3f4042"/>
              <path id="Path_210" data-name="Path 210" d="M296.364,333.875a2.116,2.116,0,1,1-2.116,2.116A2.116,2.116,0,0,1,296.364,333.875Z" transform="translate(-293.869 -333.505)" fill="#404142"/>
              <path id="Path_211" data-name="Path 211" d="M296.372,333.885A2.116,2.116,0,1,1,294.256,336,2.116,2.116,0,0,1,296.372,333.885Z" transform="translate(-293.876 -333.514)" fill="#414143"/>
              <ellipse id="Ellipse_79" data-name="Ellipse 79" cx="2.115" cy="2.115" rx="2.115" ry="2.115" transform="translate(0.381 0.373)" fill="#414244"/>
              <path id="Path_212" data-name="Path 212" d="M296.389,333.9a2.115,2.115,0,1,1-2.115,2.115A2.115,2.115,0,0,1,296.389,333.9Z" transform="translate(-293.891 -333.531)" fill="#424345"/>
              <path id="Path_213" data-name="Path 213" d="M296.4,333.916a2.115,2.115,0,1,1-2.115,2.115A2.115,2.115,0,0,1,296.4,333.916Z" transform="translate(-293.9 -333.54)" fill="#434446"/>
              <path id="Path_214" data-name="Path 214" d="M296.407,333.925a2.115,2.115,0,1,1-2.115,2.115A2.115,2.115,0,0,1,296.407,333.925Z" transform="translate(-293.907 -333.548)" fill="#444547"/>
              <path id="Path_215" data-name="Path 215" d="M296.415,333.936a2.114,2.114,0,1,1-2.114,2.114A2.115,2.115,0,0,1,296.415,333.936Z" transform="translate(-293.914 -333.557)" fill="#454547"/>
              <path id="Path_216" data-name="Path 216" d="M296.424,333.946a2.114,2.114,0,1,1-2.114,2.114A2.114,2.114,0,0,1,296.424,333.946Z" transform="translate(-293.922 -333.566)" fill="#454648"/>
              <path id="Path_217" data-name="Path 217" d="M296.434,333.957a2.114,2.114,0,1,1-2.114,2.114A2.114,2.114,0,0,1,296.434,333.957Z" transform="translate(-293.93 -333.575)" fill="#464749"/>
              <path id="Path_218" data-name="Path 218" d="M296.442,333.966a2.114,2.114,0,1,1-2.114,2.114A2.114,2.114,0,0,1,296.442,333.966Z" transform="translate(-293.937 -333.583)" fill="#47484a"/>
              <path id="Path_219" data-name="Path 219" d="M296.451,333.976a2.114,2.114,0,1,1-2.114,2.114A2.114,2.114,0,0,1,296.451,333.976Z" transform="translate(-293.945 -333.591)" fill="#48494b"/>
              <path id="Path_220" data-name="Path 220" d="M296.459,333.987a2.113,2.113,0,1,1-2.113,2.113A2.113,2.113,0,0,1,296.459,333.987Z" transform="translate(-293.952 -333.601)" fill="#48494c"/>
              <path id="Path_221" data-name="Path 221" d="M296.469,334a2.113,2.113,0,1,1-2.113,2.113A2.113,2.113,0,0,1,296.469,334Z" transform="translate(-293.961 -333.609)" fill="#494a4c"/>
              <path id="Path_222" data-name="Path 222" d="M296.478,334.007a2.113,2.113,0,1,1-2.113,2.113A2.113,2.113,0,0,1,296.478,334.007Z" transform="translate(-293.969 -333.617)" fill="#4a4b4d"/>
              <path id="Path_223" data-name="Path 223" d="M296.486,334.017a2.113,2.113,0,1,1-2.113,2.113A2.113,2.113,0,0,1,296.486,334.017Z" transform="translate(-293.975 -333.626)" fill="#4b4c4e"/>
              <path id="Path_224" data-name="Path 224" d="M296.495,334.027a2.113,2.113,0,1,1-2.113,2.113A2.113,2.113,0,0,1,296.495,334.027Z" transform="translate(-293.983 -333.634)" fill="#4b4d4f"/>
              <path id="Path_225" data-name="Path 225" d="M296.5,334.038a2.112,2.112,0,1,1-2.112,2.113A2.113,2.113,0,0,1,296.5,334.038Z" transform="translate(-293.991 -333.644)" fill="#4c4d4f"/>
              <path id="Path_226" data-name="Path 226" d="M296.512,334.047a2.112,2.112,0,1,1-2.112,2.112A2.112,2.112,0,0,1,296.512,334.047Z" transform="translate(-293.998 -333.651)" fill="#4d4e50"/>
              <path id="Path_227" data-name="Path 227" d="M296.521,334.058a2.112,2.112,0,1,1-2.112,2.112A2.112,2.112,0,0,1,296.521,334.058Z" transform="translate(-294.006 -333.661)" fill="#4e4f51"/>
              <path id="Path_228" data-name="Path 228" d="M296.53,334.068a2.112,2.112,0,1,1-2.112,2.112A2.112,2.112,0,0,1,296.53,334.068Z" transform="translate(-294.014 -333.669)" fill="#4e5052"/>
              <path id="Path_229" data-name="Path 229" d="M296.539,334.078a2.112,2.112,0,1,1-2.112,2.112A2.112,2.112,0,0,1,296.539,334.078Z" transform="translate(-294.021 -333.678)" fill="#4f5053"/>
              <path id="Path_230" data-name="Path 230" d="M296.547,334.088a2.111,2.111,0,1,1-2.111,2.111A2.111,2.111,0,0,1,296.547,334.088Z" transform="translate(-294.029 -333.686)" fill="#505153"/>
              <path id="Path_231" data-name="Path 231" d="M296.556,334.1a2.111,2.111,0,1,1-2.111,2.111A2.111,2.111,0,0,1,296.556,334.1Z" transform="translate(-294.036 -333.695)" fill="#505254"/>
              <path id="Path_232" data-name="Path 232" d="M296.566,334.109a2.111,2.111,0,1,1-2.111,2.111A2.111,2.111,0,0,1,296.566,334.109Z" transform="translate(-294.045 -333.704)" fill="#515355"/>
              <path id="Path_233" data-name="Path 233" d="M296.574,334.119a2.111,2.111,0,1,1-2.111,2.111A2.111,2.111,0,0,1,296.574,334.119Z" transform="translate(-294.052 -333.713)" fill="#525356"/>
              <path id="Path_234" data-name="Path 234" d="M296.583,334.129a2.111,2.111,0,1,1-2.111,2.111A2.111,2.111,0,0,1,296.583,334.129Z" transform="translate(-294.059 -333.721)" fill="#535456"/>
              <path id="Path_235" data-name="Path 235" d="M296.591,334.138a2.11,2.11,0,1,1-2.11,2.11A2.111,2.111,0,0,1,296.591,334.138Z" transform="translate(-294.067 -333.729)" fill="#535557"/>
              <path id="Path_236" data-name="Path 236" d="M296.6,334.149a2.11,2.11,0,1,1-2.11,2.11A2.11,2.11,0,0,1,296.6,334.149Z" transform="translate(-294.075 -333.738)" fill="#545658"/>
              <path id="Path_237" data-name="Path 237" d="M296.609,334.159a2.11,2.11,0,1,1-2.11,2.11A2.11,2.11,0,0,1,296.609,334.159Z" transform="translate(-294.082 -333.747)" fill="#555659"/>
              <path id="Path_238" data-name="Path 238" d="M296.618,334.169a2.11,2.11,0,1,1-2.11,2.11A2.11,2.11,0,0,1,296.618,334.169Z" transform="translate(-294.09 -333.755)" fill="#565759"/>
              <path id="Path_239" data-name="Path 239" d="M296.626,334.179a2.11,2.11,0,1,1-2.109,2.11A2.11,2.11,0,0,1,296.626,334.179Z" transform="translate(-294.098 -333.763)" fill="#56585a"/>
              <path id="Path_240" data-name="Path 240" d="M296.635,334.19a2.109,2.109,0,1,1-2.109,2.109A2.109,2.109,0,0,1,296.635,334.19Z" transform="translate(-294.105 -333.773)" fill="#57595b"/>
              <path id="Path_241" data-name="Path 241" d="M296.644,334.2a2.109,2.109,0,1,1-2.109,2.109A2.109,2.109,0,0,1,296.644,334.2Z" transform="translate(-294.113 -333.781)" fill="#58595c"/>
              <path id="Path_242" data-name="Path 242" d="M296.652,334.21a2.109,2.109,0,1,1-2.109,2.109A2.109,2.109,0,0,1,296.652,334.21Z" transform="translate(-294.12 -333.79)" fill="#595a5d"/>
              <path id="Path_243" data-name="Path 243" d="M296.662,334.22a2.109,2.109,0,1,1-2.109,2.109A2.109,2.109,0,0,1,296.662,334.22Z" transform="translate(-294.128 -333.798)" fill="#595b5d"/>
              <path id="Path_244" data-name="Path 244" d="M296.67,334.23a2.109,2.109,0,1,1-2.108,2.109A2.109,2.109,0,0,1,296.67,334.23Z" transform="translate(-294.136 -333.807)" fill="#5a5c5e"/>
              <path id="Path_245" data-name="Path 245" d="M296.679,334.241a2.108,2.108,0,1,1-2.108,2.108A2.108,2.108,0,0,1,296.679,334.241Z" transform="translate(-294.143 -333.816)" fill="#5b5c5f"/>
              <ellipse id="Ellipse_80" data-name="Ellipse 80" cx="2.108" cy="2.108" rx="2.108" ry="2.108" transform="translate(0.429 0.426)" fill="#5b5d60"/>
              <path id="Path_246" data-name="Path 246" d="M296.7,334.26a2.108,2.108,0,1,1-2.108,2.108A2.108,2.108,0,0,1,296.7,334.26Z" transform="translate(-294.158 -333.832)" fill="#5c5e60"/>
              <path id="Path_247" data-name="Path 247" d="M296.705,334.271a2.108,2.108,0,1,1-2.108,2.108A2.108,2.108,0,0,1,296.705,334.271Z" transform="translate(-294.166 -333.842)" fill="#5d5f61"/>
              <path id="Path_248" data-name="Path 248" d="M296.714,334.281a2.107,2.107,0,1,1-2.107,2.107A2.108,2.108,0,0,1,296.714,334.281Z" transform="translate(-294.174 -333.85)" fill="#5e5f62"/>
              <path id="Path_249" data-name="Path 249" d="M296.723,334.291a2.107,2.107,0,1,1-2.107,2.107A2.107,2.107,0,0,1,296.723,334.291Z" transform="translate(-294.182 -333.859)" fill="#5e6063"/>
              <path id="Path_250" data-name="Path 250" d="M296.731,334.3a2.107,2.107,0,1,1-2.107,2.107A2.107,2.107,0,0,1,296.731,334.3Z" transform="translate(-294.188 -333.867)" fill="#5f6163"/>
              <path id="Path_251" data-name="Path 251" d="M296.741,334.311a2.107,2.107,0,1,1-2.107,2.107A2.107,2.107,0,0,1,296.741,334.311Z" transform="translate(-294.197 -333.875)" fill="#606264"/>
              <path id="Path_252" data-name="Path 252" d="M296.75,334.322a2.107,2.107,0,1,1-2.107,2.107A2.107,2.107,0,0,1,296.75,334.322Z" transform="translate(-294.204 -333.885)" fill="#616265"/>
              <path id="Path_253" data-name="Path 253" d="M296.758,334.332a2.106,2.106,0,1,1-2.106,2.106A2.107,2.107,0,0,1,296.758,334.332Z" transform="translate(-294.212 -333.893)" fill="#616366"/>
              <path id="Path_254" data-name="Path 254" d="M296.767,334.341a2.106,2.106,0,1,1-2.106,2.106A2.106,2.106,0,0,1,296.767,334.341Z" transform="translate(-294.22 -333.901)" fill="#626466"/>
              <path id="Path_255" data-name="Path 255" d="M296.776,334.352a2.106,2.106,0,1,1-2.106,2.106A2.106,2.106,0,0,1,296.776,334.352Z" transform="translate(-294.227 -333.91)" fill="#636567"/>
              <path id="Path_256" data-name="Path 256" d="M296.785,334.362a2.106,2.106,0,1,1-2.106,2.106A2.106,2.106,0,0,1,296.785,334.362Z" transform="translate(-294.235 -333.919)" fill="#636568"/>
              <path id="Path_257" data-name="Path 257" d="M296.793,334.372a2.106,2.106,0,1,1-2.106,2.106A2.106,2.106,0,0,1,296.793,334.372Z" transform="translate(-294.242 -333.927)" fill="#646669"/>
              <path id="Path_258" data-name="Path 258" d="M296.8,334.382a2.105,2.105,0,1,1-2.105,2.105A2.105,2.105,0,0,1,296.8,334.382Z" transform="translate(-294.25 -333.936)" fill="#656769"/>
              <path id="Path_259" data-name="Path 259" d="M296.811,334.393a2.105,2.105,0,1,1-2.105,2.105A2.105,2.105,0,0,1,296.811,334.393Z" transform="translate(-294.258 -333.945)" fill="#66686a"/>
              <ellipse id="Ellipse_81" data-name="Ellipse 81" cx="2.105" cy="2.105" rx="2.105" ry="2.105" transform="translate(0 4.083) rotate(-75.901)" fill="#66686b"/>
              <path id="Path_260" data-name="Path 260" d="M296.829,334.413a2.1,2.1,0,1,1-2.1,2.1A2.1,2.1,0,0,1,296.829,334.413Z" transform="translate(-294.273 -333.962)" fill="#67696c"/>
              <path id="Path_261" data-name="Path 261" d="M296.837,334.423a2.1,2.1,0,1,1-2.1,2.1A2.1,2.1,0,0,1,296.837,334.423Z" transform="translate(-294.28 -333.971)" fill="#686a6c"/>
              <path id="Path_262" data-name="Path 262" d="M296.846,334.433a2.1,2.1,0,1,1-2.1,2.1A2.1,2.1,0,0,1,296.846,334.433Z" transform="translate(-294.289 -333.979)" fill="#686a6d"/>
              <path id="Path_263" data-name="Path 263" d="M296.854,334.443a2.1,2.1,0,1,1-2.1,2.1A2.1,2.1,0,0,1,296.854,334.443Z" transform="translate(-294.295 -333.988)" fill="#696b6e"/>
              <path id="Path_264" data-name="Path 264" d="M296.863,334.453a2.1,2.1,0,1,1-2.1,2.1A2.1,2.1,0,0,1,296.863,334.453Z" transform="translate(-294.303 -333.996)" fill="#6a6c6f"/>
              <path id="Path_265" data-name="Path 265" d="M296.872,334.463a2.1,2.1,0,1,1-2.1,2.1A2.1,2.1,0,0,1,296.872,334.463Z" transform="translate(-294.311 -334.005)" fill="#6a6d6f"/>
              <path id="Path_266" data-name="Path 266" d="M296.881,334.474a2.1,2.1,0,1,1-2.1,2.1A2.1,2.1,0,0,1,296.881,334.474Z" transform="translate(-294.318 -334.014)" fill="#6b6d70"/>
              <path id="Path_267" data-name="Path 267" d="M296.89,334.484a2.1,2.1,0,1,1-2.1,2.1A2.1,2.1,0,0,1,296.89,334.484Z" transform="translate(-294.327 -334.022)" fill="#6c6e71"/>
              <path id="Path_268" data-name="Path 268" d="M296.9,334.494a2.1,2.1,0,1,1-2.1,2.1A2.1,2.1,0,0,1,296.9,334.494Z" transform="translate(-294.333 -334.031)" fill="#6d6f71"/>
              <path id="Path_269" data-name="Path 269" d="M296.907,334.5a2.1,2.1,0,1,1-2.1,2.1A2.1,2.1,0,0,1,296.907,334.5Z" transform="translate(-294.341 -334.039)" fill="#6d7072"/>
              <path id="Path_270" data-name="Path 270" d="M296.916,334.514a2.1,2.1,0,1,1-2.1,2.1A2.1,2.1,0,0,1,296.916,334.514Z" transform="translate(-294.349 -334.048)" fill="#6e7073"/>
              <path id="Path_271" data-name="Path 271" d="M296.925,334.524a2.1,2.1,0,1,1-2.1,2.1A2.1,2.1,0,0,1,296.925,334.524Z" transform="translate(-294.356 -334.056)" fill="#6f7174"/>
              <path id="Path_272" data-name="Path 272" d="M296.933,334.535a2.1,2.1,0,1,1-2.1,2.1A2.1,2.1,0,0,1,296.933,334.535Z" transform="translate(-294.364 -334.066)" fill="#707274"/>
              <path id="Path_273" data-name="Path 273" d="M296.942,334.544a2.1,2.1,0,1,1-2.1,2.1A2.1,2.1,0,0,1,296.942,334.544Z" transform="translate(-294.372 -334.073)" fill="#707275"/>
              <path id="Path_274" data-name="Path 274" d="M296.951,334.555a2.1,2.1,0,1,1-2.1,2.1A2.1,2.1,0,0,1,296.951,334.555Z" transform="translate(-294.379 -334.083)" fill="#717376"/>
              <path id="Path_275" data-name="Path 275" d="M296.96,334.565a2.1,2.1,0,1,1-2.1,2.1A2.1,2.1,0,0,1,296.96,334.565Z" transform="translate(-294.387 -334.091)" fill="#727477"/>
              <path id="Path_276" data-name="Path 276" d="M296.968,334.575a2.1,2.1,0,1,1-2.1,2.1A2.1,2.1,0,0,1,296.968,334.575Z" transform="translate(-294.395 -334.1)" fill="#727577"/>
              <path id="Path_277" data-name="Path 277" d="M296.977,334.585a2.1,2.1,0,1,1-2.1,2.1A2.1,2.1,0,0,1,296.977,334.585Z" transform="translate(-294.402 -334.108)" fill="#737578"/>
              <path id="Path_278" data-name="Path 278" d="M296.986,334.595a2.1,2.1,0,1,1-2.1,2.1A2.1,2.1,0,0,1,296.986,334.595Z" transform="translate(-294.41 -334.117)" fill="#747679"/>
              <path id="Path_279" data-name="Path 279" d="M296.995,334.606a2.1,2.1,0,1,1-2.1,2.1A2.1,2.1,0,0,1,296.995,334.606Z" transform="translate(-294.418 -334.126)" fill="#75777a"/>
              <path id="Path_280" data-name="Path 280" d="M297,334.616a2.1,2.1,0,1,1-2.1,2.1A2.1,2.1,0,0,1,297,334.616Z" transform="translate(-294.425 -334.134)" fill="#75787a"/>
              <path id="Path_281" data-name="Path 281" d="M297.013,334.626a2.1,2.1,0,1,1-2.1,2.1A2.1,2.1,0,0,1,297.013,334.626Z" transform="translate(-294.433 -334.143)" fill="#76787b"/>
              <path id="Path_282" data-name="Path 282" d="M297.021,334.636a2.1,2.1,0,1,1-2.1,2.1A2.1,2.1,0,0,1,297.021,334.636Z" transform="translate(-294.44 -334.151)" fill="#77797c"/>
              <path id="Path_283" data-name="Path 283" d="M297.03,334.646a2.1,2.1,0,1,1-2.1,2.1A2.1,2.1,0,0,1,297.03,334.646Z" transform="translate(-294.448 -334.16)" fill="#787a7d"/>
              <path id="Path_284" data-name="Path 284" d="M297.039,334.656a2.1,2.1,0,1,1-2.1,2.1A2.1,2.1,0,0,1,297.039,334.656Z" transform="translate(-294.456 -334.168)" fill="#787b7e"/>
              <path id="Path_285" data-name="Path 285" d="M297.047,334.667a2.1,2.1,0,1,1-2.1,2.1A2.1,2.1,0,0,1,297.047,334.667Z" transform="translate(-294.463 -334.178)" fill="#797b7e"/>
              <path id="Path_286" data-name="Path 286" d="M297.056,334.677a2.1,2.1,0,1,1-2.1,2.1A2.1,2.1,0,0,1,297.056,334.677Z" transform="translate(-294.471 -334.186)" fill="#7a7c7f"/>
              <path id="Path_287" data-name="Path 287" d="M297.065,334.687a2.1,2.1,0,1,1-2.1,2.1A2.1,2.1,0,0,1,297.065,334.687Z" transform="translate(-294.479 -334.195)" fill="#7b7d80"/>
              <path id="Path_288" data-name="Path 288" d="M297.074,334.7a2.1,2.1,0,1,1-2.1,2.1A2.1,2.1,0,0,1,297.074,334.7Z" transform="translate(-294.486 -334.203)" fill="#7b7e81"/>
              <path id="Path_289" data-name="Path 289" d="M297.083,334.707a2.1,2.1,0,1,1-2.1,2.1A2.1,2.1,0,0,1,297.083,334.707Z" transform="translate(-294.494 -334.212)" fill="#7c7f81"/>
              <path id="Path_290" data-name="Path 290" d="M297.092,334.717a2.1,2.1,0,1,1-2.1,2.1A2.1,2.1,0,0,1,297.092,334.717Z" transform="translate(-294.502 -334.22)" fill="#7d7f82"/>
              <path id="Path_291" data-name="Path 291" d="M297.1,334.727a2.1,2.1,0,1,1-2.1,2.1A2.1,2.1,0,0,1,297.1,334.727Z" transform="translate(-294.508 -334.229)" fill="#7e8083"/>
              <path id="Path_292" data-name="Path 292" d="M297.109,334.738a2.1,2.1,0,1,1-2.1,2.1A2.1,2.1,0,0,1,297.109,334.738Z" transform="translate(-294.517 -334.238)" fill="#7e8184"/>
              <path id="Path_293" data-name="Path 293" d="M297.118,334.748a2.1,2.1,0,1,1-2.1,2.1A2.1,2.1,0,0,1,297.118,334.748Z" transform="translate(-294.524 -334.246)" fill="#7f8284"/>
              <path id="Path_294" data-name="Path 294" d="M297.127,334.757a2.1,2.1,0,1,1-2.1,2.1A2.1,2.1,0,0,1,297.127,334.757Z" transform="translate(-294.532 -334.254)" fill="#808285"/>
              <path id="Path_295" data-name="Path 295" d="M297.135,334.768a2.1,2.1,0,1,1-2.1,2.1A2.1,2.1,0,0,1,297.135,334.768Z" transform="translate(-294.54 -334.263)" fill="#818386"/>
              <path id="Path_296" data-name="Path 296" d="M297.143,334.778a2.1,2.1,0,1,1-2.1,2.1A2.1,2.1,0,0,1,297.143,334.778Z" transform="translate(-294.547 -334.272)" fill="#818487"/>
              <path id="Path_297" data-name="Path 297" d="M297.153,334.788a2.1,2.1,0,1,1-2.1,2.1A2.1,2.1,0,0,1,297.153,334.788Z" transform="translate(-294.555 -334.28)" fill="#828588"/>
              <path id="Path_298" data-name="Path 298" d="M297.162,334.8a2.1,2.1,0,1,1-2.1,2.1A2.1,2.1,0,0,1,297.162,334.8Z" transform="translate(-294.563 -334.289)" fill="#838588"/>
              <path id="Path_299" data-name="Path 299" d="M297.171,334.808a2.1,2.1,0,1,1-2.1,2.1A2.1,2.1,0,0,1,297.171,334.808Z" transform="translate(-294.57 -334.297)" fill="#848689"/>
              <path id="Path_300" data-name="Path 300" d="M297.179,334.819a2.1,2.1,0,1,1-2.1,2.1A2.1,2.1,0,0,1,297.179,334.819Z" transform="translate(-294.577 -334.307)" fill="#84878a"/>
              <path id="Path_301" data-name="Path 301" d="M297.187,334.829a2.1,2.1,0,1,1-2.1,2.1A2.1,2.1,0,0,1,297.187,334.829Z" transform="translate(-294.585 -334.315)" fill="#85888b"/>
              <path id="Path_302" data-name="Path 302" d="M297.2,334.839a2.1,2.1,0,1,1-2.1,2.1A2.1,2.1,0,0,1,297.2,334.839Z" transform="translate(-294.593 -334.324)" fill="#86898b"/>
              <path id="Path_303" data-name="Path 303" d="M297.206,334.849a2.1,2.1,0,1,1-2.1,2.1A2.1,2.1,0,0,1,297.206,334.849Z" transform="translate(-294.601 -334.332)" fill="#87898c"/>
              <path id="Path_304" data-name="Path 304" d="M297.215,334.859a2.1,2.1,0,1,1-2.1,2.1A2.1,2.1,0,0,1,297.215,334.859Z" transform="translate(-294.608 -334.341)" fill="#888a8d"/>
              <path id="Path_305" data-name="Path 305" d="M297.223,334.87a2.1,2.1,0,1,1-2.1,2.1A2.1,2.1,0,0,1,297.223,334.87Z" transform="translate(-294.616 -334.35)" fill="#888b8e"/>
              <path id="Path_306" data-name="Path 306" d="M297.232,334.879a2.1,2.1,0,1,1-2.1,2.1A2.1,2.1,0,0,1,297.232,334.879Z" transform="translate(-294.624 -334.358)" fill="#898c8f"/>
              <path id="Path_307" data-name="Path 307" d="M297.241,334.89a2.1,2.1,0,1,1-2.095,2.095A2.1,2.1,0,0,1,297.241,334.89Z" transform="translate(-294.631 -334.367)" fill="#8a8d8f"/>
              <path id="Path_308" data-name="Path 308" d="M297.25,334.9a2.095,2.095,0,1,1-2.095,2.095A2.095,2.095,0,0,1,297.25,334.9Z" transform="translate(-294.639 -334.375)" fill="#8b8d90"/>
              <path id="Path_309" data-name="Path 309" d="M297.259,334.91A2.095,2.095,0,1,1,295.164,337,2.095,2.095,0,0,1,297.259,334.91Z" transform="translate(-294.647 -334.384)" fill="#8c8e91"/>
              <path id="Path_310" data-name="Path 310" d="M297.267,334.92a2.094,2.094,0,1,1-2.094,2.094A2.094,2.094,0,0,1,297.267,334.92Z" transform="translate(-294.654 -334.392)" fill="#8c8f92"/>
              <path id="Path_311" data-name="Path 311" d="M297.276,334.93a2.094,2.094,0,1,1-2.094,2.094A2.094,2.094,0,0,1,297.276,334.93Z" transform="translate(-294.662 -334.401)" fill="#8d9093"/>
              <path id="Path_312" data-name="Path 312" d="M297.285,334.94a2.094,2.094,0,1,1-2.094,2.094A2.094,2.094,0,0,1,297.285,334.94Z" transform="translate(-294.67 -334.409)" fill="#8e9194"/>
              <path id="Path_313" data-name="Path 313" d="M297.294,334.951a2.094,2.094,0,1,1-2.094,2.094A2.094,2.094,0,0,1,297.294,334.951Z" transform="translate(-294.677 -334.419)" fill="#8f9294"/>
              <path id="Path_314" data-name="Path 314" d="M297.3,334.96a2.094,2.094,0,1,1-2.094,2.094A2.094,2.094,0,0,1,297.3,334.96Z" transform="translate(-294.684 -334.426)" fill="#909295"/>
              <path id="Path_315" data-name="Path 315" d="M297.311,334.971a2.093,2.093,0,1,1-2.093,2.093A2.093,2.093,0,0,1,297.311,334.971Z" transform="translate(-294.692 -334.436)" fill="#919396"/>
              <path id="Path_316" data-name="Path 316" d="M297.32,334.981a2.093,2.093,0,1,1-2.093,2.093A2.093,2.093,0,0,1,297.32,334.981Z" transform="translate(-294.7 -334.444)" fill="#919497"/>
              <path id="Path_317" data-name="Path 317" d="M297.329,334.991a2.093,2.093,0,1,1-2.093,2.093A2.093,2.093,0,0,1,297.329,334.991Z" transform="translate(-294.708 -334.453)" fill="#929598"/>
              <path id="Path_318" data-name="Path 318" d="M297.338,335a2.093,2.093,0,1,1-2.093,2.092A2.093,2.093,0,0,1,297.338,335Z" transform="translate(-294.715 -334.462)" fill="#939699"/>
              <path id="Path_319" data-name="Path 319" d="M297.346,335.011a2.093,2.093,0,1,1-2.093,2.092A2.093,2.093,0,0,1,297.346,335.011Z" transform="translate(-294.722 -334.47)" fill="#949799"/>
              <path id="Path_320" data-name="Path 320" d="M297.355,335.022a2.092,2.092,0,1,1-2.092,2.092A2.092,2.092,0,0,1,297.355,335.022Z" transform="translate(-294.731 -334.479)" fill="#95979a"/>
              <path id="Path_321" data-name="Path 321" d="M297.363,335.032a2.092,2.092,0,1,1-2.092,2.092A2.092,2.092,0,0,1,297.363,335.032Z" transform="translate(-294.737 -334.487)" fill="#96989b"/>
              <path id="Path_322" data-name="Path 322" d="M297.373,335.042a2.092,2.092,0,1,1-2.092,2.092A2.092,2.092,0,0,1,297.373,335.042Z" transform="translate(-294.746 -334.496)" fill="#96999c"/>
              <path id="Path_323" data-name="Path 323" d="M297.381,335.052a2.092,2.092,0,1,1-2.091,2.092A2.092,2.092,0,0,1,297.381,335.052Z" transform="translate(-294.754 -334.504)" fill="#979a9d"/>
              <path id="Path_324" data-name="Path 324" d="M297.389,335.062a2.092,2.092,0,1,1-2.091,2.091A2.092,2.092,0,0,1,297.389,335.062Z" transform="translate(-294.76 -334.513)" fill="#989b9e"/>
              <path id="Path_325" data-name="Path 325" d="M297.4,335.073a2.091,2.091,0,1,1-2.091,2.091A2.091,2.091,0,0,1,297.4,335.073Z" transform="translate(-294.769 -334.522)" fill="#999c9e"/>
              <path id="Path_326" data-name="Path 326" d="M297.407,335.083a2.091,2.091,0,1,1-2.091,2.091A2.091,2.091,0,0,1,297.407,335.083Z" transform="translate(-294.776 -334.531)" fill="#9a9c9f"/>
              <path id="Path_327" data-name="Path 327" d="M297.417,335.093a2.091,2.091,0,1,1-2.091,2.091A2.091,2.091,0,0,1,297.417,335.093Z" transform="translate(-294.784 -334.539)" fill="#9b9da0"/>
              <path id="Path_328" data-name="Path 328" d="M297.425,335.1a2.091,2.091,0,1,1-2.091,2.091A2.091,2.091,0,0,1,297.425,335.1Z" transform="translate(-294.791 -334.548)" fill="#9b9ea1"/>
              <path id="Path_329" data-name="Path 329" d="M297.433,335.113a2.09,2.09,0,1,1-2.09,2.09A2.09,2.09,0,0,1,297.433,335.113Z" transform="translate(-294.799 -334.556)" fill="#9c9fa2"/>
              <path id="Path_330" data-name="Path 330" d="M297.442,335.124a2.09,2.09,0,1,1-2.09,2.09A2.09,2.09,0,0,1,297.442,335.124Z" transform="translate(-294.806 -334.565)" fill="#9da0a3"/>
              <path id="Path_331" data-name="Path 331" d="M297.451,335.133a2.09,2.09,0,1,1-2.09,2.09A2.09,2.09,0,0,1,297.451,335.133Z" transform="translate(-294.814 -334.573)" fill="#9ea1a3"/>
              <path id="Path_332" data-name="Path 332" d="M297.461,335.143a2.09,2.09,0,1,1-2.09,2.09A2.09,2.09,0,0,1,297.461,335.143Z" transform="translate(-294.822 -334.582)" fill="#9fa2a4"/>
              <path id="Path_333" data-name="Path 333" d="M297.468,335.153a2.09,2.09,0,1,1-2.089,2.09A2.09,2.09,0,0,1,297.468,335.153Z" transform="translate(-294.829 -334.59)" fill="#a0a2a5"/>
              <path id="Path_334" data-name="Path 334" d="M297.477,335.164a2.089,2.089,0,1,1-2.089,2.089A2.089,2.089,0,0,1,297.477,335.164Z" transform="translate(-294.837 -334.599)" fill="#a1a3a6"/>
              <path id="Path_335" data-name="Path 335" d="M297.486,335.174a2.089,2.089,0,1,1-2.089,2.089A2.089,2.089,0,0,1,297.486,335.174Z" transform="translate(-294.844 -334.608)" fill="#a2a4a7"/>
              <path id="Path_336" data-name="Path 336" d="M297.5,335.184a2.089,2.089,0,1,1-2.089,2.089A2.089,2.089,0,0,1,297.5,335.184Z" transform="translate(-294.852 -334.616)" fill="#a2a5a8"/>
              <path id="Path_337" data-name="Path 337" d="M297.5,335.194a2.089,2.089,0,1,1-2.089,2.089A2.089,2.089,0,0,1,297.5,335.194Z" transform="translate(-294.86 -334.625)" fill="#a3a6a9"/>
              <path id="Path_338" data-name="Path 338" d="M297.513,335.2a2.089,2.089,0,1,1-2.089,2.088A2.089,2.089,0,0,1,297.513,335.2Z" transform="translate(-294.867 -334.633)" fill="#a4a7a9"/>
              <path id="Path_339" data-name="Path 339" d="M297.521,335.214a2.088,2.088,0,1,1-2.088,2.088A2.088,2.088,0,0,1,297.521,335.214Z" transform="translate(-294.875 -334.642)" fill="#a5a8aa"/>
              <path id="Path_340" data-name="Path 340" d="M297.53,335.225a2.088,2.088,0,1,1-2.088,2.088A2.088,2.088,0,0,1,297.53,335.225Z" transform="translate(-294.883 -334.651)" fill="#a6a9ab"/>
              <path id="Path_341" data-name="Path 341" d="M297.539,335.235a2.088,2.088,0,1,1-2.088,2.088A2.088,2.088,0,0,1,297.539,335.235Z" transform="translate(-294.89 -334.66)" fill="#a7a9ac"/>
              <path id="Path_342" data-name="Path 342" d="M297.548,335.245a2.088,2.088,0,1,1-2.088,2.088A2.088,2.088,0,0,1,297.548,335.245Z" transform="translate(-294.898 -334.668)" fill="#a8aaad"/>
              <path id="Path_343" data-name="Path 343" d="M297.557,335.255a2.088,2.088,0,1,1-2.088,2.087A2.087,2.087,0,0,1,297.557,335.255Z" transform="translate(-294.906 -334.677)" fill="#a9abae"/>
              <path id="Path_344" data-name="Path 344" d="M297.565,335.265a2.087,2.087,0,1,1-2.087,2.087A2.087,2.087,0,0,1,297.565,335.265Z" transform="translate(-294.913 -334.685)" fill="#aaacaf"/>
              <path id="Path_345" data-name="Path 345" d="M297.574,335.275a2.087,2.087,0,1,1-2.087,2.087A2.087,2.087,0,0,1,297.574,335.275Z" transform="translate(-294.921 -334.694)" fill="#aaadb0"/>
              <path id="Path_346" data-name="Path 346" d="M297.583,335.286a2.087,2.087,0,1,1-2.087,2.087A2.087,2.087,0,0,1,297.583,335.286Z" transform="translate(-294.928 -334.703)" fill="#abaeb0"/>
              <path id="Path_347" data-name="Path 347" d="M297.592,335.295a2.087,2.087,0,1,1-2.087,2.087A2.087,2.087,0,0,1,297.592,335.295Z" transform="translate(-294.936 -334.711)" fill="#acafb1"/>
              <path id="Path_348" data-name="Path 348" d="M297.6,335.306a2.086,2.086,0,1,1-2.086,2.086A2.086,2.086,0,0,1,297.6,335.306Z" transform="translate(-294.944 -334.72)" fill="#adb0b2"/>
              <path id="Path_349" data-name="Path 349" d="M297.609,335.316a2.086,2.086,0,1,1-2.086,2.086A2.086,2.086,0,0,1,297.609,335.316Z" transform="translate(-294.951 -334.728)" fill="#aeb1b3"/>
              <path id="Path_350" data-name="Path 350" d="M297.618,335.326a2.086,2.086,0,1,1-2.086,2.086A2.086,2.086,0,0,1,297.618,335.326Z" transform="translate(-294.959 -334.737)" fill="#afb1b4"/>
              <path id="Path_351" data-name="Path 351" d="M297.627,335.336a2.086,2.086,0,1,1-2.086,2.086A2.086,2.086,0,0,1,297.627,335.336Z" transform="translate(-294.967 -334.745)" fill="#b0b2b5"/>
              <path id="Path_352" data-name="Path 352" d="M297.636,335.346a2.086,2.086,0,1,1-2.086,2.086A2.086,2.086,0,0,1,297.636,335.346Z" transform="translate(-294.974 -334.754)" fill="#b1b3b6"/>
              <path id="Path_353" data-name="Path 353" d="M297.644,335.356a2.086,2.086,0,1,1-2.085,2.085A2.085,2.085,0,0,1,297.644,335.356Z" transform="translate(-294.982 -334.762)" fill="#b2b4b7"/>
              <path id="Path_354" data-name="Path 354" d="M297.653,335.366a2.085,2.085,0,1,1-2.085,2.085A2.086,2.086,0,0,1,297.653,335.366Z" transform="translate(-294.99 -334.771)" fill="#b3b5b8"/>
              <path id="Path_355" data-name="Path 355" d="M297.662,335.377a2.085,2.085,0,1,1-2.085,2.085A2.085,2.085,0,0,1,297.662,335.377Z" transform="translate(-294.997 -334.78)" fill="#b4b6b8"/>
              <path id="Path_356" data-name="Path 356" d="M297.671,335.387a2.085,2.085,0,1,1-2.085,2.085A2.085,2.085,0,0,1,297.671,335.387Z" transform="translate(-295.005 -334.789)" fill="#b5b7b9"/>
              <path id="Path_357" data-name="Path 357" d="M297.68,335.4a2.085,2.085,0,1,1-2.085,2.085A2.084,2.084,0,0,1,297.68,335.4Z" transform="translate(-295.012 -334.797)" fill="#b5b8ba"/>
              <path id="Path_358" data-name="Path 358" d="M297.688,335.407a2.085,2.085,0,1,1-2.085,2.084A2.084,2.084,0,0,1,297.688,335.407Z" transform="translate(-295.019 -334.806)" fill="#b6b9bb"/>
              <path id="Path_359" data-name="Path 359" d="M297.7,335.417a2.084,2.084,0,1,1-2.084,2.084A2.084,2.084,0,0,1,297.7,335.417Z" transform="translate(-295.028 -334.814)" fill="#b7babc"/>
              <path id="Path_360" data-name="Path 360" d="M297.706,335.428a2.084,2.084,0,1,1-2.084,2.084A2.084,2.084,0,0,1,297.706,335.428Z" transform="translate(-295.035 -334.824)" fill="#b8bbbd"/>
              <path id="Path_361" data-name="Path 361" d="M297.715,335.438a2.084,2.084,0,1,1-2.084,2.084A2.084,2.084,0,0,1,297.715,335.438Z" transform="translate(-295.043 -334.832)" fill="#b9bbbe"/>
              <path id="Path_362" data-name="Path 362" d="M299.807,337.531a2.084,2.084,0,1,1-2.084-2.083A2.084,2.084,0,0,1,299.807,337.531Z" transform="translate(-295.051 -334.84)" fill="#babcbf"/>
              <path id="Path_363" data-name="Path 363" d="M297.73,335.456a2.084,2.084,0,1,1-2.084,2.083A2.083,2.083,0,0,1,297.73,335.456Z" transform="translate(-295.056 -334.847)" fill="#babdbf" opacity="0.995"/>
              <path id="Path_364" data-name="Path 364" d="M297.737,335.463a2.084,2.084,0,1,1-2.084,2.084A2.084,2.084,0,0,1,297.737,335.463Z" transform="translate(-295.062 -334.853)" fill="#bbbdbf" opacity="0.99"/>
              <path id="Path_365" data-name="Path 365" d="M297.744,335.472a2.084,2.084,0,1,1-2.084,2.083A2.084,2.084,0,0,1,297.744,335.472Z" transform="translate(-295.068 -334.861)" fill="#bbbdc0" opacity="0.985"/>
              <path id="Path_366" data-name="Path 366" d="M297.749,335.48a2.084,2.084,0,1,1-2.083,2.083A2.084,2.084,0,0,1,297.749,335.48Z" transform="translate(-295.073 -334.868)" fill="#bbbec0" opacity="0.98"/>
              <path id="Path_367" data-name="Path 367" d="M297.756,335.488a2.084,2.084,0,1,1-2.083,2.083A2.083,2.083,0,0,1,297.756,335.488Z" transform="translate(-295.079 -334.874)" fill="#bcbec0" opacity="0.975"/>
              <path id="Path_368" data-name="Path 368" d="M297.763,335.5a2.084,2.084,0,1,1-2.084,2.083A2.084,2.084,0,0,1,297.763,335.5Z" transform="translate(-295.084 -334.881)" fill="#bcbec0" opacity="0.97"/>
              <path id="Path_369" data-name="Path 369" d="M297.77,335.5a2.084,2.084,0,1,1-2.084,2.083A2.084,2.084,0,0,1,297.77,335.5Z" transform="translate(-295.09 -334.887)" fill="#bcbec1" opacity="0.965"/>
              <path id="Path_370" data-name="Path 370" d="M297.776,335.511a2.084,2.084,0,1,1-2.084,2.083A2.084,2.084,0,0,1,297.776,335.511Z" transform="translate(-295.095 -334.894)" fill="#bdbfc1" opacity="0.96"/>
              <path id="Path_371" data-name="Path 371" d="M297.783,335.519A2.084,2.084,0,1,1,295.7,337.6,2.084,2.084,0,0,1,297.783,335.519Z" transform="translate(-295.101 -334.901)" fill="#bdbfc1" opacity="0.955"/>
              <path id="Path_372" data-name="Path 372" d="M297.789,335.527a2.084,2.084,0,1,1-2.084,2.083A2.084,2.084,0,0,1,297.789,335.527Z" transform="translate(-295.106 -334.908)" fill="#bdbfc2" opacity="0.95"/>
              <path id="Path_373" data-name="Path 373" d="M297.8,335.535a2.084,2.084,0,1,1-2.083,2.083A2.083,2.083,0,0,1,297.8,335.535Z" transform="translate(-295.112 -334.914)" fill="#bec0c2" opacity="0.945"/>
              <path id="Path_374" data-name="Path 374" d="M297.8,335.543a2.084,2.084,0,1,1-2.084,2.083A2.083,2.083,0,0,1,297.8,335.543Z" transform="translate(-295.117 -334.921)" fill="#bec0c2" opacity="0.94"/>
              <path id="Path_375" data-name="Path 375" d="M297.809,335.551a2.084,2.084,0,1,1-2.084,2.083A2.084,2.084,0,0,1,297.809,335.551Z" transform="translate(-295.123 -334.928)" fill="#bec0c3" opacity="0.935"/>
              <path id="Path_376" data-name="Path 376" d="M297.815,335.559a2.084,2.084,0,1,1-2.084,2.083A2.083,2.083,0,0,1,297.815,335.559Z" transform="translate(-295.128 -334.935)" fill="#bec1c3" opacity="0.93"/>
              <path id="Path_377" data-name="Path 377" d="M297.822,335.567a2.084,2.084,0,1,1-2.084,2.083A2.083,2.083,0,0,1,297.822,335.567Z" transform="translate(-295.134 -334.941)" fill="#bfc1c3" opacity="0.925"/>
              <path id="Path_378" data-name="Path 378" d="M297.829,335.575a2.084,2.084,0,1,1-2.084,2.083A2.083,2.083,0,0,1,297.829,335.575Z" transform="translate(-295.14 -334.948)" fill="#bfc1c3" opacity="0.92"/>
              <path id="Path_379" data-name="Path 379" d="M297.834,335.582a2.084,2.084,0,1,1-2.083,2.083A2.084,2.084,0,0,1,297.834,335.582Z" transform="translate(-295.145 -334.954)" fill="#bfc2c4" opacity="0.915"/>
              <path id="Path_380" data-name="Path 380" d="M297.842,335.59a2.084,2.084,0,1,1-2.084,2.084A2.084,2.084,0,0,1,297.842,335.59Z" transform="translate(-295.151 -334.961)" fill="#c0c2c4" opacity="0.91"/>
              <path id="Path_381" data-name="Path 381" d="M297.848,335.6a2.084,2.084,0,1,1-2.084,2.083A2.083,2.083,0,0,1,297.848,335.6Z" transform="translate(-295.156 -334.968)" fill="#c0c2c4" opacity="0.905"/>
              <path id="Path_382" data-name="Path 382" d="M297.855,335.606a2.084,2.084,0,1,1-2.084,2.084A2.083,2.083,0,0,1,297.855,335.606Z" transform="translate(-295.162 -334.975)" fill="#c0c2c5" opacity="0.9"/>
              <path id="Path_383" data-name="Path 383" d="M297.862,335.614a2.084,2.084,0,1,1-2.084,2.083A2.084,2.084,0,0,1,297.862,335.614Z" transform="translate(-295.168 -334.981)" fill="#c1c3c5" opacity="0.896"/>
              <path id="Path_384" data-name="Path 384" d="M297.868,335.622a2.084,2.084,0,1,1-2.084,2.084A2.084,2.084,0,0,1,297.868,335.622Z" transform="translate(-295.173 -334.988)" fill="#c1c3c5" opacity="0.891"/>
              <path id="Path_385" data-name="Path 385" d="M297.874,335.63a2.084,2.084,0,1,1-2.084,2.083A2.084,2.084,0,0,1,297.874,335.63Z" transform="translate(-295.178 -334.995)" fill="#c1c3c5" opacity="0.886"/>
              <path id="Path_386" data-name="Path 386" d="M297.881,335.638a2.084,2.084,0,1,1-2.084,2.083A2.084,2.084,0,0,1,297.881,335.638Z" transform="translate(-295.184 -335.002)" fill="#c2c4c6" opacity="0.881"/>
              <path id="Path_387" data-name="Path 387" d="M297.887,335.646a2.084,2.084,0,1,1-2.083,2.083A2.083,2.083,0,0,1,297.887,335.646Z" transform="translate(-295.19 -335.009)" fill="#c2c4c6" opacity="0.876"/>
              <path id="Path_388" data-name="Path 388" d="M297.894,335.654a2.084,2.084,0,1,1-2.084,2.083A2.084,2.084,0,0,1,297.894,335.654Z" transform="translate(-295.195 -335.015)" fill="#c2c4c6" opacity="0.871"/>
              <path id="Path_389" data-name="Path 389" d="M297.9,335.662a2.084,2.084,0,1,1-2.084,2.083A2.084,2.084,0,0,1,297.9,335.662Z" transform="translate(-295.201 -335.022)" fill="#c2c5c7" opacity="0.866"/>
              <path id="Path_390" data-name="Path 390" d="M297.907,335.669a2.084,2.084,0,1,1-2.083,2.084A2.084,2.084,0,0,1,297.907,335.669Z" transform="translate(-295.207 -335.028)" fill="#c3c5c7" opacity="0.861"/>
              <path id="Path_391" data-name="Path 391" d="M297.915,335.678a2.084,2.084,0,1,1-2.084,2.083A2.084,2.084,0,0,1,297.915,335.678Z" transform="translate(-295.213 -335.036)" fill="#c3c5c7" opacity="0.856"/>
              <path id="Path_392" data-name="Path 392" d="M297.92,335.686a2.084,2.084,0,1,1-2.083,2.083A2.083,2.083,0,0,1,297.92,335.686Z" transform="translate(-295.218 -335.042)" fill="#c3c5c8" opacity="0.851"/>
              <path id="Path_393" data-name="Path 393" d="M297.927,335.693a2.084,2.084,0,1,1-2.084,2.083A2.084,2.084,0,0,1,297.927,335.693Z" transform="translate(-295.223 -335.048)" fill="#c4c6c8" opacity="0.846"/>
              <path id="Path_394" data-name="Path 394" d="M297.934,335.7a2.084,2.084,0,1,1-2.084,2.084A2.084,2.084,0,0,1,297.934,335.7Z" transform="translate(-295.229 -335.055)" fill="#c4c6c8" opacity="0.841"/>
              <path id="Path_395" data-name="Path 395" d="M297.94,335.709a2.084,2.084,0,1,1-2.084,2.083A2.084,2.084,0,0,1,297.94,335.709Z" transform="translate(-295.234 -335.062)" fill="#c4c6c8" opacity="0.836"/>
              <path id="Path_396" data-name="Path 396" d="M297.947,335.717a2.084,2.084,0,1,1-2.084,2.084A2.084,2.084,0,0,1,297.947,335.717Z" transform="translate(-295.24 -335.069)" fill="#c5c7c9" opacity="0.831"/>
              <path id="Path_397" data-name="Path 397" d="M297.954,335.725a2.084,2.084,0,1,1-2.084,2.083A2.084,2.084,0,0,1,297.954,335.725Z" transform="translate(-295.246 -335.076)" fill="#c5c7c9" opacity="0.826"/>
              <path id="Path_398" data-name="Path 398" d="M297.959,335.733a2.084,2.084,0,1,1-2.083,2.083A2.083,2.083,0,0,1,297.959,335.733Z" transform="translate(-295.251 -335.082)" fill="#c5c7c9" opacity="0.821"/>
              <path id="Path_399" data-name="Path 399" d="M297.967,335.741a2.084,2.084,0,1,1-2.084,2.083A2.084,2.084,0,0,1,297.967,335.741Z" transform="translate(-295.257 -335.089)" fill="#c6c8ca" opacity="0.816"/>
              <path id="Path_400" data-name="Path 400" d="M297.973,335.749a2.084,2.084,0,1,1-2.083,2.084A2.084,2.084,0,0,1,297.973,335.749Z" transform="translate(-295.263 -335.096)" fill="#c6c8ca" opacity="0.811"/>
              <path id="Path_401" data-name="Path 401" d="M297.98,335.757a2.084,2.084,0,1,1-2.084,2.083A2.083,2.083,0,0,1,297.98,335.757Z" transform="translate(-295.268 -335.103)" fill="#c6c8ca" opacity="0.806"/>
              <path id="Path_402" data-name="Path 402" d="M297.986,335.765a2.084,2.084,0,1,1-2.084,2.083A2.084,2.084,0,0,1,297.986,335.765Z" transform="translate(-295.273 -335.11)" fill="#c7c9ca" opacity="0.801"/>
              <path id="Path_403" data-name="Path 403" d="M297.993,335.772a2.084,2.084,0,1,1-2.084,2.084A2.084,2.084,0,0,1,297.993,335.772Z" transform="translate(-295.279 -335.115)" fill="#c7c9cb" opacity="0.796"/>
              <path id="Path_404" data-name="Path 404" d="M298,335.781a2.084,2.084,0,1,1-2.084,2.083A2.084,2.084,0,0,1,298,335.781Z" transform="translate(-295.285 -335.123)" fill="#c7c9cb" opacity="0.791"/>
              <path id="Path_405" data-name="Path 405" d="M298.006,335.789a2.084,2.084,0,1,1-2.084,2.083A2.084,2.084,0,0,1,298.006,335.789Z" transform="translate(-295.29 -335.13)" fill="#c8c9cb" opacity="0.786"/>
              <path id="Path_406" data-name="Path 406" d="M298.012,335.8a2.084,2.084,0,1,1-2.083,2.083A2.083,2.083,0,0,1,298.012,335.8Z" transform="translate(-295.296 -335.136)" fill="#c8cacc" opacity="0.781"/>
              <path id="Path_407" data-name="Path 407" d="M298.019,335.8a2.084,2.084,0,1,1-2.084,2.083A2.084,2.084,0,0,1,298.019,335.8Z" transform="translate(-295.301 -335.143)" fill="#c8cacc" opacity="0.776"/>
              <path id="Path_408" data-name="Path 408" d="M298.026,335.812a2.084,2.084,0,1,1-2.084,2.084A2.084,2.084,0,0,1,298.026,335.812Z" transform="translate(-295.307 -335.149)" fill="#c8cacc" opacity="0.771"/>
              <path id="Path_409" data-name="Path 409" d="M298.032,335.82a2.084,2.084,0,1,1-2.083,2.083A2.083,2.083,0,0,1,298.032,335.82Z" transform="translate(-295.313 -335.156)" fill="#c9cbcd" opacity="0.766"/>
              <path id="Path_410" data-name="Path 410" d="M298.039,335.828a2.084,2.084,0,1,1-2.084,2.083A2.084,2.084,0,0,1,298.039,335.828Z" transform="translate(-295.318 -335.163)" fill="#c9cbcd" opacity="0.761"/>
              <path id="Path_411" data-name="Path 411" d="M298.045,335.836a2.084,2.084,0,1,1-2.084,2.083A2.084,2.084,0,0,1,298.045,335.836Z" transform="translate(-295.323 -335.17)" fill="#c9cbcd" opacity="0.756"/>
              <path id="Path_412" data-name="Path 412" d="M298.052,335.844a2.084,2.084,0,1,1-2.084,2.083A2.083,2.083,0,0,1,298.052,335.844Z" transform="translate(-295.329 -335.177)" fill="#cacccd" opacity="0.751"/>
              <path id="Path_413" data-name="Path 413" d="M298.059,335.852a2.084,2.084,0,1,1-2.084,2.083A2.084,2.084,0,0,1,298.059,335.852Z" transform="translate(-295.335 -335.183)" fill="#caccce" opacity="0.746"/>
              <path id="Path_414" data-name="Path 414" d="M298.065,335.859a2.084,2.084,0,1,1-2.084,2.083A2.084,2.084,0,0,1,298.065,335.859Z" transform="translate(-295.34 -335.189)" fill="#caccce" opacity="0.741"/>
              <path id="Path_415" data-name="Path 415" d="M298.072,335.868a2.084,2.084,0,1,1-2.084,2.083A2.083,2.083,0,0,1,298.072,335.868Z" transform="translate(-295.346 -335.197)" fill="#cbccce" opacity="0.736"/>
              <path id="Path_416" data-name="Path 416" d="M298.079,335.876a2.084,2.084,0,1,1-2.084,2.083A2.084,2.084,0,0,1,298.079,335.876Z" transform="translate(-295.352 -335.204)" fill="#cbcdcf" opacity="0.731"/>
              <path id="Path_417" data-name="Path 417" d="M298.084,335.884A2.084,2.084,0,1,1,296,337.967,2.083,2.083,0,0,1,298.084,335.884Z" transform="translate(-295.357 -335.211)" fill="#cbcdcf" opacity="0.726"/>
              <path id="Path_418" data-name="Path 418" d="M298.091,335.891a2.084,2.084,0,1,1-2.084,2.084A2.084,2.084,0,0,1,298.091,335.891Z" transform="translate(-295.362 -335.216)" fill="#cccdcf" opacity="0.721"/>
              <path id="Path_419" data-name="Path 419" d="M298.1,335.9a2.084,2.084,0,1,1-2.084,2.083A2.084,2.084,0,0,1,298.1,335.9Z" transform="translate(-295.368 -335.223)" fill="#ccced0" opacity="0.716"/>
              <path id="Path_420" data-name="Path 420" d="M298.1,335.908a2.084,2.084,0,1,1-2.084,2.083A2.083,2.083,0,0,1,298.1,335.908Z" transform="translate(-295.374 -335.231)" fill="#ccced0" opacity="0.711"/>
              <path id="Path_421" data-name="Path 421" d="M298.112,335.916A2.084,2.084,0,1,1,296.028,338,2.084,2.084,0,0,1,298.112,335.916Z" transform="translate(-295.38 -335.238)" fill="#cdced0" opacity="0.706"/>
              <path id="Path_422" data-name="Path 422" d="M298.118,335.923a2.084,2.084,0,1,1-2.084,2.083A2.084,2.084,0,0,1,298.118,335.923Z" transform="translate(-295.385 -335.244)" fill="#cdcfd0" opacity="0.701"/>
              <path id="Path_423" data-name="Path 423" d="M298.124,335.931a2.084,2.084,0,1,1-2.084,2.084A2.083,2.083,0,0,1,298.124,335.931Z" transform="translate(-295.39 -335.25)" fill="#cdcfd1" opacity="0.697"/>
              <path id="Path_424" data-name="Path 424" d="M298.131,335.939a2.084,2.084,0,1,1-2.084,2.084A2.084,2.084,0,0,1,298.131,335.939Z" transform="translate(-295.396 -335.257)" fill="#cdcfd1" opacity="0.692"/>
              <path id="Path_425" data-name="Path 425" d="M298.137,335.947a2.084,2.084,0,1,1-2.083,2.083A2.083,2.083,0,0,1,298.137,335.947Z" transform="translate(-295.402 -335.264)" fill="#ced0d1" opacity="0.687"/>
              <path id="Path_426" data-name="Path 426" d="M298.144,335.955a2.084,2.084,0,1,1-2.084,2.083A2.083,2.083,0,0,1,298.144,335.955Z" transform="translate(-295.407 -335.271)" fill="#ced0d2" opacity="0.682"/>
              <path id="Path_427" data-name="Path 427" d="M298.151,335.962a2.084,2.084,0,1,1-2.084,2.084A2.084,2.084,0,0,1,298.151,335.962Z" transform="translate(-295.413 -335.277)" fill="#ced0d2" opacity="0.677"/>
              <path id="Path_428" data-name="Path 428" d="M298.158,335.971a2.084,2.084,0,1,1-2.084,2.083A2.083,2.083,0,0,1,298.158,335.971Z" transform="translate(-295.419 -335.284)" fill="#cfd0d2" opacity="0.672"/>
              <path id="Path_429" data-name="Path 429" d="M298.165,335.979a2.084,2.084,0,1,1-2.084,2.083A2.084,2.084,0,0,1,298.165,335.979Z" transform="translate(-295.425 -335.291)" fill="#cfd1d2" opacity="0.667"/>
              <path id="Path_430" data-name="Path 430" d="M298.17,335.986a2.084,2.084,0,1,1-2.084,2.083A2.084,2.084,0,0,1,298.17,335.986Z" transform="translate(-295.429 -335.297)" fill="#cfd1d3" opacity="0.662"/>
              <path id="Path_431" data-name="Path 431" d="M298.176,335.995a2.084,2.084,0,1,1-2.083,2.083A2.083,2.083,0,0,1,298.176,335.995Z" transform="translate(-295.435 -335.305)" fill="#d0d1d3" opacity="0.657"/>
              <path id="Path_432" data-name="Path 432" d="M298.184,336a2.084,2.084,0,1,1-2.084,2.084A2.084,2.084,0,0,1,298.184,336Z" transform="translate(-295.441 -335.311)" fill="#d0d2d3" opacity="0.652"/>
              <path id="Path_433" data-name="Path 433" d="M298.19,336.01a2.084,2.084,0,1,1-2.084,2.084A2.083,2.083,0,0,1,298.19,336.01Z" transform="translate(-295.446 -335.317)" fill="#d0d2d4" opacity="0.647"/>
              <path id="Path_434" data-name="Path 434" d="M298.2,336.018a2.084,2.084,0,1,1-2.083,2.084A2.083,2.083,0,0,1,298.2,336.018Z" transform="translate(-295.452 -335.324)" fill="#d1d2d4" opacity="0.642"/>
              <path id="Path_435" data-name="Path 435" d="M298.2,336.026a2.084,2.084,0,1,1-2.084,2.083A2.084,2.084,0,0,1,298.2,336.026Z" transform="translate(-295.458 -335.331)" fill="#d1d3d4" opacity="0.637"/>
              <path id="Path_436" data-name="Path 436" d="M298.209,336.035a2.084,2.084,0,1,1-2.083,2.083A2.083,2.083,0,0,1,298.209,336.035Z" transform="translate(-295.463 -335.339)" fill="#d1d3d5" opacity="0.632"/>
              <path id="Path_437" data-name="Path 437" d="M298.216,336.042a2.084,2.084,0,1,1-2.084,2.084A2.084,2.084,0,0,1,298.216,336.042Z" transform="translate(-295.468 -335.345)" fill="#d2d3d5" opacity="0.627"/>
              <path id="Path_438" data-name="Path 438" d="M298.223,336.049a2.084,2.084,0,1,1-2.084,2.084A2.084,2.084,0,0,1,298.223,336.049Z" transform="translate(-295.474 -335.351)" fill="#d2d4d5" opacity="0.622"/>
              <path id="Path_439" data-name="Path 439" d="M298.229,336.058a2.084,2.084,0,1,1-2.083,2.084A2.083,2.083,0,0,1,298.229,336.058Z" transform="translate(-295.48 -335.358)" fill="#d2d4d5" opacity="0.617"/>
              <path id="Path_440" data-name="Path 440" d="M298.237,336.066a2.084,2.084,0,1,1-2.084,2.083A2.084,2.084,0,0,1,298.237,336.066Z" transform="translate(-295.486 -335.365)" fill="#d3d4d6" opacity="0.612"/>
              <path id="Path_441" data-name="Path 441" d="M298.243,336.074a2.084,2.084,0,1,1-2.084,2.083A2.084,2.084,0,0,1,298.243,336.074Z" transform="translate(-295.491 -335.372)" fill="#d3d4d6" opacity="0.607"/>
              <path id="Path_442" data-name="Path 442" d="M298.248,336.082a2.084,2.084,0,1,1-2.083,2.083A2.084,2.084,0,0,1,298.248,336.082Z" transform="translate(-295.496 -335.379)" fill="#d3d5d6" opacity="0.602"/>
              <path id="Path_443" data-name="Path 443" d="M298.256,336.089a2.084,2.084,0,1,1-2.084,2.084A2.084,2.084,0,0,1,298.256,336.089Z" transform="translate(-295.502 -335.384)" fill="#d3d5d7" opacity="0.597"/>
              <path id="Path_444" data-name="Path 444" d="M298.262,336.1a2.084,2.084,0,1,1-2.083,2.083A2.083,2.083,0,0,1,298.262,336.1Z" transform="translate(-295.508 -335.392)" fill="#d4d5d7" opacity="0.592"/>
              <path id="Path_445" data-name="Path 445" d="M298.268,336.106a2.084,2.084,0,1,1-2.083,2.083A2.083,2.083,0,0,1,298.268,336.106Z" transform="translate(-295.513 -335.399)" fill="#d4d6d7" opacity="0.587"/>
              <path id="Path_446" data-name="Path 446" d="M298.275,336.113a2.084,2.084,0,1,1-2.084,2.083A2.084,2.084,0,0,1,298.275,336.113Z" transform="translate(-295.518 -335.405)" fill="#d4d6d8" opacity="0.582"/>
              <path id="Path_447" data-name="Path 447" d="M298.282,336.121A2.084,2.084,0,1,1,296.2,338.2,2.084,2.084,0,0,1,298.282,336.121Z" transform="translate(-295.524 -335.412)" fill="#d5d6d8" opacity="0.577"/>
              <path id="Path_448" data-name="Path 448" d="M298.289,336.129a2.084,2.084,0,1,1-2.084,2.084A2.084,2.084,0,0,1,298.289,336.129Z" transform="translate(-295.53 -335.418)" fill="#d5d7d8" opacity="0.572"/>
              <path id="Path_449" data-name="Path 449" d="M298.295,336.137a2.084,2.084,0,1,1-2.084,2.084A2.084,2.084,0,0,1,298.295,336.137Z" transform="translate(-295.535 -335.425)" fill="#d5d7d8" opacity="0.567"/>
              <path id="Path_450" data-name="Path 450" d="M298.3,336.145a2.084,2.084,0,1,1-2.083,2.084A2.083,2.083,0,0,1,298.3,336.145Z" transform="translate(-295.541 -335.432)" fill="#d6d7d9" opacity="0.562"/>
              <path id="Path_451" data-name="Path 451" d="M298.309,336.153a2.084,2.084,0,1,1-2.084,2.083A2.084,2.084,0,0,1,298.309,336.153Z" transform="translate(-295.547 -335.439)" fill="#d6d8d9" opacity="0.557"/>
              <path id="Path_452" data-name="Path 452" d="M298.315,336.161a2.084,2.084,0,1,1-2.084,2.084A2.084,2.084,0,0,1,298.315,336.161Z" transform="translate(-295.552 -335.446)" fill="#d6d8d9" opacity="0.552"/>
              <path id="Path_453" data-name="Path 453" d="M298.322,336.169a2.084,2.084,0,1,1-2.084,2.084A2.084,2.084,0,0,1,298.322,336.169Z" transform="translate(-295.558 -335.452)" fill="#d7d8da" opacity="0.547"/>
              <path id="Path_454" data-name="Path 454" d="M298.328,336.176a2.084,2.084,0,1,1-2.084,2.084A2.084,2.084,0,0,1,298.328,336.176Z" transform="translate(-295.563 -335.458)" fill="#d7d8da" opacity="0.542"/>
              <path id="Path_455" data-name="Path 455" d="M298.334,336.185a2.084,2.084,0,1,1-2.083,2.083A2.083,2.083,0,0,1,298.334,336.185Z" transform="translate(-295.569 -335.466)" fill="#d7d9da" opacity="0.537"/>
              <path id="Path_456" data-name="Path 456" d="M298.342,336.193a2.084,2.084,0,1,1-2.084,2.083A2.084,2.084,0,0,1,298.342,336.193Z" transform="translate(-295.575 -335.473)" fill="#d8d9db" opacity="0.532"/>
              <path id="Path_457" data-name="Path 457" d="M298.348,336.2a2.084,2.084,0,1,1-2.084,2.083A2.084,2.084,0,0,1,298.348,336.2Z" transform="translate(-295.58 -335.48)" fill="#d8d9db" opacity="0.527"/>
              <path id="Path_458" data-name="Path 458" d="M298.354,336.209a2.084,2.084,0,1,1-2.084,2.083A2.083,2.083,0,0,1,298.354,336.209Z" transform="translate(-295.585 -335.486)" fill="#d8dadb" opacity="0.522"/>
              <path id="Path_459" data-name="Path 459" d="M298.361,336.216a2.084,2.084,0,1,1-2.084,2.084A2.084,2.084,0,0,1,298.361,336.216Z" transform="translate(-295.591 -335.492)" fill="#d9dadb" opacity="0.517"/>
              <path id="Path_460" data-name="Path 460" d="M298.368,336.225a2.084,2.084,0,1,1-2.084,2.083A2.084,2.084,0,0,1,298.368,336.225Z" transform="translate(-295.597 -335.5)" fill="#d9dadc" opacity="0.512"/>
              <path id="Path_461" data-name="Path 461" d="M298.373,336.232a2.084,2.084,0,1,1-2.083,2.083A2.084,2.084,0,0,1,298.373,336.232Z" transform="translate(-295.602 -335.506)" fill="#d9dbdc" opacity="0.507"/>
              <path id="Path_462" data-name="Path 462" d="M298.38,336.24a2.084,2.084,0,1,1-2.083,2.083A2.084,2.084,0,0,1,298.38,336.24Z" transform="translate(-295.608 -335.513)" fill="#dadbdc" opacity="0.502"/>
              <path id="Path_463" data-name="Path 463" d="M298.387,336.248a2.084,2.084,0,1,1-2.083,2.084A2.084,2.084,0,0,1,298.387,336.248Z" transform="translate(-295.614 -335.519)" fill="#dadbdd" opacity="0.498"/>
              <path id="Path_464" data-name="Path 464" d="M298.394,336.256a2.084,2.084,0,1,1-2.084,2.083A2.083,2.083,0,0,1,298.394,336.256Z" transform="translate(-295.619 -335.526)" fill="#dadcdd" opacity="0.493"/>
              <path id="Path_465" data-name="Path 465" d="M298.4,336.264a2.084,2.084,0,1,1-2.084,2.084A2.084,2.084,0,0,1,298.4,336.264Z" transform="translate(-295.625 -335.533)" fill="#dadcdd" opacity="0.488"/>
              <path id="Path_466" data-name="Path 466" d="M298.407,336.272a2.084,2.084,0,1,1-2.084,2.084A2.083,2.083,0,0,1,298.407,336.272Z" transform="translate(-295.63 -335.54)" fill="#dbdcde" opacity="0.483"/>
              <path id="Path_467" data-name="Path 467" d="M298.414,336.28a2.084,2.084,0,1,1-2.084,2.083A2.084,2.084,0,0,1,298.414,336.28Z" transform="translate(-295.636 -335.547)" fill="#dbdcde" opacity="0.478"/>
              <path id="Path_468" data-name="Path 468" d="M298.42,336.288a2.084,2.084,0,1,1-2.084,2.083A2.084,2.084,0,0,1,298.42,336.288Z" transform="translate(-295.641 -335.553)" fill="#dbddde" opacity="0.473"/>
              <path id="Path_469" data-name="Path 469" d="M298.426,336.3a2.084,2.084,0,1,1-2.083,2.083A2.084,2.084,0,0,1,298.426,336.3Z" transform="translate(-295.647 -335.56)" fill="#dcddde" opacity="0.468"/>
              <path id="Path_470" data-name="Path 470" d="M298.433,336.3a2.084,2.084,0,1,1-2.083,2.084A2.084,2.084,0,0,1,298.433,336.3Z" transform="translate(-295.653 -335.566)" fill="#dcdddf" opacity="0.463"/>
              <path id="Path_471" data-name="Path 471" d="M298.44,336.312a2.084,2.084,0,1,1-2.084,2.084A2.084,2.084,0,0,1,298.44,336.312Z" transform="translate(-295.658 -335.574)" fill="#dcdedf" opacity="0.458"/>
              <path id="Path_472" data-name="Path 472" d="M298.446,336.319a2.084,2.084,0,1,1-2.083,2.084A2.083,2.083,0,0,1,298.446,336.319Z" transform="translate(-295.664 -335.58)" fill="#dddedf" opacity="0.453"/>
              <path id="Path_473" data-name="Path 473" d="M298.454,336.327a2.084,2.084,0,1,1-2.084,2.084A2.084,2.084,0,0,1,298.454,336.327Z" transform="translate(-295.67 -335.587)" fill="#dddee0" opacity="0.448"/>
              <path id="Path_474" data-name="Path 474" d="M298.459,336.335a2.084,2.084,0,1,1-2.084,2.084A2.084,2.084,0,0,1,298.459,336.335Z" transform="translate(-295.674 -335.593)" fill="#dddfe0" opacity="0.443"/>
              <path id="Path_475" data-name="Path 475" d="M298.465,336.343a2.084,2.084,0,1,1-2.083,2.084A2.083,2.083,0,0,1,298.465,336.343Z" transform="translate(-295.68 -335.6)" fill="#dedfe0" opacity="0.438"/>
              <path id="Path_476" data-name="Path 476" d="M298.473,336.351a2.084,2.084,0,1,1-2.084,2.084A2.084,2.084,0,0,1,298.473,336.351Z" transform="translate(-295.686 -335.607)" fill="#dedfe0" opacity="0.433"/>
              <path id="Path_477" data-name="Path 477" d="M298.479,336.359a2.084,2.084,0,1,1-2.084,2.083A2.083,2.083,0,0,1,298.479,336.359Z" transform="translate(-295.691 -335.614)" fill="#dee0e1" opacity="0.428"/>
              <path id="Path_478" data-name="Path 478" d="M298.486,336.367a2.084,2.084,0,1,1-2.084,2.084A2.084,2.084,0,0,1,298.486,336.367Z" transform="translate(-295.697 -335.62)" fill="#dfe0e1" opacity="0.423"/>
              <path id="Path_479" data-name="Path 479" d="M298.493,336.375a2.084,2.084,0,1,1-2.084,2.084A2.084,2.084,0,0,1,298.493,336.375Z" transform="translate(-295.703 -335.627)" fill="#dfe0e1" opacity="0.418"/>
              <path id="Path_480" data-name="Path 480" d="M298.5,336.382a2.084,2.084,0,1,1-2.083,2.084A2.084,2.084,0,0,1,298.5,336.382Z" transform="translate(-295.708 -335.633)" fill="#dfe1e2" opacity="0.413"/>
              <path id="Path_481" data-name="Path 481" d="M298.5,336.391a2.084,2.084,0,1,1-2.084,2.084A2.084,2.084,0,0,1,298.5,336.391Z" transform="translate(-295.713 -335.641)" fill="#e0e1e2" opacity="0.408"/>
              <path id="Path_482" data-name="Path 482" d="M298.512,336.4a2.084,2.084,0,1,1-2.084,2.084A2.084,2.084,0,0,1,298.512,336.4Z" transform="translate(-295.719 -335.647)" fill="#e0e1e2" opacity="0.403"/>
              <path id="Path_483" data-name="Path 483" d="M298.519,336.407a2.084,2.084,0,1,1-2.084,2.083A2.084,2.084,0,0,1,298.519,336.407Z" transform="translate(-295.725 -335.654)" fill="#e0e1e3" opacity="0.398"/>
              <path id="Path_484" data-name="Path 484" d="M298.526,336.415a2.084,2.084,0,1,1-2.084,2.083A2.084,2.084,0,0,1,298.526,336.415Z" transform="translate(-295.731 -335.661)" fill="#e1e2e3" opacity="0.393"/>
              <path id="Path_485" data-name="Path 485" d="M298.532,336.422a2.084,2.084,0,1,1-2.084,2.084A2.084,2.084,0,0,1,298.532,336.422Z" transform="translate(-295.736 -335.667)" fill="#e1e2e3" opacity="0.388"/>
              <path id="Path_486" data-name="Path 486" d="M298.539,336.43a2.084,2.084,0,1,1-2.084,2.084A2.083,2.083,0,0,1,298.539,336.43Z" transform="translate(-295.742 -335.674)" fill="#e1e2e4" opacity="0.383"/>
              <path id="Path_487" data-name="Path 487" d="M298.545,336.438a2.084,2.084,0,1,1-2.084,2.084A2.084,2.084,0,0,1,298.545,336.438Z" transform="translate(-295.747 -335.681)" fill="#e2e3e4" opacity="0.378"/>
              <path id="Path_488" data-name="Path 488" d="M298.551,336.446a2.084,2.084,0,1,1-2.083,2.084A2.084,2.084,0,0,1,298.551,336.446Z" transform="translate(-295.753 -335.688)" fill="#e2e3e4" opacity="0.373"/>
              <path id="Path_489" data-name="Path 489" d="M298.558,336.454a2.084,2.084,0,1,1-2.084,2.084A2.084,2.084,0,0,1,298.558,336.454Z" transform="translate(-295.758 -335.694)" fill="#e2e3e5" opacity="0.368"/>
              <path id="Path_490" data-name="Path 490" d="M298.565,336.462a2.084,2.084,0,1,1-2.084,2.084A2.084,2.084,0,0,1,298.565,336.462Z" transform="translate(-295.764 -335.701)" fill="#e3e4e5" opacity="0.363"/>
              <path id="Path_491" data-name="Path 491" d="M298.571,336.47a2.084,2.084,0,1,1-2.083,2.084A2.084,2.084,0,0,1,298.571,336.47Z" transform="translate(-295.77 -335.708)" fill="#e3e4e5" opacity="0.358"/>
              <path id="Path_492" data-name="Path 492" d="M298.579,336.478a2.084,2.084,0,1,1-2.084,2.084A2.084,2.084,0,0,1,298.579,336.478Z" transform="translate(-295.776 -335.715)" fill="#e3e4e6" opacity="0.353"/>
              <path id="Path_493" data-name="Path 493" d="M298.584,336.486a2.084,2.084,0,1,1-2.084,2.083A2.084,2.084,0,0,1,298.584,336.486Z" transform="translate(-295.781 -335.721)" fill="#e4e5e6" opacity="0.348"/>
              <path id="Path_494" data-name="Path 494" d="M298.59,336.494a2.084,2.084,0,1,1-2.083,2.084A2.083,2.083,0,0,1,298.59,336.494Z" transform="translate(-295.786 -335.728)" fill="#e4e5e6" opacity="0.343"/>
              <path id="Path_495" data-name="Path 495" d="M298.6,336.5a2.084,2.084,0,1,1-2.084,2.083A2.084,2.084,0,0,1,298.6,336.5Z" transform="translate(-295.792 -335.735)" fill="#e4e5e6" opacity="0.338"/>
              <path id="Path_496" data-name="Path 496" d="M298.6,336.509a2.084,2.084,0,1,1-2.084,2.084A2.084,2.084,0,0,1,298.6,336.509Z" transform="translate(-295.797 -335.741)" fill="#e5e6e7" opacity="0.333"/>
              <path id="Path_497" data-name="Path 497" d="M298.611,336.518a2.084,2.084,0,1,1-2.084,2.084A2.083,2.083,0,0,1,298.611,336.518Z" transform="translate(-295.803 -335.749)" fill="#e5e6e7" opacity="0.328"/>
              <path id="Path_498" data-name="Path 498" d="M298.618,336.525a2.084,2.084,0,1,1-2.084,2.084A2.084,2.084,0,0,1,298.618,336.525Z" transform="translate(-295.809 -335.755)" fill="#e5e6e7" opacity="0.323"/>
              <path id="Path_499" data-name="Path 499" d="M298.623,336.534a2.084,2.084,0,1,1-2.083,2.083A2.083,2.083,0,0,1,298.623,336.534Z" transform="translate(-295.814 -335.762)" fill="#e6e7e8" opacity="0.318"/>
              <path id="Path_500" data-name="Path 500" d="M298.63,336.542a2.084,2.084,0,1,1-2.084,2.083A2.084,2.084,0,0,1,298.63,336.542Z" transform="translate(-295.82 -335.769)" fill="#e6e7e8" opacity="0.313"/>
              <path id="Path_501" data-name="Path 501" d="M298.637,336.549a2.084,2.084,0,1,1-2.084,2.084A2.084,2.084,0,0,1,298.637,336.549Z" transform="translate(-295.826 -335.775)" fill="#e6e7e8" opacity="0.308"/>
              <path id="Path_502" data-name="Path 502" d="M298.643,336.557a2.084,2.084,0,1,1-2.083,2.084A2.084,2.084,0,0,1,298.643,336.557Z" transform="translate(-295.831 -335.782)" fill="#e7e8e9" opacity="0.303"/>
              <path id="Path_503" data-name="Path 503" d="M298.651,336.565a2.084,2.084,0,1,1-2.084,2.083A2.084,2.084,0,0,1,298.651,336.565Z" transform="translate(-295.837 -335.789)" fill="#e7e8e9" opacity="0.299"/>
              <path id="Path_504" data-name="Path 504" d="M298.657,336.573a2.084,2.084,0,1,1-2.084,2.083A2.084,2.084,0,0,1,298.657,336.573Z" transform="translate(-295.842 -335.795)" fill="#e7e8e9" opacity="0.294"/>
              <path id="Path_505" data-name="Path 505" d="M298.663,336.581a2.084,2.084,0,1,1-2.083,2.084A2.084,2.084,0,0,1,298.663,336.581Z" transform="translate(-295.848 -335.802)" fill="#e8e9e9" opacity="0.289"/>
              <path id="Path_506" data-name="Path 506" d="M298.67,336.589a2.084,2.084,0,1,1-2.084,2.084A2.084,2.084,0,0,1,298.67,336.589Z" transform="translate(-295.854 -335.809)" fill="#e8e9ea" opacity="0.284"/>
              <path id="Path_507" data-name="Path 507" d="M298.676,336.6a2.084,2.084,0,1,1-2.083,2.083A2.084,2.084,0,0,1,298.676,336.6Z" transform="translate(-295.859 -335.816)" fill="#e8e9ea" opacity="0.279"/>
              <path id="Path_508" data-name="Path 508" d="M298.682,336.6a2.084,2.084,0,1,1-2.083,2.084A2.084,2.084,0,0,1,298.682,336.6Z" transform="translate(-295.865 -335.822)" fill="#e9e9ea" opacity="0.274"/>
              <path id="Path_509" data-name="Path 509" d="M298.69,336.613a2.084,2.084,0,1,1-2.084,2.083A2.084,2.084,0,0,1,298.69,336.613Z" transform="translate(-295.87 -335.829)" fill="#e9eaeb" opacity="0.269"/>
              <path id="Path_510" data-name="Path 510" d="M298.7,336.621a2.084,2.084,0,1,1-2.083,2.083A2.083,2.083,0,0,1,298.7,336.621Z" transform="translate(-295.876 -335.836)" fill="#e9eaeb" opacity="0.264"/>
              <path id="Path_511" data-name="Path 511" d="M298.7,336.628a2.084,2.084,0,1,1-2.083,2.084A2.084,2.084,0,0,1,298.7,336.628Z" transform="translate(-295.882 -335.842)" fill="#eaeaeb" opacity="0.259"/>
              <path id="Path_512" data-name="Path 512" d="M298.709,336.636a2.084,2.084,0,1,1-2.084,2.084A2.084,2.084,0,0,1,298.709,336.636Z" transform="translate(-295.887 -335.849)" fill="#eaebec" opacity="0.254"/>
              <path id="Path_513" data-name="Path 513" d="M298.715,336.645a2.084,2.084,0,1,1-2.083,2.083A2.083,2.083,0,0,1,298.715,336.645Z" transform="translate(-295.893 -335.856)" fill="#eaebec" opacity="0.249"/>
              <path id="Path_514" data-name="Path 514" d="M298.723,336.652a2.084,2.084,0,1,1-2.084,2.084A2.084,2.084,0,0,1,298.723,336.652Z" transform="translate(-295.898 -335.862)" fill="#ebebec" opacity="0.244"/>
              <path id="Path_515" data-name="Path 515" d="M298.729,336.66a2.084,2.084,0,1,1-2.084,2.084A2.084,2.084,0,0,1,298.729,336.66Z" transform="translate(-295.904 -335.869)" fill="#ebecec" opacity="0.239"/>
              <path id="Path_516" data-name="Path 516" d="M298.735,336.669a2.084,2.084,0,1,1-2.083,2.083A2.083,2.083,0,0,1,298.735,336.669Z" transform="translate(-295.91 -335.877)" fill="#ebeced" opacity="0.234"/>
              <path id="Path_517" data-name="Path 517" d="M298.743,336.676a2.084,2.084,0,1,1-2.084,2.084A2.084,2.084,0,0,1,298.743,336.676Z" transform="translate(-295.915 -335.883)" fill="#ececed" opacity="0.229"/>
              <path id="Path_518" data-name="Path 518" d="M298.748,336.684a2.084,2.084,0,1,1-2.083,2.084A2.084,2.084,0,0,1,298.748,336.684Z" transform="translate(-295.921 -335.889)" fill="#eceded" opacity="0.224"/>
              <path id="Path_519" data-name="Path 519" d="M298.755,336.692a2.084,2.084,0,1,1-2.084,2.083A2.084,2.084,0,0,1,298.755,336.692Z" transform="translate(-295.926 -335.896)" fill="#ecedee" opacity="0.219"/>
              <path id="Path_520" data-name="Path 520" d="M298.762,336.7a2.084,2.084,0,1,1-2.084,2.084A2.084,2.084,0,0,1,298.762,336.7Z" transform="translate(-295.932 -335.903)" fill="#ededee" opacity="0.214"/>
              <path id="Path_521" data-name="Path 521" d="M298.768,336.708a2.084,2.084,0,1,1-2.083,2.084A2.084,2.084,0,0,1,298.768,336.708Z" transform="translate(-295.938 -335.91)" fill="#edeeee" opacity="0.209"/>
              <path id="Path_522" data-name="Path 522" d="M298.775,336.715a2.084,2.084,0,1,1-2.084,2.084A2.084,2.084,0,0,1,298.775,336.715Z" transform="translate(-295.943 -335.916)" fill="#edeeef" opacity="0.204"/>
              <path id="Path_523" data-name="Path 523" d="M298.782,336.724a2.084,2.084,0,1,1-2.084,2.083A2.084,2.084,0,0,1,298.782,336.724Z" transform="translate(-295.949 -335.923)" fill="#eeeeef" opacity="0.199"/>
              <path id="Path_524" data-name="Path 524" d="M298.788,336.731a2.084,2.084,0,1,1-2.083,2.084A2.084,2.084,0,0,1,298.788,336.731Z" transform="translate(-295.954 -335.929)" fill="#eeefef" opacity="0.194"/>
              <path id="Path_525" data-name="Path 525" d="M298.794,336.74a2.084,2.084,0,1,1-2.083,2.083A2.084,2.084,0,0,1,298.794,336.74Z" transform="translate(-295.96 -335.937)" fill="#eeeff0" opacity="0.189"/>
              <path id="Path_526" data-name="Path 526" d="M298.8,336.748a2.084,2.084,0,1,1-2.083,2.084A2.084,2.084,0,0,1,298.8,336.748Z" transform="translate(-295.966 -335.944)" fill="#efeff0" opacity="0.184"/>
              <path id="Path_527" data-name="Path 527" d="M298.807,336.755a2.084,2.084,0,1,1-2.083,2.084A2.084,2.084,0,0,1,298.807,336.755Z" transform="translate(-295.971 -335.95)" fill="#eff0f0" opacity="0.179"/>
              <path id="Path_528" data-name="Path 528" d="M298.815,336.763a2.084,2.084,0,1,1-2.084,2.084A2.084,2.084,0,0,1,298.815,336.763Z" transform="translate(-295.977 -335.957)" fill="#eff0f0" opacity="0.174"/>
              <path id="Path_529" data-name="Path 529" d="M298.821,336.771a2.084,2.084,0,1,1-2.084,2.084A2.084,2.084,0,0,1,298.821,336.771Z" transform="translate(-295.982 -335.963)" fill="#f0f0f1" opacity="0.169"/>
              <path id="Path_530" data-name="Path 530" d="M298.828,336.779a2.084,2.084,0,1,1-2.084,2.084A2.084,2.084,0,0,1,298.828,336.779Z" transform="translate(-295.988 -335.97)" fill="#f0f0f1" opacity="0.164"/>
              <path id="Path_531" data-name="Path 531" d="M298.834,336.787a2.084,2.084,0,1,1-2.084,2.084A2.084,2.084,0,0,1,298.834,336.787Z" transform="translate(-295.993 -335.977)" fill="#f0f1f1" opacity="0.159"/>
              <path id="Path_532" data-name="Path 532" d="M298.84,336.795a2.084,2.084,0,1,1-2.083,2.084A2.083,2.083,0,0,1,298.84,336.795Z" transform="translate(-295.999 -335.984)" fill="#f1f1f2" opacity="0.154"/>
              <path id="Path_533" data-name="Path 533" d="M298.848,336.8a2.084,2.084,0,1,1-2.084,2.084A2.084,2.084,0,0,1,298.848,336.8Z" transform="translate(-296.005 -335.99)" fill="#f1f1f2" opacity="0.149"/>
              <path id="Path_534" data-name="Path 534" d="M298.854,336.811a2.084,2.084,0,1,1-2.084,2.084A2.084,2.084,0,0,1,298.854,336.811Z" transform="translate(-296.01 -335.997)" fill="#f1f2f2" opacity="0.144"/>
              <path id="Path_535" data-name="Path 535" d="M298.86,336.819a2.084,2.084,0,1,1-2.083,2.083A2.083,2.083,0,0,1,298.86,336.819Z" transform="translate(-296.016 -336.004)" fill="#f2f2f3" opacity="0.139"/>
              <path id="Path_536" data-name="Path 536" d="M298.867,336.827a2.084,2.084,0,1,1-2.084,2.083A2.084,2.084,0,0,1,298.867,336.827Z" transform="translate(-296.021 -336.011)" fill="#f2f3f3" opacity="0.134"/>
              <path id="Path_537" data-name="Path 537" d="M298.873,336.835a2.084,2.084,0,1,1-2.083,2.084A2.084,2.084,0,0,1,298.873,336.835Z" transform="translate(-296.027 -336.018)" fill="#f2f3f3" opacity="0.129"/>
              <path id="Path_538" data-name="Path 538" d="M298.879,336.842a2.084,2.084,0,1,1-2.083,2.084A2.084,2.084,0,0,1,298.879,336.842Z" transform="translate(-296.032 -336.024)" fill="#f3f3f4" opacity="0.124"/>
              <path id="Path_539" data-name="Path 539" d="M298.887,336.851a2.084,2.084,0,1,1-2.084,2.083A2.084,2.084,0,0,1,298.887,336.851Z" transform="translate(-296.038 -336.031)" fill="#f3f4f4" opacity="0.119"/>
              <path id="Path_540" data-name="Path 540" d="M298.893,336.858a2.084,2.084,0,1,1-2.083,2.084A2.084,2.084,0,0,1,298.893,336.858Z" transform="translate(-296.044 -336.037)" fill="#f3f4f4" opacity="0.114"/>
              <path id="Path_541" data-name="Path 541" d="M298.9,336.866a2.084,2.084,0,1,1-2.084,2.084A2.084,2.084,0,0,1,298.9,336.866Z" transform="translate(-296.049 -336.044)" fill="#f4f4f5" opacity="0.109"/>
              <path id="Path_542" data-name="Path 542" d="M298.907,336.874a2.084,2.084,0,1,1-2.084,2.084A2.084,2.084,0,0,1,298.907,336.874Z" transform="translate(-296.055 -336.051)" fill="#f4f5f5" opacity="0.104"/>
              <path id="Path_543" data-name="Path 543" d="M298.913,336.882a2.084,2.084,0,1,1-2.083,2.084A2.084,2.084,0,0,1,298.913,336.882Z" transform="translate(-296.061 -336.057)" fill="#f5f5f5" opacity="0.1"/>
              <path id="Path_544" data-name="Path 544" d="M298.919,336.89a2.084,2.084,0,1,1-2.083,2.084A2.084,2.084,0,0,1,298.919,336.89Z" transform="translate(-296.066 -336.064)" fill="#f5f5f6" opacity="0.095"/>
              <path id="Path_545" data-name="Path 545" d="M298.926,336.9a2.084,2.084,0,1,1-2.083,2.084A2.084,2.084,0,0,1,298.926,336.9Z" transform="translate(-296.072 -336.071)" fill="#f5f6f6" opacity="0.09"/>
              <path id="Path_546" data-name="Path 546" d="M298.932,336.906a2.084,2.084,0,1,1-2.083,2.084A2.083,2.083,0,0,1,298.932,336.906Z" transform="translate(-296.077 -336.078)" fill="#f6f6f6" opacity="0.085"/>
              <path id="Path_547" data-name="Path 547" d="M298.939,336.914A2.084,2.084,0,1,1,296.855,339,2.084,2.084,0,0,1,298.939,336.914Z" transform="translate(-296.082 -336.085)" fill="#f6f7f7" opacity="0.08"/>
              <path id="Path_548" data-name="Path 548" d="M298.946,336.922a2.084,2.084,0,1,1-2.084,2.084A2.083,2.083,0,0,1,298.946,336.922Z" transform="translate(-296.088 -336.091)" fill="#f7f7f7" opacity="0.075"/>
              <path id="Path_549" data-name="Path 549" d="M298.952,336.93a2.084,2.084,0,1,1-2.083,2.084A2.084,2.084,0,0,1,298.952,336.93Z" transform="translate(-296.094 -336.098)" fill="#f7f7f8" opacity="0.07"/>
              <path id="Path_550" data-name="Path 550" d="M298.959,336.938a2.084,2.084,0,1,1-2.084,2.084A2.084,2.084,0,0,1,298.959,336.938Z" transform="translate(-296.099 -336.105)" fill="#f7f8f8" opacity="0.065"/>
              <path id="Path_551" data-name="Path 551" d="M298.965,336.945a2.084,2.084,0,1,1-2.083,2.084A2.084,2.084,0,0,1,298.965,336.945Z" transform="translate(-296.105 -336.111)" fill="#f8f8f8" opacity="0.06"/>
              <path id="Path_552" data-name="Path 552" d="M298.972,336.953a2.084,2.084,0,1,1-2.083,2.084A2.084,2.084,0,0,1,298.972,336.953Z" transform="translate(-296.111 -336.118)" fill="#f8f9f9" opacity="0.055"/>
              <path id="Path_553" data-name="Path 553" d="M298.979,336.961a2.084,2.084,0,1,1-2.084,2.084A2.084,2.084,0,0,1,298.979,336.961Z" transform="translate(-296.116 -336.125)" fill="#f9f9f9" opacity="0.05"/>
              <path id="Path_554" data-name="Path 554" d="M298.985,336.969a2.084,2.084,0,1,1-2.083,2.084A2.084,2.084,0,0,1,298.985,336.969Z" transform="translate(-296.122 -336.131)" fill="#f9fafa" opacity="0.045"/>
              <path id="Path_555" data-name="Path 555" d="M298.992,336.978a2.084,2.084,0,1,1-2.084,2.083A2.083,2.083,0,0,1,298.992,336.978Z" transform="translate(-296.127 -336.139)" fill="#fafafa" opacity="0.04"/>
              <path id="Path_556" data-name="Path 556" d="M299,336.985a2.084,2.084,0,1,1-2.083,2.084A2.084,2.084,0,0,1,299,336.985Z" transform="translate(-296.133 -336.145)" fill="#fafbfb" opacity="0.035"/>
              <path id="Path_557" data-name="Path 557" d="M299,336.993a2.084,2.084,0,1,1-2.083,2.084A2.084,2.084,0,0,1,299,336.993Z" transform="translate(-296.138 -336.152)" fill="#fbfbfb" opacity="0.03"/>
              <path id="Path_558" data-name="Path 558" d="M299.012,337a2.084,2.084,0,1,1-2.084,2.084A2.084,2.084,0,0,1,299.012,337Z" transform="translate(-296.144 -336.159)" fill="#fcfcfc" opacity="0.025"/>
              <path id="Path_559" data-name="Path 559" d="M299.018,337.009a2.084,2.084,0,1,1-2.083,2.084A2.084,2.084,0,0,1,299.018,337.009Z" transform="translate(-296.15 -336.165)" fill="#fcfcfd" opacity="0.02"/>
              <path id="Path_560" data-name="Path 560" d="M299.025,337.017a2.084,2.084,0,1,1-2.084,2.084A2.084,2.084,0,0,1,299.025,337.017Z" transform="translate(-296.155 -336.172)" fill="#fdfdfd" opacity="0.015"/>
              <path id="Path_561" data-name="Path 561" d="M299.032,337.024a2.084,2.084,0,1,1-2.084,2.084A2.084,2.084,0,0,1,299.032,337.024Z" transform="translate(-296.161 -336.178)" fill="#fefefe" opacity="0.01"/>
              <path id="Path_562" data-name="Path 562" d="M299.038,337.033a2.084,2.084,0,1,1-2.083,2.084A2.083,2.083,0,0,1,299.038,337.033Z" transform="translate(-296.167 -336.186)" fill="#fefefe" opacity="0.005"/>
              <path id="Path_563" data-name="Path 563" d="M301.128,339.125a2.084,2.084,0,1,1-2.084-2.084A2.084,2.084,0,0,1,301.128,339.125Z" transform="translate(-296.172 -336.192)" fill="#fff" opacity="0"/>
            </g>
          </g>
        </g>
      </g>
      <g id="Group_210" data-name="Group 210" transform="translate(25.398 5.209)">
        <path id="Path_565" data-name="Path 565" d="M383.38,334.754c0-.069-.047-.106-.13-.106h-.11v.344h.082v-.133l.1.133h.1l-.113-.142A.094.094,0,0,0,383.38,334.754Zm-.145.047h-.014v-.09h.015c.041,0,.062.015.062.044S383.276,334.8,383.235,334.8Z" transform="translate(-382.966 -334.519)" fill="#1a1818"/>
        <path id="Path_566" data-name="Path 566" d="M382.3,333.8a.3.3,0,1,0,.3.3A.3.3,0,0,0,382.3,333.8Zm0,.547a.246.246,0,1,1,.238-.246A.243.243,0,0,1,382.3,334.345Z" transform="translate(-381.997 -333.798)" fill="#1a1818"/>
      </g>
    </g>
    <g id="American_Express_logo" transform="translate(514.819 818.431)">
      <path id="Path_567" data-name="Path 567" d="M24.718,7.6H7.639V24.739H24.718V19.082a.648.648,0,0,0,.1-.377.586.586,0,0,0-.1-.376" transform="translate(-7.639 -7.598)" fill="url(#radial-gradient)"/>
      <path id="Path_568" data-name="Path 568" d="M9.178,106.16l-.329-.8-.327.8m7.894-.319a.445.445,0,0,1-.237.041H15.6v-.446h.591a.492.492,0,0,1,.228.036.184.184,0,0,1,.1.178A.205.205,0,0,1,16.416,105.841Zm4.16.319-.332-.8-.33.8Zm-7.755.867h-.492l0-1.573-.7,1.573H11.21l-.7-1.574v1.574H9.535l-.184-.448h-1l-.186.448H7.644l.86-2.008h.713l.816,1.9v-1.9h.784l.628,1.362.577-1.362h.8v2.008Zm1.961,0h-1.6v-2.008h1.6v.418H13.659v.362h1.1v.412h-1.1v.4h1.124Zm2.261-1.467a.565.565,0,0,1-.338.535.557.557,0,0,1,.237.169.578.578,0,0,1,.079.369v.395h-.484l0-.253a.6.6,0,0,0-.076-.391.469.469,0,0,0-.35-.086H15.6v.731h-.48v-2.008h1.1a1.131,1.131,0,0,1,.581.1A.468.468,0,0,1,17.044,105.559Zm.768,1.467h-.49v-2.008h.49Zm5.683,0h-.68l-.91-1.507v1.507h-.978l-.187-.448h-1l-.181.448H19a.851.851,0,0,1-.953-.989,1.069,1.069,0,0,1,.259-.785.974.974,0,0,1,.729-.234H19.5v.43h-.455a.462.462,0,0,0-.369.119.663.663,0,0,0-.138.455.7.7,0,0,0,.132.472.463.463,0,0,0,.335.1h.216l.677-1.579h.719l.813,1.9v-1.9h.731l.844,1.4v-1.4h.492v2.008Zm-15.857.394h.82l.185-.446h.414l.184.446h1.614v-.341l.144.343h.838l.144-.348v.346h4.011l0-.732h.078c.054,0,.07.007.07.1v.636h2.074v-.17a1.644,1.644,0,0,0,.77.17h.873l.187-.446h.414l.183.446H22.32V107l.255.424h1.348v-2.8H22.589v.331l-.187-.331H21.034v.331l-.171-.331H19.014a1.66,1.66,0,0,0-.8.164v-.164H16.937v.164a.791.791,0,0,0-.542-.164h-4.66l-.313.723-.321-.723H9.633v.331l-.161-.331H8.219l-.581,1.332v1.469Z" transform="translate(-7.638 -98.743)" fill="#fff"/>
      <path id="Path_569" data-name="Path 569" d="M77.389,162.488h-.875a.332.332,0,0,0-.194.036.156.156,0,0,0-.07.145.152.152,0,0,0,.1.15.547.547,0,0,0,.185.023l.26.007a.759.759,0,0,1,.545.162.258.258,0,0,1,.045.05m0,.753a.748.748,0,0,1-.651.257h-.927v-.431h.923a.273.273,0,0,0,.194-.05.177.177,0,0,0,.057-.131.165.165,0,0,0-.059-.133.244.244,0,0,0-.169-.045c-.451-.015-1.013.014-1.013-.622,0-.291.185-.6.689-.6h.956v-.4H76.5a1,1,0,0,0-.6.164v-.164H74.586a.91.91,0,0,0-.573.164v-.164H71.666v.164a1.249,1.249,0,0,0-.647-.164H69.47v.164a1.1,1.1,0,0,0-.677-.164H67.061l-.4.429-.371-.429H63.706v2.8h2.539l.408-.436.385.436H68.6v-.659h.154a1.63,1.63,0,0,0,.669-.1v.757h1.291v-.731h.062c.079,0,.087,0,.087.083v.648h3.922a1.118,1.118,0,0,0,.653-.179v.179h1.244a1.666,1.666,0,0,0,.7-.129Zm-1.915-.8a.559.559,0,0,1,.144.426c0,.432-.27.634-.754.634h-.935v-.431h.931a.282.282,0,0,0,.2-.05.178.178,0,0,0,.057-.131.172.172,0,0,0-.059-.133.252.252,0,0,0-.171-.045c-.449-.015-1.011.014-1.011-.622,0-.291.183-.6.686-.6h.962v.428H74.64a.325.325,0,0,0-.192.036.168.168,0,0,0,.033.294.552.552,0,0,0,.187.023l.258.007A.774.774,0,0,1,75.474,163.01Zm-4.332-.124a.46.46,0,0,1-.237.041h-.583v-.451h.591a.473.473,0,0,1,.229.036.191.191,0,0,1,.1.181A.217.217,0,0,1,71.142,162.886Zm.29.25a.522.522,0,0,1,.235.169.585.585,0,0,1,.08.367v.4h-.482v-.251c0-.121.012-.3-.078-.393a.466.466,0,0,0-.352-.089h-.513v.734H69.84v-2.009h1.108a1.188,1.188,0,0,1,.578.095.47.47,0,0,1,.247.446A.563.563,0,0,1,71.432,163.136Zm.606-1.075h1.6v.415H72.517v.365h1.1v.41h-1.1v.4l1.124,0v.417h-1.6Zm-3.239.927h-.62v-.512h.626c.173,0,.294.071.294.246S68.984,162.988,68.8,162.988Zm-1.1.9-.737-.818.737-.792Zm-1.9-.236h-1.18v-.4h1.054v-.41H64.618v-.365h1.2l.525.585Zm3.816-.928c0,.558-.416.673-.836.673h-.6v.674h-.933l-.591-.665-.614.665h-1.9v-2.009H66.07l.591.658.611-.658h1.534C69.186,162.061,69.614,162.166,69.614,162.722Z" transform="translate(-60.31 -152.328)" fill="#fff"/>
    </g>
  </g>
</svg>
