<svg id="Training_Intensity_Response" data-name="Training Intensity Response" xmlns="http://www.w3.org/2000/svg" width="48" height="48" viewBox="0 0 48 48">
  <circle id="Ellipse_24" data-name="Ellipse 24" cx="24" cy="24" r="24" fill="#ddefe2"/>
  <path id="Path_35" data-name="Path 35" d="M31.26,12a.965.965,0,0,0-.8.408L29.5,13.755l-3.373,1.187a.962.962,0,0,0-.611,1.139L26.941,21.8a5.768,5.768,0,0,0-4.243,4.61H19.425l-2.641-6.716h1.025a.961.961,0,1,0,0-1.921H15.523c-.048-.007-.1-.011-.141-.014a1.3,1.3,0,0,0-.166.014H13.971a.961.961,0,1,0,0,1.921h.75l2.639,6.716h-.51a2.878,2.878,0,1,0,0,5.757,3.163,3.163,0,0,0,.855-.139L23.3,30.1a5.771,5.771,0,0,0,5.064,3.024,5.674,5.674,0,0,0,2.14-.419l.848,1.379h-.109a.96.96,0,1,0,0,1.919h2.878a.96.96,0,1,0,0-1.919h-.513L32.139,31.7a5.748,5.748,0,0,0-3.261-10.068l-1.288-5.169,2.828-1a.947.947,0,0,0,.463-.344l1.142-1.586A.963.963,0,0,0,31.26,12ZM28.365,23.527a3.838,3.838,0,1,1-3.211,5.937l3.466-1.192a.942.942,0,0,0,.7-.907.961.961,0,0,0-.959-.96h-3.7A3.813,3.813,0,0,1,28.365,23.527Zm-11.516,4.8a.959.959,0,1,1-.96.959A.961.961,0,0,1,16.85,28.324Zm-2.878,5.757a.96.96,0,1,0,0,1.919h4.8a.967.967,0,0,0,.843-.474.961.961,0,0,0-.843-1.445Z" fill="#25772f"/>
</svg>
