<svg id="Aerobic_Response" data-name="Aerobic Response" xmlns="http://www.w3.org/2000/svg" width="48" height="48" viewBox="0 0 48 48">
  <circle id="Ellipse_27" data-name="Ellipse 27" cx="24" cy="24" r="24" fill="#ddefe2"/>
  <path id="Path_38" data-name="Path 38" d="M34.009,11a1.036,1.036,0,0,0-.51.149l-10.48,5.713-9.5-5.7a1.023,1.023,0,0,0-.569-.147,1,1,0,0,0-.46,1.864l.031.017L21,19.735V35.987a1,1,0,1,0,2,0l.628-7.914,1.926-3.491,8.621-3.588.109-.031a1,1,0,0,0-.334-1.954,1.121,1.121,0,0,0-.266.05L25.99,21.494V19.528L34.45,12.9l.01-.007a1,1,0,0,0-.451-1.9ZM27.487,26a2.5,2.5,0,1,0,2.5,2.5A2.5,2.5,0,0,0,27.487,26Z" fill="#25772f"/>
</svg>
