<svg id="Motivation_To_Exercise" data-name="Motivation To Exercise" xmlns="http://www.w3.org/2000/svg" width="48" height="48" viewBox="0 0 48 48">
  <circle id="Ellipse_31" data-name="Ellipse 31" cx="24" cy="24" r="24" fill="#ddefe2"/>
  <path id="Path_42" data-name="Path 42" d="M13.007,12v3h-.5a.507.507,0,0,0-.439.247.5.5,0,0,0,.439.752h.5v3h3V16h1.18l.84,4.194a1.038,1.038,0,0,0,.133.335l.244.392,1.975,3.525,1.016,3.548-3.069,3.676-4.65,2.378-.038.017a1,1,0,1,0,.743,1.849l5-2a1.013,1.013,0,0,0,.183-.093l.036-.024L25,30.988l3.264.036L29,34.911v.074a1,1,0,1,0,2,0V29.552a1,1,0,0,0-.783-.976l-3.183-.987.641-2.9,2.015-3.914.159-.252a1.1,1.1,0,0,0,.133-.335L30.817,16h1.177v3h3V16h.5a.5.5,0,0,0,.437-.244.488.488,0,0,0,0-.508A.5.5,0,0,0,35.493,15h-.5V12h-3v3H31a1,1,0,0,0-1.979-.195L28.978,15H19.024l-.04-.195A1,1,0,0,0,17,15H16V12Zm6.23,4h9.525l-.978,3.643L25.5,22.994l-1.5,0H22.6L20.236,19.6ZM24,17a2,2,0,1,0,2,2A2,2,0,0,0,24,17Z" fill="#25772f"/>
</svg>
