<svg id="Eating_Between_Meals" data-name="Eating Between Meals" xmlns="http://www.w3.org/2000/svg" width="48" height="48" viewBox="0 0 48 48">
  <circle id="Ellipse_12" data-name="Ellipse 12" cx="24" cy="24" r="24" fill="#ddefe2"/>
  <path id="Path_23" data-name="Path 23" d="M22.472,12a1.044,1.044,0,0,0-1.025,1.057A10.514,10.514,0,0,0,22.6,18.142a5.934,5.934,0,0,1,.934,3.259,1.048,1.048,0,0,0,.518.916,1.059,1.059,0,0,0,1.05,0,1.048,1.048,0,0,0,.518-.916,8.391,8.391,0,0,0-1.154-4.193,7.781,7.781,0,0,1-.931-4.151,1.052,1.052,0,0,0-.307-.753A1.031,1.031,0,0,0,22.472,12Zm-5.025,2.085a1.051,1.051,0,0,0-.807.379,1.033,1.033,0,0,0-.22.867,11.327,11.327,0,0,0,1.231,3.331,5.278,5.278,0,0,1,.669,2.739,1.051,1.051,0,0,0,.515.916A1.044,1.044,0,0,0,20.4,21.4a7.819,7.819,0,0,0-.882-3.658,9.439,9.439,0,0,1-1.055-2.786A1.042,1.042,0,0,0,17.447,14.086Zm10.432,0a1.048,1.048,0,0,0-1.035,1.246,11.463,11.463,0,0,0,1.233,3.331,5.254,5.254,0,0,1,.669,2.739,1.048,1.048,0,0,0,.518.916,1.059,1.059,0,0,0,1.05,0,1.048,1.048,0,0,0,.518-.916,7.822,7.822,0,0,0-.879-3.658A9.371,9.371,0,0,1,28.9,14.957,1.041,1.041,0,0,0,27.879,14.086ZM12.06,24.53a1.043,1.043,0,1,0-.007,2.085,8.347,8.347,0,0,0,5.37,7.789,1.039,1.039,0,0,0,.9,1.6H28.746a1.033,1.033,0,0,0,.924-.537,1.047,1.047,0,0,0-.032-1.063,8.351,8.351,0,0,0,5.357-7.784H35a1.043,1.043,0,1,0,0-2.085Z" fill="#25772f"/>
</svg>
