<svg id="Phytoestrogen_In_DIet" data-name="Phytoestrogen In DIet" xmlns="http://www.w3.org/2000/svg" width="48" height="48" viewBox="0 0 48 48">
  <circle id="Ellipse_14" data-name="Ellipse 14" cx="24" cy="24" r="24" fill="#ddefe2"/>
  <path id="Path_25" data-name="Path 25" d="M35,12c-6.256,0-7.788,2.852-9.557,6.154a20.174,20.174,0,0,1-8.2,8.961,11.026,11.026,0,0,0-5.2,6.3.992.992,0,0,0,.247,1.007c.637.632,2.648,1.577,5.581,1.577a17.022,17.022,0,0,0,12.65-6.144c3.176-3.636,4.831-8.206,4.323-11.92-.409-3-.245-3.52.622-3.981a1,1,0,0,0,.53-.884V13A1,1,0,0,0,35,12ZM17.714,33.454a1.242,1.242,0,0,1-1.681,0c-.466-.435-.77-.855,0-1.577s1.218-.439,1.681,0A1.065,1.065,0,0,1,17.714,33.454ZM22,32.019a1.553,1.553,0,0,1-2.09,0c-.577-.542-.952-1.066,0-1.959s1.513-.539,2.09,0A1.329,1.329,0,0,1,22,32.019ZM25.566,29.6c-1.09,1.021-1.693.606-2.344,0a1.489,1.489,0,0,1,0-2.195,1.739,1.739,0,0,1,2.344,0C26.208,28.006,26.656,28.578,25.566,29.6Zm2.083-2.76A1.649,1.649,0,0,1,25.894,25.2c0-.9.233-1.641,1.755-1.641s1.75.736,1.75,1.641A1.646,1.646,0,0,1,27.649,26.842Zm3.75-4.7a1.794,1.794,0,0,1-2.418,0,1.391,1.391,0,0,1,0-2.266,1.607,1.607,0,0,1,2.418,0A1.532,1.532,0,0,1,31.4,22.146Zm.368-4.3a1.262,1.262,0,0,1-1.689,0c-.465-.439-.769-.86,0-1.582s1.223-.435,1.689,0A1.074,1.074,0,0,1,31.768,17.845Z" fill="#25772f"/>
</svg>
