<svg id="Vitamin_D_Need" data-name="Vitamin D Need" xmlns="http://www.w3.org/2000/svg" width="48" height="48" viewBox="0 0 48 48">
  <circle id="Ellipse_20" data-name="Ellipse 20" cx="24" cy="24" r="24" fill="#ddefe2"/>
  <path id="Path_31" data-name="Path 31" d="M24,12c-6.075,0-11,4.648-11,9.3a9.547,9.547,0,0,0,.181,1.836,2.452,2.452,0,0,0,2.976,1.805,32.1,32.1,0,0,1,3.715-.627,13.035,13.035,0,0,1-.8,2.579A10.7,10.7,0,0,0,18,31a7.227,7.227,0,0,0,.732,3.206,3.993,3.993,0,0,0,.855,1.188A2.09,2.09,0,0,0,21,36h6a2.084,2.084,0,0,0,1.413-.606,4,4,0,0,0,.857-1.188A7.225,7.225,0,0,0,30,31a10.7,10.7,0,0,0-1.073-4.109,13.034,13.034,0,0,1-.8-2.579,32.02,32.02,0,0,1,3.715.627,2.455,2.455,0,0,0,2.978-1.805A9.555,9.555,0,0,0,35,21.3C35,16.648,30.074,12,24,12Zm0,12.091q1.054,0,2.073.055a13.742,13.742,0,0,0,1,3.491A9.352,9.352,0,0,1,28,31a5.5,5.5,0,0,1-.52,2.313,2.275,2.275,0,0,1-.425.613.518.518,0,0,1-.1.074H21.044a.523.523,0,0,1-.1-.074,2.327,2.327,0,0,1-.428-.613A5.537,5.537,0,0,1,20,31a9.344,9.344,0,0,1,.924-3.363,13.649,13.649,0,0,0,1-3.491Q22.948,24.093,24,24.091Z" fill="#25772f"/>
</svg>
