<svg id="Alcohol_Response" data-name="Alcohol Response" xmlns="http://www.w3.org/2000/svg" width="48" height="48" viewBox="0 0 48 48">
  <circle id="Ellipse_21" data-name="Ellipse 21" cx="24" cy="24" r="24" fill="#ddefe2"/>
  <path id="Path_32" data-name="Path 32" d="M18.074,12a5.075,5.075,0,1,0,2.45,9.485l4.47,4.722V33.4l-3.852.756a.152.152,0,0,0-.055.011l-.026,0a.927.927,0,0,0-.677,1.017.917.917,0,0,0,.92.8h4.457a.769.769,0,0,0,.3,0h4.468a.923.923,0,0,0,.241-1.816l-.024,0-.072-.015L26.838,33.4V26.207l8.05-8.5a.922.922,0,0,0,.252-.633v-.462a.922.922,0,0,0-.923-.922h-11.3A5,5,0,0,0,18.074,12Zm0,1.845A3.211,3.211,0,0,1,20.98,15.69H17.612a.922.922,0,0,0-.922.922v.462a.921.921,0,0,0,.252.633l2.241,2.364a3.1,3.1,0,0,1-1.109.232,3.23,3.23,0,0,1,0-6.459Zm1.247,3.69h13.19l-1.748,1.845H23.037l3.4,3.587a.715.715,0,1,1-1.038.984Z" fill="#25772f"/>
</svg>
