<svg width="137" height="145" viewBox="0 0 137 131" fill="none" xmlns="http://www.w3.org/2000/svg">
<circle cx="65.4493" cy="65.6035" r="56.0955" fill="#F1FBF3"/>
<circle cx="65.0397" cy="66.013" r="38.4889" fill="#DFF0E3"/>
<path d="M51.5251 26.891C48.587 26.9936 46.2729 29.0248 46.3568 31.4299C46.5257 36.2655 50.9633 38.5313 51.4469 38.5144C51.4562 38.7809 51.6808 38.9904 51.9473 38.981C52.2138 38.9717 52.4233 38.7471 52.414 38.4806C52.8975 38.4637 57.1669 35.9468 56.9962 31.0584C56.9122 28.6533 54.462 26.7884 51.5251 26.891ZM51.0753 27.875C51.2522 27.8688 51.4166 27.901 51.5624 27.958C51.7038 27.891 51.8644 27.8474 52.0424 27.8412C52.3411 27.8308 52.6089 27.9261 52.7925 28.0807C52.8656 28.0643 52.941 28.0525 53.018 28.0498C53.4407 28.035 53.8038 28.2259 53.9435 28.5051C53.9642 28.5044 53.9836 28.5002 54.002 28.4996C54.5372 28.4809 54.9805 28.7909 54.9944 29.1906C54.9955 29.2227 54.9898 29.2551 54.9851 29.2863C55.2835 29.4001 55.4938 29.6274 55.5033 29.8996C55.5128 30.1718 55.3189 30.4132 55.0291 30.5463C55.036 30.5783 55.044 30.6102 55.0451 30.6424C55.0591 31.0421 54.6386 31.3822 54.1033 31.4009C54.0849 31.4016 54.0653 31.3988 54.0445 31.3972C53.9247 31.6878 53.5758 31.9035 53.1531 31.9183C53.0761 31.9209 53 31.9144 52.926 31.9032C52.7536 32.0702 52.4931 32.1839 52.1944 32.1944C52.0164 32.2006 51.8531 32.1683 51.7074 32.1113C51.566 32.1784 51.4042 32.222 51.2273 32.2281C50.9287 32.2386 50.6609 32.1433 50.4772 31.9887C50.4042 32.005 50.3287 32.0169 50.2518 32.0196C49.8279 32.0344 49.4659 31.8435 49.3261 31.562C49.3044 31.5651 49.2861 31.5691 49.2678 31.5698C48.7325 31.5885 48.2881 31.2785 48.2742 30.8788C48.2731 30.8467 48.28 30.8142 48.2846 30.7819C47.9851 30.6693 47.7748 30.442 47.7653 30.1698C47.7558 29.8976 47.9497 29.6562 48.2406 29.5219C48.2338 29.4911 48.2246 29.4592 48.2235 29.427C48.2095 29.0273 48.6312 28.6871 49.1664 28.6684C49.1848 28.6678 49.2033 28.6706 49.2251 28.6698C49.345 28.3816 49.6928 28.1659 50.1167 28.1511C50.1936 28.1484 50.2698 28.155 50.3437 28.1662C50.5162 27.9992 50.7767 27.8854 51.0753 27.875ZM51.5926 28.8252C50.7909 28.8532 50.1533 29.2009 50.1673 29.6018C50.1813 30.0026 50.8416 30.305 51.6433 30.277C52.4439 30.2491 53.0827 29.9013 53.0687 29.5005C53.0547 29.0996 52.3932 28.7973 51.5926 28.8252Z" fill="#96C09F"/>
<path d="M120.588 63.0532C120.516 63.2655 120.563 63.4996 120.713 63.6651C120.815 63.7972 121.01 64.1708 121.254 64.6574C121.505 65.1545 121.828 65.7727 122.292 66.4207C123.217 67.7199 124.713 69.1428 127.243 70.0633C127.45 70.1404 127.685 70.1028 127.857 69.9609C128.028 69.8172 128.109 69.5954 128.07 69.3755C128.03 69.1564 127.874 68.9764 127.665 68.902C125.37 68.0667 124.112 66.8442 123.297 65.7038C122.958 65.2262 122.707 64.7713 122.489 64.3503C122.733 64.3987 123.1 64.4463 123.522 64.4518C126.726 64.9048 129.686 64.2882 129.686 64.2882C129.909 64.2507 130.096 64.0958 130.172 63.8831C130.247 63.6686 130.201 63.4318 130.049 63.2625C129.897 63.0951 129.663 63.0224 129.444 63.0767C129.444 63.0767 128.172 63.3142 126.469 63.3558C127.253 62.6194 127.631 61.7602 127.655 61.7126C127.66 61.6988 127.663 61.6892 127.667 61.6782C127.724 61.5239 127.715 61.3539 127.646 61.2055C127.572 61.0477 127.433 60.9251 127.264 60.8746C127.195 60.8542 125.518 60.3622 124.011 61.0649C123.034 61.5205 122.403 62.3454 122.068 62.8928C121.852 62.8331 121.641 62.7657 121.432 62.6927C121.248 62.6084 121.03 62.6182 120.856 62.7247C120.839 62.7359 120.822 62.7451 120.804 62.759C120.787 62.7716 120.772 62.7832 120.758 62.7981C120.746 62.8094 120.73 62.8224 120.718 62.8337C120.716 62.8406 120.713 62.8442 120.707 62.8501C120.696 62.8613 120.686 62.875 120.676 62.89C120.665 62.9032 120.654 62.9196 120.645 62.9351C120.641 62.9429 120.634 62.9543 120.63 62.9653C120.626 62.967 120.625 62.9684 120.624 62.9712C120.623 62.9739 120.623 62.9739 120.623 62.9739C120.615 62.9913 120.606 63.0082 120.6 63.0261C120.599 63.0289 120.599 63.0289 120.599 63.0289C120.596 63.0372 120.593 63.044 120.588 63.0532ZM128.191 71.0655C127.811 72.1097 128.855 73.2771 129.878 73.6497C131.48 74.2328 133.251 73.4061 133.834 71.804C134.416 70.2032 133.592 68.4319 131.989 67.8487C130.966 67.4762 129.416 67.7001 129.036 68.7443C128.908 69.0955 129.105 69.4728 128.909 70.0115C128.712 70.5515 128.316 70.7225 128.191 71.0655ZM130.303 65.2645C130.156 65.6682 130.225 66.0911 130.421 66.4777C131.087 66.3892 131.786 66.4612 132.412 66.6888C133.087 66.9345 133.66 67.3337 134.113 67.8293C134.933 67.5238 135.622 66.8902 135.945 66.0044C136.528 64.4023 135.702 62.6323 134.1 62.0492C133.077 61.6766 131.527 61.9005 131.147 62.9447C131.019 63.296 131.216 63.6719 131.02 64.2119C130.824 64.7505 130.427 64.9229 130.303 65.2645Z" fill="#96C09F"/>
<path d="M42.4244 81.3525C42.3068 81.1572 42.12 81.0161 41.8999 80.9541L36.4549 79.4951C36.3427 79.4665 36.228 79.4586 36.1118 79.473C36.1118 79.473 33.6032 79.7916 31.0481 79.1055C28.4913 78.4204 26.2898 76.8336 26.2898 76.8336C26.2016 76.772 26.105 76.7249 25.9992 76.695L20.1738 75.1326C19.7076 75.0092 19.2265 75.2869 19.1021 75.7513C17.3723 82.2071 21.2163 88.8651 27.6731 90.5968C34.1308 92.3256 40.7888 88.4816 42.5186 82.0257C42.5793 81.7992 42.5451 81.5533 42.4244 81.3525ZM40.4369 82.3708C38.6137 87.3798 33.3721 90.3151 28.1261 88.9064C22.8786 87.5033 19.8058 82.3387 20.7324 77.091L25.0742 78.2559C24.4618 81.204 26.2425 84.1514 29.189 84.9394C32.1281 85.727 35.1453 84.0712 36.0885 81.2193C36.096 81.2198 36.1227 81.2163 36.1255 81.2171L40.4369 82.3708ZM33.5647 81.719C33.686 81.9291 33.6164 82.1942 33.4064 82.3154C33.1964 82.4367 32.9302 82.3654 32.809 82.1554C32.6887 81.9471 32.7601 81.681 32.9701 81.5597C33.1801 81.4384 33.4445 81.5108 33.5647 81.719ZM32.0532 82.5917C32.1745 82.8017 32.105 83.0668 31.8949 83.1881C31.6849 83.3093 31.4187 83.238 31.2975 83.028C31.1773 82.8198 31.2486 82.5536 31.4586 82.4324C31.6686 82.3111 31.933 82.3834 32.0532 82.5917ZM30.1054 82.7086C30.2267 82.9186 30.1554 83.1848 29.9471 83.305C29.7371 83.4263 29.4709 83.3549 29.3497 83.1449C29.2295 82.9367 29.3008 82.6705 29.5108 82.5493C29.719 82.429 29.9852 82.5004 30.1054 82.7086ZM27.6044 80.122C27.7256 80.332 27.6543 80.5982 27.4461 80.7184C27.2361 80.8396 26.9699 80.7683 26.8487 80.5583C26.7274 80.3483 26.7997 80.0839 27.0098 79.9626C27.218 79.8424 27.4831 79.9119 27.6044 80.122ZM28.477 81.6334C28.5983 81.8435 28.527 82.1096 28.3187 82.2299C28.1087 82.3511 27.8426 82.2798 27.7213 82.0698C27.6 81.8597 27.6724 81.5954 27.8824 81.4741C28.0907 81.3539 28.3558 81.4234 28.477 81.6334Z" fill="#96C09F"/>
<path d="M75.7284 43.9094C73.6978 44.1701 68.6485 45.4227 68.3179 51.4717C68.2984 51.8179 68.6446 52.1175 69.0414 52.0902C75.0944 51.6934 76.2691 46.4808 76.5064 44.5552C76.5531 44.1701 76.168 43.8511 75.7284 43.9094ZM60.1099 45.5277C59.3863 45.5277 58.7444 45.9984 58.5422 46.6986C58.3282 47.3949 58.6122 48.1418 59.219 48.5386C59.219 48.5386 62.5061 50.6976 63.2491 55.1751C61.6309 54.3037 59.8259 53.7279 57.8303 53.7279C50.9643 53.7279 45.386 59.4502 45.386 66.3979C45.386 72.3652 48.1907 77.7101 51.4778 81.5885C53.1155 83.5258 54.8894 85.1129 56.5777 86.2372C58.266 87.3692 59.8064 88.1238 61.4403 88.1238C62.7784 88.1238 63.7354 87.5637 64.5601 87.0969C64.8363 86.9412 64.8324 86.9218 65.0424 86.7895C65.2525 86.9218 65.2447 86.9412 65.5209 87.0969C66.3456 87.5637 67.3065 88.1238 68.6446 88.1238C70.1462 88.1238 71.71 87.5364 73.41 86.5561C75.1138 85.5797 76.911 84.1599 78.5721 82.316C81.902 78.6321 84.695 73.2132 84.695 66.3979C84.695 59.4502 79.1167 53.7279 72.2507 53.7279C70.1462 53.7279 68.2517 54.362 66.5635 55.3151C65.8049 49.0599 61.0357 45.8156 61.0357 45.8156C60.7595 45.6289 60.4405 45.5277 60.1099 45.5277ZM72.2507 57.0034C77.3 57.0034 81.4196 61.1891 81.4196 66.3979C81.4196 72.3224 79.0233 76.9399 76.1486 80.1142C74.7092 81.7091 73.1532 82.9228 71.7722 83.7242C70.3952 84.5177 69.1503 84.8484 68.6446 84.8484C68.598 84.8484 67.7616 84.5955 67.1275 84.2416C66.4934 83.8914 66.015 83.5336 66.015 83.5336L65.0424 82.81V60.3722L66.1161 59.4308C67.8044 57.9525 69.9245 57.0034 72.2507 57.0034ZM69.9556 66.8335C69.8194 66.8335 69.695 66.8958 69.586 67.0242C69.0609 67.666 68.3179 68.8214 68.3179 70.109C68.3179 71.3927 69.0609 72.5519 69.586 73.1938C69.7961 73.4466 70.1151 73.4466 70.3251 73.1938C70.7492 72.6803 71.5933 71.5211 71.5933 70.109C71.5933 68.693 70.8503 67.666 70.3251 67.0242C70.2162 66.8958 70.0878 66.8335 69.9556 66.8335Z" fill="#25772F"/>
<path d="M35.8371 8.68452C34.7505 8.87614 34.8419 10.1678 33.5258 10.3999C32.9421 10.5028 32.5327 10.7681 32.2382 11.0623C32.1081 11.1723 31.9792 11.3105 31.8574 11.4569C32.5807 11.7703 33.2285 12.3848 33.6787 13.2423C33.6787 13.2423 33.6787 13.2423 33.6806 13.2419C34.4547 13.6392 35.2111 14.2364 35.5072 15.916C35.5454 16.1326 35.5793 16.2174 35.5757 16.2181C35.5998 16.2479 35.6252 16.2737 35.6527 16.301C36.1221 16.8163 36.571 17.4299 36.8953 19.2692C36.9614 19.6437 37.1831 19.8601 37.8501 20.4333C37.8683 20.4509 37.8881 20.4663 37.906 20.4821L37.9427 20.4113C38.3719 19.6467 38.5063 19.3675 38.4409 18.9967C38.1166 17.1574 38.3267 16.4276 38.5952 15.7822C38.6081 15.7477 38.6249 15.7145 38.6315 15.6982C38.6309 15.6945 38.6405 15.6095 38.5984 15.3709C38.3023 13.6913 38.8088 12.8714 39.3992 12.2374C39.4028 12.2367 39.4022 12.2331 39.4022 12.2331C39.5266 11.3178 39.8966 10.5503 40.4297 10.0097C40.3263 9.93895 40.1898 9.85136 39.9754 9.74152C39.5307 9.53793 38.9757 9.43895 38.3113 9.55612C37.4797 9.70274 37.0486 8.4709 35.8371 8.68452ZM30.5743 12.7998C29.1646 13.0484 29.3829 14.5013 28.8983 15.3381C28.6357 15.7914 27.6428 16.5153 27.9137 18.0517C28.1028 19.1237 28.909 19.6818 29.3009 20.1976C30.2451 21.4411 29.4319 22.3038 31.2641 23.3131C32.8387 24.1068 32.672 25.0503 33.8642 25.5215C34.6307 25.833 35.7577 25.4942 36.5807 25.9112C36.4919 24.1837 36.7941 22.9134 37.1842 21.938C36.3171 21.1635 35.5462 20.6559 35.3497 19.5417C34.8665 16.8012 34.2559 17.8571 33.9617 16.1885C33.6348 14.3345 32.7598 14.9431 32.3345 14.066C31.907 13.1875 31.1966 12.6901 30.5743 12.7998ZM42.168 10.7555C41.5458 10.8652 41.0483 11.5756 40.949 12.5471C40.8456 13.5173 39.8171 13.2444 40.144 15.0984C40.4382 16.7669 39.5033 15.9836 39.9865 18.7241C40.4111 21.1325 37.3394 21.7877 38.324 27.3716L40.6424 26.9628C40.1857 24.3727 42.4729 24.6887 43.4277 23.8352C44.3868 22.9847 43.9074 22.155 45.1175 20.8704C46.4903 19.2959 45.4311 18.7634 45.8948 17.2716C46.0867 16.653 46.6516 15.8531 46.4626 14.7811C46.1917 13.2446 45.0111 12.9039 44.6075 12.5682C43.8696 11.9469 43.5778 10.5069 42.168 10.7555Z" fill="#96C09F"/>
<path d="M21.3512 50.4325C21.295 50.7038 21.4081 50.9832 21.6362 51.1423C21.6362 51.1423 22.4378 51.7506 23.4383 52.1614C23.111 52.8218 22.8937 53.6271 22.7921 54.0795C22.7548 54.2437 22.9129 54.382 23.0724 54.3315C23.2706 54.271 23.53 54.1761 23.7971 54.0475C23.806 54.6901 23.8181 55.2765 23.8269 55.663C23.8313 55.8847 24.0778 56.0152 24.2649 55.8942C24.7363 55.594 25.4486 54.9999 25.6069 54.1021C25.6659 53.7677 25.6645 53.4243 25.6142 53.0924C26.1965 52.9607 26.7488 52.7334 27.1196 52.5577C27.3592 52.4426 27.4156 52.1228 27.2298 51.9327C26.9418 51.6392 26.5005 51.2367 26.0011 50.9176C26.158 50.6256 26.2756 50.3099 26.3334 49.982C26.492 49.0826 26.0261 48.279 25.6861 47.8341C25.5514 47.658 25.2746 47.6996 25.1946 47.9064C25.0544 48.265 24.8427 48.8102 24.6143 49.4127C24.4076 49.1988 24.1963 49.0209 24.0308 48.8964C23.8979 48.7959 23.702 48.8719 23.6809 49.0389C23.631 49.4167 23.5796 50.0504 23.609 50.6716C22.994 50.3623 22.4414 50.0121 22.4414 50.0121C22.2487 49.871 22.0018 49.8375 21.7793 49.9221C21.5612 50.0109 21.3973 50.1996 21.3512 50.4325ZM26.9137 47.1751C27.5962 48.1458 27.8789 49.22 27.702 50.2233C27.6896 50.2931 27.6738 50.3639 27.6582 50.4332C27.8803 50.6263 28.0697 50.8053 28.2184 50.9588C28.62 51.3677 28.7985 51.9499 28.6992 52.5132C28.5999 53.0765 28.233 53.5625 27.7157 53.8095C27.5235 53.9028 27.2827 54.0059 27.0096 54.1118C26.9997 54.187 26.9892 54.2655 26.9755 54.3434C26.7988 55.3451 26.1697 56.2552 25.2012 56.9348C25.9923 59.103 28.0401 60.8551 30.6782 61.3202C34.4542 61.986 37.9981 59.772 38.5975 56.3726C38.7246 55.6519 38.4787 54.7398 38.5646 54.2527C38.6502 53.7673 39.1935 52.9927 39.3206 52.2719C39.92 48.8726 37.3467 45.5816 33.5707 44.9158C30.9278 44.4498 28.4004 45.3985 26.9137 47.1751Z" fill="#96C09F"/>
<path d="M96.814 34.7243C92.9851 32.5137 87.8647 34.527 85.3074 38.9564C82.751 43.3842 83.5676 48.8253 87.3965 51.0359C92.1585 53.7852 97.8274 53.0549 100.786 49.5414C101.398 49.6024 101.991 49.299 102.299 48.7663C102.607 48.232 102.574 47.5653 102.215 47.0652C103.778 42.7482 101.576 37.4736 96.814 34.7243ZM96.0293 36.0835C98.9575 37.7741 99.7521 42.1909 97.5415 46.0198C95.3309 49.8487 91.1094 51.3673 88.1813 49.6767C85.2531 47.9861 84.4559 43.57 86.6665 39.7411C88.8772 35.9122 93.1011 34.3929 96.0293 36.0835ZM95.2446 37.4426C94.7442 37.1537 94.1921 37.0028 93.6214 36.9661C93.4125 36.9552 93.2351 37.1283 93.2233 37.3388L93.0525 40.1845C93.0233 40.6713 93.5592 40.9807 93.9661 40.712L96.3452 39.1413C96.5216 39.0258 96.5828 38.7856 96.4673 38.6091C96.1517 38.1342 95.7434 37.7306 95.2446 37.4426ZM91.4355 37.5873C91.3221 37.5153 91.1737 37.4964 91.0384 37.5668C90.197 38.0065 89.3969 38.6616 88.7197 39.5103C88.5741 39.6953 88.6344 39.9711 88.8378 40.0886L90.5714 41.0895C90.9508 41.3085 91.4298 41.0492 91.4542 40.6155L91.6138 37.942C91.6246 37.789 91.5473 37.6583 91.4355 37.5873ZM97.0223 40.8128C96.9049 40.7515 96.7546 40.7508 96.6259 40.8358L94.3904 42.3108C94.0271 42.5487 94.042 43.0932 94.4213 43.3122L96.1518 44.3113C96.36 44.4315 96.629 44.3458 96.7132 44.1254C97.1144 43.1173 97.2801 42.0959 97.2402 41.1474C97.2319 40.9941 97.1413 40.8751 97.0223 40.8128ZM88.0531 41.4477C87.8497 41.3303 87.5806 41.416 87.4932 41.6346C87.0945 42.642 86.9295 43.6659 86.9704 44.6128C86.9829 44.9192 87.3266 45.0918 87.5821 44.9251L89.8176 43.4501C90.1819 43.2106 90.1661 42.6677 89.7867 42.4487L88.0531 41.4477ZM93.6366 44.6714C93.2573 44.4524 92.7792 44.7101 92.7539 45.1453L92.5942 47.8189C92.5776 48.1235 92.899 48.3348 93.1722 48.1934C94.0127 47.7553 94.8121 47.0977 95.4868 46.2497C95.6355 46.0665 95.5753 45.7907 95.367 45.6705L93.6366 44.6714ZM90.8634 45.031C90.6827 44.9267 90.4446 44.914 90.2445 45.0482L87.8645 46.6206C87.689 46.7344 87.6278 46.9746 87.7417 47.1501C88.0579 47.6276 88.4656 48.0287 88.966 48.3176C89.4648 48.6055 90.0176 48.759 90.5875 48.7932C90.7981 48.805 90.9755 48.6319 90.9864 48.423L91.1581 45.5757C91.1726 45.3344 91.0442 45.1354 90.8634 45.031Z" fill="#96C09F"/>
<path d="M15.479 65.2265C15.4337 65.1023 15.3428 64.9947 15.2125 64.932C14.9553 64.8053 14.6434 64.9148 14.5131 65.1693C14.503 65.1889 14.2556 65.6652 13.5055 65.9382L13.8646 66.9251C15.0226 66.5036 15.42 65.7099 15.4617 65.6204C15.5228 65.4893 15.5237 65.3496 15.479 65.2265ZM13.5055 65.9382L12.9667 64.4579C12.1058 62.0928 9.3059 60.7599 6.4145 61.8123C2.38036 63.2806 2.29209 66.404 2.23409 68.4691C2.21922 68.9935 2.20476 69.4461 2.13495 69.7794C2.11399 69.8786 2.12222 69.9778 2.1555 70.0693C2.1973 70.1841 2.27938 70.2856 2.39395 70.3488C2.73052 70.5369 3.10052 70.9517 3.53084 71.4375C4.82214 72.8921 6.77539 75.0933 10.7251 73.6557C13.5591 72.6242 14.8191 70.0286 14.1262 67.6873C13.671 66.4367 11.2775 64.5139 8.34509 65.5813C6.9574 66.0863 6.2767 66.8199 6.26903 66.828C6.07729 67.0451 5.7444 67.0641 5.5292 66.8703C5.4613 66.8114 5.41312 66.7373 5.38453 66.6588C5.32055 66.483 5.35128 66.2794 5.48689 66.1305C5.51938 66.0921 6.3294 65.196 7.98548 64.5932C11.9341 63.1561 13.5055 65.9382 13.5055 65.9382Z" fill="#96C09F"/>
<path d="M74.6112 4.64288C73.4781 5.05532 72.6942 5.92275 71.9717 6.83773C71.252 7.74647 70.5839 8.73995 69.8372 9.58868C68.9026 10.6533 66.0491 13.7461 64.3504 15.6115C62.4774 17.6592 60.4376 21.5374 62.0981 26.0997C62.4457 27.0547 63.4243 28.7838 65.2792 30.1837C67.132 31.592 69.9391 32.4875 73.3043 31.2627C76.9733 29.9272 78.9788 27.3267 79.8017 25.5499C80.621 23.7847 80.8358 21.6807 80.8355 19.135L80.8338 19.1304C80.8326 17.7907 81.1261 15.2208 81.5326 13.7999C82.0864 11.8597 82.3584 9.93415 81.709 8.14989C81.3972 7.29316 80.9705 6.59724 80.4822 6.0376C80.4671 6.01725 80.4596 5.99669 80.4421 5.97717L80.4315 5.98361C79.7826 5.25993 79.0187 4.77473 78.2437 4.52903C76.8666 4.09365 75.5479 4.30196 74.6112 4.64288ZM75.3114 6.56651C75.8871 6.35697 76.8095 6.22563 77.6271 6.4817C78.0407 6.61576 78.4473 6.83 78.8246 7.21271L78.8186 7.21749C79.1777 7.69221 79.2166 8.04801 79.1795 8.43665C79.1416 8.82301 78.9862 9.21334 78.839 9.56961C78.8463 9.55403 78.6316 10.0021 78.3749 10.5406C78.1195 11.0759 77.7982 11.7854 77.4703 12.5904C76.8204 14.1956 76.1505 16.1651 76.0266 18.0212L76.0193 18.1222L76.032 18.221C76.0801 18.602 76.0057 19.7623 75.6779 21.051C75.3478 22.3406 74.7876 23.8226 73.9979 25.1216C73.2044 26.4246 72.1772 27.5333 70.9404 28.1801C69.7591 28.8015 68.375 29.0362 66.5881 28.6051C66.5669 28.5895 66.5404 28.5733 66.516 28.5563C65.0765 27.4658 64.1706 25.8085 64.0217 25.3996C62.6722 21.6917 64.3436 18.6565 65.8631 16.9884C67.5538 15.1363 70.3811 12.0711 71.3732 10.9442C72.2407 9.95832 72.9323 8.92267 73.5754 8.10908C74.2221 7.29154 74.8133 6.74778 75.3114 6.56651ZM72.3231 15.2813C68.5832 16.6425 65.6474 20.8882 67.4269 25.7772C70.5156 24.653 74.421 21.0454 72.3231 15.2813Z" fill="#96C09F"/>
<path d="M14.5649 28.6017C14.4052 28.6598 14.2728 28.7896 14.2221 28.9724C14.1366 29.28 14.085 29.695 14.1461 30.1709C13.4378 29.807 12.5968 29.9258 12.1634 30.03C12.0076 30.0676 11.9252 30.2403 11.9969 30.3849C12.1499 30.6898 12.4435 31.1639 12.8659 31.3618L17.6384 29.6248C17.8359 29.2013 17.7571 28.6489 17.6773 28.3174C17.6393 28.1605 17.4663 28.0808 17.3205 28.153C16.9226 28.3513 16.202 28.8009 15.8933 29.535C15.6353 29.1307 15.328 28.8463 15.0659 28.6653C14.9095 28.5578 14.7236 28.544 14.5649 28.6017ZM14.5818 31.396C14.3685 31.7514 14.0208 32.0143 13.7159 32.1252C13.2164 32.307 12.817 32.3861 12.5043 32.4159C12.0134 32.7334 11.744 32.9525 11.744 32.9525C11.0678 33.4751 10.7689 34.3865 11.0769 35.2326C12.2836 38.5481 17.8348 40.834 17.8348 40.834C18.1982 41.0202 18.6312 41.0652 19.0463 40.9141C19.4603 40.7634 19.7642 40.4502 19.9217 40.0744C19.9217 40.0744 22.7048 34.755 21.4981 31.4396C21.1902 30.5935 20.3753 30.0874 19.5203 30.1222C19.5203 30.1222 19.1765 30.1263 18.5975 30.1981C18.3354 30.3776 17.9798 30.5733 17.4791 30.7555C17.1742 30.8665 16.7378 30.889 16.347 30.7535C16.4276 31.3319 16.3078 31.815 16.1885 32.1312C16.097 32.3734 15.8157 32.4758 15.5888 32.3494C15.295 32.1862 14.8919 31.8909 14.5818 31.396ZM13.3108 34.0016C13.3108 34.0016 13.9972 34.4105 14.0922 34.6715C14.1872 34.9325 14.0509 35.2229 13.7898 35.3179C13.53 35.4125 13.2388 35.2777 13.1438 35.0167C13.0488 34.7556 13.3108 34.0016 13.3108 34.0016ZM16.1537 32.9668C16.1537 32.9668 16.8391 33.3761 16.9341 33.6371C17.0291 33.8981 16.8938 34.1881 16.6328 34.2831C16.3718 34.3781 16.0818 34.2429 15.9868 33.9819C15.8918 33.7209 16.1537 32.9668 16.1537 32.9668ZM18.9956 31.9325C18.9956 31.9325 19.6809 32.3418 19.7759 32.6028C19.8709 32.8638 19.7357 33.1538 19.4747 33.2488C19.2137 33.3438 18.9236 33.2086 18.8286 32.9475C18.7336 32.6865 18.9956 31.9325 18.9956 31.9325ZM15.5952 35.8534C15.5952 35.8534 16.2801 36.2615 16.3751 36.5225C16.4701 36.7835 16.3349 37.0735 16.0738 37.1685C15.8128 37.2635 15.5228 37.1283 15.4278 36.8673C15.3328 36.6063 15.5952 35.8534 15.5952 35.8534ZM18.437 34.819C18.437 34.819 19.1219 35.2271 19.2169 35.4881C19.3119 35.7492 19.1767 36.0392 18.9157 36.1342C18.6547 36.2292 18.3647 36.0939 18.2697 35.8329C18.1747 35.5719 18.437 34.819 18.437 34.819ZM17.878 37.7044C17.878 37.7044 18.563 38.1125 18.658 38.3735C18.753 38.6345 18.6177 38.9246 18.3567 39.0196C18.0957 39.1146 17.8057 38.9793 17.7107 38.7183C17.6157 38.4573 17.878 37.7044 17.878 37.7044Z" fill="#96C09F"/>
<path d="M83.51 93.2985C83.1435 93.4636 82.8939 93.8105 82.8569 94.2128C82.8223 94.6141 83.0022 94.9999 83.3307 95.2289C83.6627 95.4591 84.0889 95.4909 84.4509 95.3162C85.0739 95.0257 85.5858 95.1663 86.0803 95.4258C86.2868 95.5308 86.4351 95.6425 86.5718 95.748C86.4574 96.9479 86.8755 97.882 86.8755 97.882C87.0394 98.246 87.39 98.491 87.7877 98.5244C88.1889 98.559 88.5795 98.3768 88.805 98.047C89.0318 97.7138 89.0635 97.2876 88.8854 96.9243C88.8854 96.9243 88.6809 96.4858 88.7825 95.8403C88.8795 95.1912 89.2138 94.3439 90.9864 93.4969C91.3482 93.3282 91.5943 92.98 91.6242 92.581C91.6588 92.1798 91.473 91.7938 91.1432 91.5683C90.8134 91.3428 90.3849 91.3122 90.0216 91.4904C88.7787 92.0845 87.9336 92.8374 87.3801 93.6148C87.2929 93.5592 87.2129 93.5003 87.1102 93.4489C86.2366 92.9957 84.8807 92.6594 83.51 93.2985ZM80.7475 103.184C79.6332 103.704 79.1511 105.029 79.6718 106.145C80.1914 107.26 81.5161 107.742 82.6304 107.222C83.7471 106.701 84.2292 105.377 83.7096 104.262C83.1889 103.146 81.8642 102.664 80.7475 103.184ZM86.803 100.361C85.6864 100.881 85.2066 102.205 85.7273 103.321C86.2469 104.436 87.5692 104.919 88.6859 104.398C89.8002 103.879 90.2823 102.554 89.7627 101.44C89.242 100.323 87.9173 99.8409 86.803 100.361ZM92.8562 97.5379C91.7419 98.0575 91.2597 99.3822 91.7804 100.499C92.3001 101.613 93.6247 102.095 94.739 101.576C95.8557 101.055 96.3355 99.7314 95.8159 98.6171C95.2951 97.5004 93.9729 97.0172 92.8562 97.5379ZM79.6038 108.633C78.4895 109.153 78.0063 110.475 78.527 111.592C79.0466 112.706 80.3713 113.188 81.4856 112.669C82.6023 112.148 83.082 110.825 82.5624 109.71C82.0417 108.594 80.7205 108.113 79.6038 108.633ZM85.6593 105.81C84.5427 106.33 84.0618 107.652 84.5825 108.768C85.1021 109.883 86.4244 110.366 87.5411 109.845C88.6554 109.325 89.1375 108.001 88.6179 106.886C88.0972 105.77 86.7736 105.29 85.6593 105.81ZM91.7125 102.987C90.5958 103.508 90.1149 104.829 90.6356 105.946C91.1552 107.06 92.4775 107.543 93.5942 107.022C94.7085 106.503 95.1907 105.178 94.671 104.064C94.1503 102.947 92.8268 102.467 91.7125 102.987ZM97.7656 100.164C96.6513 100.684 96.168 102.006 96.6888 103.123C97.2084 104.237 98.533 104.719 99.6473 104.2C100.764 103.679 101.244 102.356 100.724 101.241C100.203 100.125 98.8823 99.6437 97.7656 100.164ZM84.5121 111.257C83.3978 111.777 82.9146 113.099 83.4353 114.216C83.9549 115.33 85.2796 115.812 86.3939 115.293C87.5106 114.772 87.9927 113.447 87.4731 112.333C86.9524 111.217 85.6288 110.737 84.5121 111.257ZM90.5677 108.434C89.451 108.954 88.9701 110.276 89.4908 111.392C90.0104 112.507 91.3327 112.99 92.4494 112.469C93.5637 111.95 94.0458 110.625 93.5262 109.511C93.0055 108.394 91.6819 107.914 90.5677 108.434ZM96.6208 105.611C95.5065 106.131 95.0232 107.453 95.5439 108.57C96.0635 109.684 97.3882 110.166 98.5025 109.647C99.6192 109.126 100.099 107.802 99.5794 106.688C99.0586 105.571 97.7375 105.09 96.6208 105.611ZM89.4228 113.88C88.3061 114.401 87.8264 115.725 88.346 116.839C88.8667 117.956 90.1879 118.437 91.3046 117.916C92.4189 117.396 92.9021 116.074 92.3814 114.957C91.8618 113.843 90.5371 113.361 89.4228 113.88ZM95.476 111.058C94.3593 111.579 93.8795 112.902 94.3991 114.016C94.9198 115.133 96.241 115.614 97.3577 115.093C98.472 114.574 98.9553 113.251 98.4345 112.135C97.9149 111.02 96.5903 110.538 95.476 111.058ZM94.3311 116.505C93.2145 117.025 92.7347 118.349 93.2543 119.463C93.775 120.58 95.0962 121.061 96.2129 120.54C97.3272 120.02 97.8104 118.698 97.2897 117.581C96.7701 116.467 95.4454 115.985 94.3311 116.505Z" fill="#96C09F"/>
<path d="M124.747 40.0266C122.748 37.6446 119.305 37.2424 117.482 38.7723C117.236 38.9786 117.016 39.2061 116.822 39.4471C116.403 39.9679 116.524 40.7741 117.093 41.2078C117.582 41.575 118.075 41.9943 118.561 42.4579C118.153 42.694 117.729 42.8484 117.288 42.9945C116.64 43.2062 115.941 43.4056 115.323 43.9245C114.862 44.3112 114.511 44.7896 114.306 45.2661C114.201 45.5054 114.134 45.7455 114.122 45.9921C114.11 46.2403 114.16 46.5191 114.35 46.7463L116.324 49.0985C116.514 49.3248 116.781 49.4232 117.026 49.4534C117.272 49.4852 117.519 49.4602 117.774 49.3988C118.279 49.2799 118.81 49.0166 119.271 48.6299C119.889 48.111 120.208 47.4581 120.529 46.8572C120.749 46.4475 120.975 46.0575 121.278 45.6957C121.651 46.2555 121.977 46.813 122.254 47.3584C122.582 47.9928 123.356 48.2538 123.941 47.9323C124.213 47.7826 124.474 47.6044 124.72 47.3981C126.543 45.8682 126.745 42.4077 124.747 40.0266ZM120.006 44.0046C120.238 44.2802 120.457 44.5575 120.667 44.8355C120.192 45.347 119.886 45.8923 119.627 46.3762C119.298 46.9885 119.034 47.4926 118.613 47.8458C118.281 48.1247 117.864 48.3238 117.535 48.4029C117.372 48.4413 117.233 48.4481 117.155 48.4378C117.117 48.4328 117.101 48.4262 117.094 48.4239L115.148 46.1051C115.147 46.0981 115.144 46.0806 115.145 46.0427C115.149 45.9637 115.18 45.8283 115.245 45.6735C115.381 45.3644 115.649 44.9884 115.982 44.7095C116.402 44.3563 116.944 44.1828 117.604 43.9653C118.126 43.7943 118.716 43.5889 119.302 43.2087C119.54 43.4642 119.775 43.729 120.006 44.0046Z" fill="#96C09F"/>
<path d="M54.0608 93.3924C53.7943 93.4035 53.5405 93.5621 53.4675 93.8317C53.3867 94.1394 53.2233 94.528 52.9013 94.8484C51.2914 94.3472 50.2128 94.5693 49.6307 94.804C49.3849 94.904 49.3531 95.2434 49.5863 95.375C50.3968 95.8382 51.4024 96.2157 51.4024 96.2157C51.4024 96.2157 50.9139 96.8311 51.0265 97.9382C51.0519 98.1936 51.2977 98.3712 51.5483 98.3205C52.6983 98.081 53.0821 97.5353 53.0821 97.5353C53.0821 97.5353 53.504 98.0445 54.2447 98.7281C54.443 98.9073 54.7698 98.79 54.7951 98.5219C54.8966 97.4862 54.738 96.4409 54.0576 95.5733C54.3574 95.2037 54.5873 94.7152 54.7206 94.2901C54.8348 93.938 54.673 93.5605 54.3256 93.4352C54.24 93.4003 54.148 93.3908 54.0608 93.3924ZM49.3357 96.5646C48.0906 97.5147 47.0406 99.61 42.3853 101.22C40.5517 101.869 38.7959 102.843 38.7959 105.744C38.7959 107.764 40.4375 109.415 42.4979 109.415C47.8828 109.415 53.3343 102.961 53.4802 99.6068C53.4723 99.5989 53.4628 99.5941 53.4549 99.5862C53.2566 99.4038 53.0821 99.2341 52.9283 99.0802C52.6221 99.2293 52.2446 99.3673 51.7878 99.4641C51.6816 99.4847 51.5705 99.4942 51.4611 99.4942C50.6347 99.4942 49.9479 98.8772 49.8655 98.0572C49.8179 97.6004 49.8464 97.1959 49.9115 96.8517C49.7275 96.7661 49.5308 96.6693 49.3357 96.5646Z" fill="#96C09F"/>
<path d="M105.472 62.7374C104.504 62.7374 103.636 62.9549 102.91 63.3596C102.919 63.3418 102.926 63.3239 102.939 63.3061C102.206 63.6502 101.507 64.1512 100.851 64.8055C99.1126 66.5474 98.0072 69.0274 97.8253 71.6108C97.6274 74.3172 98.4493 76.7313 100.132 78.4179C101.639 79.9244 103.789 80.7535 106.185 80.7535C109.006 80.7535 111.83 79.6106 113.745 77.6958C114.103 77.341 114.656 76.6813 115.096 75.7935C116.633 73.2707 115.613 69.1415 112.509 66.0393C110.443 63.9729 107.81 62.7374 105.472 62.7374ZM105.472 64.2386C107.423 64.2386 109.657 65.3101 111.448 67.1019C114.267 69.9188 115.169 73.7752 113.426 75.5225C112.659 76.2873 111.384 76.5601 109.965 76.3141C109.53 76.2392 109.082 76.3176 108.692 76.5227L106.082 77.9044C105.798 78.0542 105.49 77.7511 105.631 77.464L106.414 75.8755C106.649 75.3941 106.51 74.8218 106.087 74.4937C105.709 74.2031 105.346 73.8858 105.007 73.5435C103.545 72.0833 102.566 70.345 102.247 68.6494C101.969 67.1589 102.243 65.9073 103.026 65.1247C103.607 64.5434 104.452 64.2386 105.472 64.2386ZM105.772 66.0981C105.363 66.0981 104.8 66.1748 104.436 66.5349C104.021 66.9539 103.901 67.7526 104.108 68.7279C104.376 69.9652 105.139 71.2863 106.203 72.3471C107.56 73.7075 109.275 74.549 110.684 74.549C111.088 74.549 111.652 74.4723 112.014 74.1122C112.434 73.6932 112.55 72.8927 112.343 71.9192C112.076 70.6819 111.316 69.3626 110.252 68.2982C108.894 66.9396 107.177 66.0981 105.772 66.0981Z" fill="#96C09F"/>
<path d="M58.778 127.011C58.9099 127.088 59.0667 127.04 59.2173 126.907C60.1267 126.107 60.6241 125.355 60.8888 124.691C60.9639 124.881 61.0508 125.053 61.1397 125.202C61.6894 126.112 62.696 126.853 63.7043 127.09C63.8372 127.121 63.9746 127.099 64.0794 127.032C64.1831 126.964 64.25 126.853 64.2586 126.729C64.4005 125.022 63.6026 123.368 62.3269 122.597C63.173 122.416 63.8068 122.191 64.2233 122.021C64.576 122.584 65.1365 123.006 65.8219 123.225C66.7984 123.534 67.9406 123.409 68.9543 122.878C70.8201 121.908 71.6853 119.858 70.8832 118.312C70.6427 117.848 70.2706 117.467 69.8048 117.198C69.611 117.086 69.3996 116.991 69.1764 116.923C68.1999 116.614 67.0555 116.737 66.0423 117.267C64.5091 118.064 63.6539 119.59 63.8433 120.967C62.7961 121.409 59.5321 122.517 55.9772 120.869C55.7021 120.741 55.3756 120.853 55.2406 121.124C55.1022 121.394 55.2053 121.724 55.4703 121.869C55.4819 121.876 55.4934 121.882 55.5051 121.886C56.7048 122.442 57.8787 122.712 58.9675 122.81C58.7598 123 58.558 123.232 58.3729 123.553C57.7105 124.7 58.0484 125.987 58.6535 126.888C58.6912 126.945 58.733 126.985 58.778 127.011ZM59.4797 120.299C59.6535 120.405 59.8434 120.492 60.0431 120.553C60.8445 120.808 61.7056 120.664 62.4791 120.15C63.2082 119.662 63.7689 118.888 64.0575 117.975C64.6001 116.261 64.0217 114.506 62.7625 113.779C62.6034 113.687 62.4349 113.612 62.2545 113.557C61.4561 113.302 60.592 113.445 59.8208 113.961C59.0911 114.45 58.5287 115.222 58.2413 116.135C57.7081 117.823 58.2599 119.551 59.4797 120.299ZM66.3065 122.298C66.017 122.182 65.8797 121.855 65.9973 121.566C66.1117 121.28 66.4387 121.14 66.7245 121.257C67.0978 121.41 67.865 121.359 68.4035 120.775C68.587 120.58 68.8737 120.544 69.0963 120.672C69.1297 120.692 69.1658 120.717 69.1962 120.747C69.424 120.957 69.4373 121.312 69.2274 121.54C68.3664 122.467 67.1049 122.622 66.3065 122.298ZM60.838 119.136C60.7233 119.05 60.6423 118.919 60.6228 118.766C60.5804 118.459 60.7924 118.177 61.101 118.135C61.353 118.101 61.5212 118.001 61.6358 117.821C61.8402 117.496 61.7935 117.013 61.7652 116.918C61.6689 116.624 61.8333 116.31 62.1284 116.214C62.2842 116.163 62.4463 116.186 62.5789 116.262C62.6942 116.329 62.7878 116.438 62.832 116.578C62.9517 116.948 62.9892 117.775 62.5848 118.42C62.2959 118.88 61.8331 119.165 61.2539 119.244C61.1006 119.265 60.9551 119.224 60.838 119.136Z" fill="#96C09F"/>
<path d="M132.231 98.8719C132.372 98.4542 132.152 97.9978 131.735 97.8541L129.479 97.033C129.209 96.9306 128.906 96.98 128.682 97.1657C128.461 97.3503 128.357 97.6379 128.407 97.9231C128.459 98.2071 128.659 98.4399 128.932 98.5369L131.188 99.3581C131.389 99.4333 131.616 99.4269 131.811 99.3342C132.008 99.244 132.158 99.0761 132.231 98.8719ZM129.776 103.252C129.831 103.112 129.844 102.955 129.813 102.806C129.813 102.806 129.469 100.735 127.722 99.4539C127.192 99.0648 126.708 98.6114 126.419 98.1706C126.69 97.6482 126.871 97.1781 126.949 96.9638C127.223 96.2118 128.592 92.4501 125.582 91.3546C124.969 91.1315 124.165 90.9195 123.253 90.7335L123.052 91.2854C122.901 91.6998 122.444 91.9176 122.026 91.7654C121.61 91.6139 121.397 91.1523 121.548 90.7379L121.656 90.4414C120.357 90.2358 118.941 90.0762 117.565 89.982L117.24 90.8751C117.09 91.2877 116.63 91.5049 116.214 91.3534C115.796 91.2012 115.586 90.7403 115.736 90.3277L115.89 89.9043C113.055 89.8292 110.704 90.1065 110.401 90.9407C110.006 92.0249 112.859 94.6068 116.053 96.833C116.261 96.6601 116.551 96.5857 116.828 96.6864C117.234 96.834 117.443 97.2763 117.31 97.687C118.275 98.3135 119.235 98.8876 120.114 99.359L120.862 97.3031C121.013 96.8887 121.472 96.6733 121.888 96.8248C122.306 96.9769 122.517 97.4361 122.366 97.8505L121.555 100.078C121.821 100.193 122.068 100.297 122.297 100.38C123.687 100.886 124.722 100.354 125.467 99.5637C125.861 100.025 126.322 100.411 126.776 100.746C127.925 101.587 128.243 103.097 128.243 103.097C128.3 103.451 128.592 103.723 128.95 103.761C129.305 103.797 129.643 103.59 129.776 103.252ZM133.119 94.0693C133.236 93.7196 133.098 93.3316 132.787 93.1354C132.473 92.938 132.065 92.9798 131.8 93.2395C131.8 93.2395 130.71 94.1899 129.579 93.9948C129.296 93.9342 128.996 94.0354 128.805 94.2593C128.614 94.4807 128.561 94.7914 128.669 95.0631C128.771 95.3371 129.019 95.5345 129.31 95.5737C131.375 95.9266 132.903 94.3996 132.903 94.3996C133.002 94.3079 133.077 94.1957 133.119 94.0693Z" fill="#96C09F"/>
<path d="M107.716 9.62621C107.418 9.58262 107.126 9.72434 106.973 9.98517C106.821 10.248 106.844 10.5757 107.027 10.8136C107.027 10.8136 107.612 11.6605 107.677 12.6535C107.6 12.6542 107.525 12.6625 107.453 12.6855C106.915 12.8661 105.615 13.4074 105.066 14.5819C102.901 18.2927 100.058 19.9836 93.3994 21.5167C93.3265 21.5343 93.2571 21.5631 93.1919 21.5981C92.8507 21.799 92.3762 22.452 91.7891 23.5303C91.7122 23.6723 91.6799 23.8347 91.7054 23.9947L91.8377 24.9066C91.8538 25.0185 91.8959 25.1243 91.9602 25.2161C92.21 25.5837 93.2412 26.6505 94.3163 26.84C94.3559 26.8488 94.3819 26.8534 94.4652 26.868C95.3235 27.0193 99.7888 27.5829 105.423 24.2475C109.567 21.7973 110.638 18.868 110.907 17.3404C111.324 14.9752 109.833 13.6772 109.272 13.1903C109.211 13.1385 109.162 13.1013 109.148 13.0898C109.149 13.0864 109.147 13.0861 109.147 13.0861C109.28 11.2984 108.214 9.92324 108.214 9.92324C108.096 9.76119 107.918 9.653 107.716 9.62621ZM106.664 15.4571C106.746 15.459 106.826 15.4731 106.902 15.5045C107.316 15.6632 107.475 16.158 107.232 16.5245C107.003 16.872 106.706 17.3061 106.383 17.7211C103.879 21.1004 101.331 22.6413 95.3137 24.0747C95.0316 24.143 94.729 24.0342 94.5558 23.7999C94.2496 23.3865 94.4599 22.7925 94.9593 22.6677C100.165 21.3665 103.591 19.7286 106.065 15.7931C106.199 15.5807 106.427 15.4529 106.664 15.4571Z" fill="#96C09F"/>
<path d="M13.8205 106.952C13.9212 107.229 14.2275 107.373 14.5053 107.272L15.5405 106.895C15.3671 107.736 15.5309 108.527 15.7383 109.097C15.8429 109.385 16.1433 109.52 16.42 109.419C16.8457 109.264 17.319 108.91 17.7237 108.456C17.2625 108.09 16.9029 107.611 16.6963 107.043C16.573 106.704 16.5102 106.342 16.5097 105.974C16.2732 105.691 16.0891 105.375 15.9654 105.035C15.7583 104.466 15.7255 103.867 15.8462 103.29C15.2441 103.205 14.656 103.237 14.2303 103.392C13.9536 103.493 13.8104 103.789 13.9146 104.075C14.1225 104.647 14.5076 105.356 15.1798 105.889L14.1399 106.268C13.862 106.369 13.7198 106.676 13.8205 106.952ZM17.7004 106.677C17.904 107.237 18.3178 107.657 18.8167 107.889C18.8287 108.093 18.8592 108.299 18.9339 108.504C19.3375 109.613 20.564 110.185 21.6743 109.781C21.8782 109.707 22.0559 109.598 22.2195 109.476C22.7177 109.709 23.3059 109.756 23.8652 109.552C24.4246 109.349 24.844 108.935 25.0757 108.436C25.2805 108.424 25.4868 108.393 25.6908 108.319C26.4421 108.046 26.9373 107.391 27.0589 106.657C28.0117 106.177 28.4825 105.054 28.1083 104.026C28.0341 103.823 27.9261 103.644 27.8032 103.481C28.0377 102.983 28.083 102.395 27.8795 101.835C27.6759 101.276 27.2638 100.856 26.7636 100.625C26.7524 100.42 26.7207 100.214 26.6465 100.01C26.2723 98.982 25.1904 98.425 24.1521 98.6706C23.5864 98.185 22.7869 98.0033 22.0356 98.2767C21.8317 98.3509 21.654 98.4602 21.4891 98.5823C20.9905 98.3478 20.4039 98.302 19.8446 98.5056C19.2853 98.7092 18.8642 99.1217 18.633 99.6219C18.4294 99.6339 18.223 99.6644 18.0191 99.7386C16.9088 100.143 16.3365 101.368 16.7406 102.478C16.8148 102.682 16.9241 102.86 17.0462 103.025C16.8129 103.523 16.7659 104.11 16.9695 104.669C17.1032 105.037 17.3335 105.339 17.614 105.572C17.5492 105.932 17.5672 106.311 17.7004 106.677ZM19.805 103.273C19.7574 103.175 19.7426 103.06 19.7633 102.95C19.5884 102.807 19.5223 102.562 19.6086 102.343C19.7196 102.069 20.0315 101.935 20.3039 102.046C20.3684 102.071 20.698 102.22 20.8235 102.564C20.9463 102.902 20.8054 103.208 20.7592 103.297C20.6214 103.556 20.2964 103.654 20.0353 103.516C19.9302 103.461 19.8528 103.374 19.805 103.273ZM22.0681 106.563C22.0217 106.465 22.0069 106.35 22.0264 106.24C21.8534 106.095 21.7853 105.852 21.8717 105.633C21.9838 105.359 22.2945 105.226 22.5681 105.335C22.6335 105.363 22.9623 105.509 23.0877 105.854C23.2136 106.2 23.0558 106.523 23.0226 106.584C22.8844 106.846 22.5607 106.944 22.2979 106.804C22.196 106.747 22.1158 106.664 22.0681 106.563ZM22.3966 101.216C22.3704 101.111 22.3736 100.994 22.4188 100.884C22.5302 100.611 22.8409 100.478 23.114 100.587C23.1794 100.614 23.5086 100.762 23.6341 101.106C23.7595 101.451 23.6022 101.776 23.5698 101.839C23.4303 102.098 23.1066 102.195 22.8459 102.058C22.6373 101.945 22.533 101.714 22.5727 101.493C22.4868 101.42 22.4243 101.322 22.3966 101.216ZM24.4975 103.865C24.4709 103.758 24.477 103.641 24.5198 103.532C24.6307 103.258 24.9414 103.125 25.215 103.235C25.28 103.261 25.6092 103.409 25.7346 103.753C25.8605 104.099 25.7027 104.423 25.6703 104.486C25.5313 104.746 25.2076 104.843 24.9464 104.705C24.7378 104.591 24.6343 104.359 24.6733 104.14C24.585 104.068 24.5249 103.969 24.4975 103.865Z" fill="#96C09F"/>
</svg>
