<svg width="157" height="145" viewBox="0 0 157 144" fill="none" xmlns="http://www.w3.org/2000/svg">
<circle cx="77.6229" cy="76.728" r="37.9033" fill="#DFF0E3"/>
<path d="M78.206 83.1069C77.8633 83.4496 77.4161 83.6209 76.9648 83.6209C76.5093 83.6209 76.0621 83.4496 75.7195 83.1069L66.9228 74.306C66.2332 73.6207 66.2332 72.5049 66.9228 71.8196C67.6081 71.13 68.7239 71.13 69.4092 71.8196L76.9648 79.3751L94.3242 62.0115C92.2765 60.1435 89.556 58.986 86.5597 58.986C80.4835 58.986 76.9648 64.264 76.9648 64.264C76.9648 64.264 73.4461 58.986 67.3699 58.986C61.0053 58.986 55.8485 64.1428 55.8485 70.5074C55.8485 81.661 68.9078 92.3299 74.8461 96.9894L74.8544 96.9769C75.4437 97.424 76.1666 97.6957 76.9648 97.6957C77.763 97.6957 78.4818 97.424 79.0752 96.9769L79.0794 96.9894C85.0177 92.3299 98.0769 81.661 98.0769 70.5074C98.0769 68.4179 97.5169 66.4579 96.5474 64.7738L78.206 83.1069Z" fill="#25772F"/>
<path d="M81.8075 0.902862L64.0326 4.03706C62.942 4.22935 62.2138 5.26943 62.4061 6.35998L63.7993 14.2612L64.6295 14.1148L64.8116 13.3234C64.9953 12.5414 65.6195 11.967 66.416 11.8217C67.2081 11.6918 67.9964 12.0485 68.419 12.7309L70.0029 15.2954L71.463 5.45944C71.5339 4.99716 71.908 4.65067 72.379 4.60631C72.847 4.57217 73.2753 4.86179 73.415 5.31113L76.814 16.3457L77.2968 12.597C77.353 12.1615 77.6857 11.8127 78.1172 11.7366L79.8738 11.4269C80.1105 10.7806 80.6707 10.2683 81.4001 10.1397C82.493 9.94697 83.5303 10.6733 83.723 11.7662C83.9153 12.8568 83.1894 13.8964 82.0965 14.0891C81.3671 14.2177 80.6678 13.9275 80.222 13.4016L79.1924 13.5831L78.209 21.1852C78.156 21.625 77.8178 21.97 77.391 22.0453C77.3605 22.0507 77.3323 22.0556 77.3014 22.0586C76.832 22.0979 76.3981 21.8044 76.2585 21.3551L72.7989 10.128L71.5871 18.3C71.5252 18.7171 71.2116 19.0505 70.7962 19.1359C70.3869 19.2008 69.9645 19.0407 69.7414 18.681L66.7117 13.7864L66.4342 15.2161C66.3412 15.6073 66.0237 15.9051 65.6297 15.9746L64.1475 16.236L65.5403 24.1349C65.733 25.2278 66.7726 25.9537 67.8632 25.7614L85.6381 22.6272C86.731 22.4345 87.4573 21.3972 87.2646 20.3043L84.1304 2.52939C83.9381 1.43884 82.9004 0.710154 81.8075 0.902862Z" fill="#96C09F"/>
<path d="M39.6294 104.717C38.6674 104.329 37.5768 104.793 37.1889 105.753C37.1831 105.768 37.1785 105.785 37.1726 105.8C37.0336 105.722 36.902 105.637 36.7533 105.577C34.594 104.705 32.1332 105.749 31.2608 107.909C31.0948 108.32 31.0181 108.735 30.9869 109.157C29.5049 109.461 28.1998 110.481 27.5909 111.988C26.982 113.495 27.2137 115.132 28.0677 116.383C27.797 116.708 27.5634 117.06 27.3974 117.471C26.58 119.494 27.4607 121.766 29.3512 122.763C29.1304 123.85 29.7004 124.972 30.7656 125.402C31.9671 125.887 33.3314 125.31 33.8168 124.109L33.9928 123.673C34.3798 122.715 33.9127 121.619 32.9569 121.232C32.4738 121.037 32.2454 120.491 32.4389 120.012C32.6324 119.533 33.1761 119.299 33.6592 119.494C34.293 119.75 34.8091 120.173 35.2014 120.682L38.2182 113.215C37.2663 113.479 36.2328 113.457 35.2481 113.059C34.765 112.864 34.5366 112.318 34.7301 111.839C34.9236 111.36 35.4673 111.126 35.9504 111.321C37.3851 111.901 39.0314 111.202 39.6119 109.765L40.6653 107.158C41.0532 106.198 40.5894 105.105 39.6294 104.717ZM44.844 106.824C43.882 106.436 42.7914 106.9 42.4035 107.86L41.3501 110.468C40.7696 111.904 41.4664 113.55 42.9032 114.13C43.3862 114.325 43.6146 114.872 43.4211 115.351C43.2276 115.829 42.684 116.064 42.2009 115.869C41.2162 115.471 40.4562 114.772 39.9547 113.921L35.5551 124.811C35.0696 126.012 35.6479 127.375 36.8493 127.86C37.9166 128.291 39.1055 127.881 39.7 126.944C41.7102 127.526 43.8553 126.555 44.7149 124.624C44.0973 124.595 43.473 124.47 42.8682 124.226C42.3872 124.032 42.1567 123.485 42.3502 123.006C42.5437 122.527 43.0895 122.293 43.5705 122.488C45.4883 123.263 47.6766 122.334 48.4514 120.416C49.0603 118.909 48.8316 117.27 47.9767 116.022C48.2454 115.696 48.4789 115.343 48.6449 114.932C49.5174 112.773 48.4749 110.313 46.3155 109.441C46.1648 109.38 46.0116 109.349 45.8575 109.309C45.8633 109.294 45.8741 109.279 45.88 109.265C46.2678 108.305 45.804 107.212 44.844 106.824Z" fill="#78A682"/>
<path d="M124.707 21.5733C124.449 21.5521 124.177 21.5765 123.915 21.6656L112.475 25.3715C111.42 25.7099 110.843 26.8408 111.187 27.8947L113.04 33.6134C113.202 34.1303 113.417 34.5862 113.649 35.0212C113.964 33.716 114.547 32.4145 115.511 31.178L119.207 26.4353C120.124 25.2629 121.602 24.6922 123.07 24.9509C123.709 25.0637 124.321 25.3383 124.835 25.7383L128.189 28.3575L126.44 22.9544C126.185 22.1651 125.485 21.6428 124.707 21.5733ZM122.891 26.9617C122.134 26.7605 121.299 27.0145 120.79 27.669L117.092 32.4114C112.976 37.6867 117.481 43.9914 117.679 44.2558C117.733 44.3307 117.801 44.3982 117.871 44.454C117.943 44.515 118.022 44.5603 118.113 44.5909C118.417 44.717 125.62 47.5461 129.736 42.2684L133.434 37.5261C134.114 36.6575 133.96 35.3929 133.086 34.7144L123.602 27.319C123.385 27.1479 123.14 27.0298 122.891 26.9617ZM121.962 32.5475C122.152 32.5954 122.334 32.6832 122.498 32.8111C123.153 33.3205 123.269 34.2666 122.758 34.9259C122.245 35.5773 121.303 35.694 120.65 35.18C119.997 34.6734 119.876 33.7288 120.385 33.0742C120.769 32.5836 121.395 32.3919 121.962 32.5475ZM127.493 36.8603C127.682 36.9106 127.867 36.9988 128.03 37.1267C128.685 37.6361 128.799 38.5818 128.289 39.2363C127.778 39.8881 126.834 40.0068 126.182 39.4956C125.527 38.9862 125.408 38.0444 125.92 37.3902C126.302 36.8968 126.928 36.7051 127.493 36.8603ZM119.195 37.8624L123.938 41.5601C122.916 42.8712 121.027 43.1012 119.72 42.0852C118.409 41.0614 118.174 39.1735 119.195 37.8624Z" fill="#A0D3AC"/>
<path d="M128.884 96.4041C128.846 96.4179 128.81 96.4358 128.777 96.4501L128.758 96.4619C128.747 96.4658 128.741 96.473 128.734 96.4753L117.929 102.4C117.514 102.625 117.329 103.113 117.488 103.551L121.733 115.214C122.115 116.262 122.188 116.836 120.104 117.595C117.804 118.432 117.5 120.062 117.979 121.377C118.367 122.444 119.567 123.797 122.033 122.9C124.794 121.895 125.389 119.76 124.844 118.261L120.682 106.826L129.816 101.711L132.568 109.271C132.949 110.32 133.023 110.894 130.939 111.652C128.639 112.489 128.335 114.12 128.812 115.432C129.202 116.501 130.402 117.855 132.867 116.957C135.629 115.952 136.162 113.652 135.616 112.153L130.088 96.9655C129.911 96.4791 129.371 96.2271 128.884 96.4041Z" fill="#96C09F"/>
<path d="M33.1271 35.6076C32.8141 35.1603 32.4139 34.4091 32.2516 33.9633C31.5951 32.1596 32.1298 29.4808 35.3828 28.2968C38.4036 27.1973 40.4488 29.3456 41.2102 31.4376C42.3527 34.5766 39.8469 38.5362 39.8469 38.5362C39.8469 38.5362 40.9445 44.0677 34.7702 46.3149C32.3694 47.1888 32.0927 46.8739 31.394 47.1282C30.6933 47.3832 30.1654 47.9909 29.7466 48.1434C29.1164 48.3728 25.9348 47.1147 24.2617 45.1175C21.6821 42.262 20.4762 39.6392 20.0121 38.3641C19.3073 36.4277 19.2249 35.0982 19.6332 33.7169C20.0191 32.4095 20.5764 31.7089 21.4306 31.398C22.2869 31.0863 22.7735 31.2685 23.596 31.5608C24.2688 31.7902 24.5724 31.9661 25.0166 32.206C25.4084 32.4696 25.4418 33.3097 25.283 33.7573C25.1768 34.0589 25.0182 35.7649 23.0723 35.3344C22.4691 35.1477 22.5528 35.8357 22.7256 36.3105C22.8984 36.7853 23.532 38.1325 25.43 38.8834C27.3503 39.6049 28.1887 40.6053 28.9501 41.3941C28.8169 40.3766 28.2916 36.6561 33.1271 35.6076Z" fill="#78A682"/>
<path d="M148.532 60.4277C147.034 57.8335 143.719 56.9451 141.124 58.4429C136.578 61.0677 135.301 68.9024 134.801 72.4184C134.801 72.4184 134.761 73.0139 135.012 73.4482C135.262 73.8826 135.797 74.1439 135.797 74.1439C136.018 74.2347 136.337 74.3477 136.593 74.4478C136.677 74.6965 136.786 74.8451 136.786 74.8451L136.803 74.8714L136.818 74.8969C137.377 75.6573 138.31 76.9037 139.5 77.9999C140.686 79.091 142.143 80.0804 143.845 80.1377C145.837 80.2049 147.522 78.6463 147.624 76.6636C148.864 76.5452 150.04 76.2455 151.062 75.6554C153.656 74.1576 154.546 70.8438 153.048 68.2496C151.618 65.7729 148.639 65.5807 148.639 65.5807C148.639 65.5807 149.962 62.9044 148.532 60.4277ZM145.832 70.653C146.038 70.9817 146.151 71.375 146.137 71.7944C146.101 72.9668 145.401 73.6777 145.401 73.6777L144.795 74.2842L145.422 74.8669C145.422 74.8669 146.019 75.3624 145.981 76.5314L145.983 76.5348C145.944 77.6589 145.022 78.5206 143.897 78.4814C142.842 78.4478 141.661 77.7397 140.621 76.78C139.59 75.8285 138.721 74.684 138.177 73.9394C138.175 73.9272 138.171 73.9133 138.169 73.8984C138.172 73.8904 138.176 73.8813 138.179 73.8723C138.77 73.1636 139.711 72.0797 140.805 71.198C141.908 70.307 143.134 69.6809 144.189 69.7145C144.75 69.7337 145.245 69.9745 145.598 70.3498C145.684 70.4434 145.765 70.5443 145.832 70.653Z" fill="#78A682"/>
<path d="M7.58195 70.1238C7.49912 70.1933 7.43442 70.2844 7.39343 70.3842L3.28932 79.8524C3.1958 80.0823 3.2354 80.3416 3.39354 80.53C3.55068 80.7173 3.79916 80.8013 4.04176 80.7492L14.071 78.352C14.1818 78.3305 14.2828 78.2826 14.368 78.2111C14.4509 78.1416 14.5156 78.0505 14.5555 77.9494L18.6579 68.4889C18.6603 68.4869 18.6607 68.4824 18.6619 68.4814C18.753 68.2536 18.7146 67.9933 18.5574 67.806C18.3993 67.6176 18.1496 67.5345 17.9094 67.5847L7.87783 69.9839C7.76814 70.0044 7.66718 70.0522 7.58195 70.1238ZM19.4744 69.9251L18.8864 71.2796L22.6708 75.7897C22.5178 76.2167 22.5835 76.7119 22.8957 77.084C23.3651 77.6435 25.6038 78.2586 25.6038 78.2586C25.6038 78.2586 25.3878 75.9462 24.9185 75.3868C24.6062 75.0146 24.13 74.864 23.6828 74.9405L19.4744 69.9251ZM8.90679 80.9423L10.6665 83.0395C11.838 84.4356 14.8228 83.858 17.3365 81.7488C19.8502 79.6395 20.9361 76.8014 19.7646 75.4053L18.0049 73.3081L15.7662 78.478C15.7403 78.5325 15.7146 78.5847 15.6821 78.6386C15.5643 78.8664 15.407 79.0617 15.2162 79.2219C15.0265 79.381 14.808 79.5009 14.5609 79.5794C14.5046 79.6001 14.445 79.6193 14.3861 79.632L8.90679 80.9423Z" fill="#A0D3AC"/>
<path d="M77.352 121.286C75.9728 121.097 74.6995 122.064 74.5107 123.443L72.458 138.44C72.4276 138.662 72.4877 138.886 72.6246 139.064C72.7731 140.159 73.4733 141.125 74.6151 141.282L87.946 143.106C88.2463 143.151 88.5467 143.033 88.7345 142.795C88.9206 142.554 88.9642 142.236 88.8496 141.954C88.7327 141.674 88.4751 141.479 88.1741 141.44L74.8431 139.615C74.3722 139.551 74.0594 139.141 74.1241 138.668C74.1886 138.197 74.6002 137.885 75.0712 137.949L87.5691 139.66C88.4912 139.786 89.337 139.144 89.4632 138.222L91.2879 124.891C91.4139 123.971 90.772 123.123 89.8499 122.997L77.352 121.286ZM80.002 126.741L85.8335 127.539C86.2925 127.602 86.6151 128.029 86.5522 128.488C86.4897 128.945 86.0642 129.27 85.6051 129.207L79.7737 128.409C79.3146 128.346 78.9921 127.919 79.0547 127.462C79.1175 127.003 79.543 126.678 80.002 126.741Z" fill="#AAC9B1"/>
</svg>
