<svg width="176" height="145" viewBox="0 0 176 88" fill="none" xmlns="http://www.w3.org/2000/svg">
<circle cx="43.4935" cy="43.9935" r="43.4935" fill="#F3F3F3"/>
<path d="M11.734 42.3615C12.0694 41.825 24.2348 24.5358 43.4465 24.5358C44.4927 24.5358 45.3288 25.3808 45.3288 26.4181V30.442C49.9875 33.2363 53.9935 37.0769 57.074 40.6179C57.074 40.6179 60.5524 35.0605 60.5882 34.9845C61.0532 34.059 62.1843 33.6834 63.1098 34.1484C63.7715 34.4792 64.156 35.1275 64.156 35.8384C64.156 37.6939 62.2737 43.363 62.2737 43.363C62.2737 43.363 64.156 48.9875 64.156 50.8921C64.156 51.5225 63.8162 52.1708 63.2216 52.5151C62.3229 53.0471 61.1694 52.7386 60.6463 51.84C60.6061 51.7729 57.1545 46.7431 57.1545 46.7431C53.0457 51.6254 47.1395 56.8921 39.682 59.15V62.1858C39.682 63.223 38.8459 64.068 37.7997 64.068C32.2423 64.068 28.2408 60.1559 26.4614 58.3765C29.7252 55.9532 34.0352 51.2543 34.0352 43.363C34.0352 39.898 33.3735 37.0903 32.8146 35.3377C32.4972 34.354 31.4465 33.8041 30.4539 34.1171C29.4614 34.4256 28.9159 35.4852 29.2244 36.4778C29.7028 37.98 30.2706 40.3854 30.2706 43.363C30.2706 51.0039 25.1871 54.907 22.746 56.3467C15.5209 51.7327 11.8637 44.6507 11.6446 44.1991C11.3495 43.6179 11.3853 42.9204 11.734 42.3615ZM22.7415 45.2453C23.7788 45.2453 24.6238 44.4003 24.6238 43.363C24.6238 42.3258 23.7788 41.4808 22.7415 41.4808C21.7043 41.4808 20.8593 42.3258 20.8593 43.363C20.8593 44.4003 21.7043 45.2453 22.7415 45.2453Z" fill="#C9C9C9"/>
<circle cx="131.625" cy="43.9935" r="43.4935" fill="#F3F3F3"/>
<path d="M151.619 18.821C149.285 19.1206 143.482 20.5602 143.102 27.5126C143.08 27.9105 143.477 28.2548 143.933 28.2235C150.89 27.7674 152.241 21.7763 152.513 19.5632C152.567 19.1206 152.124 18.754 151.619 18.821ZM133.668 20.681C132.837 20.681 132.099 21.2219 131.866 22.0267C131.62 22.827 131.947 23.6854 132.644 24.1415C132.644 24.1415 136.422 26.6229 137.276 31.7689C135.416 30.7674 133.342 30.1057 131.048 30.1057C123.157 30.1057 116.746 36.6825 116.746 44.6676C116.746 51.5261 119.969 57.6692 123.747 62.1267C125.629 64.3533 127.668 66.1774 129.609 67.4695C131.549 68.7706 133.319 69.6379 135.197 69.6379C136.735 69.6379 137.835 68.9941 138.783 68.4576C139.1 68.2788 139.096 68.2564 139.337 68.1044C139.579 68.2564 139.57 68.2788 139.887 68.4576C140.835 68.9941 141.939 69.6379 143.477 69.6379C145.203 69.6379 147.001 68.9628 148.954 67.8361C150.913 66.7139 152.978 65.082 154.887 62.9628C158.714 58.7288 161.925 52.5007 161.925 44.6676C161.925 36.6825 155.513 30.1057 147.622 30.1057C145.203 30.1057 143.026 30.8345 141.085 31.9299C140.214 24.7406 134.732 21.0118 134.732 21.0118C134.415 20.7972 134.048 20.681 133.668 20.681ZM147.622 33.8703C153.425 33.8703 158.16 38.681 158.16 44.6676C158.16 51.4769 155.406 56.7839 152.102 60.4322C150.448 62.2653 148.659 63.6603 147.072 64.5813C145.489 65.4933 144.059 65.8734 143.477 65.8734C143.424 65.8734 142.463 65.5828 141.734 65.1759C141.005 64.7735 140.455 64.3622 140.455 64.3622L139.337 63.5306V37.7421L140.571 36.6601C142.512 34.9612 144.948 33.8703 147.622 33.8703ZM144.984 45.1684C144.828 45.1684 144.685 45.2399 144.559 45.3875C143.956 46.1252 143.102 47.453 143.102 48.9329C143.102 50.4083 143.956 51.7407 144.559 52.4784C144.801 52.769 145.167 52.769 145.409 52.4784C145.896 51.8882 146.866 50.5559 146.866 48.9329C146.866 47.3055 146.012 46.1252 145.409 45.3875C145.284 45.2399 145.136 45.1684 144.984 45.1684Z" fill="#C9C9C9"/>
<circle cx="88.4935" cy="44.4935" r="43.4935" fill="#E8E8E8"/>
<path d="M88.5024 19C74.9686 19 64 29.9686 64 43.5024C64 57.0362 74.9686 68 88.5024 68C102.036 68 113 57.0362 113 43.5024C113 29.9686 102.036 19 88.5024 19ZM100.155 55.1548C99.3547 55.95 98.0648 55.95 97.2647 55.1548L91.1403 49.0304L94.0304 46.1403L100.155 52.2647C100.95 53.0648 100.95 54.3547 100.155 55.1548ZM100.591 39.2595C98.6079 41.2379 95.8876 41.9071 93.7491 41.1409L79.7353 55.1548C78.94 55.95 77.6453 55.95 76.8501 55.1548C76.05 54.3547 76.05 53.0648 76.8501 52.2647L83.5709 45.5439L78.9158 40.8839C75.8512 37.8241 75.1577 33.1254 77.1992 29.314L88.5024 40.6124L90.8542 38.2606C90.0978 36.1173 90.7572 33.3969 92.7454 31.4088C95.3445 28.8194 99.2044 28.4654 101.372 30.6281C103.535 32.8005 103.185 36.6604 100.591 39.2595Z" fill="#ACACAC"/>
</svg>
