<svg width="139" height="145" viewBox="0 0 139 139" fill="none" xmlns="http://www.w3.org/2000/svg">
<circle cx="68" cy="69.5" r="38" fill="#F0F0F0"/>
<path d="M68.4492 47.5C65.7422 47.5 63.5156 49.7305 63.5156 52.4336H56.9336C54.2305 52.4336 52 54.6641 52 57.3672V86.9727C52 89.6797 54.2305 91.9062 56.9336 91.9062H79.9609C82.668 91.9062 84.8945 89.6797 84.8945 86.9727V57.3672C84.8945 54.6641 82.668 52.4336 79.9609 52.4336H73.3828C73.3828 49.7305 71.1523 47.5 68.4492 47.5ZM68.4492 50.7891C69.375 50.7891 70.0938 51.5078 70.0938 52.4336C70.0938 53.3594 69.375 54.0781 68.4492 54.0781C67.5234 54.0781 66.8047 53.3594 66.8047 52.4336C66.8047 51.5078 67.5234 50.7891 68.4492 50.7891ZM56.9336 55.7227H63.5156V57.3672C63.5156 58.2734 64.2539 59.0117 65.1602 59.0117H71.7383C72.6445 59.0117 73.3828 58.2734 73.3828 57.3672V55.7227H79.9609C80.8945 55.7227 81.6055 56.4375 81.6055 57.3672V86.9727C81.6055 87.9062 80.8945 88.6172 79.9609 88.6172H56.9336C56.0039 88.6172 55.2891 87.9062 55.2891 86.9727V57.3672C55.2891 56.4375 56.0039 55.7227 56.9336 55.7227ZM74.9961 67.2188C74.5664 67.2305 74.1602 67.4102 73.8633 67.7188L66.8047 74.7812L64.6758 72.6523C64.2656 72.2227 63.6484 72.0508 63.0781 72.2031C62.5 72.3516 62.0508 72.8008 61.9023 73.3789C61.7461 73.9492 61.9219 74.5664 62.3516 74.9805L65.6406 78.2695C66.2852 78.9102 67.3242 78.9102 67.9648 78.2695L76.1914 70.043C76.6797 69.5703 76.8203 68.8477 76.5547 68.2266C76.293 67.5977 75.6758 67.1992 74.9961 67.2188Z" fill="#A6A6A6"/>
<path d="M15.1301 24.5C13.6877 24.5 12.5229 25.6673 12.5229 27.1097C12.5229 28.5471 13.6877 29.7169 15.1301 29.7169C16.575 29.7169 17.7398 28.5471 17.7398 27.1097C17.7398 25.6673 16.575 24.5 15.1301 24.5ZM6.78315 30.7602C6.12639 30.7602 5.50682 31.07 5.11276 31.5979L2.29492 35.355C1.94796 35.816 2.04213 36.4678 2.5031 36.8147C2.96902 37.1617 3.62082 37.0675 3.96778 36.6016L6.71871 32.9411L9.2342 33.4442L7.4399 38.8048L7.45229 38.8073C7.36555 39.0675 7.30607 39.3426 7.30607 39.6301C7.30607 41.07 8.47088 42.2398 9.91326 42.2398C10.1388 42.2398 10.3544 42.2026 10.5626 42.1456L15.3432 41.4765L22.3222 43.1295L22.627 43.2311C23.1747 43.4145 23.7646 43.1171 23.948 42.5694C24.1314 42.0242 23.834 41.4318 23.2887 41.2485L17.026 39.1617C16.9542 39.1369 16.8798 39.1221 16.8055 39.1146L13.0781 38.391L14.2181 34.9709L17.1326 36.8271C17.4473 37.0502 17.8587 37.0824 18.2082 36.9114L22.3817 34.8247C22.8972 34.5694 23.1053 33.9399 22.8476 33.4219C22.5898 32.9089 21.9628 32.7007 21.4449 32.9585L17.948 34.7082L15.2218 31.9845C14.4387 31.2014 13.3779 30.7602 12.2701 30.7602H6.78315ZM6.3891 42.7057C5.90335 43.6252 5.24659 44.8767 5.24659 44.9213C5.24659 44.9907 0.67658 46.4802 0.67658 46.4802C0.270136 46.6338 0 47.0204 0 47.4566C0 48.0316 0.468401 48.5 1.04337 48.5C1.13755 48.5 1.23172 48.4876 1.32094 48.4653C1.3259 48.4653 1.3259 48.4653 1.3259 48.4653L6.10657 47.4938C6.56753 47.4046 6.98389 47.1568 7.28377 46.7974L9.41264 44.277C8.2057 44.1481 7.14498 43.5731 6.3891 42.7057Z" fill="#C2C2C2"/>
<path d="M121.784 24.5C120.311 24.5 119.12 25.694 119.12 27.1643C119.12 28.6367 120.311 29.8286 121.784 29.8286C123.254 29.8286 124.448 28.6367 124.448 27.1643C124.448 25.694 123.254 24.5 121.784 24.5ZM112.861 28.9342C112.449 28.9489 112.103 29.2421 112.021 29.6451C111.937 30.048 112.141 30.453 112.513 30.6281L119.12 33.8514V36.9355L114.122 43.3399L114.05 43.4137C113.816 43.6352 113.723 43.9685 113.808 44.2765C113.886 44.5887 114.131 44.8313 114.443 44.9115C114.751 44.9958 115.084 44.9009 115.306 44.6689L115.441 44.5339L121.784 38.7117L128.146 44.555L128.262 44.6689C128.484 44.9009 128.817 44.9958 129.125 44.9115C129.437 44.8313 129.68 44.5887 129.76 44.2765C129.844 43.9685 129.749 43.6352 129.517 43.4137L129.443 43.3399L124.448 36.9355V33.8514L131.055 30.6281C131.428 30.4509 131.633 30.0374 131.542 29.6324C131.454 29.2253 131.093 28.9384 130.68 28.9342C130.536 28.9342 130.401 28.97 130.277 29.0312L130.234 29.0523L123.56 31.6069H120.008L113.331 29.0523L113.289 29.0312C113.158 28.9658 113.008 28.9299 112.861 28.9342ZM121.784 44.9283C117.662 44.9283 114.255 46.8163 114.255 46.8163C113.96 46.9577 113.766 47.2509 113.755 47.58C113.74 47.9069 113.907 48.2107 114.192 48.3774C114.472 48.544 114.822 48.5398 115.101 48.371C115.101 48.371 118.21 46.7045 121.784 46.7045C125.357 46.7045 128.462 48.371 128.462 48.371C128.743 48.5398 129.093 48.544 129.374 48.3774C129.659 48.2107 129.825 47.9069 129.813 47.58C129.802 47.2509 129.608 46.9577 129.317 46.8163C129.317 46.8163 125.906 44.9283 121.784 44.9283Z" fill="#C2C2C2"/>
<path d="M119.199 96.5C118.705 96.5 118.299 96.904 118.299 97.3999V111.8C118.299 112.296 118.705 112.7 119.199 112.7H121.901V106.401H129.099V112.7H131.799C132.295 112.7 132.699 112.296 132.699 111.8V97.3999C132.699 96.904 132.295 96.5 131.799 96.5H129.099V102.801H121.901V96.5H119.199ZM114.7 99.1996C114.204 99.1996 113.8 99.6057 113.8 100.102V102.801H112V106.401H113.8V109.1C113.8 109.596 114.204 110 114.7 110H116.499V99.1996H114.7ZM134.499 99.1996V110H136.298C136.794 110 137.198 109.596 137.198 109.1V106.401H139V102.801H137.198V100.102C137.198 99.6057 136.794 99.1996 136.298 99.1996H134.499Z" fill="#C2C2C2"/>
<path d="M11.0011 93.5C4.92469 93.5 0 98.4247 0 104.501C0 104.769 0.0217711 105.034 0.0435428 105.3C0.681445 105.146 1.33894 105.056 2.01385 105.056C4.26502 105.056 6.3812 105.934 7.97486 107.527C9.56853 109.121 10.4459 111.237 10.4459 113.484C10.4459 114.161 10.3567 114.821 10.2021 115.459C10.4677 115.48 10.7311 115.5 11.0011 115.5C17.0775 115.5 22 110.577 22 104.501C22 104.231 21.9804 103.968 21.9586 103.702C21.3207 103.857 20.6611 103.946 19.984 103.946C17.7372 103.946 15.621 103.069 14.0273 101.475C12.4336 99.8812 11.5563 97.765 11.5563 95.5139C11.5563 94.8389 11.6455 94.1814 11.8001 93.5435C11.5345 93.5218 11.2689 93.5 11.0011 93.5ZM13.6137 93.8266C13.4721 94.3709 13.3894 94.9369 13.3894 95.5139C13.3894 97.2773 14.0774 98.932 15.3227 100.179C16.568 101.425 18.2227 102.113 19.984 102.113C20.5653 102.113 21.1313 102.03 21.6756 101.886C20.7046 97.9152 17.5848 94.7976 13.6137 93.8266ZM2.01385 106.889C1.43691 106.889 0.870856 106.972 0.32657 107.114C1.29758 111.085 4.41524 114.205 8.38634 115.176C8.53003 114.631 8.61277 114.065 8.61277 113.484C8.61277 111.723 7.92479 110.068 6.67947 108.823C5.43196 107.577 3.77734 106.889 2.01385 106.889Z" fill="#C2C2C2"/>
<path d="M68.0003 114.5C66.3425 114.5 65.0006 115.844 65.0006 117.5C65.0006 119.157 66.3425 120.499 68.0003 120.499C69.6557 120.499 71 119.157 71 117.5C71 115.844 69.6557 114.5 68.0003 114.5ZM68.0003 122.502C67.9647 122.502 67.9338 122.502 67.9029 122.504C67.8982 122.504 67.8982 122.504 67.8934 122.504C67.5087 122.509 67.1358 122.544 66.7938 122.601C65.0196 122.898 63.5732 124.126 62.8939 125.751L61.2195 129.769L57.5548 131.605C57.0584 131.852 56.8589 132.453 57.1059 132.947C57.3505 133.441 57.9538 133.641 58.4454 133.396L62.445 131.396C62.6635 131.289 62.8322 131.106 62.9224 130.888L64.0007 128.297V132.65L60.8347 134.892C60.1246 135.396 59.7992 136.336 60.1246 137.215C60.4262 138.015 61.2504 138.5 62.1054 138.5H64.1907C63.9009 137.685 63.8273 136.766 64.7916 135.61C65.3949 134.883 66.276 134.458 67.2189 134.505C67.644 134.529 67.8483 134.614 68.0003 134.664C68.1784 134.724 71.3135 135.719 71.3135 135.719L66.9244 136.505C66.3948 136.552 65.9957 137.004 66.0147 137.54C66.0337 138.072 66.4684 138.493 67.0004 138.5H74.0116C74.8239 138.5 75.3986 137.93 75.7026 137.22C75.895 137.032 75.9995 136.778 75.9995 136.512C75.9995 135.868 75.6884 135.263 75.1635 134.892C75.1635 134.888 75.1611 134.888 75.1611 134.892L71.9999 132.65V128.297L73.0782 130.888C73.1684 131.106 73.3371 131.289 73.5508 131.396L77.5504 133.396C78.0468 133.641 78.6477 133.441 78.8947 132.949C79.1417 132.453 78.9422 131.852 78.4482 131.605L74.7811 129.769L73.1043 125.751C72.4298 124.126 70.981 122.898 69.2068 122.601H69.2021C68.8553 122.544 68.4848 122.509 68.0929 122.504C68.0621 122.502 68.0312 122.502 68.0003 122.502Z" fill="#C2C2C2"/>
<path d="M68.0012 0.5C61.3843 0.5 56 5.88427 56 12.5012C56 19.1181 61.3843 24.5 68.0012 24.5C74.6181 24.5 80 19.1181 80 12.5012C80 5.88427 74.6181 0.5 68.0012 0.5ZM64.669 3.07932L68.0012 5.49951L71.3334 3.07932C73.1764 3.72771 74.7654 4.89861 75.9339 6.4139L74.6561 10.3399L77.9859 12.7553C77.9384 14.7622 77.3067 16.6219 76.2474 18.161H72.1148L70.8418 22.0869C69.9416 22.3529 68.9892 22.5002 68.0012 22.5002C67.0132 22.5002 66.0584 22.3529 65.1606 22.0869L63.8876 18.1657H59.7573C58.6957 16.6219 58.0639 14.7622 58.0164 12.7553L61.3439 10.3375L60.0709 6.4139C61.2346 4.89861 62.8259 3.72771 64.669 3.07932ZM68.0012 7.50168L63.2653 10.9384L65.0799 16.5008H70.9225L72.7347 10.9384L68.0012 7.50168Z" fill="#C2C2C2"/>
</svg>
