<svg xmlns="http://www.w3.org/2000/svg" width="86.467" height="22.629" viewBox="0 0 86.467 22.629">
  <path id="Forbes" d="M8.322,2.08h1.894a6.378,6.378,0,0,1,3.405.432,6.03,6.03,0,0,1,2.724,3.638c.282.8.282.8.963.515h.532V.352H.017V1.465H.748a2.126,2.126,0,0,1,1.661.781c.681,1.1.8,2.325.8,8.721,0,6.794-.149,8.455-.8,9.3A1.794,1.794,0,0,1,1.03,21c-1.013.183-1.013.166-1.013.615a.664.664,0,0,0,0,.465H11.262a1.046,1.046,0,0,0,0-.947,5.731,5.731,0,0,0-.831-.166,5.548,5.548,0,0,1-.9-.183,2.99,2.99,0,0,1-1.213-2.708,38.625,38.625,0,0,1-.249-4.767V12h.664a8.97,8.97,0,0,1,2.458.266,3.073,3.073,0,0,1,1.429,2.193l.149.515h1.013V7.611h-.93l-.149.714A2.957,2.957,0,0,1,11.2,10.518a2.774,2.774,0,0,1-1.213.083H8.073V8.807c0-1.86.1-5.78.166-6.4ZM86.06,15.252a6.03,6.03,0,0,0-3.438-2.608,8.305,8.305,0,0,1-2.973-1.661A1.661,1.661,0,0,1,79.166,9.5a1.977,1.977,0,0,1,.581-1.4,2.01,2.01,0,0,1,1.993-.548,4.186,4.186,0,0,1,2.94,3.123c.266.747.3.747.781.548l.3-.116V6.98l-.216-.1a12.84,12.84,0,0,0-5.1-.7,5.98,5.98,0,0,0-3.987,1.661,4.585,4.585,0,0,0-1.445,3.588,3.937,3.937,0,0,0,1.13,2.724,6.744,6.744,0,0,0,2.824,1.661c2.575,1.013,3.322,1.661,3.322,2.84a2.193,2.193,0,0,1-1.661,2.176,4.1,4.1,0,0,1-1.761,0,5.116,5.116,0,0,1-3.106-3.5l-.216-.532h-.3a1.329,1.329,0,0,0-.415.1h-.166v4.717h.282a17.126,17.126,0,0,0,3.455.764h1.661a6.511,6.511,0,0,0,2.143-.2,5.166,5.166,0,0,0,3.92-3.322,3.853,3.853,0,0,0,.3-1.495,4.136,4.136,0,0,0-.365-2.11ZM70.412,6.664a7.657,7.657,0,0,0-6.262.149,7.292,7.292,0,0,0-3.8,4.535A8.87,8.87,0,0,0,59.9,14.67a9.085,9.085,0,0,0,.149,1.827,7.375,7.375,0,0,0,5.963,5.947,11.628,11.628,0,0,0,2.907,0,7.973,7.973,0,0,0,2.824-1.08A4.983,4.983,0,0,0,73.5,19.7a.831.831,0,0,0-.4-.515,2.143,2.143,0,0,0-.532.282,4.751,4.751,0,0,1-2.791.781,4.435,4.435,0,0,1-3.538-1.4,3.97,3.97,0,0,1-.847-1.13,7.724,7.724,0,0,1-.814-3.322v-.648h9.2v-.332a8.154,8.154,0,0,0,0-1,6.644,6.644,0,0,0-3.372-5.764Zm-4.634,5.747H64.615v-.98c.382-2.508,1.329-4,2.492-4s1.661,1.478,1.877,4.186v.764h-1Zm-23.886-6.3a3.488,3.488,0,0,0-1.661.349,5.565,5.565,0,0,0-2.575,2.575l-.216.4V6.116h-.083c-.2,0-6.345,1.229-6.545,1.312s-.133.1-.133.4,0,.349.133.365l.648.133a1.2,1.2,0,0,1,.93.482c.415.548.5,1.512.5,5.614a32.075,32.075,0,0,1-.233,5.531,1.362,1.362,0,0,1-1.146,1.08l-.565.116H30.73v.465a.664.664,0,0,0,0,.482h9.285v-.482a1.212,1.212,0,0,0,0-.482,9.286,9.286,0,0,1-1.661-.216,1.661,1.661,0,0,1-.88-1.661,57.856,57.856,0,0,1-.166-5.947c.033-2.159,0-2.292.183-2.442a2.99,2.99,0,0,1,1.943-.615,4.335,4.335,0,0,1,1.894.482,2.492,2.492,0,0,0,.648.249s1.661-4.02,1.661-4.2a1.96,1.96,0,0,0-1.744-.664ZM30.7,13.092a7.458,7.458,0,0,0-3.422-5.913A8.638,8.638,0,0,0,19.5,6.963a7.508,7.508,0,0,0-3.638,4.319,11.1,11.1,0,0,0,0,6.378,6.96,6.96,0,0,0,1.777,3.007,6.744,6.744,0,0,0,3.837,1.86,16.743,16.743,0,0,0,2.791,0,8.786,8.786,0,0,0,1.013-.216,7.392,7.392,0,0,0,5.3-5.9A14.518,14.518,0,0,0,30.7,13.092ZM23.786,21.4c-1.661.5-2.907-1.113-3.322-4.5a31.128,31.128,0,0,1,0-5.332c.332-2.724,1.179-4.1,2.492-4.1a1.661,1.661,0,0,1,1.4.615c1.113,1.113,1.661,3.322,1.661,6.644a12.308,12.308,0,0,1-.864,5.515,2.525,2.525,0,0,1-1.362,1.08V21.4Zm29.9-14.95a5.531,5.531,0,0,0-1.412,0,6.279,6.279,0,0,0-2.608.565l-.515.216v-3.6a24.766,24.766,0,0,0,0-3.654c-.2,0-6.545,1.213-6.644,1.262a.515.515,0,0,0,0,.382c0,.349,0,.332.747.5a2.143,2.143,0,0,1,.6.233,2.043,2.043,0,0,1,.615,1.146,19.019,19.019,0,0,1,.183,3.82V21.9l.448.1c.664.149,2.541.465,3.156.532a23.255,23.255,0,0,0,3.688,0,7.525,7.525,0,0,0,6.212-4.668,11.444,11.444,0,0,0,.631-2.525,14.949,14.949,0,0,0-.116-3.5,6.4,6.4,0,0,0-4.983-5.382h0ZM49.334,21.115c0-.216-.166-7.491-.133-10.4V8.441l.482-.116a3.455,3.455,0,0,1,.98,0,1.661,1.661,0,0,1,1.03.233,4.983,4.983,0,0,1,2.143,3.787,18.272,18.272,0,0,1,0,3.638,7.99,7.99,0,0,1-1.927,4.767,2.309,2.309,0,0,1-1.179.6,2.957,2.957,0,0,1-1.013,0c-.316,0-.316-.1-.316-.233h0Z" transform="translate(0.025 0.029)" fill="#b0b0b0"/>
</svg>
