<svg id="Group_76" data-name="Group 76" xmlns="http://www.w3.org/2000/svg" width="143.715" height="28.127" viewBox="0 0 143.715 28.127">
  <g id="Group_75" data-name="Group 75" transform="translate(0 0)">
    <path id="Path_47" data-name="Path 47" d="M-103.382-426.83l-.294,5.078-2.509-.089c-.058-1.056-.115-2.074-.173-3.131h-3.905v7.485h1.692l.4-1.648h1.743v5.149h-1.712l-.43-1.7h-1.681v7.945h3.926l.38-3.436,2.642.087c.069,1.766.136,3.5.205,5.265h-12.847v-1.844l1.8-.31v-16.8l-2.016-.221v-1.826Z" transform="translate(116.163 426.83)" fill="#b0b0b0" fill-rule="evenodd"/>
    <path id="Path_48" data-name="Path 48" d="M186.213-373.154c.034-.513.065-.971.1-1.443l1.363-.3V-392.82l-1.616-.244v-1.5l4.275-.594.448,1.6a1.78,1.78,0,0,0,.172-.154,4.346,4.346,0,0,1,3.924-1.465,3.945,3.945,0,0,1,3.52,3.138,11.124,11.124,0,0,1,.458,2.4,18.516,18.516,0,0,1-.167,4.977,8.888,8.888,0,0,1-.528,1.787,4.44,4.44,0,0,1-3.965,2.811,5.521,5.521,0,0,1-2.773-.4,1.5,1.5,0,0,0-.209-.056v5.626l1.453.3c-.032.474-.063.944-.1,1.443Zm4.972-9.368a4.461,4.461,0,0,0,3.356.116.567.567,0,0,0,.4-.424c.135-.557.3-1.11.385-1.675a23.891,23.891,0,0,0,.086-5.168,7.811,7.811,0,0,0-.328-1.736,1.964,1.964,0,0,0-2.473-1.481c-.063.011-.124.03-.187.042a1.469,1.469,0,0,0-1.244,1.5q0,4.2,0,8.395Z" transform="translate(-127.97 401.281)" fill="#b0b0b0" fill-rule="evenodd"/>
    <path id="Path_49" data-name="Path 49" d="M383.23-382.095l1.5.3c-.028.519-.054,1.007-.082,1.523h-4.892c-.005-.11-.015-.217-.015-.323,0-3.251.01-6.5-.009-9.753a4.44,4.44,0,0,0-.237-1.307,1.353,1.353,0,0,0-1.094-.9,2.388,2.388,0,0,0-1.461.124,1.065,1.065,0,0,0-.732.973c-.009,3.075,0,6.15,0,9.224a.809.809,0,0,0,.035.141l1.439.294c-.031.5-.061,1-.093,1.529h-6.306v-1.521l1.406-.3v-10.575l-1.608-.184v-1.558l4.158-.594.372,1.353c.315-.238.64-.52,1-.749a4.768,4.768,0,0,1,4.367-.474,3.309,3.309,0,0,1,2.159,2.776,6.731,6.731,0,0,1,.086,1.1q.011,4.18,0,8.36Z" transform="translate(-277.436 401.274)" fill="#b0b0b0" fill-rule="evenodd"/>
    <path id="Path_50" data-name="Path 50" d="M-37.791-382.024l1.45.295-.091,1.525H-42.8c.027-.5.053-.987.081-1.52l1.351-.294c.1-.343.126-10.044.02-10.584l-1.6-.18v-1.555l4.168-.6.378,1.385c.117-.1.249-.225.385-.341a4.9,4.9,0,0,1,4.537-1.054,3.318,3.318,0,0,1,2.579,2.788,5.874,5.874,0,0,1,.1,1.144c.008,2.8,0,5.6,0,8.405v.578l1.5.294c-.012.256-.029.5-.035.752s0,.5,0,.781h-4.923v-.556q0-4.611,0-9.222a7.3,7.3,0,0,0-.087-1.1,1.552,1.552,0,0,0-1.494-1.437,1.772,1.772,0,0,0-1.707.516,1.093,1.093,0,0,0-.266.74c.011,2.338.006,4.675.006,7.013,0,.576,0,1.152,0,1.729C-37.813-382.36-37.8-382.2-37.791-382.024Z" transform="translate(57.025 401.207)" fill="#b0b0b0" fill-rule="evenodd"/>
    <path id="Path_51" data-name="Path 51" d="M513.849-392.816l-1.616-.16v-1.372l4.757-.542a5.518,5.518,0,0,1,.4,1.745c-.014,3.571-.007,7.142-.007,10.712v.578l1.478.3c-.053.516-.1,1-.156,1.52h-4.1l-.386-1.181c-.134.1-.234.173-.322.253a4.843,4.843,0,0,1-5.343.68,3.43,3.43,0,0,1-1.912-2.659,7.055,7.055,0,0,1-.1-1.193c-.008-2.69,0-5.38,0-8.07v-.6l-1.622-.175v-1.366l4.735-.549a6.6,6.6,0,0,1,.361,1.584q-.011,4.228,0,8.455a8.875,8.875,0,0,0,.075,1.147,1.765,1.765,0,0,0,1.837,1.665,4.362,4.362,0,0,0,1.087-.152,1.526,1.526,0,0,0,.88-1.152q0-4.66,0-9.32A.785.785,0,0,0,513.849-392.816Z" transform="translate(-385.55 401.033)" fill="#b0b0b0" fill-rule="evenodd"/>
    <path id="Path_52" data-name="Path 52" d="M130.049-386.806a5.4,5.4,0,0,0,.822,3.19,2.793,2.793,0,0,0,2.386,1.287,6.691,6.691,0,0,0,2.753-.547c.116-.049.235-.092.4-.156l.6,1.368a9.4,9.4,0,0,1-.781.525,7.184,7.184,0,0,1-5.6.716,5.422,5.422,0,0,1-3.432-3.132,10.135,10.135,0,0,1-.806-5.251,9.342,9.342,0,0,1,.8-3.194,5.248,5.248,0,0,1,3.78-3.176,4.879,4.879,0,0,1,4.685,1.141,6.089,6.089,0,0,1,1.534,2.781,11.752,11.752,0,0,1,.424,3.271,3.892,3.892,0,0,1-.327,1.087Zm4.367-1.891c-.039-.445-.06-.81-.1-1.173a6.494,6.494,0,0,0-.7-2.471,1.631,1.631,0,0,0-2.114-.807,1.1,1.1,0,0,0-.742.674,11.082,11.082,0,0,0-.775,3.685,1.469,1.469,0,0,0,.053.3Z" transform="translate(-79.725 401.388)" fill="#b0b0b0" fill-rule="evenodd"/>
    <path id="Path_53" data-name="Path 53" d="M455.536-386.9l-7.228.087a4.869,4.869,0,0,0,.12,1.483,4.257,4.257,0,0,0,.9,1.986,2.733,2.733,0,0,0,2.091,1.007,6.355,6.355,0,0,0,2.671-.479c.175-.072.354-.137.569-.22l.6,1.387c-.079.052-.159.1-.237.157a7.293,7.293,0,0,1-5.1,1.289,5.392,5.392,0,0,1-4.605-3.649,10.4,10.4,0,0,1,.076-8.045,5.146,5.146,0,0,1,3.8-3.284,5.084,5.084,0,0,1,4.138.661,5.209,5.209,0,0,1,1.847,2.511,10.24,10.24,0,0,1,.662,4A4.77,4.77,0,0,1,455.536-386.9Zm-2.884-1.8a10.87,10.87,0,0,0-.441-2.838,4,4,0,0,0-.671-1.256c-.568-.735-2.331-.586-2.6.421a19.444,19.444,0,0,0-.607,2.454,4.484,4.484,0,0,0-.057,1.422Z" transform="translate(-336.775 401.393)" fill="#b0b0b0" fill-rule="evenodd"/>
    <path id="Path_54" data-name="Path 54" d="M321.9-386.939l-7.235.089a5.217,5.217,0,0,0,1.041,3.466,2.686,2.686,0,0,0,2.043,1.006,6.414,6.414,0,0,0,2.72-.474c.175-.072.352-.141.564-.225l.588,1.36c-.168.124-.324.255-.494.362a7.258,7.258,0,0,1-5.382,1.027,5.337,5.337,0,0,1-3.834-3.063,9.82,9.82,0,0,1-.925-5.179,9.719,9.719,0,0,1,.825-3.48,5.263,5.263,0,0,1,2.83-2.866,5.38,5.38,0,0,1,4.725.149,4.821,4.821,0,0,1,2.094,2.484,10.59,10.59,0,0,1,.768,4.221A4.143,4.143,0,0,1,321.9-386.939Zm-2.865-1.8c-.044-.482-.067-.909-.123-1.33a6.16,6.16,0,0,0-.665-2.284,1.654,1.654,0,0,0-2.28-.783.934.934,0,0,0-.535.505,9.9,9.9,0,0,0-.76,2.954c-.043.358-.064.718-.1,1.147Z" transform="translate(-228.863 401.432)" fill="#b0b0b0" fill-rule="evenodd"/>
    <path id="Path_55" data-name="Path 55" d="M78.154-394.276l.326,1.3c.17-.1.34-.21.514-.311a8.126,8.126,0,0,1,3.277-1,1.25,1.25,0,0,1,1.282.59l-.439,3.919-2.355-.1-.259-2.1a3.04,3.04,0,0,0-1.5.524v10.091l1.459.332c-.028.492-.054.964-.083,1.472H74.082v-1.462l1.315-.336v-10.595l-1.514-.175v-1.562Z" transform="translate(-37.357 400.551)" fill="#b0b0b0" fill-rule="evenodd"/>
    <path id="Path_56" data-name="Path 56" d="M581.352-379.575c.023-.516.045-.992.068-1.488l1.305-.322v-10.591l-1.541-.187v-1.555l4.289-.591.316,1.237a18.186,18.186,0,0,1,1.819-.82,15.928,15.928,0,0,1,1.915-.417,1.189,1.189,0,0,1,1.347.585l-.436,3.906-2.35-.088c-.091-.719-.178-1.409-.275-2.176l-1.481.516v10.176l1.456.33-.094,1.485Z" transform="translate(-447.155 400.587)" fill="#b0b0b0" fill-rule="evenodd"/>
    <path id="Path_57" data-name="Path 57" d="M265.108-392.06l-1.5.551v10.155l1.487.332-.123,1.475h-6.278v-1.468l1.334-.338v-10.593l-1.534-.176v-1.558l4.257-.6.361,1.266c.413-.216.816-.443,1.233-.641a8.242,8.242,0,0,1,2.452-.626,1.3,1.3,0,0,1,1.369.571c-.137,1.252-.279,2.551-.43,3.924l-2.359-.086C265.289-390.589,265.206-391.266,265.108-392.06Z" transform="translate(-186.485 400.551)" fill="#b0b0b0" fill-rule="evenodd"/>
    <path id="Path_58" data-name="Path 58" d="M32.574-408.772v2.978h2.619c-.058.663-.11,1.255-.164,1.869l-2.353.269a3.15,3.15,0,0,0-.047.38q0,4.3.011,8.593a4.27,4.27,0,0,0,.027.574,1.084,1.084,0,0,0,1.1.993c.477.014.955,0,1.49,0l.156,1.542a3.007,3.007,0,0,1-1.188.4,7.4,7.4,0,0,1-2.669.077,2.777,2.777,0,0,1-2.419-2.535,7.592,7.592,0,0,1-.035-.863q0-4.32,0-8.641c0-.171-.023-.342-.035-.521l-1.653-.275c.027-.6.053-1.18.082-1.823l1.863-.091.83-2.807Z" transform="translate(0.183 412.243)" fill="#b0b0b0" fill-rule="evenodd"/>
  </g>
</svg>
