<svg width="32" height="32" viewBox="0 0 32 32" fill="none" xmlns="http://www.w3.org/2000/svg">
<circle cx="16" cy="16" r="16" fill="#F3FBF5"/>
<path d="M14.5354 8C14.2033 8 13.9637 8.07435 13.815 8.22305C13.6679 8.3701 13.5952 8.61132 13.5952 8.95167V14.7047C13.5952 15.0335 13.6679 15.2747 13.8117 15.425C13.9538 15.577 14.195 15.653 14.5321 15.653H16.8749C17.2764 15.653 17.6299 15.6332 17.9323 15.5936C18.2363 15.5523 18.5023 15.4845 18.7353 15.387C19.1087 15.2235 19.4044 14.9707 19.6242 14.6287C19.8423 14.2834 19.953 13.8967 19.953 13.4705C19.953 12.5469 19.4507 11.9223 18.4428 11.6035C19.2095 11.2482 19.5928 10.6881 19.5928 9.92152C19.5928 9.69847 19.5564 9.48699 19.4837 9.28872C19.4094 9.08715 19.3036 8.90541 19.1632 8.74019C19.0244 8.57332 18.8658 8.43784 18.6841 8.32879C18.4726 8.20157 18.233 8.114 17.9637 8.06774C17.696 8.02148 17.3772 8 17.0137 8H14.5354ZM15.1467 9.16316H16.4024C16.9674 9.16316 17.3854 9.22924 17.6597 9.35316C17.9373 9.48203 18.0727 9.73978 18.0727 10.1247C18.0727 10.3081 18.0298 10.4701 17.9422 10.6138C17.8332 10.8203 17.6713 10.9591 17.4614 11.0335C17.2499 11.1062 16.9509 11.1425 16.5643 11.1425H15.1467V9.16316ZM15.1467 12.2528H16.7576C17.2962 12.2528 17.7026 12.3404 17.9753 12.5138C18.2462 12.6873 18.38 12.9682 18.38 13.3565C18.38 14.1099 17.858 14.4899 16.8088 14.4899H15.1467V12.2528ZM10.7353 13.5663C10.5287 13.5663 10.3586 13.6059 10.2198 13.6853C10.0777 13.7613 9.96369 13.8653 9.87943 13.9926C9.79517 14.1231 9.71421 14.2834 9.63821 14.4767C9.56221 14.6683 9.49612 14.8352 9.44159 14.974L7.55147 19.7803C7.47546 19.9703 7.41764 20.1206 7.38294 20.2297C7.3499 20.3371 7.33337 20.4411 7.33337 20.5419C7.33337 20.7154 7.40772 20.8724 7.55147 21.0112C7.69521 21.1499 7.86043 21.2177 8.05043 21.2177C8.27183 21.2177 8.43209 21.1532 8.52957 21.0227C8.62705 20.8938 8.74436 20.6444 8.88315 20.2726L9.23507 19.3259H12.247L12.5973 20.2528C12.6469 20.3668 12.7014 20.5006 12.7691 20.6493C12.8336 20.7997 12.8964 20.9104 12.9525 20.9814C13.0071 21.0558 13.0814 21.1119 13.1624 21.1532C13.2466 21.1962 13.3507 21.2177 13.4664 21.2177C13.6679 21.2177 13.8414 21.145 13.9852 21.0029C14.1273 20.8625 14.2 20.7038 14.2 20.5337C14.2 20.3668 14.124 20.1041 13.972 19.739L12.0405 14.9657C11.948 14.7261 11.872 14.5361 11.8125 14.3924C11.7547 14.247 11.682 14.1148 11.5977 13.9893C11.5135 13.8653 11.3995 13.7646 11.2574 13.6853C11.1186 13.6059 10.9451 13.5663 10.7353 13.5663ZM10.7254 15.1442L11.8423 18.1991H9.62995L10.7254 15.1442ZM20.9625 16.3486C20.4701 16.3486 20.0075 16.4345 19.5729 16.6097C19.1384 16.7865 18.7601 17.0409 18.4379 17.3763C18.114 17.71 17.8662 18.1148 17.6927 18.5841C17.5192 19.0549 17.4317 19.5869 17.4317 20.185C17.4317 20.5518 17.4664 20.8972 17.5358 21.2259C17.6035 21.5531 17.7093 21.8571 17.8447 22.1446C17.9835 22.4321 18.1487 22.6914 18.3454 22.9244C18.5618 23.1805 18.8047 23.387 19.0641 23.544C19.3251 23.7026 19.6159 23.8166 19.9348 23.8893C20.2553 23.962 20.6105 24 21.0005 24C21.5159 24 21.967 23.919 22.3553 23.7538C22.7419 23.5869 23.0591 23.3722 23.3102 23.1095C23.5564 22.8451 23.7382 22.5774 23.8555 22.3015C23.9728 22.0273 24.029 21.7728 24.029 21.5366C24.029 21.3515 23.9678 21.1962 23.839 21.0706C23.7117 20.9467 23.5597 20.8839 23.3796 20.8839C23.1715 20.8839 23.0195 20.9467 22.9236 21.069C22.8311 21.1912 22.7518 21.3515 22.6907 21.5465C22.537 21.9595 22.3123 22.2718 22.0166 22.4866C21.7175 22.7014 21.3507 22.8071 20.9211 22.8071C20.5246 22.8071 20.1793 22.7146 19.8803 22.5246C19.5845 22.3379 19.3549 22.052 19.1946 21.672C19.0343 21.2887 18.9534 20.8112 18.9534 20.2346C18.9534 19.3722 19.1351 18.7096 19.5002 18.2404C19.8637 17.7728 20.3561 17.5382 20.9724 17.5382C21.359 17.5382 21.6845 17.6307 21.9488 17.8125C22.2115 17.9926 22.4428 18.2668 22.6378 18.6336C22.7551 18.8567 22.8608 19.012 22.9567 19.1045C23.0542 19.197 23.1946 19.24 23.3879 19.24C23.5597 19.24 23.7068 19.1739 23.829 19.0434C23.9513 18.9112 24.0075 18.7608 24.0075 18.5874C24.0075 18.2751 23.8852 17.943 23.6357 17.5894C23.3862 17.2392 23.0294 16.9467 22.5618 16.7071C22.0926 16.4676 21.5589 16.3486 20.9625 16.3486Z" fill="#25772F"/>
</svg>
