<svg width="32" height="32" viewBox="0 0 32 32" fill="none" xmlns="http://www.w3.org/2000/svg">
<circle cx="16" cy="16" r="16" fill="#F3FBF5"/>
<path d="M14.001 8C13.2631 8 12.6678 8.59693 12.6678 9.3332C12.6678 9.34428 12.6694 9.35695 12.6694 9.36804C12.557 9.35379 12.4477 9.3332 12.3337 9.3332C10.6775 9.3332 9.3332 10.6775 9.3332 12.3337C9.3332 12.6488 9.39337 12.9433 9.48521 13.2299C8.58902 13.8252 8 14.8449 8 16.0008C8 17.1567 8.58902 18.1748 9.48521 18.7717C9.39337 19.0583 9.3332 19.3528 9.3332 19.6679C9.3332 21.2196 10.5191 22.4831 12.0313 22.6367C12.1754 23.4126 12.8499 24 13.6669 24C14.5884 24 15.3342 23.2558 15.3342 22.3343V22.0002C15.3342 21.2655 14.7341 20.667 14.001 20.667C13.6305 20.667 13.3344 20.3677 13.3344 20.0004C13.3344 19.6331 13.6305 19.3338 14.001 19.3338C14.4871 19.3338 14.9399 19.4747 15.3342 19.7059V13.9788C14.7768 14.4063 14.0897 14.6676 13.3344 14.6676C12.9639 14.6676 12.6678 14.3683 12.6678 14.001C12.6678 13.6336 12.9639 13.3344 13.3344 13.3344C14.4348 13.3344 15.3342 12.435 15.3342 11.333V9.3332C15.3342 8.59693 14.7373 8 14.001 8ZM18.0006 8C17.2627 8 16.6674 8.59693 16.6674 9.3332V11.333C16.6674 12.435 17.5652 13.3344 18.6672 13.3344C19.0377 13.3344 19.3338 13.6336 19.3338 14.001C19.3338 14.3683 19.0377 14.6676 18.6672 14.6676C17.9119 14.6676 17.2247 14.4095 16.6674 13.982V22.3343C16.6674 23.2558 17.4116 24 18.3331 24C19.1517 24 19.8262 23.4126 19.9687 22.6367C21.4492 22.4847 22.605 21.2734 22.6573 19.7708C22.2425 19.9165 21.7975 20.0004 21.3336 20.0004C20.9647 20.0004 20.667 19.7011 20.667 19.3338C20.667 18.9665 20.9647 18.6672 21.3336 18.6672C22.8046 18.6672 24 17.4717 24 16.0008C24 14.8449 23.4126 13.8252 22.5164 13.2299C22.6066 12.9433 22.6668 12.6488 22.6668 12.3337C22.6668 10.6775 21.3241 9.3332 19.6679 9.3332C19.5523 9.3332 19.443 9.35379 19.3306 9.36804C19.3306 9.35695 19.3338 9.34428 19.3338 9.3332C19.3338 8.59693 18.7369 8 18.0006 8Z" fill="#168D24"/>
</svg>
