<svg width="32" height="32" viewBox="0 0 32 32" fill="none" xmlns="http://www.w3.org/2000/svg">
<circle cx="16" cy="16" r="16" fill="#F3FBF5"/>
<path d="M12.5639 8C11.4678 8 10.5734 8.8228 10.439 9.87943C10.3279 9.86335 10.2183 9.84582 10.1028 9.84582C8.91321 9.84582 7.94865 10.8104 7.94865 12C7.94865 12.2908 8.0071 12.5656 8.11233 12.817C7.63882 13.2115 7.33337 13.7976 7.33337 14.4611C7.33337 15.2357 7.74404 15.9079 8.35493 16.2879C8.1021 16.6387 7.94865 17.0698 7.94865 17.5374C7.94865 18.7285 8.91321 19.6916 10.1028 19.6916C10.2709 19.6916 10.4346 19.6683 10.5924 19.6317C10.6143 19.6829 10.6465 19.7296 10.6743 19.7779C10.6728 19.7808 10.6655 19.7852 10.6655 19.7852C10.6655 19.7852 11.6403 22.1527 10.4097 24H12.8723C12.8723 24 12.8737 21.2832 15.3115 20.9207C15.3188 20.9207 15.3261 20.9222 15.3334 20.9222C16.3096 20.9222 17.1456 20.3507 17.5446 19.528C17.8135 19.6288 18.1043 19.6916 18.4097 19.6916C19.595 19.6916 20.58 18.8557 20.8153 17.7406C21.0301 17.802 21.2537 17.8458 21.4861 17.8458C22.8467 17.8458 23.9472 16.7453 23.9472 15.3847C23.9472 15.053 23.88 14.7358 23.7601 14.445C24.2439 14.1133 24.5639 13.555 24.5639 12.9236C24.5639 12.0891 24.0056 11.392 23.2457 11.164C23.0177 10.4041 22.3206 9.84582 21.4861 9.84582C21.4306 9.84582 21.3765 9.85897 21.3224 9.86335C20.9454 8.78188 19.9267 8 18.7181 8C18.1481 8 17.6191 8.17391 17.1792 8.4662C16.7393 8.17391 16.2102 8 15.6403 8C15.0206 8 14.455 8.20899 13.9947 8.55243C13.6147 8.21483 13.1149 8 12.5639 8ZM15.1112 9.84582H15.5541C15.633 9.84582 15.6987 9.90427 15.7075 9.98319L15.7265 10.1396C15.7484 10.3412 15.9004 10.502 16.0977 10.5429C16.2278 10.5692 16.3549 10.6028 16.4777 10.6438C16.6691 10.7066 16.8811 10.6438 16.9994 10.4815L17.093 10.3559C17.1412 10.2916 17.2274 10.274 17.2946 10.312L17.679 10.5342C17.7462 10.5751 17.7755 10.6584 17.7433 10.7315L17.679 10.8805C17.5972 11.0647 17.6498 11.2766 17.7988 11.414C17.8953 11.5002 17.9874 11.5908 18.0736 11.6872C18.2095 11.8392 18.4243 11.8889 18.61 11.8071L18.7561 11.7457C18.8277 11.7121 18.9125 11.7399 18.9505 11.8071L19.1741 12.1929C19.2121 12.2616 19.196 12.3478 19.1302 12.3946L19.006 12.4881C18.8423 12.608 18.7795 12.817 18.8423 13.0099C18.8832 13.1341 18.9169 13.2598 18.9432 13.3898C18.9841 13.5871 19.1448 13.7406 19.3451 13.7625L19.5029 13.7786C19.5804 13.7859 19.6403 13.8531 19.6403 13.932V14.3749C19.6403 14.4538 19.5833 14.5195 19.5029 14.5283C19.4576 14.5342 19.4021 14.5385 19.3451 14.5459C19.1448 14.5678 18.9841 14.7212 18.9432 14.9185C18.9169 15.0486 18.8832 15.1728 18.8423 15.2985C18.7795 15.49 18.8423 15.6989 19.006 15.8188L19.1302 15.9138C19.196 15.9591 19.2121 16.0453 19.1741 16.1155L18.9505 16.4998C18.9125 16.567 18.8277 16.5963 18.7561 16.5641L18.61 16.4998C18.4243 16.418 18.2095 16.4691 18.0736 16.6182C17.9874 16.7161 17.8953 16.8067 17.7988 16.8944C17.6498 17.0303 17.5972 17.2422 17.679 17.4293L17.7433 17.5769C17.7755 17.6485 17.7462 17.7333 17.679 17.7713L17.2946 17.992C17.2245 18.0329 17.1383 18.0168 17.093 17.951L16.9994 17.8268C16.8811 17.6631 16.6691 17.6003 16.4777 17.6631C16.3549 17.7041 16.2278 17.7377 16.0977 17.764C15.9004 17.8049 15.7484 17.9657 15.7265 18.1659L15.7075 18.3237C15.6987 18.4041 15.633 18.4611 15.5541 18.4611H15.1112C15.0323 18.4611 14.968 18.4041 14.9578 18.3237L14.9388 18.1659C14.9169 17.9657 14.7663 17.8049 14.569 17.764C14.439 17.7377 14.3118 17.7041 14.1891 17.6631C13.9961 17.6003 13.7857 17.6631 13.6673 17.8268L13.5738 17.951C13.5285 18.0168 13.4408 18.0329 13.3721 17.992L12.9863 17.7713C12.9191 17.7333 12.8913 17.6485 12.922 17.5769L12.9863 17.4293C13.0681 17.2422 13.0155 17.0303 12.8664 16.8944C12.77 16.8067 12.6794 16.7161 12.5931 16.6182C12.4558 16.4691 12.2424 16.418 12.0568 16.4998L11.9106 16.5641C11.8376 16.5963 11.7543 16.567 11.7134 16.4998L11.4912 16.1155C11.4532 16.0453 11.4708 15.9591 11.5351 15.9138L11.6607 15.8188C11.823 15.6989 11.8858 15.49 11.823 15.2985C11.782 15.1728 11.7484 15.0486 11.7221 14.9185C11.6812 14.7212 11.5204 14.5678 11.3188 14.5459L11.1624 14.5283C11.0835 14.5195 11.025 14.4538 11.025 14.3749V13.932C11.025 13.8531 11.0835 13.7888 11.1887 13.7757L11.3188 13.7596C11.5204 13.7377 11.6812 13.5871 11.7221 13.3869C11.7484 13.2598 11.782 13.1326 11.823 13.0099C11.8858 12.817 11.823 12.605 11.6607 12.4852L11.5351 12.3946C11.4708 12.3464 11.4532 12.2601 11.4912 12.1929L11.7134 11.8071C11.7543 11.7384 11.8376 11.7121 11.9106 11.7428L12.0568 11.8071C12.2424 11.8889 12.4558 11.8363 12.5931 11.6872C12.6794 11.5908 12.77 11.4973 12.8664 11.411C13.0155 11.2766 13.0681 11.0632 12.9863 10.8776L12.922 10.7315C12.8913 10.6584 12.9191 10.5722 12.9863 10.5342L13.3721 10.312C13.4393 10.274 13.5256 10.2916 13.5738 10.3529L13.6673 10.4815C13.7857 10.6438 13.9961 10.7037 14.1891 10.6438C14.3118 10.6028 14.439 10.5692 14.569 10.5429C14.7663 10.5005 14.9169 10.3412 14.9388 10.1396L14.9578 9.98027C14.968 9.90428 15.0323 9.84582 15.1112 9.84582ZM15.3334 11.6916C13.9728 11.6916 12.8723 12.7936 12.8723 14.1542C12.8723 15.5148 13.9728 16.6153 15.3334 16.6153C16.694 16.6153 17.7945 15.5148 17.7945 14.1542C17.7945 12.7936 16.694 11.6916 15.3334 11.6916ZM15.3334 12.9236C16.0129 12.9236 16.5639 13.4731 16.5639 14.1542C16.5639 14.8338 16.0129 15.3847 15.3334 15.3847C14.6523 15.3847 14.1028 14.8338 14.1028 14.1542C14.1028 13.4731 14.6523 12.9236 15.3334 12.9236Z" fill="#168D24"/>
</svg>
