<svg xmlns="http://www.w3.org/2000/svg" width="48" height="51" viewBox="0 0 48 51">
  <g id="Group_362" data-name="Group 362" transform="translate(-798 -613)">
    <circle id="Ellipse_29" data-name="Ellipse 29" cx="24" cy="24" r="24" transform="translate(798 616)" fill="#ddefe2"/>
    <circle id="Ellipse_29-2" data-name="Ellipse 29" cx="8.208" cy="8.208" r="8.208" transform="translate(829 613)" fill="#25772f"/>
    <text id="_2" data-name="2" transform="translate(834 624)" fill="#fff" font-size="10" font-family="Helvetica-Bold, Helvetica" font-weight="700"><tspan x="0" y="0">2</tspan></text>
    <g id="database" transform="translate(812 630)">
      <path id="Path_97" data-name="Path 97" d="M0,42.8v2.734a.313.313,0,0,0,.039.15c.394,1.632,3.916,2.85,8.294,2.85s7.885-1.213,8.292-2.839a.329.329,0,0,0,.042-.161V42.8c-1.378.97-4.218,1.733-8.333,1.733S1.378,43.769,0,42.8Z" transform="translate(0 -28.533)" fill="#25772f"/>
      <path id="Path_98" data-name="Path 98" d="M52.4,41.658a.385.385,0,0,1-.044.18,1.807,1.807,0,0,1-.253.569c1.435-.5,2.389-1.2,2.589-2a.329.329,0,0,0,.042-.162V37.51l-2.333,1.1Z" transform="translate(-34.738 -25.007)" fill="#25772f"/>
      <path id="Path_99" data-name="Path 99" d="M9.2,32.579q-.435.014-.869.014c-.29,0-.581,0-.871-.014a19.563,19.563,0,0,1-5.8-.906A6.8,6.8,0,0,1,0,30.889v3.133c.949.99,4.131,1.9,8.333,1.9s7.385-.913,8.333-1.9V30.889a6.829,6.829,0,0,1-1.675.789A19.589,19.589,0,0,1,9.2,32.579Z" transform="translate(0 -20.593)" fill="#25772f"/>
      <path id="Path_100" data-name="Path 100" d="M52,26.733v3.249a6.074,6.074,0,0,0,2.667-1.249V25.6a6.829,6.829,0,0,1-1.675.789Z" transform="translate(-34.667 -17.066)" fill="#25772f"/>
      <path id="Path_101" data-name="Path 101" d="M0,18.979v3.133c.879.918,3.678,1.77,7.429,1.889l.116,0,.327.008c.152,0,.306,0,.461,0s.309,0,.461,0L9.122,24l.116,0c3.751-.12,6.549-.972,7.429-1.89V18.979c-1.622,1.115-5.052,1.7-8.333,1.7S1.622,20.093,0,18.979Z" transform="translate(0 -12.653)" fill="#25772f"/>
      <path id="Path_102" data-name="Path 102" d="M8.333,5.29C3.308,5.29.434,6.7.049,8.127A.327.327,0,0,0,0,8.29v.769c.945.987,4.105,1.9,8.333,1.9s7.388-.911,8.333-1.9V8.29a.307.307,0,0,0-.045-.153C16.248,6.7,13.372,5.29,8.333,5.29Z" transform="translate(0 -3.527)" fill="#25772f"/>
      <path id="Path_103" data-name="Path 103" d="M52,17.292v.78a6.06,6.06,0,0,0,2.667-1.251V13.688A8.484,8.484,0,0,1,52,14.761Z" transform="translate(-34.667 -9.125)" fill="#25772f"/>
      <path id="Path_104" data-name="Path 104" d="M29.075,2.847C28.7,1.414,25.825,0,20.787,0c-3.376,0-5.775.636-7.107,1.486A20.046,20.046,0,0,1,17.787,1.1c5.24,0,8.231,1.58,8.62,3.182a.362.362,0,0,1,.047.171v.567A6.056,6.056,0,0,0,29.12,3.769V3A.307.307,0,0,0,29.075,2.847Z" transform="translate(-9.12)" fill="#25772f"/>
    </g>
  </g>
</svg>
