<svg xmlns="http://www.w3.org/2000/svg" width="48" height="51" viewBox="0 0 48 51">
  <g id="Group_363" data-name="Group 363" transform="translate(-798 -856)">
    <circle id="Ellipse_29" data-name="Ellipse 29" cx="24" cy="24" r="24" transform="translate(798 859)" fill="#ddefe2"/>
    <circle id="Ellipse_29-2" data-name="Ellipse 29" cx="8.208" cy="8.208" r="8.208" transform="translate(829 856)" fill="#25772f"/>
    <text id="_4" data-name="4" transform="translate(834 868)" fill="#fff" font-size="10" font-family="Helvetica-Bold, Helvetica" font-weight="700"><tspan x="0" y="0">4</tspan></text>
    <path id="Path_22" data-name="Path 22" d="M67.145,71.173a.89.89,0,0,1-1.256,0l-4.444-4.447A.888.888,0,0,1,62.7,65.47l3.817,3.817,8.771-8.773a5.8,5.8,0,0,0-3.923-1.529,6.338,6.338,0,0,0-4.848,2.667,6.338,6.338,0,0,0-4.848-2.667,5.82,5.82,0,0,0-5.821,5.821c0,5.635,6.6,11.026,9.6,13.38l0-.006a1.747,1.747,0,0,0,2.133,0l0,.006c3-2.354,9.6-7.745,9.6-13.38a5.793,5.793,0,0,0-.773-2.9Z" transform="translate(755.152 814.014)" fill="#25772f"/>
  </g>
</svg>
