<?xml version="1.0" encoding="utf-8"?>
<!-- Generator: Adobe Illustrator 25.2.0, SVG Export Plug-In . SVG Version: 6.00 Build 0)  -->
<svg version="1.1" id="Layer_1" xmlns:v="https://vecta.io/nano"
	 xmlns="http://www.w3.org/2000/svg" xmlns:xlink="http://www.w3.org/1999/xlink" x="0px" y="0px" viewBox="0 0 1097.4 627.2"
	 style="enable-background:new 0 0 1097.4 627.2;" xml:space="preserve">
<style type="text/css">
	.st0{fill:#F2F6FF;stroke:#3F87CF;}
	.st1{fill:none;stroke:#000000;stroke-miterlimit:10;}
	.st2{fill:#F2F6FF;stroke:#000000;stroke-miterlimit:10;}
	.st3{fill:#3F87CF;}
	.st4{fill:#F2F6FF;}
	.st5{fill:#02CBCE;}
	.st6{fill:none;stroke:#000000;}
	.st7{fill:none;stroke:#000000;stroke-width:1;stroke-miterlimit:4;}
	.st8{fill:#2E233D;}
	.st9{fill:#FFFFFF;stroke:#000000;stroke-width:0.5;stroke-miterlimit:10;}
	.st10{fill:#282230;}
	.st11{fill:none;stroke:#FFFFFF;stroke-linecap:round;stroke-miterlimit:10;}
	.st12{fill:#00C9D1;}
	.st13{fill:#FFFFFF;stroke:#000000;stroke-miterlimit:10;}
	.st14{fill:#B200D9;}
	.st15{fill:#2E2340;stroke:#000000;stroke-width:0.5;stroke-miterlimit:10;}
	.st16{fill:#FFFFFF;stroke:#000000;stroke-width:0.5;stroke-linejoin:round;stroke-miterlimit:10;}
	.st17{fill:#006BE6;}
	.st18{fill:#FFFFFF;stroke:#000000;stroke-width:0.75;stroke-miterlimit:10;}
	.st19{fill:#302840;}
	.st20{fill:#FFFFFF;stroke:#000000;stroke-width:0.75;stroke-miterlimit:4;}
	.st21{fill:#2A2131;}
	.st22{fill:#FFFFFF;stroke:#000000;stroke-width:0.75;stroke-linecap:round;stroke-miterlimit:10;}
	.st23{fill:#00C9D1;stroke:#FFFFFF;stroke-miterlimit:10;}
	.st24{fill:none;stroke:#FFFFFF;stroke-miterlimit:10;}
	.st25{fill:#4590E0;}
	.st26{fill:none;stroke:#22211B;stroke-miterlimit:10;}
	.st27{fill:#CEEDE6;}
	.st28{fill:none;stroke:#22211B;}
</style>
<ellipse class="st0" cx="360.2" cy="298.1" rx="13.5" ry="14.6"/>
<g>
	<path class="st1" d="M610.3,376.5L596.9,492c-0.5,4.5,2.1,8.8,6.4,10.3l41.2,15c6.9,2.5,14-3.2,13-10.5l-18-132.7"/>
	<g>
		<path class="st2" d="M316.4,378.9l70.2,19.6l261.8-23.8l54.7-91l-25.6-88.9l-76.1-17L336,204l-51.1,77.3L316.4,378.9z"/>
		<path class="st2" d="M336,204l80.3,16.1l26.2,90.4l-55.9,88"/>
		<path class="st2" d="M416.3,220.1L677.2,195 M442.5,310.5l260.6-26.8"/>
		<path class="st2" d="M503.4,236.9l110-12l5.5,31.7L512,268.7L503.4,236.9z"/>
		<path class="st2" d="M529.6,233.8l7.6,31.8"/>
	</g>
	<path class="st1" d="M352.3,310.8l-41.9,196.5c-1.5,7.1,2.5,14.2,9.4,16.6l36.5,12.3c9.5,3.2,19.2-4.1,18.9-14.1l-7.8-211"/>
</g>
<circle class="st3" cx="625.4" cy="341.5" r="12.5"/>
<ellipse transform="matrix(0.9886 -0.1509 0.1509 0.9886 -44.4091 97.3464)" class="st4" cx="619.2" cy="341.3" rx="5.2" ry="5.1"/>
<g>
	<path class="st3" d="M622.1,340.4l-1.8-1.5l-1.2,1c0.1,0.1,0.2,0.1,0.4,0.3c0.4,0.3,0.6,0.7,0.8,1.1c0.2,0.6,0.1,1.3-0.3,1.8
		c-0.8,0.9-2.1,1-3.1,0.1c-0.5-0.4-0.8-0.9-0.9-1.3l0.6-0.3c0.1,0.3,0.4,0.7,0.8,1.1c0.6,0.5,1.4,0.5,2-0.1c0.5-0.6,0.5-1.4-0.5-2.2
		c-0.3-0.2-0.5-0.4-0.7-0.5l2.2-2l2.2,1.9L622.1,340.4L622.1,340.4z"/>
	<circle class="st3" cx="557.2" cy="319.1" r="12.5"/>
</g>
<ellipse transform="matrix(0.9886 -0.1509 0.1509 0.9886 -41.8111 86.7831)" class="st4" cx="550.9" cy="318.9" rx="5.2" ry="5.1"/>
<g>
	<path class="st3" d="M550.6,321c0.2-0.1,0.7-0.2,1-0.6c0.6-0.6,0.4-1.2,0.1-1.5c-0.5-0.5-1.2-0.2-1.6,0.3l-0.3,0.3l-0.4-0.4
		l0.3-0.3c0.3-0.4,0.6-1,0.2-1.4c-0.3-0.3-0.7-0.3-1.2,0.1c-0.3,0.3-0.4,0.7-0.5,1l-0.5-0.2c0-0.3,0.3-0.8,0.6-1.2
		c0.7-0.7,1.4-0.6,1.9-0.2c0.4,0.4,0.5,0.9,0.2,1.5l0,0c0.5-0.4,1.2-0.4,1.7,0.1c0.6,0.6,0.7,1.5-0.2,2.4c-0.4,0.4-0.9,0.7-1.2,0.7
		L550.6,321L550.6,321z"/>
	<circle class="st3" cx="579" cy="339.9" r="12.5"/>
</g>
<ellipse transform="matrix(0.9886 -0.1509 0.1509 0.9886 -44.7109 90.3422)" class="st4" cx="572.9" cy="339.8" rx="5.2" ry="5.1"/>
<g>
	<path class="st3" d="M570.3,340.2c0.2-0.7,0.8-1,1.6-1.1l0,0c-0.5-0.5-0.6-1.1-0.4-1.5c0.3-0.9,1.2-1.2,2.2-0.8
		c1.1,0.4,1.3,1.2,1.1,1.9c-0.2,0.6-0.7,0.9-1.3,1l0,0c0.6,0.5,0.8,1.1,0.6,1.8c-0.3,0.9-1.4,1.3-2.4,0.9
		C570.5,341.9,570.1,341,570.3,340.2L570.3,340.2z M573.3,341.2c0.2-0.7-0.1-1.1-0.8-1.6c-0.7,0-1.2,0.3-1.4,0.8s0,1.2,0.7,1.4
		C572.5,342.1,573.1,341.8,573.3,341.2L573.3,341.2z M572.2,337.8c-0.2,0.5,0.1,1,0.7,1.4c0.5,0,1-0.2,1.2-0.7
		c0.2-0.4,0.1-1-0.6-1.2C572.9,337.1,572.4,337.3,572.2,337.8L572.2,337.8z"/>
	<circle class="st3" cx="607.3" cy="347.1" r="12.5"/>
	<circle class="st3" cx="605.1" cy="311.2" r="12.5"/>
	<circle class="st3" cx="565" cy="358.2" r="12.5"/>
	<circle class="st3" cx="548.1" cy="350.6" r="12.5"/>
	<circle class="st3" cx="529.6" cy="357.7" r="12.5"/>
	<circle class="st3" cx="524.7" cy="323.5" r="12.5"/>
	<circle class="st3" cx="500.8" cy="345" r="12.5"/>
	<circle class="st3" cx="479.7" cy="363.6" r="12.5"/>
</g>
<ellipse transform="matrix(0.9886 -0.1509 0.1509 0.9886 -49.4136 75.5979)" class="st4" cx="473.4" cy="363.4" rx="5.2" ry="5.1"/>
<g>
	<path class="st3" d="M476,362.8c-0.1-0.1-0.2-0.3-0.4-0.5c-1-0.9-2.1-0.8-3-0.3l0,0c0.5,0,1,0.2,1.5,0.7c0.7,0.8,0.6,1.9-0.3,2.7
		c-0.9,0.7-2.1,0.8-2.9-0.2s-0.6-2.3,0.6-3.3c0.8-0.7,1.8-1,2.8-0.9c0.7,0.1,1.4,0.4,1.9,0.9l0.4,0.4L476,362.8L476,362.8z
		 M473.2,364.8c0.7-0.6,0.8-1.3,0.3-1.9c-0.3-0.4-0.8-0.5-1.3-0.4c-0.1,0-0.2,0.1-0.3,0.2c-0.8,0.7-1,1.5-0.5,2.1
		C471.8,365.4,472.5,365.4,473.2,364.8L473.2,364.8z"/>
	<circle class="st3" cx="503.6" cy="365.5" r="12.5"/>
	<circle class="st3" cx="457.5" cy="355.9" r="12.5"/>
	<circle class="st3" cx="480" cy="323.8" r="12.5"/>
</g>
<ellipse transform="matrix(0.9886 -0.1509 0.1509 0.9886 -43.4044 75.1874)" class="st4" cx="473.7" cy="323.6" rx="5.2" ry="5.1"/>
<circle class="st3" cx="545.9" cy="285.3" r="12.5"/>
<ellipse transform="matrix(0.9886 -0.1509 0.1509 0.9886 -36.8389 84.7062)" class="st4" cx="539.7" cy="285.1" rx="5.2" ry="5.1"/>
<path class="st5" d="M538,282.7L538,282.7l-0.8,0.1v-0.5l1-0.2l0.5,0.2l-1.4,4.1l-0.5-0.2L538,282.7L538,282.7z M538.9,287l0.1-0.3
	l0.6-0.3c1.4-0.6,2-1,2.2-1.6c0.1-0.4,0.1-0.9-0.5-1.1c-0.4-0.1-0.7,0-1,0v-0.4c0.4-0.1,0.8-0.2,1.3,0c0.9,0.3,1,1,0.8,1.6
	c-0.3,0.8-1,1.2-2.1,1.7l-0.4,0.2l1.8,0.6l-0.2,0.5L538.9,287L538.9,287z M471,323.4L471,323.4l-0.5,0.8l-0.4-0.4l0.6-1.1l0.5-0.3
	l2.6,4.2l-0.5,0.3L471,323.4L471,323.4z M475.5,320l0.2,0.4l0.5,4.9l-0.6,0.4l-0.5-4.8l-2,1.3l-0.3-0.5L475.5,320L475.5,320z"/>
<circle class="st6" cx="360.2" cy="297.8" r="15.2"/>
<circle class="st3" cx="1012.9" cy="303" r="74.5"/>
<circle class="st6" cx="1008.4" cy="307.6" r="74.5"/>
<circle class="st4" cx="1035.9" cy="314.3" r="31.8"/>
<g>
	<path class="st3" d="M1029.4,325.8c1,0.1,2.1,0,3.6-0.2c2.6-0.4,5-1.4,6.9-3.2c2.2-2,3.8-4.9,4.4-8.8h-0.2
		c-1.8,2.2-4.5,3.6-7.8,3.6c-5.9,0-9.8-4.5-9.8-10.1c0-6.2,4.5-11.7,11.3-11.7s10.9,5.5,10.9,13.9c0,7.3-2.4,12.3-5.7,15.5
		c-2.5,2.5-6,4-9.6,4.4c-1.6,0.3-3,0.3-4.1,0.3L1029.4,325.8L1029.4,325.8z M1031,306.8c0,4.1,2.5,7,6.3,7c3,0,5.3-1.5,6.5-3.5
		c0.3-0.4,0.4-0.9,0.4-1.6c0-5.6-2.1-10-6.8-10C1033.7,298.8,1031,302.2,1031,306.8z"/>
	
		<ellipse transform="matrix(0.7071 -0.7071 0.7071 0.7071 35.6865 712.3212)" class="st3" cx="877.7" cy="313.1" rx="100.4" ry="100.4"/>
</g>
<ellipse transform="matrix(0.7071 -0.7071 0.7071 0.7071 42.7974 718.4885)" class="st7" cx="888.7" cy="307.6" rx="100.4" ry="100.4"/>
<circle class="st4" cx="835.8" cy="281.4" r="42.9"/>
<path class="st3" d="M804.7,294.5c1.6,1,5.3,2.6,9.3,2.6c7.3,0,9.5-4.6,9.5-8.1c-0.1-5.8-5.3-8.3-10.8-8.3h-3.2v-4.2h3.2
	c4.1,0,9.3-2.1,9.3-7c0-3.3-2.1-6.3-7.3-6.3c-3.4,0-6.6,1.5-8.4,2.8l-1.5-4.1c2.2-1.6,6.4-3.2,11-3.2c8.2,0,12,4.9,12,9.9
	c0,4.3-2.6,7.9-7.7,9.8v0.1c5.2,1,9.3,4.9,9.3,10.7c0,6.7-5.2,12.5-15.3,12.5c-4.7,0-8.8-1.5-10.9-2.8L804.7,294.5L804.7,294.5z
	 M864.2,279.7c0,14.1-5.3,22-14.6,22c-8.2,0-13.7-7.6-13.9-21.4c0-14,6.1-21.6,14.6-21.6C859.2,258.7,864.2,266.5,864.2,279.7z
	 M841.5,280.4c0,10.8,3.3,17,8.5,17c5.8,0,8.6-6.7,8.6-17.3c0-10.2-2.6-17-8.5-17C845.1,263,841.5,269,841.5,280.4z"/>
<circle class="st5" cx="942.4" cy="216.7" r="53.6"/>
<circle class="st6" cx="938.4" cy="214.8" r="53.6"/>
<ellipse transform="matrix(0.3827 -0.9239 0.9239 0.3827 385.0336 973.7924)" class="st4" cx="921.2" cy="198.8" rx="23.2" ry="23.2"/>
<g>
	<path class="st5" d="M928.3,183.9v2.1l-10.1,21.2h-3.3l10.1-20.6v-0.1h-11.4v-2.6L928.3,183.9L928.3,183.9z"/>
	<circle class="st5" cx="996" cy="358.5" r="59.5"/>
</g>
<circle class="st6" cx="989.2" cy="354.9" r="59.5"/>
<circle class="st4" cx="972.8" cy="339" r="25.2"/>
<path class="st5" d="M963.3,326.7L963.3,326.7l-4,1v-2.2l5-1.3l2.3,0.6l-4.9,20.2l-2.6-0.6L963.3,326.7z M977.5,348.8l1.3-5.5
	l-9.4-2.3l0.4-1.8l12.1-10.7l3,0.7l-3,12.6l2.8,0.7l-0.5,2.1l-2.8-0.7l-1.3,5.5L977.5,348.8z M979.3,341.2l1.6-6.7l0.9-3.2h-0.1
	l-2.4,2.6l-6.6,5.7v0.1L979.3,341.2L979.3,341.2z"/>
<path class="st8" d="M187.6,53.8c0,0,9.1-16,27.6-11.7c7.7,1.8,14,7.1,17.4,14.1c2.8,5.8,7.6,13.5,14.5,17.8
	c4.7,2.9,7.7,7.9,7.9,13.4c0.1,3.3,0.1,7.7-0.4,13.3c-0.4,5.8,1.1,11.5,4.6,16.1c1.8,2.4,4.1,6.9,6.7,7.2c6.6,1-4.7,9.3-15.9,7
	c-2.1-0.4-4.2-0.5-6.3-0.3c-7.8,0.8-13.6-1.8-15-2.1c-10.3-2-15.1,1-43.7,2.2c-7,0.3-11.6,0.9-14.2,0.3c-10.2-2.4-14.1-1.5-15.7-0.4
	c-1.6,1.2-3.9,1.1-5.3-0.3c-1.1-1.1-1.8-2.8-1.1-5.4c1.8-6.9,15.9-21.7,15.9-21.7s3.9-7.2,4.6-28.9c0.2-4.7,1.6-9.3,4.4-13.1
	C176.6,57.6,180.9,54.1,187.6,53.8z"/>
<g>
	<path class="st9" d="M215.1,117.6l0.2-17.6l-25-1.6v18C190.2,116.5,199.7,125.4,215.1,117.6z"/>
	<path class="st9" d="M202.9,106l9.2,0.2c1.7,0,3.3-0.4,4.8-1.3c0.1,0,0.1-0.1,0.2-0.1c4.3-2.7,7.7-7.1,7.8-12.1L224.4,79
		c0.8-23.2-16.9-21.5-16.9-21.5s-5.3,9.1-17.8,21.1l0.3,37"/>
</g>
<path class="st10" d="M206.4,73.7c0.2-0.9-0.1-1.5-0.1-1.5s-0.3-0.5-1-0.7c-2-0.6-7.7,4-7,5.3C198.9,78,205.9,75.9,206.4,73.7
	L206.4,73.7z M216.1,73.4c-0.3-0.7,0-1.2,0-1.2s0.2-0.4,0.8-0.7c1.5-0.7,6.4,2.6,5.9,3.6C222.3,76.2,216.7,75.1,216.1,73.4
	L216.1,73.4z"/>
<path class="st9" d="M212.2,78.4l1.9,3.7c0.3,0.5,0.5,1,0.8,1.5s0.8,1.6-0.3,2.3l-3.1,1.9 M222.3,79.3c0,0-3.3-3.7-6.6,0 M208,79.4
	c0,0-4.7-3.9-8.9,1.1 M190.6,89.4c-3.4,0.8-10.2-0.7-8.1-7.4s9.5-3.8,9.5-3.8 M193.4,85.3c0,0-1.6-5.2-6.2-4.9"/>
<path class="st8" d="M187.2,222.6c0,0,33.4,7.7,60.3,8.2L262,366.3c0.6,5.7,0,11.5-1.7,17L220.7,510l-40.2-17.1l27.6-101.2
	c2.5-9,2.9-18.4,1.3-27.6l-7-40.8l-47,69.2c-4.6,6.8-13.8,8.4-20.4,3.6l-95.2-68.9l16.7-33.9l64.7,42.5c2.8,1.8,6.6,0.7,8-2.3
	l29.5-65.8C158.7,267.6,163.1,242.3,187.2,222.6z"/>
<path class="st11" d="M202.4,323.2l34.3-65.4"/>
<path class="st12" d="M188.3,496.5l-8.1,21.2l43.2,16.7c0,0-17.3-23.3-15.6-29.6L188.3,496.5L188.3,496.5z M54.2,298.3l-18.7-10.7
	l-23.1,40.2c0,0,26.4-13.5,32.4-10.9L54.2,298.3z"/>
<path class="st13" d="M155.5,154.9c-24.8,3.3-59.9-6.5-59.9-6.5l-39.8-10.3c-2-0.6-4-0.9-6-1.1c-7.5-0.5-30.1-4.4-34.3-5.7
	c-2.8-0.9-2.5-1.6-1.7-2.1c0.6-0.4,1.3-0.4,2.2-0.4l7.6,0.3c0.7,0.1,1.1,0,1.9-0.1c1.1-0.2,0.4-0.6-0.5-1c-0.8-0.3-1.6-0.5-2.4-0.6
	L11,125.6c-0.2,0-0.3-0.1-0.5-0.2c-2.8-1.2-2.3-2.1-1.6-2.6c0.5-0.3,1-0.5,1.6-0.4l7.8,0.6c2.7,0.2,4.5,0.1,5.5,0
	c0.4,0,0.8-0.5,0.6-0.9c-0.1-0.2-0.3-0.4-0.5-0.4c-2.6-0.5-11.3-2.4-16-4c-2.3-0.8-3.7-1.9-3.5-2.4c0.1-0.3,0.7-0.5,0.9-0.6
	c0.4-0.1,0.7-0.1,0.9-0.1c0.4,0,0.8,0.1,0.9,0.1c0.4,0.1-0.7-0.2,2.9,0.5c4.5,0.8,9.1,1.2,13.7,1.8c0.6,0.1,1.3,0.1,1.9-0.1
	c2.2-0.7-0.8-1.8-0.8-1.8s-8.3-2.1-11.5-3.9c-1.9-1.1-1.3-1.8-0.5-2.1c0.6-0.3,1.3-0.4,2-0.3l2.1,0.3l20.2,3.4
	c1.1,0.2,1.9-0.9,1.4-1.9c-2.9-6.2-2.2-10.2-0.7-11.6c0.7-0.7,1.9-0.3,2.1,0.6c1.7,6.3,12.6,13.3,17.5,16.2c1.5,0.9,3.2,1.5,4.9,1.7
	l64.6,10l9.1,1.1c0,0,31.1,0.7,30.2,12.3C165.4,152.2,155.5,154.9,155.5,154.9L155.5,154.9z M252.4,145.9
	c24.3-5.8,53.5-27.6,53.5-27.6l33.4-23.9c1.6-1.2,3.4-2.3,5.2-3.1c6.8-3.2,26.5-14.9,29.9-17.7c2.3-1.8,1.7-2.4,0.8-2.6
	c-0.7-0.1-1.4,0.1-2.2,0.4l-7,3c-0.7,0.3-1,0.4-1.9,0.6c-1.1,0.2-0.6-0.5,0.1-1.1c0.6-0.6,1.3-1,2-1.5l10.2-5.9
	c0.1-0.1,0.3-0.2,0.4-0.3c2.1-2.1,1.4-2.8,0.6-3c-0.6-0.2-1.1-0.1-1.7,0.2c-1,0.5-3.3,1.6-7.1,3.3c-2.4,1.1-4.2,1.7-5.1,2
	c-0.4,0.2-0.9-0.1-0.9-0.6c0-0.2,0.1-0.4,0.3-0.6c2.3-1.5,9.7-6.2,13.5-9.5c1.8-1.6,2.7-3.1,2.4-3.5c-0.2-0.2-0.8-0.2-1-0.2
	c-0.4,0-0.7,0.1-0.9,0.2c-0.4,0.2-0.7,0.3-0.8,0.4c-0.3,0.2,0.5-0.4-2.6,1.5c-3.9,2.4-8.1,4.4-12.1,6.6c-0.6,0.3-1.2,0.5-1.8,0.6
	c-2.3,0.2,0.1-1.9,0.1-1.9s7-4.9,9.4-7.8c1.4-1.7,0.6-2.1-0.3-2.2c-0.7,0-1.3,0.1-1.9,0.5l-1.9,1.1l-17.6,10.4
	c-0.9,0.5-2.1-0.2-2-1.2c0.5-6.8-1.6-10.3-3.5-11.1c-0.9-0.4-1.9,0.4-1.8,1.3c0.7,6.5-7,16.9-10.5,21.4c-1.1,1.4-2.4,2.5-3.9,3.4
	L269,110l-8.1,4.3c0,0-28.7,11.8-23.8,22.3C242.2,146.8,252.4,145.9,252.4,145.9L252.4,145.9z"/>
<path class="st5" d="M231,118.4l-13.2,3.2l-0.5-7.3l-30.2,2.1l-0.2,7.5l-27.5,1.4l-30.2-0.4l5.3,44.3l25-1.9l1.1,90.5l103.2-11.7
	l-13.5-90.5l25.7-5.8l-4.1-44.2"/>
<path class="st14" d="M214.4,114.4v7.8 M203.9,114.4v7.8 M193.4,114.4v7.8"/>
<g>
	<path class="st15" d="M216.6,92.9l-9.1-2.9l-0.8-0.2c0,0-0.4,2.7,0.7,4.7c1.1,2.1,3.7,2.8,5.8,1.7
		C214.2,95.6,215.4,94.6,216.6,92.9L216.6,92.9z"/>
	<path class="st16" d="M206.7,89.8v1.9l8.6,2.8l1.3-1.6L206.7,89.8z"/>
</g>
<path class="st17" d="M804.7,487.1l-1.9,27.3l55.8-0.5c0,0-27.9-21.2-28-29.1L804.7,487.1L804.7,487.1z M730.8,487.1l1.9,27.3
	l-55.8-0.5c0,0,27.9-21.2,28-29.1L730.8,487.1L730.8,487.1z"/>
<g>
	<path class="st18" d="M716.6,83.8l0.3,17.5c2.5,6.9,9.6,11.1,16.9,10.1s12.9-7.1,13.4-14.5l-4.5-23.3L717,83.3"/>
	<path class="st18" d="M747.7,72.4c0.8-3.2,0.8-6,0.7-7.9l-5.6-8.4l1.9-10.6l-9.8-12.1c-12.3,7.7-27.2,8.9-27.2,8.9s-1.9,1,1,31.8
		c0.2,1.3,1.3,7.4,6.8,11.5c3.5,2.6,7.2,3.1,8.9,3.2c1.5,0.1,3.6,0,6-0.5c1.9-0.5,3.5-1.1,4.7-1.7c0,0,1.3-0.4,3.5-1.8
		c1.7-1.1,4.3-2.6,6.3-5.5C746.6,76.8,747.2,74.5,747.7,72.4L747.7,72.4z"/>
</g>
<path class="st19" d="M729.5,47.2c-1.1-0.3-1.8-1.3-1.5-2.4c0.2-0.6,0.6-1.2,1.7-1.3c2.6-0.2,5.3,2.5,5.3,2.5s1.2,1.1-0.9,1.3
	C732.7,47.5,730.8,47.5,729.5,47.2z M715.4,48.1c1-0.5,1.4-1.8,0.9-2.7c-0.3-0.5-0.9-1-2-0.8c-2.5,0.4-4.5,3.8-4.5,3.8
	s-0.9,1.4,1.2,1.1C712.4,49.2,714.2,48.7,715.4,48.1L715.4,48.1z"/>
<g>
	
		<ellipse transform="matrix(0.9963 -8.597848e-02 8.597848e-02 0.9963 -1.8807 63.0911)" class="st20" cx="731.5" cy="53.4" rx="4.3" ry="2.6"/>
	
		<ellipse transform="matrix(0.9963 -8.597848e-02 8.597848e-02 0.9963 -2.0622 61.6777)" class="st20" cx="715" cy="54.8" rx="4.3" ry="2.6"/>
</g>
<g>
	
		<ellipse transform="matrix(0.9963 -8.597848e-02 8.597848e-02 0.9963 -1.8725 63.0822)" class="st21" cx="731.4" cy="53.3" rx="2.4" ry="2.5"/>
	
		<ellipse transform="matrix(0.9963 -8.597848e-02 8.597848e-02 0.9963 -2.0539 61.6687)" class="st21" cx="714.9" cy="54.7" rx="2.4" ry="2.5"/>
</g>
<g>
	<path class="st18" d="M720.3,59.3c0,0-2.8,4.9,2.7,6.3c0,0,1.3,0.3,2.4-0.1 M722.8,70.9c0,0,5.9,2.1,8.8-2.8"/>
	<path class="st22" d="M707.7,65.6c0,0-2.7-4.3-2.4-7.6c0.1-0.9,1-2.8,1.8-2.9"/>
</g>
<path class="st8" d="M728.4,37.9c-15.6,7.6-20.6,8.8-26.8,0.5c-6.3-8.3-0.2-23.4,11.4-27.5c0,0,8,0.1,7.1,10.9c0,0,7.8-7.2,11.9-4.1
	c4.2,3.1,0.6,9.2,0.6,9.2s10.7-9.3,18-2.6s5.9,18.2-1.4,21.4l0.4,7.5l-6.8,2.8C742.8,56.1,743.8,30.4,728.4,37.9L728.4,37.9z"/>
<g>
	<path class="st18" d="M742.3,56c0,0,1.7-2.1,4.1-3.4c3.3-1.7,7.3,0.3,8,3.9c0.5,2.7-0.1,6.7-6.2,8.4"/>
	<path class="st18" d="M745.1,60.1c0,0,1.3-5,6.6-5.8"/>
</g>
<path class="st5" d="M697.2,214.7L694,486.3l45.2,2.3l5.2-227.3l15.8-0.5L795,490l46.3-6.8l-41.7-265.5l-3.3-14.1L697.2,214.7z"/>
<g>
	<path class="st23" d="M793.7,477.3l44.3-6.1 M739,474.7h-46.9"/>
	<g>
		<path class="st13" d="M688.8,171.4l-23.1,28.5l1.7,53.4l1.2,6.9c1.5,4.9,5.5,15.8,10.6,18.6c0.8,0.4,0.8,1.5,0.1,2
			c-1.5,1-5.2,0.9-10-3c-0.8-0.6-1.9-0.1-1.9,0.9l-1.1,18.4l-0.2,1.9c-0.1,0.6-0.3,1.2-0.6,1.7c-0.5,0.6-1.2,1.1-1.8-0.9
			c-0.9-3.2-1.1-10.9-1.1-10.9s-0.4-2.9-1.4-1c-0.3,0.5-0.4,1-0.5,1.6c-0.4,4.1-1,8.2-1.2,12.3l-0.2,2.7c0,0.1,0,0.4-0.1,0.8
			c0,0.2-0.1,0.4-0.3,0.7c-0.1,0.1-0.4,0.6-0.7,0.7c-0.4,0-1.1-1.4-1.4-3.6c-0.5-4.5-0.3-12.4-0.3-14.8c0-0.2-0.1-0.4-0.3-0.5
			c-0.3-0.2-0.8,0-0.9,0.4c-0.2,0.9-0.7,2.5-1.1,4.8l-1.1,6.9c-0.1,0.5-0.3,1-0.7,1.3c-0.6,0.5-1.5,0.7-2-2v-0.5l0.7-10.5
			c0.1-0.7,0-1.5-0.1-2.2c-0.1-0.8-0.3-1.6-0.8-0.6c-0.3,0.7-0.4,1-0.5,1.7l-1.3,6.7c-0.1,0.7-0.3,1.3-0.8,1.8
			c-0.6,0.6-1.3,0.7-1.5-1.9c-0.3-3.9,0.9-24.5,1.9-31.1c0.3-1.8,0.4-3.6,0.3-5.5l-0.2-3.8L638,205.1c-2.4-18.1,8.6-28.6,8.6-28.6
			l17.6-26.2 M859.2,100.5c1,13.5-17.2,18.3-17.2,18.3l-34,11.9L796.4,93l36.3-3.9c1.7,0.2,1.8-3.7,1.8-3.7l2.6-31.7
			c0.1-1.6-0.1-3.1-0.6-4.6c-1.6-4.8-5.6-15.7-10.7-18.3c-0.8-0.4-0.8-1.5-0.1-2c1.5-1,5.1-0.9,10,2.8c0.8,0.6,1.9,0.1,1.9-0.9
			l1-18.2l0.2-1.9c0-0.6,0.2-1.2,0.6-1.7c0.5-0.6,1.2-1.1,1.8,0.8c0.9,3.2,1.2,10.8,1.2,10.8s0.4,2.8,1.4,1c0.3-0.5,0.4-1,0.5-1.6
			c0.3-4.1,0.9-8.1,1.1-12.2c0.1-3.2,0.2-2.3,0.2-2.6c0-0.1,0-0.4,0.1-0.8c0-0.2,0.1-0.4,0.3-0.7c0.1-0.1,0.4-0.6,0.7-0.7
			c0.4,0,1.1,1.4,1.4,3.5c0.5,4.4,0.4,12.3,0.4,14.7c0,0.2,0.1,0.4,0.3,0.5c0.3,0.2,0.8,0,0.9-0.4c0.2-0.8,0.6-2.5,1-4.8
			c0.6-3.6,0.9-5.9,1-6.9c0.1-0.5,0.3-1,0.7-1.3c0.6-0.5,1.5-0.7,2,1.9v0.5l-0.6,10.5c0,0.7,0,1.5,0.1,2.2c0.1,0.8,0.3,1.6,0.8,0.6
			c0.3-0.7,0.4-1,0.5-1.6l1.2-6.7c0.1-0.7,0.3-1.3,0.8-1.8c0.6-0.6,1.3-0.7,1.5,1.9c0.3,3.9-0.6,24.3-1.6,30.9
			c-0.3,1.8-0.4,3.6-0.2,5.4l0.8,15.2L859.2,100.5L859.2,100.5z"/>
		<path class="st13" d="M834.4,86.2l-1.9,9.5"/>
	</g>
</g>
<path class="st8" d="M716.3,100.4l-20.1,2.9c0,0-11.3,2.5-20.1,20.9l-14.6,23l28.4,24.3l2.1-3.8l3.7,76.8L804,230.7l-15.6-94.9
	l28.5-4.7l-9-41.1l-39.7,6.2h-20.9c0,0-0.9,10.6-10.1,14.3c-6.9,2.8-14.9-0.2-18.7-6.6L716.3,100.4L716.3,100.4z"/>
<path class="st24" d="M690.5,134l1.5,33.7 M788.4,135.8l-8.9-15"/>
<g>
	<path class="st15" d="M733.3,67.2L721.9,70l-1,0.3c0,0,1.3,3,3.7,4.5c2.5,1.5,5.7,0.5,7.1-2C732.6,71.5,733.2,69.7,733.3,67.2
		L733.3,67.2z"/>
	<path class="st16" d="M721,70.3l1.3,2.1l10.7-2.7l0.3-2.5L721,70.3z"/>
</g>
<path class="st12" d="M1032.6,37.2l7.1,26.5c0.9,3.3,4.9,4.3,7.3,2l19.4-19.5c2.4-2.4,1.3-6.5-2-7.3l-26.6-7.1
	C1034.7,31,1031.8,34,1032.6,37.2L1032.6,37.2z"/>
<path class="st1" d="M1029.9,44.4l7.1,26.5c0.9,3.3,4.9,4.3,7.3,2l19.4-19.5c2.4-2.4,1.3-6.5-2-7.3l-26.6-7.1
	C1032,38.1,1029,41.1,1029.9,44.4L1029.9,44.4z"/>
<path class="st14" d="M53.9,485.6l7.1,26.5c0.9,3.3,4.9,4.3,7.3,2l19.4-19.5c2.4-2.4,1.3-6.5-2-7.3l-26.6-7.1
	C56,479.4,53,482.4,53.9,485.6z"/>
<path class="st1" d="M51.2,492.8l7.1,26.5c0.9,3.3,4.9,4.3,7.3,2L85,501.8c2.4-2.4,1.3-6.5-2-7.3l-26.6-7.1
	C53.3,486.5,50.3,489.5,51.2,492.8L51.2,492.8z"/>
<circle class="st17" cx="35.3" cy="44.9" r="10.1"/>
<circle class="st6" cx="39.4" cy="48.6" r="10.1"/>
<circle class="st14" cx="579.9" cy="545.8" r="11.4"/>
<circle class="st6" cx="584.5" cy="550" r="11.4"/>
<path class="st25" d="M1007,136.3c5.1-6.2,4.1-15.6-2.4-21c-6.5-5.3-15.9-4.6-21,1.6c-5.1,6.2-4.1,15.6,2.4,21
	S1001.9,142.5,1007,136.3"/>
<path class="st26" d="M1003.7,132c5.1-6.2,4.1-15.6-2.4-21c-6.5-5.3-15.9-4.6-21,1.6c-5.1,6.2-4.1,15.6,2.4,21
	C989.1,139,998.6,138.2,1003.7,132"/>
<path class="st27" d="M476.5,25.2l7.2,33l-33.3,6l-7.2-33L476.5,25.2"/>
<g>
	<path class="st26" d="M482.4,27.2l7.2,33l-33.3,6l-7.2-33L482.4,27.2"/>
	<g>
		<circle class="st6" cx="1075.9" cy="205.4" r="16"/>
		<circle class="st6" cx="1031.4" cy="176.2" r="5.8"/>
	</g>
	<g>
		<circle class="st28" cx="901.1" cy="34.9" r="4.9"/>
		<circle class="st28" cx="70.6" cy="225.2" r="9.7"/>
		<circle class="st28" cx="535.4" cy="103.4" r="9.7"/>
	</g>
</g>
</svg>
