<?xml version="1.0" encoding="utf-8"?>
<!-- Generator: Adobe Illustrator 25.2.0, SVG Export Plug-In . SVG Version: 6.00 Build 0)  -->
<svg version="1.1" id="Layer_1" xmlns:v="https://vecta.io/nano"
	 xmlns="http://www.w3.org/2000/svg" xmlns:xlink="http://www.w3.org/1999/xlink" x="0px" y="0px" viewBox="0 0 1315 727.4"
	 style="enable-background:new 0 0 1315 727.4;" xml:space="preserve">
<style type="text/css">
	.st0{fill:#F2F6FF;stroke:#3F87CF;}
	.st1{fill:none;stroke:#000000;stroke-miterlimit:10;}
	.st2{fill:#F2F6FF;stroke:#000000;stroke-miterlimit:10;}
	.st3{fill:#3F87CF;}
	.st4{fill:#F2F6FF;}
	.st5{fill:#02CBCE;}
	.st6{fill:none;stroke:#000000;}
	.st7{fill:#2E233D;}
	.st8{fill:#FFFFFF;stroke:#000000;stroke-width:0.5;stroke-miterlimit:10;}
	.st9{fill:#282230;}
	.st10{fill:none;stroke:#FFFFFF;stroke-linecap:round;stroke-miterlimit:10;}
	.st11{fill:#00C9D1;}
	.st12{fill:#FFFFFF;stroke:#000000;stroke-miterlimit:10;}
	.st13{fill:#B200D9;}
	.st14{fill:#2E2340;stroke:#000000;stroke-width:0.5;stroke-miterlimit:10;}
	.st15{fill:#FFFFFF;stroke:#000000;stroke-width:0.5;stroke-linejoin:round;stroke-miterlimit:10;}
	.st16{fill:#006BE6;}
	.st17{fill:#FFFFFF;stroke:#000000;stroke-width:0.75;stroke-miterlimit:10;}
	.st18{fill:#302840;}
	.st19{fill:#FFFFFF;stroke:#000000;stroke-width:0.75;stroke-miterlimit:4;}
	.st20{fill:#2A2131;}
	.st21{fill:#FFFFFF;stroke:#000000;stroke-width:0.75;stroke-linecap:round;stroke-miterlimit:10;}
	.st22{fill:#00C9D1;stroke:#FFFFFF;stroke-miterlimit:10;}
	.st23{fill:none;stroke:#FFFFFF;stroke-miterlimit:10;}
	.st24{fill:#4590E0;}
	.st25{fill:none;stroke:#22211B;stroke-miterlimit:10;}
	.st26{fill:#CEEDE6;}
	.st27{fill:none;stroke:#22211B;}
</style>
<ellipse class="st0" cx="466.2" cy="398.3" rx="13.5" ry="14.6"/>
<g>
	<path class="st1" d="M716.3,476.7l-13.4,115.5c-0.5,4.5,2.1,8.8,6.4,10.3l41.2,15c6.9,2.5,14-3.2,13-10.5l-18-132.7"/>
	<g>
		<path class="st2" d="M422.4,479.1l70.2,19.6l261.8-23.8l54.7-91L783.5,295l-76.1-17L442,304.2l-51.1,77.3L422.4,479.1z"/>
		<path class="st2" d="M442,304.2l80.3,16.1l26.2,90.4l-55.9,88"/>
		<path class="st2" d="M522.3,320.3l260.9-25.1 M548.5,410.7l260.6-26.8"/>
		<path class="st2" d="M609.4,337.1l110-12l5.5,31.7L618,368.9L609.4,337.1z"/>
		<path class="st2" d="M635.6,334l7.6,31.8"/>
	</g>
	<path class="st1" d="M458.3,411l-41.9,196.5c-1.5,7.1,2.5,14.2,9.4,16.6l36.5,12.3c9.5,3.2,19.2-4.1,18.9-14.1l-7.8-211"/>
</g>
<circle class="st3" cx="731.4" cy="441.7" r="12.5"/>
<ellipse transform="matrix(0.9886 -0.1509 0.1509 0.9886 -58.3145 114.4897)" class="st4" cx="725.2" cy="441.5" rx="5.2" ry="5.1"/>
<g>
	<path class="st3" d="M728.1,440.6l-1.8-1.5l-1.2,1c0.1,0.1,0.2,0.1,0.4,0.3c0.4,0.3,0.6,0.7,0.8,1.1c0.2,0.6,0.1,1.3-0.3,1.8
		c-0.8,0.9-2.1,1-3.1,0.1c-0.5-0.4-0.8-0.9-0.9-1.3l0.6-0.3c0.1,0.3,0.4,0.7,0.8,1.1c0.6,0.5,1.4,0.5,2-0.1c0.5-0.6,0.5-1.4-0.5-2.2
		c-0.3-0.2-0.5-0.4-0.7-0.5l2.2-2l2.2,1.9L728.1,440.6L728.1,440.6z"/>
	<circle class="st3" cx="663.2" cy="419.3" r="12.5"/>
</g>
<ellipse transform="matrix(0.9886 -0.1509 0.1509 0.9886 -55.7185 103.9273)" class="st4" cx="656.9" cy="419.1" rx="5.2" ry="5.1"/>
<g>
	<path class="st3" d="M656.6,421.2c0.2-0.1,0.7-0.2,1-0.6c0.6-0.6,0.4-1.2,0.1-1.5c-0.5-0.5-1.2-0.2-1.6,0.3l-0.3,0.3l-0.4-0.4
		l0.3-0.3c0.3-0.4,0.6-1,0.2-1.4c-0.3-0.3-0.7-0.3-1.2,0.1c-0.3,0.3-0.4,0.7-0.5,1l-0.5-0.2c0-0.3,0.3-0.8,0.6-1.2
		c0.7-0.7,1.4-0.6,1.9-0.2c0.4,0.4,0.5,0.9,0.2,1.5l0,0c0.5-0.4,1.2-0.4,1.7,0.1c0.6,0.6,0.7,1.5-0.2,2.4c-0.4,0.4-0.9,0.7-1.2,0.7
		L656.6,421.2L656.6,421.2z"/>
	<circle class="st3" cx="685" cy="440.1" r="12.5"/>
</g>
<ellipse transform="matrix(0.9886 -0.1509 0.1509 0.9886 -58.6195 107.4726)" class="st4" cx="678.9" cy="440" rx="5.2" ry="5.1"/>
<g>
	<path class="st3" d="M676.3,440.4c0.2-0.7,0.8-1,1.6-1.1l0,0c-0.5-0.5-0.6-1.1-0.4-1.5c0.3-0.9,1.2-1.2,2.2-0.8
		c1.1,0.4,1.3,1.2,1.1,1.9c-0.2,0.6-0.7,0.9-1.3,1l0,0c0.6,0.5,0.8,1.1,0.6,1.8c-0.3,0.9-1.4,1.3-2.4,0.9
		C676.5,442.1,676.1,441.2,676.3,440.4L676.3,440.4z M679.3,441.4c0.2-0.7-0.1-1.1-0.8-1.6c-0.7,0-1.2,0.3-1.4,0.8s0,1.2,0.7,1.4
		C678.5,442.3,679.1,442,679.3,441.4L679.3,441.4z M678.2,438c-0.2,0.5,0.1,1,0.7,1.4c0.5,0,1-0.2,1.2-0.7c0.2-0.4,0.1-1-0.6-1.2
		C678.9,437.3,678.4,437.5,678.2,438L678.2,438z"/>
	<circle class="st3" cx="713.3" cy="447.3" r="12.5"/>
	<circle class="st3" cx="711.1" cy="411.4" r="12.5"/>
	<circle class="st3" cx="671" cy="458.4" r="12.5"/>
	<circle class="st3" cx="654.1" cy="450.8" r="12.5"/>
	<circle class="st3" cx="635.6" cy="457.9" r="12.5"/>
	<circle class="st3" cx="630.7" cy="423.7" r="12.5"/>
	<circle class="st3" cx="606.8" cy="445.2" r="12.5"/>
	<circle class="st3" cx="585.7" cy="463.8" r="12.5"/>
</g>
<ellipse transform="matrix(0.9886 -0.1509 0.1509 0.9886 -63.3211 92.7423)" class="st4" cx="579.4" cy="463.6" rx="5.2" ry="5.1"/>
<g>
	<path class="st3" d="M582,463c-0.1-0.1-0.2-0.3-0.4-0.5c-1-0.9-2.1-0.8-3-0.3l0,0c0.5,0,1,0.2,1.5,0.7c0.7,0.8,0.6,1.9-0.3,2.7
		c-0.9,0.7-2.1,0.8-2.9-0.2s-0.6-2.3,0.6-3.3c0.8-0.7,1.8-1,2.8-0.9c0.7,0.1,1.4,0.4,1.9,0.9l0.4,0.4L582,463L582,463z M579.2,465
		c0.7-0.6,0.8-1.3,0.3-1.9c-0.3-0.4-0.8-0.5-1.3-0.4c-0.1,0-0.2,0.1-0.3,0.2c-0.8,0.7-1,1.5-0.5,2.1
		C577.8,465.6,578.5,465.6,579.2,465L579.2,465z"/>
	<circle class="st3" cx="609.6" cy="465.7" r="12.5"/>
	<circle class="st3" cx="563.5" cy="456.1" r="12.5"/>
	<circle class="st3" cx="586" cy="424" r="12.5"/>
</g>
<ellipse transform="matrix(0.9886 -0.1509 0.1509 0.9886 -57.3119 92.3321)" class="st4" cx="579.7" cy="423.8" rx="5.2" ry="5.1"/>
<circle class="st3" cx="651.9" cy="385.5" r="12.5"/>
<ellipse transform="matrix(0.9886 -0.1509 0.1509 0.9886 -50.745 101.8497)" class="st4" cx="645.7" cy="385.3" rx="5.2" ry="5.1"/>
<path class="st5" d="M644,382.9L644,382.9l-0.8,0.1v-0.5l1-0.2l0.5,0.2l-1.4,4.1l-0.5-0.2L644,382.9L644,382.9z M644.9,387.2
	l0.1-0.3l0.6-0.3c1.4-0.6,2-1,2.2-1.6c0.1-0.4,0.1-0.9-0.5-1.1c-0.4-0.1-0.7,0-1,0v-0.4c0.4-0.1,0.8-0.2,1.3,0c0.9,0.3,1,1,0.8,1.6
	c-0.3,0.8-1,1.2-2.1,1.7l-0.4,0.2l1.8,0.6l-0.2,0.5L644.9,387.2L644.9,387.2z M577,423.6L577,423.6l-0.5,0.8l-0.4-0.4l0.6-1.1
	l0.5-0.3l2.6,4.2l-0.5,0.3L577,423.6L577,423.6z M581.5,420.2l0.2,0.4l0.5,4.9l-0.6,0.4l-0.5-4.8l-2,1.3l-0.3-0.5L581.5,420.2
	L581.5,420.2z"/>
<circle class="st6" cx="466.2" cy="398" r="15.2"/>
<circle class="st3" cx="1118.9" cy="403.2" r="74.5"/>
<circle class="st6" cx="1114.4" cy="407.8" r="74.5"/>
<circle class="st4" cx="1141.9" cy="414.5" r="31.8"/>
<g>
	<path class="st3" d="M1135.4,426c1,0.1,2.1,0,3.6-0.2c2.6-0.4,5-1.4,6.9-3.2c2.2-2,3.8-4.9,4.4-8.8h-0.2c-1.8,2.2-4.5,3.6-7.8,3.6
		c-5.9,0-9.8-4.5-9.8-10.1c0-6.2,4.5-11.7,11.3-11.7s10.9,5.5,10.9,13.9c0,7.3-2.4,12.3-5.7,15.5c-2.5,2.5-6,4-9.6,4.4
		c-1.6,0.3-3,0.3-4.1,0.3L1135.4,426L1135.4,426z M1137,407c0,4.1,2.5,7,6.3,7c3,0,5.3-1.5,6.5-3.5c0.3-0.4,0.4-0.9,0.4-1.6
		c0-5.6-2.1-10-6.8-10C1139.7,399,1137,402.4,1137,407z"/>
	
		<ellipse transform="matrix(0.7071 -0.7071 0.7071 0.7071 -4.1282 816.6337)" class="st3" cx="983.7" cy="413.3" rx="100.4" ry="100.4"/>
</g>
<ellipse transform="matrix(0.7071 -0.7071 0.7071 0.7071 2.9827 822.801)" class="st6" cx="994.7" cy="407.8" rx="100.4" ry="100.4"/>
<circle class="st4" cx="941.8" cy="381.6" r="42.9"/>
<path class="st3" d="M910.7,394.7c1.6,1,5.3,2.6,9.3,2.6c7.3,0,9.5-4.6,9.5-8.1c-0.1-5.8-5.3-8.3-10.8-8.3h-3.2v-4.2h3.2
	c4.1,0,9.3-2.1,9.3-7c0-3.3-2.1-6.3-7.3-6.3c-3.4,0-6.6,1.5-8.4,2.8l-1.5-4.1c2.2-1.6,6.4-3.2,11-3.2c8.2,0,12,4.9,12,9.9
	c0,4.3-2.6,7.9-7.7,9.8v0.1c5.2,1,9.3,4.9,9.3,10.7c0,6.7-5.2,12.5-15.3,12.5c-4.7,0-8.8-1.5-10.9-2.8L910.7,394.7L910.7,394.7z
	 M970.2,379.9c0,14.1-5.3,22-14.6,22c-8.2,0-13.7-7.6-13.9-21.4c0-14,6.1-21.6,14.6-21.6C965.2,358.9,970.2,366.7,970.2,379.9z
	 M947.5,380.6c0,10.8,3.3,17,8.5,17c5.8,0,8.6-6.7,8.6-17.3c0-10.2-2.6-17-8.5-17C951.1,363.2,947.5,369.2,947.5,380.6z"/>
<circle class="st5" cx="1048.4" cy="316.9" r="53.6"/>
<circle class="st6" cx="1044.4" cy="315" r="53.6"/>
<ellipse transform="matrix(0.1602 -0.9871 0.9871 0.1602 567.5215 1265.0416)" class="st4" cx="1027.2" cy="299" rx="23.2" ry="23.2"/>
<g>
	<path class="st5" d="M1034.3,284.1v2.1l-10.1,21.2h-3.3l10.1-20.6v-0.1h-11.4v-2.6H1034.3z"/>
	<circle class="st5" cx="1102" cy="458.7" r="59.5"/>
</g>
<circle class="st6" cx="1095.2" cy="455.1" r="59.5"/>
<circle class="st4" cx="1078.8" cy="439.2" r="25.2"/>
<path class="st5" d="M1069.3,426.9L1069.3,426.9l-4,1v-2.2l5-1.3l2.3,0.6l-4.9,20.2l-2.6-0.6L1069.3,426.9z M1083.5,449l1.3-5.5
	l-9.4-2.3l0.4-1.8l12.1-10.7l3,0.7l-3,12.6l2.8,0.7l-0.5,2.1l-2.8-0.7l-1.3,5.5L1083.5,449z M1085.3,441.4l1.6-6.7l0.9-3.2h-0.1
	l-2.4,2.6l-6.6,5.7v0.1L1085.3,441.4L1085.3,441.4z"/>
<path class="st7" d="M293.6,154c0,0,9.1-16,27.6-11.7c7.7,1.8,14,7.1,17.4,14.1c2.8,5.8,7.6,13.5,14.5,17.8
	c4.7,2.9,7.7,7.9,7.9,13.4c0.1,3.3,0.1,7.7-0.4,13.3c-0.4,5.8,1.1,11.5,4.6,16.1c1.8,2.4,4.1,6.9,6.7,7.2c6.6,1-4.7,9.3-15.9,7
	c-2.1-0.4-4.2-0.5-6.3-0.3c-7.8,0.8-13.6-1.8-15-2.1c-10.3-2-15.1,1-43.7,2.2c-7,0.3-11.6,0.9-14.2,0.3c-10.2-2.4-14.1-1.5-15.7-0.4
	c-1.6,1.2-3.9,1.1-5.3-0.3c-1.1-1.1-1.8-2.8-1.1-5.4c1.8-6.9,15.9-21.7,15.9-21.7s3.9-7.2,4.6-28.9c0.2-4.7,1.6-9.3,4.4-13.1
	C282.6,157.8,286.9,154.3,293.6,154z"/>
<g>
	<path class="st8" d="M321.1,217.8l0.2-17.6l-25-1.6v18C296.2,216.7,305.7,225.6,321.1,217.8z"/>
	<path class="st8" d="M308.9,206.2l9.2,0.2c1.7,0,3.3-0.4,4.8-1.3c0.1,0,0.1-0.1,0.2-0.1c4.3-2.7,7.7-7.1,7.8-12.1l-0.5-13.7
		c0.8-23.2-16.9-21.5-16.9-21.5s-5.3,9.1-17.8,21.1l0.3,37"/>
</g>
<path class="st9" d="M312.4,173.9c0.2-0.9-0.1-1.5-0.1-1.5s-0.3-0.5-1-0.7c-2-0.6-7.7,4-7,5.3C304.9,178.2,311.9,176.1,312.4,173.9
	L312.4,173.9z M322.1,173.6c-0.3-0.7,0-1.2,0-1.2s0.2-0.4,0.8-0.7c1.5-0.7,6.4,2.6,5.9,3.6C328.3,176.4,322.7,175.3,322.1,173.6
	L322.1,173.6z"/>
<path class="st8" d="M318.2,178.6l1.9,3.7c0.3,0.5,0.5,1,0.8,1.5s0.8,1.6-0.3,2.3l-3.1,1.9 M328.3,179.5c0,0-3.3-3.7-6.6,0
	 M314,179.6c0,0-4.7-3.9-8.9,1.1 M296.6,189.6c-3.4,0.8-10.2-0.7-8.1-7.4s9.5-3.8,9.5-3.8 M299.4,185.5c0,0-1.6-5.2-6.2-4.9"/>
<path class="st7" d="M293.2,322.8c0,0,33.4,7.7,60.3,8.2L368,466.5c0.6,5.7,0,11.5-1.7,17l-39.6,126.7l-40.2-17.1l27.6-101.2
	c2.5-9,2.9-18.4,1.3-27.6l-7-40.8l-47,69.2c-4.6,6.8-13.8,8.4-20.4,3.6l-95.2-68.9l16.7-33.9l64.7,42.5c2.8,1.8,6.6,0.7,8-2.3
	l29.5-65.8C264.7,367.8,269.1,342.5,293.2,322.8z"/>
<path class="st10" d="M308.4,423.4l34.3-65.4"/>
<path class="st11" d="M294.3,596.7l-8.1,21.2l43.2,16.7c0,0-17.3-23.3-15.6-29.6L294.3,596.7L294.3,596.7z M160.2,398.5l-18.7-10.7
	L118.4,428c0,0,26.4-13.5,32.4-10.9L160.2,398.5z"/>
<path class="st12" d="M261.5,255.1c-24.8,3.3-59.9-6.5-59.9-6.5l-39.8-10.3c-2-0.6-4-0.9-6-1.1c-7.5-0.5-30.1-4.4-34.3-5.7
	c-2.8-0.9-2.5-1.6-1.7-2.1c0.6-0.4,1.3-0.4,2.2-0.4l7.6,0.3c0.7,0.1,1.1,0,1.9-0.1c1.1-0.2,0.4-0.6-0.5-1c-0.8-0.3-1.6-0.5-2.4-0.6
	l-11.6-1.8c-0.2,0-0.3-0.1-0.5-0.2c-2.8-1.2-2.3-2.1-1.6-2.6c0.5-0.3,1-0.5,1.6-0.4l7.8,0.6c2.7,0.2,4.5,0.1,5.5,0
	c0.4,0,0.8-0.5,0.6-0.9c-0.1-0.2-0.3-0.4-0.5-0.4c-2.6-0.5-11.3-2.4-16-4c-2.3-0.8-3.7-1.9-3.5-2.4c0.1-0.3,0.7-0.5,0.9-0.6
	c0.4-0.1,0.7-0.1,0.9-0.1c0.4,0,0.8,0.1,0.9,0.1c0.4,0.1-0.7-0.2,2.9,0.5c4.5,0.8,9.1,1.2,13.7,1.8c0.6,0.1,1.3,0.1,1.9-0.1
	c2.2-0.7-0.8-1.8-0.8-1.8s-8.3-2.1-11.5-3.9c-1.9-1.1-1.3-1.8-0.5-2.1c0.6-0.3,1.3-0.4,2-0.3l2.1,0.3l20.2,3.4
	c1.1,0.2,1.9-0.9,1.4-1.9c-2.9-6.2-2.2-10.2-0.7-11.6c0.7-0.7,1.9-0.3,2.1,0.6c1.7,6.3,12.6,13.3,17.5,16.2c1.5,0.9,3.2,1.5,4.9,1.7
	l64.6,10l9.1,1.1c0,0,31.1,0.7,30.2,12.3C271.4,252.4,261.5,255.1,261.5,255.1L261.5,255.1z M358.4,246.1
	c24.3-5.8,53.5-27.6,53.5-27.6l33.4-23.9c1.6-1.2,3.4-2.3,5.2-3.1c6.8-3.2,26.5-14.9,29.9-17.7c2.3-1.8,1.7-2.4,0.8-2.6
	c-0.7-0.1-1.4,0.1-2.2,0.4l-7,3c-0.7,0.3-1,0.4-1.9,0.6c-1.1,0.2-0.6-0.5,0.1-1.1c0.6-0.6,1.3-1,2-1.5l10.2-5.9
	c0.1-0.1,0.3-0.2,0.4-0.3c2.1-2.1,1.4-2.8,0.6-3c-0.6-0.2-1.1-0.1-1.7,0.2c-1,0.5-3.3,1.6-7.1,3.3c-2.4,1.1-4.2,1.7-5.1,2
	c-0.4,0.2-0.9-0.1-0.9-0.6c0-0.2,0.1-0.4,0.3-0.6c2.3-1.5,9.7-6.2,13.5-9.5c1.8-1.6,2.7-3.1,2.4-3.5c-0.2-0.2-0.8-0.2-1-0.2
	c-0.4,0-0.7,0.1-0.9,0.2c-0.4,0.2-0.7,0.3-0.8,0.4c-0.3,0.2,0.5-0.4-2.6,1.5c-3.9,2.4-8.1,4.4-12.1,6.6c-0.6,0.3-1.2,0.5-1.8,0.6
	c-2.3,0.2,0.1-1.9,0.1-1.9s7-4.9,9.4-7.8c1.4-1.7,0.6-2.1-0.3-2.2c-0.7,0-1.3,0.1-1.9,0.5l-1.9,1.1l-17.6,10.4
	c-0.9,0.5-2.1-0.2-2-1.2c0.5-6.8-1.6-10.3-3.5-11.1c-0.9-0.4-1.9,0.4-1.8,1.3c0.7,6.5-7,16.9-10.5,21.4c-1.1,1.4-2.4,2.5-3.9,3.4
	L375,210.2l-8.1,4.3c0,0-28.7,11.8-23.8,22.3C348.2,247,358.4,246.1,358.4,246.1L358.4,246.1z"/>
<path class="st5" d="M337,218.6l-13.2,3.2l-0.5-7.3l-30.2,2.1l-0.2,7.5l-27.5,1.4l-30.2-0.4l5.3,44.3l25-1.9l1.1,90.5l103.2-11.7
	l-13.5-90.5L382,250l-4.1-44.2"/>
<path class="st13" d="M320.4,214.6v7.8 M309.9,214.6v7.8 M299.4,214.6v7.8"/>
<g>
	<path class="st14" d="M322.6,193.1l-9.1-2.9l-0.8-0.2c0,0-0.4,2.7,0.7,4.7c1.1,2.1,3.7,2.8,5.8,1.7
		C320.2,195.8,321.4,194.8,322.6,193.1L322.6,193.1z"/>
	<path class="st15" d="M312.7,190v1.9l8.6,2.8l1.3-1.6L312.7,190z"/>
</g>
<path class="st16" d="M910.7,587.3l-1.9,27.3l55.8-0.5c0,0-27.9-21.2-28-29.1L910.7,587.3L910.7,587.3z M836.8,587.3l1.9,27.3
	l-55.8-0.5c0,0,27.9-21.2,28-29.1L836.8,587.3L836.8,587.3z"/>
<g>
	<path class="st17" d="M822.6,184l0.3,17.5c2.5,6.9,9.6,11.1,16.9,10.1s12.9-7.1,13.4-14.5l-4.5-23.3l-25.7,9.7"/>
	<path class="st17" d="M853.7,172.6c0.8-3.2,0.8-6,0.7-7.9l-5.6-8.4l1.9-10.6l-9.8-12.1c-12.3,7.7-27.2,8.9-27.2,8.9s-1.9,1,1,31.8
		c0.2,1.3,1.3,7.4,6.8,11.5c3.5,2.6,7.2,3.1,8.9,3.2c1.5,0.1,3.6,0,6-0.5c1.9-0.5,3.5-1.1,4.7-1.7c0,0,1.3-0.4,3.5-1.8
		c1.7-1.1,4.3-2.6,6.3-5.5C852.6,177,853.2,174.7,853.7,172.6L853.7,172.6z"/>
</g>
<path class="st18" d="M835.5,147.4c-1.1-0.3-1.8-1.3-1.5-2.4c0.2-0.6,0.6-1.2,1.7-1.3c2.6-0.2,5.3,2.5,5.3,2.5s1.2,1.1-0.9,1.3
	C838.7,147.7,836.8,147.7,835.5,147.4z M821.4,148.3c1-0.5,1.4-1.8,0.9-2.7c-0.3-0.5-0.9-1-2-0.8c-2.5,0.4-4.5,3.8-4.5,3.8
	s-0.9,1.4,1.2,1.1C818.4,149.4,820.2,148.9,821.4,148.3L821.4,148.3z"/>
<g>
	
		<ellipse transform="matrix(0.9963 -8.597874e-02 8.597874e-02 0.9963 -10.1049 72.5765)" class="st19" cx="837.5" cy="153.6" rx="4.3" ry="2.6"/>
	
		<ellipse transform="matrix(0.9963 -8.597874e-02 8.597874e-02 0.9963 -10.2867 71.1629)" class="st19" cx="821" cy="155" rx="4.3" ry="2.6"/>
</g>
<g>
	
		<ellipse transform="matrix(0.9963 -8.597874e-02 8.597874e-02 0.9963 -10.0969 72.5672)" class="st20" cx="837.4" cy="153.5" rx="2.4" ry="2.5"/>
	
		<ellipse transform="matrix(0.9963 -8.597874e-02 8.597874e-02 0.9963 -10.2787 71.1536)" class="st20" cx="820.9" cy="154.9" rx="2.4" ry="2.5"/>
</g>
<g>
	<path class="st17" d="M826.3,159.5c0,0-2.8,4.9,2.7,6.3c0,0,1.3,0.3,2.4-0.1 M828.8,171.1c0,0,5.9,2.1,8.8-2.8"/>
	<path class="st21" d="M813.7,165.8c0,0-2.7-4.3-2.4-7.6c0.1-0.9,1-2.8,1.8-2.9"/>
</g>
<path class="st7" d="M834.4,138.1c-15.6,7.6-20.6,8.8-26.8,0.5c-6.3-8.3-0.2-23.4,11.4-27.5c0,0,8,0.1,7.1,10.9
	c0,0,7.8-7.2,11.9-4.1c4.2,3.1,0.6,9.2,0.6,9.2s10.7-9.3,18-2.6s5.9,18.2-1.4,21.4l0.4,7.5l-6.8,2.8
	C848.8,156.3,849.8,130.6,834.4,138.1L834.4,138.1z"/>
<g>
	<path class="st17" d="M848.3,156.2c0,0,1.7-2.1,4.1-3.4c3.3-1.7,7.3,0.3,8,3.9c0.5,2.7-0.1,6.7-6.2,8.4"/>
	<path class="st17" d="M851.1,160.3c0,0,1.3-5,6.6-5.8"/>
</g>
<path class="st5" d="M803.2,314.9L800,586.5l45.2,2.3l5.2-227.3l15.8-0.5L901,590.2l46.3-6.8l-41.7-265.5l-3.3-14.1L803.2,314.9z"/>
<g>
	<path class="st22" d="M899.7,577.5l44.3-6.1 M845,574.9h-46.9"/>
	<g>
		<path class="st12" d="M794.8,271.6l-23.1,28.5l1.7,53.4l1.2,6.9c1.5,4.9,5.5,15.8,10.6,18.6c0.8,0.4,0.8,1.5,0.1,2
			c-1.5,1-5.2,0.9-10-3c-0.8-0.6-1.9-0.1-1.9,0.9l-1.1,18.4l-0.2,1.9c-0.1,0.6-0.3,1.2-0.6,1.7c-0.5,0.6-1.2,1.1-1.8-0.9
			c-0.9-3.2-1.1-10.9-1.1-10.9s-0.4-2.9-1.4-1c-0.3,0.5-0.4,1-0.5,1.6c-0.4,4.1-1,8.2-1.2,12.3l-0.2,2.7c0,0.1,0,0.4-0.1,0.8
			c0,0.2-0.1,0.4-0.3,0.7c-0.1,0.1-0.4,0.6-0.7,0.7c-0.4,0-1.1-1.4-1.4-3.6c-0.5-4.5-0.3-12.4-0.3-14.8c0-0.2-0.1-0.4-0.3-0.5
			c-0.3-0.2-0.8,0-0.9,0.4c-0.2,0.9-0.7,2.5-1.1,4.8l-1.1,6.9c-0.1,0.5-0.3,1-0.7,1.3c-0.6,0.5-1.5,0.7-2-2v-0.5l0.7-10.5
			c0.1-0.7,0-1.5-0.1-2.2c-0.1-0.8-0.3-1.6-0.8-0.6c-0.3,0.7-0.4,1-0.5,1.7l-1.3,6.7c-0.1,0.7-0.3,1.3-0.8,1.8
			c-0.6,0.6-1.3,0.7-1.5-1.9c-0.3-3.9,0.9-24.5,1.9-31.1c0.3-1.8,0.4-3.6,0.3-5.5l-0.2-3.8L744,305.3c-2.4-18.1,8.6-28.6,8.6-28.6
			l17.6-26.2 M965.2,200.7c1,13.5-17.2,18.3-17.2,18.3l-34,11.9l-11.6-37.7l36.3-3.9c1.7,0.2,1.8-3.7,1.8-3.7l2.6-31.7
			c0.1-1.6-0.1-3.1-0.6-4.6c-1.6-4.8-5.6-15.7-10.7-18.3c-0.8-0.4-0.8-1.5-0.1-2c1.5-1,5.1-0.9,10,2.8c0.8,0.6,1.9,0.1,1.9-0.9
			l1-18.2l0.2-1.9c0-0.6,0.2-1.2,0.6-1.7c0.5-0.6,1.2-1.1,1.8,0.8c0.9,3.2,1.2,10.8,1.2,10.8s0.4,2.8,1.4,1c0.3-0.5,0.4-1,0.5-1.6
			c0.3-4.1,0.9-8.1,1.1-12.2c0.1-3.2,0.2-2.3,0.2-2.6c0-0.1,0-0.4,0.1-0.8c0-0.2,0.1-0.4,0.3-0.7c0.1-0.1,0.4-0.6,0.7-0.7
			c0.4,0,1.1,1.4,1.4,3.5c0.5,4.4,0.4,12.3,0.4,14.7c0,0.2,0.1,0.4,0.3,0.5c0.3,0.2,0.8,0,0.9-0.4c0.2-0.8,0.6-2.5,1-4.8
			c0.6-3.6,0.9-5.9,1-6.9c0.1-0.5,0.3-1,0.7-1.3c0.6-0.5,1.5-0.7,2,1.9v0.5l-0.6,10.5c0,0.7,0,1.5,0.1,2.2c0.1,0.8,0.3,1.6,0.8,0.6
			c0.3-0.7,0.4-1,0.5-1.6l1.2-6.7c0.1-0.7,0.3-1.3,0.8-1.8c0.6-0.6,1.3-0.7,1.5,1.9c0.3,3.9-0.6,24.3-1.6,30.9
			c-0.3,1.8-0.4,3.6-0.2,5.4l0.8,15.2L965.2,200.7L965.2,200.7z"/>
		<path class="st12" d="M940.4,186.4l-1.9,9.5"/>
	</g>
</g>
<path class="st7" d="M822.3,200.6l-20.1,2.9c0,0-11.3,2.5-20.1,20.9l-14.6,23l28.4,24.3l2.1-3.8l3.7,76.8L910,330.9L894.4,236
	l28.5-4.7l-9-41.1l-39.7,6.2h-20.9c0,0-0.9,10.6-10.1,14.3c-6.9,2.8-14.9-0.2-18.7-6.6L822.3,200.6L822.3,200.6z"/>
<path class="st23" d="M796.5,234.2l1.5,33.7 M894.4,236l-8.9-15"/>
<g>
	<path class="st14" d="M839.3,167.4l-11.4,2.8l-1,0.3c0,0,1.3,3,3.7,4.5c2.5,1.5,5.7,0.5,7.1-2C838.6,171.7,839.2,169.9,839.3,167.4
		L839.3,167.4z"/>
	<path class="st15" d="M827,170.5l1.3,2.1l10.7-2.7l0.3-2.5L827,170.5z"/>
</g>
<path class="st13" d="M59.9,485.8l7.1,26.5c0.9,3.3,4.9,4.3,7.3,2l19.4-19.5c2.4-2.4,1.3-6.5-2-7.3l-26.6-7.1
	C62,479.6,59,482.6,59.9,485.8z"/>
<path class="st1" d="M57.2,493l7.1,26.5c0.9,3.3,4.9,4.3,7.3,2L91,502c2.4-2.4,1.3-6.5-2-7.3l-26.6-7.1
	C59.3,486.7,56.3,489.7,57.2,493L57.2,493z"/>
<circle class="st16" cx="151.3" cy="115.1" r="10.1"/>
<circle class="st6" cx="155.4" cy="118.8" r="10.1"/>
<path class="st24" d="M1113,54.5c5.1-6.2,4.1-15.6-2.4-21c-6.5-5.3-15.9-4.6-21,1.6s-4.1,15.6,2.4,21S1107.9,60.7,1113,54.5"/>
<path class="st25" d="M1109.7,50.2c5.1-6.2,4.1-15.6-2.4-21c-6.5-5.3-15.9-4.6-21,1.6s-4.1,15.6,2.4,21
	C1095.1,57.2,1104.6,56.4,1109.7,50.2"/>
<path class="st26" d="M492.5,5.4l7.2,33l-33.3,6l-7.2-33L492.5,5.4"/>
<g>
	<path class="st25" d="M498.4,7.4l7.2,33l-33.3,6l-7.2-33L498.4,7.4"/>
	<g>
		<circle class="st6" cx="1213.9" cy="285.6" r="16"/>
		<circle class="st6" cx="1169.4" cy="256.4" r="5.8"/>
	</g>
	<g>
		<circle class="st27" cx="917.1" cy="35.1" r="4.9"/>
		<circle class="st27" cx="56.6" cy="16.4" r="9.7"/>
		<circle class="st27" cx="641.4" cy="133.6" r="9.7"/>
	</g>
</g>
</svg>
