<svg xmlns="http://www.w3.org/2000/svg" viewBox="0 0 1315 904"  xmlns:v="https://vecta.io/nano"><style><![CDATA[.Z{stroke:#000}.a{stroke-miterlimit:10}.b{fill:none}.c{fill:#f2f6ff}.d{fill:#fff}.e{fill:#3f87cf}.f{fill:#02cbce}.g{fill:#2e233d}.h{stroke-width:.5}.i{stroke-width:.75}.j{fill:#00c9d1}.k{fill:#b200d9}.l{stroke:#22211b}.m{stroke-linecap:round}.n{stroke-linejoin:round}]]></style><ellipse cx="466.2" cy="574.9" rx="13.5" ry="14.6" stroke="#3f87cf" class="c"/><g class="Z a"><path d="M716.3 653.3l-13.4 115.5c-.5 4.5 2.1 8.8 6.4 10.3l41.2 15c6.9 2.5 14-3.2 13-10.5l-18-132.7" class="b"/><g class="c"><path d="M422.4 655.7l70.2 19.6 261.8-23.8 54.7-91-25.6-88.9-76.1-17L442 480.8l-51.1 77.3z"/><path d="M442 480.8l80.3 16.1 26.2 90.4-55.9 88"/><path d="M522.3 496.9l260.9-25.1M548.5 587.3l260.6-26.8"/><path d="M609.4 513.7l110-12 5.5 31.7L618 545.5z"/><path d="M635.6 510.6l7.6 31.8"/></g><path d="M458.3,587.6l-41.9,196.5c-1.5,7.1,2.5,14.2,9.4,16.6l36.5,12.3c9.5,3.2,19.2-4.1,18.9-14.1l-7.8-211" class="b"/></g><circle transform="matrix(.9886 -.1509 .1509 .9886 -84.9074 117.4021)" cx="731.3" cy="618.3" r="12.5" class="e"/><ellipse transform="matrix(.9886 -.1509 .1509 .9886 -84.9544 116.4755)" cx="725.2" cy="618.1" rx="5.2" ry="5.1" class="c"/><g class="e"><path d="M728.1 617.2l-1.8-1.5-1.2 1c.1.1.2.1.4.3.4.3.6.7.8 1.1a1.76 1.76 0 0 1-.3 1.8c-.8.9-2.1 1-3.1.1-.5-.4-.8-.9-.9-1.3l.6-.3c.1.3.4.7.8 1.1.6.5 1.4.5 2-.1.5-.6.5-1.4-.5-2.2-.3-.2-.5-.4-.7-.5l2.2-2 2.2 1.9-.5.6z"/><circle transform="matrix(.9886 -.1509 .1509 .9886 -82.3065 106.8534)" cx="663.1" cy="595.9" r="12.5"/></g><ellipse transform="matrix(.9886 -.1509 .1509 .9886 -82.3535 105.9268)" cx="656.9" cy="595.7" rx="5.2" ry="5.1" class="c"/><g class="e"><path d="M656.6 597.8c.2-.1.7-.2 1-.6.6-.6.4-1.2.1-1.5-.5-.5-1.2-.2-1.6.3l-.3.3-.4-.4.3-.3c.3-.4.6-1 .2-1.4-.3-.3-.7-.3-1.2.1-.3.3-.4.7-.5 1l-.5-.2c0-.3.3-.8.6-1.2.7-.7 1.4-.6 1.9-.2.4.4.5.9.2 1.5h0a1.24 1.24 0 0 1 1.7.1c.6.6.7 1.5-.2 2.4-.4.4-.9.7-1.2.7l-.1-.6z"/><circle transform="matrix(.9886 -.1509 .1509 .9886 -85.2006 110.3846)" cx="684.9" cy="616.7" r="12.5"/></g><ellipse transform="matrix(.9886 -.1509 .1509 .9886 -85.2476 109.458)" cx="678.8" cy="616.6" rx="5.2" ry="5.1" class="c"/><g class="e"><path d="M676.3 617c.2-.7.8-1 1.6-1.1h0c-.5-.5-.6-1.1-.4-1.5.3-.9 1.2-1.2 2.2-.8 1.1.4 1.3 1.2 1.1 1.9a1.55 1.55 0 0 1-1.3 1h0c.6.5.8 1.1.6 1.8-.3.9-1.4 1.3-2.4.9-1.2-.5-1.6-1.4-1.4-2.2zm3 1c.2-.7-.1-1.1-.8-1.6-.7 0-1.2.3-1.4.8s0 1.2.7 1.4c.7.3 1.3 0 1.5-.6zm-1.1-3.4c-.2.5.1 1 .7 1.4.5 0 1-.2 1.2-.7.2-.4.1-1-.6-1.2-.6-.2-1.1 0-1.3.5z"/><circle transform="matrix(.9886 -.1509 .1509 .9886 -85.9573 114.739)" cx="713.2" cy="623.9" r="12.5"/><circle transform="matrix(.9886 -.1509 .1509 .9886 -80.5733 114.0169)" cx="711.1" cy="588" r="12.5"/><circle transform="matrix(.9886 -.1509 .1509 .9886 -88.1223 108.4805)" cx="670.9" cy="635" r="12.5"/><circle transform="matrix(.9886 -.1509 .1509 .9886 -87.1647 105.8429)" cx="654" cy="627.4" r="12.5"/><circle transform="matrix(.9886 -.1509 .1509 .9886 -88.4438 103.1346)" cx="635.5" cy="634.5" r="12.5"/><circle transform="matrix(.9886 -.1509 .1509 .9886 -83.3461 102.0215)" cx="630.7" cy="600.3" r="12.5"/><circle transform="matrix(.9886 -.1509 .1509 .9886 -86.8669 98.6559)" cx="606.8" cy="621.8" r="12.5"/><circle transform="matrix(.9886 -.1509 .1509 .9886 -89.9082 95.6692)" cx="585.6" cy="640.4" r="12.5"/></g><ellipse transform="matrix(.9886 -.1509 .1509 .9886 -89.9552 94.7426)" cx="579.4" cy="640.2" rx="5.2" ry="5.1" class="c"/><g class="e"><path d="M582 639.6c-.1-.1-.2-.3-.4-.5-1-.9-2.1-.8-3-.3h0c.5 0 1 .2 1.5.7.7.8.6 1.9-.3 2.7-.9.7-2.1.8-2.9-.2s-.6-2.3.6-3.3a3.51 3.51 0 0 1 2.8-.9c.7.1 1.4.4 1.9.9l.4.4-.6.5zm-2.8 2c.7-.6.8-1.3.3-1.9-.3-.4-.8-.5-1.3-.4-.1 0-.2.1-.3.2-.8.7-1 1.5-.5 2.1.4.6 1.1.6 1.8 0z"/><circle transform="matrix(.9886 -.1509 .1509 .9886 -89.9188 99.2961)" cx="609.5" cy="642.3" r="12.5"/><circle transform="matrix(.9886 -.1509 .1509 .9886 -89.0013 92.2336)" cx="563.4" cy="632.7" r="12.5"/><circle transform="matrix(.9886 -.1509 .1509 .9886 -83.897 95.2593)" cx="585.9" cy="600.6" r="12.5"/></g><ellipse transform="matrix(.9886 -.1509 .1509 .9886 -83.944 94.3326)" cx="579.7" cy="600.4" rx="5.2" ry="5.1" class="c"/><circle transform="matrix(.9886 -.1509 .1509 .9886 -77.3372 104.7672)" cx="651.8" cy="562.1" r="12.5" class="e"/><ellipse transform="matrix(.9886 -.1509 .1509 .9886 -77.3842 103.8406)" cx="645.7" cy="561.9" rx="5.2" ry="5.1" class="c"/><path d="M644 559.5h0l-.8.1v-.5l1-.2.5.2-1.4 4.1-.5-.2 1.2-3.5zm.9 4.3l.1-.3.6-.3c1.4-.6 2-1 2.2-1.6.1-.4.1-.9-.5-1.1-.4-.1-.7 0-1 0v-.4c.4-.1.8-.2 1.3 0 .9.3 1 1 .8 1.6-.3.8-1 1.2-2.1 1.7l-.4.2 1.8.6-.2.5-2.6-.9zM577 600.2h0l-.5.8-.4-.4.6-1.1.5-.3 2.6 4.2-.5.3-2.3-3.5zm4.5-3.4l.2.4.5 4.9-.6.4-.5-4.8-2 1.3-.3-.5 2.7-1.7z" class="f"/><circle cx="466.2" cy="574.6" r="15.2" class="Z b"/><circle cx="1118.9" cy="579.8" r="74.5" class="e"/><circle cx="1114.4" cy="584.4" r="74.5" class="Z b"/><circle cx="1141.9" cy="591.1" r="31.8" class="c"/><g class="e"><path d="M1135.4 602.6c1 .1 2.1 0 3.6-.2 2.6-.4 5-1.4 6.9-3.2 2.2-2 3.8-4.9 4.4-8.8h-.2c-1.8 2.2-4.5 3.6-7.8 3.6-5.9 0-9.8-4.5-9.8-10.1 0-6.2 4.5-11.7 11.3-11.7s10.9 5.5 10.9 13.9c0 7.3-2.4 12.3-5.7 15.5-2.5 2.5-6 4-9.6 4.4-1.6.3-3 .3-4.1.3v-3.7zm1.6-19c0 4.1 2.5 7 6.3 7 3 0 5.3-1.5 6.5-3.5.3-.4.4-.9.4-1.6 0-5.6-2.1-10-6.8-10-3.7.1-6.4 3.5-6.4 8.1z"/><circle cx="983.7" cy="589.9" r="100.4"/></g><circle cx="994.7" cy="584.4" r="100.4" class="Z b"/><circle cx="941.8" cy="558.2" r="42.9" class="c"/><path d="M910.7 571.3c1.6 1 5.3 2.6 9.3 2.6 7.3 0 9.5-4.6 9.5-8.1-.1-5.8-5.3-8.3-10.8-8.3h-3.2v-4.2h3.2c4.1 0 9.3-2.1 9.3-7 0-3.3-2.1-6.3-7.3-6.3-3.4 0-6.6 1.5-8.4 2.8l-1.5-4.1c2.2-1.6 6.4-3.2 11-3.2 8.2 0 12 4.9 12 9.9 0 4.3-2.6 7.9-7.7 9.8v.1c5.2 1 9.3 4.9 9.3 10.7 0 6.7-5.2 12.5-15.3 12.5-4.7 0-8.8-1.5-10.9-2.8l1.5-4.4zm59.5-14.8c0 14.1-5.3 22-14.6 22-8.2 0-13.7-7.6-13.9-21.4 0-14 6.1-21.6 14.6-21.6 8.9 0 13.9 7.8 13.9 21zm-22.7.7c0 10.8 3.3 17 8.5 17 5.8 0 8.6-6.7 8.6-17.3 0-10.2-2.6-17-8.5-17-5-.1-8.6 5.9-8.6 17.3z" class="e"/><circle cx="1048.4" cy="493.5" r="53.6" class="f"/><circle cx="1044.4" cy="491.6" r="53.6" class="Z b"/><circle cx="1027.2" cy="475.6" r="23.2" class="c"/><g class="f"><path d="M1034.3 460.7v2.1l-10.1 21.2h-3.3l10.1-20.6v-.1h-11.4v-2.6h14.7z"/><circle cx="1102" cy="635.3" r="59.5"/></g><circle cx="1095.2" cy="631.7" r="59.5" class="Z b"/><circle cx="1078.8" cy="615.8" r="25.2" class="c"/><path d="M1069.3 603.5h0l-4 1v-2.2l5-1.3 2.3.6-4.9 20.2-2.6-.6 4.2-17.7zm14.2 22.1l1.3-5.5-9.4-2.3.4-1.8 12.1-10.7 3 .7-3 12.6 2.8.7-.5 2.1-2.8-.7-1.3 5.5-2.6-.6zm1.8-7.6l1.6-6.7.9-3.2h-.1l-2.4 2.6-6.6 5.7v.1l6.6 1.5z" class="f"/><path d="M293.6 330.6s9.1-16 27.6-11.7c7.7 1.8 14 7.1 17.4 14.1 2.8 5.8 7.6 13.5 14.5 17.8 4.7 2.9 7.7 7.9 7.9 13.4.1 3.3.1 7.7-.4 13.3-.4 5.8 1.1 11.5 4.6 16.1 1.8 2.4 4.1 6.9 6.7 7.2 6.6 1-4.7 9.3-15.9 7-2.1-.4-4.2-.5-6.3-.3-7.8.8-13.6-1.8-15-2.1-10.3-2-15.1 1-43.7 2.2-7 .3-11.6.9-14.2.3-10.2-2.4-14.1-1.5-15.7-.4-1.6 1.2-3.9 1.1-5.3-.3-1.1-1.1-1.8-2.8-1.1-5.4 1.8-6.9 15.9-21.7 15.9-21.7s3.9-7.2 4.6-28.9c.2-4.7 1.6-9.3 4.4-13.1 3-3.7 7.3-7.2 14-7.5z" class="g"/><g class="Z a d h"><path d="M321.1 394.4l.2-17.6-25-1.6v18c-.1.1 9.4 9 24.8 1.2z"/><path d="M308.9 382.8l9.2.2c1.7 0 3.3-.4 4.8-1.3.1 0 .1-.1.2-.1 4.3-2.7 7.7-7.1 7.8-12.1l-.5-13.7c.8-23.2-16.9-21.5-16.9-21.5s-5.3 9.1-17.8 21.1l.3 37"/></g><path d="M312.4 350.5c.2-.9-.1-1.5-.1-1.5s-.3-.5-1-.7c-2-.6-7.7 4-7 5.3.6 1.2 7.6-.9 8.1-3.1zm9.7-.3c-.3-.7 0-1.2 0-1.2s.2-.4.8-.7c1.5-.7 6.4 2.6 5.9 3.6-.5 1.1-6.1 0-6.7-1.7z" fill="#282230"/><path d="M318.2 355.2l1.9 3.7c.3.5.5 1 .8 1.5s.8 1.6-.3 2.3l-3.1 1.9m10.8-8.5s-3.3-3.7-6.6 0m-7.7.1s-4.7-3.9-8.9 1.1m-8.5 8.9c-3.4.8-10.2-.7-8.1-7.4s9.5-3.8 9.5-3.8m1.4 7.1s-1.6-5.2-6.2-4.9" class="Z a d h"/><path d="M293.2 499.4s33.4 7.7 60.3 8.2L368 643.1c.6 5.7 0 11.5-1.7 17l-39.6 126.7-40.2-17.1 27.6-101.2c2.5-9 2.9-18.4 1.3-27.6l-7-40.8-47 69.2c-4.6 6.8-13.8 8.4-20.4 3.6L145.8 604l16.7-33.9 64.7 42.5c2.8 1.8 6.6.7 8-2.3l29.5-65.8c0-.1 4.4-25.4 28.5-45.1z" class="g"/><path d="M308.4 600l34.3-65.4" stroke="#fff" class="a b m"/><path d="M294.3 773.3l-8.1 21.2 43.2 16.7s-17.3-23.3-15.6-29.6l-19.5-8.3zM160.2 575.1l-18.7-10.7-23.1 40.2s26.4-13.5 32.4-10.9l9.4-18.6z" class="j"/><path d="M261.5 431.7c-24.8 3.3-59.9-6.5-59.9-6.5l-39.8-10.3c-2-.6-4-.9-6-1.1-7.5-.5-30.1-4.4-34.3-5.7-2.8-.9-2.5-1.6-1.7-2.1.6-.4 1.3-.4 2.2-.4l7.6.3c.7.1 1.1 0 1.9-.1 1.1-.2.4-.6-.5-1-.8-.3-1.6-.5-2.4-.6l-11.6-1.8c-.2 0-.3-.1-.5-.2-2.8-1.2-2.3-2.1-1.6-2.6.5-.3 1-.5 1.6-.4l7.8.6c2.7.2 4.5.1 5.5 0 .4 0 .8-.5.6-.9-.1-.2-.3-.4-.5-.4-2.6-.5-11.3-2.4-16-4-2.3-.8-3.7-1.9-3.5-2.4.1-.3.7-.5.9-.6.4-.1.7-.1.9-.1.4 0 .8.1.9.1.4.1-.7-.2 2.9.5 4.5.8 9.1 1.2 13.7 1.8.6.1 1.3.1 1.9-.1 2.2-.7-.8-1.8-.8-1.8s-8.3-2.1-11.5-3.9c-1.9-1.1-1.3-1.8-.5-2.1.6-.3 1.3-.4 2-.3l2.1.3 20.2 3.4c1.1.2 1.9-.9 1.4-1.9-2.9-6.2-2.2-10.2-.7-11.6.7-.7 1.9-.3 2.1.6 1.7 6.3 12.6 13.3 17.5 16.2 1.5.9 3.2 1.5 4.9 1.7l64.6 10 9.1 1.1s31.1.7 30.2 12.3c-.8 11.3-10.7 14-10.7 14zm96.9-9c24.3-5.8 53.5-27.6 53.5-27.6l33.4-23.9c1.6-1.2 3.4-2.3 5.2-3.1 6.8-3.2 26.5-14.9 29.9-17.7 2.3-1.8 1.7-2.4.8-2.6-.7-.1-1.4.1-2.2.4l-7 3c-.7.3-1 .4-1.9.6-1.1.2-.6-.5.1-1.1.6-.6 1.3-1 2-1.5l10.2-5.9c.1-.1.3-.2.4-.3 2.1-2.1 1.4-2.8.6-3-.6-.2-1.1-.1-1.7.2-1 .5-3.3 1.6-7.1 3.3-2.4 1.1-4.2 1.7-5.1 2-.4.2-.9-.1-.9-.6 0-.2.1-.4.3-.6 2.3-1.5 9.7-6.2 13.5-9.5 1.8-1.6 2.7-3.1 2.4-3.5-.2-.2-.8-.2-1-.2-.4 0-.7.1-.9.2-.4.2-.7.3-.8.4-.3.2.5-.4-2.6 1.5-3.9 2.4-8.1 4.4-12.1 6.6-.6.3-1.2.5-1.8.6-2.3.2.1-1.9.1-1.9s7-4.9 9.4-7.8c1.4-1.7.6-2.1-.3-2.2-.7 0-1.3.1-1.9.5l-1.9 1.1-17.6 10.4c-.9.5-2.1-.2-2-1.2.5-6.8-1.6-10.3-3.5-11.1-.9-.4-1.9.4-1.8 1.3.7 6.5-7 16.9-10.5 21.4-1.1 1.4-2.4 2.5-3.9 3.4L375 386.8l-8.1 4.3s-28.7 11.8-23.8 22.3c5.1 10.2 15.3 9.3 15.3 9.3z" class="Z a d"/><path d="M337 395.2l-13.2 3.2-.5-7.3-30.2 2.1-.2 7.5-27.5 1.4-30.2-.4 5.3 44.3 25-1.9 1.1 90.5 103.2-11.7-13.5-90.5 25.7-5.8-4.1-44.2" class="f"/><path d="M320.4 391.2v7.8m-10.5-7.8v7.8m-10.5-7.8v7.8" class="k"/><g class="Z a h"><path d="M322.6 369.7l-9.1-2.9-.8-.2s-.4 2.7.7 4.7c1.1 2.1 3.7 2.8 5.8 1.7 1-.6 2.2-1.6 3.4-3.3z" fill="#2e2340"/><path d="M312.7 366.6v1.9l8.6 2.8 1.3-1.6z" class="d n"/></g><path d="M910.7 763.9l-1.9 27.3 55.8-.5s-27.9-21.2-28-29.1l-25.9 2.3zm-73.9 0l1.9 27.3-55.8-.5s27.9-21.2 28-29.1l25.9 2.3z" fill="#006be6"/><g class="Z a d i"><path d="M822.6 360.6l.3 17.5c2.5 6.9 9.6 11.1 16.9 10.1s12.9-7.1 13.4-14.5l-4.5-23.3-25.7 9.7"/><path d="M853.7 349.2c.8-3.2.8-6 .7-7.9l-5.6-8.4 1.9-10.6-9.8-12.1c-12.3 7.7-27.2 8.9-27.2 8.9s-1.9 1 1 31.8c.2 1.3 1.3 7.4 6.8 11.5 3.5 2.6 7.2 3.1 8.9 3.2 1.5.1 3.6 0 6-.5 1.9-.5 3.5-1.1 4.7-1.7 0 0 1.3-.4 3.5-1.8 1.7-1.1 4.3-2.6 6.3-5.5 1.7-2.5 2.3-4.8 2.8-6.9z"/></g><path d="M835.5 324c-1.1-.3-1.8-1.3-1.5-2.4.2-.6.6-1.2 1.7-1.3 2.6-.2 5.3 2.5 5.3 2.5s1.2 1.1-.9 1.3c-1.4.2-3.3.2-4.6-.1zm-14.1.9c1-.5 1.4-1.8.9-2.7-.3-.5-.9-1-2-.8-2.5.4-4.5 3.8-4.5 3.8s-.9 1.4 1.2 1.1c1.4-.3 3.2-.8 4.4-1.4z" fill="#302840"/><g class="Z d i"><ellipse transform="matrix(.9963 -.085979 .085979 .9963 -25.2852 73.2277)" cx="837.5" cy="330.2" rx="4.3" ry="2.6"/><ellipse transform="matrix(.9963 -.085979 .085979 .9963 -25.4682 71.8183)" cx="821" cy="331.6" rx="4.3" ry="2.6"/></g><g fill="#2a2131"><ellipse transform="matrix(.9963 -.085979 .085979 .9963 -25.2811 73.221)" cx="837.4" cy="330.1" rx="2.4" ry="2.5"/><ellipse transform="matrix(.9963 -.085979 .085979 .9963 -25.4641 71.8113)" cx="820.9" cy="331.5" rx="2.4" ry="2.5"/></g><g class="Z a d i"><path d="M826.3 336.1s-2.8 4.9 2.7 6.3c0 0 1.3.3 2.4-.1m-2.6 5.4s5.9 2.1 8.8-2.8"/><path d="M813.7 342.4s-2.7-4.3-2.4-7.6c.1-.9 1-2.8 1.8-2.9" class="m"/></g><path d="M834.4 314.7c-15.6 7.6-20.6 8.8-26.8.5-6.3-8.3-.2-23.4 11.4-27.5 0 0 8 .1 7.1 10.9 0 0 7.8-7.2 11.9-4.1 4.2 3.1.6 9.2.6 9.2s10.7-9.3 18-2.6 5.9 18.2-1.4 21.4l.4 7.5-6.8 2.8c0 .1 1-25.6-14.4-18.1z" class="g"/><g class="Z a d i"><path d="M848.3 332.8s1.7-2.1 4.1-3.4c3.3-1.7 7.3.3 8 3.9.5 2.7-.1 6.7-6.2 8.4"/><path d="M851.1 336.9s1.3-5 6.6-5.8"/></g><path d="M803.2 491.5L800 763.1l45.2 2.3 5.2-227.3 15.8-.5L901 766.8l46.3-6.8-41.7-265.5-3.3-14.1z" class="f"/><g class="a"><path d="M899.7 754.1L944 748m-99 3.5h-46.9" stroke="#fff" class="j"/><g class="Z d"><path d="M794.8 448.2l-23.1 28.5 1.7 53.4 1.2 6.9c1.5 4.9 5.5 15.8 10.6 18.6.8.4.8 1.5.1 2-1.5 1-5.2.9-10-3-.8-.6-1.9-.1-1.9.9l-1.1 18.4-.2 1.9c-.1.6-.3 1.2-.6 1.7-.5.6-1.2 1.1-1.8-.9-.9-3.2-1.1-10.9-1.1-10.9s-.4-2.9-1.4-1c-.3.5-.4 1-.5 1.6-.4 4.1-1 8.2-1.2 12.3l-.2 2.7c0 .1 0 .4-.1.8 0 .2-.1.4-.3.7-.1.1-.4.6-.7.7-.4 0-1.1-1.4-1.4-3.6-.5-4.5-.3-12.4-.3-14.8a.55.55 0 0 0-.3-.5c-.3-.2-.8 0-.9.4-.2.9-.7 2.5-1.1 4.8l-1.1 6.9c-.1.5-.3 1-.7 1.3-.6.5-1.5.7-2-2v-.5l.7-10.5c.1-.7 0-1.5-.1-2.2-.1-.8-.3-1.6-.8-.6-.3.7-.4 1-.5 1.7l-1.3 6.7c-.1.7-.3 1.3-.8 1.8-.6.6-1.3.7-1.5-1.9-.3-3.9.9-24.5 1.9-31.1.3-1.8.4-3.6.3-5.5l-.2-3.8-10.1-48.2c-2.4-18.1 8.6-28.6 8.6-28.6l17.6-26.2m195-49.8c1 13.5-17.2 18.3-17.2 18.3l-34 11.9-11.6-37.7 36.3-3.9c1.7.2 1.8-3.7 1.8-3.7l2.6-31.7c.1-1.6-.1-3.1-.6-4.6-1.6-4.8-5.6-15.7-10.7-18.3-.8-.4-.8-1.5-.1-2 1.5-1 5.1-.9 10 2.8.8.6 1.9.1 1.9-.9l1-18.2.2-1.9c0-.6.2-1.2.6-1.7.5-.6 1.2-1.1 1.8.8.9 3.2 1.2 10.8 1.2 10.8s.4 2.8 1.4 1c.3-.5.4-1 .5-1.6.3-4.1.9-8.1 1.1-12.2.1-3.2.2-2.3.2-2.6 0-.1 0-.4.1-.8 0-.2.1-.4.3-.7.1-.1.4-.6.7-.7.4 0 1.1 1.4 1.4 3.5.5 4.4.4 12.3.4 14.7a.55.55 0 0 0 .3.5c.3.2.8 0 .9-.4.2-.8.6-2.5 1-4.8.6-3.6.9-5.9 1-6.9.1-.5.3-1 .7-1.3.6-.5 1.5-.7 2 1.9v.5l-.6 10.5c0 .7 0 1.5.1 2.2.1.8.3 1.6.8.6.3-.7.4-1 .5-1.6l1.2-6.7c.1-.7.3-1.3.8-1.8.6-.6 1.3-.7 1.5 1.9.3 3.9-.6 24.3-1.6 30.9-.3 1.8-.4 3.6-.2 5.4l.8 15.2 1.5 33.3z"/><path d="M940.4 363l-1.9 9.5"/></g></g><path d="M822.3 377.2l-20.1 2.9s-11.3 2.5-20.1 20.9l-14.6 23 28.4 24.3 2.1-3.8 3.7 76.8L910 507.5l-15.6-94.9 28.5-4.7-9-41.1-39.7 6.2h-20.9s-.9 10.6-10.1 14.3c-6.9 2.8-14.9-.2-18.7-6.6l-2.2-3.5z" class="g"/><path d="M796.5 410.8l1.5 33.7m96.4-31.9l-8.9-15" stroke="#fff" class="a b"/><g class="Z h a"><path d="M839.3 344l-11.4 2.8-1 .3s1.3 3 3.7 4.5c2.5 1.5 5.7.5 7.1-2 .9-1.3 1.5-3.1 1.6-5.6z" fill="#2e2340"/><path d="M827 347.1l1.3 2.1 10.7-2.7.3-2.5z" class="d n"/></g><path d="M1188.6 92l7.1 26.5c.9 3.3 4.9 4.3 7.3 2l19.4-19.5c2.4-2.4 1.3-6.5-2-7.3l-26.6-7.1c-3.1-.8-6 2.2-5.2 5.4z" class="j"/><path d="M1185.9 99.2l7.1 26.5c.9 3.3 4.9 4.3 7.3 2l19.4-19.5c2.4-2.4 1.3-6.5-2-7.3l-26.6-7.1c-3.1-.9-6.1 2.1-5.2 5.4z" class="Z a b"/><path d="M59.9 662.4l7.1 26.5c.9 3.3 4.9 4.3 7.3 2l19.4-19.5c2.4-2.4 1.3-6.5-2-7.3L65.1 657c-3.1-.8-6.1 2.2-5.2 5.4z" class="k"/><path d="M57.2 669.6l7.1 26.5c.9 3.3 4.9 4.3 7.3 2L91 678.6c2.4-2.4 1.3-6.5-2-7.3l-26.6-7.1c-3.1-.9-6.1 2.1-5.2 5.4z" class="Z a b"/><circle cx="151.3" cy="291.7" r="10.1" fill="#006be6"/><circle cx="155.4" cy="295.4" r="10.1" class="Z b"/><circle cx="595.9" cy="89.1" r="11.4" class="k"/><circle cx="600.5" cy="93.3" r="11.4" class="Z b"/><path d="M1113 231.1c5.1-6.2 4.1-15.6-2.4-21-6.5-5.3-15.9-4.6-21 1.6s-4.1 15.6 2.4 21 15.9 4.6 21-1.6" fill="#4590e0"/><path d="M1109.7 226.8c5.1-6.2 4.1-15.6-2.4-21-6.5-5.3-15.9-4.6-21 1.6s-4.1 15.6 2.4 21c6.4 5.4 15.9 4.6 21-1.6" class="a b l"/><path d="M492.5 182l7.2 33-33.3 6-7.2-33 33.3-6" fill="#ceede6"/><g class="b"><path d="M498.4 184l7.2 33-33.3 6-7.2-33 33.3-6M222.3 86L201 138l55.7-7.6L222.3 86" class="a l"/><g class="Z"><circle cx="1213.9" cy="462.2" r="16"/><circle cx="1169.4" cy="433" r="5.8"/></g><g class="l"><circle cx="917.1" cy="171.7" r="4.9"/><circle cx="56.6" cy="182" r="9.7"/><circle cx="641.4" cy="310.2" r="9.7"/></g></g></svg>