<svg width="359" height="85" viewBox="0 0 359 85" fill="none" xmlns="http://www.w3.org/2000/svg">
<g opacity="0.5" filter="url(#filter0_f)">
<path d="M26.1284 46.4438L331.463 34.4518L311.129 58.9572H26.1284V46.4438Z" fill="#00ACC1"/>
</g>
<g opacity="0.5" filter="url(#filter1_f)">
<path d="M25.0854 47.4866L333.027 33.9304L310.607 58.9572L25.0854 60V47.4866Z" fill="#8AC6C6"/>
</g>
<path d="M332.917 0L311.041 22.8956L292.359 22.8956L314.234 -8.1665e-07L332.917 0Z" fill="#F2F7FF"/>
<path d="M332.917 0L311.041 22.8956L292.359 22.8956L314.234 -8.1665e-07L332.917 0Z" fill="url(#paint0_linear)" fill-opacity="0.4"/>
<path d="M333 0L311 22.9412L22.9998 22.9412L44.8878 -2.08177e-06L333 0Z" fill="#6CC3D4"/>
<path d="M333 0L311 22.9412L22.9998 22.9412L44.8878 -2.08177e-06L333 0Z" fill="url(#paint1_linear)" fill-opacity="0.4"/>
<path d="M23.0292 23L23 56H310.971L311 23L23.0292 23Z" fill="#8DDEE6"/>
<path d="M23.0292 23L23 56H310.971L311 23L23.0292 23Z" fill="url(#paint2_linear)" fill-opacity="0.4"/>
<path d="M332.826 31.8049L311.042 56.3103L311.042 22.8955L332.826 0.0911039L332.826 31.8049Z" fill="#4CA9C6"/>
<defs>
<filter id="filter0_f" x="21.1284" y="29.4518" width="315.335" height="34.5054" filterUnits="userSpaceOnUse" color-interpolation-filters="sRGB">
<feFlood flood-opacity="0" result="BackgroundImageFix"/>
<feBlend mode="normal" in="SourceGraphic" in2="BackgroundImageFix" result="shape"/>
<feGaussianBlur stdDeviation="2.5" result="effect1_foregroundBlur"/>
</filter>
<filter id="filter1_f" x="0.0854492" y="8.93042" width="357.942" height="76.0696" filterUnits="userSpaceOnUse" color-interpolation-filters="sRGB">
<feFlood flood-opacity="0" result="BackgroundImageFix"/>
<feBlend mode="normal" in="SourceGraphic" in2="BackgroundImageFix" result="shape"/>
<feGaussianBlur stdDeviation="12.5" result="effect1_foregroundBlur"/>
</filter>
<linearGradient id="paint0_linear" x1="346.163" y1="22.9413" x2="299.442" y2="6.09464" gradientUnits="userSpaceOnUse">
<stop stop-color="white"/>
<stop offset="1" stop-color="white" stop-opacity="0"/>
</linearGradient>
<linearGradient id="paint1_linear" x1="23" y1="23" x2="328.983" y2="-0.221654" gradientUnits="userSpaceOnUse">
<stop stop-color="white"/>
<stop offset="1" stop-color="white" stop-opacity="0"/>
</linearGradient>
<linearGradient id="paint2_linear" x1="310.874" y1="23.2155" x2="23.7759" y2="61.5116" gradientUnits="userSpaceOnUse">
<stop stop-color="white"/>
<stop offset="1" stop-color="white" stop-opacity="0"/>
</linearGradient>
</defs>
</svg>
