<svg width="100" height="100" viewBox="0 0 100 100" fill="none" xmlns="http://www.w3.org/2000/svg">
<g opacity="0.4">
<path d="M90.2344 0H9.76562C4.38086 0 0 4.38086 0 9.76562V90.2344C0 95.6191 4.38086 100 9.76562 100H90.2344C95.6191 100 100 95.6191 100 90.2344V9.76562C100 4.38086 95.6191 0 90.2344 0ZM96.0938 90.2344C96.0938 93.4652 93.4652 96.0938 90.2344 96.0938H9.76562C6.53477 96.0938 3.90625 93.4652 3.90625 90.2344V9.76562C3.90625 6.53477 6.53477 3.90625 9.76562 3.90625H90.2344C93.4652 3.90625 96.0938 6.53477 96.0938 9.76562V90.2344Z" fill="#8AC6C6"/>
<path d="M88.6719 9.375H11.3281C10.2494 9.375 9.375 10.2494 9.375 11.3281V88.6719C9.375 89.7506 10.2494 90.625 11.3281 90.625H88.6719C89.7504 90.625 90.625 89.7506 90.625 88.6719V11.3281C90.625 10.2494 89.7504 9.375 88.6719 9.375ZM86.7188 86.7188H13.2812V13.2812H86.7188V86.7188Z" fill="#8AC6C6"/>
<path d="M44.4212 47.1831C43.9929 48.0298 43.75 48.9863 43.75 49.9999C43.75 53.4517 46.5482 56.2499 49.9999 56.2499C53.4517 56.2499 56.2499 53.4517 56.2499 49.9999C56.2499 48.9863 56.0072 48.03 55.5789 47.1833L68.9738 33.7884C69.7365 33.0257 69.7365 31.789 68.9738 31.0261C68.2109 30.2634 66.9746 30.2634 66.2115 31.0261L52.8165 44.421C51.9701 43.9927 51.0136 43.7499 49.9999 43.7499C48.9863 43.7499 48.0298 43.9927 47.1832 44.421L40.4064 37.6443C39.6437 36.8816 38.407 36.8816 37.6443 37.6443C36.8816 38.407 36.8816 39.6437 37.6443 40.4064L44.4212 47.1831Z" fill="#8AC6C6"/>
<path d="M78.1855 51.9531H80.8594C81.9379 51.9531 82.8125 51.0787 82.8125 50C82.8125 48.9213 81.9379 48.0469 80.8594 48.0469H78.1855C77.107 48.0469 76.2324 48.9213 76.2324 50C76.2324 51.0787 77.1068 51.9531 78.1855 51.9531Z" fill="#8AC6C6"/>
<path d="M19.1406 51.9531H21.8145C22.8932 51.9531 23.7676 51.0787 23.7676 50C23.7676 48.9213 22.8932 48.0469 21.8145 48.0469H19.1406C18.0619 48.0469 17.1875 48.9213 17.1875 50C17.1875 51.0787 18.0619 51.9531 19.1406 51.9531Z" fill="#8AC6C6"/>
<path d="M50 76.2334C48.9213 76.2334 48.0469 77.1078 48.0469 78.1865V80.8604C48.0469 81.9391 48.9213 82.8135 50 82.8135C51.0785 82.8135 51.9531 81.9391 51.9531 80.8604V78.1865C51.9531 77.1078 51.0785 76.2334 50 76.2334Z" fill="#8AC6C6"/>
<path d="M50 23.8392C51.0785 23.8392 51.9531 22.9648 51.9531 21.8861V19.2123C51.9531 18.1336 51.0785 17.2592 50 17.2592C48.9213 17.2592 48.0469 18.1336 48.0469 19.2123V21.8861C48.0469 22.9648 48.9213 23.8392 50 23.8392Z" fill="#8AC6C6"/>
</g>
</svg>
