<svg width="72" height="72" viewBox="0 0 72 72" fill="none" xmlns="http://www.w3.org/2000/svg">
<path d="M41.7996 14.4141C41.6428 13.9657 41.3985 13.5531 41.0808 13.2C42.4045 11.7289 42.2851 9.46334 40.8141 8.13959C40.461 7.82189 40.0483 7.57754 39.6 7.42079V4.79999H37.2V7.19999H34.8V4.79999H32.4V7.19999H31.2C30.5373 7.19999 30 7.73729 30 8.39999V18C30 18.6627 30.5373 19.2 31.2 19.2H32.4V21.6H34.8V19.2H37.2V21.6H39.6V18.9792C41.4681 18.3259 42.4528 16.282 41.7996 14.4141ZM38.4 16.8H32.4V14.4H38.4C39.0627 14.4 39.6 14.9373 39.6 15.6C39.6 16.2627 39.0627 16.8 38.4 16.8ZM38.4 12H32.4V9.59999H38.4C39.0627 9.59999 39.6 10.1373 39.6 10.8C39.6 11.4627 39.0627 12 38.4 12Z" fill="#D2DCF6"/>
<path d="M36 0C28.7134 0.00855 22.8085 5.91345 22.8 13.2C22.8 20.4902 28.7098 26.4 36 26.4C43.2901 26.4 49.2 20.4902 49.2 13.2C49.2 5.90985 43.2901 0 36 0ZM36 24C30.0354 24 25.2 19.1646 25.2 13.2C25.2 7.23525 30.0354 2.4 36 2.4C41.9619 2.4066 46.7934 7.2381 46.8 13.2C46.8 19.1646 41.9647 24 36 24Z" fill="#D2DCF6"/>
<path d="M58.8 18C51.5099 18 45.6 23.9099 45.6 31.2C45.6 38.4902 51.5099 44.4 58.8 44.4C66.0902 44.4 72 38.4902 72 31.2C71.9915 23.9135 66.0866 18.0086 58.8 18ZM58.8 42C52.8354 42 48 37.1646 48 31.2C48 25.2353 52.8354 20.4 58.8 20.4C64.7648 20.4 69.6 25.2353 69.6 31.2C69.5934 37.1619 64.7619 41.9934 58.8 42Z" fill="#D2DCF6"/>
<path d="M65.396 32.1348C64.8162 30.8339 63.5243 29.997 62.1 30C61.8668 30.0012 61.6341 30.0245 61.4052 30.0696C62.7764 28.6298 62.7207 26.3511 61.2809 24.98C59.841 23.6088 57.5624 23.6645 56.1912 25.1043C54.8672 26.4947 54.8672 28.6793 56.1912 30.0696C55.9758 30.0263 55.757 30.003 55.5372 30C53.549 29.9966 51.9344 31.6055 51.9309 33.5937C51.9275 35.582 53.5364 37.1966 55.5246 37.2C56.9484 37.2026 58.2398 36.3657 58.8192 35.0652C59.6285 36.8813 61.7567 37.6976 63.5727 36.8883C65.3889 36.0791 66.2051 33.9509 65.396 32.1348ZM55.5372 34.8C54.8745 34.8 54.3372 34.2627 54.3372 33.6C54.3372 32.9373 54.8745 32.4 55.5372 32.4C56.1999 32.4 56.7372 32.9373 56.7372 33.6C56.7372 34.2627 56.1999 34.8 55.5372 34.8ZM58.8192 32.1348C58.6527 31.766 58.4256 31.4277 58.1472 31.134C58.3623 31.1762 58.5809 31.1982 58.8 31.2C59.0333 31.1988 59.2659 31.1756 59.4948 31.1304C59.2142 31.4244 58.9857 31.764 58.8192 32.1348ZM58.8 28.8C58.1373 28.8 57.6 28.2627 57.6 27.6C57.6 26.9373 58.1373 26.4 58.8 26.4C59.4627 26.4 60 26.9373 60 27.6C60 28.2627 59.4627 28.8 58.8 28.8ZM62.1 34.8C61.4373 34.8 60.9 34.2627 60.9 33.6C60.9 32.9373 61.4373 32.4 62.1 32.4C62.7627 32.4 63.3 32.9373 63.3 33.6C63.3 34.2627 62.7627 34.8 62.1 34.8Z" fill="#D2DCF6"/>
<path d="M19.2 45.6C11.9098 45.6 6 51.5098 6 58.8C6 66.0901 11.9098 72 19.2 72C26.4901 72 32.4 66.0901 32.4 58.8C32.3914 51.5134 26.4865 45.6085 19.2 45.6ZM19.2 69.6C13.2352 69.6 8.4 64.7646 8.4 58.8C8.4 52.8352 13.2352 48 19.2 48C25.1647 48 30 52.8352 30 58.8C29.9934 64.7619 25.1619 69.5934 19.2 69.6Z" fill="#D2DCF6"/>
<path d="M16.2468 61.2L17.3136 58.8H21.6V56.4H18.3804L20.3004 52.0872L18.1068 51.1128L15.7536 56.4H13.2V58.8H14.6868L13.3032 61.9128C13.0341 62.5185 13.3069 63.2275 13.9126 63.4966C14.0661 63.5647 14.2321 63.6 14.4 63.6H24V61.2H16.2468Z" fill="#D2DCF6"/>
<path d="M52.8 45.6C45.5099 45.6 39.6 51.5098 39.6 58.8C39.6 66.0901 45.5099 72 52.8 72C60.0902 72 66 66.0901 66 58.8C65.9915 51.5134 60.0866 45.6085 52.8 45.6ZM52.8 69.6C46.8354 69.6 42 64.7646 42 58.8C42 52.8352 46.8354 48 52.8 48C58.7648 48 63.6 52.8352 63.6 58.8C63.5934 64.7619 58.7619 69.5934 52.8 69.6Z" fill="#D2DCF6"/>
<path d="M13.2 18C5.90985 18 0 23.9099 0 31.2C0.00855 38.4866 5.91345 44.3915 13.2 44.4C20.4902 44.4 26.4 38.4902 26.4 31.2C26.4 23.9099 20.4902 18 13.2 18ZM13.2 42C7.23525 42 2.4 37.1646 2.4 31.2C2.4066 25.2381 7.2381 20.4066 13.2 20.4C19.1648 20.4 24 25.2353 24 31.2C24 37.1646 19.1648 42 13.2 42Z" fill="#D2DCF6"/>
<path d="M17.7167 25.2875C17.4852 25.2294 17.2475 25.2 17.0088 25.2H8.40001V27.6H17.0088C17.1665 27.5993 17.3156 27.672 17.412 27.7968C17.5101 27.9201 17.5443 28.0824 17.5044 28.2348L15.96 34.4124C15.9029 34.6403 15.6981 34.7999 15.4632 34.8H7.20001V37.2H15.4644C16.8008 37.2014 17.9658 36.2913 18.288 34.9944L19.8312 28.818C20.2223 27.2592 19.2755 25.6785 17.7167 25.2875Z" fill="#D2DCF6"/>
<path d="M12 30H6V32.4H12V30Z" fill="#D2DCF6"/>
<path d="M58.8 60V54C58.8 53.3373 58.2627 52.8 57.6 52.8C57.3403 52.8 57.0877 52.8842 56.88 53.04L52.8 56.1L48.72 53.04C48.1897 52.6424 47.4376 52.7498 47.04 53.28C46.8841 53.4878 46.8 53.7404 46.8 54V60H44.4V62.4H48C48.6627 62.4 49.2 61.8627 49.2 61.2V56.4L52.08 58.56C52.5066 58.88 53.0934 58.88 53.52 58.56L56.4 56.4V61.2C56.4 61.8627 56.9373 62.4 57.6 62.4H61.2V60H58.8Z" fill="#D2DCF6"/>
<path d="M13.2 7.20001H10.8V9.60001H13.2V7.20001Z" fill="#D2DCF6"/>
<path d="M20.4 6H18V8.4H20.4V6Z" fill="#D2DCF6"/>
<path d="M10.8 13.2H8.39999V15.6H10.8V13.2Z" fill="#D2DCF6"/>
<path d="M2.4 49.2H0V51.6H2.4V49.2Z" fill="#D2DCF6"/>
<path d="M4.79999 43.2H2.39999V45.6H4.79999V43.2Z" fill="#D2DCF6"/>
<path d="M3.60001 55.2H1.20001V57.6H3.60001V55.2Z" fill="#D2DCF6"/>
<path d="M37.2 69.6H34.8V72H37.2V69.6Z" fill="#D2DCF6"/>
<path d="M33.6 67.2H31.2V69.6H33.6V67.2Z" fill="#D2DCF6"/>
<path d="M40.8 67.2H38.4V69.6H40.8V67.2Z" fill="#D2DCF6"/>
<path d="M62.4 6H60V8.4H62.4V6Z" fill="#D2DCF6"/>
<path d="M64.8 13.2H62.4V15.6H64.8V13.2Z" fill="#D2DCF6"/>
<path d="M54 4.79999H51.6V7.19999H54V4.79999Z" fill="#D2DCF6"/>
<path d="M69.6 43.2H67.2V45.6H69.6V43.2Z" fill="#D2DCF6"/>
<path d="M69.6 54H67.2V56.4H69.6V54Z" fill="#D2DCF6"/>
<path d="M72 48H69.6V50.4H72V48Z" fill="#D2DCF6"/>
</svg>
