<svg width="237" height="315" viewBox="0 0 237 315" fill="none" xmlns="http://www.w3.org/2000/svg">
<path d="M118.578 216.893L118.797 216.984L119.017 216.893L234.979 168.575L118.797 313.802L2.61597 168.575L118.578 216.893ZM64.3536 214.373L63.689 215.256L118.352 283.584L119.368 284.854V283.228V237.675V237.294L119.017 237.148L111.452 233.997L111.452 233.997L64.3536 214.373Z" stroke="#D2DCF6" stroke-width="1.14046"/>
<path d="M118.86 138.255L119.368 138.198V137.688V32.7816V31.0709L118.341 32.4395L32.5096 146.883L31.7187 147.938L33.0287 147.792L118.86 138.255ZM118.797 0.950385L235.885 157.067L118.797 196.096L1.71017 157.067L118.797 0.950385Z" stroke="#D2DCF6" stroke-width="1.14046"/>
</svg>
