<svg width="42" height="42" viewBox="0 0 42 42" fill="none" xmlns="http://www.w3.org/2000/svg">
<circle cx="21" cy="21" r="21" fill="#56CCF2"/>
<path d="M16.7148 19H14.4043V11.6445L12.1348 12.3076V10.5576L16.5029 9.04688H16.7148V19Z" fill="#333333"/>
<path d="M18.5537 33H11.6084V31.4961L14.8076 28.1328C15.596 27.235 15.9902 26.5218 15.9902 25.9932C15.9902 25.5648 15.8968 25.2389 15.71 25.0156C15.5231 24.7923 15.252 24.6807 14.8965 24.6807C14.5456 24.6807 14.2607 24.8311 14.042 25.1318C13.8232 25.4281 13.7139 25.7995 13.7139 26.2461H11.4033C11.4033 25.6354 11.556 25.0726 11.8613 24.5576C12.1667 24.0381 12.5905 23.6325 13.1328 23.3408C13.6751 23.0492 14.2812 22.9033 14.9512 22.9033C16.0267 22.9033 16.8538 23.1517 17.4326 23.6484C18.016 24.1452 18.3076 24.8584 18.3076 25.7881C18.3076 26.18 18.2347 26.5628 18.0889 26.9365C17.943 27.3057 17.7152 27.6953 17.4053 28.1055C17.0999 28.5111 16.6055 29.0557 15.9219 29.7393L14.6367 31.2227H18.5537V33Z" fill="#333333"/>
<path d="M24.7139 13.0596H25.8008C26.6621 13.0596 27.0928 12.638 27.0928 11.7949C27.0928 11.4668 26.9902 11.2002 26.7852 10.9951C26.5801 10.7855 26.2907 10.6807 25.917 10.6807C25.6117 10.6807 25.3451 10.7695 25.1172 10.9473C24.8939 11.125 24.7822 11.346 24.7822 11.6104H22.4785C22.4785 11.0863 22.6243 10.6191 22.916 10.209C23.2077 9.79883 23.611 9.47982 24.126 9.25195C24.6455 9.01953 25.2152 8.90332 25.835 8.90332C26.9424 8.90332 27.8128 9.15625 28.4463 9.66211C29.0798 10.168 29.3965 10.863 29.3965 11.7471C29.3965 12.1755 29.2643 12.5811 29 12.9639C28.7402 13.3421 28.3597 13.6497 27.8584 13.8867C28.387 14.0781 28.8018 14.3698 29.1025 14.7617C29.4033 15.1491 29.5537 15.6299 29.5537 16.2041C29.5537 17.0928 29.2119 17.8037 28.5283 18.3369C27.8447 18.8701 26.9469 19.1367 25.835 19.1367C25.1833 19.1367 24.5771 19.0137 24.0166 18.7676C23.4606 18.5169 23.0391 18.1729 22.752 17.7354C22.4648 17.2933 22.3213 16.792 22.3213 16.2314H24.6387C24.6387 16.5368 24.7617 16.8011 25.0078 17.0244C25.2539 17.2477 25.557 17.3594 25.917 17.3594C26.3226 17.3594 26.6462 17.2477 26.8877 17.0244C27.1292 16.7965 27.25 16.5072 27.25 16.1562C27.25 15.6549 27.1247 15.2995 26.874 15.0898C26.6234 14.8802 26.277 14.7754 25.835 14.7754H24.7139V13.0596Z" fill="#333333"/>
<path d="M28.6924 29.1104H29.7041V30.8877H28.6924V33H26.3887V30.8877H22.54L22.4033 29.4795L26.3887 23.0674V23.0469H28.6924V29.1104ZM24.5977 29.1104H26.3887V26.0479L26.2451 26.2803L24.5977 29.1104Z" fill="#333333"/>
</svg>
