<svg width="120" height="232" viewBox="0 0 120 232" fill="none" xmlns="http://www.w3.org/2000/svg">
<path d="M58.6407 142.355C59.0581 142.149 59.5475 142.148 59.9655 142.353L116.103 169.878C117.225 170.428 117.222 172.027 116.099 172.573L60.4279 199.653C60.0092 199.857 59.5198 199.854 59.1031 199.647L3.83225 172.122C2.72188 171.569 2.72435 169.984 3.83644 169.434L58.6407 142.355Z" stroke="#E0E7F0"/>
<path d="M35.3745 24.1572L59.722 36.3309V184.277L35.3745 172.104V24.1572Z" fill="#D8E0F9"/>
<path d="M35.3745 24.1572L59.722 36.3309V184.277L35.3745 172.104V24.1572Z" fill="url(#paint0_linear)" fill-opacity="0.4"/>
<path d="M84.0688 24.1572L59.7214 36.3309V184.277L84.0688 172.104V24.1572Z" fill="#B8C5E5"/>
<path d="M59.5359 12.3639L84.1668 24.4407L59.7224 36.3309L35.4719 24.2542L59.5359 12.3639Z" fill="#C9D4F0"/>
<path d="M59.5359 12.3639L84.1668 24.4407L59.7224 36.3309L35.4719 24.2542L59.5359 12.3639Z" fill="url(#paint1_linear)" fill-opacity="0.8"/>
<defs>
<linearGradient id="paint0_linear" x1="59.7705" y1="37.204" x2="35.3745" y2="90.8753" gradientUnits="userSpaceOnUse">
<stop stop-color="white"/>
<stop offset="1" stop-color="white" stop-opacity="0"/>
</linearGradient>
<linearGradient id="paint1_linear" x1="35.3747" y1="24.396" x2="84.1667" y2="24.396" gradientUnits="userSpaceOnUse">
<stop stop-color="white"/>
<stop offset="1" stop-color="white" stop-opacity="0"/>
</linearGradient>
</defs>
</svg>
