<svg width="50" height="110" viewBox="0 0 50 110" fill="none" xmlns="http://www.w3.org/2000/svg">
<path d="M0 24.7554L24.9502 37.2305V57.5899L0 45.1147V24.7554Z" fill="#F2F7FF"/>
<path d="M0 24.7554L24.9502 37.2305V57.5899L0 45.1147V24.7554Z" fill="url(#paint0_linear)" fill-opacity="0.4"/>
<path d="M0 45.1147L24.9502 57.5899V109.609L0 97.134V45.1147Z" fill="#3F85F4"/>
<path d="M0 45.1147L24.9502 57.5899V109.609L0 97.134V45.1147Z" fill="url(#paint1_linear)" fill-opacity="0.4"/>
<path d="M49.9004 24.7554L24.9501 37.2305V57.5899L49.9004 45.1147V24.7554Z" fill="#D2DCF6"/>
<path d="M49.9001 45.1147L24.9499 57.5899V109.609L49.9001 97.134V45.1147Z" fill="#2769D0"/>
<path d="M24.7592 12.67L49.9999 25.0458L24.9503 37.2304L0.0994162 24.8547L24.7592 12.67Z" fill="#DFE8FF"/>
<path d="M24.7592 12.67L49.9999 25.0458L24.9503 37.2304L0.0994162 24.8547L24.7592 12.67Z" fill="url(#paint2_linear)" fill-opacity="0.8"/>
<defs>
<linearGradient id="paint0_linear" x1="25" y1="14.0319" x2="14.3174" y2="53.9117" gradientUnits="userSpaceOnUse">
<stop stop-color="white"/>
<stop offset="1" stop-color="white" stop-opacity="0"/>
</linearGradient>
<linearGradient id="paint1_linear" x1="25" y1="45" x2="-3.24225e-06" y2="95.5" gradientUnits="userSpaceOnUse">
<stop stop-color="white"/>
<stop offset="1" stop-color="white" stop-opacity="0"/>
</linearGradient>
<linearGradient id="paint2_linear" x1="-0.000184615" y1="25" x2="49.9998" y2="25" gradientUnits="userSpaceOnUse">
<stop stop-color="white"/>
<stop offset="1" stop-color="white" stop-opacity="0"/>
</linearGradient>
</defs>
</svg>
