<svg width="50" height="110" viewBox="0 0 50 110" fill="none" xmlns="http://www.w3.org/2000/svg">
<path d="M0 24.7554L24.9502 37.2305V102.59L0 90.1147V24.7554Z" fill="#F2F7FF"/>
<path d="M0 24.7554L24.9502 37.2305V102.59L0 90.1147V24.7554Z" fill="url(#paint0_linear)" fill-opacity="0.4"/>
<path d="M0 90.1147L24.9502 102.59V109.609L0 97.134V90.1147Z" fill="#8DDEE6"/>
<path d="M0 90.1147L24.9502 102.59V109.609L0 97.134V90.1147Z" fill="url(#paint1_linear)" fill-opacity="0.4"/>
<path d="M49.9004 24.7554L24.9501 37.2305V102.59L49.9004 90.1147V24.7554Z" fill="#D2DCF6"/>
<path d="M49.9001 90.1147L24.9499 102.59V109.609L49.9001 97.134V90.1147Z" fill="#4CA9C6"/>
<path d="M24.7592 12.67L49.9999 25.0458L24.9503 37.2304L0.0994162 24.8547L24.7592 12.67Z" fill="#DFE8FF"/>
<path d="M24.7592 12.67L49.9999 25.0458L24.9503 37.2304L0.0994162 24.8547L24.7592 12.67Z" fill="url(#paint2_linear)" fill-opacity="0.8"/>
<defs>
<linearGradient id="paint0_linear" x1="25" y1="-0.664824" x2="-20.8494" y2="71.5402" gradientUnits="userSpaceOnUse">
<stop stop-color="white"/>
<stop offset="1" stop-color="white" stop-opacity="0"/>
</linearGradient>
<linearGradient id="paint1_linear" x1="25" y1="45" x2="8.75266e-07" y2="95.5" gradientUnits="userSpaceOnUse">
<stop stop-color="white"/>
<stop offset="1" stop-color="white" stop-opacity="0"/>
</linearGradient>
<linearGradient id="paint2_linear" x1="-0.000184615" y1="25" x2="49.9998" y2="25" gradientUnits="userSpaceOnUse">
<stop stop-color="white"/>
<stop offset="1" stop-color="white" stop-opacity="0"/>
</linearGradient>
</defs>
</svg>
