<svg width="510" height="550" viewBox="0 0 510 550" fill="none" xmlns="http://www.w3.org/2000/svg">
<g clip-path="url(#clip0)">
<path d="M333.481 66.0342C333.481 66.0342 364.386 3.40625 379.783 41.0052C395.217 78.6411 352.579 84.8891 359.315 106.036C366.051 127.183 378.413 128.736 368.346 145.262C358.279 161.788 336.479 154.394 333.592 172.62C330.742 190.846 300.762 189.811 300.762 189.811L333.481 66.0342Z" fill="url(#paint0_linear)"/>
<path d="M306.166 185.818L305.426 185.56C305.833 184.303 347.545 58.0856 366.977 39.4895L367.532 40.0441C348.249 58.5293 306.61 184.524 306.166 185.818Z" fill="white"/>
<path d="M313.272 164.856L312.606 164.487C313.383 163.082 332.148 129.66 348.433 123.967L348.693 124.706C332.666 130.289 313.494 164.524 313.272 164.856Z" fill="white"/>
<g clip-path="url(#clip1)">
<path d="M193.801 307.617C193.801 315.264 187.604 321.504 180.012 321.504C174.252 321.504 169.364 317.988 167.27 312.891C166.572 311.309 166.223 309.463 166.223 307.617C166.223 299.971 172.419 293.73 180.012 293.73C181.757 293.73 183.503 294.082 185.074 294.697C190.223 296.719 193.801 301.729 193.801 307.617Z" fill="url(#paint1_linear)"/>
<path opacity="0.1" d="M186.121 299.971C186.121 307.617 179.924 313.857 172.332 313.857C170.586 313.857 168.841 313.506 167.27 312.891C166.572 311.309 166.223 309.463 166.223 307.617C166.223 299.971 172.419 293.73 180.012 293.73C181.757 293.73 183.503 294.082 185.074 294.697C185.772 296.367 186.121 298.125 186.121 299.971Z" fill="white"/>
<path d="M180.884 302.871C180.884 299.531 178.179 296.807 174.863 296.807C171.546 296.807 168.841 299.531 168.841 302.871C168.841 306.211 171.546 308.936 174.863 308.936C178.179 308.848 180.884 306.211 180.884 302.871Z" fill="white"/>
<path opacity="0.3" d="M180.186 295.313C179.488 294.258 176.783 294.961 174.077 296.807C171.372 298.652 169.713 300.938 170.412 301.992C171.11 303.047 173.815 302.344 176.521 300.498C179.226 298.652 180.884 296.367 180.186 295.313Z" fill="white"/>
<path opacity="0.3" d="M171.459 306.826C170.935 308.496 169.888 309.639 169.103 309.375C168.23 309.111 167.968 307.617 168.492 305.947C169.015 304.277 170.063 303.135 170.848 303.398C171.634 303.574 171.983 305.156 171.459 306.826Z" fill="white"/>
<path d="M349.844 245.479C349.844 311.221 296.957 364.395 231.764 364.395C171.197 364.395 121.277 318.516 114.47 259.365C113.946 254.795 113.685 250.137 113.685 245.479C113.597 179.824 166.485 126.562 231.764 126.562C237.874 126.562 243.895 127.002 249.743 127.969C306.382 136.67 349.844 185.977 349.844 245.479Z" fill="url(#paint2_linear)"/>
<path opacity="0.4" d="M250.528 141.855C250.528 207.598 197.641 260.771 132.448 260.771C126.339 260.771 120.317 260.332 114.47 259.365C113.946 254.795 113.685 250.137 113.685 245.479C113.597 179.824 166.485 126.562 231.764 126.562C237.873 126.562 243.895 127.002 249.743 127.969C250.179 132.451 250.528 137.109 250.528 141.855Z" fill="white"/>
<path d="M355.43 246.094C355.43 249.346 352.812 251.895 349.67 251.895H112.987C109.757 251.895 107.227 249.258 107.227 246.094C107.227 246.006 107.227 245.918 107.227 245.918C107.314 242.754 109.845 240.293 112.987 240.293H349.67C352.812 240.293 355.342 242.754 355.43 245.918C355.43 246.006 355.43 246.094 355.43 246.094Z" fill="url(#paint3_linear)"/>
<path d="M139.692 219.551C135.067 218.32 132.623 213.311 134.368 208.828C137.248 201.445 142.485 190.283 150.95 179.121C168.143 156.445 191.183 143.701 218.063 142.031C222.775 141.768 226.703 145.547 226.528 150.205C226.441 154.424 223.125 157.764 219.023 158.027C196.855 159.434 178.354 169.629 163.954 188.525C156.448 198.369 151.736 208.389 149.205 214.805C147.721 218.584 143.619 220.606 139.692 219.551Z" fill="white"/>
<path d="M249.306 245.566C249.306 235.811 241.452 227.9 231.764 227.9C222.077 227.9 214.223 235.811 214.223 245.566C214.223 255.322 222.077 263.232 231.764 263.232C241.452 263.232 249.306 255.322 249.306 245.566Z" fill="url(#paint4_linear)"/>
<path d="M184.637 321.68C184.637 329.59 178.266 335.918 170.499 335.918C164.564 335.918 159.503 332.227 157.408 327.041C156.71 325.371 156.361 323.525 156.361 321.592C156.361 313.682 162.732 307.354 170.499 307.354C172.332 307.354 174.077 307.705 175.648 308.32C180.884 310.43 184.637 315.615 184.637 321.68Z" fill="url(#paint5_linear)"/>
<path opacity="0.1" d="M176.695 313.77C176.695 321.68 170.324 328.008 162.557 328.008C160.724 328.008 158.979 327.656 157.408 327.041C156.71 325.371 156.361 323.525 156.361 321.592C156.361 313.682 162.732 307.354 170.499 307.354C172.332 307.354 174.077 307.705 175.648 308.32C176.346 310.078 176.695 311.924 176.695 313.77Z" fill="white"/>
<path d="M171.284 316.758C171.284 313.33 168.492 310.518 165.088 310.518C161.684 310.518 158.892 313.33 158.892 316.758C158.892 320.186 161.684 322.998 165.088 322.998C168.579 322.998 171.284 320.186 171.284 316.758Z" fill="#EBF0FD"/>
<path opacity="0.3" d="M170.586 309.023C169.888 307.969 167.095 308.672 164.303 310.518C161.51 312.363 159.852 314.736 160.55 315.791C161.248 316.846 164.041 316.143 166.834 314.297C169.626 312.451 171.285 310.078 170.586 309.023Z" fill="white"/>
<path opacity="0.3" d="M161.597 320.801C161.073 322.471 160.026 323.701 159.154 323.438C158.281 323.174 158.019 321.592 158.543 319.922C159.066 318.252 160.113 317.021 160.986 317.285C161.859 317.549 162.121 319.131 161.597 320.801Z" fill="white"/>
<path d="M164.914 319.658C164.652 319.658 164.39 319.658 164.128 319.57C163.866 319.482 163.692 319.395 163.517 319.219C163.343 319.043 163.255 318.955 163.168 318.691C163.081 318.516 162.994 318.252 162.994 317.988C162.994 317.637 163.081 317.285 163.255 317.109C163.43 316.846 163.692 316.67 164.041 316.582C163.779 316.494 163.517 316.318 163.343 316.055C163.168 315.879 163.081 315.615 163.081 315.264C163.081 315.088 163.081 314.824 163.168 314.648C163.255 314.473 163.343 314.297 163.517 314.209C163.692 314.033 163.866 313.945 164.041 313.857C164.215 313.77 164.477 313.77 164.739 313.77C165.001 313.77 165.263 313.77 165.437 313.857C165.612 313.945 165.786 314.033 165.961 314.209C166.135 314.385 166.223 314.473 166.31 314.648C166.397 314.824 166.397 315 166.397 315.264C166.397 315.527 166.31 315.791 166.135 316.055C165.961 316.23 165.786 316.406 165.437 316.582C165.786 316.67 166.048 316.846 166.223 317.109C166.397 317.373 166.485 317.637 166.485 317.988C166.485 318.252 166.397 318.428 166.31 318.691C166.223 318.867 166.048 319.043 165.961 319.219C165.786 319.395 165.612 319.482 165.35 319.57C165.437 319.57 165.175 319.658 164.914 319.658ZM164.914 319.043C165.088 319.043 165.263 319.043 165.437 318.955C165.612 318.867 165.699 318.867 165.786 318.779C165.874 318.691 165.961 318.604 166.048 318.428C166.135 318.34 166.135 318.164 166.135 317.988C166.135 317.813 166.135 317.637 166.048 317.461C165.961 317.285 165.874 317.197 165.786 317.109C165.699 317.021 165.525 316.934 165.437 316.934C165.263 316.934 165.175 316.846 165.001 316.846C164.826 316.846 164.739 316.846 164.565 316.934C164.39 316.934 164.303 317.021 164.215 317.109C164.128 317.197 164.041 317.285 163.954 317.461C163.866 317.637 163.866 317.725 163.866 317.988C163.866 318.164 163.866 318.252 163.954 318.428C164.041 318.516 164.041 318.691 164.215 318.779C164.303 318.867 164.477 318.955 164.565 318.955C164.565 319.043 164.652 319.043 164.914 319.043ZM164.914 316.406C165.088 316.406 165.263 316.406 165.35 316.318C165.437 316.23 165.612 316.23 165.699 316.055C165.786 315.967 165.874 315.879 165.874 315.703C165.874 315.615 165.961 315.439 165.961 315.352C165.961 315.264 165.961 315.088 165.874 315C165.874 314.912 165.786 314.824 165.699 314.736C165.612 314.648 165.525 314.561 165.35 314.561C165.263 314.473 165.088 314.473 164.914 314.473C164.739 314.473 164.565 314.473 164.477 314.561C164.39 314.648 164.215 314.648 164.128 314.736C164.041 314.824 163.954 314.912 163.954 315C163.954 315.088 163.866 315.264 163.866 315.352C163.866 315.439 163.866 315.615 163.954 315.703C163.954 315.791 164.041 315.967 164.128 316.055C164.215 316.143 164.303 316.23 164.477 316.318C164.565 316.318 164.652 316.406 164.914 316.406Z" fill="#2C6DA6"/>
<path d="M233.859 342.07C233.859 349.98 227.488 356.309 219.721 356.309C213.786 356.309 208.724 352.617 206.63 347.432C205.932 345.762 205.583 343.916 205.583 341.982C205.583 334.072 211.953 327.744 219.721 327.744C221.553 327.744 223.299 328.096 224.87 328.711C230.106 330.908 233.859 336.094 233.859 342.07Z" fill="url(#paint6_linear)"/>
<path opacity="0.1" d="M225.917 334.248C225.917 342.158 219.546 348.486 211.779 348.486C209.946 348.486 208.201 348.135 206.63 347.52C205.932 345.85 205.583 344.004 205.583 342.07C205.583 334.16 211.953 327.832 219.721 327.832C221.553 327.832 223.299 328.184 224.87 328.799C225.568 330.469 225.917 332.314 225.917 334.248Z" fill="white"/>
<path opacity="0.3" d="M219.808 329.502C219.11 328.447 216.317 329.15 213.524 330.996C210.732 332.842 209.073 335.215 209.772 336.27C210.47 337.324 213.263 336.621 216.055 334.775C218.848 332.93 220.506 330.557 219.808 329.502Z" fill="white"/>
<path opacity="0.3" d="M210.819 341.279C210.295 342.949 209.248 344.18 208.375 343.916C207.502 343.652 207.241 342.07 207.764 340.4C208.288 338.73 209.335 337.5 210.208 337.764C211.081 337.939 211.342 339.521 210.819 341.279Z" fill="white"/>
<path d="M197.03 303.398C197.03 310.693 191.096 316.67 183.852 316.67C178.354 316.67 173.641 313.242 171.634 308.496C171.023 306.914 170.674 305.244 170.674 303.486C170.674 296.191 176.608 290.215 183.852 290.215C185.51 290.215 187.168 290.566 188.652 291.094C193.539 293.027 197.03 297.773 197.03 303.398Z" fill="url(#paint7_linear)"/>
<path opacity="0.1" d="M189.612 296.104C189.612 303.398 183.677 309.375 176.434 309.375C174.776 309.375 173.117 309.023 171.634 308.496C171.023 306.914 170.674 305.244 170.674 303.486C170.674 296.191 176.608 290.215 183.852 290.215C185.51 290.215 187.168 290.566 188.652 291.094C189.263 292.588 189.612 294.346 189.612 296.104Z" fill="white"/>
<path opacity="0.3" d="M183.939 291.709C183.328 290.742 180.71 291.357 178.092 293.115C175.561 294.873 173.99 297.07 174.601 298.037C175.212 299.004 177.83 298.389 180.448 296.631C183.067 294.873 184.637 292.676 183.939 291.709Z" fill="white"/>
<path d="M152.347 282.92C152.347 290.215 146.412 296.191 139.168 296.191C133.67 296.191 128.958 292.764 126.95 288.018C126.339 286.436 125.99 284.766 125.99 283.008C125.99 275.713 131.925 269.736 139.168 269.736C140.827 269.736 142.485 270.088 143.968 270.615C148.856 272.549 152.347 277.383 152.347 282.92Z" fill="url(#paint8_linear)"/>
<path opacity="0.1" d="M145.016 275.625C145.016 282.92 139.082 288.896 131.838 288.896C130.18 288.896 128.522 288.545 127.038 288.018C126.427 286.436 126.078 284.766 126.078 283.008C126.078 275.713 132.013 269.736 139.256 269.736C140.914 269.736 142.573 270.088 144.056 270.615C144.667 272.197 145.016 273.867 145.016 275.625Z" fill="white"/>
<path opacity="0.3" d="M139.343 271.23C138.732 270.264 136.114 270.879 133.496 272.637C130.965 274.395 129.394 276.592 130.005 277.559C130.616 278.525 133.234 277.91 135.852 276.152C138.383 274.395 139.954 272.197 139.343 271.23Z" fill="white"/>
<path d="M193.365 271.23C193.365 278.525 187.43 284.502 180.186 284.502C174.688 284.502 169.976 281.074 167.968 276.328C167.357 274.746 167.008 273.076 167.008 271.318C167.008 264.023 172.943 258.047 180.186 258.047C181.845 258.047 183.503 258.398 184.986 258.926C189.961 260.859 193.365 265.605 193.365 271.23Z" fill="url(#paint9_linear)"/>
<path opacity="0.1" d="M186.034 263.936C186.034 271.23 180.1 277.207 172.856 277.207C171.198 277.207 169.54 276.855 168.056 276.328C167.445 274.746 167.096 273.076 167.096 271.318C167.096 264.023 173.031 258.047 180.274 258.047C181.933 258.047 183.591 258.398 185.074 258.926C185.685 260.42 186.034 262.178 186.034 263.936Z" fill="white"/>
<path d="M181.059 266.66C181.059 263.496 178.528 260.859 175.299 260.859C172.157 260.859 169.539 263.408 169.539 266.66C169.539 269.824 172.07 272.461 175.299 272.461C178.441 272.461 181.059 269.912 181.059 266.66Z" fill="#EBF0FD"/>
<path opacity="0.3" d="M180.361 259.541C179.75 258.574 177.132 259.189 174.514 260.947C171.983 262.705 170.412 264.902 171.023 265.869C171.634 266.836 174.252 266.221 176.87 264.463C179.488 262.705 181.059 260.508 180.361 259.541Z" fill="white"/>
<path d="M166.659 304.014C166.659 311.66 160.463 317.9 152.87 317.9C147.11 317.9 142.223 314.385 140.128 309.287C139.43 307.617 139.081 305.859 139.081 304.014C139.081 296.367 145.277 290.127 152.87 290.127C154.616 290.127 156.361 290.479 157.932 291.094C163.081 293.115 166.659 298.125 166.659 304.014Z" fill="url(#paint10_linear)"/>
<path opacity="0.1" d="M158.979 296.367C158.979 304.014 152.783 310.254 145.19 310.254C143.445 310.254 141.699 309.902 140.128 309.287C139.43 307.617 139.081 305.859 139.081 304.014C139.081 296.367 145.277 290.127 152.87 290.127C154.616 290.127 156.361 290.479 157.932 291.094C158.63 292.676 158.979 294.521 158.979 296.367Z" fill="white"/>
<path d="M153.743 299.18C153.743 295.84 151.037 293.115 147.721 293.115C144.405 293.115 141.699 295.84 141.699 299.18C141.699 302.52 144.405 305.244 147.721 305.244C151.037 305.244 153.743 302.52 153.743 299.18Z" fill="white"/>
<path opacity="0.3" d="M153.045 291.709C152.346 290.654 149.641 291.357 146.935 293.203C144.23 295.049 142.572 297.334 143.27 298.389C143.968 299.443 146.674 298.74 149.379 296.895C152.085 295.049 153.743 292.764 153.045 291.709Z" fill="white"/>
<path opacity="0.3" d="M144.317 303.135C143.794 304.805 142.747 305.947 141.961 305.684C141.088 305.42 140.827 303.926 141.35 302.256C141.874 300.586 142.921 299.443 143.707 299.707C144.492 299.971 144.841 301.553 144.317 303.135Z" fill="white"/>
<path d="M146.586 296.191C146.761 296.191 147.023 296.191 147.197 296.279C147.372 296.367 147.546 296.455 147.634 296.543C147.721 296.631 147.895 296.807 147.895 296.982C147.983 297.158 147.983 297.334 147.983 297.51C147.983 297.686 147.983 297.773 147.895 297.949C147.895 298.037 147.808 298.213 147.721 298.301C147.634 298.389 147.546 298.477 147.459 298.564C147.372 298.652 147.197 298.652 147.11 298.74C147.459 298.828 147.634 299.004 147.808 299.18C147.983 299.355 148.07 299.619 148.07 299.971C148.07 300.234 148.07 300.41 147.983 300.586C147.895 300.762 147.808 300.938 147.634 301.025C147.459 301.113 147.284 301.289 147.11 301.289C146.935 301.377 146.674 301.377 146.499 301.377C146.237 301.377 145.975 301.377 145.801 301.289C145.626 301.201 145.452 301.113 145.364 301.025C145.277 300.938 145.103 300.762 145.015 300.586C144.928 300.41 144.841 300.234 144.841 300.059L145.103 299.971C145.19 299.971 145.19 299.971 145.277 299.971C145.364 299.971 145.364 299.971 145.364 299.971L145.452 300.059C145.452 300.146 145.539 300.234 145.539 300.322C145.626 300.41 145.626 300.498 145.714 300.586C145.801 300.674 145.888 300.762 145.975 300.762C146.063 300.85 146.237 300.85 146.412 300.85C146.586 300.85 146.761 300.85 146.848 300.762C146.935 300.674 147.11 300.674 147.197 300.586C147.284 300.498 147.372 300.41 147.372 300.322C147.372 300.234 147.459 300.147 147.459 299.971C147.459 299.795 147.459 299.707 147.372 299.619C147.372 299.531 147.284 299.443 147.197 299.355C147.11 299.268 146.935 299.18 146.848 299.18C146.674 299.092 146.499 299.092 146.237 299.092V298.652C146.412 298.652 146.586 298.652 146.761 298.564C146.935 298.564 147.023 298.477 147.11 298.389C147.197 298.301 147.284 298.213 147.284 298.125C147.284 298.037 147.372 297.861 147.372 297.773C147.372 297.598 147.372 297.51 147.284 297.422C147.197 297.334 147.197 297.246 147.11 297.158C147.023 297.07 146.935 297.07 146.848 296.982C146.761 296.982 146.586 296.895 146.499 296.895C146.412 296.895 146.237 296.895 146.15 296.982C146.063 296.982 145.975 297.07 145.888 297.158C145.801 297.246 145.714 297.334 145.714 297.422C145.626 297.51 145.626 297.598 145.626 297.686C145.626 297.773 145.539 297.773 145.539 297.861C145.539 297.861 145.452 297.949 145.364 297.949L145.015 297.861C145.015 297.598 145.103 297.422 145.19 297.246C145.277 297.07 145.364 296.895 145.539 296.807C145.714 296.719 145.801 296.631 146.063 296.543C146.15 296.191 146.412 296.191 146.586 296.191Z" fill="url(#paint11_linear)"/>
<path d="M213.35 334.16C213.35 341.807 207.154 348.047 199.561 348.047C193.801 348.047 188.914 344.531 186.819 339.434C186.121 337.764 185.772 336.006 185.772 334.16C185.772 326.514 191.968 320.273 199.561 320.273C201.306 320.273 203.052 320.625 204.623 321.24C209.772 323.262 213.35 328.271 213.35 334.16Z" fill="url(#paint12_linear)"/>
<path opacity="0.1" d="M205.67 326.514C205.67 334.16 199.474 340.4 191.881 340.4C190.136 340.4 188.39 340.049 186.819 339.434C186.121 337.764 185.772 336.006 185.772 334.16C185.772 326.514 191.968 320.273 199.561 320.273C201.306 320.273 203.052 320.625 204.623 321.24C205.321 322.822 205.67 324.58 205.67 326.514Z" fill="white"/>
<path opacity="0.3" d="M199.735 321.855C199.037 320.801 196.332 321.504 193.626 323.35C190.921 325.195 189.263 327.48 189.961 328.535C190.659 329.59 193.365 328.887 196.07 327.041C198.775 325.195 200.434 322.91 199.735 321.855Z" fill="white"/>
<path opacity="0.3" d="M191.008 333.281C190.485 334.951 189.437 336.094 188.652 335.83C187.779 335.566 187.517 334.072 188.041 332.402C188.565 330.732 189.612 329.59 190.397 329.854C191.183 330.117 191.445 331.699 191.008 333.281Z" fill="white"/>
<path d="M301.932 435.586H160.725L231.764 237.129L301.932 435.586ZM168.666 429.961H293.99L231.677 253.828L168.666 429.961Z" fill="url(#paint13_linear)"/>
<path d="M355.43 246.094C355.43 249.346 352.812 251.895 349.67 251.895H112.987C109.757 251.895 107.227 249.258 107.227 246.094C107.227 246.006 107.227 245.918 107.227 245.918H355.43C355.43 246.006 355.43 246.094 355.43 246.094Z" fill="#001A43"/>
<path d="M240.143 245.566C240.143 240.908 236.39 237.129 231.764 237.129C227.139 237.129 223.386 240.908 223.386 245.566C223.386 250.225 227.139 254.004 231.764 254.004C236.39 254.004 240.143 250.225 240.143 245.566Z" fill="url(#paint14_linear)"/>
</g>
<path d="M140.168 157.018C140.168 157.018 113.668 24.0358 58.1131 13.1295C2.59526 2.2232 60.7409 65.9602 65.5895 76.5708C70.438 87.1443 60.3338 89.5104 70.0309 102.487C79.765 115.427 103.601 118.606 105.155 129.18C106.747 139.679 140.168 157.018 140.168 157.018Z" fill="url(#paint15_linear)"/>
<path d="M140.798 159.421C140.798 159.421 116.259 105.888 72.8809 116.647C29.503 127.368 139.613 146.888 140.798 159.421Z" fill="url(#paint16_linear)"/>
<path d="M133.765 159.274C133.765 159.274 178.661 32.7238 139.539 3.36932C100.418 -25.9852 132.544 151.436 133.765 159.274Z" fill="url(#paint17_linear)"/>
<path d="M139.613 155.761L140.612 155.281C140.464 155.022 127.214 127.812 110.448 98.4202C100.603 81.155 91.4976 66.5147 83.392 54.906C73.2137 40.3397 64.553 30.5425 57.6688 25.7363L57.0396 26.6606C69.2165 35.1268 87.3523 60.1558 109.485 98.9378C126.215 128.329 139.465 155.503 139.613 155.761Z" fill="white"/>
<path d="M118.702 116.129L119.553 115.39C119.516 115.316 114.445 109.585 107.006 104.483C97.1237 97.6809 87.5746 95.019 79.395 96.8306L79.6541 97.9397C89.6103 95.7584 99.6775 100.786 106.34 105.408C113.668 110.436 118.665 116.055 118.702 116.129Z" fill="white"/>
<path d="M139.761 155.946L140.464 155.059C140.353 154.948 128.621 145.558 114.815 136.759C96.1982 124.891 82.7999 119.715 75.0645 121.379L75.2865 122.488C93.1633 118.643 139.28 155.577 139.761 155.946Z" fill="white"/>
<path d="M136.06 143.968C144.388 76.7926 137.096 21.8545 137.022 21.3369L135.505 21.5587C135.579 22.1133 142.833 76.8665 134.542 143.82L136.06 143.968Z" fill="white"/>
<path d="M377.229 449.787C409.505 449.787 435.671 446.46 435.671 442.356C435.671 438.252 409.505 434.925 377.229 434.925C344.952 434.925 318.787 438.252 318.787 442.356C318.787 446.46 344.952 449.787 377.229 449.787Z" fill="#FBEAC8"/>
<path d="M176.366 255.767H105.636L99.8252 169.515H181.436L176.366 255.767Z" fill="url(#paint18_linear)"/>
<path d="M186.174 150.327H91.8677V169.515H186.174V150.327Z" fill="url(#paint19_linear)"/>
<path d="M133.506 255.508V150.327H149.273V255.767L133.506 255.508Z" fill="#CCDBFB"/>
<path d="M195.797 117.978L195.686 117.238L195.612 116.869L195.538 116.499L195.39 115.797C195.353 115.538 195.279 115.316 195.205 115.094C194.687 113.209 193.946 111.434 193.058 109.77C192.17 108.107 191.134 106.591 189.986 105.186C188.839 103.781 187.617 102.487 186.359 101.267C186.026 100.971 185.73 100.676 185.397 100.38L184.397 99.5295C184.323 99.4556 184.212 99.3817 184.138 99.3077L183.842 99.0859C183.657 98.938 183.472 98.7901 183.25 98.6423C183.065 98.4944 182.843 98.3465 182.658 98.1986L182.362 97.9768L182.029 97.755C181.177 97.2004 180.289 96.7198 179.327 96.3131C178.364 95.9064 177.328 95.5367 176.255 95.3149C175.181 95.0931 174.034 94.9822 172.924 94.9822C171.813 94.9822 170.703 95.167 169.63 95.4258C168.556 95.6846 167.557 96.0543 166.632 96.461C165.706 96.9046 164.818 97.3853 164.004 97.9398C162.375 99.012 161.006 100.269 159.747 101.563C157.268 104.151 155.343 106.961 153.64 109.844C151.938 112.728 150.531 115.686 149.273 118.643C148.015 121.638 146.904 124.669 145.942 127.738C144.98 130.807 144.128 133.875 143.425 136.981C143.018 138.829 142.611 140.678 142.278 142.526C142.093 142.526 141.908 142.489 141.686 142.489C140.945 142.489 140.242 142.6 139.576 142.785C139.206 141.972 138.836 141.158 138.466 140.345C137.688 138.755 136.874 137.165 136.023 135.576C135.616 134.799 135.172 134.023 134.727 133.247C134.283 132.47 133.802 131.694 133.358 130.954C132.433 129.439 131.433 127.923 130.397 126.481C129.361 125.002 128.25 123.597 127.029 122.192C126.437 121.49 125.808 120.825 125.141 120.159C124.475 119.494 123.772 118.865 122.995 118.237C122.217 117.645 121.403 117.054 120.478 116.536C119.997 116.277 119.516 116.055 118.96 115.87C118.405 115.686 117.813 115.538 117.184 115.464C116.851 115.427 116.518 115.427 116.184 115.427C115.851 115.427 115.481 115.464 115.148 115.538C114.445 115.686 113.779 115.944 113.187 116.314C112.594 116.684 112.113 117.127 111.706 117.571C111.299 118.052 110.966 118.532 110.67 119.013C110.522 119.272 110.411 119.494 110.3 119.715C110.189 119.937 110.078 120.196 109.966 120.418C109.855 120.64 109.744 120.898 109.67 121.157C109.559 121.416 109.485 121.675 109.411 121.934C109.374 122.008 109.374 122.082 109.337 122.118L109.3 122.303L109.189 122.71C109.115 122.969 109.078 123.265 109.041 123.523C108.967 124.078 108.93 124.669 108.967 125.224C108.967 125.372 108.967 125.52 109.004 125.668L109.041 126.111L109.078 126.333L109.115 126.555L109.189 126.962C109.3 127.516 109.485 128.071 109.67 128.588C110.078 129.623 110.633 130.548 111.262 131.361C111.891 132.174 112.594 132.914 113.298 133.579C114.038 134.245 114.778 134.836 115.555 135.391C117.11 136.463 118.701 137.387 120.367 138.201C121.995 139.014 123.661 139.716 125.326 140.382C126.178 140.715 126.992 141.01 127.843 141.306C128.694 141.602 129.546 141.898 130.36 142.156C131.211 142.415 132.063 142.711 132.914 142.97C133.765 143.229 134.616 143.487 135.468 143.746L137.17 144.264C136.615 144.892 136.282 145.632 136.282 146.408C136.282 148.589 138.688 150.327 141.649 150.327C144.276 150.327 146.46 148.959 146.904 147.11C148.311 147.258 149.754 147.369 151.161 147.443C151.568 147.443 151.975 147.48 152.382 147.48L153.603 147.517H154.196H154.788H156.009C157.638 147.48 159.229 147.443 160.858 147.295C161.672 147.221 162.486 147.147 163.301 147.074C163.708 147.037 164.115 146.963 164.522 146.926C164.929 146.889 165.336 146.815 165.743 146.741L166.965 146.556L168.186 146.334C168.593 146.26 169 146.186 169.408 146.075C169.815 146.001 170.222 145.89 170.629 145.78L171.85 145.484L173.072 145.151C173.479 145.04 173.886 144.892 174.256 144.781L174.848 144.597L175.44 144.375C177.032 143.82 178.624 143.192 180.178 142.452C183.287 140.973 186.285 139.051 188.95 136.5C190.282 135.243 191.504 133.801 192.54 132.174C192.651 131.99 192.799 131.768 192.91 131.583L193.28 130.954L193.465 130.622C193.539 130.511 193.576 130.4 193.65 130.289L193.983 129.623C194.094 129.402 194.168 129.18 194.28 128.958L194.428 128.625C194.465 128.514 194.539 128.403 194.576 128.293C194.761 127.812 194.946 127.368 195.057 126.888C195.131 126.666 195.205 126.407 195.279 126.185L195.464 125.446L195.538 125.076L195.612 124.706L195.76 123.967C195.908 122.969 196.019 121.971 196.019 120.972C196.019 119.937 195.945 118.939 195.797 117.978ZM137.947 143.635C137.318 143.266 136.652 142.933 136.023 142.563C134.468 141.713 132.877 140.936 131.322 140.123C130.545 139.716 129.768 139.31 128.991 138.903C128.213 138.496 127.436 138.09 126.696 137.683C125.178 136.833 123.661 135.982 122.217 135.095C120.774 134.208 119.367 133.247 118.109 132.211C117.48 131.694 116.888 131.139 116.333 130.585C115.777 130.03 115.296 129.439 114.889 128.847L114.815 128.736L114.741 128.625L114.593 128.403C114.519 128.256 114.408 128.108 114.334 127.96L114.223 127.738L114.149 127.627L114.112 127.516L114.001 127.294C113.964 127.22 113.964 127.146 113.927 127.073C113.816 126.777 113.742 126.444 113.668 126.148L113.631 125.926L113.594 125.816V125.705L113.557 125.483C113.557 125.409 113.557 125.335 113.557 125.261C113.557 124.965 113.594 124.632 113.631 124.337C113.668 124.189 113.705 124.004 113.742 123.856L113.816 123.634L113.853 123.523C113.853 123.486 113.89 123.449 113.89 123.412C113.927 123.265 114.001 123.08 114.038 122.932C114.112 122.784 114.149 122.599 114.223 122.451C114.297 122.303 114.371 122.118 114.445 121.971C114.519 121.823 114.63 121.638 114.704 121.527C114.852 121.231 115.037 121.009 115.222 120.825C115.259 120.788 115.296 120.714 115.37 120.677C115.481 120.566 115.629 120.455 115.74 120.381C115.814 120.344 115.888 120.27 115.962 120.27C116.036 120.233 116.11 120.196 116.221 120.196C116.296 120.159 116.407 120.159 116.481 120.159C116.592 120.159 116.703 120.159 116.814 120.159C117.295 120.196 117.887 120.381 118.516 120.714C119.145 121.009 119.812 121.416 120.441 121.897C121.736 122.821 122.958 123.967 124.142 125.15C125.326 126.333 126.511 127.627 127.658 128.921C128.806 130.215 129.916 131.546 130.989 132.914C131.544 133.579 132.063 134.282 132.618 134.947C133.173 135.65 133.691 136.315 134.246 137.018C135.32 138.385 136.393 139.79 137.466 141.195L139.021 143.229C138.577 143.192 138.244 143.413 137.947 143.635ZM187.025 122.71L186.951 123.154L186.914 123.375L186.877 123.597L186.803 124.041C186.766 124.189 186.729 124.337 186.692 124.448C186.396 125.594 185.952 126.703 185.36 127.775C184.767 128.847 184.027 129.882 183.139 130.88C181.399 132.877 179.179 134.614 176.773 136.13C175.552 136.907 174.256 137.609 172.961 138.238L172.48 138.496L171.961 138.681C171.628 138.829 171.295 139.014 170.962 139.125L169.926 139.569L168.889 139.975C167.483 140.53 166.076 141.047 164.633 141.491C164.263 141.602 163.893 141.713 163.56 141.824C163.19 141.935 162.819 142.046 162.449 142.156C161.709 142.378 160.969 142.6 160.229 142.785C158.748 143.192 157.231 143.524 155.713 143.894C154.196 144.227 152.678 144.56 151.124 144.818C149.791 145.077 148.422 145.299 147.052 145.521H147.015C147.015 145.521 147.015 145.521 146.978 145.521H146.941C146.534 144.153 145.202 143.081 143.462 142.637C143.573 142.415 143.647 142.23 143.758 142.009C144.425 140.567 145.128 139.162 145.831 137.757C147.237 134.947 148.644 132.137 150.087 129.365C151.568 126.629 153.048 123.893 154.64 121.268C156.231 118.643 157.897 116.092 159.673 113.689C160.118 113.098 160.562 112.506 161.043 111.915C161.487 111.323 161.968 110.769 162.449 110.251C163.412 109.179 164.374 108.144 165.41 107.256C166.113 106.628 166.854 106.036 167.594 105.556C167.89 105.334 168.223 105.149 168.519 104.964C169.037 104.668 169.556 104.41 170.074 104.225C170.592 104.04 171.073 103.892 171.554 103.781C172.517 103.596 173.405 103.633 174.293 103.892C174.737 104.003 175.218 104.188 175.663 104.41C176.144 104.631 176.625 104.927 177.069 105.223L177.254 105.334L177.439 105.482C177.55 105.556 177.661 105.667 177.809 105.741C177.92 105.851 178.031 105.925 178.179 106.036L178.364 106.184C178.438 106.221 178.475 106.295 178.549 106.332L179.327 107.035L180.104 107.737C181.103 108.698 182.029 109.696 182.88 110.769C183.731 111.804 184.471 112.913 185.064 114.022C185.693 115.131 186.174 116.277 186.507 117.423C186.544 117.571 186.618 117.719 186.618 117.867L186.729 118.311L186.766 118.532L186.803 118.754L186.877 119.198C186.951 119.789 187.025 120.344 187.025 120.935C187.136 121.564 187.099 122.118 187.025 122.71Z" fill="#CCDBFB"/>
<path opacity="0.1" d="M99.8252 169.515L100.232 175.763L154.825 169.515H99.8252Z" fill="#5E1842"/>
<path opacity="0.1" d="M166.41 255.767L171.295 169.515H181.436L176.366 255.767H166.41Z" fill="#5E1842"/>
<path opacity="0.1" d="M186.137 150.327H177.772V169.515H186.137V150.327Z" fill="#5E1842"/>
<path opacity="0.1" d="M150.383 255.767L151.309 150.327H149.273V255.767H150.383Z" fill="#5E1842"/>
<path opacity="0.1" d="M116.296 153.248H95.0508V166.113H116.296V153.248Z" fill="white"/>
<path d="M191.615 227.151H154.307V266.155H191.615V227.151Z" fill="url(#paint20_linear)"/>
<path d="M176.884 227.151H169.889V266.155H176.884V227.151Z" fill="url(#paint21_linear)"/>
<path d="M187.469 218.907C187.321 218.426 187.136 218.02 186.877 217.687C186.618 217.317 186.359 217.021 186.063 216.763C185.915 216.615 185.767 216.504 185.619 216.356C185.471 216.245 185.323 216.097 185.137 215.986C184.804 215.764 184.471 215.543 184.138 215.358L183.879 215.247C183.768 215.21 183.694 215.173 183.583 215.136C183.398 215.062 183.176 215.025 182.991 214.988C182.584 214.914 182.176 214.914 181.769 214.951C180.955 215.062 180.215 215.321 179.475 215.69C178.771 216.06 178.105 216.504 177.513 217.021C176.921 217.539 176.44 218.13 176.033 218.759C175.625 219.387 175.255 220.053 174.959 220.718C174.663 221.384 174.404 222.086 174.182 222.789C174.108 223.048 174.034 223.343 173.96 223.602C173.812 223.565 173.627 223.528 173.442 223.528C173.479 223.343 173.516 223.158 173.516 222.974C173.627 222.123 173.664 221.236 173.627 220.349C173.59 219.461 173.479 218.574 173.257 217.687C173.035 216.8 172.738 215.949 172.294 215.099C171.887 214.286 171.295 213.472 170.592 212.807C169.889 212.104 169.037 211.55 168.038 211.18C167.557 210.995 167.002 210.884 166.446 210.884C165.891 210.884 165.336 210.958 164.855 211.143C164.337 211.328 163.893 211.624 163.485 211.956C163.078 212.289 162.782 212.659 162.523 213.066C162.264 213.472 162.042 213.879 161.857 214.286C161.672 214.692 161.524 215.099 161.376 215.506C161.339 215.616 161.302 215.727 161.265 215.801C161.228 215.912 161.191 216.023 161.154 216.097C161.08 216.319 161.043 216.504 161.006 216.726C160.895 217.169 160.821 217.576 160.784 218.02C160.747 218.463 160.747 218.907 160.784 219.387C160.821 219.868 160.932 220.312 161.08 220.792C161.376 221.717 161.931 222.567 162.634 223.195C163.3 223.861 164.115 224.342 164.966 224.711C165.78 225.081 166.632 225.34 167.52 225.525C168.371 225.709 169.259 225.82 170.111 225.82C170.37 225.82 170.666 225.82 170.925 225.82C171.11 226.745 172.072 227.447 173.257 227.447C174.552 227.447 175.625 226.56 175.625 225.451V225.414C175.773 225.414 175.884 225.451 176.033 225.451C176.773 225.488 177.513 225.525 178.253 225.488C178.993 225.451 179.734 225.377 180.474 225.266C181.214 225.155 181.954 224.97 182.695 224.711C183.065 224.6 183.435 224.452 183.805 224.268C184.175 224.12 184.508 223.898 184.878 223.676C185.248 223.454 185.582 223.195 185.915 222.9C186.248 222.604 186.544 222.234 186.84 221.828C187.099 221.421 187.321 220.94 187.432 220.423C187.654 219.905 187.617 219.387 187.469 218.907ZM171.258 224.711L170.555 224.452C169.778 224.157 169.037 223.861 168.297 223.565C167.557 223.269 166.854 222.937 166.15 222.604C165.484 222.271 164.818 221.901 164.226 221.495C163.634 221.088 163.041 220.681 162.597 220.127C162.153 219.572 161.857 218.833 161.857 218.057C161.857 217.687 161.894 217.28 162.005 216.91C162.042 216.8 162.042 216.726 162.079 216.615L162.19 216.319C162.264 216.134 162.338 215.949 162.412 215.764C162.745 215.025 163.226 214.396 163.782 213.916C164.004 213.731 164.263 213.583 164.485 213.435C164.522 213.398 164.596 213.398 164.633 213.361C164.929 213.213 165.225 213.139 165.521 213.103C165.817 213.066 166.113 213.103 166.372 213.139C166.669 213.176 166.928 213.287 167.224 213.435C167.779 213.694 168.26 214.138 168.741 214.655C169.185 215.173 169.592 215.764 169.963 216.393C170.333 217.021 170.666 217.687 170.925 218.426C171.073 218.796 171.221 219.129 171.332 219.498C171.48 219.868 171.554 220.238 171.665 220.608C171.887 221.384 172.072 222.16 172.257 222.937C172.294 223.158 172.368 223.38 172.405 223.639C172.368 223.676 172.294 223.676 172.257 223.713C171.813 224.009 171.443 224.342 171.258 224.711ZM184.952 220.423C184.656 220.755 184.175 221.088 183.62 221.347C183.102 221.606 182.473 221.865 181.88 222.123C181.251 222.382 180.622 222.604 179.993 222.826C179.327 223.048 178.697 223.269 178.031 223.491C177.365 223.713 176.699 223.935 175.996 224.157C175.773 224.231 175.551 224.305 175.366 224.379C175.255 224.268 175.144 224.12 174.996 224.046C175.181 223.824 175.329 223.639 175.477 223.417C175.921 222.863 176.366 222.271 176.773 221.717L177.994 220.053C178.401 219.498 178.808 218.981 179.179 218.426C179.549 217.872 179.919 217.317 180.363 216.8C180.807 216.319 181.325 215.875 181.954 215.727C182.584 215.58 183.213 215.727 183.731 216.097C184.249 216.467 184.656 217.021 184.952 217.613C185.1 217.909 185.211 218.204 185.285 218.5L185.323 218.722L185.36 218.944C185.36 219.018 185.36 219.092 185.397 219.129C185.397 219.203 185.397 219.24 185.397 219.314C185.397 219.757 185.248 220.09 184.952 220.423Z" fill="url(#paint22_linear)"/>
<path d="M191.577 227.151H186.877V266.155H191.577V227.151Z" fill="#B78646"/>
<path d="M178.105 227.299H176.921V266.303H178.105V227.299Z" fill="#B78646"/>
<path d="M185.989 222.16C185.249 224.305 175.33 224.378 175.33 224.378C175.552 224.305 175.774 224.231 175.959 224.157C176.625 223.935 177.328 223.713 177.994 223.491C178.661 223.269 179.327 223.048 179.956 222.826C180.622 222.604 181.251 222.345 181.844 222.123C182.436 221.864 183.065 221.643 183.583 221.347C184.101 221.088 184.583 220.755 184.916 220.423C185.212 220.09 185.36 219.757 185.36 219.277C185.36 219.203 185.36 219.166 185.36 219.092C185.36 219.018 185.36 218.981 185.323 218.907L185.286 218.685L185.249 218.463C185.175 218.167 185.064 217.872 184.916 217.576C184.62 216.984 184.249 216.43 183.694 216.06C185.212 216.947 186.766 220.016 185.989 222.16Z" fill="url(#paint23_linear)"/>
<path d="M172.257 223.787C172.294 223.75 172.368 223.75 172.405 223.713C172.368 223.491 172.294 223.269 172.257 223.011C172.072 222.197 171.887 221.421 171.665 220.681C171.554 220.312 171.443 219.942 171.332 219.572C171.221 219.203 171.073 218.833 170.925 218.5C170.629 217.798 170.296 217.132 169.963 216.467C169.593 215.838 169.185 215.247 168.741 214.729C168.297 214.212 167.779 213.768 167.224 213.509C166.965 213.361 166.669 213.287 166.372 213.213C166.076 213.176 165.817 213.139 165.521 213.176C165.225 213.213 164.929 213.287 164.633 213.435C164.596 213.472 164.522 213.472 164.485 213.509C165.632 212.807 167.927 211.735 169.148 213.176C170.888 215.136 172.924 223.602 172.924 223.602L172.257 223.787Z" fill="url(#paint24_linear)"/>
<path d="M356.491 354.005C356.491 385.171 331.175 410.459 299.974 410.459C276.398 410.459 256.152 396.003 247.713 375.485C244.975 368.867 243.457 361.621 243.457 354.005C243.457 322.839 268.773 297.551 299.974 297.551C307.266 297.551 314.224 298.919 320.627 301.433C341.65 309.677 356.491 330.085 356.491 354.005Z" fill="url(#paint25_linear)"/>
<path opacity="0.1" d="M324.883 322.913C324.883 354.079 299.567 379.367 268.366 379.367C261.075 379.367 254.117 377.999 247.714 375.485C246.344 372.12 245.271 368.645 244.567 364.985C244.419 364.32 244.308 363.617 244.197 362.915C243.716 359.994 243.494 357.037 243.494 353.968C243.494 322.802 268.81 297.514 300.011 297.514C307.303 297.514 314.261 298.919 320.664 301.396C323.366 308.051 324.883 315.334 324.883 322.913Z" fill="white"/>
<path d="M302.298 341.818C306.288 328.838 298.987 315.084 285.992 311.099C272.997 307.114 259.228 314.406 255.238 327.387C251.248 340.367 258.549 354.121 271.544 358.106C284.539 362.091 298.308 354.799 302.298 341.818Z" fill="#FADBEE"/>
<path d="M270.735 325.205C271.475 325.205 272.141 325.316 272.807 325.538C273.437 325.76 273.992 326.055 274.473 326.499C274.954 326.906 275.287 327.423 275.583 328.015C275.842 328.606 275.99 329.309 275.99 330.048C275.99 330.677 275.879 331.305 275.694 331.86C275.509 332.414 275.25 332.932 274.917 333.449C274.584 333.967 274.214 334.448 273.77 334.928C273.326 335.409 272.881 335.89 272.4 336.37L267.811 341.065C268.144 340.991 268.477 340.918 268.81 340.844C269.143 340.807 269.476 340.77 269.772 340.77H275.583C275.805 340.77 275.99 340.844 276.139 340.991C276.287 341.139 276.361 341.287 276.361 341.509V342.803H264.776V342.064C264.776 341.916 264.813 341.768 264.887 341.583C264.961 341.435 265.035 341.287 265.183 341.139L270.735 335.557C271.179 335.076 271.623 334.633 271.993 334.189C272.363 333.745 272.696 333.339 272.956 332.895C273.215 332.451 273.437 332.008 273.585 331.564C273.733 331.12 273.807 330.64 273.807 330.122C273.807 329.605 273.733 329.161 273.548 328.791C273.4 328.422 273.178 328.089 272.881 327.83C272.585 327.571 272.252 327.386 271.882 327.275C271.512 327.165 271.105 327.091 270.661 327.091C270.217 327.091 269.809 327.165 269.439 327.275C269.069 327.423 268.736 327.571 268.44 327.83C268.144 328.052 267.922 328.348 267.7 328.643C267.515 328.976 267.367 329.309 267.293 329.679C267.219 329.9 267.145 330.085 266.997 330.196C266.886 330.307 266.701 330.344 266.478 330.344C266.441 330.344 266.404 330.344 266.367 330.344C266.33 330.344 266.256 330.344 266.219 330.307L265.109 330.122C265.22 329.346 265.442 328.643 265.775 328.015C266.108 327.423 266.515 326.906 266.997 326.499C267.478 326.092 268.07 325.76 268.699 325.575C269.328 325.316 269.995 325.205 270.735 325.205Z" fill="#BF4584"/>
<path d="M290.869 334.115C290.869 335.631 290.721 336.962 290.388 338.071C290.055 339.18 289.611 340.104 289.056 340.844C288.5 341.583 287.834 342.1 287.057 342.47C286.28 342.84 285.465 342.988 284.577 342.988C283.689 342.988 282.875 342.803 282.097 342.47C281.32 342.1 280.654 341.583 280.099 340.844C279.544 340.104 279.099 339.217 278.766 338.071C278.433 336.962 278.285 335.631 278.285 334.115C278.285 332.599 278.433 331.268 278.766 330.159C279.099 329.05 279.544 328.126 280.099 327.386C280.654 326.647 281.32 326.092 282.097 325.76C282.875 325.39 283.689 325.242 284.577 325.242C285.465 325.242 286.28 325.427 287.057 325.76C287.834 326.129 288.5 326.647 289.056 327.386C289.611 328.126 290.055 329.05 290.388 330.159C290.721 331.268 290.869 332.562 290.869 334.115ZM288.611 334.115C288.611 332.784 288.5 331.675 288.278 330.788C288.056 329.9 287.76 329.161 287.39 328.606C287.02 328.052 286.576 327.682 286.095 327.423C285.614 327.201 285.095 327.053 284.54 327.053C284.022 327.053 283.504 327.164 282.986 327.423C282.505 327.645 282.06 328.052 281.69 328.606C281.32 329.161 281.024 329.863 280.802 330.788C280.58 331.675 280.469 332.784 280.469 334.115C280.469 335.446 280.58 336.555 280.802 337.442C281.024 338.33 281.32 339.069 281.69 339.623C282.06 340.178 282.505 340.548 282.986 340.807C283.467 341.028 283.985 341.176 284.54 341.176C285.058 341.176 285.576 341.065 286.095 340.807C286.576 340.585 287.02 340.178 287.39 339.623C287.76 339.069 288.056 338.366 288.278 337.442C288.5 336.518 288.611 335.409 288.611 334.115Z" fill="#BF4584"/>
<path opacity="0.3" d="M300.567 304.058C297.754 299.917 286.539 302.542 275.51 309.973C264.48 317.404 257.781 326.758 260.557 330.935C263.37 335.076 274.584 332.451 285.614 325.02C296.68 317.589 303.343 308.235 300.567 304.058Z" fill="white"/>
<path d="M403.99 114.953C403.99 129.889 391.85 142.015 376.897 142.015C365.572 142.015 355.912 135.102 351.84 125.268C350.545 122.088 349.805 118.613 349.805 114.953C349.805 100.017 361.945 87.8906 376.897 87.8906C380.377 87.8906 383.745 88.5561 386.78 89.7391C396.847 93.695 403.99 103.492 403.99 114.953Z" fill="url(#paint26_linear)"/>
<path opacity="0.1" d="M388.815 100.054C388.815 114.99 376.675 127.116 361.723 127.116C358.243 127.116 354.912 126.451 351.84 125.268C350.545 122.088 349.805 118.613 349.805 114.953C349.805 100.017 361.945 87.8906 376.897 87.8906C380.377 87.8906 383.745 88.5561 386.78 89.7391C388.112 92.9186 388.815 96.3938 388.815 100.054Z" fill="white"/>
<path d="M378.526 105.636C378.526 99.1295 373.233 93.8428 366.719 93.8428C360.205 93.8428 354.912 99.1295 354.912 105.636C354.912 112.143 360.205 117.43 366.719 117.43C373.233 117.43 378.526 112.143 378.526 105.636Z" fill="white"/>
<path opacity="0.3" d="M377.193 90.9962C375.861 88.9998 370.457 90.2568 365.165 93.843C359.872 97.3921 356.652 101.903 357.984 103.899C359.317 105.895 364.72 104.638 370.013 101.052C375.306 97.503 378.526 92.9926 377.193 90.9962Z" fill="white"/>
<path opacity="0.3" d="M360.02 113.363C359.058 116.58 356.948 118.798 355.319 118.317C353.691 117.837 353.136 114.805 354.098 111.589C355.06 108.372 357.17 106.154 358.798 106.635C360.427 107.115 360.982 110.147 360.02 113.363Z" fill="white"/>
<path d="M364.461 99.6841C364.868 99.6841 365.238 99.758 365.609 99.8689C365.942 99.9798 366.238 100.165 366.497 100.35C366.756 100.571 366.941 100.83 367.089 101.126C367.237 101.422 367.311 101.754 367.311 102.124C367.311 102.42 367.274 102.716 367.2 102.937C367.126 103.159 367.015 103.381 366.867 103.566C366.719 103.751 366.534 103.899 366.349 104.01C366.127 104.121 365.905 104.231 365.646 104.305C366.275 104.453 366.756 104.749 367.052 105.156C367.385 105.562 367.533 106.043 367.533 106.635C367.533 107.078 367.459 107.485 367.274 107.818C367.089 108.187 366.867 108.483 366.571 108.705C366.275 108.964 365.942 109.149 365.535 109.259C365.127 109.407 364.72 109.444 364.276 109.444C363.758 109.444 363.314 109.37 362.981 109.259C362.611 109.149 362.314 108.964 362.055 108.742C361.796 108.52 361.611 108.261 361.426 107.928C361.278 107.633 361.13 107.3 361.019 106.93L361.537 106.708C361.648 106.671 361.722 106.635 361.833 106.635C361.907 106.635 362.018 106.671 362.055 106.708C362.129 106.745 362.166 106.819 362.203 106.893C362.203 106.893 362.203 106.93 362.24 106.967C362.24 107.004 362.24 107.004 362.277 107.041C362.351 107.189 362.425 107.3 362.5 107.485C362.574 107.633 362.722 107.818 362.87 107.928C363.018 108.076 363.203 108.187 363.425 108.298C363.647 108.409 363.943 108.446 364.276 108.446C364.609 108.446 364.905 108.409 365.164 108.298C365.423 108.187 365.646 108.039 365.794 107.855C365.979 107.67 366.09 107.485 366.164 107.263C366.238 107.041 366.275 106.819 366.275 106.635C366.275 106.376 366.238 106.154 366.164 105.932C366.09 105.71 365.979 105.525 365.794 105.378C365.609 105.23 365.349 105.082 365.053 105.008C364.72 104.934 364.313 104.86 363.832 104.86V103.973C364.239 103.973 364.572 103.936 364.868 103.862C365.164 103.788 365.386 103.677 365.572 103.529C365.757 103.381 365.905 103.196 365.979 103.011C366.053 102.79 366.09 102.568 366.09 102.309C366.09 102.013 366.053 101.791 365.942 101.57C365.868 101.348 365.72 101.2 365.572 101.052C365.423 100.904 365.238 100.83 365.016 100.756C364.794 100.682 364.572 100.645 364.35 100.645C364.091 100.645 363.869 100.682 363.684 100.756C363.462 100.83 363.277 100.941 363.129 101.052C362.981 101.163 362.833 101.348 362.722 101.496C362.611 101.68 362.537 101.865 362.463 102.087C362.426 102.235 362.388 102.309 362.314 102.383C362.24 102.457 362.166 102.457 362.055 102.457C362.018 102.457 362.018 102.457 361.981 102.457C361.944 102.457 361.944 102.457 361.907 102.457L361.278 102.346C361.352 101.902 361.463 101.533 361.648 101.163C361.833 100.83 362.055 100.534 362.314 100.313C362.574 100.091 362.907 99.9059 363.277 99.795C363.684 99.758 364.054 99.6841 364.461 99.6841Z" fill="url(#paint27_linear)"/>
<path d="M394.921 426.533C394.921 426.533 396.661 428.788 396.698 429.712C396.735 430.599 395.44 432.115 395.44 432.115L403.064 428.677C403.064 428.677 400.288 424.906 399.807 423.76L394.921 426.533Z" fill="#F9A387"/>
<path d="M390.591 437.476C390.11 436.589 390.295 435.553 391.035 434.925C392.663 433.52 395.439 431.265 396.217 431.043C397.364 430.747 399.252 430.969 399.659 429.416C399.918 428.418 401.065 427.901 402.028 427.716C402.694 427.605 403.36 427.901 403.656 428.455L405.025 430.895L390.591 437.476Z" fill="#0A111E"/>
<path d="M351.506 433.964C351.506 433.964 352.246 436.736 351.913 437.55C351.58 438.4 349.84 439.25 349.84 439.25L358.205 439.066C358.205 439.066 357.132 434.518 357.132 433.261L351.506 433.964Z" fill="#F9A387"/>
<path d="M343.215 442.356C343.104 441.358 343.697 440.47 344.622 440.175C346.695 439.509 350.1 438.511 350.914 438.622C352.061 438.807 353.727 439.731 354.726 438.474C355.355 437.661 356.614 437.624 357.576 437.846C358.205 437.993 358.723 438.548 358.797 439.176L359.094 441.986L343.215 442.356Z" fill="#0A111E"/>
<path d="M403.1 423.316C402.878 423.723 402.582 424.092 402.323 424.462C399.177 428.233 393.514 428.233 393.514 428.233C393.514 428.233 370.456 389.636 368.383 384.978C366.311 380.319 365.274 361.945 365.274 361.945L363.202 340.465C363.202 340.465 376.933 336.325 379.783 339.171C380.967 340.354 381.634 344.421 381.967 349.449C382.411 356.437 382.263 365.272 382.115 371.003C381.819 380.837 403.1 423.316 403.1 423.316Z" fill="#0191D9"/>
<path d="M361.092 381.614C357.724 385.754 360.944 432.485 360.944 432.485C360.315 433.039 359.686 433.52 359.02 433.89C353.838 436.81 348.508 433.52 348.508 433.52L344.363 379.913L356.281 338.987L375.231 339.098H377.673C379.487 347.453 364.46 377.473 361.092 381.614Z" fill="#0CA1F0"/>
<path opacity="0.5" d="M361.092 381.613C357.724 385.754 360.944 432.485 360.944 432.485C360.315 433.039 359.686 433.52 359.019 433.89C358.834 430.858 356.799 412.817 357.317 408.158C357.835 403.5 359.908 393.925 357.317 389.525C354.726 385.126 361.98 376.585 363.017 372.962C364.053 369.339 370.012 358.729 370.012 358.729C370.012 358.729 370.53 355.106 370.789 351.483C371.048 347.859 377.562 344.495 375.342 339.43C375.305 339.319 375.268 339.245 375.231 339.171H377.673C379.487 347.453 364.46 377.473 361.092 381.613Z" fill="#B0B0B0"/>
<path d="M403.101 423.316C402.878 423.723 402.582 424.093 402.323 424.462C400.658 421.763 396.401 414.665 394.958 410.524C393.144 405.349 385.372 388.268 383.299 383.351C381.227 378.434 376.045 379.21 378.895 373.776C381.745 368.341 382.263 356.806 382.263 356.806L380.967 349.967L381.967 349.523C382.411 356.511 382.263 365.347 382.115 371.077C381.819 380.837 403.101 423.316 403.101 423.316Z" fill="#E4E4E4"/>
<path d="M358.279 287.339L353.616 293.55L355.244 296.655L358.649 292.7L361.499 288.522L358.279 287.339Z" fill="#F9A387"/>
<path d="M358.612 303.828C358.612 320.834 344.807 334.624 327.782 334.624C314.901 334.624 303.872 326.749 299.245 315.547C297.765 311.924 296.951 307.968 296.951 303.828C296.951 286.821 310.756 273.031 327.782 273.031C331.742 273.031 335.554 273.771 339.033 275.139C350.507 279.649 358.612 290.777 358.612 303.828Z" fill="url(#paint28_linear)"/>
<path opacity="0.1" d="M341.365 286.858C341.365 303.865 327.56 317.655 310.534 317.655C306.574 317.655 302.762 316.915 299.283 315.547C297.802 311.924 296.988 307.968 296.988 303.828C296.988 286.821 310.793 273.031 327.819 273.031C331.779 273.031 335.591 273.771 339.07 275.139C340.551 278.762 341.365 282.717 341.365 286.858Z" fill="white"/>
<path d="M323.153 304.675C329.488 300.816 331.492 292.558 327.629 286.23C323.767 279.902 315.499 277.9 309.164 281.759C302.829 285.617 300.824 293.875 304.687 300.203C308.55 306.532 316.818 308.534 323.153 304.675Z" fill="#EBF0FD"/>
<path opacity="0.3" d="M328.078 276.58C326.56 274.325 320.416 275.767 314.383 279.797C308.35 283.864 304.686 288.966 306.241 291.221C307.758 293.476 313.902 292.034 319.935 288.004C325.968 283.975 329.632 278.836 328.078 276.58Z" fill="white"/>
<path opacity="0.3" d="M308.535 302.016C307.425 305.676 305.019 308.19 303.169 307.636C301.281 307.081 300.652 303.643 301.762 299.983C302.873 296.323 305.278 293.809 307.129 294.363C308.979 294.918 309.609 298.356 308.535 302.016Z" fill="white"/>
<path d="M317.788 289.187V289.668C317.788 289.816 317.788 289.927 317.751 290.001C317.714 290.075 317.677 290.148 317.64 290.222L313.976 297.58C313.939 297.69 313.865 297.764 313.754 297.838C313.643 297.912 313.532 297.949 313.384 297.949H312.607L316.308 290.666C316.345 290.555 316.419 290.481 316.456 290.37C316.53 290.296 316.567 290.185 316.641 290.111H312.052C311.978 290.111 311.904 290.075 311.867 290.038C311.792 290.001 311.792 289.927 311.792 289.853V289.113H317.788V289.187Z" fill="black"/>
<path d="M379.487 310.187C378.71 314.327 384.151 337.36 381.042 339.171C380.894 339.245 380.746 339.319 380.56 339.393C376.23 340.983 357.206 340.724 357.206 340.724C357.206 340.724 353.32 342.277 352.802 334.772C352.394 328.857 353.283 305.048 358.242 290.407C357.169 289.446 356.392 289.483 356.799 288.559C357.206 287.635 358.909 285.675 360.537 283.901C362.166 282.163 363.683 280.61 363.683 280.61C369.087 275.397 377.822 273.66 383.114 281.165C384.632 283.309 385.076 286.156 384.928 289.261C384.558 297.395 380.079 307.155 379.487 310.187Z" fill="#892068"/>
<path d="M373.75 303.939L373.269 303.717C380.486 288.263 374.787 283.235 374.75 283.198L375.083 282.792C375.342 283.013 381.116 288.152 373.75 303.939Z" fill="#681852"/>
<path d="M371.974 303.162C371.974 303.162 371.641 303.828 371.085 304.9C368.828 309.262 362.832 320.279 359.538 319.466C358.464 319.207 356.059 318.542 353.098 317.692C344.548 315.288 331.298 311.444 331.298 311.444C331.298 311.444 322.748 307.044 325.08 304.715C327.411 302.386 332.593 307.562 332.334 306.785C331.742 305.011 330.52 304.197 331.557 303.939C333.037 303.569 333.814 305.454 334.296 306.453C334.962 307.857 336.368 308.782 337.923 308.967L355.763 311.111C355.8 311.111 355.837 311.111 355.874 311.111C357.576 311.259 359.205 310.297 359.871 308.708C359.871 308.671 359.908 308.671 359.908 308.634L362.647 300.315L371.974 303.162Z" fill="#F9A387"/>
<path d="M373.01 305.232C373.01 305.232 372.418 305.343 371.493 305.38C371.308 305.38 371.086 305.38 370.863 305.38C370.012 305.38 368.976 305.269 367.865 305.011C365.534 304.456 362.869 303.125 361.092 300.02C361.092 300.02 364.979 280.092 373.01 281.904C373.195 281.941 373.38 282.015 373.565 282.089C380.672 284.788 373.01 305.232 373.01 305.232Z" fill="#892068"/>
<path opacity="0.2" d="M373.01 305.233C373.01 305.233 372.418 305.343 371.493 305.38C372.159 303.458 374.565 296.323 375.453 291.886C376.341 287.45 374.195 283.235 373.565 282.089C380.672 284.788 373.01 305.233 373.01 305.233Z" fill="#681852"/>
<path d="M370.863 305.417C368.458 310.076 362.758 320.317 359.538 319.503C358.464 319.244 356.059 318.579 353.098 317.729L353.357 317.692C353.357 317.692 353.468 317.729 353.653 317.766C354.837 318.061 359.057 319.06 359.945 318.616C360.833 318.172 369.013 309.299 367.865 305.085C368.976 305.307 370.012 305.38 370.863 305.417Z" fill="#DC907F"/>
<path d="M359.871 308.745C359.575 309.891 358.353 314.808 358.131 313.403C357.909 312.072 356.318 311.296 355.911 311.111C357.576 311.259 359.205 310.297 359.871 308.745Z" fill="#DC907F"/>
<path opacity="0.7" d="M381.041 339.171C380.893 339.245 380.745 339.319 380.56 339.393C379.043 338.136 376.119 335.327 376.526 332.85C377.044 329.485 377.821 325.345 376.526 321.721C375.231 318.098 374.453 315.252 376.526 313.699C378.599 312.146 380.93 303.865 381.449 301.018C381.893 298.652 383.41 290.666 384.965 289.298C384.595 297.432 380.079 307.192 379.524 310.224C378.71 314.327 384.15 337.36 381.041 339.171Z" fill="#681852"/>
<path d="M378.303 277.652C376.452 280.351 370.16 279.908 367.273 279.538C366.385 279.427 365.83 279.316 365.83 279.316C365.83 279.316 369.161 275.545 365.978 272.07C365.941 272.033 365.904 271.996 365.867 271.922C362.758 268.484 361.647 264.158 361.944 258.169C362.24 252.106 368.606 245.155 374.972 250.923C381.338 256.727 379.598 263.086 377.007 267.412C374.342 271.774 378.303 277.652 378.303 277.652Z" fill="#F9A387"/>
<path d="M364.35 255.138C364.35 255.138 357.391 252.254 359.723 247.891C362.055 243.566 363.202 248.483 367.273 247.891C371.345 247.3 377.415 245.858 379.45 249.629C381.486 253.4 378.858 267.227 376.267 269.297C373.677 271.368 378.599 263.53 376.267 260.35C373.936 257.171 373.084 256.579 372.196 259.759C371.345 262.938 367.866 262.643 368.125 258.909C368.421 255.138 367.533 256.875 364.35 255.138Z" fill="#4C322B"/>
<path d="M371.271 271.959C371.012 272.144 369.457 273.179 368.421 273.955C367.274 274.806 369.013 277.874 367.274 279.538C366.385 279.427 365.83 279.316 365.83 279.316C365.83 279.316 369.161 275.545 365.978 272.07C365.941 272.033 365.904 271.996 365.867 271.922C366.126 272.07 369.087 273.29 371.271 271.959Z" fill="#DA8E7E"/>
<path d="M57.7294 428.906C89.1678 428.906 114.654 425.662 114.654 421.66C114.654 417.658 89.1678 414.414 57.7294 414.414C26.291 414.414 0.805176 417.658 0.805176 421.66C0.805176 425.662 26.291 428.906 57.7294 428.906Z" fill="#FDECCA"/>
<path d="M97.718 349.568V364.911C97.681 365.354 97.57 366.131 97.3479 367.166C95.6824 375.336 89.1313 400.18 86.6515 409.386C85.9852 411.826 85.9482 414.377 86.5034 416.817C86.5034 416.854 86.5034 416.854 86.5034 416.854C84.8379 421.623 77.1394 416.78 77.9537 415.745C78.7679 414.71 79.3601 411.863 79.3601 411.863L84.6528 364.948L84.2087 362.434L83.3944 357.812L83.1723 356.555L82.9873 355.409L88.6871 353.154L97.718 349.568Z" fill="#FBA689"/>
<path d="M94.3498 423.768C83.3202 424.766 79.6191 418.407 79.545 421.993C79.545 422.215 79.36 422.363 79.36 422.474C79.36 422.695 78.9899 422.732 78.5457 422.658C77.9165 422.585 77.1763 422.326 77.1763 422.326C77.1763 422.326 77.1763 422.178 77.1393 421.919C77.1393 421.845 77.1393 421.771 77.1393 421.66C77.1022 421.18 77.0652 420.477 77.0652 419.701C77.0282 417.852 77.5834 415.597 78.0275 415.19C78.8048 414.488 78.9528 415.893 80.1372 416.78C84.3936 419.96 85.615 414.969 86.5033 415.708C87.0214 416.152 86.5033 419.405 94.4608 423.139C94.6829 423.287 94.5718 423.768 94.3498 423.768Z" fill="url(#paint29_linear)"/>
<path d="M79.582 421.993C79.471 422.215 79.397 422.363 79.397 422.474C79.397 422.696 79.0269 422.733 78.5827 422.659C77.9535 422.585 77.2133 422.326 77.2133 422.326C77.2133 422.326 77.2133 422.178 77.1763 421.919C77.1763 421.845 77.1763 421.771 77.1763 421.66C77.4354 421.771 78.3606 422.067 79.582 421.993Z" fill="url(#paint30_linear)"/>
<path d="M76.8806 353.82C76.8806 353.82 76.0293 355.224 74.9559 356.851C73.9936 358.33 72.8463 360.031 71.995 361.103C71.7359 361.398 71.5139 361.657 71.3288 361.842C71.0327 362.138 69.6633 362.84 67.5906 363.802C58.5967 368.053 36.2786 377.407 31.578 379.366C30.9859 379.625 30.5417 380.106 30.3937 380.734C30.3937 380.734 30.3937 380.734 30.3937 380.771C29.9125 380.512 29.2463 380.438 28.6911 380.438C27.7288 380.438 27.2477 379.736 27.4327 377.555C27.4697 377.222 27.4697 376.889 27.4697 376.593C27.4697 375.743 27.3217 375.041 27.0996 374.597C27.6548 375.004 28.321 374.486 28.9132 374.116C34.3539 370.9 61.2616 355.594 61.2616 355.594C61.3726 355.114 61.4836 354.67 61.5577 354.226C61.6317 353.857 61.7057 353.524 61.7797 353.191C62.1128 351.712 62.2609 350.825 62.2609 350.825L76.8806 353.82Z" fill="#FBA689"/>
<path d="M23.0652 389.385C21.8808 378.405 28.1358 374.56 24.5457 374.56C24.3236 374.56 24.1756 374.375 24.0645 374.375C23.8425 374.375 23.8054 374.005 23.8425 373.562C23.9165 372.933 24.1386 372.194 24.1386 372.194C24.1386 372.194 24.2866 372.194 24.5457 372.157C24.6197 372.157 24.6937 372.157 24.8048 372.12C25.2859 372.083 25.9891 372.046 26.7664 372.009C28.617 371.935 30.8747 372.453 31.2818 372.859C31.9851 373.599 30.6156 373.784 29.7273 375.004C26.6183 379.292 31.652 380.438 30.9117 381.326C30.4676 381.843 27.2105 381.4 23.6204 389.422C23.5464 389.681 23.1022 389.57 23.0652 389.385Z" fill="url(#paint31_linear)"/>
<path d="M24.5458 374.56C24.3237 374.449 24.1757 374.375 24.0647 374.375C23.8426 374.375 23.8056 374.005 23.8426 373.562C23.9166 372.933 24.1387 372.194 24.1387 372.194C24.1387 372.194 24.2867 372.194 24.5458 372.157C24.6198 372.157 24.6939 372.157 24.8049 372.12C24.7309 372.453 24.4348 373.377 24.5458 374.56Z" fill="url(#paint32_linear)"/>
<path d="M66.7762 239.876C66.7762 239.876 59.892 250.45 60.5582 253.075C61.2244 255.7 55.5246 265.09 60.5582 269.453C65.5918 273.815 71.2546 271.412 71.2546 267.272C71.2546 263.131 70.2553 259.286 70.2553 256.254C70.2553 253.186 65.4438 247.455 65.8139 244.83C66.221 242.169 66.7762 239.876 66.7762 239.876Z" fill="#00506E"/>
<path d="M119.555 191.889L37.87 186.417L35.7974 217.214L117.483 222.685L119.555 191.889Z" fill="url(#paint33_linear)"/>
<path d="M50.565 218.175C51.0832 218.212 51.5644 217.916 51.7494 217.398C52.1566 216.252 52.8968 214.367 53.2299 214.958C53.674 215.846 53.2299 218.877 52.5637 219.543C51.8975 220.208 52.3416 220.837 51.8975 221.724C51.4533 222.611 51.2313 223.683 51.2313 223.683L48.6034 224.127C48.6034 224.127 47.0119 219.949 47.6781 217.879L50.565 218.175Z" fill="#FDA98B"/>
<path d="M76.8806 353.819C76.8806 353.819 76.0294 355.224 74.956 356.851C73.9937 358.33 72.8463 360.031 71.9951 361.103C71.847 360.178 71.6249 359.18 71.2548 358.219C70.2185 355.483 62.335 355.15 62.335 355.15L61.5947 354.337C61.6688 353.967 61.7428 353.635 61.8168 353.302C62.1499 351.823 62.298 350.936 62.298 350.936L76.8806 353.819Z" fill="#E6E6E6"/>
<path d="M97.7182 349.568V356.888C95.3865 357.48 93.5359 357.886 89.4276 358.256C87.577 358.404 84.2829 362.434 84.2829 362.434L83.4686 357.812L83.2466 356.555L88.7613 353.154L97.7182 349.568Z" fill="#E6E6E6"/>
<path d="M96.4969 224.682L96.3859 221.872C96.3859 221.872 93.462 220.8 93.9431 219.986C94.4243 219.173 96.3859 221.243 97.6073 221.169C98.8287 221.058 100.087 221.391 100.087 221.391L100.531 222.389C100.531 222.389 100.124 227.38 96.4969 224.682Z" fill="#FDA98B"/>
<path d="M103.714 247.492C103.529 248.269 103.085 249.932 102.382 252.151C101.049 256.254 98.7175 262.244 95.0903 267.974C93.6469 270.266 92.5735 273.15 91.7593 276.329V276.366V276.403C91.7593 276.44 91.7593 276.477 91.7593 276.477C91.2041 278.732 90.76 281.135 90.4639 283.576C90.0937 286.385 89.9087 289.195 89.7976 291.931C89.7976 292.264 89.7606 292.596 89.7606 292.929C89.7606 293.668 89.7236 294.445 89.7236 295.147V295.554C89.7236 298.623 89.8717 301.432 90.0937 303.65C90.2048 304.907 90.3528 305.98 90.5379 306.83C90.7229 307.754 90.982 309.122 91.3521 310.786C91.5742 311.747 91.7963 312.819 92.0554 313.965C94.6462 325.796 99.1616 346.351 98.6435 351.342C98.6065 351.712 98.5324 352.045 98.4584 352.341C98.3844 352.673 98.2734 352.969 98.1253 353.228C97.8292 353.93 97.3851 354.522 96.8299 355.002C94.3501 357.295 89.7236 357.812 84.653 356.851C83.2095 356.592 81.7291 356.185 80.2856 355.668C79.6934 355.446 79.0642 355.261 78.435 355.113C78.2129 355.039 77.9538 355.002 77.7318 354.928C77.2506 354.818 76.7324 354.744 76.2513 354.633C75.0669 354.448 73.8825 354.337 72.6982 354.3C70.0333 354.189 67.5535 354.374 65.5549 354.67C64.3335 354.818 59.0778 354.596 58.3005 354.744C57.4863 354.928 61.2985 336.074 63.4082 318.513C63.4082 318.476 63.4082 318.439 63.4082 318.439C63.8153 315.037 64.2965 311.451 64.8516 307.754C66.5542 296.441 64.5926 288.382 61.4836 281.986C57.0051 272.854 50.1579 267.05 48.2333 259.73C45.6425 249.858 44.6802 245.755 44.3841 244.461C44.3101 244.165 44.3101 243.832 44.3471 243.537L46.0866 225.791C46.1977 224.608 47.0489 223.609 48.1963 223.24C48.7515 223.055 49.3807 222.944 50.0469 222.944C51.7124 222.944 53.0078 224.386 52.9338 226.05L52.0455 245.052C52.0455 245.459 52.0825 245.829 52.2306 246.198C53.2299 248.934 57.7454 260.913 61.2245 262.65C65.1477 264.61 73.8085 261.245 81.8771 263.205C89.3905 265.016 95.2384 248.971 95.6825 246.568C95.7195 246.383 95.7566 246.198 95.7566 245.977V224.903C95.7566 223.166 97.237 221.761 98.9396 221.946C98.9766 221.946 98.9766 221.946 99.0136 221.946C100.383 222.094 101.456 223.203 101.604 224.608L102.937 238.065L103.566 244.239L103.788 246.42C103.788 246.827 103.788 247.16 103.714 247.492Z" fill="url(#paint34_linear)"/>
<path d="M76.2884 258.177L76.2514 258.066C76.2514 258.066 74.5118 259.064 73.2904 258.805C73.7716 258.953 74.6229 259.36 74.7709 260.062C74.993 261.098 75.2151 263.242 75.2891 263.944C72.1801 264.573 67.7387 263.944 68.886 263.242C70.0704 262.539 70.0704 259.914 70.0334 258.62C67.8867 257.253 65.1108 254.073 65.3699 246.716C65.8141 234.922 76.9546 239.285 77.6208 241.466C78.139 243.352 81.0999 254.184 76.2884 258.177Z" fill="#FDA98B"/>
<path d="M87.614 263.796C87.614 265.793 85.2822 267.604 85.2822 267.604C81.359 270.895 77.6578 264.351 77.6578 264.351V264.24H77.5467C77.5467 264.24 77.3617 263.907 77.1026 263.353C76.6214 262.281 75.8812 260.358 75.6591 258.399C75.5111 257.179 75.5851 255.959 76.0293 254.887C77.5467 251.189 78.8792 251.596 78.2129 248.121C77.5467 244.646 76.6955 243.98 71.4398 244.831C71.4398 244.831 64.6666 244.165 65.962 238.952C67.2574 233.702 76.2513 234.59 77.5467 236.549C78.8421 238.509 79.7304 243.315 82.1362 246.162C84.542 249.008 85.6153 250.968 84.9861 253.814C84.542 255.774 83.7647 257.622 84.0608 259.36C84.727 260.506 86.3185 260.839 87.2808 262.65C87.5399 262.983 87.614 263.39 87.614 263.796Z" fill="#00506E"/>
<path d="M89.7236 291.931C89.7236 292.264 89.6866 292.596 89.6866 292.929C89.5755 292.522 89.5755 292.19 89.7236 291.931Z" fill="#DD9517"/>
<path d="M45.6797 197.028L46.9381 197.102C47.0861 197.102 47.1972 197.139 47.2712 197.213C47.3452 197.287 47.4192 197.361 47.4192 197.471L49.2328 205.346C49.2698 205.494 49.3068 205.642 49.3068 205.79C49.3439 205.938 49.3439 206.123 49.3809 206.307C49.4179 206.123 49.4919 205.975 49.5289 205.79C49.5659 205.642 49.64 205.494 49.677 205.346L52.786 197.804C52.823 197.73 52.897 197.656 52.971 197.582C53.0821 197.508 53.1931 197.471 53.3041 197.508L53.7483 197.545C53.8963 197.545 54.0074 197.582 54.0814 197.656C54.1554 197.73 54.2294 197.804 54.2294 197.915L56.3391 205.79C56.4131 206.049 56.4872 206.381 56.5242 206.714C56.5612 206.529 56.5982 206.381 56.6352 206.233C56.6722 206.086 56.7092 205.938 56.7462 205.79L59.5591 198.211C59.5962 198.137 59.6702 198.026 59.7442 197.989C59.8552 197.915 59.9663 197.878 60.0773 197.915L61.2617 197.989L57.0793 208.858L55.7469 208.784L53.4522 200.17C53.4152 200.022 53.3782 199.801 53.3411 199.616C53.3041 199.727 53.2671 199.801 53.2671 199.912C53.2301 200.022 53.1931 200.096 53.1931 200.17L49.825 208.452L48.4926 208.378L45.6797 197.028Z" fill="white"/>
<path d="M63.7787 209.339L62.2612 209.228L62.9645 198.137L64.482 198.248L63.7787 209.339Z" fill="white"/>
<path d="M68.5529 198.581C68.627 198.618 68.701 198.692 68.775 198.802L74.6599 207.601C74.6599 207.454 74.6599 207.343 74.6599 207.195C74.6599 207.084 74.6599 206.936 74.6599 206.825L75.1781 198.95L76.5105 199.024L75.8073 210.115L75.03 210.078C74.919 210.078 74.8079 210.041 74.7339 210.004C74.6599 209.968 74.5859 209.894 74.5118 209.783L68.627 201.021C68.627 201.169 68.627 201.279 68.627 201.39C68.627 201.501 68.627 201.612 68.627 201.723L68.1088 209.635L66.7764 209.561L67.4796 198.47L68.2568 198.507C68.4049 198.507 68.4789 198.544 68.5529 198.581Z" fill="white"/>
<path d="M80.2858 199.32C80.3599 199.357 80.4339 199.431 80.5079 199.542L86.3928 208.341C86.3928 208.193 86.3928 208.082 86.3928 207.934C86.3928 207.823 86.3928 207.675 86.3928 207.564L86.911 199.69L88.2434 199.764L87.5402 210.855L86.7629 210.818C86.6519 210.818 86.5409 210.781 86.4668 210.744C86.3928 210.707 86.3188 210.633 86.2448 210.522L80.3599 201.76C80.3599 201.908 80.3599 202.019 80.3599 202.13C80.3599 202.241 80.3599 202.351 80.3599 202.462L79.8417 210.374L78.5093 210.3L79.2125 199.209L79.9898 199.246C80.1378 199.246 80.2118 199.283 80.2858 199.32Z" fill="white"/>
<path d="M97.7926 200.392L97.7186 201.612L92.3889 201.279L92.1668 204.976L96.4972 205.272L96.4232 206.455L92.0928 206.16L91.8337 209.931L97.1634 210.263L97.0894 211.483L90.2422 211.04L90.9454 199.948L97.7926 200.392Z" fill="white"/>
<path d="M101.197 207.121L100.901 211.742L99.4209 211.631L100.124 200.54L103.27 200.725C103.973 200.762 104.566 200.873 105.084 201.058C105.602 201.242 106.009 201.464 106.305 201.76C106.638 202.056 106.86 202.389 106.971 202.795C107.119 203.202 107.156 203.609 107.119 204.089C107.082 204.496 107.008 204.829 106.86 205.161C106.712 205.494 106.527 205.79 106.268 206.049C106.009 206.307 105.713 206.529 105.38 206.677C105.047 206.862 104.64 206.973 104.195 207.047C104.38 207.158 104.529 207.343 104.677 207.564L107.638 212.186L106.305 212.112C106.046 212.112 105.824 211.964 105.713 211.742L103.085 207.601C103.011 207.454 102.9 207.38 102.826 207.306C102.715 207.232 102.567 207.195 102.382 207.195L101.197 207.121ZM101.271 206.012L102.863 206.123C103.307 206.16 103.677 206.123 104.047 206.049C104.38 205.975 104.677 205.827 104.899 205.642C105.121 205.457 105.306 205.235 105.454 204.976C105.602 204.718 105.676 204.422 105.676 204.089C105.713 203.424 105.528 202.906 105.121 202.536C104.714 202.167 104.084 201.945 103.196 201.908L101.568 201.797L101.271 206.012Z" fill="white"/>
<path opacity="0.2" d="M61.2612 218.914L87.6137 189.745L93.8687 190.151L68.7006 219.395L61.2612 218.914Z" fill="white"/>
<path opacity="0.2" d="M72.1797 219.654L96.1634 190.336L98.3471 190.447L74.5114 219.802L72.1797 219.654Z" fill="white"/>
<path d="M77.1763 263.316C76.6951 263.612 76.0289 263.833 75.2887 263.981C75.2147 263.242 74.9926 261.098 74.7705 260.099C74.6225 259.397 73.8082 259.027 73.29 258.842C74.1043 258.99 75.1036 258.621 75.6958 258.362C75.9179 260.321 76.6581 262.244 77.1763 263.316Z" fill="#D58D79"/>
<path d="M73.29 258.842C73.253 258.842 73.253 258.842 73.29 258.842C72.6978 258.732 72.8829 258.732 73.29 258.842Z" fill="#D58D79"/>
<path d="M509.421 379.891C509.421 411.057 484.105 436.345 452.904 436.345C429.327 436.345 409.082 421.89 400.643 401.371C397.904 394.753 396.387 387.507 396.387 379.891C396.387 348.725 421.703 323.438 452.904 323.438C460.195 323.438 467.153 324.805 473.557 327.319C494.579 335.564 509.421 355.971 509.421 379.891Z" fill="url(#paint35_linear)"/>
<path opacity="0.1" d="M477.813 348.799C477.813 379.965 452.497 405.253 421.296 405.253C414.004 405.253 407.046 403.885 400.643 401.371C397.904 394.754 396.387 387.507 396.387 379.891C396.387 348.725 421.703 323.438 452.904 323.438C460.195 323.438 467.153 324.805 473.556 327.319C476.295 333.937 477.813 341.183 477.813 348.799Z" fill="white"/>
<path d="M437.364 384.39C450.588 381.246 458.755 367.988 455.607 354.78C452.459 341.571 439.187 333.412 425.963 336.557C412.74 339.702 404.572 352.959 407.72 366.168C410.869 379.376 424.141 387.535 437.364 384.39Z" fill="#EBF0FD"/>
<path opacity="0.3" d="M453.496 329.944C450.683 325.804 439.469 328.429 428.439 335.86C417.373 343.291 410.71 352.644 413.486 356.822C416.299 360.962 427.514 358.338 438.543 350.906C449.61 343.475 456.309 334.122 453.496 329.944Z" fill="white"/>
<path opacity="0.3" d="M417.668 376.564C415.67 383.293 411.265 387.877 407.823 386.879C404.381 385.844 403.234 379.596 405.232 372.867C407.231 366.138 411.636 361.554 415.078 362.552C418.52 363.587 419.667 369.835 417.668 376.564Z" fill="white"/>
<path d="M430.586 371.869C429.475 371.869 428.439 371.721 427.551 371.425C426.625 371.129 425.848 370.723 425.182 370.168C424.516 369.614 423.998 368.948 423.627 368.172C423.257 367.395 423.072 366.508 423.072 365.547C423.072 364.105 423.442 362.922 424.183 361.998C424.923 361.073 425.996 360.408 427.403 360.001C426.218 359.558 425.33 358.929 424.738 358.042C424.146 357.191 423.85 356.156 423.85 354.936C423.85 354.123 423.998 353.347 424.331 352.644C424.664 351.942 425.108 351.313 425.7 350.796C426.292 350.278 426.996 349.834 427.81 349.539C428.624 349.243 429.549 349.095 430.586 349.095C431.585 349.095 432.51 349.243 433.325 349.539C434.139 349.834 434.879 350.241 435.471 350.796C436.063 351.313 436.508 351.942 436.841 352.644C437.174 353.347 437.322 354.123 437.322 354.936C437.322 356.156 437.026 357.191 436.434 358.042C435.841 358.892 434.953 359.558 433.769 360.001C435.175 360.408 436.211 361.073 436.989 361.998C437.729 362.922 438.099 364.105 438.099 365.547C438.099 366.508 437.914 367.395 437.544 368.172C437.174 368.948 436.656 369.614 435.989 370.168C435.323 370.723 434.546 371.129 433.621 371.425C432.695 371.721 431.659 371.869 430.586 371.869ZM430.586 369.651C431.326 369.651 431.955 369.54 432.547 369.355C433.14 369.17 433.621 368.874 434.028 368.504C434.435 368.135 434.731 367.691 434.953 367.173C435.175 366.656 435.286 366.101 435.286 365.473C435.286 364.696 435.175 364.031 434.916 363.513C434.657 362.959 434.324 362.515 433.88 362.182C433.436 361.85 432.954 361.591 432.399 361.443C431.844 361.295 431.252 361.184 430.623 361.184C429.993 361.184 429.438 361.258 428.846 361.443C428.291 361.591 427.773 361.85 427.366 362.182C426.922 362.515 426.588 362.959 426.329 363.513C426.07 364.068 425.959 364.733 425.959 365.473C425.959 366.101 426.07 366.656 426.292 367.173C426.514 367.691 426.81 368.135 427.218 368.504C427.625 368.874 428.106 369.17 428.698 369.355C429.179 369.54 429.845 369.651 430.586 369.651ZM430.586 358.966C431.326 358.966 431.918 358.855 432.436 358.633C432.954 358.412 433.362 358.116 433.695 357.746C434.028 357.376 434.25 356.97 434.398 356.489C434.546 356.008 434.62 355.528 434.62 355.01C434.62 354.493 434.546 354.012 434.361 353.531C434.176 353.088 433.917 352.681 433.584 352.348C433.251 352.016 432.843 351.72 432.325 351.535C431.807 351.35 431.252 351.239 430.586 351.239C429.919 351.239 429.327 351.35 428.846 351.535C428.328 351.72 427.921 352.016 427.588 352.348C427.255 352.681 426.996 353.088 426.81 353.531C426.625 353.975 426.551 354.493 426.551 355.01C426.551 355.528 426.625 356.008 426.773 356.489C426.921 356.97 427.144 357.376 427.477 357.746C427.81 358.116 428.217 358.412 428.735 358.633C429.216 358.855 429.845 358.966 430.586 358.966Z" fill="#2C6DA6"/>
</g>
<g clip-path="url(#clip2)">
<path d="M112 512.527C112 533.243 95.1887 550.054 74.4729 550.054C58.8004 550.054 45.4056 540.456 39.7657 526.844C37.9761 522.397 37 517.57 37 512.527C37 491.811 53.8113 475 74.5271 475C79.3536 475 83.9631 475.922 88.2473 477.603C102.13 483.08 112 496.638 112 512.527Z" fill="url(#paint36_linear)"/>
<path opacity="0.1" d="M91.013 491.866C91.013 512.581 74.2017 529.393 53.4859 529.393C48.6594 529.393 44.0499 528.471 39.7657 526.79C37.9761 522.397 37 517.57 37 512.527C37 491.811 53.8113 475 74.5271 475C79.3536 475 83.9631 475.922 88.2473 477.603C90.0369 481.996 91.013 486.822 91.013 491.866Z" fill="white"/>
<path d="M68.9291 513.541C76.6261 508.847 79.0612 498.803 74.368 491.106C69.6747 483.409 59.6304 480.974 51.9333 485.667C44.2363 490.36 41.8012 500.405 46.4944 508.102C51.1877 515.799 61.232 518.234 68.9291 513.541Z" fill="white"/>
<path opacity="0.3" d="M74.9069 479.338C73.0631 476.573 65.5794 478.362 58.2583 483.243C50.9373 488.178 46.4904 494.414 48.3343 497.18C50.1781 499.946 57.6618 498.156 64.9828 493.275C72.3039 488.341 76.7507 482.104 74.9069 479.338Z" fill="white"/>
<path opacity="0.3" d="M51.0999 510.304C49.7441 514.751 46.8699 517.842 44.5923 517.137C42.3146 516.432 41.5554 512.31 42.8569 507.809C44.2127 503.362 47.0869 500.271 49.3645 500.976C51.6964 501.681 52.4556 505.857 51.0999 510.304Z" fill="white"/>
<path d="M58.287 499.882C58.287 501.848 57.8801 503.352 57.0663 504.394C56.2525 505.436 55.0611 505.957 53.4921 505.957C51.9426 505.957 50.7577 505.445 49.9374 504.423C49.1171 503.401 48.6972 501.936 48.6777 500.029V497.412C48.6777 495.426 49.0878 493.919 49.9081 492.89C50.7349 491.861 51.9231 491.347 53.4726 491.347C55.0221 491.347 56.207 491.858 57.0273 492.88C57.8476 493.896 58.2675 495.358 58.287 497.265V499.882ZM55.4648 497.011C55.4648 495.833 55.302 494.977 54.9765 494.443C54.6575 493.903 54.1562 493.632 53.4726 493.632C52.8085 493.632 52.317 493.889 51.998 494.404C51.6855 494.912 51.5195 495.709 51.4999 496.796V500.253C51.4999 501.412 51.6562 502.275 51.9687 502.841C52.2877 503.401 52.7955 503.681 53.4921 503.681C54.1822 503.681 54.6803 503.411 54.9862 502.871C55.2922 502.33 55.4517 501.503 55.4648 500.39V497.011ZM60.621 498.769L61.4413 491.542H69.4101V493.896H63.7558L63.4042 496.953C64.0748 496.595 64.7877 496.416 65.5429 496.416C66.8971 496.416 67.9583 496.835 68.7265 497.675C69.4947 498.515 69.8788 499.69 69.8788 501.201C69.8788 502.119 69.6835 502.942 69.2929 503.671C68.9088 504.394 68.3554 504.957 67.6327 505.361C66.9101 505.758 66.0572 505.957 65.0741 505.957C64.2148 505.957 63.4172 505.784 62.6816 505.439C61.9459 505.087 61.3632 504.596 60.9335 503.964C60.5103 503.333 60.2857 502.613 60.2597 501.806H63.0527C63.1112 502.399 63.3163 502.861 63.6679 503.193C64.026 503.518 64.4915 503.681 65.0644 503.681C65.7024 503.681 66.1939 503.453 66.539 502.998C66.884 502.535 67.0566 501.884 67.0566 501.044C67.0566 500.237 66.858 499.619 66.4609 499.189C66.0637 498.759 65.5006 498.544 64.7714 498.544C64.1008 498.544 63.5572 498.72 63.1405 499.072L62.8671 499.326L60.621 498.769Z" fill="#8A3737"/>
</g>
<g clip-path="url(#clip3)">
<path d="M179 512.527C179 533.243 162.189 550.054 141.473 550.054C125.8 550.054 112.406 540.456 106.766 526.844C104.976 522.397 104 517.57 104 512.527C104 491.811 120.811 475 141.527 475C146.354 475 150.963 475.922 155.247 477.603C169.13 483.08 179 496.638 179 512.527Z" fill="url(#paint37_linear)"/>
<path opacity="0.1" d="M158.013 491.866C158.013 512.581 141.202 529.393 120.486 529.393C115.659 529.393 111.05 528.471 106.766 526.79C104.976 522.397 104 517.57 104 512.527C104 491.811 120.811 475 141.527 475C146.354 475 150.963 475.922 155.247 477.603C157.037 481.996 158.013 486.822 158.013 491.866Z" fill="white"/>
<path d="M135.929 513.541C143.626 508.847 146.061 498.803 141.368 491.106C136.675 483.409 126.63 480.974 118.933 485.667C111.236 490.36 108.801 500.405 113.494 508.102C118.188 515.799 128.232 518.234 135.929 513.541Z" fill="white"/>
<path opacity="0.3" d="M141.907 479.338C140.063 476.573 132.579 478.362 125.258 483.243C117.937 488.178 113.49 494.414 115.334 497.18C117.178 499.946 124.662 498.156 131.983 493.275C139.304 488.341 143.751 482.104 141.907 479.338Z" fill="white"/>
<path opacity="0.3" d="M118.1 510.304C116.744 514.751 113.87 517.842 111.592 517.137C109.315 516.432 108.555 512.31 109.857 507.809C111.213 503.362 114.087 500.271 116.365 500.976C118.696 501.681 119.456 505.857 118.1 510.304Z" fill="white"/>
<path d="M125.786 499.882C125.786 501.848 125.38 503.352 124.566 504.394C123.752 505.436 122.561 505.957 120.992 505.957C119.442 505.957 118.257 505.445 117.437 504.423C116.617 503.401 116.197 501.936 116.177 500.029V497.412C116.177 495.426 116.587 493.919 117.408 492.89C118.234 491.861 119.423 491.347 120.972 491.347C122.521 491.347 123.706 491.858 124.527 492.88C125.347 493.896 125.767 495.358 125.786 497.265V499.882ZM122.964 497.011C122.964 495.833 122.801 494.977 122.476 494.443C122.157 493.903 121.656 493.632 120.972 493.632C120.308 493.632 119.816 493.889 119.497 494.404C119.185 494.912 119.019 495.709 118.999 496.796V500.253C118.999 501.412 119.156 502.275 119.468 502.841C119.787 503.401 120.295 503.681 120.992 503.681C121.682 503.681 122.18 503.411 122.486 502.871C122.792 502.33 122.951 501.503 122.964 500.39V497.011ZM136.968 495.322C136.968 496.012 136.796 496.624 136.451 497.158C136.105 497.692 135.63 498.118 135.025 498.437C135.715 498.769 136.262 499.228 136.665 499.814C137.069 500.393 137.271 501.077 137.271 501.865C137.271 503.128 136.841 504.127 135.982 504.863C135.122 505.592 133.954 505.957 132.476 505.957C130.998 505.957 129.826 505.589 128.96 504.853C128.094 504.117 127.661 503.121 127.661 501.865C127.661 501.077 127.863 500.39 128.267 499.804C128.671 499.218 129.214 498.763 129.898 498.437C129.292 498.118 128.817 497.692 128.472 497.158C128.133 496.624 127.964 496.012 127.964 495.322C127.964 494.111 128.368 493.147 129.175 492.431C129.982 491.708 131.079 491.347 132.466 491.347C133.846 491.347 134.94 491.705 135.747 492.421C136.561 493.131 136.968 494.098 136.968 495.322ZM134.439 501.66C134.439 501.041 134.26 500.546 133.902 500.175C133.544 499.804 133.062 499.619 132.456 499.619C131.857 499.619 131.379 499.804 131.021 500.175C130.663 500.54 130.484 501.035 130.484 501.66C130.484 502.265 130.659 502.753 131.011 503.125C131.363 503.496 131.851 503.681 132.476 503.681C133.088 503.681 133.566 503.502 133.911 503.144C134.263 502.786 134.439 502.291 134.439 501.66ZM134.146 495.458C134.146 494.905 133.999 494.462 133.706 494.13C133.413 493.792 133 493.623 132.466 493.623C131.939 493.623 131.529 493.785 131.236 494.111C130.943 494.436 130.796 494.886 130.796 495.458C130.796 496.025 130.943 496.481 131.236 496.826C131.529 497.171 131.942 497.343 132.476 497.343C133.01 497.343 133.42 497.171 133.706 496.826C133.999 496.481 134.146 496.025 134.146 495.458Z" fill="#FA9F08"/>
</g>
<g clip-path="url(#clip4)">
<path d="M246 512.527C246 533.243 229.189 550.054 208.473 550.054C192.8 550.054 179.406 540.456 173.766 526.844C171.976 522.397 171 517.57 171 512.527C171 491.811 187.811 475 208.527 475C213.354 475 217.963 475.922 222.247 477.603C236.13 483.08 246 496.638 246 512.527Z" fill="url(#paint38_linear)"/>
<path opacity="0.1" d="M225.013 491.866C225.013 512.581 208.202 529.393 187.486 529.393C182.659 529.393 178.05 528.471 173.766 526.79C171.976 522.397 171 517.57 171 512.527C171 491.811 187.811 475 208.527 475C213.354 475 217.963 475.922 222.247 477.603C224.037 481.996 225.013 486.822 225.013 491.866Z" fill="white"/>
<path d="M202.929 513.541C210.626 508.847 213.061 498.803 208.368 491.106C203.675 483.409 193.63 480.974 185.933 485.667C178.236 490.36 175.801 500.405 180.494 508.102C185.188 515.799 195.232 518.234 202.929 513.541Z" fill="white"/>
<path opacity="0.3" d="M208.907 479.338C207.063 476.573 199.579 478.362 192.258 483.243C184.937 488.178 180.49 494.414 182.334 497.18C184.178 499.946 191.662 498.156 198.983 493.275C206.304 488.341 210.751 482.104 208.907 479.338Z" fill="white"/>
<path opacity="0.3" d="M185.1 510.304C183.744 514.751 180.87 517.842 178.592 517.137C176.315 516.432 175.555 512.31 176.857 507.809C178.213 503.362 181.087 500.271 183.365 500.976C185.696 501.681 186.456 505.857 185.1 510.304Z" fill="white"/>
<path d="M192.483 500.121C192.483 502.087 192.076 503.591 191.262 504.633C190.448 505.674 189.257 506.195 187.688 506.195C186.138 506.195 184.953 505.684 184.133 504.662C183.313 503.64 182.893 502.175 182.873 500.268V497.65C182.873 495.665 183.284 494.158 184.104 493.129C184.931 492.1 186.119 491.586 187.668 491.586C189.218 491.586 190.403 492.097 191.223 493.119C192.043 494.135 192.463 495.596 192.483 497.504V500.121ZM189.66 497.25C189.66 496.072 189.498 495.215 189.172 494.682C188.853 494.141 188.352 493.871 187.668 493.871C187.004 493.871 186.513 494.128 186.194 494.643C185.881 495.15 185.715 495.948 185.696 497.035V500.492C185.696 501.651 185.852 502.514 186.164 503.08C186.483 503.64 186.991 503.92 187.688 503.92C188.378 503.92 188.876 503.65 189.182 503.109C189.488 502.569 189.647 501.742 189.66 500.629V497.25ZM202.053 491.635V493.959H201.78C200.504 493.979 199.475 494.311 198.694 494.955C197.919 495.6 197.453 496.495 197.297 497.641C198.052 496.872 199.006 496.488 200.159 496.488C201.395 496.488 202.379 496.931 203.108 497.816C203.837 498.702 204.201 499.867 204.201 501.312C204.201 502.237 204 503.074 203.596 503.822C203.199 504.571 202.632 505.154 201.897 505.57C201.168 505.987 200.341 506.195 199.416 506.195C197.919 506.195 196.708 505.674 195.784 504.633C194.866 503.591 194.407 502.201 194.407 500.463V499.447C194.407 497.904 194.696 496.544 195.276 495.365C195.862 494.18 196.698 493.266 197.785 492.621C198.879 491.97 200.145 491.641 201.584 491.635H202.053ZM199.299 498.754C198.843 498.754 198.43 498.874 198.059 499.115C197.688 499.35 197.414 499.662 197.239 500.053V500.912C197.239 501.856 197.424 502.595 197.795 503.129C198.166 503.656 198.687 503.92 199.358 503.92C199.963 503.92 200.451 503.682 200.823 503.207C201.2 502.725 201.389 502.104 201.389 501.342C201.389 500.567 201.2 499.942 200.823 499.467C200.445 498.992 199.937 498.754 199.299 498.754Z" fill="#0DB1C8"/>
</g>
<g clip-path="url(#clip5)">
<path d="M313 512.527C313 533.243 296.189 550.054 275.473 550.054C259.8 550.054 246.406 540.456 240.766 526.844C238.976 522.397 238 517.57 238 512.527C238 491.811 254.811 475 275.527 475C280.354 475 284.963 475.922 289.247 477.603C303.13 483.08 313 496.638 313 512.527Z" fill="url(#paint39_linear)"/>
<path opacity="0.1" d="M292.013 491.866C292.013 512.581 275.202 529.393 254.486 529.393C249.659 529.393 245.05 528.471 240.766 526.79C238.976 522.397 238 517.57 238 512.527C238 491.811 254.811 475 275.527 475C280.354 475 284.963 475.922 289.247 477.603C291.037 481.996 292.013 486.822 292.013 491.866Z" fill="white"/>
<path d="M269.929 513.541C277.626 508.847 280.061 498.803 275.368 491.106C270.675 483.409 260.63 480.974 252.933 485.667C245.236 490.36 242.801 500.405 247.494 508.102C252.188 515.799 262.232 518.234 269.929 513.541Z" fill="white"/>
<path opacity="0.3" d="M275.907 479.338C274.063 476.573 266.579 478.362 259.258 483.243C251.937 488.178 247.49 494.414 249.334 497.18C251.178 499.946 258.662 498.156 265.983 493.275C273.304 488.341 277.751 482.104 275.907 479.338Z" fill="white"/>
<path opacity="0.3" d="M252.1 510.304C250.744 514.751 247.87 517.842 245.592 517.137C243.315 516.432 242.555 512.31 243.857 507.809C245.213 503.362 248.087 500.271 250.365 500.976C252.696 501.681 253.456 505.857 252.1 510.304Z" fill="white"/>
<path d="M260.287 500.882C260.287 502.848 259.88 504.352 259.066 505.394C258.253 506.436 257.061 506.957 255.492 506.957C253.943 506.957 252.758 506.445 251.937 505.423C251.117 504.401 250.697 502.936 250.678 501.029V498.412C250.678 496.426 251.088 494.919 251.908 493.89C252.735 492.861 253.923 492.347 255.473 492.347C257.022 492.347 258.207 492.858 259.027 493.88C259.848 494.896 260.267 496.358 260.287 498.265V500.882ZM257.465 498.011C257.465 496.833 257.302 495.977 256.976 495.443C256.657 494.903 256.156 494.632 255.473 494.632C254.809 494.632 254.317 494.889 253.998 495.404C253.685 495.912 253.519 496.709 253.5 497.796V501.253C253.5 502.412 253.656 503.275 253.969 503.841C254.288 504.401 254.795 504.681 255.492 504.681C256.182 504.681 256.68 504.411 256.986 503.871C257.292 503.33 257.452 502.503 257.465 501.39V498.011ZM271.869 494.125L266.371 506.761H263.392L268.9 494.828H261.83V492.542H271.869V494.125Z" fill="#DF79A6"/>
</g>
<g clip-path="url(#clip6)">
<path d="M380 512.527C380 533.243 363.189 550.054 342.473 550.054C326.8 550.054 313.406 540.456 307.766 526.844C305.976 522.397 305 517.57 305 512.527C305 491.811 321.811 475 342.527 475C347.354 475 351.963 475.922 356.247 477.603C370.13 483.08 380 496.638 380 512.527Z" fill="url(#paint40_linear)"/>
<path opacity="0.1" d="M359.013 491.866C359.013 512.581 342.202 529.393 321.486 529.393C316.659 529.393 312.05 528.471 307.766 526.79C305.976 522.397 305 517.57 305 512.527C305 491.811 321.811 475 342.527 475C347.354 475 351.963 475.922 356.247 477.603C358.037 481.996 359.013 486.822 359.013 491.866Z" fill="white"/>
<path d="M336.929 513.541C344.626 508.847 347.061 498.803 342.368 491.106C337.675 483.409 327.63 480.974 319.933 485.667C312.236 490.36 309.801 500.405 314.494 508.102C319.188 515.799 329.232 518.234 336.929 513.541Z" fill="white"/>
<path opacity="0.3" d="M342.907 479.338C341.063 476.573 333.579 478.362 326.258 483.243C318.937 488.178 314.49 494.414 316.334 497.18C318.178 499.946 325.662 498.156 332.983 493.275C340.304 488.341 344.751 482.104 342.907 479.338Z" fill="white"/>
<path opacity="0.3" d="M319.1 510.304C317.744 514.751 314.87 517.842 312.592 517.137C310.315 516.432 309.555 512.31 310.857 507.809C312.213 503.362 315.087 500.271 317.365 500.976C319.696 501.681 320.456 505.857 319.1 510.304Z" fill="white"/>
<path d="M327.786 500.882C327.786 502.848 327.38 504.352 326.566 505.394C325.752 506.436 324.561 506.957 322.992 506.957C321.442 506.957 320.257 506.445 319.437 505.423C318.617 504.401 318.197 502.936 318.177 501.029V498.412C318.177 496.426 318.587 494.919 319.408 493.89C320.234 492.861 321.423 492.347 322.972 492.347C324.521 492.347 325.706 492.858 326.527 493.88C327.347 494.896 327.767 496.358 327.786 498.265V500.882ZM324.964 498.011C324.964 496.833 324.801 495.977 324.476 495.443C324.157 494.903 323.656 494.632 322.972 494.632C322.308 494.632 321.816 494.889 321.497 495.404C321.185 495.912 321.019 496.709 320.999 497.796V501.253C320.999 502.412 321.156 503.275 321.468 503.841C321.787 504.401 322.295 504.681 322.992 504.681C323.682 504.681 324.18 504.411 324.486 503.871C324.792 503.33 324.951 502.503 324.964 501.39V498.011ZM336.302 501.078C335.566 501.8 334.707 502.162 333.724 502.162C332.467 502.162 331.462 501.732 330.706 500.873C329.951 500.007 329.574 498.841 329.574 497.376C329.574 496.445 329.775 495.593 330.179 494.818C330.589 494.037 331.159 493.431 331.888 493.001C332.617 492.565 333.437 492.347 334.349 492.347C335.286 492.347 336.12 492.582 336.849 493.05C337.578 493.519 338.145 494.193 338.548 495.072C338.952 495.951 339.157 496.957 339.163 498.089V499.134C339.163 501.504 338.574 503.366 337.396 504.72C336.217 506.074 334.548 506.797 332.386 506.888L331.693 506.898V504.544L332.318 504.535C334.772 504.424 336.1 503.272 336.302 501.078ZM334.417 500.003C334.873 500.003 335.264 499.886 335.589 499.652C335.921 499.417 336.172 499.134 336.341 498.802V497.64C336.341 496.683 336.159 495.941 335.794 495.414C335.43 494.886 334.941 494.623 334.329 494.623C333.763 494.623 333.298 494.883 332.933 495.404C332.568 495.918 332.386 496.566 332.386 497.347C332.386 498.122 332.562 498.76 332.913 499.261C333.271 499.756 333.773 500.003 334.417 500.003Z" fill="#3D5E91"/>
</g>
<g clip-path="url(#clip7)">
<path d="M447 512.527C447 533.243 430.189 550.054 409.473 550.054C393.8 550.054 380.406 540.456 374.766 526.844C372.976 522.397 372 517.57 372 512.527C372 491.811 388.811 475 409.527 475C414.354 475 418.963 475.922 423.247 477.603C437.13 483.08 447 496.638 447 512.527Z" fill="url(#paint41_linear)"/>
<path opacity="0.1" d="M426.013 491.866C426.013 512.581 409.202 529.393 388.486 529.393C383.659 529.393 379.05 528.471 374.766 526.79C372.976 522.397 372 517.57 372 512.527C372 491.811 388.811 475 409.527 475C414.354 475 418.963 475.922 423.247 477.603C425.037 481.996 426.013 486.822 426.013 491.866Z" fill="white"/>
<path d="M403.929 513.541C411.626 508.847 414.061 498.803 409.368 491.106C404.675 483.409 394.63 480.974 386.933 485.667C379.236 490.36 376.801 500.405 381.494 508.102C386.188 515.799 396.232 518.234 403.929 513.541Z" fill="white"/>
<path opacity="0.3" d="M409.907 479.338C408.063 476.573 400.579 478.362 393.258 483.243C385.937 488.178 381.49 494.414 383.334 497.18C385.178 499.946 392.662 498.156 399.983 493.275C407.304 488.341 411.751 482.104 409.907 479.338Z" fill="white"/>
<path opacity="0.3" d="M386.1 510.304C384.744 514.751 381.87 517.842 379.592 517.137C377.315 516.432 376.555 512.31 377.857 507.809C379.213 503.362 382.087 500.271 384.365 500.976C386.696 501.681 387.456 505.857 386.1 510.304Z" fill="white"/>
<path d="M390.572 506.761H387.75V495.882L384.381 496.927V494.632L390.269 492.523H390.572V506.761ZM402.057 506.761H399.234V495.882L395.865 496.927V494.632L401.754 492.523H402.057V506.761Z" fill="#26B996"/>
</g>
<defs>
<linearGradient id="paint0_linear" x1="315.703" y1="106.084" x2="375.531" y2="116.737" gradientUnits="userSpaceOnUse">
<stop stop-color="#0EDA99"/>
<stop offset="0.1924" stop-color="#0BE2A3"/>
<stop offset="1" stop-color="#00FFC9"/>
</linearGradient>
<linearGradient id="paint1_linear" x1="166.283" y1="307.612" x2="193.805" y2="307.612" gradientUnits="userSpaceOnUse">
<stop stop-color="#FFC546"/>
<stop offset="1" stop-color="#F7A803"/>
</linearGradient>
<linearGradient id="paint2_linear" x1="85.1639" y1="219.569" x2="348.198" y2="265.491" gradientUnits="userSpaceOnUse">
<stop stop-color="#BCCAF7"/>
<stop offset="1" stop-color="#A3B6F7"/>
</linearGradient>
<linearGradient id="paint3_linear" x1="79.5845" y1="219.252" x2="351.921" y2="266.798" gradientUnits="userSpaceOnUse">
<stop stop-color="#4771AF"/>
<stop offset="1" stop-color="#375788"/>
</linearGradient>
<linearGradient id="paint4_linear" x1="209.953" y1="241.67" x2="249.052" y2="248.496" gradientUnits="userSpaceOnUse">
<stop stop-color="#4771AF"/>
<stop offset="1" stop-color="#375788"/>
</linearGradient>
<linearGradient id="paint5_linear" x1="156.306" y1="321.666" x2="184.651" y2="321.666" gradientUnits="userSpaceOnUse">
<stop stop-color="#638BF1"/>
<stop offset="1" stop-color="#A3BBF0"/>
</linearGradient>
<linearGradient id="paint6_linear" x1="205.508" y1="342.099" x2="233.854" y2="342.099" gradientUnits="userSpaceOnUse">
<stop stop-color="#638BF1"/>
<stop offset="1" stop-color="#A3BBF0"/>
</linearGradient>
<linearGradient id="paint7_linear" x1="170.673" y1="303.392" x2="196.998" y2="303.392" gradientUnits="userSpaceOnUse">
<stop stop-color="#F9A4D5"/>
<stop offset="0.9905" stop-color="#F380B7"/>
</linearGradient>
<linearGradient id="paint8_linear" x1="126.035" y1="282.959" x2="152.361" y2="282.959" gradientUnits="userSpaceOnUse">
<stop stop-color="#F9A4D5"/>
<stop offset="0.9905" stop-color="#F380B7"/>
</linearGradient>
<linearGradient id="paint9_linear" x1="167.081" y1="271.242" x2="193.406" y2="271.242" gradientUnits="userSpaceOnUse">
<stop stop-color="#4771AF"/>
<stop offset="1" stop-color="#375788"/>
</linearGradient>
<linearGradient id="paint10_linear" x1="139.147" y1="303.983" x2="166.694" y2="303.983" gradientUnits="userSpaceOnUse">
<stop stop-color="#FFC546"/>
<stop offset="1" stop-color="#F7A803"/>
</linearGradient>
<linearGradient id="paint11_linear" x1="144.841" y1="298.685" x2="148.136" y2="298.685" gradientUnits="userSpaceOnUse">
<stop stop-color="#FFC546"/>
<stop offset="1" stop-color="#F7A803"/>
</linearGradient>
<linearGradient id="paint12_linear" x1="185.813" y1="334.122" x2="213.36" y2="334.122" gradientUnits="userSpaceOnUse">
<stop stop-color="#FFC546"/>
<stop offset="1" stop-color="#F7A803"/>
</linearGradient>
<linearGradient id="paint13_linear" x1="178.589" y1="333.277" x2="315.633" y2="357.203" gradientUnits="userSpaceOnUse">
<stop stop-color="#4771AF"/>
<stop offset="1" stop-color="#375788"/>
</linearGradient>
<linearGradient id="paint14_linear" x1="223.359" y1="245.527" x2="240.12" y2="245.527" gradientUnits="userSpaceOnUse">
<stop stop-color="#82A6F1"/>
<stop offset="1" stop-color="#7287C5"/>
</linearGradient>
<linearGradient id="paint15_linear" x1="34.2774" y1="84.4436" x2="140.178" y2="84.4436" gradientUnits="userSpaceOnUse">
<stop stop-color="#FCFB9C"/>
<stop offset="1" stop-color="#F99B02"/>
</linearGradient>
<linearGradient id="paint16_linear" x1="132.793" y1="130.759" x2="69.9012" y2="148.394" gradientUnits="userSpaceOnUse">
<stop stop-color="#00AAC0"/>
<stop offset="0.0892789" stop-color="#00B9D1"/>
<stop offset="0.2283" stop-color="#00C9E4"/>
<stop offset="0.3913" stop-color="#00D5F1"/>
<stop offset="0.5987" stop-color="#00DCF9"/>
<stop offset="1" stop-color="#00DEFB"/>
</linearGradient>
<linearGradient id="paint17_linear" x1="138.41" y1="154.954" x2="137.687" y2="2.78391" gradientUnits="userSpaceOnUse">
<stop stop-color="#00AAC0"/>
<stop offset="0.276" stop-color="#00BCD4"/>
<stop offset="0.7348" stop-color="#00D5F0"/>
<stop offset="1" stop-color="#00DEFB"/>
</linearGradient>
<linearGradient id="paint18_linear" x1="140.628" y1="255.763" x2="140.628" y2="150.429" gradientUnits="userSpaceOnUse">
<stop stop-color="#638DF3"/>
<stop offset="1" stop-color="#A5BDF2"/>
</linearGradient>
<linearGradient id="paint19_linear" x1="91.8496" y1="159.914" x2="186.143" y2="159.914" gradientUnits="userSpaceOnUse">
<stop stop-color="#638DF3"/>
<stop offset="1" stop-color="#A5BDF2"/>
</linearGradient>
<linearGradient id="paint20_linear" x1="154.292" y1="246.637" x2="191.591" y2="246.637" gradientUnits="userSpaceOnUse">
<stop stop-color="#FFC546"/>
<stop offset="1" stop-color="#FBAC00"/>
</linearGradient>
<linearGradient id="paint21_linear" x1="169.907" y1="246.637" x2="176.92" y2="246.637" gradientUnits="userSpaceOnUse">
<stop stop-color="#FB63B7"/>
<stop offset="0.1727" stop-color="#EC59A5"/>
<stop offset="0.393" stop-color="#E05195"/>
<stop offset="0.6457" stop-color="#D84C8C"/>
<stop offset="1" stop-color="#D64A89"/>
</linearGradient>
<linearGradient id="paint22_linear" x1="160.947" y1="219.178" x2="187.601" y2="219.178" gradientUnits="userSpaceOnUse">
<stop stop-color="#FB63B7"/>
<stop offset="0.1727" stop-color="#EC59A5"/>
<stop offset="0.393" stop-color="#E05195"/>
<stop offset="0.6457" stop-color="#D84C8C"/>
<stop offset="1" stop-color="#D64A89"/>
</linearGradient>
<linearGradient id="paint23_linear" x1="175.355" y1="220.237" x2="186.203" y2="220.237" gradientUnits="userSpaceOnUse">
<stop stop-color="#FB63B7"/>
<stop offset="0.1727" stop-color="#EC59A5"/>
<stop offset="0.393" stop-color="#E05195"/>
<stop offset="0.6457" stop-color="#D84C8C"/>
<stop offset="1" stop-color="#D64A89"/>
</linearGradient>
<linearGradient id="paint24_linear" x1="164.481" y1="218.11" x2="172.942" y2="218.11" gradientUnits="userSpaceOnUse">
<stop stop-color="#FB63B7"/>
<stop offset="0.1727" stop-color="#EC59A5"/>
<stop offset="0.393" stop-color="#E05195"/>
<stop offset="0.6457" stop-color="#D84C8C"/>
<stop offset="1" stop-color="#D64A89"/>
</linearGradient>
<linearGradient id="paint25_linear" x1="243.482" y1="353.993" x2="356.498" y2="353.993" gradientUnits="userSpaceOnUse">
<stop stop-color="#F485C0"/>
<stop offset="0.3063" stop-color="#F082BB"/>
<stop offset="0.6681" stop-color="#E47BAD"/>
<stop offset="1" stop-color="#D47099"/>
</linearGradient>
<linearGradient id="paint26_linear" x1="349.821" y1="114.944" x2="403.988" y2="114.944" gradientUnits="userSpaceOnUse">
<stop stop-color="#FCFB9C"/>
<stop offset="1" stop-color="#F99B02"/>
</linearGradient>
<linearGradient id="paint27_linear" x1="361.017" y1="104.61" x2="367.498" y2="104.61" gradientUnits="userSpaceOnUse">
<stop stop-color="#FFC546"/>
<stop offset="1" stop-color="#F7A803"/>
</linearGradient>
<linearGradient id="paint28_linear" x1="296.933" y1="303.822" x2="358.617" y2="303.822" gradientUnits="userSpaceOnUse">
<stop stop-color="#4771AF"/>
<stop offset="1" stop-color="#375788"/>
</linearGradient>
<linearGradient id="paint29_linear" x1="77.0816" y1="419.456" x2="94.578" y2="419.456" gradientUnits="userSpaceOnUse">
<stop stop-color="#FA4497"/>
<stop offset="0.4107" stop-color="#FA479A"/>
<stop offset="0.7036" stop-color="#F950A3"/>
<stop offset="0.9591" stop-color="#F860B2"/>
<stop offset="1" stop-color="#F863B5"/>
</linearGradient>
<linearGradient id="paint30_linear" x1="77.1599" y1="422.2" x2="79.5656" y2="422.2" gradientUnits="userSpaceOnUse">
<stop offset="0.5223" stop-color="#B93273"/>
<stop offset="0.6702" stop-color="#BC3476"/>
<stop offset="0.7756" stop-color="#C53B7F"/>
<stop offset="0.8679" stop-color="#D4478F"/>
<stop offset="0.9521" stop-color="#E857A5"/>
<stop offset="1" stop-color="#F863B5"/>
</linearGradient>
<linearGradient id="paint31_linear" x1="27.056" y1="372.036" x2="27.3947" y2="389.509" gradientUnits="userSpaceOnUse">
<stop stop-color="#FA4497"/>
<stop offset="0.4107" stop-color="#FA479A"/>
<stop offset="0.7036" stop-color="#F950A3"/>
<stop offset="0.9591" stop-color="#F860B2"/>
<stop offset="1" stop-color="#F863B5"/>
</linearGradient>
<linearGradient id="paint32_linear" x1="24.311" y1="372.167" x2="24.3576" y2="374.57" gradientUnits="userSpaceOnUse">
<stop offset="0.5223" stop-color="#B93273"/>
<stop offset="0.6702" stop-color="#BC3476"/>
<stop offset="0.7756" stop-color="#C53B7F"/>
<stop offset="0.8679" stop-color="#D4478F"/>
<stop offset="0.9521" stop-color="#E857A5"/>
<stop offset="1" stop-color="#F863B5"/>
</linearGradient>
<linearGradient id="paint33_linear" x1="35.796" y1="204.546" x2="119.538" y2="204.546" gradientUnits="userSpaceOnUse">
<stop stop-color="#FA4497"/>
<stop offset="0.4107" stop-color="#FA479A"/>
<stop offset="0.7036" stop-color="#F950A3"/>
<stop offset="0.9591" stop-color="#F860B2"/>
<stop offset="1" stop-color="#F863B5"/>
</linearGradient>
<linearGradient id="paint34_linear" x1="44.2919" y1="289.673" x2="103.785" y2="289.673" gradientUnits="userSpaceOnUse">
<stop stop-color="#00AAC0"/>
<stop offset="0.0892789" stop-color="#00B9D1"/>
<stop offset="0.2283" stop-color="#00C9E4"/>
<stop offset="0.3913" stop-color="#00D5F1"/>
<stop offset="0.5987" stop-color="#00DCF9"/>
<stop offset="1" stop-color="#00DEFB"/>
</linearGradient>
<linearGradient id="paint35_linear" x1="396.416" y1="379.88" x2="509.432" y2="379.88" gradientUnits="userSpaceOnUse">
<stop stop-color="#0CDCF9"/>
<stop offset="0.3808" stop-color="#0BCBE6"/>
<stop offset="1" stop-color="#08A8BE"/>
</linearGradient>
<linearGradient id="paint36_linear" x1="37" y1="512.503" x2="112.007" y2="512.503" gradientUnits="userSpaceOnUse">
<stop stop-color="#AF4747"/>
<stop offset="1" stop-color="#752E2E"/>
</linearGradient>
<linearGradient id="paint37_linear" x1="104" y1="512.503" x2="179.007" y2="512.503" gradientUnits="userSpaceOnUse">
<stop stop-color="#FCF79F"/>
<stop offset="1" stop-color="#FA9C03"/>
</linearGradient>
<linearGradient id="paint38_linear" x1="171" y1="512.503" x2="246.007" y2="512.503" gradientUnits="userSpaceOnUse">
<stop stop-color="#32E1FA"/>
<stop offset="1" stop-color="#09ACC3"/>
</linearGradient>
<linearGradient id="paint39_linear" x1="238" y1="512.503" x2="313.007" y2="512.503" gradientUnits="userSpaceOnUse">
<stop stop-color="#F591C6"/>
<stop offset="1" stop-color="#DB75A1"/>
</linearGradient>
<linearGradient id="paint40_linear" x1="305" y1="512.503" x2="380.007" y2="512.503" gradientUnits="userSpaceOnUse">
<stop stop-color="#597EB5"/>
<stop offset="1" stop-color="#3A5B8D"/>
</linearGradient>
<linearGradient id="paint41_linear" x1="372" y1="512.503" x2="447.007" y2="512.503" gradientUnits="userSpaceOnUse">
<stop stop-color="#61FEDB"/>
<stop offset="1" stop-color="#24B794"/>
</linearGradient>
<clipPath id="clip0">
<rect width="509.766" height="450" fill="white"/>
</clipPath>
<clipPath id="clip1">
<rect width="248.203" height="309.023" fill="white" transform="translate(107.227 126.562)"/>
</clipPath>
<clipPath id="clip2">
<rect width="75" height="75" fill="white" transform="translate(37 475)"/>
</clipPath>
<clipPath id="clip3">
<rect width="75" height="75" fill="white" transform="translate(104 475)"/>
</clipPath>
<clipPath id="clip4">
<rect width="75" height="75" fill="white" transform="translate(171 475)"/>
</clipPath>
<clipPath id="clip5">
<rect width="75" height="75" fill="white" transform="translate(238 475)"/>
</clipPath>
<clipPath id="clip6">
<rect width="75" height="75" fill="white" transform="translate(305 475)"/>
</clipPath>
<clipPath id="clip7">
<rect width="75" height="75" fill="white" transform="translate(372 475)"/>
</clipPath>
</defs>
</svg>
