<svg width="494" height="367" viewBox="0 0 494 367" fill="none" xmlns="http://www.w3.org/2000/svg">
<path d="M234.342 221L342.342 275" stroke="#FFB560"/>
<path d="M255.342 210L339.342 252L363.342 238" stroke="#00ACC1"/>
<path d="M215.342 231L304.842 275.75L271.342 295" stroke="#B8C5E5"/>
<path d="M185.52 99.9909L333.371 167.73C334.512 168.253 334.545 169.862 333.426 170.431L140.991 268.32C140.568 268.535 140.068 268.538 139.642 268.326L3.66616 200.609C2.57917 200.068 2.55232 198.527 3.61979 197.948L184.18 100.036C184.595 99.8111 185.091 99.7944 185.52 99.9909Z" stroke="#E0E7F0"/>
<path d="M100.583 76.6223L177.809 115.235V213.395L100.583 174.782V76.6223Z" fill="#8DDEE6"/>
<path d="M100.583 76.6223L177.809 115.235V213.395L100.583 174.782V76.6223Z" fill="url(#paint0_linear)" fill-opacity="0.4"/>
<path d="M255.035 76.6223L177.809 115.235V213.395L255.035 174.782V76.6223Z" fill="#4CA9C6"/>
<path d="M177.217 39.2162L255.342 77.5214L177.809 115.235L100.891 76.9299L177.217 39.2162Z" fill="#6CC3D4"/>
<path d="M177.217 39.2162L255.342 77.5214L177.809 115.235L100.891 76.9299L177.217 39.2162Z" fill="url(#paint1_linear)" fill-opacity="0.8"/>
<path d="M68.3423 157.667L100.519 173.756V214.52L68.3423 198.432V157.667Z" fill="#FAD2A4"/>
<path d="M68.3423 157.667L100.519 173.756V214.52L68.3423 198.432V157.667Z" fill="url(#paint2_linear)" fill-opacity="0.4"/>
<path d="M132.696 157.667L100.519 173.756V214.52L132.696 198.432V157.667Z" fill="#FFB560"/>
<path d="M100.273 142.081L132.825 158.042L100.52 173.756L68.4705 157.795L100.273 142.081Z" fill="#FFBA6B"/>
<path d="M100.273 142.081L132.825 158.042L100.52 173.756L68.4705 157.795L100.273 142.081Z" fill="url(#paint3_linear)" fill-opacity="0.8"/>
<path d="M107.032 207.641L139.209 223.73V233.865L107.032 217.777V207.641Z" fill="#D8E0F9"/>
<path d="M107.032 207.641L139.209 223.73V233.865L107.032 217.777V207.641Z" fill="url(#paint4_linear)" fill-opacity="0.4"/>
<path d="M171.386 207.641L139.209 223.73V233.865L171.386 217.777V207.641Z" fill="#B8C5E5"/>
<path d="M138.963 192.055L171.515 208.016L139.209 223.73L107.16 207.769L138.963 192.055Z" fill="#C9D4F0"/>
<path d="M138.963 192.055L171.515 208.016L139.209 223.73L107.16 207.769L138.963 192.055Z" fill="url(#paint5_linear)" fill-opacity="0.8"/>
<path d="M250.06 309.782C250.707 309.409 251.038 309.007 251.054 308.579C251.086 308.151 250.833 307.595 250.296 306.911C249.76 306.228 249.337 305.615 249.03 305.072C248.73 304.525 248.56 304.004 248.52 303.507C248.497 303.01 248.639 302.527 248.947 302.058C249.262 301.593 249.807 301.137 250.581 300.69C251.915 299.92 253.434 299.535 255.139 299.535C256.844 299.535 258.474 299.902 260.029 300.636L262.563 299.173L264.457 300.267L261.888 301.75C263.088 302.671 263.597 303.639 263.415 304.655C263.242 305.667 262.385 306.617 260.846 307.506L257.424 305.53C258.371 304.983 258.881 304.462 258.952 303.965C259.038 303.468 258.754 303.031 258.099 302.652C257.452 302.279 256.765 302.096 256.039 302.105C255.321 302.11 254.638 302.299 253.991 302.673C253.391 303.019 253.083 303.397 253.067 303.808C253.051 304.218 253.324 304.803 253.884 305.564C254.452 306.33 254.871 306.986 255.139 307.533C255.415 308.076 255.55 308.59 255.542 309.078C255.542 309.561 255.38 310.024 255.056 310.466C254.74 310.903 254.223 311.329 253.505 311.744C252.163 312.519 250.656 312.906 248.982 312.906C247.309 312.906 245.663 312.526 244.045 311.765L241.689 313.125L239.806 312.038L242.15 310.685C240.706 309.65 240.023 308.595 240.102 307.52C240.197 306.444 241.053 305.439 242.671 304.505L246.093 306.48C245.154 307.023 244.653 307.567 244.589 308.114C244.542 308.661 244.937 309.176 245.773 309.659C246.468 310.06 247.198 310.272 247.964 310.295C248.737 310.313 249.436 310.142 250.06 309.782ZM259.579 320.515L256.157 318.539L269.347 310.924L263.996 309.297L266.778 307.69L276.475 310.336L276.842 310.548L259.579 320.515ZM281.803 325.854L283.757 326.981L280.998 328.574L279.044 327.446L275.315 329.6L271.893 327.624L275.623 325.471L268.554 321.39L270.555 320.057L289.097 317.65L292.554 319.646L281.803 325.854ZM274.569 321.677L278.381 323.878L284.467 320.364L283.852 320.46L274.569 321.677Z" fill="#B8C5E5"/>
<path opacity="0.95" d="M227.636 319.777C226.731 320.3 225.795 320.601 224.827 320.682C223.86 320.762 223.022 320.598 222.315 320.19C221.593 319.773 221.254 319.313 221.298 318.809L218.434 320.463L217.417 319.875L225.652 315.121L226.581 315.657L225.971 316.067C226.898 316.01 227.73 316.194 228.466 316.619C229.181 317.032 229.476 317.513 229.351 318.063C229.23 318.615 228.69 319.169 227.73 319.723L227.636 319.777ZM226.735 319.123C227.405 318.736 227.792 318.348 227.895 317.958C227.997 317.569 227.799 317.231 227.301 316.943C226.685 316.587 225.95 316.478 225.097 316.616L222.254 318.257C222.016 318.746 222.211 319.171 222.837 319.533C223.325 319.814 223.904 319.926 224.574 319.869C225.252 319.812 225.972 319.563 226.735 319.123ZM233.936 320.958C233.808 320.854 233.654 320.75 233.474 320.647C232.807 320.262 232.071 320.164 231.264 320.355L227.043 322.792L226.026 322.205L231.974 318.771L232.963 319.342L232.292 319.749C233.157 319.634 233.896 319.754 234.508 320.107C234.706 320.221 234.83 320.323 234.882 320.412L233.936 320.958ZM232.49 322.44C233.073 322.104 233.711 321.867 234.403 321.729C235.1 321.594 235.778 321.57 236.437 321.659C237.101 321.75 237.694 321.947 238.218 322.25C239.028 322.717 239.402 323.257 239.34 323.868C239.281 324.482 238.787 325.057 237.856 325.595L237.784 325.636C237.205 325.97 236.573 326.206 235.888 326.344C235.21 326.481 234.535 326.505 233.865 326.414C233.198 326.325 232.597 326.126 232.062 325.817C231.255 325.351 230.881 324.812 230.94 324.198C231.002 323.587 231.495 323.014 232.419 322.481L232.49 322.44ZM233.392 323.1C232.732 323.481 232.355 323.875 232.259 324.281C232.168 324.689 232.379 325.041 232.892 325.338C233.408 325.636 234.02 325.757 234.728 325.699C235.439 325.64 236.159 325.4 236.888 324.979C237.54 324.602 237.912 324.208 238.004 323.795C238.103 323.383 237.896 323.028 237.383 322.732C236.881 322.442 236.276 322.324 235.569 322.376C234.861 322.429 234.136 322.671 233.392 323.1ZM236.492 328.248L241.654 325.268L240.714 324.725L241.5 324.271L242.44 324.814L242.946 324.522C243.609 324.139 244.315 323.95 245.063 323.954C245.814 323.96 246.536 324.163 247.228 324.563C247.639 324.8 248.046 325.164 248.449 325.655L247.421 326.052C247.146 325.681 246.801 325.377 246.387 325.138C245.951 324.886 245.537 324.761 245.145 324.763C244.76 324.765 244.372 324.88 243.98 325.106L243.463 325.404L244.678 326.106L243.892 326.56L242.677 325.858L237.515 328.838L236.492 328.248ZM240.731 330.695L239.708 330.105L245.656 326.671L246.679 327.261L240.731 330.695ZM251.153 328.181L249.713 329.013L250.824 329.654L250.038 330.108L248.927 329.467L245.238 331.596C245 331.734 244.87 331.866 244.848 331.993C244.83 332.118 244.94 332.249 245.178 332.387C245.295 332.454 245.478 332.535 245.728 332.628L244.903 333.104C244.562 332.992 244.265 332.863 244.013 332.717C243.558 332.454 243.353 332.177 243.397 331.885C243.441 331.593 243.716 331.301 244.221 331.009L247.91 328.88L246.827 328.254L247.613 327.801L248.696 328.426L250.136 327.594L251.153 328.181ZM252.533 337.509C252.592 337.408 252.753 337.26 253.017 337.065C252.053 337.076 251.243 336.891 250.587 336.513C250.001 336.174 249.684 335.801 249.636 335.392C249.596 334.984 249.83 334.633 250.34 334.339C250.959 333.981 251.674 333.839 252.484 333.913C253.301 333.987 254.137 334.271 254.991 334.764L255.98 335.335L256.447 335.065C256.803 334.86 256.979 334.636 256.975 334.393C256.975 334.147 256.768 333.905 256.354 333.666C255.991 333.456 255.595 333.334 255.166 333.298C254.738 333.262 254.393 333.319 254.133 333.469L253.11 332.879C253.407 332.707 253.798 332.603 254.281 332.564C254.772 332.526 255.278 332.564 255.799 332.679C256.323 332.795 256.801 332.978 257.233 333.228C257.919 333.623 258.283 334.033 258.327 334.456C258.375 334.877 258.106 335.265 257.519 335.621L254.782 337.201C254.236 337.517 253.871 337.808 253.688 338.074L253.6 338.125L252.533 337.509ZM251.621 336.087C251.94 336.271 252.324 336.398 252.775 336.468C253.226 336.538 253.647 336.534 254.039 336.456L255.26 335.751L254.463 335.291C253.217 334.571 252.229 334.422 251.5 334.843C251.181 335.027 251.038 335.233 251.071 335.459C251.104 335.685 251.287 335.895 251.621 336.087ZM255.485 339.214L260.647 336.233L259.707 335.691L260.493 335.237L261.433 335.78L262.043 335.427C262.681 335.059 263.344 334.873 264.033 334.869C264.722 334.864 265.378 335.042 266.001 335.402C266.236 335.537 266.438 335.69 266.606 335.859L265.727 336.303C265.587 336.185 265.421 336.069 265.226 335.957C264.897 335.767 264.545 335.676 264.171 335.684C263.801 335.691 263.436 335.798 263.077 336.005L262.45 336.367L263.72 337.1L262.934 337.554L261.664 336.821L256.502 339.801L255.485 339.214ZM267.667 337.716L266.227 338.547L267.337 339.188L266.551 339.642L265.441 339.001L261.752 341.131C261.514 341.268 261.384 341.4 261.362 341.527C261.343 341.652 261.453 341.783 261.692 341.921C261.809 341.989 261.992 342.069 262.241 342.162L261.417 342.638C261.076 342.526 260.779 342.397 260.526 342.251C260.072 341.989 259.867 341.711 259.911 341.419C259.955 341.127 260.229 340.835 260.735 340.543L264.424 338.414L263.341 337.789L264.127 337.335L265.21 337.96L266.65 337.128L267.667 337.716ZM264.941 344.8C264.134 344.334 263.742 343.803 263.764 343.206C263.79 342.608 264.246 342.052 265.133 341.54L265.32 341.432C265.91 341.091 266.548 340.852 267.233 340.715C267.925 340.577 268.603 340.55 269.267 340.632C269.937 340.715 270.509 340.893 270.982 341.166C271.755 341.612 272.102 342.106 272.021 342.648C271.94 343.189 271.425 343.734 270.476 344.282L270.053 344.527L266.023 342.2C265.452 342.547 265.148 342.92 265.111 343.317C265.082 343.715 265.32 344.06 265.826 344.352C266.185 344.559 266.562 344.693 266.958 344.752C267.354 344.811 267.766 344.825 268.195 344.793L268.332 345.431C267.068 345.586 265.937 345.375 264.941 344.8ZM270.146 341.648C269.736 341.411 269.241 341.299 268.662 341.312C268.087 341.322 267.497 341.464 266.892 341.737L269.872 343.457L269.948 343.413C270.436 343.097 270.696 342.786 270.729 342.479C270.766 342.171 270.571 341.893 270.146 341.648ZM276.463 345.51C276.334 345.407 276.181 345.303 276.001 345.199C275.334 344.814 274.597 344.717 273.791 344.907L269.569 347.345L268.552 346.758L274.5 343.324L275.49 343.895L274.819 344.301C275.684 344.187 276.422 344.307 277.034 344.66C277.232 344.774 277.357 344.876 277.408 344.965L276.463 345.51ZM207.353 329.425L206.331 328.834L213.109 324.921L210.305 324.172L211.229 323.639L215.236 324.689L215.396 324.781L207.353 329.425ZM215.577 334.173L210.333 331.145L211.064 330.723L216.913 330.545C217.789 330.513 218.448 330.458 218.892 330.38C219.343 330.302 219.724 330.173 220.035 329.993C220.453 329.751 220.669 329.481 220.684 329.18C220.699 328.88 220.495 328.608 220.074 328.365C219.568 328.073 219.029 327.929 218.458 327.933C217.893 327.937 217.354 328.087 216.841 328.384L215.824 327.796C216.561 327.371 217.393 327.164 218.32 327.174C219.251 327.187 220.114 327.423 220.909 327.882C221.653 328.312 222.045 328.764 222.086 329.24C222.13 329.714 221.827 330.139 221.179 330.513C220.391 330.968 218.951 331.22 216.858 331.269L212.389 331.373L216.407 333.693L215.577 334.173ZM226.22 338.698L231.909 336.734L232.926 337.321L225.247 339.755L224.422 339.279L227.484 335.842L221.569 337.632L220.744 337.156L224.966 332.725L225.978 333.309L222.696 336.556L228.534 334.785L229.353 335.258L226.22 338.698ZM230.777 339.451C231.36 339.114 231.997 338.877 232.69 338.74C233.386 338.604 234.064 338.581 234.724 338.67C235.387 338.761 235.981 338.958 236.505 339.26C237.315 339.728 237.689 340.267 237.626 340.879C237.568 341.493 237.073 342.068 236.142 342.605L236.071 342.647C235.492 342.981 234.86 343.217 234.174 343.354C233.496 343.492 232.822 343.515 232.151 343.424C231.484 343.335 230.883 343.137 230.348 342.828C229.542 342.362 229.168 341.823 229.227 341.209C229.289 340.597 229.782 340.025 230.705 339.492L230.777 339.451ZM231.678 340.111C231.019 340.492 230.641 340.885 230.546 341.292C230.454 341.7 230.665 342.052 231.178 342.348C231.695 342.647 232.307 342.767 233.014 342.71C233.725 342.651 234.445 342.411 235.175 341.99C235.827 341.613 236.199 341.219 236.291 340.806C236.39 340.393 236.183 340.039 235.669 339.743C235.167 339.453 234.563 339.334 233.855 339.387C233.148 339.44 232.422 339.681 231.678 340.111ZM242.349 343.815C242.22 343.711 242.066 343.607 241.887 343.504C241.22 343.119 240.483 343.021 239.677 343.212L235.455 345.649L234.438 345.062L240.386 341.628L241.376 342.199L240.705 342.605C241.57 342.491 242.308 342.611 242.92 342.964C243.118 343.078 243.243 343.18 243.294 343.269L242.349 343.815ZM242.667 346.633L241.365 346.649L239.276 347.855L238.259 347.268L246.702 342.393L247.719 342.98L242.612 345.928L243.811 345.865L247.62 345.805L248.857 346.519L244.058 346.617L243.179 350.108L241.986 349.42L242.667 346.633ZM246.625 348.607C247.538 348.08 248.487 347.782 249.473 347.712C250.462 347.64 251.307 347.806 252.007 348.21C252.704 348.612 253.017 349.068 252.947 349.578L256.048 347.788L257.065 348.375L248.621 353.25L247.686 352.711L248.275 352.314C247.369 352.367 246.554 352.184 245.828 351.765C245.139 351.367 244.859 350.88 244.987 350.302C245.119 349.726 245.64 349.176 246.548 348.652L246.625 348.607ZM247.527 349.261C246.853 349.65 246.464 350.035 246.362 350.416C246.259 350.797 246.453 351.129 246.944 351.413C247.589 351.785 248.35 351.89 249.226 351.727L251.958 350.15C252.214 349.65 252.027 349.219 251.397 348.855C250.899 348.567 250.318 348.454 249.654 348.515C248.991 348.576 248.282 348.825 247.527 349.261ZM253.876 356.285C253.935 356.183 254.096 356.035 254.36 355.84C253.396 355.851 252.586 355.667 251.93 355.288C251.344 354.95 251.027 354.576 250.979 354.168C250.939 353.759 251.173 353.408 251.683 353.114C252.302 352.756 253.017 352.615 253.827 352.689C254.644 352.763 255.48 353.046 256.334 353.539L257.323 354.111L257.79 353.841C258.146 353.636 258.322 353.411 258.318 353.168C258.318 352.923 258.111 352.68 257.697 352.441C257.334 352.232 256.938 352.109 256.509 352.073C256.081 352.037 255.736 352.094 255.476 352.244L254.453 351.654C254.75 351.483 255.141 351.378 255.624 351.34C256.115 351.302 256.621 351.34 257.142 351.454C257.666 351.57 258.144 351.753 258.576 352.003C259.262 352.399 259.626 352.808 259.67 353.231C259.718 353.653 259.449 354.041 258.862 354.396L256.125 355.977C255.579 356.292 255.214 356.583 255.031 356.85L254.943 356.9L253.876 356.285ZM252.964 354.863C253.283 355.047 253.667 355.174 254.118 355.244C254.569 355.313 254.99 355.309 255.383 355.231L256.603 354.526L255.806 354.066C254.56 353.347 253.572 353.198 252.843 353.619C252.524 353.803 252.381 354.008 252.414 354.234C252.447 354.461 252.63 354.67 252.964 354.863ZM259.676 357.913L265.519 356.139L266.608 356.767L257.351 359.351C255.991 359.708 254.908 359.654 254.102 359.189L253.926 359.068L253.618 358.808L254.442 358.332L254.695 358.503C255.04 358.702 255.377 358.816 255.707 358.846C256.04 358.878 256.454 358.823 256.949 358.681L257.779 358.462L261.539 353.841L262.65 354.482L259.676 357.913ZM266.613 361.817C266.888 361.658 266.996 361.475 266.938 361.268C266.886 361.06 266.657 360.776 266.251 360.414C265.847 360.054 265.571 359.742 265.42 359.478C265.274 359.215 265.234 358.98 265.3 358.773C265.369 358.568 265.551 358.38 265.844 358.211C266.331 357.93 266.949 357.81 267.696 357.853C268.448 357.897 269.144 358.104 269.785 358.475C270.46 358.864 270.832 359.28 270.901 359.722C270.974 360.166 270.74 360.545 270.198 360.858L269.175 360.268C269.454 360.107 269.575 359.9 269.538 359.646C269.505 359.394 269.309 359.164 268.95 358.957C268.58 358.743 268.209 358.623 267.839 358.595C267.469 358.568 267.154 358.629 266.894 358.779C266.648 358.921 266.56 359.084 266.63 359.268C266.699 359.452 266.93 359.723 267.322 360.081C267.718 360.44 267.995 360.757 268.153 361.03C268.31 361.302 268.352 361.547 268.279 361.763C268.213 361.979 268.021 362.178 267.702 362.363C267.17 362.669 266.531 362.793 265.783 362.734C265.039 362.673 264.328 362.446 263.65 362.055C263.174 361.78 262.837 361.488 262.639 361.179C262.441 360.87 262.388 360.568 262.479 360.274C262.578 359.98 262.804 359.731 263.156 359.528L264.173 360.115C263.85 360.323 263.714 360.558 263.766 360.82C263.824 361.082 264.063 361.334 264.48 361.575C264.865 361.798 265.25 361.931 265.635 361.975C266.027 362.02 266.353 361.967 266.613 361.817Z" fill="#4F4F4F"/>
<path d="M356.1 287.013C356.728 286.609 357.04 286.193 357.036 285.764C357.047 285.334 356.768 284.791 356.199 284.134C355.631 283.477 355.18 282.885 354.846 282.358C354.521 281.826 354.326 281.313 354.263 280.818C354.216 280.323 354.335 279.834 354.62 279.35C354.913 278.871 355.435 278.39 356.187 277.907C357.482 277.074 358.982 276.617 360.685 276.535C362.388 276.454 364.033 276.743 365.622 277.402L368.083 275.819L370.027 276.822L367.532 278.426C368.774 279.288 369.329 280.231 369.196 281.255C369.071 282.274 368.26 283.264 366.765 284.225L363.253 282.415C364.173 281.823 364.657 281.278 364.704 280.778C364.767 280.278 364.463 279.854 363.79 279.508C363.126 279.165 362.431 279.016 361.706 279.06C360.989 279.099 360.316 279.32 359.687 279.724C359.104 280.099 358.815 280.491 358.819 280.902C358.823 281.312 359.123 281.884 359.719 282.618C360.323 283.355 360.772 283.991 361.066 284.524C361.368 285.053 361.527 285.561 361.542 286.048C361.565 286.531 361.425 287.001 361.123 287.458C360.829 287.91 360.333 288.36 359.635 288.808C358.331 289.646 356.844 290.105 355.173 290.185C353.501 290.265 351.839 289.963 350.186 289.28L347.898 290.751L345.965 289.755L348.243 288.292C346.75 287.327 346.018 286.306 346.046 285.228C346.089 284.149 346.896 283.104 348.468 282.094L351.98 283.904C351.068 284.491 350.593 285.059 350.556 285.608C350.535 286.156 350.954 286.652 351.813 287.095C352.526 287.462 353.265 287.639 354.031 287.625C354.804 287.606 355.494 287.402 356.1 287.013ZM369.717 299.133L357.589 292.882L359.866 291.419L371.363 290.657C372.962 290.54 374.251 290.383 375.229 290.185C376.215 289.992 376.981 289.721 377.525 289.371C378.269 288.893 378.653 288.416 378.678 287.94C378.71 287.46 378.358 287.029 377.621 286.649C376.827 286.24 375.938 286.084 374.955 286.181C373.987 286.278 373.082 286.597 372.239 287.139L368.714 285.323C369.734 284.667 370.921 284.2 372.275 283.921C373.637 283.646 375.025 283.598 376.44 283.777C377.863 283.95 379.17 284.344 380.361 284.958C382.184 285.898 383.184 286.892 383.36 287.943C383.545 288.997 382.882 290.009 381.372 290.98C380.544 291.513 379.473 291.938 378.161 292.256C376.848 292.574 375.07 292.816 372.826 292.983L364.79 293.49L372.397 297.411L369.717 299.133ZM395.708 298.289C394.895 298.812 393.96 299.164 392.902 299.347C391.844 299.53 390.75 299.548 389.621 299.401C390.089 300.095 390.229 300.793 390.041 301.496C389.861 302.193 389.307 302.84 388.379 303.437C386.892 304.393 385.18 304.874 383.244 304.879C381.316 304.88 379.432 304.407 377.593 303.459C375.754 302.511 374.729 301.481 374.518 300.369C374.307 299.256 374.941 298.225 376.421 297.273C377.349 296.677 378.409 296.286 379.601 296.102C380.793 295.917 382.007 295.921 383.241 296.113C382.863 295.483 382.774 294.855 382.973 294.23C383.18 293.609 383.69 293.037 384.503 292.514C385.929 291.598 387.566 291.127 389.414 291.103C391.27 291.073 393.061 291.503 394.786 292.393C396.504 293.278 397.443 294.251 397.604 295.311C397.782 296.37 397.149 297.363 395.708 298.289ZM385.096 301.465C385.825 300.997 386.185 300.507 386.176 299.997C386.167 299.486 385.786 299.037 385.033 298.648C384.288 298.264 383.474 298.098 382.591 298.149C381.716 298.195 380.911 298.455 380.175 298.928C379.461 299.387 379.105 299.869 379.106 300.375C379.106 300.882 379.495 301.335 380.273 301.736C381.035 302.129 381.841 302.3 382.692 302.25C383.551 302.205 384.353 301.943 385.096 301.465ZM392.035 296.583C392.686 296.164 393.026 295.735 393.052 295.295C393.086 294.851 392.771 294.458 392.107 294.115C391.45 293.777 390.748 293.637 390 293.696C389.252 293.754 388.541 294.001 387.866 294.434C387.199 294.863 386.845 295.302 386.803 295.751C386.761 296.2 387.073 296.596 387.737 296.938C388.401 297.281 389.115 297.413 389.878 297.336C390.649 297.262 391.368 297.011 392.035 296.583Z" fill="#FFB560"/>
<path opacity="0.95" d="M335.286 298.817C334.406 299.382 333.485 299.728 332.523 299.855C331.56 299.981 330.716 299.857 329.99 299.483C329.249 299.101 328.888 298.658 328.908 298.153L326.126 299.941L325.083 299.403L333.081 294.261L334.035 294.753L333.445 295.191C334.368 295.089 335.208 295.234 335.964 295.623C336.698 296.001 337.015 296.468 336.917 297.024C336.823 297.581 336.309 298.159 335.376 298.759L335.286 298.817ZM334.354 298.207C335.005 297.788 335.373 297.382 335.457 296.988C335.541 296.595 335.327 296.266 334.816 296.002C334.184 295.677 333.444 295.603 332.598 295.781L329.837 297.555C329.623 298.055 329.837 298.471 330.48 298.802C330.981 299.06 331.564 299.144 332.232 299.055C332.906 298.966 333.614 298.683 334.354 298.207ZM341.635 299.696C341.502 299.599 341.343 299.502 341.159 299.407C340.474 299.055 339.733 298.993 338.937 299.221L334.836 301.857L333.793 301.319L339.57 297.605L340.586 298.129L339.935 298.567C340.794 298.411 341.537 298.496 342.165 298.819C342.368 298.924 342.498 299.019 342.553 299.106L341.635 299.696ZM340.261 301.246C340.827 300.882 341.453 300.615 342.138 300.444C342.827 300.276 343.503 300.22 344.166 300.277C344.833 300.337 345.436 300.505 345.974 300.782C346.805 301.211 347.204 301.732 347.171 302.346C347.142 302.961 346.675 303.56 345.771 304.141L345.701 304.186C345.139 304.547 344.519 304.813 343.841 304.983C343.17 305.153 342.498 305.208 341.823 305.149C341.153 305.092 340.543 304.922 339.994 304.639C339.166 304.213 338.767 303.692 338.797 303.076C338.83 302.462 339.295 301.867 340.192 301.29L340.261 301.246ZM341.193 301.862C340.552 302.274 340.194 302.685 340.118 303.095C340.046 303.508 340.274 303.849 340.8 304.121C341.331 304.394 341.948 304.486 342.651 304.395C343.359 304.302 344.067 304.027 344.775 303.572C345.409 303.165 345.761 302.753 345.833 302.336C345.912 301.919 345.689 301.575 345.162 301.304C344.647 301.038 344.037 300.949 343.333 301.035C342.629 301.122 341.916 301.397 341.193 301.862ZM344.536 306.856L349.549 303.633L348.585 303.136L349.348 302.645L350.313 303.142L350.804 302.827C351.449 302.412 352.144 302.19 352.891 302.158C353.642 302.129 354.373 302.297 355.084 302.664C355.505 302.881 355.929 303.225 356.355 303.696L355.347 304.141C355.055 303.784 354.696 303.497 354.271 303.278C353.823 303.047 353.404 302.942 353.012 302.963C352.628 302.983 352.245 303.116 351.864 303.361L351.363 303.683L352.609 304.326L351.846 304.817L350.599 304.174L345.585 307.397L344.536 306.856ZM348.886 309.098L347.836 308.557L353.614 304.844L354.663 305.384L348.886 309.098ZM359.177 306.09L357.778 306.99L358.918 307.577L358.154 308.068L357.014 307.481L353.431 309.784C353.2 309.932 353.076 310.071 353.06 310.199C353.048 310.324 353.164 310.45 353.409 310.576C353.529 310.638 353.716 310.71 353.969 310.791L353.168 311.306C352.823 311.21 352.52 311.095 352.26 310.961C351.794 310.721 351.576 310.454 351.606 310.16C351.636 309.866 351.896 309.561 352.388 309.246L355.97 306.943L354.859 306.37L355.623 305.879L356.734 306.452L358.133 305.552L359.177 306.09ZM361 315.342C361.054 315.238 361.208 315.082 361.462 314.875C360.5 314.932 359.682 314.786 359.009 314.439C358.407 314.129 358.072 313.771 358.005 313.366C357.946 312.96 358.163 312.598 358.658 312.279C359.259 311.893 359.967 311.717 360.779 311.752C361.599 311.787 362.447 312.031 363.323 312.482L364.339 313.006L364.793 312.714C365.138 312.492 365.303 312.26 365.288 312.017C365.276 311.772 365.058 311.54 364.633 311.321C364.26 311.129 363.859 311.025 363.429 311.009C362.999 310.994 362.658 311.067 362.405 311.23L361.356 310.689C361.644 310.504 362.029 310.38 362.51 310.319C362.999 310.258 363.506 310.272 364.031 310.361C364.56 310.452 365.047 310.612 365.491 310.841C366.194 311.204 366.578 311.595 366.642 312.016C366.709 312.434 366.459 312.835 365.89 313.218L363.231 314.927C362.701 315.268 362.35 315.576 362.18 315.851L362.095 315.906L361 315.342ZM360.021 313.965C360.348 314.134 360.738 314.242 361.192 314.291C361.645 314.339 362.066 314.314 362.454 314.218L363.64 313.456L362.821 313.034C361.543 312.375 360.549 312.273 359.841 312.728C359.531 312.927 359.398 313.139 359.442 313.364C359.485 313.588 359.678 313.789 360.021 313.965ZM364.03 316.904L369.044 313.68L368.079 313.183L368.843 312.692L369.807 313.19L370.4 312.809C371.019 312.411 371.673 312.193 372.361 312.156C373.049 312.119 373.713 312.265 374.352 312.595C374.593 312.719 374.802 312.861 374.978 313.022L374.121 313.508C373.976 313.396 373.804 313.289 373.605 313.186C373.266 313.012 372.91 312.938 372.537 312.964C372.168 312.988 371.809 313.112 371.46 313.336L370.851 313.728L372.155 314.399L371.391 314.89L370.088 314.218L365.074 317.442L364.03 316.904ZM376.126 314.826L374.727 315.725L375.867 316.313L375.104 316.804L373.964 316.216L370.381 318.519C370.15 318.668 370.026 318.806 370.01 318.934C369.998 319.06 370.114 319.186 370.358 319.312C370.479 319.374 370.666 319.445 370.919 319.526L370.118 320.041C369.772 319.946 369.47 319.831 369.21 319.697C368.744 319.457 368.525 319.19 368.555 318.896C368.585 318.602 368.846 318.297 369.337 317.981L372.92 315.678L371.809 315.105L372.572 314.615L373.684 315.187L375.083 314.288L376.126 314.826ZM373.741 322.032C372.913 321.606 372.496 321.094 372.49 320.497C372.487 319.897 372.916 319.321 373.778 318.767L373.959 318.65C374.532 318.282 375.158 318.013 375.836 317.843C376.521 317.672 377.197 317.613 377.863 317.663C378.537 317.714 379.117 317.864 379.602 318.114C380.396 318.523 380.765 319 380.711 319.545C380.656 320.09 380.167 320.659 379.246 321.251L378.834 321.516L374.699 319.384C374.144 319.758 373.858 320.144 373.84 320.544C373.83 320.942 374.084 321.275 374.603 321.543C374.972 321.733 375.356 321.848 375.754 321.888C376.152 321.929 376.564 321.923 376.991 321.871L377.159 322.501C375.903 322.716 374.764 322.559 373.741 322.032ZM378.79 318.636C378.369 318.419 377.87 318.33 377.292 318.371C376.718 318.409 376.135 318.578 375.544 318.88L378.602 320.456L378.677 320.408C379.149 320.07 379.394 319.747 379.412 319.439C379.434 319.128 379.227 318.861 378.79 318.636ZM385.284 322.193C385.151 322.095 384.992 321.999 384.808 321.904C384.123 321.551 383.383 321.489 382.586 321.718L378.486 324.354L377.442 323.816L383.219 320.102L384.235 320.626L383.584 321.063C384.443 320.908 385.186 320.992 385.814 321.316C386.017 321.421 386.147 321.516 386.202 321.602L385.284 322.193ZM315.486 309.421L314.436 308.88L321.02 304.648L318.184 304.034L319.081 303.457L323.134 304.315L323.298 304.4L315.486 309.421ZM328.277 309.322L327.664 309.748C328.61 309.659 329.463 309.81 330.223 310.201C331.077 310.641 331.348 311.14 331.037 311.697C331.518 311.623 332.006 311.615 332.5 311.672C332.998 311.731 333.469 311.874 333.913 312.103C335.252 312.793 335.262 313.576 333.942 314.45L330.071 316.938L329.027 316.4L332.84 313.95C333.253 313.684 333.461 313.435 333.465 313.202C333.472 312.966 333.24 312.727 332.77 312.485C332.382 312.285 331.951 312.191 331.474 312.201C331.001 312.208 330.559 312.321 330.147 312.537L326.313 315.002L325.264 314.461L329.05 312.027C329.89 311.487 329.875 310.993 329.006 310.545C328.322 310.193 327.578 310.129 326.774 310.353L322.556 313.065L321.512 312.527L327.289 308.813L328.277 309.322ZM334.317 315.719C334.883 315.355 335.508 315.088 336.194 314.918C336.883 314.749 337.559 314.693 338.222 314.751C338.889 314.81 339.491 314.978 340.029 315.256C340.861 315.684 341.26 316.205 341.227 316.819C341.197 317.435 340.731 318.033 339.826 318.614L339.757 318.659C339.194 319.02 338.574 319.286 337.896 319.456C337.226 319.626 336.553 319.681 335.879 319.622C335.208 319.566 334.599 319.396 334.049 319.112C333.222 318.686 332.823 318.165 332.852 317.549C332.885 316.935 333.35 316.34 334.247 315.764L334.317 315.719ZM335.249 316.335C334.608 316.747 334.25 317.158 334.174 317.569C334.102 317.981 334.329 318.323 334.856 318.594C335.386 318.868 336.003 318.959 336.707 318.868C337.414 318.775 338.122 318.501 338.831 318.045C339.464 317.638 339.817 317.226 339.889 316.81C339.968 316.393 339.744 316.049 339.218 315.777C338.702 315.512 338.093 315.422 337.389 315.509C336.685 315.595 335.971 315.871 335.249 316.335ZM345.006 317.944L344.314 318.429C345.336 318.312 346.223 318.448 346.975 318.835C348.265 319.5 348.227 320.278 346.861 321.17L343.043 323.624L341.999 323.086L345.822 320.628C346.235 320.359 346.441 320.108 346.441 319.878C346.445 319.649 346.238 319.427 345.821 319.211C345.482 319.037 345.1 318.939 344.673 318.917C344.246 318.895 343.823 318.936 343.402 319.041L339.285 321.687L338.241 321.149L344.019 317.435L345.006 317.944ZM353.21 320.552L351.811 321.451L352.951 322.039L352.187 322.53L351.047 321.942L347.464 324.245C347.233 324.394 347.109 324.532 347.093 324.66C347.081 324.786 347.197 324.912 347.442 325.038C347.562 325.1 347.749 325.171 348.002 325.252L347.201 325.767C346.856 325.671 346.553 325.557 346.293 325.423C345.827 325.183 345.609 324.915 345.639 324.622C345.669 324.328 345.929 324.023 346.421 323.707L350.003 321.404L348.892 320.831L349.655 320.341L350.767 320.913L352.166 320.014L353.21 320.552ZM354.519 323.658C355.52 323.55 356.39 323.688 357.131 324.07C358.421 324.735 358.383 325.513 357.017 326.404L353.199 328.858L352.155 328.32L355.978 325.863C356.391 325.593 356.598 325.343 356.598 325.112C356.601 324.883 356.394 324.661 355.977 324.446C355.638 324.271 355.256 324.173 354.829 324.151C354.402 324.129 353.979 324.171 353.558 324.275L349.441 326.922L348.398 326.384L356.599 321.112L357.643 321.65L354.519 323.658Z" fill="#4F4F4F"/>
<path d="M412.907 208.047C413.532 207.638 413.841 207.219 413.833 206.79C413.841 206.361 413.558 205.82 412.985 205.167C412.411 204.514 411.955 203.925 411.618 203.401C411.288 202.871 411.09 202.36 411.023 201.866C410.972 201.371 411.087 200.881 411.369 200.395C411.658 199.914 412.177 199.429 412.924 198.94C414.214 198.097 415.71 197.629 417.412 197.534C419.115 197.44 420.762 197.716 422.356 198.363L424.805 196.762L426.757 197.75L424.273 199.373C425.522 200.226 426.084 201.165 425.959 202.189C425.841 203.209 425.039 204.205 423.551 205.178L420.025 203.394C420.941 202.796 421.42 202.247 421.464 201.747C421.523 201.246 421.215 200.825 420.54 200.483C419.873 200.146 419.177 200.002 418.453 200.051C417.736 200.095 417.064 200.322 416.439 200.731C415.859 201.11 415.572 201.504 415.579 201.915C415.586 202.325 415.891 202.895 416.492 203.624C417.102 204.357 417.556 204.989 417.854 205.52C418.16 206.046 418.322 206.553 418.341 207.041C418.368 207.523 418.232 207.994 417.933 208.453C417.642 208.907 417.15 209.361 416.455 209.815C415.158 210.663 413.674 211.133 412.004 211.225C410.333 211.318 408.668 211.029 407.011 210.358L404.733 211.847L402.793 210.866L405.059 209.385C403.56 208.431 402.82 207.416 402.839 206.338C402.874 205.258 403.674 204.208 405.238 203.185L408.764 204.969C407.856 205.562 407.386 206.134 407.353 206.683C407.336 207.232 407.758 207.724 408.62 208.161C409.336 208.523 410.077 208.694 410.843 208.674C411.616 208.65 412.304 208.44 412.907 208.047ZM441.327 210.335L419.65 216.539L415.929 214.657L436.795 208.998L427.962 204.53L430.64 202.779L443.181 209.123L441.327 210.335ZM455.187 214.997L452.463 216.777L452.121 216.605C450.504 215.813 448.83 215.417 447.099 215.417C445.376 215.422 443.745 215.813 442.207 216.592C444.051 216.481 445.693 216.789 447.132 217.517C448.677 218.299 449.387 219.259 449.26 220.398C449.133 221.537 448.223 222.66 446.529 223.767C445.446 224.475 444.213 224.989 442.832 225.307C441.458 225.629 440.068 225.718 438.66 225.572C437.261 225.43 435.984 225.068 434.829 224.483C432.959 223.537 432.056 222.373 432.122 220.991C432.196 219.613 433.252 218.258 435.289 216.927L436.479 216.149C438.287 214.967 440.244 214.108 442.348 213.572C444.469 213.034 446.586 212.862 448.7 213.056C450.829 213.248 452.796 213.797 454.601 214.701L455.187 214.997ZM443.403 218.71C442.834 218.422 442.177 218.253 441.431 218.203C440.692 218.148 439.985 218.214 439.307 218.402L438.3 219.061C437.194 219.784 436.56 220.467 436.398 221.11C436.243 221.749 436.585 222.28 437.423 222.703C438.179 223.086 439.067 223.213 440.088 223.083C441.124 222.953 442.089 222.596 442.982 222.012C443.889 221.419 444.386 220.821 444.471 220.218C444.556 219.616 444.201 219.113 443.403 218.71ZM455.31 234.578L443.134 228.419L445.4 226.938L456.892 226.09C458.489 225.96 459.777 225.793 460.753 225.589C461.738 225.388 462.502 225.111 463.043 224.757C463.784 224.273 464.164 223.793 464.185 223.317C464.214 222.837 463.858 222.409 463.118 222.035C462.321 221.631 461.431 221.482 460.449 221.587C459.482 221.69 458.579 222.016 457.74 222.565L454.202 220.775C455.217 220.112 456.4 219.636 457.752 219.346C459.111 219.061 460.5 219.003 461.916 219.171C463.34 219.334 464.65 219.718 465.846 220.323C467.676 221.248 468.683 222.235 468.867 223.284C469.06 224.337 468.405 225.355 466.902 226.337C466.078 226.875 465.011 227.309 463.701 227.637C462.391 227.965 460.614 228.221 458.372 228.404L450.339 228.972L457.976 232.835L455.31 234.578Z" fill="#00ACC1"/>
<path opacity="0.95" d="M393.618 220.552C392.743 221.124 391.824 221.477 390.863 221.611C389.901 221.744 389.056 221.627 388.327 221.258C387.583 220.882 387.219 220.441 387.235 219.936L384.467 221.745L383.419 221.215L391.379 216.013L392.336 216.497L391.749 216.94C392.672 216.831 393.513 216.969 394.272 217.353C395.008 217.726 395.329 218.19 395.235 218.746C395.145 219.304 394.636 219.887 393.708 220.493L393.618 220.552ZM392.681 219.949C393.329 219.526 393.694 219.116 393.775 218.722C393.856 218.328 393.64 218.001 393.126 217.741C392.492 217.42 391.752 217.352 390.907 217.536L388.16 219.332C387.949 219.833 388.167 220.247 388.812 220.573C389.314 220.827 389.899 220.907 390.565 220.813C391.239 220.719 391.944 220.431 392.681 219.949ZM399.973 221.383C399.839 221.286 399.68 221.191 399.495 221.098C398.807 220.75 398.067 220.694 397.272 220.928L393.191 223.596L392.143 223.065L397.893 219.308L398.912 219.824L398.265 220.266C399.122 220.104 399.866 220.183 400.497 220.502C400.701 220.605 400.831 220.7 400.887 220.786L399.973 221.383ZM398.611 222.943C399.175 222.575 399.798 222.303 400.482 222.127C401.17 221.953 401.846 221.893 402.509 221.945C403.176 221.999 403.78 222.163 404.32 222.436C405.155 222.858 405.558 223.376 405.529 223.99C405.505 224.606 405.042 225.208 404.143 225.796L404.074 225.841C403.514 226.207 402.896 226.478 402.219 226.653C401.55 226.828 400.878 226.888 400.203 226.834C399.532 226.782 398.921 226.617 398.37 226.338C397.539 225.918 397.136 225.4 397.161 224.784C397.189 224.17 397.65 223.571 398.542 222.988L398.611 222.943ZM399.548 223.552C398.91 223.969 398.555 224.383 398.482 224.793C398.414 225.206 398.643 225.546 399.172 225.814C399.705 226.083 400.322 226.17 401.025 226.074C401.732 225.975 402.438 225.696 403.143 225.235C403.773 224.823 404.123 224.408 404.191 223.991C404.267 223.574 404.041 223.231 403.512 222.964C402.995 222.702 402.385 222.617 401.682 222.709C400.978 222.801 400.267 223.082 399.548 223.552ZM402.928 228.521L407.917 225.26L406.949 224.77L407.709 224.273L408.677 224.763L409.166 224.444C409.807 224.025 410.501 223.797 411.248 223.76C411.998 223.724 412.731 223.887 413.444 224.248C413.867 224.462 414.293 224.803 414.723 225.271L413.719 225.724C413.424 225.369 413.063 225.084 412.636 224.868C412.187 224.641 411.766 224.539 411.375 224.563C410.991 224.587 410.609 224.722 410.23 224.97L409.731 225.296L410.983 225.929L410.223 226.426L408.971 225.793L403.982 229.054L402.928 228.521ZM407.295 230.73L406.242 230.197L411.991 226.439L413.044 226.972L407.295 230.73ZM417.563 227.644L416.171 228.554L417.315 229.133L416.555 229.629L415.411 229.051L411.846 231.381C411.616 231.531 411.493 231.671 411.478 231.798C411.467 231.924 411.584 232.049 411.829 232.173C411.95 232.234 412.137 232.304 412.391 232.384L411.594 232.905C411.248 232.811 410.944 232.699 410.684 232.567C410.216 232.33 409.995 232.065 410.023 231.771C410.051 231.477 410.309 231.17 410.798 230.851L414.363 228.521L413.247 227.956L414.007 227.459L415.123 228.024L416.515 227.114L417.563 227.644ZM419.456 236.882C419.509 236.777 419.662 236.62 419.915 236.411C418.953 236.475 418.134 236.336 417.458 235.994C416.854 235.688 416.517 235.333 416.447 234.928C416.384 234.522 416.599 234.159 417.091 233.837C417.69 233.446 418.395 233.265 419.208 233.294C420.028 233.323 420.878 233.559 421.758 234.005L422.778 234.52L423.229 234.225C423.573 234.001 423.736 233.767 423.719 233.524C423.705 233.279 423.485 233.049 423.059 232.833C422.685 232.644 422.283 232.543 421.853 232.531C421.423 232.519 421.082 232.595 420.83 232.759L419.777 232.226C420.064 232.039 420.448 231.912 420.928 231.848C421.417 231.782 421.924 231.793 422.45 231.878C422.979 231.965 423.467 232.121 423.913 232.347C424.619 232.704 425.006 233.093 425.073 233.513C425.144 233.931 424.896 234.333 424.33 234.72L421.684 236.45C421.156 236.795 420.808 237.105 420.64 237.382L420.555 237.437L419.456 236.882ZM418.467 235.512C418.795 235.678 419.186 235.784 419.64 235.829C420.094 235.874 420.515 235.846 420.902 235.746L422.082 234.975L421.26 234.56C419.976 233.91 418.982 233.816 418.277 234.277C417.969 234.478 417.838 234.691 417.883 234.915C417.928 235.139 418.123 235.338 418.467 235.512ZM422.498 238.42L427.487 235.159L426.519 234.669L427.279 234.173L428.247 234.663L428.837 234.277C429.453 233.874 430.105 233.652 430.793 233.609C431.481 233.567 432.146 233.708 432.787 234.033C433.029 234.155 433.239 234.296 433.416 234.456L432.563 234.948C432.417 234.838 432.244 234.732 432.044 234.63C431.704 234.459 431.348 234.387 430.975 234.416C430.606 234.443 430.248 234.57 429.901 234.797L429.295 235.193L430.603 235.855L429.844 236.351L428.535 235.689L423.546 238.95L422.498 238.42ZM434.578 236.251L433.186 237.161L434.33 237.74L433.571 238.236L432.426 237.658L428.861 239.988C428.631 240.138 428.508 240.278 428.493 240.406C428.482 240.531 428.599 240.656 428.844 240.78C428.965 240.841 429.153 240.912 429.407 240.991L428.61 241.512C428.263 241.419 427.96 241.306 427.699 241.174C427.231 240.937 427.011 240.672 427.038 240.378C427.066 240.084 427.324 239.777 427.813 239.458L431.379 237.128L430.263 236.563L431.023 236.067L432.138 236.631L433.531 235.721L434.578 236.251ZM432.247 243.475C431.417 243.055 430.996 242.546 430.985 241.949C430.977 241.35 431.402 240.77 432.259 240.21L432.44 240.092C433.01 239.719 433.634 239.445 434.311 239.27C434.995 239.094 435.67 239.029 436.337 239.075C437.011 239.12 437.592 239.266 438.079 239.513C438.876 239.916 439.249 240.39 439.198 240.935C439.148 241.481 438.664 242.053 437.746 242.653L437.337 242.92L433.185 240.82C432.633 241.198 432.35 241.587 432.336 241.986C432.328 242.385 432.585 242.716 433.106 242.979C433.476 243.167 433.861 243.279 434.259 243.316C434.658 243.353 435.07 243.344 435.496 243.289L435.669 243.918C434.415 244.142 433.275 243.995 432.247 243.475ZM437.271 240.041C436.848 239.827 436.348 239.742 435.771 239.787C435.197 239.829 434.615 240.003 434.027 240.309L437.097 241.862L437.171 241.813C437.64 241.472 437.883 241.147 437.899 240.839C437.918 240.528 437.709 240.262 437.271 240.041ZM443.791 243.548C443.657 243.452 443.498 243.357 443.313 243.263C442.626 242.916 441.885 242.859 441.09 243.094L437.01 245.761L435.962 245.231L441.711 241.473L442.731 241.989L442.083 242.432C442.941 242.27 443.685 242.348 444.315 242.667C444.519 242.77 444.649 242.865 444.705 242.951L443.791 243.548ZM373.899 231.306L372.845 230.773L379.396 226.491L376.556 225.898L377.448 225.314L381.508 226.142L381.672 226.225L373.899 231.306ZM383.399 234.442L389.135 232.347L390.257 232.915L381.156 236.006C379.818 236.438 378.734 236.444 377.903 236.024L377.721 235.913L377.399 235.67L378.196 235.149L378.458 235.306C378.813 235.486 379.156 235.581 379.487 235.593C379.822 235.606 380.232 235.528 380.719 235.359L381.535 235.095L385.034 230.273L386.179 230.852L383.399 234.442ZM387.806 238.464C386.975 238.043 386.554 237.535 386.543 236.938C386.535 236.339 386.96 235.759 387.817 235.199L387.998 235.08C388.568 234.708 389.192 234.434 389.869 234.259C390.553 234.083 391.228 234.018 391.895 234.064C392.569 234.109 393.15 234.255 393.637 234.501C394.434 234.904 394.807 235.379 394.756 235.924C394.706 236.469 394.222 237.042 393.304 237.641L392.895 237.909L388.743 235.808C388.192 236.187 387.908 236.575 387.894 236.974C387.886 237.373 388.143 237.704 388.664 237.968C389.035 238.155 389.419 238.267 389.817 238.305C390.216 238.342 390.628 238.333 391.055 238.278L391.227 238.907C389.973 239.131 388.833 238.983 387.806 238.464ZM392.829 235.029C392.406 234.815 391.906 234.731 391.329 234.775C390.755 234.818 390.173 234.992 389.585 235.298L392.655 236.851L392.729 236.802C393.198 236.46 393.441 236.135 393.457 235.827C393.477 235.517 393.267 235.251 392.829 235.029ZM395.304 242.133C395.356 242.029 395.509 241.872 395.762 241.663C394.8 241.727 393.981 241.588 393.305 241.246C392.701 240.94 392.364 240.585 392.294 240.18C392.231 239.774 392.446 239.411 392.938 239.089C393.537 238.697 394.243 238.516 395.055 238.546C395.876 238.574 396.726 238.811 397.605 239.256L398.625 239.772L399.077 239.477C399.42 239.252 399.583 239.019 399.566 238.776C399.553 238.531 399.333 238.3 398.906 238.085C398.532 237.895 398.13 237.795 397.7 237.783C397.27 237.77 396.929 237.846 396.678 238.011L395.624 237.478C395.911 237.29 396.295 237.164 396.776 237.099C397.264 237.034 397.771 237.044 398.297 237.13C398.827 237.217 399.314 237.373 399.76 237.599C400.466 237.956 400.853 238.345 400.92 238.765C400.991 239.182 400.743 239.585 400.178 239.972L397.531 241.702C397.004 242.047 396.656 242.357 396.487 242.634L396.402 242.689L395.304 242.133ZM394.314 240.764C394.642 240.93 395.034 241.036 395.488 241.081C395.941 241.125 396.362 241.098 396.749 240.998L397.929 240.227L397.108 239.812C395.824 239.162 394.829 239.068 394.124 239.529C393.816 239.73 393.685 239.943 393.73 240.167C393.776 240.391 393.97 240.59 394.314 240.764ZM405.659 241.729C405.526 241.632 405.366 241.537 405.181 241.444C404.494 241.096 403.753 241.04 402.958 241.274L398.878 243.941L397.83 243.411L403.579 239.654L404.599 240.169L403.951 240.612C404.809 240.45 405.553 240.529 406.183 240.848C406.387 240.951 406.517 241.045 406.573 241.131L405.659 241.729Z" fill="#4F4F4F"/>
<defs>
<linearGradient id="paint0_linear" x1="177.963" y1="117.681" x2="100.583" y2="180.552" gradientUnits="userSpaceOnUse">
<stop stop-color="white"/>
<stop offset="1" stop-color="white" stop-opacity="0"/>
</linearGradient>
<linearGradient id="paint1_linear" x1="100.583" y1="77.3797" x2="255.342" y2="77.3797" gradientUnits="userSpaceOnUse">
<stop stop-color="white"/>
<stop offset="1" stop-color="white" stop-opacity="0"/>
</linearGradient>
<linearGradient id="paint2_linear" x1="100.584" y1="173.297" x2="68.3423" y2="198.284" gradientUnits="userSpaceOnUse">
<stop stop-color="white"/>
<stop offset="1" stop-color="white" stop-opacity="0"/>
</linearGradient>
<linearGradient id="paint3_linear" x1="68.3421" y1="157.983" x2="132.825" y2="157.983" gradientUnits="userSpaceOnUse">
<stop stop-color="white"/>
<stop offset="1" stop-color="white" stop-opacity="0"/>
</linearGradient>
<linearGradient id="paint4_linear" x1="139.274" y1="78.9911" x2="107.032" y2="153.791" gradientUnits="userSpaceOnUse">
<stop stop-color="white"/>
<stop offset="1" stop-color="white" stop-opacity="0"/>
</linearGradient>
<linearGradient id="paint5_linear" x1="107.032" y1="207.957" x2="171.515" y2="207.957" gradientUnits="userSpaceOnUse">
<stop stop-color="white"/>
<stop offset="1" stop-color="white" stop-opacity="0"/>
</linearGradient>
</defs>
</svg>
