<svg width="120" height="155" viewBox="0 0 120 155" fill="none" xmlns="http://www.w3.org/2000/svg">
<path d="M58.6407 65.5075C59.0581 65.3013 59.5475 65.3005 59.9655 65.5055L116.103 93.0302C117.225 93.5801 117.222 95.1796 116.099 95.7259L60.4279 122.805C60.0092 123.009 59.5198 123.007 59.1031 122.799L3.83225 95.2744C2.72188 94.7214 2.72435 93.1364 3.83644 92.5869L58.6407 65.5075Z" stroke="#E0E7F0"/>
<path d="M35.3745 24.1572L59.722 36.3309V107.43L35.3745 95.2562V24.1572Z" fill="#D8E0F9"/>
<path d="M35.3745 24.1572L59.722 36.3309V107.43L35.3745 95.2562V24.1572Z" fill="url(#paint0_linear)" fill-opacity="0.4"/>
<path d="M84.0688 24.1572L59.7214 36.3309V107.43L84.0688 95.2562V24.1572Z" fill="#B8C5E5"/>
<path d="M59.5359 12.3639L84.1668 24.4407L59.7224 36.3309L35.4719 24.2542L59.5359 12.3639Z" fill="#C9D4F0"/>
<path d="M59.5359 12.3639L84.1668 24.4407L59.7224 36.3309L35.4719 24.2542L59.5359 12.3639Z" fill="url(#paint1_linear)" fill-opacity="0.8"/>
<defs>
<linearGradient id="paint0_linear" x1="59.7706" y1="36.5941" x2="35.3745" y2="96.3644" gradientUnits="userSpaceOnUse">
<stop stop-color="white"/>
<stop offset="1" stop-color="white" stop-opacity="0"/>
</linearGradient>
<linearGradient id="paint1_linear" x1="35.3747" y1="24.396" x2="84.1667" y2="24.396" gradientUnits="userSpaceOnUse">
<stop stop-color="white"/>
<stop offset="1" stop-color="white" stop-opacity="0"/>
</linearGradient>
</defs>
</svg>
