<svg width="352" height="700" viewBox="0 0 352 700" fill="none" xmlns="http://www.w3.org/2000/svg">
<g filter="url(#filter0_ii)">
<rect x="2.65137" width="346.552" height="700" rx="59" fill="#343434"/>
</g>
<rect x="24.0703" y="20.8425" width="304.116" height="658.523" rx="36" fill="white"/>
<g filter="url(#filter1_i)">
<path d="M0 96.6173C0 95.1528 1.18723 93.9656 2.65176 93.9656V93.9656V122.414V122.414C1.18723 122.414 0 121.227 0 119.762V96.6173Z" fill="#151515"/>
</g>
<g filter="url(#filter2_i)">
<path d="M0 147.139C0 145.675 1.18723 144.488 2.65176 144.488V144.488V195.601V195.601C1.18723 195.601 0 194.414 0 192.949V147.139Z" fill="#151515"/>
</g>
<g filter="url(#filter3_i)">
<path d="M0 211.215C0 209.75 1.18723 208.563 2.65176 208.563V208.563V259.677V259.677C1.18723 259.677 0 258.489 0 257.025V211.215Z" fill="#151515"/>
</g>
<path fill-rule="evenodd" clip-rule="evenodd" d="M24 198L175.524 268.618L328 198V403.224L175.524 473.842L24 403.224V198Z" fill="#ECFDFD"/>
<g filter="url(#filter4_i)">
<path d="M351.802 164.096C351.802 162.661 350.639 161.498 349.204 161.498V161.498V242.828V242.828C350.639 242.828 351.802 241.665 351.802 240.23V164.096Z" fill="#151515"/>
</g>
<path fill-rule="evenodd" clip-rule="evenodd" d="M184.099 20.8425H86.7412C89.4709 21.0075 91.0295 22.8943 91.2001 25.3424C91.2001 36.5788 100.309 45.6877 111.545 45.6877L180.921 45.6877H240.591C251.827 45.6877 260.936 36.5788 260.936 25.3424C261.107 22.8943 262.666 21.0075 265.395 20.8425L184.099 20.8425Z" fill="#343434"/>
<rect x="154.342" y="25.3328" width="43.1713" height="6.28132" rx="3.14066" fill="#404040"/>
<mask id="mask0" mask-type="alpha" maskUnits="userSpaceOnUse" x="154" y="25" width="44" height="7">
<rect x="154.342" y="25.3328" width="43.1713" height="6.28132" rx="3.14066" fill="#404040"/>
</mask>
<g mask="url(#mask0)">
<path fill-rule="evenodd" clip-rule="evenodd" d="M207.84 26.6087V25.3328H207.84H206.988H205.582H204.731H203.325H202.473H201.067H200.215H198.81H197.958H196.552H195.7H194.294H193.443H192.037H191.185H189.779H188.928H187.522H186.67H185.264H184.412H183.007H182.155H180.749H179.897H178.491H177.64H176.234H175.382H173.976H173.125H171.718H170.867H169.461H168.609H167.203H166.352H164.946H164.094H162.688H161.837H160.431H159.579H158.173H157.321H155.915H155.064H153.658H152.806H151.4H150.549H149.143H148.291H146.885H146.033H144.627H143.775H142.37H141.518L139.261 25.3328L139.261 25.3328H139.261V31.614H139.261L139.261 31.6141H207.84V30.3382H207.84V29.1114H207.84V27.8355H207.84V26.6087H207.84ZM206.988 26.6087H205.582V27.8355H206.988V26.6087ZM206.988 29.1114H205.582V30.3382H206.988V29.1114ZM204.731 29.1114V30.3382H203.325V29.1114H204.731ZM204.731 26.6087V27.8355H203.325V26.6087H204.731ZM202.473 26.6087H201.067V27.8355H202.473V26.6087ZM202.473 29.1114H201.067V30.3382H202.473V29.1114ZM200.215 29.1114V30.3382H198.81V29.1114H200.215ZM200.215 26.6087V27.8355H198.81V26.6087H200.215ZM197.958 26.6087H196.552V27.8355H197.958V26.6087ZM197.958 29.1114H196.552V30.3382H197.958V29.1114ZM195.7 29.1114V30.3382H194.294V29.1114H195.7ZM195.7 26.6087V27.8355H194.294V26.6087H195.7ZM193.443 26.6087H192.037V27.8355H193.443V26.6087ZM193.443 29.1114H192.037V30.3382H193.443V29.1114ZM191.185 29.1114V30.3382H189.779V29.1114H191.185ZM191.185 26.6087V27.8355H189.779V26.6087H191.185ZM188.928 26.6087H187.522V27.8355H188.928V26.6087ZM188.928 29.1114H187.522V30.3382H188.928V29.1114ZM186.67 29.1114V30.3382H185.264V29.1114H186.67ZM186.67 26.6087V27.8355H185.264V26.6087H186.67ZM184.412 26.6087H183.007V27.8355H184.412V26.6087ZM184.412 29.1114H183.007V30.3382H184.412V29.1114ZM182.155 29.1114V30.3382H180.749V29.1114H182.155ZM182.155 26.6087V27.8355H180.749V26.6087H182.155ZM179.897 26.6087H178.491V27.8355H179.897V26.6087ZM179.897 29.1114H178.491V30.3382H179.897V29.1114ZM177.64 29.1114V30.3382H176.234V29.1114H177.64ZM177.64 26.6087V27.8355H176.234V26.6087H177.64ZM175.382 26.6087H173.976V27.8355H175.382V26.6087ZM175.382 29.1114H173.976V30.3382H175.382V29.1114ZM173.125 29.1114V30.3382H171.718V29.1114H173.125ZM173.125 26.6087V27.8355H171.718V26.6087H173.125ZM170.867 26.6087H169.461V27.8355H170.867V26.6087ZM170.867 29.1114H169.461V30.3382H170.867V29.1114ZM168.609 29.1114V30.3382H167.203V29.1114H168.609ZM168.609 26.6087V27.8355H167.203V26.6087H168.609ZM166.352 26.6087H164.946V27.8355H166.352V26.6087ZM166.352 29.1114H164.946V30.3382H166.352V29.1114ZM164.094 29.1114V30.3382H162.688V29.1114H164.094ZM164.094 26.6087V27.8355H162.688V26.6087H164.094ZM161.837 26.6087H160.431V27.8355H161.837V26.6087ZM161.837 29.1114H160.431V30.3382H161.837V29.1114ZM159.579 29.1114V30.3382H158.173V29.1114H159.579ZM159.579 26.6087V27.8355H158.173V26.6087H159.579ZM157.321 26.6087H155.915V27.8355H157.321V26.6087ZM157.321 29.1114H155.915V30.3382H157.321V29.1114ZM155.064 29.1114V30.3382H153.658V29.1114H155.064ZM155.064 26.6087V27.8355H153.658V26.6087H155.064ZM152.806 26.6087H151.4V27.8355H152.806V26.6087ZM152.806 29.1114H151.4V30.3382H152.806V29.1114ZM150.549 29.1114V30.3382H149.143V29.1114H150.549ZM150.549 26.6087V27.8355H149.143V26.6087H150.549ZM148.291 26.6087H146.885V27.8355H148.291V26.6087ZM148.291 29.1114H146.885V30.3382H148.291V29.1114ZM146.033 29.1114V30.3382H144.627V29.1114H146.033ZM146.033 26.6087V27.8355H144.627V26.6087H146.033ZM143.775 26.6087H142.37V27.8355H143.775V26.6087ZM143.775 29.1114H142.37V30.3382H143.775V29.1114ZM141.518 29.1114V30.3382H140.112V29.1114H141.518ZM141.518 26.6087V27.8355H140.112V26.6087H141.518Z" fill="#272727"/>
</g>
<circle cx="212.764" cy="28.4735" r="4.92391" fill="#272727"/>
<circle cx="212.764" cy="28.4734" r="3.02761" fill="url(#paint0_radial)"/>
<path d="M132.136 95.056C132.872 95.056 133.48 95.032 133.96 94.984V95.464C133.224 95.768 132.456 96.696 131.656 98.248L128.824 103.864V109.456C128.824 110.064 128.864 110.504 128.944 110.776C129.04 111.048 129.208 111.232 129.448 111.328C129.688 111.424 130.08 111.488 130.624 111.52V112C129.76 111.952 128.528 111.928 126.928 111.928C125.216 111.928 123.976 111.952 123.208 112V111.52C123.736 111.488 124.12 111.424 124.36 111.328C124.616 111.232 124.784 111.048 124.864 110.776C124.96 110.504 125.008 110.064 125.008 109.456V105.4L120.376 96.832C119.88 95.936 119.416 95.488 118.984 95.488V94.984C119.688 95.064 120.632 95.104 121.816 95.104C123.304 95.104 124.808 95.064 126.328 94.984V95.488C125.768 95.488 125.32 95.544 124.984 95.656C124.664 95.752 124.504 95.936 124.504 96.208C124.504 96.352 124.56 96.528 124.672 96.736L128.32 103.768L130.192 100.024C130.816 98.76 131.128 97.768 131.128 97.048C131.128 96.504 130.952 96.112 130.6 95.872C130.264 95.632 129.776 95.496 129.136 95.464V94.984C130.224 95.032 131.224 95.056 132.136 95.056ZM138.928 99.256C140.768 99.256 142.208 99.784 143.248 100.84C144.288 101.88 144.808 103.536 144.808 105.808C144.808 108.08 144.288 109.736 143.248 110.776C142.208 111.816 140.768 112.336 138.928 112.336C137.104 112.336 135.664 111.816 134.608 110.776C133.568 109.736 133.048 108.08 133.048 105.808C133.048 103.536 133.568 101.88 134.608 100.84C135.664 99.784 137.104 99.256 138.928 99.256ZM138.928 99.736C138.24 99.736 137.688 100.24 137.272 101.248C136.872 102.24 136.672 103.76 136.672 105.808C136.672 107.856 136.872 109.376 137.272 110.368C137.688 111.36 138.24 111.856 138.928 111.856C139.632 111.856 140.184 111.368 140.584 110.392C140.984 109.4 141.184 107.872 141.184 105.808C141.184 103.744 140.976 102.216 140.56 101.224C140.16 100.232 139.616 99.736 138.928 99.736ZM158.258 109.384C158.258 110.12 158.37 110.656 158.594 110.992C158.834 111.328 159.234 111.496 159.794 111.496V112C159.298 111.952 158.802 111.928 158.306 111.928C156.914 111.928 155.746 112.04 154.802 112.264V110.104C154.066 111.592 152.778 112.336 150.938 112.336C149.738 112.336 148.866 112.024 148.322 111.4C148.066 111.096 147.874 110.704 147.746 110.224C147.634 109.728 147.578 109.08 147.578 108.28V102.208C147.578 101.472 147.458 100.936 147.218 100.6C146.994 100.264 146.602 100.096 146.042 100.096V99.592C146.538 99.64 147.034 99.664 147.53 99.664C148.922 99.664 150.09 99.552 151.034 99.328V109.264C151.034 109.936 151.13 110.44 151.322 110.776C151.53 111.112 151.914 111.28 152.474 111.28C153.114 111.28 153.658 111.016 154.106 110.488C154.57 109.944 154.802 109.28 154.802 108.496V102.208C154.802 101.472 154.682 100.936 154.442 100.6C154.218 100.264 153.826 100.096 153.266 100.096V99.592C153.778 99.64 154.274 99.664 154.754 99.664C156.146 99.664 157.314 99.552 158.258 99.328V109.384ZM174.119 95.488C173.575 95.52 173.183 95.584 172.943 95.68C172.703 95.776 172.535 95.96 172.439 96.232C172.359 96.504 172.319 96.944 172.319 97.552V109.456C172.319 110.064 172.359 110.504 172.439 110.776C172.535 111.048 172.703 111.232 172.943 111.328C173.183 111.424 173.575 111.488 174.119 111.52V112C173.255 111.952 172.047 111.928 170.495 111.928C168.783 111.928 167.519 111.952 166.703 112V111.52C167.231 111.488 167.615 111.424 167.855 111.328C168.111 111.232 168.279 111.048 168.359 110.776C168.455 110.504 168.503 110.064 168.503 109.456V97.552C168.503 96.944 168.455 96.504 168.359 96.232C168.279 95.96 168.111 95.776 167.855 95.68C167.615 95.584 167.231 95.52 166.703 95.488V95.008C167.519 95.056 168.783 95.08 170.495 95.08C172.047 95.08 173.255 95.056 174.119 95.008V95.488ZM184.414 99.256C185.63 99.256 186.51 99.568 187.054 100.192C187.326 100.496 187.518 100.888 187.63 101.368C187.742 101.848 187.798 102.496 187.798 103.312V109.768C187.798 110.424 187.91 110.88 188.134 111.136C188.374 111.376 188.774 111.496 189.334 111.496V112C187.734 111.936 186.678 111.904 186.166 111.904C185.686 111.904 184.646 111.936 183.046 112V111.496C183.526 111.496 183.862 111.376 184.054 111.136C184.246 110.88 184.342 110.424 184.342 109.768V102.304C184.342 101.648 184.23 101.152 184.006 100.816C183.798 100.48 183.414 100.312 182.854 100.312C182.198 100.312 181.638 100.584 181.174 101.128C180.71 101.656 180.478 102.312 180.478 103.096V109.768C180.478 110.424 180.574 110.88 180.766 111.136C180.958 111.376 181.294 111.496 181.774 111.496V112C180.302 111.936 179.31 111.904 178.798 111.904C178.318 111.904 177.214 111.936 175.486 112V111.496C176.062 111.496 176.462 111.376 176.686 111.136C176.91 110.88 177.022 110.424 177.022 109.768V102.208C177.022 101.472 176.91 100.936 176.686 100.6C176.462 100.264 176.062 100.096 175.486 100.096V99.592C175.998 99.64 176.494 99.664 176.974 99.664C178.398 99.664 179.566 99.552 180.478 99.328V101.488C181.198 100 182.51 99.256 184.414 99.256ZM199.715 99.664C200.531 99.664 201.147 99.64 201.563 99.592V100.072C201.227 100.168 200.923 100.376 200.651 100.696C200.395 101 200.147 101.48 199.907 102.136L196.403 112.048C196.227 112.032 195.963 112.024 195.611 112.024C195.275 112.024 195.019 112.032 194.843 112.048L190.571 101.44C190.347 100.896 190.115 100.536 189.875 100.36C189.651 100.184 189.419 100.096 189.179 100.096V99.592C190.299 99.672 191.435 99.712 192.587 99.712C193.595 99.712 194.635 99.672 195.707 99.592V100.096C195.163 100.096 194.771 100.136 194.531 100.216C194.307 100.28 194.195 100.472 194.195 100.792C194.195 100.92 194.235 101.12 194.315 101.392L197.051 108.664L198.779 103.912C199.035 103.16 199.163 102.512 199.163 101.968C199.163 100.8 198.579 100.168 197.411 100.072V99.592C198.147 99.64 198.915 99.664 199.715 99.664ZM208.862 110.368C210.174 110.368 211.23 109.728 212.03 108.448L212.462 108.592C212.142 109.632 211.566 110.52 210.734 111.256C209.918 111.976 208.894 112.336 207.662 112.336C205.966 112.336 204.614 111.8 203.606 110.728C202.614 109.64 202.118 108.04 202.118 105.928C202.118 103.768 202.654 102.12 203.726 100.984C204.798 99.832 206.222 99.256 207.998 99.256C211.006 99.256 212.51 101.032 212.51 104.584H205.766C205.75 104.824 205.742 105.2 205.742 105.712C205.742 106.768 205.886 107.648 206.174 108.352C206.478 109.056 206.862 109.568 207.326 109.888C207.806 110.208 208.318 110.368 208.862 110.368ZM207.854 99.76C207.278 99.76 206.798 100.12 206.414 100.84C206.046 101.544 205.814 102.64 205.718 104.128H209.486C209.518 102.864 209.39 101.824 209.102 101.008C208.83 100.176 208.414 99.76 207.854 99.76ZM218.652 99.256C219.26 99.256 219.82 99.336 220.332 99.496C220.844 99.64 221.236 99.808 221.508 100C221.668 100.112 221.812 100.168 221.94 100.168C222.084 100.168 222.204 100.096 222.3 99.952C222.412 99.792 222.484 99.568 222.516 99.28H223.02C222.956 100.096 222.924 101.504 222.924 103.504H222.42C222.276 102.448 221.956 101.568 221.46 100.864C220.98 100.144 220.276 99.784 219.348 99.784C218.868 99.784 218.468 99.92 218.148 100.192C217.844 100.464 217.692 100.84 217.692 101.32C217.692 101.864 217.876 102.336 218.244 102.736C218.612 103.12 219.188 103.592 219.972 104.152L220.668 104.656C221.644 105.392 222.364 106.048 222.828 106.624C223.292 107.2 223.524 107.92 223.524 108.784C223.524 109.488 223.316 110.112 222.9 110.656C222.5 111.2 221.956 111.616 221.268 111.904C220.58 112.192 219.82 112.336 218.988 112.336C218.108 112.336 217.356 112.168 216.732 111.832C216.22 111.576 215.852 111.408 215.628 111.328C215.468 111.28 215.324 111.336 215.196 111.496C215.084 111.64 214.996 111.864 214.932 112.168H214.428C214.492 111.256 214.524 109.656 214.524 107.368H215.028C215.348 110.312 216.428 111.784 218.268 111.784C218.732 111.784 219.124 111.648 219.444 111.376C219.78 111.088 219.948 110.656 219.948 110.08C219.948 109.632 219.844 109.232 219.636 108.88C219.444 108.528 219.196 108.216 218.892 107.944C218.588 107.672 218.132 107.296 217.524 106.816C216.804 106.24 216.252 105.776 215.868 105.424C215.5 105.072 215.18 104.656 214.908 104.176C214.652 103.696 214.524 103.16 214.524 102.568C214.524 101.544 214.924 100.736 215.724 100.144C216.524 99.552 217.5 99.256 218.652 99.256ZM229.858 99.592H232.69V100.072H229.858V109.768C229.858 110.248 229.938 110.592 230.098 110.8C230.274 110.992 230.546 111.088 230.914 111.088C231.602 111.088 232.146 110.608 232.546 109.648L232.954 109.864C232.346 111.512 231.25 112.336 229.666 112.336C228.61 112.336 227.81 112.064 227.266 111.52C226.93 111.184 226.698 110.768 226.57 110.272C226.458 109.76 226.402 109.064 226.402 108.184V100.072H224.386V99.592H226.402V96.424C227.73 96.424 228.882 96.168 229.858 95.656V99.592Z" fill="#4F4F4F"/>
<path d="M92.0742 328.984C92.2822 329.512 92.5222 329.896 92.7942 330.136C93.0662 330.376 93.3302 330.504 93.5862 330.52V331C92.6262 330.952 91.4102 330.928 89.9382 330.928C88.3062 330.928 87.0902 330.952 86.2902 331V330.52C86.8982 330.488 87.3302 330.416 87.5862 330.304C87.8422 330.176 87.9702 329.96 87.9702 329.656C87.9702 329.368 87.8742 328.984 87.6822 328.504L86.2422 324.568H81.0102L80.3862 326.224C79.9382 327.376 79.7142 328.264 79.7142 328.888C79.7142 329.48 79.8902 329.896 80.2422 330.136C80.6102 330.36 81.1462 330.488 81.8502 330.52V331C80.7622 330.952 79.7702 330.928 78.8742 330.928C78.1382 330.928 77.5302 330.952 77.0502 331V330.52C77.8342 330.376 78.5222 329.536 79.1142 328L84.5862 313.96C84.7622 313.976 85.0422 313.984 85.4262 313.984C85.8102 313.984 86.0822 313.976 86.2422 313.96L92.0742 328.984ZM86.0742 324.088L83.6982 317.608L81.2022 324.088H86.0742ZM100.234 318.256C100.826 318.256 101.386 318.32 101.914 318.448C102.442 318.576 102.882 318.752 103.234 318.976C103.65 319.232 103.97 319.56 104.194 319.96C104.434 320.344 104.554 320.768 104.554 321.232C104.554 321.792 104.378 322.256 104.026 322.624C103.674 322.976 103.218 323.152 102.658 323.152C102.098 323.152 101.65 322.992 101.314 322.672C100.978 322.352 100.81 321.92 100.81 321.376C100.81 320.896 100.962 320.48 101.266 320.128C101.57 319.776 101.946 319.536 102.394 319.408C102.266 319.232 102.066 319.096 101.794 319C101.538 318.888 101.258 318.832 100.954 318.832C99.994 318.832 99.242 319.36 98.698 320.416C98.17 321.456 97.906 322.824 97.906 324.52C97.906 326.232 98.21 327.464 98.818 328.216C99.426 328.968 100.186 329.344 101.098 329.344C101.642 329.344 102.186 329.2 102.73 328.912C103.29 328.624 103.794 328.12 104.242 327.4L104.65 327.544C104.33 328.584 103.77 329.48 102.97 330.232C102.17 330.968 101.138 331.336 99.874 331.336C98.226 331.336 96.882 330.792 95.842 329.704C94.802 328.616 94.282 327 94.282 324.856C94.282 323.448 94.538 322.248 95.05 321.256C95.562 320.264 96.266 319.52 97.162 319.024C98.058 318.512 99.082 318.256 100.234 318.256ZM110.772 318.592H113.604V319.072H110.772V328.768C110.772 329.248 110.852 329.592 111.012 329.8C111.188 329.992 111.46 330.088 111.828 330.088C112.516 330.088 113.06 329.608 113.46 328.648L113.868 328.864C113.26 330.512 112.164 331.336 110.58 331.336C109.524 331.336 108.724 331.064 108.18 330.52C107.844 330.184 107.612 329.768 107.484 329.272C107.372 328.76 107.316 328.064 107.316 327.184V319.072H105.3V318.592H107.316V315.424C108.644 315.424 109.796 315.168 110.772 314.656V318.592ZM117.458 312.4C118.13 312.4 118.658 312.568 119.042 312.904C119.442 313.224 119.642 313.672 119.642 314.248C119.642 314.824 119.442 315.28 119.042 315.616C118.658 315.936 118.13 316.096 117.458 316.096C116.786 316.096 116.25 315.936 115.85 315.616C115.466 315.28 115.274 314.824 115.274 314.248C115.274 313.672 115.466 313.224 115.85 312.904C116.25 312.568 116.786 312.4 117.458 312.4ZM119.33 328.768C119.33 329.424 119.442 329.88 119.666 330.136C119.906 330.376 120.306 330.496 120.866 330.496V331C119.266 330.936 118.202 330.904 117.674 330.904C117.178 330.904 116.066 330.936 114.338 331V330.496C114.914 330.496 115.314 330.376 115.538 330.136C115.762 329.88 115.874 329.424 115.874 328.768V321.208C115.874 320.472 115.762 319.936 115.538 319.6C115.314 319.264 114.914 319.096 114.338 319.096V318.592C114.85 318.64 115.346 318.664 115.826 318.664C117.25 318.664 118.418 318.552 119.33 318.328V328.768ZM131.558 318.664C132.374 318.664 132.99 318.64 133.406 318.592V319.072C133.07 319.168 132.766 319.376 132.494 319.696C132.238 320 131.99 320.48 131.75 321.136L128.246 331.048C128.07 331.032 127.806 331.024 127.454 331.024C127.118 331.024 126.862 331.032 126.686 331.048L122.414 320.44C122.19 319.896 121.958 319.536 121.718 319.36C121.494 319.184 121.262 319.096 121.022 319.096V318.592C122.142 318.672 123.278 318.712 124.43 318.712C125.438 318.712 126.478 318.672 127.55 318.592V319.096C127.006 319.096 126.614 319.136 126.374 319.216C126.15 319.28 126.038 319.472 126.038 319.792C126.038 319.92 126.078 320.12 126.158 320.392L128.894 327.664L130.622 322.912C130.878 322.16 131.006 321.512 131.006 320.968C131.006 319.8 130.422 319.168 129.254 319.072V318.592C129.99 318.64 130.758 318.664 131.558 318.664ZM140.706 329.368C142.018 329.368 143.074 328.728 143.874 327.448L144.306 327.592C143.986 328.632 143.41 329.52 142.578 330.256C141.762 330.976 140.738 331.336 139.506 331.336C137.81 331.336 136.458 330.8 135.45 329.728C134.458 328.64 133.962 327.04 133.962 324.928C133.962 322.768 134.498 321.12 135.57 319.984C136.642 318.832 138.066 318.256 139.842 318.256C142.85 318.256 144.354 320.032 144.354 323.584H137.61C137.594 323.824 137.586 324.2 137.586 324.712C137.586 325.768 137.73 326.648 138.018 327.352C138.322 328.056 138.706 328.568 139.17 328.888C139.65 329.208 140.162 329.368 140.706 329.368ZM139.698 318.76C139.122 318.76 138.642 319.12 138.258 319.84C137.89 320.544 137.658 321.64 137.562 323.128H141.33C141.362 321.864 141.234 320.824 140.946 320.008C140.674 319.176 140.258 318.76 139.698 318.76ZM159.002 314.488C158.458 314.52 158.066 314.584 157.826 314.68C157.586 314.776 157.418 314.96 157.322 315.232C157.242 315.504 157.202 315.944 157.202 316.552V328.456C157.202 329.064 157.242 329.504 157.322 329.776C157.418 330.048 157.586 330.232 157.826 330.328C158.066 330.424 158.458 330.488 159.002 330.52V331C158.138 330.952 156.93 330.928 155.378 330.928C153.666 330.928 152.402 330.952 151.586 331V330.52C152.114 330.488 152.498 330.424 152.738 330.328C152.994 330.232 153.162 330.048 153.242 329.776C153.338 329.504 153.386 329.064 153.386 328.456V316.552C153.386 315.944 153.338 315.504 153.242 315.232C153.162 314.96 152.994 314.776 152.738 314.68C152.498 314.584 152.114 314.52 151.586 314.488V314.008C152.402 314.056 153.666 314.08 155.378 314.08C156.93 314.08 158.138 314.056 159.002 314.008V314.488ZM169.297 318.256C170.513 318.256 171.393 318.568 171.937 319.192C172.209 319.496 172.401 319.888 172.513 320.368C172.625 320.848 172.681 321.496 172.681 322.312V328.768C172.681 329.424 172.793 329.88 173.017 330.136C173.257 330.376 173.657 330.496 174.217 330.496V331C172.617 330.936 171.561 330.904 171.049 330.904C170.569 330.904 169.529 330.936 167.929 331V330.496C168.409 330.496 168.745 330.376 168.937 330.136C169.129 329.88 169.225 329.424 169.225 328.768V321.304C169.225 320.648 169.113 320.152 168.889 319.816C168.681 319.48 168.297 319.312 167.737 319.312C167.081 319.312 166.521 319.584 166.057 320.128C165.593 320.656 165.361 321.312 165.361 322.096V328.768C165.361 329.424 165.457 329.88 165.649 330.136C165.841 330.376 166.177 330.496 166.657 330.496V331C165.185 330.936 164.193 330.904 163.681 330.904C163.201 330.904 162.097 330.936 160.369 331V330.496C160.945 330.496 161.345 330.376 161.569 330.136C161.793 329.88 161.905 329.424 161.905 328.768V321.208C161.905 320.472 161.793 319.936 161.569 319.6C161.345 319.264 160.945 319.096 160.369 319.096V318.592C160.881 318.64 161.377 318.664 161.857 318.664C163.281 318.664 164.449 318.552 165.361 318.328V320.488C166.081 319 167.393 318.256 169.297 318.256ZM184.597 318.664C185.413 318.664 186.029 318.64 186.445 318.592V319.072C186.109 319.168 185.805 319.376 185.533 319.696C185.277 320 185.029 320.48 184.789 321.136L181.285 331.048C181.109 331.032 180.845 331.024 180.493 331.024C180.157 331.024 179.901 331.032 179.725 331.048L175.453 320.44C175.229 319.896 174.997 319.536 174.757 319.36C174.533 319.184 174.301 319.096 174.061 319.096V318.592C175.181 318.672 176.317 318.712 177.469 318.712C178.477 318.712 179.517 318.672 180.589 318.592V319.096C180.045 319.096 179.653 319.136 179.413 319.216C179.189 319.28 179.077 319.472 179.077 319.792C179.077 319.92 179.117 320.12 179.197 320.392L181.933 327.664L183.661 322.912C183.917 322.16 184.045 321.512 184.045 320.968C184.045 319.8 183.461 319.168 182.293 319.072V318.592C183.029 318.64 183.797 318.664 184.597 318.664ZM193.745 329.368C195.057 329.368 196.113 328.728 196.913 327.448L197.345 327.592C197.025 328.632 196.449 329.52 195.617 330.256C194.801 330.976 193.777 331.336 192.545 331.336C190.849 331.336 189.497 330.8 188.489 329.728C187.497 328.64 187.001 327.04 187.001 324.928C187.001 322.768 187.537 321.12 188.609 319.984C189.681 318.832 191.105 318.256 192.881 318.256C195.889 318.256 197.393 320.032 197.393 323.584H190.649C190.633 323.824 190.625 324.2 190.625 324.712C190.625 325.768 190.769 326.648 191.057 327.352C191.361 328.056 191.745 328.568 192.209 328.888C192.689 329.208 193.201 329.368 193.745 329.368ZM192.737 318.76C192.161 318.76 191.681 319.12 191.297 319.84C190.929 320.544 190.697 321.64 190.601 323.128H194.369C194.401 321.864 194.273 320.824 193.985 320.008C193.713 319.176 193.297 318.76 192.737 318.76ZM203.535 318.256C204.143 318.256 204.703 318.336 205.215 318.496C205.727 318.64 206.119 318.808 206.391 319C206.551 319.112 206.695 319.168 206.823 319.168C206.967 319.168 207.087 319.096 207.183 318.952C207.295 318.792 207.367 318.568 207.399 318.28H207.903C207.839 319.096 207.807 320.504 207.807 322.504H207.303C207.159 321.448 206.839 320.568 206.343 319.864C205.863 319.144 205.159 318.784 204.231 318.784C203.751 318.784 203.351 318.92 203.031 319.192C202.727 319.464 202.575 319.84 202.575 320.32C202.575 320.864 202.759 321.336 203.127 321.736C203.495 322.12 204.071 322.592 204.855 323.152L205.551 323.656C206.527 324.392 207.247 325.048 207.711 325.624C208.175 326.2 208.407 326.92 208.407 327.784C208.407 328.488 208.199 329.112 207.783 329.656C207.383 330.2 206.839 330.616 206.151 330.904C205.463 331.192 204.703 331.336 203.871 331.336C202.991 331.336 202.239 331.168 201.615 330.832C201.103 330.576 200.735 330.408 200.511 330.328C200.351 330.28 200.207 330.336 200.079 330.496C199.967 330.64 199.879 330.864 199.815 331.168H199.311C199.375 330.256 199.407 328.656 199.407 326.368H199.911C200.231 329.312 201.311 330.784 203.151 330.784C203.615 330.784 204.007 330.648 204.327 330.376C204.663 330.088 204.831 329.656 204.831 329.08C204.831 328.632 204.727 328.232 204.519 327.88C204.327 327.528 204.079 327.216 203.775 326.944C203.471 326.672 203.015 326.296 202.407 325.816C201.687 325.24 201.135 324.776 200.751 324.424C200.383 324.072 200.063 323.656 199.791 323.176C199.535 322.696 199.407 322.16 199.407 321.568C199.407 320.544 199.807 319.736 200.607 319.144C201.407 318.552 202.383 318.256 203.535 318.256ZM214.741 318.592H217.573V319.072H214.741V328.768C214.741 329.248 214.821 329.592 214.981 329.8C215.157 329.992 215.429 330.088 215.797 330.088C216.485 330.088 217.029 329.608 217.429 328.648L217.837 328.864C217.229 330.512 216.133 331.336 214.549 331.336C213.493 331.336 212.693 331.064 212.149 330.52C211.813 330.184 211.581 329.768 211.453 329.272C211.341 328.76 211.285 328.064 211.285 327.184V319.072H209.269V318.592H211.285V315.424C212.613 315.424 213.765 315.168 214.741 314.656V318.592ZM237.602 328.768C237.602 329.424 237.714 329.88 237.938 330.136C238.178 330.376 238.578 330.496 239.138 330.496V331C237.538 330.936 236.482 330.904 235.97 330.904C235.522 330.904 234.53 330.936 232.994 331V330.496C233.426 330.496 233.722 330.376 233.882 330.136C234.058 329.896 234.146 329.44 234.146 328.768V321.304C234.146 320.632 234.042 320.136 233.834 319.816C233.642 319.48 233.266 319.312 232.706 319.312C232.114 319.312 231.594 319.56 231.146 320.056C230.714 320.552 230.458 321.16 230.378 321.88V322.312V328.768C230.378 329.424 230.474 329.88 230.666 330.136C230.874 330.376 231.242 330.496 231.77 330.496V331C230.234 330.936 229.226 330.904 228.746 330.904C228.298 330.904 227.306 330.936 225.77 331V330.496C226.202 330.496 226.498 330.376 226.658 330.136C226.834 329.88 226.922 329.424 226.922 328.768V321.304C226.922 320.632 226.834 320.136 226.658 319.816C226.482 319.48 226.138 319.312 225.626 319.312C224.986 319.312 224.434 319.584 223.97 320.128C223.522 320.656 223.298 321.312 223.298 322.096V328.768C223.298 329.424 223.378 329.88 223.538 330.136C223.714 330.376 224.018 330.496 224.45 330.496V331C223.042 330.936 222.098 330.904 221.618 330.904C221.138 330.904 220.034 330.936 218.306 331V330.496C218.882 330.496 219.282 330.376 219.506 330.136C219.73 329.88 219.842 329.424 219.842 328.768V321.208C219.842 320.472 219.73 319.936 219.506 319.6C219.282 319.264 218.882 319.096 218.306 319.096V318.592C218.818 318.64 219.314 318.664 219.794 318.664C221.218 318.664 222.386 318.552 223.298 318.328V320.488C224.002 319 225.242 318.256 227.018 318.256C228.234 318.256 229.114 318.568 229.658 319.192C229.962 319.512 230.162 319.992 230.258 320.632C230.674 319.768 231.218 319.16 231.89 318.808C232.562 318.44 233.346 318.256 234.242 318.256C235.458 318.256 236.338 318.568 236.882 319.192C237.138 319.48 237.322 319.872 237.434 320.368C237.546 320.864 237.602 321.512 237.602 322.312V328.768ZM247.089 329.368C248.401 329.368 249.457 328.728 250.257 327.448L250.689 327.592C250.369 328.632 249.793 329.52 248.961 330.256C248.145 330.976 247.121 331.336 245.889 331.336C244.193 331.336 242.841 330.8 241.833 329.728C240.841 328.64 240.345 327.04 240.345 324.928C240.345 322.768 240.881 321.12 241.953 319.984C243.025 318.832 244.449 318.256 246.225 318.256C249.233 318.256 250.737 320.032 250.737 323.584H243.993C243.977 323.824 243.969 324.2 243.969 324.712C243.969 325.768 244.113 326.648 244.401 327.352C244.705 328.056 245.089 328.568 245.553 328.888C246.033 329.208 246.545 329.368 247.089 329.368ZM246.081 318.76C245.505 318.76 245.025 319.12 244.641 319.84C244.273 320.544 244.041 321.64 243.945 323.128H247.713C247.745 321.864 247.617 320.824 247.329 320.008C247.057 319.176 246.641 318.76 246.081 318.76ZM260.914 318.256C262.13 318.256 263.01 318.568 263.554 319.192C263.826 319.496 264.018 319.888 264.13 320.368C264.242 320.848 264.298 321.496 264.298 322.312V328.768C264.298 329.424 264.41 329.88 264.634 330.136C264.874 330.376 265.274 330.496 265.834 330.496V331C264.234 330.936 263.178 330.904 262.666 330.904C262.186 330.904 261.146 330.936 259.546 331V330.496C260.026 330.496 260.362 330.376 260.554 330.136C260.746 329.88 260.842 329.424 260.842 328.768V321.304C260.842 320.648 260.73 320.152 260.506 319.816C260.298 319.48 259.914 319.312 259.354 319.312C258.698 319.312 258.138 319.584 257.674 320.128C257.21 320.656 256.978 321.312 256.978 322.096V328.768C256.978 329.424 257.074 329.88 257.266 330.136C257.458 330.376 257.794 330.496 258.274 330.496V331C256.802 330.936 255.81 330.904 255.298 330.904C254.818 330.904 253.714 330.936 251.986 331V330.496C252.562 330.496 252.962 330.376 253.186 330.136C253.41 329.88 253.522 329.424 253.522 328.768V321.208C253.522 320.472 253.41 319.936 253.186 319.6C252.962 319.264 252.562 319.096 251.986 319.096V318.592C252.498 318.64 252.994 318.664 253.474 318.664C254.898 318.664 256.066 318.552 256.978 318.328V320.488C257.698 319 259.01 318.256 260.914 318.256ZM271.6 318.592H274.432V319.072H271.6V328.768C271.6 329.248 271.68 329.592 271.84 329.8C272.016 329.992 272.288 330.088 272.656 330.088C273.344 330.088 273.888 329.608 274.288 328.648L274.696 328.864C274.088 330.512 272.992 331.336 271.408 331.336C270.352 331.336 269.552 331.064 269.008 330.52C268.672 330.184 268.44 329.768 268.312 329.272C268.2 328.76 268.144 328.064 268.144 327.184V319.072H266.128V318.592H268.144V315.424C269.472 315.424 270.624 315.168 271.6 314.656V318.592ZM88.6782 344.256C90.5182 344.256 91.9582 344.784 92.9982 345.84C94.0382 346.88 94.5582 348.536 94.5582 350.808C94.5582 353.08 94.0382 354.736 92.9982 355.776C91.9582 356.816 90.5182 357.336 88.6782 357.336C86.8542 357.336 85.4142 356.816 84.3582 355.776C83.3182 354.736 82.7982 353.08 82.7982 350.808C82.7982 348.536 83.3182 346.88 84.3582 345.84C85.4142 344.784 86.8542 344.256 88.6782 344.256ZM88.6782 344.736C87.9902 344.736 87.4382 345.24 87.0222 346.248C86.6222 347.24 86.4222 348.76 86.4222 350.808C86.4222 352.856 86.6222 354.376 87.0222 355.368C87.4382 356.36 87.9902 356.856 88.6782 356.856C89.3822 356.856 89.9342 356.368 90.3342 355.392C90.7342 354.4 90.9342 352.872 90.9342 350.808C90.9342 348.744 90.7262 347.216 90.3102 346.224C89.9102 345.232 89.3662 344.736 88.6782 344.736ZM104.984 344.256C106.2 344.256 107.08 344.568 107.624 345.192C107.896 345.496 108.088 345.888 108.2 346.368C108.312 346.848 108.368 347.496 108.368 348.312V354.768C108.368 355.424 108.48 355.88 108.704 356.136C108.944 356.376 109.344 356.496 109.904 356.496V357C108.304 356.936 107.248 356.904 106.736 356.904C106.256 356.904 105.216 356.936 103.616 357V356.496C104.096 356.496 104.432 356.376 104.624 356.136C104.816 355.88 104.912 355.424 104.912 354.768V347.304C104.912 346.648 104.8 346.152 104.576 345.816C104.368 345.48 103.984 345.312 103.424 345.312C102.768 345.312 102.208 345.584 101.744 346.128C101.28 346.656 101.048 347.312 101.048 348.096V354.768C101.048 355.424 101.144 355.88 101.336 356.136C101.528 356.376 101.864 356.496 102.344 356.496V357C100.872 356.936 99.8805 356.904 99.3685 356.904C98.8885 356.904 97.7845 356.936 96.0565 357V356.496C96.6325 356.496 97.0325 356.376 97.2565 356.136C97.4805 355.88 97.5925 355.424 97.5925 354.768V347.208C97.5925 346.472 97.4805 345.936 97.2565 345.6C97.0325 345.264 96.6325 345.096 96.0565 345.096V344.592C96.5685 344.64 97.0645 344.664 97.5445 344.664C98.9685 344.664 100.136 344.552 101.048 344.328V346.488C101.768 345 103.08 344.256 104.984 344.256ZM137.28 340.488C136.736 340.52 136.344 340.584 136.104 340.68C135.864 340.776 135.696 340.96 135.6 341.232C135.52 341.504 135.48 341.944 135.48 342.552V354.456C135.48 355.064 135.52 355.504 135.6 355.776C135.696 356.048 135.864 356.232 136.104 356.328C136.36 356.424 136.752 356.488 137.28 356.52V357C136.4 356.952 135.144 356.928 133.512 356.928C131.8 356.928 130.536 356.952 129.72 357V356.52C130.296 356.488 130.712 356.424 130.968 356.328C131.24 356.232 131.424 356.048 131.52 355.776C131.616 355.504 131.664 355.064 131.664 354.456V341.904L125.88 357.024H125.496L119.016 341.568V353.064C119.016 354.008 119.064 354.704 119.16 355.152C119.256 355.584 119.464 355.904 119.784 356.112C120.104 356.304 120.624 356.44 121.344 356.52V357C120.72 356.952 119.856 356.928 118.752 356.928C117.872 356.928 117.176 356.952 116.664 357V356.52C117.192 356.44 117.576 356.304 117.816 356.112C118.072 355.92 118.24 355.616 118.32 355.2C118.416 354.784 118.464 354.168 118.464 353.352V342.552C118.464 341.944 118.416 341.504 118.32 341.232C118.24 340.96 118.072 340.776 117.816 340.68C117.576 340.584 117.192 340.52 116.664 340.488V340.008C117.176 340.056 117.872 340.08 118.752 340.08C120.224 340.08 121.488 340.056 122.544 340.008L127.392 351.696L131.808 340.08H133.512C135.144 340.08 136.4 340.056 137.28 340.008V340.488ZM144.389 344.256C146.229 344.256 147.669 344.784 148.709 345.84C149.749 346.88 150.269 348.536 150.269 350.808C150.269 353.08 149.749 354.736 148.709 355.776C147.669 356.816 146.229 357.336 144.389 357.336C142.565 357.336 141.125 356.816 140.069 355.776C139.029 354.736 138.509 353.08 138.509 350.808C138.509 348.536 139.029 346.88 140.069 345.84C141.125 344.784 142.565 344.256 144.389 344.256ZM144.389 344.736C143.701 344.736 143.149 345.24 142.733 346.248C142.333 347.24 142.133 348.76 142.133 350.808C142.133 352.856 142.333 354.376 142.733 355.368C143.149 356.36 143.701 356.856 144.389 356.856C145.093 356.856 145.645 356.368 146.045 355.392C146.445 354.4 146.645 352.872 146.645 350.808C146.645 348.744 146.437 347.216 146.021 346.224C145.621 345.232 145.077 344.736 144.389 344.736ZM160.695 344.256C161.911 344.256 162.791 344.568 163.335 345.192C163.607 345.496 163.799 345.888 163.911 346.368C164.023 346.848 164.079 347.496 164.079 348.312V354.768C164.079 355.424 164.191 355.88 164.415 356.136C164.655 356.376 165.055 356.496 165.615 356.496V357C164.015 356.936 162.959 356.904 162.447 356.904C161.967 356.904 160.927 356.936 159.327 357V356.496C159.807 356.496 160.143 356.376 160.335 356.136C160.527 355.88 160.623 355.424 160.623 354.768V347.304C160.623 346.648 160.511 346.152 160.287 345.816C160.079 345.48 159.695 345.312 159.135 345.312C158.479 345.312 157.919 345.584 157.455 346.128C156.991 346.656 156.759 347.312 156.759 348.096V354.768C156.759 355.424 156.855 355.88 157.047 356.136C157.239 356.376 157.575 356.496 158.055 356.496V357C156.583 356.936 155.591 356.904 155.079 356.904C154.599 356.904 153.495 356.936 151.767 357V356.496C152.343 356.496 152.743 356.376 152.967 356.136C153.191 355.88 153.303 355.424 153.303 354.768V347.208C153.303 346.472 153.191 345.936 152.967 345.6C152.743 345.264 152.343 345.096 151.767 345.096V344.592C152.279 344.64 152.775 344.664 153.255 344.664C154.679 344.664 155.847 344.552 156.759 344.328V346.488C157.479 345 158.791 344.256 160.695 344.256ZM178.318 354.36C178.318 355.096 178.43 355.632 178.654 355.968C178.878 356.304 179.278 356.472 179.854 356.472V356.976C179.358 356.928 178.862 356.904 178.366 356.904C176.942 356.904 175.774 357.016 174.862 357.24V355.176C174.318 356.616 173.278 357.336 171.742 357.336C170.238 357.336 169.038 356.792 168.142 355.704C167.262 354.6 166.83 352.944 166.846 350.736C166.846 349.328 167.07 348.144 167.518 347.184C167.982 346.208 168.614 345.48 169.414 345C170.23 344.504 171.158 344.256 172.198 344.256C173.366 344.256 174.254 344.56 174.862 345.168V341.088C174.862 340.352 174.742 339.816 174.502 339.48C174.278 339.144 173.886 338.976 173.326 338.976V338.472C173.838 338.52 174.334 338.544 174.814 338.544C176.206 338.544 177.374 338.432 178.318 338.208V354.36ZM172.726 356.304C173.254 356.304 173.718 356.112 174.118 355.728C174.534 355.344 174.782 354.824 174.862 354.168V345.768C174.462 345.224 173.878 344.952 173.11 344.952C172.262 344.952 171.606 345.44 171.142 346.416C170.678 347.392 170.454 348.848 170.47 350.784C170.454 352.736 170.638 354.144 171.022 355.008C171.422 355.872 171.99 356.304 172.726 356.304ZM184.021 357.168C182.997 357.168 182.229 356.904 181.717 356.376C181.221 355.848 180.973 355.152 180.973 354.288C180.973 353.568 181.157 352.976 181.525 352.512C181.909 352.032 182.365 351.664 182.893 351.408C183.437 351.152 184.125 350.88 184.957 350.592C185.837 350.288 186.477 350.016 186.877 349.776C187.293 349.52 187.501 349.176 187.501 348.744V346.872C187.501 346.2 187.341 345.68 187.021 345.312C186.717 344.928 186.237 344.736 185.581 344.736C184.813 344.736 184.229 344.928 183.829 345.312C184.277 345.472 184.621 345.712 184.861 346.032C185.117 346.352 185.245 346.728 185.245 347.16C185.245 347.704 185.061 348.136 184.693 348.456C184.325 348.776 183.877 348.936 183.349 348.936C182.789 348.936 182.357 348.76 182.053 348.408C181.749 348.056 181.597 347.616 181.597 347.088C181.597 346.64 181.701 346.264 181.909 345.96C182.133 345.64 182.469 345.344 182.917 345.072C183.349 344.816 183.877 344.616 184.501 344.472C185.141 344.328 185.837 344.256 186.589 344.256C187.373 344.256 188.053 344.336 188.629 344.496C189.205 344.656 189.685 344.928 190.069 345.312C190.421 345.664 190.653 346.096 190.765 346.608C190.893 347.12 190.957 347.816 190.957 348.696V355.224C190.957 355.608 190.989 355.88 191.053 356.04C191.133 356.2 191.277 356.28 191.485 356.28C191.725 356.28 192.013 356.144 192.349 355.872L192.589 356.28C191.869 356.872 190.989 357.168 189.949 357.168C189.069 357.168 188.453 356.992 188.101 356.64C187.749 356.288 187.565 355.816 187.549 355.224C186.749 356.52 185.573 357.168 184.021 357.168ZM185.869 355.632C186.493 355.632 187.037 355.304 187.501 354.648V349.728C187.309 350.048 186.901 350.4 186.277 350.784C185.653 351.184 185.181 351.584 184.861 351.984C184.541 352.384 184.381 352.96 184.381 353.712C184.381 354.368 184.517 354.856 184.789 355.176C185.061 355.48 185.421 355.632 185.869 355.632ZM202.952 344.664C203.752 344.664 204.368 344.64 204.8 344.592V345.072C204.464 345.168 204.16 345.376 203.888 345.696C203.632 346 203.384 346.48 203.144 347.136L198.848 359.208C198.528 360.04 198.176 360.608 197.792 360.912C197.328 361.312 196.632 361.512 195.704 361.512C195.032 361.512 194.424 361.344 193.88 361.008C193.352 360.688 193.088 360.216 193.088 359.592C193.088 359.096 193.264 358.696 193.616 358.392C193.968 358.104 194.432 357.96 195.008 357.96C195.552 357.96 195.984 358.088 196.304 358.344C196.64 358.616 196.808 358.992 196.808 359.472C196.808 359.808 196.704 360.112 196.496 360.384C196.288 360.672 195.992 360.888 195.608 361.032C195.72 361.048 195.904 361.056 196.16 361.056C197.152 361.056 197.88 360.424 198.344 359.16L198.728 358.008L193.64 346.44C193.384 345.896 193.136 345.536 192.896 345.36C192.656 345.184 192.408 345.096 192.152 345.096V344.592C193.208 344.688 194.304 344.736 195.44 344.736C196.384 344.736 197.496 344.688 198.776 344.592V345.096C198.264 345.096 197.88 345.136 197.624 345.216C197.384 345.28 197.264 345.464 197.264 345.768C197.264 345.944 197.32 346.168 197.432 346.44L200.36 353.52L202.016 348.912C202.272 348.16 202.4 347.52 202.4 346.992C202.4 345.824 201.808 345.184 200.624 345.072V344.592C201.376 344.64 202.152 344.664 202.952 344.664ZM207.023 353.64C207.807 353.64 208.375 353.92 208.727 354.48C208.887 354.72 209.015 355.016 209.111 355.368C209.207 355.72 209.255 356.088 209.255 356.472C209.255 357.304 209.039 358.056 208.607 358.728C208.191 359.4 207.567 359.928 206.735 360.312L206.519 359.88C206.983 359.688 207.383 359.392 207.719 358.992C208.071 358.592 208.279 358.184 208.343 357.768C208.391 357.576 208.415 357.392 208.415 357.216C208.415 357.056 208.391 356.904 208.343 356.76C207.991 357.144 207.527 357.336 206.951 357.336C206.391 357.336 205.935 357.176 205.583 356.856C205.231 356.52 205.055 356.064 205.055 355.488C205.055 354.944 205.239 354.504 205.607 354.168C205.975 353.816 206.447 353.64 207.023 353.64ZM225.236 343.68C225.236 345.552 225.268 346.896 225.332 347.712C224.996 347.632 223.884 347.592 221.996 347.592H218.3L217.916 351.696C218.844 351.056 220.052 350.736 221.54 350.736C223.076 350.736 224.236 351.088 225.02 351.792C225.82 352.496 226.22 353.408 226.22 354.528C226.22 355.712 225.756 356.76 224.828 357.672C223.9 358.6 222.7 359.312 221.228 359.808C219.772 360.304 218.268 360.552 216.716 360.552V360.12C217.724 360.104 218.684 359.88 219.596 359.448C220.508 359.032 221.244 358.408 221.804 357.576C222.364 356.76 222.644 355.792 222.644 354.672C222.644 353.664 222.404 352.896 221.924 352.368C221.46 351.824 220.78 351.552 219.884 351.552C219.452 351.552 219.068 351.608 218.732 351.72C218.396 351.832 218.06 352.008 217.724 352.248L217.388 352.032L218.156 344.52C218.476 344.584 218.908 344.616 219.452 344.616H223.412C223.876 344.616 224.196 344.552 224.372 344.424C224.564 344.28 224.684 344.032 224.732 343.68H225.236ZM236.204 344.256C237.036 344.256 237.772 344.48 238.412 344.928C239.068 345.376 239.58 346.048 239.948 346.944C240.316 347.84 240.5 348.936 240.5 350.232C240.5 352.52 239.996 354.28 238.988 355.512C237.996 356.728 236.644 357.336 234.932 357.336C234.452 357.336 233.996 357.272 233.564 357.144C233.148 357.016 232.788 356.824 232.484 356.568V358.968C232.484 359.672 232.66 360.16 233.012 360.432C233.364 360.704 233.908 360.84 234.644 360.84V361.344L233.996 361.32C232.22 361.272 231.092 361.248 230.612 361.248C230.132 361.248 229.124 361.28 227.588 361.344V360.84C228.116 360.84 228.484 360.72 228.692 360.48C228.916 360.256 229.028 359.832 229.028 359.208V347.208C229.028 346.472 228.908 345.936 228.668 345.6C228.444 345.264 228.052 345.096 227.492 345.096V344.592C228.004 344.64 228.5 344.664 228.98 344.664C230.372 344.664 231.54 344.552 232.484 344.328V346.536C232.82 345.8 233.308 345.24 233.948 344.856C234.588 344.456 235.34 344.256 236.204 344.256ZM233.996 356.688C235.02 356.688 235.756 356.184 236.204 355.176C236.652 354.152 236.876 352.664 236.876 350.712C236.876 348.76 236.692 347.368 236.324 346.536C235.972 345.704 235.46 345.288 234.788 345.288C234.244 345.288 233.756 345.472 233.324 345.84C232.908 346.208 232.628 346.72 232.484 347.376V356.04C232.868 356.472 233.372 356.688 233.996 356.688ZM261.274 354.768C261.274 355.424 261.386 355.88 261.61 356.136C261.85 356.376 262.25 356.496 262.81 356.496V357C261.21 356.936 260.154 356.904 259.642 356.904C259.194 356.904 258.202 356.936 256.666 357V356.496C257.098 356.496 257.394 356.376 257.554 356.136C257.73 355.896 257.818 355.44 257.818 354.768V347.304C257.818 346.632 257.714 346.136 257.506 345.816C257.314 345.48 256.938 345.312 256.378 345.312C255.786 345.312 255.266 345.56 254.818 346.056C254.386 346.552 254.13 347.16 254.05 347.88V348.312V354.768C254.05 355.424 254.146 355.88 254.338 356.136C254.546 356.376 254.914 356.496 255.442 356.496V357C253.906 356.936 252.898 356.904 252.418 356.904C251.97 356.904 250.978 356.936 249.442 357V356.496C249.874 356.496 250.17 356.376 250.33 356.136C250.506 355.88 250.594 355.424 250.594 354.768V347.304C250.594 346.632 250.506 346.136 250.33 345.816C250.154 345.48 249.81 345.312 249.298 345.312C248.658 345.312 248.106 345.584 247.642 346.128C247.194 346.656 246.97 347.312 246.97 348.096V354.768C246.97 355.424 247.05 355.88 247.21 356.136C247.386 356.376 247.69 356.496 248.122 356.496V357C246.714 356.936 245.77 356.904 245.29 356.904C244.81 356.904 243.706 356.936 241.978 357V356.496C242.554 356.496 242.954 356.376 243.178 356.136C243.402 355.88 243.514 355.424 243.514 354.768V347.208C243.514 346.472 243.402 345.936 243.178 345.6C242.954 345.264 242.554 345.096 241.978 345.096V344.592C242.49 344.64 242.986 344.664 243.466 344.664C244.89 344.664 246.058 344.552 246.97 344.328V346.488C247.674 345 248.914 344.256 250.69 344.256C251.906 344.256 252.786 344.568 253.33 345.192C253.634 345.512 253.834 345.992 253.93 346.632C254.346 345.768 254.89 345.16 255.562 344.808C256.234 344.44 257.018 344.256 257.914 344.256C259.13 344.256 260.01 344.568 260.554 345.192C260.81 345.48 260.994 345.872 261.106 346.368C261.218 346.864 261.274 347.512 261.274 348.312V354.768ZM266.609 344.256C267.233 344.256 267.729 344.424 268.097 344.76C268.465 345.08 268.649 345.528 268.649 346.104C268.649 346.68 268.465 347.136 268.097 347.472C267.729 347.792 267.233 347.952 266.609 347.952C265.985 347.952 265.489 347.792 265.121 347.472C264.753 347.136 264.569 346.68 264.569 346.104C264.569 345.528 264.753 345.08 265.121 344.76C265.489 344.424 265.985 344.256 266.609 344.256ZM266.609 353.64C267.233 353.64 267.729 353.808 268.097 354.144C268.465 354.464 268.649 354.912 268.649 355.488C268.649 356.064 268.465 356.52 268.097 356.856C267.729 357.176 267.233 357.336 266.609 357.336C265.985 357.336 265.489 357.176 265.121 356.856C264.753 356.52 264.569 356.064 264.569 355.488C264.569 354.912 264.753 354.464 265.121 354.144C265.489 353.808 265.985 353.64 266.609 353.64Z" fill="#4F4F4F"/>
<path d="M123.558 564.056C124.294 564.056 124.902 564.032 125.382 563.984V564.464C124.646 564.768 123.878 565.696 123.078 567.248L120.246 572.864V578.456C120.246 579.064 120.286 579.504 120.366 579.776C120.462 580.048 120.63 580.232 120.87 580.328C121.11 580.424 121.502 580.488 122.046 580.52V581C121.182 580.952 119.95 580.928 118.35 580.928C116.638 580.928 115.398 580.952 114.63 581V580.52C115.158 580.488 115.542 580.424 115.782 580.328C116.038 580.232 116.206 580.048 116.286 579.776C116.382 579.504 116.43 579.064 116.43 578.456V574.4L111.798 565.832C111.302 564.936 110.838 564.488 110.406 564.488V563.984C111.11 564.064 112.054 564.104 113.238 564.104C114.726 564.104 116.23 564.064 117.75 563.984V564.488C117.19 564.488 116.742 564.544 116.406 564.656C116.086 564.752 115.926 564.936 115.926 565.208C115.926 565.352 115.982 565.528 116.094 565.736L119.742 572.768L121.614 569.024C122.238 567.76 122.55 566.768 122.55 566.048C122.55 565.504 122.374 565.112 122.022 564.872C121.686 564.632 121.198 564.496 120.558 564.464V563.984C121.646 564.032 122.646 564.056 123.558 564.056ZM130.35 568.256C132.19 568.256 133.63 568.784 134.67 569.84C135.71 570.88 136.23 572.536 136.23 574.808C136.23 577.08 135.71 578.736 134.67 579.776C133.63 580.816 132.19 581.336 130.35 581.336C128.526 581.336 127.086 580.816 126.03 579.776C124.99 578.736 124.47 577.08 124.47 574.808C124.47 572.536 124.99 570.88 126.03 569.84C127.086 568.784 128.526 568.256 130.35 568.256ZM130.35 568.736C129.662 568.736 129.11 569.24 128.694 570.248C128.294 571.24 128.094 572.76 128.094 574.808C128.094 576.856 128.294 578.376 128.694 579.368C129.11 580.36 129.662 580.856 130.35 580.856C131.054 580.856 131.606 580.368 132.006 579.392C132.406 578.4 132.606 576.872 132.606 574.808C132.606 572.744 132.398 571.216 131.982 570.224C131.582 569.232 131.038 568.736 130.35 568.736ZM149.68 578.384C149.68 579.12 149.792 579.656 150.016 579.992C150.256 580.328 150.656 580.496 151.216 580.496V581C150.72 580.952 150.224 580.928 149.728 580.928C148.336 580.928 147.168 581.04 146.224 581.264V579.104C145.488 580.592 144.2 581.336 142.36 581.336C141.16 581.336 140.288 581.024 139.744 580.4C139.488 580.096 139.296 579.704 139.168 579.224C139.056 578.728 139 578.08 139 577.28V571.208C139 570.472 138.88 569.936 138.64 569.6C138.416 569.264 138.024 569.096 137.464 569.096V568.592C137.96 568.64 138.456 568.664 138.952 568.664C140.344 568.664 141.512 568.552 142.456 568.328V578.264C142.456 578.936 142.552 579.44 142.744 579.776C142.952 580.112 143.336 580.28 143.896 580.28C144.536 580.28 145.08 580.016 145.528 579.488C145.992 578.944 146.224 578.28 146.224 577.496V571.208C146.224 570.472 146.104 569.936 145.864 569.6C145.64 569.264 145.248 569.096 144.688 569.096V568.592C145.2 568.64 145.696 568.664 146.176 568.664C147.568 568.664 148.736 568.552 149.68 568.328V578.384ZM174.397 579.944C173.965 580.44 173.501 580.792 173.005 581C172.509 581.224 171.909 581.336 171.205 581.336C170.277 581.336 169.541 581.144 168.997 580.76C168.469 580.36 168.125 579.688 167.965 578.744L167.533 576.344C167.325 575.176 167.069 574.32 166.765 573.776C166.477 573.216 165.989 572.936 165.301 572.936H163.741V578.456C163.741 579.064 163.781 579.504 163.861 579.776C163.957 580.048 164.125 580.232 164.365 580.328C164.605 580.424 164.997 580.488 165.541 580.52V581C164.677 580.952 163.469 580.928 161.917 580.928C160.205 580.928 158.941 580.952 158.125 581V580.52C158.653 580.488 159.037 580.424 159.277 580.328C159.533 580.232 159.701 580.048 159.781 579.776C159.877 579.504 159.925 579.064 159.925 578.456V566.552C159.925 565.944 159.877 565.504 159.781 565.232C159.701 564.96 159.533 564.776 159.277 564.68C159.037 564.584 158.653 564.52 158.125 564.488V564.008C158.941 564.056 160.157 564.08 161.773 564.08L164.437 564.056C164.757 564.04 165.125 564.032 165.541 564.032C167.749 564.032 169.405 564.392 170.509 565.112C171.629 565.832 172.189 566.864 172.189 568.208C172.189 569.344 171.773 570.344 170.941 571.208C170.109 572.072 168.733 572.616 166.813 572.84C168.253 572.968 169.325 573.28 170.029 573.776C170.733 574.272 171.189 575.016 171.397 576.008L171.949 578.48C172.077 579.12 172.221 579.568 172.381 579.824C172.557 580.08 172.797 580.208 173.101 580.208C173.293 580.192 173.453 580.144 173.581 580.064C173.725 579.984 173.885 579.848 174.061 579.656L174.397 579.944ZM165.229 564.488C164.797 564.488 164.477 564.544 164.269 564.656C164.077 564.768 163.941 564.968 163.861 565.256C163.781 565.544 163.741 565.976 163.741 566.552V572.456H164.773C166.085 572.456 166.981 572.112 167.461 571.424C167.957 570.72 168.205 569.736 168.205 568.472C168.205 567.16 167.973 566.168 167.509 565.496C167.045 564.824 166.285 564.488 165.229 564.488ZM181.558 579.368C182.87 579.368 183.926 578.728 184.726 577.448L185.158 577.592C184.838 578.632 184.262 579.52 183.43 580.256C182.614 580.976 181.59 581.336 180.358 581.336C178.662 581.336 177.31 580.8 176.302 579.728C175.31 578.64 174.814 577.04 174.814 574.928C174.814 572.768 175.35 571.12 176.422 569.984C177.494 568.832 178.918 568.256 180.694 568.256C183.702 568.256 185.206 570.032 185.206 573.584H178.462C178.446 573.824 178.438 574.2 178.438 574.712C178.438 575.768 178.582 576.648 178.87 577.352C179.174 578.056 179.558 578.568 180.022 578.888C180.502 579.208 181.014 579.368 181.558 579.368ZM180.55 568.76C179.974 568.76 179.494 569.12 179.11 569.84C178.742 570.544 178.51 571.64 178.414 573.128H182.182C182.214 571.864 182.086 570.824 181.798 570.008C181.526 569.176 181.11 568.76 180.55 568.76ZM192.836 568.256C193.428 568.256 193.988 568.32 194.516 568.448C195.044 568.576 195.484 568.752 195.836 568.976C196.252 569.232 196.572 569.56 196.796 569.96C197.036 570.344 197.156 570.768 197.156 571.232C197.156 571.792 196.98 572.256 196.628 572.624C196.276 572.976 195.82 573.152 195.26 573.152C194.7 573.152 194.252 572.992 193.916 572.672C193.58 572.352 193.412 571.92 193.412 571.376C193.412 570.896 193.564 570.48 193.868 570.128C194.172 569.776 194.548 569.536 194.996 569.408C194.868 569.232 194.668 569.096 194.396 569C194.14 568.888 193.86 568.832 193.556 568.832C192.596 568.832 191.844 569.36 191.3 570.416C190.772 571.456 190.508 572.824 190.508 574.52C190.508 576.232 190.812 577.464 191.42 578.216C192.028 578.968 192.788 579.344 193.7 579.344C194.244 579.344 194.788 579.2 195.332 578.912C195.892 578.624 196.396 578.12 196.844 577.4L197.252 577.544C196.932 578.584 196.372 579.48 195.572 580.232C194.772 580.968 193.74 581.336 192.476 581.336C190.828 581.336 189.484 580.792 188.444 579.704C187.404 578.616 186.884 577 186.884 574.856C186.884 573.448 187.14 572.248 187.652 571.256C188.164 570.264 188.868 569.52 189.764 569.024C190.66 568.512 191.684 568.256 192.836 568.256ZM205.558 579.368C206.87 579.368 207.926 578.728 208.726 577.448L209.158 577.592C208.838 578.632 208.262 579.52 207.43 580.256C206.614 580.976 205.59 581.336 204.358 581.336C202.662 581.336 201.31 580.8 200.302 579.728C199.31 578.64 198.814 577.04 198.814 574.928C198.814 572.768 199.35 571.12 200.422 569.984C201.494 568.832 202.918 568.256 204.694 568.256C207.702 568.256 209.206 570.032 209.206 573.584H202.462C202.446 573.824 202.438 574.2 202.438 574.712C202.438 575.768 202.582 576.648 202.87 577.352C203.174 578.056 203.558 578.568 204.022 578.888C204.502 579.208 205.014 579.368 205.558 579.368ZM204.55 568.76C203.974 568.76 203.494 569.12 203.11 569.84C202.742 570.544 202.51 571.64 202.414 573.128H206.182C206.214 571.864 206.086 570.824 205.798 570.008C205.526 569.176 205.11 568.76 204.55 568.76ZM213.716 562.4C214.388 562.4 214.916 562.568 215.3 562.904C215.7 563.224 215.9 563.672 215.9 564.248C215.9 564.824 215.7 565.28 215.3 565.616C214.916 565.936 214.388 566.096 213.716 566.096C213.044 566.096 212.508 565.936 212.108 565.616C211.724 565.28 211.532 564.824 211.532 564.248C211.532 563.672 211.724 563.224 212.108 562.904C212.508 562.568 213.044 562.4 213.716 562.4ZM215.588 578.768C215.588 579.424 215.7 579.88 215.924 580.136C216.164 580.376 216.564 580.496 217.124 580.496V581C215.524 580.936 214.46 580.904 213.932 580.904C213.436 580.904 212.324 580.936 210.596 581V580.496C211.172 580.496 211.572 580.376 211.796 580.136C212.02 579.88 212.132 579.424 212.132 578.768V571.208C212.132 570.472 212.02 569.936 211.796 569.6C211.572 569.264 211.172 569.096 210.596 569.096V568.592C211.108 568.64 211.604 568.664 212.084 568.664C213.508 568.664 214.676 568.552 215.588 568.328V578.768ZM227.816 568.664C228.632 568.664 229.248 568.64 229.664 568.592V569.072C229.328 569.168 229.024 569.376 228.752 569.696C228.496 570 228.248 570.48 228.008 571.136L224.504 581.048C224.328 581.032 224.064 581.024 223.712 581.024C223.376 581.024 223.12 581.032 222.944 581.048L218.672 570.44C218.448 569.896 218.216 569.536 217.976 569.36C217.752 569.184 217.52 569.096 217.28 569.096V568.592C218.4 568.672 219.536 568.712 220.688 568.712C221.696 568.712 222.736 568.672 223.808 568.592V569.096C223.264 569.096 222.872 569.136 222.632 569.216C222.408 569.28 222.296 569.472 222.296 569.792C222.296 569.92 222.336 570.12 222.416 570.392L225.152 577.664L226.88 572.912C227.136 572.16 227.264 571.512 227.264 570.968C227.264 569.8 226.68 569.168 225.512 569.072V568.592C226.248 568.64 227.016 568.664 227.816 568.664ZM236.964 579.368C238.276 579.368 239.332 578.728 240.132 577.448L240.564 577.592C240.244 578.632 239.668 579.52 238.836 580.256C238.02 580.976 236.996 581.336 235.764 581.336C234.068 581.336 232.716 580.8 231.708 579.728C230.716 578.64 230.22 577.04 230.22 574.928C230.22 572.768 230.756 571.12 231.828 569.984C232.9 568.832 234.324 568.256 236.1 568.256C239.108 568.256 240.612 570.032 240.612 573.584H233.868C233.852 573.824 233.844 574.2 233.844 574.712C233.844 575.768 233.988 576.648 234.276 577.352C234.58 578.056 234.964 578.568 235.428 578.888C235.908 579.208 236.42 579.368 236.964 579.368ZM235.956 568.76C235.38 568.76 234.9 569.12 234.516 569.84C234.148 570.544 233.916 571.64 233.82 573.128H237.588C237.62 571.864 237.492 570.824 237.204 570.008C236.932 569.176 236.516 568.76 235.956 568.76Z" fill="#4F4F4F"/>
<path d="M103.778 630.924C104.306 630.924 104.72 631.044 105.02 631.284C105.332 631.524 105.488 631.83 105.488 632.202C105.488 632.514 105.368 632.802 105.128 633.066C104.9 633.318 104.618 633.444 104.282 633.444C104.054 633.444 103.874 633.39 103.742 633.282C103.61 633.174 103.55 633.024 103.562 632.832C103.562 632.544 103.652 632.298 103.832 632.094C104.024 631.878 104.276 631.722 104.588 631.626C104.588 631.518 104.504 631.422 104.336 631.338C104.18 631.242 103.988 631.194 103.76 631.194C103.4 631.194 103.052 631.35 102.716 631.662C102.464 631.89 102.254 632.256 102.086 632.76C101.918 633.252 101.708 633.984 101.456 634.956L101.258 635.73V635.748H103.382L103.274 636.108H101.15L97.9278 648.132C97.2798 648.156 96.7398 648.24 96.3078 648.384L99.5838 636.108H97.9638L98.0718 635.748H99.6918V635.73C99.9558 634.746 100.226 633.948 100.502 633.336C100.79 632.712 101.132 632.208 101.528 631.824C101.804 631.548 102.14 631.332 102.536 631.176C102.944 631.008 103.358 630.924 103.778 630.924ZM102.919 642.426C102.919 641.478 103.129 640.464 103.549 639.384C103.969 638.292 104.575 637.374 105.367 636.63C106.159 635.874 107.077 635.496 108.121 635.496C108.889 635.496 109.489 635.736 109.921 636.216C110.365 636.684 110.587 637.386 110.587 638.322C110.587 639.27 110.377 640.29 109.957 641.382C109.537 642.462 108.931 643.38 108.139 644.136C107.347 644.88 106.429 645.252 105.385 645.252C104.617 645.252 104.011 645.018 103.567 644.55C103.135 644.07 102.919 643.362 102.919 642.426ZM108.013 635.856C107.401 635.856 106.819 636.246 106.267 637.026C105.727 637.806 105.289 638.784 104.953 639.96C104.629 641.124 104.467 642.246 104.467 643.326C104.467 643.866 104.551 644.262 104.719 644.514C104.887 644.766 105.145 644.892 105.493 644.892C106.105 644.892 106.681 644.502 107.221 643.722C107.773 642.942 108.211 641.97 108.535 640.806C108.871 639.63 109.039 638.502 109.039 637.422C109.039 636.882 108.955 636.486 108.787 636.234C108.619 635.982 108.361 635.856 108.013 635.856ZM118.44 635.496C118.764 635.496 119.022 635.592 119.214 635.784C119.406 635.976 119.502 636.222 119.502 636.522C119.502 636.882 119.376 637.188 119.124 637.44C118.872 637.692 118.578 637.818 118.242 637.818C118.026 637.818 117.852 637.764 117.72 637.656C117.588 637.536 117.522 637.374 117.522 637.17C117.522 636.894 117.594 636.66 117.738 636.468C117.882 636.276 118.08 636.126 118.332 636.018C118.284 635.97 118.218 635.946 118.134 635.946C117.486 635.946 116.778 636.648 116.01 638.052C115.254 639.444 114.54 641.286 113.868 643.578L113.508 645H111.942L114.102 637.278C114.186 637.014 114.228 636.78 114.228 636.576C114.228 636.3 114.102 636.162 113.85 636.162C113.586 636.162 113.34 636.306 113.112 636.594C112.896 636.87 112.674 637.338 112.446 637.998L112.212 638.664H111.87L112.32 637.35C112.752 636.114 113.478 635.496 114.498 635.496C115.182 635.496 115.524 635.844 115.524 636.54C115.524 636.876 115.44 637.368 115.272 638.016L114.696 640.284C115.344 638.544 115.95 637.314 116.514 636.594C117.09 635.862 117.732 635.496 118.44 635.496ZM125.725 643.47C125.689 643.614 125.671 643.746 125.671 643.866C125.671 644.106 125.743 644.286 125.887 644.406C126.031 644.526 126.217 644.586 126.445 644.586C126.745 644.586 127.021 644.46 127.273 644.208C127.537 643.944 127.795 643.47 128.047 642.786L128.299 642.084H128.641L128.263 643.218C128.011 643.962 127.681 644.49 127.273 644.802C126.877 645.102 126.385 645.252 125.797 645.252C125.257 645.252 124.855 645.12 124.591 644.856C124.327 644.592 124.195 644.226 124.195 643.758C124.195 643.446 124.249 643.104 124.357 642.732L126.265 636.108H124.645L124.735 635.748H126.355L127.147 633.012C127.795 632.988 128.335 632.904 128.767 632.76L127.921 635.748H130.297L130.243 636.108H127.813L125.725 643.47ZM138.342 642.084L137.892 643.398C137.46 644.634 136.734 645.252 135.714 645.252C134.874 645.252 134.454 644.88 134.454 644.136C134.454 643.776 134.55 643.308 134.742 642.732L136.452 637.584C136.572 637.248 136.632 636.948 136.632 636.684C136.632 636.276 136.44 636.072 136.056 636.072C135.612 636.072 135.132 636.354 134.616 636.918C134.112 637.47 133.602 638.25 133.086 639.258C132.57 640.266 132.09 641.436 131.646 642.768L130.998 645H129.432L132.996 632.994C133.056 632.79 133.086 632.628 133.086 632.508C133.086 632.268 132.99 632.094 132.798 631.986C132.606 631.866 132.288 631.806 131.844 631.806L131.952 631.428C133.2 631.416 134.28 631.17 135.192 630.69L132.582 639.618C133.23 638.154 133.878 637.104 134.526 636.468C135.174 635.82 135.882 635.496 136.65 635.496C137.622 635.496 138.108 635.952 138.108 636.864C138.108 637.248 138.018 637.698 137.838 638.214L136.092 643.47C135.996 643.758 135.948 643.986 135.948 644.154C135.948 644.442 136.092 644.586 136.38 644.586C136.62 644.586 136.848 644.454 137.064 644.19C137.292 643.914 137.526 643.434 137.766 642.75L138 642.084H138.342ZM142.628 632.706C142.628 632.346 142.76 632.028 143.024 631.752C143.3 631.464 143.612 631.32 143.96 631.32C144.236 631.32 144.458 631.41 144.626 631.59C144.794 631.77 144.878 631.992 144.878 632.256C144.878 632.616 144.74 632.934 144.464 633.21C144.188 633.486 143.876 633.624 143.528 633.624C143.264 633.624 143.048 633.54 142.88 633.372C142.712 633.192 142.628 632.97 142.628 632.706ZM142.088 637.278C142.184 636.99 142.232 636.768 142.232 636.612C142.232 636.312 142.1 636.162 141.836 636.162C141.56 636.162 141.314 636.306 141.098 636.594C140.882 636.882 140.654 637.35 140.414 637.998L140.162 638.664H139.82L140.288 637.35C140.528 636.666 140.846 636.186 141.242 635.91C141.65 635.634 142.076 635.496 142.52 635.496C143.312 635.496 143.708 635.874 143.708 636.63C143.708 637.026 143.612 637.488 143.42 638.016L141.494 643.47C141.398 643.758 141.35 643.98 141.35 644.136C141.35 644.436 141.494 644.586 141.782 644.586C142.034 644.586 142.268 644.448 142.484 644.172C142.7 643.896 142.934 643.422 143.186 642.75L143.438 642.084H143.78L143.312 643.398C143.072 644.058 142.754 644.532 142.358 644.82C141.974 645.108 141.554 645.252 141.098 645.252C140.258 645.252 139.838 644.886 139.838 644.154C139.838 643.806 139.946 643.332 140.162 642.732L142.088 637.278ZM145.738 644.73C145.858 644.79 145.972 644.832 146.08 644.856C146.2 644.88 146.362 644.892 146.566 644.892C147.106 644.892 147.544 644.73 147.88 644.406C148.216 644.082 148.384 643.626 148.384 643.038C148.384 642.654 148.312 642.282 148.168 641.922C148.024 641.55 147.784 641.13 147.448 640.662C147.04 640.11 146.74 639.66 146.548 639.312C146.368 638.952 146.278 638.532 146.278 638.052C146.278 637.56 146.404 637.122 146.656 636.738C146.908 636.342 147.244 636.036 147.664 635.82C148.096 635.604 148.564 635.496 149.068 635.496C149.692 635.496 150.214 635.616 150.634 635.856C151.054 636.084 151.264 636.486 151.264 637.062C151.264 637.278 151.192 637.488 151.048 637.692C150.916 637.896 150.712 637.998 150.436 637.998C150.232 637.998 150.058 637.926 149.914 637.782C149.782 637.638 149.716 637.458 149.716 637.242C149.716 636.858 149.884 636.456 150.22 636.036C149.992 635.892 149.692 635.82 149.32 635.82C148.864 635.82 148.486 635.976 148.186 636.288C147.898 636.588 147.754 637.002 147.754 637.53C147.754 637.842 147.808 638.112 147.916 638.34C148.024 638.556 148.222 638.88 148.51 639.312L148.834 639.78C149.194 640.332 149.458 640.806 149.626 641.202C149.806 641.598 149.896 642.006 149.896 642.426C149.896 642.966 149.752 643.452 149.464 643.884C149.188 644.316 148.81 644.652 148.33 644.892C147.862 645.132 147.352 645.252 146.8 645.252C146.116 645.252 145.54 645.108 145.072 644.82C144.604 644.52 144.37 644.07 144.37 643.47C144.37 643.266 144.43 643.08 144.55 642.912C144.658 642.744 144.832 642.66 145.072 642.66C145.336 642.66 145.534 642.768 145.666 642.984C145.798 643.2 145.864 643.47 145.864 643.794C145.864 643.998 145.822 644.31 145.738 644.73ZM167.226 637.62C167.322 638.016 167.37 638.52 167.37 639.132C167.37 640.104 167.208 641.058 166.884 641.994C166.572 642.93 166.08 643.71 165.408 644.334C164.748 644.946 163.926 645.252 162.942 645.252C161.994 645.252 161.358 644.886 161.034 644.154C160.218 644.886 159.39 645.252 158.55 645.252C157.782 645.252 157.218 645.06 156.858 644.676C156.498 644.28 156.318 643.788 156.318 643.2C156.318 642.18 156.822 641.076 157.83 639.888C158.838 638.688 160.056 637.554 161.484 636.486C161.448 636.498 161.31 636.582 161.07 636.738C160.734 636.942 160.47 637.092 160.278 637.188C160.086 637.272 159.906 637.314 159.738 637.314C159.594 637.314 159.462 637.278 159.342 637.206C159.234 637.134 159.168 637.092 159.144 637.08C158.928 636.936 158.748 636.864 158.604 636.864C158.412 636.864 158.25 636.948 158.118 637.116C157.986 637.272 157.854 637.56 157.722 637.98L157.506 638.646H157.164L157.578 637.332C157.794 636.66 158.04 636.186 158.316 635.91C158.604 635.634 158.916 635.496 159.252 635.496C159.408 635.496 159.54 635.526 159.648 635.586C159.756 635.634 159.894 635.718 160.062 635.838C160.242 635.958 160.386 636.048 160.494 636.108C160.614 636.168 160.752 636.198 160.908 636.198C161.196 636.198 161.454 636.156 161.682 636.072C161.91 635.976 162.132 635.832 162.348 635.64L162.6 635.298L162.978 635.478C161.514 636.714 160.332 637.962 159.432 639.222C158.532 640.482 158.082 641.772 158.082 643.092C158.082 643.668 158.166 644.082 158.334 644.334C158.502 644.586 158.748 644.712 159.072 644.712C159.372 644.712 159.678 644.64 159.99 644.496C160.314 644.352 160.626 644.136 160.926 643.848C160.842 643.512 160.8 643.158 160.8 642.786C160.8 642.114 160.944 641.448 161.232 640.788C161.532 640.128 161.886 639.588 162.294 639.168C162.714 638.748 163.092 638.538 163.428 638.538C163.668 638.538 163.83 638.664 163.914 638.916C164.01 639.168 164.058 639.462 164.058 639.798C164.058 640.446 163.884 641.1 163.536 641.76C163.188 642.42 162.672 643.014 161.988 643.542C162.264 644.334 162.744 644.73 163.428 644.73C164.196 644.73 164.844 644.436 165.372 643.848C165.912 643.26 166.314 642.534 166.578 641.67C166.842 640.806 166.974 639.966 166.974 639.15C166.974 638.658 166.932 638.262 166.848 637.962C166.416 637.878 166.02 637.704 165.66 637.44C165.312 637.164 165.138 636.804 165.138 636.36C165.138 636.072 165.21 635.856 165.354 635.712C165.51 635.568 165.69 635.496 165.894 635.496C166.23 635.496 166.506 635.688 166.722 636.072C166.938 636.456 167.106 636.972 167.226 637.62ZM163.302 638.934C163.098 638.934 162.876 639.09 162.636 639.402C162.396 639.714 162.192 640.116 162.024 640.608C161.856 641.088 161.772 641.574 161.772 642.066C161.772 642.498 161.814 642.882 161.898 643.218C162.438 642.774 162.864 642.246 163.176 641.634C163.488 641.01 163.644 640.392 163.644 639.78C163.644 639.216 163.53 638.934 163.302 638.934ZM175.894 636.684C175.894 637.656 175.348 638.508 174.256 639.24C173.164 639.972 171.916 640.566 170.512 641.022C170.38 641.622 170.314 642.204 170.314 642.768C170.314 643.92 170.728 644.496 171.556 644.496C172.588 644.496 173.512 643.896 174.328 642.696L174.616 642.84C174.232 643.5 173.71 644.07 173.05 644.55C172.402 645.018 171.718 645.252 170.998 645.252C170.254 645.252 169.672 645.036 169.252 644.604C168.832 644.172 168.622 643.542 168.622 642.714C168.622 641.802 168.886 640.776 169.414 639.636C169.954 638.484 170.68 637.506 171.592 636.702C172.504 635.898 173.494 635.496 174.562 635.496C174.946 635.496 175.264 635.598 175.516 635.802C175.768 636.006 175.894 636.3 175.894 636.684ZM174.166 635.838C173.782 635.838 173.35 636.066 172.87 636.522C172.402 636.966 171.958 637.56 171.538 638.304C171.13 639.048 170.818 639.84 170.602 640.68C171.742 640.284 172.558 639.9 173.05 639.528C173.494 639.18 173.836 638.76 174.076 638.268C174.328 637.764 174.454 637.224 174.454 636.648C174.454 636.324 174.43 636.108 174.382 636C174.334 635.892 174.262 635.838 174.166 635.838ZM183.611 636.684C183.611 637.656 183.065 638.508 181.973 639.24C180.881 639.972 179.633 640.566 178.229 641.022C178.097 641.622 178.031 642.204 178.031 642.768C178.031 643.92 178.445 644.496 179.273 644.496C180.305 644.496 181.229 643.896 182.045 642.696L182.333 642.84C181.949 643.5 181.427 644.07 180.767 644.55C180.119 645.018 179.435 645.252 178.715 645.252C177.971 645.252 177.389 645.036 176.969 644.604C176.549 644.172 176.339 643.542 176.339 642.714C176.339 641.802 176.603 640.776 177.131 639.636C177.671 638.484 178.397 637.506 179.309 636.702C180.221 635.898 181.211 635.496 182.279 635.496C182.663 635.496 182.981 635.598 183.233 635.802C183.485 636.006 183.611 636.3 183.611 636.684ZM181.883 635.838C181.499 635.838 181.067 636.066 180.587 636.522C180.119 636.966 179.675 637.56 179.255 638.304C178.847 639.048 178.535 639.84 178.319 640.68C179.459 640.284 180.275 639.9 180.767 639.528C181.211 639.18 181.553 638.76 181.793 638.268C182.045 637.764 182.171 637.224 182.171 636.648C182.171 636.324 182.147 636.108 182.099 636C182.051 635.892 181.979 635.838 181.883 635.838ZM191.616 635.496C191.976 635.496 192.24 635.586 192.408 635.766C192.588 635.946 192.678 636.18 192.678 636.468C192.678 636.732 192.588 637.008 192.408 637.296C192.24 637.572 191.982 637.71 191.634 637.71C191.394 637.71 191.214 637.644 191.094 637.512C190.986 637.368 190.932 637.194 190.932 636.99C190.932 636.822 190.986 636.636 191.094 636.432C191.202 636.216 191.34 636.03 191.508 635.874H191.472C191.34 635.874 191.226 635.898 191.13 635.946C191.034 635.982 190.926 636.042 190.806 636.126C190.638 636.258 190.488 636.432 190.356 636.648C190.236 636.852 190.098 637.134 189.942 637.494C189.642 638.13 189.336 638.634 189.024 639.006C188.724 639.378 188.286 639.63 187.71 639.762C188.466 639.798 189.084 639.96 189.564 640.248C190.056 640.524 190.302 640.962 190.302 641.562C190.302 641.706 190.284 641.868 190.248 642.048L189.888 643.848C189.864 643.944 189.852 644.064 189.852 644.208C189.852 644.34 189.882 644.436 189.942 644.496C190.002 644.556 190.104 644.586 190.248 644.586C190.488 644.586 190.71 644.448 190.914 644.172C191.13 643.884 191.352 643.41 191.58 642.75L191.796 642.084H192.138L191.706 643.398C191.31 644.634 190.596 645.252 189.564 645.252C189.216 645.252 188.934 645.156 188.718 644.964C188.502 644.772 188.394 644.478 188.394 644.082C188.394 643.902 188.418 643.722 188.466 643.542L188.79 641.994C188.85 641.718 188.88 641.496 188.88 641.328C188.88 640.872 188.718 640.53 188.394 640.302C188.07 640.074 187.524 639.93 186.756 639.87L185.244 645H183.678L187.242 632.994C187.302 632.79 187.332 632.628 187.332 632.508C187.332 632.268 187.236 632.094 187.044 631.986C186.852 631.866 186.534 631.806 186.09 631.806L186.198 631.428C187.446 631.416 188.526 631.17 189.438 630.69L186.81 639.654C187.374 639.606 187.83 639.474 188.178 639.258C188.526 639.042 188.79 638.79 188.97 638.502C189.162 638.214 189.366 637.836 189.582 637.368C189.738 637.008 189.882 636.714 190.014 636.486C190.158 636.258 190.332 636.066 190.536 635.91C190.908 635.634 191.268 635.496 191.616 635.496ZM199.492 643.47C199.42 643.722 199.384 643.932 199.384 644.1C199.384 644.424 199.522 644.586 199.798 644.586C200.038 644.586 200.26 644.448 200.464 644.172C200.68 643.896 200.908 643.422 201.148 642.75L201.382 642.084H201.724L201.274 643.398C200.854 644.634 200.134 645.252 199.114 645.252C198.286 645.252 197.872 644.862 197.872 644.082C197.872 643.782 197.956 643.332 198.124 642.732L201.058 632.994C201.118 632.778 201.148 632.61 201.148 632.49C201.148 632.25 201.052 632.076 200.86 631.968C200.68 631.86 200.368 631.806 199.924 631.806L200.05 631.428C200.686 631.416 201.256 631.35 201.76 631.23C202.276 631.11 202.774 630.93 203.254 630.69L199.492 643.47ZM203.026 642.426C203.026 641.478 203.236 640.464 203.656 639.384C204.076 638.292 204.682 637.374 205.474 636.63C206.266 635.874 207.184 635.496 208.228 635.496C208.996 635.496 209.596 635.736 210.028 636.216C210.472 636.684 210.694 637.386 210.694 638.322C210.694 639.27 210.484 640.29 210.064 641.382C209.644 642.462 209.038 643.38 208.246 644.136C207.454 644.88 206.536 645.252 205.492 645.252C204.724 645.252 204.118 645.018 203.674 644.55C203.242 644.07 203.026 643.362 203.026 642.426ZM208.12 635.856C207.508 635.856 206.926 636.246 206.374 637.026C205.834 637.806 205.396 638.784 205.06 639.96C204.736 641.124 204.574 642.246 204.574 643.326C204.574 643.866 204.658 644.262 204.826 644.514C204.994 644.766 205.252 644.892 205.6 644.892C206.212 644.892 206.788 644.502 207.328 643.722C207.88 642.942 208.318 641.97 208.642 640.806C208.978 639.63 209.146 638.502 209.146 637.422C209.146 636.882 209.062 636.486 208.894 636.234C208.726 635.982 208.468 635.856 208.12 635.856ZM213.616 643.47C213.58 643.614 213.562 643.746 213.562 643.866C213.562 644.106 213.634 644.286 213.778 644.406C213.922 644.526 214.108 644.586 214.336 644.586C214.636 644.586 214.912 644.46 215.164 644.208C215.428 643.944 215.686 643.47 215.938 642.786L216.189 642.084H216.532L216.154 643.218C215.902 643.962 215.572 644.49 215.164 644.802C214.768 645.102 214.276 645.252 213.688 645.252C213.148 645.252 212.746 645.12 212.482 644.856C212.218 644.592 212.086 644.226 212.086 643.758C212.086 643.446 212.14 643.104 212.248 642.732L214.156 636.108H212.536L212.625 635.748H214.246L215.038 633.012C215.686 632.988 216.226 632.904 216.658 632.76L215.812 635.748H218.188L218.134 636.108H215.704L213.616 643.47ZM219.662 643.47C219.626 643.614 219.608 643.746 219.608 643.866C219.608 644.106 219.68 644.286 219.824 644.406C219.968 644.526 220.154 644.586 220.382 644.586C220.682 644.586 220.958 644.46 221.21 644.208C221.474 643.944 221.732 643.47 221.984 642.786L222.236 642.084H222.578L222.2 643.218C221.948 643.962 221.618 644.49 221.21 644.802C220.814 645.102 220.322 645.252 219.734 645.252C219.194 645.252 218.792 645.12 218.528 644.856C218.264 644.592 218.132 644.226 218.132 643.758C218.132 643.446 218.186 643.104 218.294 642.732L220.202 636.108H218.582L218.672 635.748H220.292L221.084 633.012C221.732 632.988 222.272 632.904 222.704 632.76L221.858 635.748H224.234L224.18 636.108H221.75L219.662 643.47ZM231.019 636.684C231.019 637.656 230.473 638.508 229.381 639.24C228.289 639.972 227.041 640.566 225.637 641.022C225.505 641.622 225.439 642.204 225.439 642.768C225.439 643.92 225.853 644.496 226.681 644.496C227.713 644.496 228.637 643.896 229.453 642.696L229.741 642.84C229.357 643.5 228.835 644.07 228.175 644.55C227.527 645.018 226.843 645.252 226.123 645.252C225.379 645.252 224.797 645.036 224.377 644.604C223.957 644.172 223.747 643.542 223.747 642.714C223.747 641.802 224.011 640.776 224.539 639.636C225.079 638.484 225.805 637.506 226.717 636.702C227.629 635.898 228.619 635.496 229.687 635.496C230.071 635.496 230.389 635.598 230.641 635.802C230.893 636.006 231.019 636.3 231.019 636.684ZM229.291 635.838C228.907 635.838 228.475 636.066 227.995 636.522C227.527 636.966 227.083 637.56 226.663 638.304C226.255 639.048 225.943 639.84 225.727 640.68C226.867 640.284 227.683 639.9 228.175 639.528C228.619 639.18 228.961 638.76 229.201 638.268C229.453 637.764 229.579 637.224 229.579 636.648C229.579 636.324 229.555 636.108 229.507 636C229.459 635.892 229.387 635.838 229.291 635.838ZM238.358 635.496C238.682 635.496 238.94 635.592 239.132 635.784C239.324 635.976 239.42 636.222 239.42 636.522C239.42 636.882 239.294 637.188 239.042 637.44C238.79 637.692 238.496 637.818 238.16 637.818C237.944 637.818 237.77 637.764 237.638 637.656C237.506 637.536 237.44 637.374 237.44 637.17C237.44 636.894 237.512 636.66 237.656 636.468C237.8 636.276 237.998 636.126 238.25 636.018C238.202 635.97 238.136 635.946 238.052 635.946C237.404 635.946 236.696 636.648 235.928 638.052C235.172 639.444 234.458 641.286 233.786 643.578L233.426 645H231.86L234.02 637.278C234.104 637.014 234.146 636.78 234.146 636.576C234.146 636.3 234.02 636.162 233.768 636.162C233.504 636.162 233.258 636.306 233.03 636.594C232.814 636.87 232.592 637.338 232.364 637.998L232.13 638.664H231.788L232.238 637.35C232.67 636.114 233.396 635.496 234.416 635.496C235.1 635.496 235.442 635.844 235.442 636.54C235.442 636.876 235.358 637.368 235.19 638.016L234.614 640.284C235.262 638.544 235.868 637.314 236.432 636.594C237.008 635.862 237.65 635.496 238.358 635.496ZM246.022 635.496C246.346 635.496 246.604 635.592 246.796 635.784C246.988 635.976 247.084 636.222 247.084 636.522C247.084 636.882 246.958 637.188 246.706 637.44C246.454 637.692 246.16 637.818 245.824 637.818C245.608 637.818 245.434 637.764 245.302 637.656C245.17 637.536 245.104 637.374 245.104 637.17C245.104 636.894 245.176 636.66 245.32 636.468C245.464 636.276 245.662 636.126 245.914 636.018C245.866 635.97 245.8 635.946 245.716 635.946C245.068 635.946 244.36 636.648 243.592 638.052C242.836 639.444 242.122 641.286 241.45 643.578L241.09 645H239.524L241.684 637.278C241.768 637.014 241.81 636.78 241.81 636.576C241.81 636.3 241.684 636.162 241.432 636.162C241.168 636.162 240.922 636.306 240.694 636.594C240.478 636.87 240.256 637.338 240.028 637.998L239.794 638.664H239.452L239.902 637.35C240.334 636.114 241.06 635.496 242.08 635.496C242.764 635.496 243.106 635.844 243.106 636.54C243.106 636.876 243.022 637.368 242.854 638.016L242.278 640.284C242.926 638.544 243.532 637.314 244.096 636.594C244.672 635.862 245.314 635.496 246.022 635.496ZM253.884 635.496C254.508 635.496 254.82 635.982 254.82 636.954C254.82 638.094 254.466 639.414 253.758 640.914C253.05 642.414 252.222 643.758 251.274 644.946C250.158 646.338 248.976 647.334 247.728 647.934C247.092 648.234 246.57 648.384 246.162 648.384C245.91 648.384 245.7 648.318 245.532 648.186C245.352 648.054 245.262 647.874 245.262 647.646C245.262 647.394 245.358 647.196 245.55 647.052C245.742 646.908 245.97 646.836 246.234 646.836C246.486 646.836 246.726 646.896 246.954 647.016C247.194 647.148 247.452 647.322 247.728 647.538C248.664 647.034 249.564 646.314 250.428 645.378L249.096 637.314C249.036 636.942 248.964 636.684 248.88 636.54C248.796 636.396 248.676 636.324 248.52 636.324C248.364 636.324 248.202 636.444 248.034 636.684C247.878 636.912 247.686 637.344 247.458 637.98L247.224 638.646H246.882L247.332 637.332C247.752 636.108 248.442 635.496 249.402 635.496C249.786 635.496 250.074 635.616 250.266 635.856C250.47 636.096 250.614 636.528 250.698 637.152L251.616 643.92C252.276 643.008 252.846 642.054 253.326 641.058C253.806 640.05 254.142 639.054 254.334 638.07C253.974 637.878 253.656 637.644 253.38 637.368C253.104 637.08 252.966 636.762 252.966 636.414C252.966 636.138 253.05 635.916 253.218 635.748C253.398 635.58 253.62 635.496 253.884 635.496Z" fill="#4F4F4F"/>
<path d="M122.266 149.141C122.266 148.182 121.927 147.375 121.25 146.719C120.583 146.062 119.453 145.469 117.859 144.938C115.641 144.26 114.021 143.38 113 142.297C111.99 141.203 111.484 139.818 111.484 138.141C111.484 136.432 111.979 135.031 112.969 133.938C113.969 132.844 115.339 132.193 117.078 131.984V128.562H119.406V132C121.156 132.24 122.516 132.974 123.484 134.203C124.464 135.432 124.953 137.115 124.953 139.25H122.078C122.078 137.781 121.729 136.615 121.031 135.75C120.333 134.885 119.391 134.453 118.203 134.453C116.964 134.453 116.016 134.776 115.359 135.422C114.703 136.057 114.375 136.948 114.375 138.094C114.375 139.156 114.719 140.005 115.406 140.641C116.104 141.266 117.245 141.839 118.828 142.359C120.422 142.87 121.661 143.438 122.547 144.062C123.443 144.677 124.099 145.396 124.516 146.219C124.943 147.042 125.156 148.005 125.156 149.109C125.156 150.87 124.625 152.286 123.562 153.359C122.51 154.432 121.031 155.068 119.125 155.266V158.25H116.812V155.266C114.875 155.089 113.354 154.401 112.25 153.203C111.156 151.995 110.609 150.359 110.609 148.297H113.5C113.5 149.745 113.88 150.859 114.641 151.641C115.401 152.422 116.479 152.812 117.875 152.812C119.24 152.812 120.312 152.484 121.094 151.828C121.875 151.172 122.266 150.276 122.266 149.141ZM138.25 155H135.344V135.734L129.516 137.875V135.25L137.797 132.141H138.25V155ZM160.984 145.297C160.984 148.682 160.406 151.198 159.25 152.844C158.094 154.49 156.286 155.312 153.828 155.312C151.401 155.312 149.604 154.51 148.438 152.906C147.271 151.292 146.667 148.885 146.625 145.688V141.828C146.625 138.484 147.203 136 148.359 134.375C149.516 132.75 151.328 131.938 153.797 131.938C156.245 131.938 158.047 132.724 159.203 134.297C160.359 135.859 160.953 138.276 160.984 141.547V145.297ZM158.094 141.344C158.094 138.896 157.75 137.115 157.062 136C156.375 134.875 155.286 134.312 153.797 134.312C152.318 134.312 151.24 134.87 150.562 135.984C149.885 137.099 149.536 138.812 149.516 141.125V145.75C149.516 148.208 149.87 150.026 150.578 151.203C151.297 152.37 152.38 152.953 153.828 152.953C155.255 152.953 156.312 152.401 157 151.297C157.698 150.193 158.062 148.453 158.094 146.078V141.344ZM178.953 145.297C178.953 148.682 178.375 151.198 177.219 152.844C176.062 154.49 174.255 155.312 171.797 155.312C169.37 155.312 167.573 154.51 166.406 152.906C165.24 151.292 164.635 148.885 164.594 145.688V141.828C164.594 138.484 165.172 136 166.328 134.375C167.484 132.75 169.297 131.938 171.766 131.938C174.214 131.938 176.016 132.724 177.172 134.297C178.328 135.859 178.922 138.276 178.953 141.547V145.297ZM176.062 141.344C176.062 138.896 175.719 137.115 175.031 136C174.344 134.875 173.255 134.312 171.766 134.312C170.286 134.312 169.208 134.87 168.531 135.984C167.854 137.099 167.505 138.812 167.484 141.125V145.75C167.484 148.208 167.839 150.026 168.547 151.203C169.266 152.37 170.349 152.953 171.797 152.953C173.224 152.953 174.281 152.401 174.969 151.297C175.667 150.193 176.031 148.453 176.062 146.078V141.344ZM196.922 145.297C196.922 148.682 196.344 151.198 195.188 152.844C194.031 154.49 192.224 155.312 189.766 155.312C187.339 155.312 185.542 154.51 184.375 152.906C183.208 151.292 182.604 148.885 182.562 145.688V141.828C182.562 138.484 183.141 136 184.297 134.375C185.453 132.75 187.266 131.938 189.734 131.938C192.182 131.938 193.984 132.724 195.141 134.297C196.297 135.859 196.891 138.276 196.922 141.547V145.297ZM194.031 141.344C194.031 138.896 193.688 137.115 193 136C192.312 134.875 191.224 134.312 189.734 134.312C188.255 134.312 187.177 134.87 186.5 135.984C185.823 137.099 185.474 138.812 185.453 141.125V145.75C185.453 148.208 185.807 150.026 186.516 151.203C187.234 152.37 188.318 152.953 189.766 152.953C191.193 152.953 192.25 152.401 192.938 151.297C193.635 150.193 194 148.453 194.031 146.078V141.344ZM200.984 153.484C200.984 152.984 201.13 152.568 201.422 152.234C201.724 151.901 202.172 151.734 202.766 151.734C203.359 151.734 203.807 151.901 204.109 152.234C204.422 152.568 204.578 152.984 204.578 153.484C204.578 153.964 204.422 154.365 204.109 154.688C203.807 155.01 203.359 155.172 202.766 155.172C202.172 155.172 201.724 155.01 201.422 154.688C201.13 154.365 200.984 153.964 200.984 153.484ZM223.328 145.297C223.328 148.682 222.75 151.198 221.594 152.844C220.438 154.49 218.63 155.312 216.172 155.312C213.745 155.312 211.948 154.51 210.781 152.906C209.615 151.292 209.01 148.885 208.969 145.688V141.828C208.969 138.484 209.547 136 210.703 134.375C211.859 132.75 213.672 131.938 216.141 131.938C218.589 131.938 220.391 132.724 221.547 134.297C222.703 135.859 223.297 138.276 223.328 141.547V145.297ZM220.438 141.344C220.438 138.896 220.094 137.115 219.406 136C218.719 134.875 217.63 134.312 216.141 134.312C214.661 134.312 213.583 134.87 212.906 135.984C212.229 137.099 211.88 138.812 211.859 141.125V145.75C211.859 148.208 212.214 150.026 212.922 151.203C213.641 152.37 214.724 152.953 216.172 152.953C217.599 152.953 218.656 152.401 219.344 151.297C220.042 150.193 220.406 148.453 220.438 146.078V141.344ZM241.297 145.297C241.297 148.682 240.719 151.198 239.562 152.844C238.406 154.49 236.599 155.312 234.141 155.312C231.714 155.312 229.917 154.51 228.75 152.906C227.583 151.292 226.979 148.885 226.938 145.688V141.828C226.938 138.484 227.516 136 228.672 134.375C229.828 132.75 231.641 131.938 234.109 131.938C236.557 131.938 238.359 132.724 239.516 134.297C240.672 135.859 241.266 138.276 241.297 141.547V145.297ZM238.406 141.344C238.406 138.896 238.062 137.115 237.375 136C236.688 134.875 235.599 134.312 234.109 134.312C232.63 134.312 231.552 134.87 230.875 135.984C230.198 137.099 229.849 138.812 229.828 141.125V145.75C229.828 148.208 230.182 150.026 230.891 151.203C231.609 152.37 232.693 152.953 234.141 152.953C235.568 152.953 236.625 152.401 237.312 151.297C238.01 150.193 238.375 148.453 238.406 146.078V141.344Z" fill="#00ACC1"/>
<path d="M122.266 392.141C122.266 391.182 121.927 390.375 121.25 389.719C120.583 389.062 119.453 388.469 117.859 387.938C115.641 387.26 114.021 386.38 113 385.297C111.99 384.203 111.484 382.818 111.484 381.141C111.484 379.432 111.979 378.031 112.969 376.938C113.969 375.844 115.339 375.193 117.078 374.984V371.562H119.406V375C121.156 375.24 122.516 375.974 123.484 377.203C124.464 378.432 124.953 380.115 124.953 382.25H122.078C122.078 380.781 121.729 379.615 121.031 378.75C120.333 377.885 119.391 377.453 118.203 377.453C116.964 377.453 116.016 377.776 115.359 378.422C114.703 379.057 114.375 379.948 114.375 381.094C114.375 382.156 114.719 383.005 115.406 383.641C116.104 384.266 117.245 384.839 118.828 385.359C120.422 385.87 121.661 386.438 122.547 387.062C123.443 387.677 124.099 388.396 124.516 389.219C124.943 390.042 125.156 391.005 125.156 392.109C125.156 393.87 124.625 395.286 123.562 396.359C122.51 397.432 121.031 398.068 119.125 398.266V401.25H116.812V398.266C114.875 398.089 113.354 397.401 112.25 396.203C111.156 394.995 110.609 393.359 110.609 391.297H113.5C113.5 392.745 113.88 393.859 114.641 394.641C115.401 395.422 116.479 395.812 117.875 395.812C119.24 395.812 120.312 395.484 121.094 394.828C121.875 394.172 122.266 393.276 122.266 392.141ZM138.25 398H135.344V378.734L129.516 380.875V378.25L137.797 375.141H138.25V398ZM160.984 388.297C160.984 391.682 160.406 394.198 159.25 395.844C158.094 397.49 156.286 398.312 153.828 398.312C151.401 398.312 149.604 397.51 148.438 395.906C147.271 394.292 146.667 391.885 146.625 388.688V384.828C146.625 381.484 147.203 379 148.359 377.375C149.516 375.75 151.328 374.938 153.797 374.938C156.245 374.938 158.047 375.724 159.203 377.297C160.359 378.859 160.953 381.276 160.984 384.547V388.297ZM158.094 384.344C158.094 381.896 157.75 380.115 157.062 379C156.375 377.875 155.286 377.312 153.797 377.312C152.318 377.312 151.24 377.87 150.562 378.984C149.885 380.099 149.536 381.812 149.516 384.125V388.75C149.516 391.208 149.87 393.026 150.578 394.203C151.297 395.37 152.38 395.953 153.828 395.953C155.255 395.953 156.312 395.401 157 394.297C157.698 393.193 158.062 391.453 158.094 389.078V384.344ZM178.953 388.297C178.953 391.682 178.375 394.198 177.219 395.844C176.062 397.49 174.255 398.312 171.797 398.312C169.37 398.312 167.573 397.51 166.406 395.906C165.24 394.292 164.635 391.885 164.594 388.688V384.828C164.594 381.484 165.172 379 166.328 377.375C167.484 375.75 169.297 374.938 171.766 374.938C174.214 374.938 176.016 375.724 177.172 377.297C178.328 378.859 178.922 381.276 178.953 384.547V388.297ZM176.062 384.344C176.062 381.896 175.719 380.115 175.031 379C174.344 377.875 173.255 377.312 171.766 377.312C170.286 377.312 169.208 377.87 168.531 378.984C167.854 380.099 167.505 381.812 167.484 384.125V388.75C167.484 391.208 167.839 393.026 168.547 394.203C169.266 395.37 170.349 395.953 171.797 395.953C173.224 395.953 174.281 395.401 174.969 394.297C175.667 393.193 176.031 391.453 176.062 389.078V384.344ZM196.922 388.297C196.922 391.682 196.344 394.198 195.188 395.844C194.031 397.49 192.224 398.312 189.766 398.312C187.339 398.312 185.542 397.51 184.375 395.906C183.208 394.292 182.604 391.885 182.562 388.688V384.828C182.562 381.484 183.141 379 184.297 377.375C185.453 375.75 187.266 374.938 189.734 374.938C192.182 374.938 193.984 375.724 195.141 377.297C196.297 378.859 196.891 381.276 196.922 384.547V388.297ZM194.031 384.344C194.031 381.896 193.688 380.115 193 379C192.312 377.875 191.224 377.312 189.734 377.312C188.255 377.312 187.177 377.87 186.5 378.984C185.823 380.099 185.474 381.812 185.453 384.125V388.75C185.453 391.208 185.807 393.026 186.516 394.203C187.234 395.37 188.318 395.953 189.766 395.953C191.193 395.953 192.25 395.401 192.938 394.297C193.635 393.193 194 391.453 194.031 389.078V384.344ZM200.984 396.484C200.984 395.984 201.13 395.568 201.422 395.234C201.724 394.901 202.172 394.734 202.766 394.734C203.359 394.734 203.807 394.901 204.109 395.234C204.422 395.568 204.578 395.984 204.578 396.484C204.578 396.964 204.422 397.365 204.109 397.688C203.807 398.01 203.359 398.172 202.766 398.172C202.172 398.172 201.724 398.01 201.422 397.688C201.13 397.365 200.984 396.964 200.984 396.484ZM223.328 388.297C223.328 391.682 222.75 394.198 221.594 395.844C220.438 397.49 218.63 398.312 216.172 398.312C213.745 398.312 211.948 397.51 210.781 395.906C209.615 394.292 209.01 391.885 208.969 388.688V384.828C208.969 381.484 209.547 379 210.703 377.375C211.859 375.75 213.672 374.938 216.141 374.938C218.589 374.938 220.391 375.724 221.547 377.297C222.703 378.859 223.297 381.276 223.328 384.547V388.297ZM220.438 384.344C220.438 381.896 220.094 380.115 219.406 379C218.719 377.875 217.63 377.312 216.141 377.312C214.661 377.312 213.583 377.87 212.906 378.984C212.229 380.099 211.88 381.812 211.859 384.125V388.75C211.859 391.208 212.214 393.026 212.922 394.203C213.641 395.37 214.724 395.953 216.172 395.953C217.599 395.953 218.656 395.401 219.344 394.297C220.042 393.193 220.406 391.453 220.438 389.078V384.344ZM241.297 388.297C241.297 391.682 240.719 394.198 239.562 395.844C238.406 397.49 236.599 398.312 234.141 398.312C231.714 398.312 229.917 397.51 228.75 395.906C227.583 394.292 226.979 391.885 226.938 388.688V384.828C226.938 381.484 227.516 379 228.672 377.375C229.828 375.75 231.641 374.938 234.109 374.938C236.557 374.938 238.359 375.724 239.516 377.297C240.672 378.859 241.266 381.276 241.297 384.547V388.297ZM238.406 384.344C238.406 381.896 238.062 380.115 237.375 379C236.688 377.875 235.599 377.312 234.109 377.312C232.63 377.312 231.552 377.87 230.875 378.984C230.198 380.099 229.849 381.812 229.828 384.125V388.75C229.828 391.208 230.182 393.026 230.891 394.203C231.609 395.37 232.693 395.953 234.141 395.953C235.568 395.953 236.625 395.401 237.312 394.297C238.01 393.193 238.375 391.453 238.406 389.078V384.344Z" fill="#00ACC1"/>
<path d="M120.734 610.359H123.891V612.719H120.734V618H117.828V612.719H107.469V611.016L117.656 595.25H120.734V610.359ZM110.75 610.359H117.828V599.203L117.484 599.828L110.75 610.359ZM140.766 608.297C140.766 611.682 140.188 614.198 139.031 615.844C137.875 617.49 136.068 618.312 133.609 618.312C131.182 618.312 129.385 617.51 128.219 615.906C127.052 614.292 126.448 611.885 126.406 608.688V604.828C126.406 601.484 126.984 599 128.141 597.375C129.297 595.75 131.109 594.938 133.578 594.938C136.026 594.938 137.828 595.724 138.984 597.297C140.141 598.859 140.734 601.276 140.766 604.547V608.297ZM137.875 604.344C137.875 601.896 137.531 600.115 136.844 599C136.156 597.875 135.068 597.312 133.578 597.312C132.099 597.312 131.021 597.87 130.344 598.984C129.667 600.099 129.318 601.812 129.297 604.125V608.75C129.297 611.208 129.651 613.026 130.359 614.203C131.078 615.37 132.161 615.953 133.609 615.953C135.036 615.953 136.094 615.401 136.781 614.297C137.479 613.193 137.844 611.453 137.875 609.078V604.344ZM156.625 597V601.094H159.781V603.328H156.625V613.812C156.625 614.49 156.766 615 157.047 615.344C157.328 615.677 157.807 615.844 158.484 615.844C158.818 615.844 159.276 615.781 159.859 615.656V618C159.099 618.208 158.359 618.312 157.641 618.312C156.349 618.312 155.375 617.922 154.719 617.141C154.062 616.359 153.734 615.25 153.734 613.812V603.328H150.656V601.094H153.734V597H156.625ZM166.312 618H163.422V601.094H166.312V618ZM163.188 596.609C163.188 596.141 163.328 595.745 163.609 595.422C163.901 595.099 164.328 594.938 164.891 594.938C165.453 594.938 165.88 595.099 166.172 595.422C166.464 595.745 166.609 596.141 166.609 596.609C166.609 597.078 166.464 597.469 166.172 597.781C165.88 598.094 165.453 598.25 164.891 598.25C164.328 598.25 163.901 598.094 163.609 597.781C163.328 597.469 163.188 597.078 163.188 596.609ZM177.734 615.953C178.766 615.953 179.667 615.641 180.438 615.016C181.208 614.391 181.635 613.609 181.719 612.672H184.453C184.401 613.641 184.068 614.562 183.453 615.438C182.839 616.312 182.016 617.01 180.984 617.531C179.964 618.052 178.88 618.312 177.734 618.312C175.432 618.312 173.599 617.547 172.234 616.016C170.88 614.474 170.203 612.37 170.203 609.703V609.219C170.203 607.573 170.505 606.109 171.109 604.828C171.714 603.547 172.578 602.552 173.703 601.844C174.839 601.135 176.177 600.781 177.719 600.781C179.615 600.781 181.188 601.349 182.438 602.484C183.698 603.62 184.37 605.094 184.453 606.906H181.719C181.635 605.812 181.219 604.917 180.469 604.219C179.729 603.51 178.812 603.156 177.719 603.156C176.25 603.156 175.109 603.688 174.297 604.75C173.495 605.802 173.094 607.328 173.094 609.328V609.875C173.094 611.823 173.495 613.323 174.297 614.375C175.099 615.427 176.245 615.953 177.734 615.953ZM192.422 610.172L190.609 612.062V618H187.719V594H190.609V608.516L192.156 606.656L197.422 601.094H200.938L194.359 608.156L201.703 618H198.312L192.422 610.172ZM210.625 618.312C208.333 618.312 206.469 617.562 205.031 616.062C203.594 614.552 202.875 612.536 202.875 610.016V609.484C202.875 607.807 203.193 606.312 203.828 605C204.474 603.677 205.37 602.646 206.516 601.906C207.672 601.156 208.922 600.781 210.266 600.781C212.464 600.781 214.172 601.505 215.391 602.953C216.609 604.401 217.219 606.474 217.219 609.172V610.375H205.766C205.807 612.042 206.292 613.391 207.219 614.422C208.156 615.443 209.344 615.953 210.781 615.953C211.802 615.953 212.667 615.745 213.375 615.328C214.083 614.911 214.703 614.359 215.234 613.672L217 615.047C215.583 617.224 213.458 618.312 210.625 618.312ZM210.266 603.156C209.099 603.156 208.12 603.583 207.328 604.438C206.536 605.281 206.047 606.469 205.859 608H214.328V607.781C214.245 606.312 213.849 605.177 213.141 604.375C212.432 603.562 211.474 603.156 210.266 603.156ZM224.5 597V601.094H227.656V603.328H224.5V613.812C224.5 614.49 224.641 615 224.922 615.344C225.203 615.677 225.682 615.844 226.359 615.844C226.693 615.844 227.151 615.781 227.734 615.656V618C226.974 618.208 226.234 618.312 225.516 618.312C224.224 618.312 223.25 617.922 222.594 617.141C221.938 616.359 221.609 615.25 221.609 613.812V603.328H218.531V601.094H221.609V597H224.5ZM240.891 613.516C240.891 612.734 240.594 612.13 240 611.703C239.417 611.266 238.391 610.891 236.922 610.578C235.464 610.266 234.302 609.891 233.438 609.453C232.583 609.016 231.948 608.495 231.531 607.891C231.125 607.286 230.922 606.568 230.922 605.734C230.922 604.349 231.505 603.177 232.672 602.219C233.849 601.26 235.349 600.781 237.172 600.781C239.089 600.781 240.641 601.276 241.828 602.266C243.026 603.255 243.625 604.521 243.625 606.062H240.719C240.719 605.271 240.38 604.589 239.703 604.016C239.036 603.443 238.193 603.156 237.172 603.156C236.12 603.156 235.297 603.385 234.703 603.844C234.109 604.302 233.812 604.901 233.812 605.641C233.812 606.339 234.089 606.865 234.641 607.219C235.193 607.573 236.188 607.911 237.625 608.234C239.073 608.557 240.245 608.943 241.141 609.391C242.036 609.839 242.698 610.38 243.125 611.016C243.562 611.641 243.781 612.406 243.781 613.312C243.781 614.823 243.177 616.036 241.969 616.953C240.76 617.859 239.193 618.312 237.266 618.312C235.911 618.312 234.714 618.073 233.672 617.594C232.63 617.115 231.812 616.448 231.219 615.594C230.635 614.729 230.344 613.797 230.344 612.797H233.234C233.286 613.766 233.672 614.536 234.391 615.109C235.12 615.672 236.078 615.953 237.266 615.953C238.359 615.953 239.234 615.734 239.891 615.297C240.557 614.849 240.891 614.255 240.891 613.516Z" fill="#00ACC1"/>
<path opacity="0.75" d="M152 225.526L176 236.316L200 225.526V235L176 245.79L152 235V225.526Z" fill="#00ACC1"/>
<path opacity="0.75" d="M152 523.526L176 534.316L200 523.526V533L176 543.79L152 533V523.526Z" fill="#00ACC1"/>
<path opacity="0.5" d="M152 208.263L176 219.053L200 208.263V217.737L176 228.526L152 217.737V208.263Z" fill="#00ACC1"/>
<path opacity="0.5" d="M152 506.263L176 517.053L200 506.263V515.737L176 526.526L152 515.737V506.263Z" fill="#00ACC1"/>
<path opacity="0.25" d="M152 191L176 201.789L200 191V200.474L176 211.263L152 200.474V191Z" fill="#00ACC1"/>
<path opacity="0.25" d="M152 489L176 499.789L200 489V498.474L176 509.263L152 498.474V489Z" fill="#00ACC1"/>
<defs>
<filter id="filter0_ii" x="-7.34863" y="-10" width="356.552" height="714" filterUnits="userSpaceOnUse" color-interpolation-filters="sRGB">
<feFlood flood-opacity="0" result="BackgroundImageFix"/>
<feBlend mode="normal" in="SourceGraphic" in2="BackgroundImageFix" result="shape"/>
<feColorMatrix in="SourceAlpha" type="matrix" values="0 0 0 0 0 0 0 0 0 0 0 0 0 0 0 0 0 0 127 0" result="hardAlpha"/>
<feOffset dx="-10" dy="-10"/>
<feGaussianBlur stdDeviation="10"/>
<feComposite in2="hardAlpha" operator="arithmetic" k2="-1" k3="1"/>
<feColorMatrix type="matrix" values="0 0 0 0 0 0 0 0 0 0 0 0 0 0 0 0 0 0 0.54 0"/>
<feBlend mode="normal" in2="shape" result="effect1_innerShadow"/>
<feColorMatrix in="SourceAlpha" type="matrix" values="0 0 0 0 0 0 0 0 0 0 0 0 0 0 0 0 0 0 127 0" result="hardAlpha"/>
<feOffset dy="4"/>
<feGaussianBlur stdDeviation="2"/>
<feComposite in2="hardAlpha" operator="arithmetic" k2="-1" k3="1"/>
<feColorMatrix type="matrix" values="0 0 0 0 0 0 0 0 0 0 0 0 0 0 0 0 0 0 0.23 0"/>
<feBlend mode="normal" in2="effect1_innerShadow" result="effect2_innerShadow"/>
</filter>
<filter id="filter1_i" x="0" y="93.9656" width="2.65176" height="32.4483" filterUnits="userSpaceOnUse" color-interpolation-filters="sRGB">
<feFlood flood-opacity="0" result="BackgroundImageFix"/>
<feBlend mode="normal" in="SourceGraphic" in2="BackgroundImageFix" result="shape"/>
<feColorMatrix in="SourceAlpha" type="matrix" values="0 0 0 0 0 0 0 0 0 0 0 0 0 0 0 0 0 0 127 0" result="hardAlpha"/>
<feOffset dy="4"/>
<feGaussianBlur stdDeviation="2"/>
<feComposite in2="hardAlpha" operator="arithmetic" k2="-1" k3="1"/>
<feColorMatrix type="matrix" values="0 0 0 0 0 0 0 0 0 0 0 0 0 0 0 0 0 0 0.25 0"/>
<feBlend mode="normal" in2="shape" result="effect1_innerShadow"/>
</filter>
<filter id="filter2_i" x="0" y="144.488" width="2.65176" height="55.1136" filterUnits="userSpaceOnUse" color-interpolation-filters="sRGB">
<feFlood flood-opacity="0" result="BackgroundImageFix"/>
<feBlend mode="normal" in="SourceGraphic" in2="BackgroundImageFix" result="shape"/>
<feColorMatrix in="SourceAlpha" type="matrix" values="0 0 0 0 0 0 0 0 0 0 0 0 0 0 0 0 0 0 127 0" result="hardAlpha"/>
<feOffset dy="4"/>
<feGaussianBlur stdDeviation="2"/>
<feComposite in2="hardAlpha" operator="arithmetic" k2="-1" k3="1"/>
<feColorMatrix type="matrix" values="0 0 0 0 0 0 0 0 0 0 0 0 0 0 0 0 0 0 0.25 0"/>
<feBlend mode="normal" in2="shape" result="effect1_innerShadow"/>
</filter>
<filter id="filter3_i" x="0" y="208.563" width="2.65176" height="55.1136" filterUnits="userSpaceOnUse" color-interpolation-filters="sRGB">
<feFlood flood-opacity="0" result="BackgroundImageFix"/>
<feBlend mode="normal" in="SourceGraphic" in2="BackgroundImageFix" result="shape"/>
<feColorMatrix in="SourceAlpha" type="matrix" values="0 0 0 0 0 0 0 0 0 0 0 0 0 0 0 0 0 0 127 0" result="hardAlpha"/>
<feOffset dy="4"/>
<feGaussianBlur stdDeviation="2"/>
<feComposite in2="hardAlpha" operator="arithmetic" k2="-1" k3="1"/>
<feColorMatrix type="matrix" values="0 0 0 0 0 0 0 0 0 0 0 0 0 0 0 0 0 0 0.25 0"/>
<feBlend mode="normal" in2="shape" result="effect1_innerShadow"/>
</filter>
<filter id="filter4_i" x="349.204" y="161.498" width="2.59786" height="85.3301" filterUnits="userSpaceOnUse" color-interpolation-filters="sRGB">
<feFlood flood-opacity="0" result="BackgroundImageFix"/>
<feBlend mode="normal" in="SourceGraphic" in2="BackgroundImageFix" result="shape"/>
<feColorMatrix in="SourceAlpha" type="matrix" values="0 0 0 0 0 0 0 0 0 0 0 0 0 0 0 0 0 0 127 0" result="hardAlpha"/>
<feOffset dy="4"/>
<feGaussianBlur stdDeviation="2"/>
<feComposite in2="hardAlpha" operator="arithmetic" k2="-1" k3="1"/>
<feColorMatrix type="matrix" values="0 0 0 0 0 0 0 0 0 0 0 0 0 0 0 0 0 0 0.25 0"/>
<feBlend mode="normal" in2="shape" result="effect1_innerShadow"/>
</filter>
<radialGradient id="paint0_radial" cx="0" cy="0" r="1" gradientUnits="userSpaceOnUse" gradientTransform="translate(211.517 28.0801) rotate(69.9659) scale(3.64126)">
<stop stop-color="#A792FE"/>
<stop offset="1" stop-color="#141023"/>
</radialGradient>
</defs>
</svg>
