<svg width="562" height="541" viewBox="0 0 562 541" fill="none" xmlns="http://www.w3.org/2000/svg">
<rect x="138" y="350.5" width="125" height="2" fill="#433F45"/>
<rect x="338" y="350.5" width="125" height="2" fill="#433F45"/>
<path opacity="0.2" d="M232 227.587C232 236.092 229.318 242.949 223.953 248.158C218.588 253.261 211.54 256.504 202.809 257.886V277.5H199.654V258.364C196.708 258.577 194.447 258.683 192.869 258.683C190.449 258.683 188.661 258.63 187.504 258.524V277.5H184.348V258.045C180.982 257.514 178.195 256.876 175.986 256.132C173.882 255.281 171.462 254.218 168.727 252.942C165.572 251.348 163.363 250.55 162.1 250.55C161.154 250.55 160.417 251.135 159.891 252.305C159.365 253.368 158.945 255.122 158.629 257.567H155C155.421 250.869 155.631 236.517 155.631 214.511H159.26C160.207 227.269 162.626 236.783 166.518 243.056C170.411 249.328 176.354 253.155 184.348 254.537V207.654L183.875 207.335C177.774 203.402 172.777 199.841 168.885 196.651C164.993 193.462 161.837 189.741 159.418 185.489C156.999 181.13 155.789 176.187 155.789 170.658C155.789 162.366 158.471 155.775 163.836 150.885C169.201 145.995 176.038 143.018 184.348 141.955V122.5H187.504V141.636C188.346 141.529 189.555 141.476 191.133 141.476C194.605 141.476 197.445 141.689 199.654 142.114V122.5H202.809V142.752C206.491 143.603 210.278 145.25 214.17 147.695C215.327 148.333 216.327 148.865 217.168 149.29C218.115 149.715 218.904 149.928 219.535 149.928C220.482 149.928 221.218 149.396 221.744 148.333C222.27 147.164 222.691 145.357 223.006 142.912H226.635C226.109 150.034 225.846 162.154 225.846 179.27H222.217C221.06 170.446 218.956 163.217 215.906 157.582C212.96 151.948 208.595 148.174 202.809 146.26V190.113C204.282 190.964 205.124 191.495 205.334 191.708C211.33 195.535 216.169 199.043 219.85 202.233C223.532 205.422 226.477 209.09 228.686 213.236C230.895 217.382 232 222.166 232 227.587ZM193.658 144.985C191.238 144.985 189.187 145.197 187.504 145.622V179.429C190.134 181.449 194.184 184.319 199.654 188.04V145.463C197.76 145.144 195.762 144.985 193.658 144.985ZM174.723 159.974C174.723 163.164 175.407 165.981 176.775 168.426C178.142 170.871 180.667 173.688 184.348 176.878V146.42C181.193 147.589 178.773 149.343 177.09 151.682C175.512 154.021 174.723 156.785 174.723 159.974ZM192.238 255.175C195.183 255.175 197.655 254.962 199.654 254.537V218.657C196.077 215.893 192.027 212.97 187.504 209.887V255.015C188.556 255.122 190.134 255.175 192.238 255.175ZM202.809 253.74C209.962 251.401 213.539 246.404 213.539 238.75C213.539 235.561 212.803 232.69 211.33 230.139C209.857 227.587 207.017 224.611 202.809 221.209V253.74Z" fill="#00ACC1"/>
<path d="M334.293 331.939C334.293 345.404 336.79 354.798 341.783 360.121C346.777 365.131 355.516 367.636 368 367.636V377.5C334.293 376.247 312.758 375.621 303.395 375.621C293.096 375.621 270.624 376.091 235.981 377.03L222.873 377.5V367.636C237.541 367.636 248.465 364.818 255.643 359.182C263.134 353.545 266.879 343.525 266.879 329.121V214.515C266.879 199.485 265.475 188.525 262.666 181.636C260.169 174.434 255.799 169.737 249.557 167.545C243.315 165.04 233.796 163.788 221 163.788V153.455C248.153 152.828 270.468 150.793 287.946 147.348C305.424 143.591 320.873 137.641 334.293 129.5V331.939Z" fill="#00ACC1"/>
<path opacity="0.95" d="M173.48 316.98C172.627 317.033 172 317.14 171.6 317.3C171.227 317.46 170.973 317.767 170.84 318.22C170.707 318.673 170.64 319.407 170.64 320.42V340.26C170.64 341.273 170.707 342.007 170.84 342.46C171 342.913 171.267 343.22 171.64 343.38C172.013 343.54 172.627 343.647 173.48 343.7V344.5C171.853 344.42 169.493 344.38 166.4 344.38C163.173 344.38 160.8 344.42 159.28 344.5V343.7C160.24 343.647 160.933 343.54 161.36 343.38C161.813 343.22 162.12 342.913 162.28 342.46C162.44 342.007 162.52 341.273 162.52 340.26V319.82L152.88 344.46H152.24L140.96 318.78V336.66C140.96 338.633 141.04 340.06 141.2 340.94C141.36 341.793 141.707 342.42 142.24 342.82C142.8 343.22 143.72 343.513 145 343.7V344.5C143.907 344.42 142.413 344.38 140.52 344.38C139.107 344.38 138 344.42 137.2 344.5V343.7C138.027 343.513 138.64 343.233 139.04 342.86C139.44 342.46 139.707 341.86 139.84 341.06C139.973 340.26 140.04 339.06 140.04 337.46V320.42C140.04 319.407 139.96 318.673 139.8 318.22C139.667 317.767 139.413 317.46 139.04 317.3C138.667 317.14 138.053 317.033 137.2 316.98V316.18C138 316.26 139.107 316.3 140.52 316.3C143.72 316.3 146.48 316.26 148.8 316.18L156.36 333.18L162.92 316.3H166.4C169.493 316.3 171.853 316.26 173.48 316.18V316.98ZM213.514 316.98C212.66 317.033 212.034 317.14 211.634 317.3C211.26 317.46 211.007 317.767 210.874 318.22C210.74 318.673 210.674 319.407 210.674 320.42V340.26C210.674 341.273 210.74 342.007 210.874 342.46C211.034 342.913 211.3 343.22 211.674 343.38C212.047 343.54 212.66 343.647 213.514 343.7V344.5C211.967 344.42 209.74 344.38 206.834 344.38C203.607 344.38 201.234 344.42 199.714 344.5V343.7C200.567 343.647 201.18 343.54 201.554 343.38C201.954 343.22 202.22 342.913 202.354 342.46C202.487 342.007 202.554 341.273 202.554 340.26V320.42C202.554 319.407 202.474 318.673 202.314 318.22C202.18 317.767 201.927 317.46 201.554 317.3C201.18 317.14 200.567 317.033 199.714 316.98V316.18C201.234 316.26 203.607 316.3 206.834 316.3C209.714 316.3 211.94 316.26 213.514 316.18V316.98ZM253.968 316.98C253.008 317.033 252.302 317.14 251.848 317.3C251.422 317.46 251.128 317.767 250.968 318.22C250.808 318.673 250.728 319.407 250.728 320.42V341.06C250.728 341.807 250.782 342.353 250.888 342.7C250.995 343.047 251.182 343.287 251.448 343.42C251.715 343.527 252.155 343.58 252.768 343.58H254.088C255.022 343.58 256.035 343.113 257.128 342.18C258.222 341.247 259.208 340.02 260.088 338.5C260.968 336.953 261.555 335.353 261.848 333.7H262.768C262.688 334.66 262.648 335.887 262.648 337.38C262.648 340.26 262.742 342.633 262.928 344.5C261.115 344.42 258.062 344.38 253.768 344.38C247.528 344.38 242.862 344.42 239.768 344.5V343.7C240.622 343.647 241.235 343.54 241.608 343.38C242.008 343.22 242.275 342.913 242.408 342.46C242.542 342.007 242.608 341.273 242.608 340.26V320.42C242.608 319.407 242.528 318.673 242.368 318.22C242.235 317.767 241.982 317.46 241.608 317.3C241.235 317.14 240.622 317.033 239.768 316.98V316.18C241.288 316.26 243.662 316.3 246.888 316.3C249.955 316.3 252.315 316.26 253.968 316.18V316.98ZM303.008 316.98C302.048 317.033 301.341 317.14 300.888 317.3C300.461 317.46 300.168 317.767 300.008 318.22C299.848 318.673 299.768 319.407 299.768 320.42V341.06C299.768 341.807 299.821 342.353 299.928 342.7C300.034 343.047 300.221 343.287 300.488 343.42C300.754 343.527 301.194 343.58 301.808 343.58H303.128C304.061 343.58 305.074 343.113 306.168 342.18C307.261 341.247 308.248 340.02 309.128 338.5C310.008 336.953 310.594 335.353 310.888 333.7H311.808C311.728 334.66 311.688 335.887 311.688 337.38C311.688 340.26 311.781 342.633 311.968 344.5C310.154 344.42 307.101 344.38 302.808 344.38C296.568 344.38 291.901 344.42 288.808 344.5V343.7C289.661 343.647 290.274 343.54 290.648 343.38C291.048 343.22 291.314 342.913 291.448 342.46C291.581 342.007 291.648 341.273 291.648 340.26V320.42C291.648 319.407 291.568 318.673 291.408 318.22C291.274 317.767 291.021 317.46 290.648 317.3C290.274 317.14 289.661 317.033 288.808 316.98V316.18C290.328 316.26 292.701 316.3 295.928 316.3C298.994 316.3 301.354 316.26 303.008 316.18V316.98ZM351.647 316.98C350.793 317.033 350.167 317.14 349.767 317.3C349.393 317.46 349.14 317.767 349.007 318.22C348.873 318.673 348.807 319.407 348.807 320.42V340.26C348.807 341.273 348.873 342.007 349.007 342.46C349.167 342.913 349.433 343.22 349.807 343.38C350.18 343.54 350.793 343.647 351.647 343.7V344.5C350.1 344.42 347.873 344.38 344.967 344.38C341.74 344.38 339.367 344.42 337.847 344.5V343.7C338.7 343.647 339.313 343.54 339.687 343.38C340.087 343.22 340.353 342.913 340.487 342.46C340.62 342.007 340.687 341.273 340.687 340.26V320.42C340.687 319.407 340.607 318.673 340.447 318.22C340.313 317.767 340.06 317.46 339.687 317.3C339.313 317.14 338.7 317.033 337.847 316.98V316.18C339.367 316.26 341.74 316.3 344.967 316.3C347.847 316.3 350.073 316.26 351.647 316.18V316.98ZM393.029 315.62C396.042 315.62 398.682 316.193 400.949 317.34C403.215 318.487 404.975 320.153 406.229 322.34C407.482 324.5 408.109 327.087 408.109 330.1C408.109 333.033 407.469 335.633 406.189 337.9C404.909 340.167 403.122 341.927 400.829 343.18C398.535 344.433 395.922 345.06 392.989 345.06C389.975 345.06 387.335 344.487 385.069 343.34C382.802 342.193 381.042 340.54 379.789 338.38C378.535 336.193 377.909 333.593 377.909 330.58C377.909 327.647 378.549 325.047 379.829 322.78C381.109 320.513 382.895 318.753 385.189 317.5C387.482 316.247 390.095 315.62 393.029 315.62ZM392.869 316.34C391.562 316.34 390.402 316.94 389.389 318.14C388.402 319.313 387.642 320.967 387.109 323.1C386.575 325.233 386.309 327.673 386.309 330.42C386.309 333.193 386.615 335.633 387.229 337.74C387.842 339.847 388.669 341.473 389.709 342.62C390.749 343.767 391.895 344.34 393.149 344.34C394.455 344.34 395.602 343.753 396.589 342.58C397.602 341.38 398.375 339.713 398.909 337.58C399.442 335.447 399.709 333.007 399.709 330.26C399.709 327.487 399.402 325.047 398.789 322.94C398.175 320.833 397.349 319.207 396.309 318.06C395.269 316.913 394.122 316.34 392.869 316.34ZM461.562 316.98C460.736 317.167 460.122 317.46 459.722 317.86C459.322 318.233 459.056 318.82 458.922 319.62C458.789 320.42 458.722 321.62 458.722 323.22V344.5C458.189 344.447 457.749 344.42 457.402 344.42C457.109 344.42 456.616 344.447 455.922 344.5L438.202 325.14V336.66C438.202 338.633 438.282 340.06 438.442 340.94C438.602 341.793 438.949 342.42 439.482 342.82C440.042 343.22 440.962 343.513 442.242 343.7V344.5C441.149 344.42 439.656 344.38 437.762 344.38C436.349 344.38 435.242 344.42 434.442 344.5V343.7C435.269 343.513 435.882 343.233 436.282 342.86C436.682 342.46 436.949 341.86 437.082 341.06C437.216 340.26 437.282 339.06 437.282 337.46V320.42C437.282 319.407 437.202 318.673 437.042 318.22C436.909 317.767 436.656 317.46 436.282 317.3C435.909 317.14 435.296 317.033 434.442 316.98V316.18C435.242 316.26 436.349 316.3 437.762 316.3C439.202 316.3 440.429 316.26 441.442 316.18L457.802 333.46V324.02C457.802 322.047 457.722 320.633 457.562 319.78C457.402 318.9 457.042 318.26 456.482 317.86C455.949 317.46 455.042 317.167 453.762 316.98V316.18C454.856 316.26 456.349 316.3 458.242 316.3C459.656 316.3 460.762 316.26 461.562 316.18V316.98Z" fill="#3A353B"/>
<path d="M93.1406 186.625C92.1823 186.625 91.375 186.964 90.7188 187.641C90.0625 188.308 89.4688 189.438 88.9375 191.032C88.2604 193.25 87.3802 194.87 86.2969 195.891C85.2031 196.902 83.8177 197.407 82.1406 197.407C80.4323 197.407 79.0313 196.912 77.9375 195.922C76.8438 194.922 76.1927 193.553 75.9844 191.813L72.5625 191.813L72.5625 189.485L76 189.485C76.2396 187.735 76.974 186.375 78.2031 185.407C79.4323 184.428 81.1146 183.938 83.25 183.938L83.25 186.813C81.7813 186.813 80.6146 187.162 79.75 187.86C78.8854 188.558 78.4531 189.5 78.4531 190.688C78.4531 191.928 78.776 192.875 79.4219 193.532C80.0573 194.188 80.9479 194.516 82.0938 194.516C83.1563 194.516 84.0052 194.172 84.6406 193.485C85.2656 192.787 85.8385 191.646 86.3594 190.063C86.8698 188.469 87.4375 187.23 88.0625 186.344C88.6771 185.448 89.3958 184.792 90.2188 184.375C91.0417 183.948 92.0052 183.735 93.1094 183.735C94.8698 183.735 96.2865 184.266 97.3594 185.329C98.4323 186.381 99.0677 187.86 99.2656 189.766L102.25 189.766L102.25 192.079L99.2656 192.079C99.0885 194.016 98.401 195.537 97.2031 196.641C95.9948 197.735 94.3594 198.282 92.2969 198.282L92.2969 195.391C93.7448 195.391 94.8594 195.011 95.6406 194.25C96.4219 193.49 96.8125 192.412 96.8125 191.016C96.8125 189.652 96.4844 188.579 95.8281 187.797C95.1719 187.016 94.276 186.625 93.1406 186.625ZM99 165.235L99 180.141L96.9219 180.141L88.1719 172.266C86.849 171.099 85.776 170.297 84.9531 169.86C84.1198 169.412 83.2604 169.188 82.375 169.188C81.1875 169.188 80.2135 169.547 79.4531 170.266C78.6927 170.985 78.3125 171.943 78.3125 173.141C78.3125 174.579 78.724 175.698 79.5469 176.5C80.3594 177.292 81.4948 177.688 82.9531 177.688L82.9531 180.579C80.8594 180.579 79.1667 179.907 77.875 178.563C76.5833 177.209 75.9375 175.402 75.9375 173.141C75.9375 171.027 76.4948 169.355 77.6094 168.125C78.7135 166.896 80.1875 166.282 82.0313 166.282C84.2708 166.282 86.9375 167.709 90.0313 170.563L96.6406 176.657L96.6406 165.235L99 165.235Z" fill="#D4DAE3"/>
<path d="M548.211 227.938C546.773 227.938 545.562 228.446 544.578 229.461C543.594 230.461 542.703 232.157 541.906 234.547C540.891 237.875 539.57 240.305 537.945 241.836C536.305 243.352 534.227 244.11 531.711 244.11C529.148 244.11 527.047 243.368 525.406 241.883C523.766 240.383 522.789 238.329 522.477 235.719L517.344 235.719L517.344 232.227L522.5 232.227C522.859 229.602 523.961 227.563 525.805 226.11C527.648 224.641 530.172 223.907 533.375 223.907L533.375 228.219C531.172 228.219 529.422 228.743 528.125 229.79C526.828 230.836 526.18 232.25 526.18 234.032C526.18 235.891 526.664 237.313 527.633 238.297C528.586 239.282 529.922 239.774 531.641 239.774C533.234 239.774 534.508 239.258 535.461 238.227C536.398 237.18 537.258 235.469 538.039 233.094C538.805 230.704 539.656 228.844 540.594 227.516C541.516 226.172 542.594 225.188 543.828 224.563C545.062 223.922 546.508 223.602 548.164 223.602C550.805 223.602 552.93 224.399 554.539 225.993C556.148 227.571 557.102 229.79 557.398 232.649L561.875 232.649L561.875 236.118L557.398 236.118C557.133 239.024 556.102 241.305 554.305 242.961C552.492 244.602 550.039 245.422 546.945 245.422L546.945 241.086C549.117 241.086 550.789 240.516 551.961 239.375C553.133 238.235 553.719 236.618 553.719 234.524C553.719 232.477 553.227 230.868 552.242 229.696C551.258 228.524 549.914 227.938 548.211 227.938ZM557 195.852L557 218.211L553.883 218.211L540.758 206.399C538.773 204.649 537.164 203.446 535.93 202.79C534.68 202.118 533.391 201.782 532.062 201.782C530.281 201.782 528.82 202.321 527.68 203.399C526.539 204.477 525.969 205.915 525.969 207.711C525.969 209.868 526.586 211.547 527.82 212.75C529.039 213.938 530.742 214.532 532.93 214.532L532.93 218.868C529.789 218.868 527.25 217.86 525.312 215.844C523.375 213.813 522.406 211.102 522.406 207.711C522.406 204.54 523.242 202.032 524.914 200.188C526.57 198.344 528.781 197.422 531.547 197.422C534.906 197.422 538.906 199.563 543.547 203.844L553.461 212.985L553.461 195.852L557 195.852ZM539.891 189.266L522.875 187.532L522.875 170.047L526.883 170.047L526.883 183.852L536.187 184.883C535.203 183.211 534.711 181.313 534.711 179.188C534.711 176.079 535.742 173.61 537.805 171.782C539.852 169.954 542.625 169.04 546.125 169.04C549.641 169.04 552.414 169.993 554.445 171.899C556.461 173.79 557.469 176.438 557.469 179.844C557.469 182.86 556.633 185.321 554.961 187.227C553.289 189.133 550.977 190.219 548.023 190.485L548.023 186.383C549.977 186.118 551.453 185.422 552.453 184.297C553.437 183.172 553.93 181.688 553.93 179.844C553.93 177.829 553.242 176.25 551.867 175.11C550.492 173.954 548.594 173.375 546.172 173.375C543.891 173.375 542.062 174 540.687 175.25C539.297 176.485 538.602 178.133 538.602 180.196C538.602 182.086 539.016 183.571 539.844 184.649L540.781 185.797L539.891 189.266ZM542.445 142.907C547.523 142.907 551.297 143.774 553.766 145.508C556.234 147.243 557.469 149.954 557.469 153.641C557.469 157.282 556.266 159.977 553.859 161.727C551.437 163.477 547.828 164.383 543.031 164.446L537.242 164.446C532.227 164.446 528.5 163.579 526.062 161.844C523.625 160.11 522.406 157.391 522.406 153.688C522.406 150.016 523.586 147.313 525.945 145.579C528.289 143.844 531.914 142.954 536.82 142.907L542.445 142.907ZM536.516 147.243C532.844 147.243 530.172 147.758 528.5 148.79C526.812 149.821 525.969 151.454 525.969 153.688C525.969 155.907 526.805 157.524 528.477 158.54C530.148 159.555 532.719 160.079 536.187 160.11L543.125 160.11C546.812 160.11 549.539 159.579 551.305 158.516C553.055 157.438 553.93 155.813 553.93 153.641C553.93 151.5 553.102 149.915 551.445 148.883C549.789 147.836 547.18 147.29 543.617 147.243L536.516 147.243ZM554.727 136.813C553.977 136.813 553.352 136.594 552.852 136.157C552.352 135.704 552.102 135.032 552.102 134.141C552.102 133.25 552.352 132.579 552.852 132.125C553.352 131.657 553.977 131.422 554.727 131.422C555.445 131.422 556.047 131.657 556.531 132.125C557.016 132.579 557.258 133.25 557.258 134.141C557.258 135.032 557.016 135.704 556.531 136.157C556.047 136.594 555.445 136.813 554.727 136.813ZM542.445 103.297C547.523 103.297 551.297 104.165 553.766 105.899C556.234 107.633 557.469 110.344 557.469 114.032C557.469 117.672 556.266 120.368 553.859 122.118C551.437 123.868 547.828 124.774 543.031 124.836L537.242 124.836C532.227 124.836 528.5 123.969 526.062 122.235C523.625 120.5 522.406 117.782 522.406 114.079C522.406 110.407 523.586 107.704 525.945 105.969C528.289 104.235 531.914 103.344 536.82 103.297L542.445 103.297ZM536.516 107.633C532.844 107.633 530.172 108.149 528.5 109.18C526.812 110.211 525.969 111.844 525.969 114.079C525.969 116.297 526.805 117.915 528.477 118.93C530.148 119.946 532.719 120.469 536.187 120.5L543.125 120.5C546.812 120.5 549.539 119.969 551.305 118.907C553.055 117.829 553.93 116.204 553.93 114.032C553.93 111.891 553.102 110.305 551.445 109.274C549.789 108.227 547.18 107.68 543.617 107.633L536.516 107.633ZM542.445 76.3442C547.523 76.3442 551.297 77.2114 553.766 78.9458C556.234 80.6802 557.469 83.3911 557.469 87.0786C557.469 90.7192 556.266 93.4145 553.859 95.1645C551.437 96.9145 547.828 97.8208 543.031 97.8833L537.242 97.8833C532.227 97.8833 528.5 97.0161 526.062 95.2817C523.625 93.5474 522.406 90.8286 522.406 87.1255C522.406 83.4536 523.586 80.7505 525.945 79.0161C528.289 77.2817 531.914 76.3911 536.82 76.3442L542.445 76.3442ZM536.516 80.6802C532.844 80.6802 530.172 81.1958 528.5 82.2271C526.812 83.2583 525.969 84.8911 525.969 87.1255C525.969 89.3442 526.805 90.9614 528.477 91.9771C530.148 92.9927 532.719 93.5161 536.187 93.5474L543.125 93.5474C546.812 93.5474 549.539 93.0161 551.305 91.9536C553.055 90.8755 553.93 89.2505 553.93 87.0786C553.93 84.938 553.102 83.352 551.445 82.3208C549.789 81.2739 547.18 80.727 543.617 80.6802L536.516 80.6802ZM542.445 49.3911C547.523 49.3911 551.297 50.2583 553.766 51.9927C556.234 53.727 557.469 56.438 557.469 60.1255C557.469 63.7661 556.266 66.4614 553.859 68.2114C551.437 69.9614 547.828 70.8677 543.031 70.9302L537.242 70.9302C532.227 70.9302 528.5 70.063 526.062 68.3286C523.625 66.5942 522.406 63.8755 522.406 60.1724C522.406 56.5005 523.586 53.7974 525.945 52.063C528.289 50.3286 531.914 49.438 536.82 49.3911L542.445 49.3911ZM536.516 53.7271C532.844 53.7271 530.172 54.2427 528.5 55.2739C526.812 56.3052 525.969 57.938 525.969 60.1724C525.969 62.3911 526.805 64.0083 528.477 65.0239C530.148 66.0396 532.719 66.563 536.187 66.5942L543.125 66.5942C546.812 66.5942 549.539 66.063 551.305 65.0005C553.055 63.9224 553.93 62.2974 553.93 60.1255C553.93 57.9849 553.102 56.3989 551.445 55.3677C549.789 54.3208 547.18 53.7739 543.617 53.7271L536.516 53.7271Z" fill="#D4DAE3"/>
<path d="M189.042 500.117C187.904 500.117 186.945 500.519 186.166 501.323C185.387 502.115 184.682 503.457 184.051 505.35C183.247 507.984 182.201 509.908 180.915 511.12C179.616 512.32 177.971 512.92 175.979 512.92C173.951 512.92 172.287 512.332 170.988 511.157C169.689 509.97 168.916 508.343 168.669 506.277L164.605 506.277L164.605 503.513L168.687 503.513C168.972 501.435 169.844 499.82 171.304 498.67C172.763 497.507 174.761 496.926 177.297 496.926L177.297 500.34C175.553 500.34 174.167 500.754 173.141 501.583C172.114 502.412 171.601 503.531 171.601 504.941C171.601 506.413 171.984 507.539 172.751 508.318C173.506 509.098 174.563 509.487 175.924 509.487C177.186 509.487 178.194 509.079 178.948 508.263C179.69 507.434 180.371 506.079 180.989 504.199C181.595 502.307 182.27 500.835 183.012 499.783C183.742 498.719 184.595 497.94 185.572 497.445C186.549 496.938 187.694 496.685 189.005 496.685C191.095 496.685 192.778 497.315 194.052 498.577C195.326 499.826 196.08 501.583 196.315 503.847L199.859 503.847L199.859 506.593L196.315 506.593C196.105 508.894 195.289 510.7 193.866 512.011C192.431 513.31 190.489 513.959 188.04 513.959L188.04 510.526C189.759 510.526 191.083 510.075 192.011 509.172C192.938 508.269 193.402 506.989 193.402 505.331C193.402 503.711 193.013 502.437 192.233 501.509C191.454 500.581 190.39 500.117 189.042 500.117ZM196 474.716L196 492.417L193.532 492.417L183.142 483.065C181.571 481.68 180.297 480.728 179.319 480.208C178.33 479.676 177.309 479.41 176.258 479.41C174.848 479.41 173.691 479.837 172.788 480.69C171.885 481.544 171.434 482.682 171.434 484.104C171.434 485.812 171.922 487.141 172.899 488.094C173.864 489.034 175.213 489.504 176.944 489.504L176.944 492.937C174.458 492.937 172.448 492.139 170.914 490.543C169.38 488.935 168.613 486.789 168.613 484.104C168.613 481.593 169.275 479.608 170.599 478.148C171.91 476.689 173.66 475.959 175.85 475.959C178.509 475.959 181.676 477.654 185.35 481.043L193.198 488.279L193.198 474.716L196 474.716ZM182.455 469.502L168.984 468.129L168.984 454.287L172.157 454.287L172.157 465.216L179.523 466.032C178.744 464.709 178.354 463.206 178.354 461.523C178.354 459.062 179.171 457.107 180.804 455.66C182.424 454.213 184.62 453.489 187.391 453.489C190.174 453.489 192.369 454.244 193.978 455.753C195.573 457.25 196.371 459.346 196.371 462.043C196.371 464.43 195.709 466.379 194.386 467.888C193.062 469.397 191.231 470.257 188.894 470.467L188.894 467.22C190.44 467.009 191.609 466.459 192.4 465.568C193.18 464.678 193.569 463.503 193.569 462.043C193.569 460.447 193.025 459.198 191.937 458.295C190.848 457.38 189.345 456.922 187.428 456.922C185.622 456.922 184.174 457.417 183.086 458.406C181.985 459.383 181.435 460.688 181.435 462.321C181.435 463.818 181.762 464.993 182.418 465.847L183.16 466.756L182.455 469.502ZM184.478 432.801C188.498 432.801 191.485 433.487 193.439 434.86C195.394 436.233 196.371 438.38 196.371 441.299C196.371 444.181 195.419 446.315 193.514 447.7C191.596 449.086 188.739 449.803 184.941 449.853L180.358 449.853C176.388 449.853 173.437 449.166 171.508 447.793C169.578 446.42 168.613 444.268 168.613 441.336C168.613 438.429 169.547 436.289 171.415 434.916C173.271 433.543 176.14 432.838 180.024 432.801L184.478 432.801ZM179.783 436.233C176.876 436.233 174.761 436.642 173.437 437.458C172.102 438.274 171.434 439.567 171.434 441.336C171.434 443.092 172.095 444.373 173.419 445.177C174.743 445.981 176.777 446.395 179.523 446.42L185.016 446.42C187.935 446.42 190.093 445.999 191.491 445.158C192.877 444.305 193.569 443.018 193.569 441.299C193.569 439.604 192.914 438.349 191.603 437.532C190.291 436.703 188.226 436.271 185.405 436.233L179.783 436.233Z" fill="#D4DAE3"/>
<path d="M517.31 459.445C516.052 459.445 514.992 459.89 514.131 460.778C513.27 461.653 512.49 463.137 511.793 465.229C510.904 468.141 509.749 470.267 508.327 471.606C506.892 472.933 505.073 473.596 502.872 473.596C500.63 473.596 498.791 472.946 497.355 471.647C495.92 470.335 495.065 468.537 494.792 466.254L490.301 466.254L490.301 463.198L494.812 463.198C495.127 460.901 496.091 459.117 497.704 457.846C499.317 456.561 501.525 455.918 504.328 455.918L504.328 459.691C502.4 459.691 500.869 460.149 499.734 461.065C498.6 461.981 498.032 463.219 498.032 464.777C498.032 466.404 498.456 467.648 499.304 468.51C500.138 469.371 501.307 469.802 502.811 469.802C504.205 469.802 505.319 469.351 506.153 468.448C506.974 467.532 507.726 466.035 508.409 463.957C509.079 461.865 509.824 460.238 510.645 459.076C511.451 457.9 512.395 457.039 513.475 456.492C514.555 455.932 515.819 455.651 517.269 455.651C519.579 455.651 521.438 456.349 522.847 457.743C524.255 459.124 525.089 461.065 525.349 463.567L529.266 463.567L529.266 466.603L525.349 466.603C525.116 469.146 524.214 471.142 522.642 472.591C521.056 474.026 518.909 474.744 516.202 474.744L516.202 470.95C518.103 470.95 519.565 470.451 520.591 469.453C521.616 468.455 522.129 467.04 522.129 465.208C522.129 463.417 521.698 462.009 520.837 460.983C519.976 459.958 518.8 459.445 517.31 459.445ZM508.225 445.418L508.225 442.567C508.197 440.776 507.726 439.368 506.81 438.343C505.894 437.317 504.656 436.805 503.098 436.805C499.598 436.805 497.848 438.548 497.848 442.034C497.848 443.675 498.319 444.987 499.263 445.972C500.192 446.942 501.43 447.428 502.975 447.428L502.975 451.222C500.609 451.222 498.647 450.36 497.089 448.638C495.517 446.901 494.73 444.7 494.73 442.034C494.73 439.218 495.476 437.01 496.966 435.41C498.456 433.811 500.527 433.011 503.18 433.011C504.479 433.011 505.736 433.435 506.953 434.282C508.17 435.116 509.079 436.258 509.681 437.707C510.2 436.066 511.062 434.802 512.265 433.913C513.468 433.011 514.937 432.56 516.674 432.56C519.354 432.56 521.479 433.435 523.052 435.185C524.624 436.935 525.41 439.211 525.41 442.014C525.41 444.816 524.651 447.1 523.134 448.863C521.616 450.613 519.613 451.488 517.125 451.488L517.125 447.674C518.697 447.674 519.955 447.161 520.898 446.136C521.842 445.11 522.313 443.736 522.313 442.014C522.313 440.182 521.835 438.78 520.878 437.81C519.921 436.839 518.547 436.354 516.756 436.354C515.02 436.354 513.687 436.887 512.757 437.953C511.827 439.02 511.349 440.558 511.321 442.567L511.321 445.418L508.225 445.418ZM523.011 426.879C522.354 426.879 521.808 426.687 521.37 426.305C520.933 425.908 520.714 425.32 520.714 424.541C520.714 423.762 520.933 423.174 521.37 422.777C521.808 422.367 522.354 422.162 523.011 422.162C523.64 422.162 524.166 422.367 524.59 422.777C525.014 423.174 525.226 423.762 525.226 424.541C525.226 425.32 525.014 425.908 524.59 426.305C524.166 426.687 523.64 426.879 523.011 426.879ZM512.265 397.553C516.708 397.553 520.01 398.312 522.17 399.829C524.33 401.347 525.41 403.719 525.41 406.945C525.41 410.131 524.357 412.489 522.252 414.021C520.133 415.552 516.975 416.345 512.777 416.399L507.712 416.399C503.323 416.399 500.062 415.641 497.93 414.123C495.797 412.605 494.73 410.227 494.73 406.986C494.73 403.773 495.763 401.408 497.827 399.891C499.878 398.373 503.05 397.594 507.343 397.553L512.265 397.553ZM507.076 401.347C503.863 401.347 501.525 401.798 500.062 402.7C498.586 403.603 497.848 405.031 497.848 406.986C497.848 408.928 498.579 410.343 500.042 411.231C501.505 412.12 503.754 412.578 506.789 412.605L512.859 412.605C516.086 412.605 518.472 412.141 520.017 411.211C521.548 410.268 522.313 408.846 522.313 406.945C522.313 405.072 521.589 403.685 520.14 402.782C518.69 401.866 516.407 401.388 513.29 401.347L507.076 401.347ZM512.265 373.969C516.708 373.969 520.01 374.728 522.17 376.245C524.33 377.763 525.41 380.135 525.41 383.361C525.41 386.547 524.357 388.905 522.252 390.437C520.133 391.968 516.975 392.761 512.777 392.815L507.712 392.815C503.323 392.815 500.062 392.057 497.93 390.539C495.797 389.021 494.73 386.643 494.73 383.402C494.73 380.189 495.763 377.824 497.827 376.307C499.878 374.789 503.05 374.01 507.343 373.969L512.265 373.969ZM507.076 377.763C503.863 377.763 501.525 378.214 500.062 379.116C498.586 380.019 497.848 381.447 497.848 383.402C497.848 385.344 498.579 386.759 500.042 387.647C501.505 388.536 503.754 388.994 506.789 389.021L512.859 389.021C516.086 389.021 518.472 388.557 520.017 387.627C521.548 386.684 522.313 385.262 522.313 383.361C522.313 381.488 521.589 380.101 520.14 379.198C518.69 378.282 516.407 377.804 513.29 377.763L507.076 377.763ZM512.265 350.385C516.708 350.385 520.01 351.144 522.17 352.661C524.33 354.179 525.41 356.551 525.41 359.777C525.41 362.963 524.357 365.321 522.252 366.853C520.133 368.384 516.975 369.177 512.777 369.231L507.712 369.231C503.323 369.231 500.062 368.473 497.93 366.955C495.797 365.438 494.73 363.059 494.73 359.818C494.73 356.605 495.763 354.24 497.827 352.723C499.878 351.205 503.05 350.426 507.343 350.385L512.265 350.385ZM507.076 354.179C503.863 354.179 501.525 354.63 500.062 355.532C498.586 356.435 497.848 357.863 497.848 359.818C497.848 361.76 498.579 363.175 500.042 364.063C501.505 364.952 503.754 365.41 506.789 365.437L512.859 365.437C516.086 365.437 518.472 364.973 520.017 364.043C521.548 363.1 522.313 361.678 522.313 359.777C522.313 357.904 521.589 356.517 520.14 355.614C518.69 354.698 516.407 354.22 513.29 354.179L507.076 354.179Z" fill="#D4DAE3"/>
<path d="M467.239 97.1333C466.461 97.1333 465.805 97.4084 465.271 97.9585C464.738 98.5002 464.256 99.4185 463.824 100.713C463.274 102.516 462.559 103.832 461.679 104.662C460.79 105.483 459.664 105.893 458.302 105.893C456.914 105.893 455.775 105.491 454.887 104.687C453.998 103.875 453.469 102.762 453.3 101.348L450.52 101.348L450.52 99.4565L453.312 99.4565C453.507 98.0347 454.104 96.9302 455.103 96.1431C456.101 95.3475 457.468 94.9497 459.203 94.9497L459.203 97.2856C458.01 97.2856 457.062 97.5692 456.359 98.1362C455.657 98.7033 455.306 99.4692 455.306 100.434C455.306 101.441 455.568 102.211 456.093 102.745C456.609 103.278 457.333 103.544 458.264 103.544C459.127 103.544 459.817 103.265 460.333 102.707C460.841 102.139 461.306 101.213 461.729 99.9263C462.144 98.6313 462.605 97.6242 463.113 96.9048C463.613 96.1769 464.197 95.6437 464.865 95.3052C465.534 94.9582 466.317 94.7847 467.214 94.7847C468.644 94.7847 469.795 95.2163 470.667 96.0796C471.539 96.9344 472.055 98.1362 472.216 99.6851L474.641 99.6851L474.641 101.564L472.216 101.564C472.072 103.138 471.513 104.374 470.54 105.271C469.558 106.16 468.229 106.604 466.554 106.604L466.554 104.255C467.73 104.255 468.636 103.946 469.271 103.329C469.905 102.711 470.223 101.835 470.223 100.701C470.223 99.592 469.956 98.7202 469.423 98.0854C468.89 97.4507 468.162 97.1333 467.239 97.1333ZM472 84.146L472 86.5073L456.347 86.5073L458.086 91.2427L455.953 91.2427L453.427 84.5142L453.427 84.146L472 84.146Z" fill="#D4DAE3"/>
<path d="M83.2393 383.133C82.4606 383.133 81.8047 383.408 81.2715 383.958C80.7383 384.5 80.2559 385.418 79.8242 386.713C79.2741 388.516 78.5589 389.832 77.6787 390.661C76.79 391.482 75.6644 391.893 74.3018 391.893C72.9137 391.893 71.7754 391.491 70.8867 390.687C69.998 389.874 69.4691 388.761 69.2998 387.348L66.5195 387.348L66.5195 385.456L69.3125 385.456C69.5072 384.034 70.1038 382.93 71.1025 382.143C72.1012 381.347 73.4681 380.949 75.2031 380.949L75.2031 383.285C74.0098 383.285 73.0618 383.569 72.3594 384.136C71.6569 384.703 71.3057 385.469 71.3057 386.434C71.3057 387.441 71.568 388.211 72.0928 388.744C72.609 389.277 73.3327 389.544 74.2637 389.544C75.127 389.544 75.8167 389.265 76.333 388.706C76.8408 388.139 77.3063 387.212 77.7295 385.926C78.1442 384.631 78.6055 383.624 79.1133 382.904C79.6126 382.176 80.1966 381.643 80.8652 381.305C81.5339 380.958 82.3167 380.784 83.2139 380.784C84.6442 380.784 85.7952 381.216 86.667 382.079C87.5387 382.934 88.055 384.136 88.2158 385.685L90.6406 385.685L90.6406 387.563L88.2158 387.563C88.0719 389.138 87.5133 390.373 86.54 391.271C85.5583 392.159 84.2295 392.604 82.5537 392.604L82.5537 390.255C83.7301 390.255 84.6357 389.946 85.2705 389.328C85.9053 388.71 86.2227 387.834 86.2227 386.7C86.2227 385.591 85.9561 384.72 85.4229 384.085C84.8896 383.45 84.1618 383.133 83.2393 383.133ZM80.1162 366.273C82.8669 366.273 84.9108 366.743 86.248 367.683C87.5853 368.622 88.2539 370.09 88.2539 372.088C88.2539 374.06 87.6022 375.52 86.2988 376.468C84.987 377.416 83.0319 377.907 80.4336 377.94L77.2979 377.94C74.5811 377.94 72.5625 377.471 71.2422 376.531C69.9219 375.592 69.2617 374.119 69.2617 372.113C69.2617 370.124 69.9007 368.66 71.1787 367.721C72.4482 366.781 74.4118 366.299 77.0693 366.273L80.1162 366.273ZM76.9043 368.622C74.9154 368.622 73.4681 368.901 72.5625 369.46C71.6484 370.019 71.1914 370.903 71.1914 372.113C71.1914 373.315 71.6442 374.191 72.5498 374.741C73.4554 375.291 74.8477 375.575 76.7266 375.592L80.4844 375.592C82.4818 375.592 83.9587 375.304 84.915 374.729C85.863 374.145 86.3369 373.264 86.3369 372.088C86.3369 370.928 85.8883 370.069 84.9912 369.511C84.0941 368.944 82.6807 368.647 80.751 368.622L76.9043 368.622ZM91.6816 363.1L90.7676 364.433C89.6589 363.637 88.5163 363.222 87.3398 363.188L85.2197 363.188L85.2197 360.891L87.0605 360.891C87.9154 360.891 88.7702 361.102 89.625 361.525C90.4798 361.94 91.1654 362.465 91.6816 363.1ZM78.7324 357.082L69.5156 356.143L69.5156 346.672L71.6865 346.672L71.6865 354.149L76.7266 354.708C76.1934 353.802 75.9268 352.774 75.9268 351.623C75.9268 349.939 76.4853 348.602 77.6025 347.611C78.7113 346.621 80.2135 346.126 82.1094 346.126C84.0137 346.126 85.5159 346.642 86.6162 347.675C87.708 348.699 88.2539 350.133 88.2539 351.979C88.2539 353.612 87.8011 354.945 86.8955 355.978C85.9899 357.01 84.7373 357.598 83.1377 357.742L83.1377 355.521C84.1956 355.377 84.9954 355 85.5371 354.391C86.0703 353.781 86.3369 352.977 86.3369 351.979C86.3369 350.887 85.9645 350.032 85.2197 349.414C84.4749 348.788 83.4466 348.475 82.1348 348.475C80.8991 348.475 79.9089 348.813 79.1641 349.49C78.4108 350.159 78.0342 351.052 78.0342 352.169C78.0342 353.193 78.2585 353.997 78.707 354.581L79.2148 355.203L78.7324 357.082Z" fill="#D4DAE3"/>
<path d="M417.141 217.625C416.182 217.625 415.375 217.964 414.719 218.641C414.062 219.308 413.469 220.438 412.937 222.032C412.26 224.25 411.38 225.87 410.297 226.891C409.203 227.902 407.818 228.407 406.141 228.407C404.432 228.407 403.031 227.912 401.937 226.922C400.844 225.922 400.193 224.553 399.984 222.813L396.562 222.813L396.562 220.485L400 220.485C400.24 218.735 400.974 217.375 402.203 216.407C403.432 215.428 405.115 214.938 407.25 214.938L407.25 217.813C405.781 217.813 404.615 218.162 403.75 218.86C402.885 219.558 402.453 220.5 402.453 221.688C402.453 222.928 402.776 223.875 403.422 224.532C404.057 225.188 404.948 225.516 406.094 225.516C407.156 225.516 408.005 225.172 408.641 224.485C409.266 223.787 409.839 222.646 410.359 221.063C410.87 219.469 411.437 218.23 412.062 217.344C412.677 216.448 413.396 215.792 414.219 215.375C415.042 214.948 416.005 214.735 417.109 214.735C418.87 214.735 420.286 215.266 421.359 216.329C422.432 217.381 423.068 218.86 423.266 220.766L426.25 220.766L426.25 223.079L423.266 223.079C423.089 225.016 422.401 226.537 421.203 227.641C419.995 228.735 418.359 229.282 416.297 229.282L416.297 226.391C417.745 226.391 418.859 226.011 419.641 225.25C420.422 224.49 420.812 223.412 420.812 222.016C420.812 220.652 420.484 219.579 419.828 218.797C419.172 218.016 418.276 217.625 417.141 217.625ZM423 196.235L423 211.141L420.922 211.141L412.172 203.266C410.849 202.099 409.776 201.297 408.953 200.86C408.12 200.412 407.26 200.188 406.375 200.188C405.187 200.188 404.214 200.547 403.453 201.266C402.693 201.985 402.312 202.943 402.312 204.141C402.312 205.579 402.724 206.698 403.547 207.5C404.359 208.292 405.495 208.688 406.953 208.688L406.953 211.579C404.859 211.579 403.167 210.907 401.875 209.563C400.583 208.209 399.937 206.402 399.937 204.141C399.937 202.027 400.495 200.355 401.609 199.125C402.714 197.896 404.187 197.282 406.031 197.282C408.271 197.282 410.937 198.709 414.031 201.563L420.641 207.657L420.641 196.235L423 196.235ZM411.594 191.844L400.25 190.688L400.25 179.032L402.922 179.032L402.922 188.235L409.125 188.922C408.469 187.808 408.141 186.542 408.141 185.125C408.141 183.053 408.828 181.407 410.203 180.188C411.568 178.969 413.417 178.36 415.75 178.36C418.094 178.36 419.943 178.995 421.297 180.266C422.641 181.527 423.312 183.292 423.312 185.563C423.312 187.573 422.755 189.214 421.641 190.485C420.526 191.756 418.984 192.48 417.016 192.657L417.016 189.922C418.318 189.745 419.302 189.282 419.969 188.532C420.625 187.782 420.953 186.792 420.953 185.563C420.953 184.219 420.495 183.167 419.578 182.407C418.661 181.636 417.396 181.25 415.781 181.25C414.26 181.25 413.042 181.667 412.125 182.5C411.198 183.323 410.734 184.422 410.734 185.797C410.734 187.058 411.01 188.047 411.562 188.766L412.187 189.532L411.594 191.844Z" fill="#D4DAE3"/>
<path d="M19.2393 269.133C18.4606 269.133 17.8047 269.408 17.2715 269.958C16.7383 270.5 16.2559 271.418 15.8242 272.713C15.2741 274.516 14.5589 275.832 13.6787 276.662C12.79 277.483 11.6644 277.893 10.3018 277.893C8.91374 277.893 7.77539 277.491 6.88672 276.687C5.99805 275.875 5.46908 274.762 5.2998 273.348L2.51953 273.348L2.51953 271.457L5.3125 271.457C5.50716 270.035 6.10384 268.93 7.10254 268.143C8.10124 267.347 9.4681 266.95 11.2031 266.95L11.2031 269.286C10.0098 269.286 9.06185 269.569 8.35937 270.136C7.6569 270.703 7.30566 271.469 7.30566 272.434C7.30566 273.441 7.56803 274.211 8.09277 274.745C8.60905 275.278 9.33268 275.544 10.2637 275.544C11.127 275.544 11.8167 275.265 12.333 274.707C12.8408 274.139 13.3063 273.213 13.7295 271.926C14.1442 270.631 14.6055 269.624 15.1133 268.905C15.6126 268.177 16.1966 267.644 16.8652 267.305C17.5339 266.958 18.3167 266.785 19.2139 266.785C20.6442 266.785 21.7952 267.216 22.667 268.08C23.5387 268.934 24.055 270.136 24.2158 271.685L26.6406 271.685L26.6406 273.564L24.2158 273.564C24.0719 275.138 23.5133 276.374 22.54 277.271C21.5583 278.16 20.2295 278.604 18.5537 278.604L18.5537 276.255C19.7301 276.255 20.6357 275.946 21.2705 275.329C21.9053 274.711 22.2227 273.835 22.2227 272.701C22.2227 271.592 21.9561 270.72 21.4229 270.085C20.8896 269.451 20.1618 269.133 19.2393 269.133ZM16.1162 252.274C18.8669 252.274 20.9108 252.744 22.248 253.683C23.5853 254.623 24.2539 256.091 24.2539 258.088C24.2539 260.06 23.6022 261.52 22.2988 262.468C20.987 263.416 19.0319 263.907 16.4336 263.941L13.2979 263.941C10.5811 263.941 8.5625 263.471 7.24219 262.532C5.92187 261.592 5.26172 260.12 5.26172 258.114C5.26172 256.125 5.90072 254.661 7.17871 253.721C8.44824 252.782 10.4118 252.299 13.0693 252.274L16.1162 252.274ZM12.9043 254.623C10.9154 254.623 9.4681 254.902 8.5625 255.46C7.64844 256.019 7.19141 256.903 7.19141 258.114C7.19141 259.316 7.6442 260.192 8.5498 260.742C9.4554 261.292 10.8477 261.575 12.7266 261.592L16.4844 261.592C18.4818 261.592 19.9587 261.305 20.915 260.729C21.863 260.145 22.3369 259.265 22.3369 258.088C22.3369 256.929 21.8883 256.07 20.9912 255.511C20.0941 254.944 18.6807 254.648 16.751 254.623L12.9043 254.623ZM27.6816 249.1L26.7676 250.433C25.6589 249.638 24.5163 249.223 23.3398 249.189L21.2197 249.189L21.2197 246.891L23.0605 246.891C23.9154 246.891 24.7702 247.103 25.625 247.526C26.4798 247.941 27.1654 248.465 27.6816 249.1ZM13.6152 240.747L13.6152 238.982C13.5983 237.873 13.3063 237.001 12.7393 236.367C12.1722 235.732 11.4062 235.415 10.4414 235.415C8.27474 235.415 7.1914 236.494 7.1914 238.652C7.1914 239.667 7.4834 240.48 8.06738 241.089C8.6429 241.69 9.40885 241.991 10.3652 241.991L10.3652 244.339C8.90104 244.339 7.68652 243.806 6.72168 242.74C5.74837 241.665 5.26172 240.302 5.26172 238.652C5.26172 236.908 5.72298 235.542 6.64551 234.551C7.56803 233.561 8.85026 233.066 10.4922 233.066C11.2962 233.066 12.0749 233.328 12.8281 233.853C13.5814 234.369 14.1442 235.076 14.5166 235.973C14.8382 234.958 15.3714 234.175 16.1162 233.625C16.861 233.066 17.7708 232.787 18.8457 232.787C20.5046 232.787 21.8206 233.328 22.7939 234.412C23.7673 235.495 24.2539 236.904 24.2539 238.639C24.2539 240.374 23.7842 241.788 22.8447 242.879C21.9053 243.963 20.6654 244.504 19.125 244.504L19.125 242.143C20.0983 242.143 20.877 241.826 21.4609 241.191C22.0449 240.556 22.3369 239.706 22.3369 238.639C22.3369 237.505 22.0407 236.638 21.4482 236.037C20.8558 235.436 20.0052 235.135 18.8965 235.135C17.8216 235.135 16.9964 235.465 16.4209 236.125C15.8454 236.786 15.5492 237.738 15.5322 238.982L15.5322 240.747L13.6152 240.747Z" fill="#D4DAE3"/>
<path d="M310.281 514.25C308.365 514.25 306.75 514.927 305.437 516.281C304.125 517.615 302.937 519.875 301.875 523.062C300.521 527.5 298.76 530.74 296.594 532.781C294.406 534.802 291.635 535.812 288.281 535.812C284.865 535.813 282.062 534.823 279.875 532.844C277.687 530.844 276.385 528.104 275.969 524.625L269.125 524.625L269.125 519.969L276 519.969C276.479 516.469 277.948 513.75 280.406 511.813C282.865 509.854 286.229 508.875 290.5 508.875L290.5 514.625C287.562 514.625 285.229 515.323 283.5 516.719C281.771 518.115 280.906 520 280.906 522.375C280.906 524.854 281.552 526.75 282.844 528.063C284.115 529.375 285.896 530.031 288.187 530.031C290.312 530.031 292.01 529.344 293.281 527.969C294.531 526.573 295.677 524.292 296.719 521.125C297.74 517.937 298.875 515.458 300.125 513.687C301.354 511.896 302.792 510.583 304.437 509.75C306.083 508.896 308.01 508.469 310.219 508.469C313.74 508.469 316.573 509.531 318.719 511.656C320.865 513.76 322.135 516.719 322.531 520.531L328.5 520.531L328.5 525.156L322.531 525.156C322.177 529.031 320.802 532.073 318.406 534.281C315.99 536.469 312.719 537.562 308.594 537.562L308.594 531.781C311.49 531.781 313.719 531.021 315.281 529.5C316.844 527.979 317.625 525.823 317.625 523.031C317.625 520.302 316.969 518.156 315.656 516.594C314.344 515.031 312.552 514.25 310.281 514.25ZM322 482.281L322 488.094L283.469 488.094L287.75 499.75L282.5 499.75L276.281 483.188L276.281 482.281L322 482.281ZM276.5 456.094L313.625 441.219L276.5 426.344L276.5 418.563L322 418.562L322 424.562L304.281 424.562L285.156 424L322 438.937L322 443.531L285.25 458.437L304.281 457.844L322 457.844L322 463.844L276.5 463.844L276.5 456.094Z" fill="#D4DAE3"/>
<path d="M141.141 100.625C140.182 100.625 139.375 100.964 138.719 101.641C138.062 102.308 137.469 103.438 136.937 105.032C136.26 107.25 135.38 108.87 134.297 109.891C133.203 110.902 131.818 111.407 130.141 111.407C128.432 111.407 127.031 110.912 125.937 109.922C124.844 108.922 124.193 107.553 123.984 105.813L120.562 105.813L120.562 103.485L124 103.485C124.24 101.735 124.974 100.375 126.203 99.4067C127.432 98.4276 129.115 97.938 131.25 97.938L131.25 100.813C129.781 100.813 128.615 101.162 127.75 101.86C126.885 102.558 126.453 103.5 126.453 104.688C126.453 105.928 126.776 106.875 127.422 107.532C128.057 108.188 128.948 108.516 130.094 108.516C131.156 108.516 132.005 108.172 132.641 107.485C133.266 106.787 133.839 105.646 134.359 104.063C134.87 102.469 135.437 101.23 136.062 100.344C136.677 99.4484 137.396 98.7922 138.219 98.3755C139.042 97.9484 140.005 97.7349 141.109 97.7349C142.87 97.7349 144.286 98.2661 145.359 99.3286C146.432 100.381 147.068 101.86 147.266 103.766L150.25 103.766L150.25 106.079L147.266 106.079C147.089 108.016 146.401 109.537 145.203 110.641C143.995 111.735 142.359 112.282 140.297 112.282L140.297 109.391C141.745 109.391 142.859 109.011 143.641 108.25C144.422 107.49 144.812 106.412 144.812 105.016C144.812 103.652 144.484 102.579 143.828 101.797C143.172 101.016 142.276 100.625 141.141 100.625ZM147 84.6411L147 87.5474L127.734 87.5474L129.875 93.3755L127.25 93.3755L124.141 85.0942L124.141 84.6411L147 84.6411ZM135.594 74.8442L124.25 73.688L124.25 62.0317L126.922 62.0317L126.922 71.2349L133.125 71.9224C132.469 70.8078 132.141 69.5422 132.141 68.1255C132.141 66.0526 132.828 64.4067 134.203 63.188C135.568 61.9692 137.417 61.3599 139.75 61.3599C142.094 61.3599 143.943 61.9953 145.297 63.2661C146.641 64.5265 147.312 66.2922 147.312 68.563C147.312 70.5734 146.755 72.214 145.641 73.4849C144.526 74.7557 142.984 75.4797 141.016 75.6567L141.016 72.9224C142.318 72.7453 143.302 72.2817 143.969 71.5317C144.625 70.7817 144.953 69.7922 144.953 68.563C144.953 67.2192 144.495 66.1672 143.578 65.4067C142.661 64.6359 141.396 64.2505 139.781 64.2505C138.26 64.2505 137.042 64.6672 136.125 65.5005C135.198 66.3234 134.734 67.4224 134.734 68.7974C134.734 70.0578 135.01 71.0474 135.562 71.7661L136.187 72.5317L135.594 74.8442Z" fill="#D4DAE3"/>
<path d="M298.31 111.446C297.052 111.446 295.992 111.89 295.131 112.779C294.27 113.654 293.49 115.137 292.793 117.229C291.904 120.141 290.749 122.267 289.327 123.607C287.892 124.933 286.073 125.596 283.872 125.596C281.63 125.596 279.791 124.947 278.355 123.648C276.92 122.335 276.065 120.538 275.792 118.254L271.301 118.254L271.301 115.199L275.813 115.199C276.127 112.902 277.091 111.118 278.704 109.846C280.317 108.561 282.525 107.918 285.328 107.918L285.328 111.692C283.4 111.692 281.869 112.15 280.734 113.066C279.6 113.982 279.032 115.219 279.032 116.778C279.032 118.405 279.456 119.649 280.304 120.51C281.138 121.372 282.307 121.802 283.811 121.802C285.205 121.802 286.319 121.351 287.153 120.449C287.974 119.533 288.726 118.036 289.409 115.958C290.079 113.866 290.824 112.239 291.645 111.077C292.451 109.901 293.395 109.04 294.475 108.493C295.555 107.932 296.819 107.652 298.269 107.652C300.579 107.652 302.438 108.349 303.847 109.744C305.255 111.125 306.089 113.066 306.349 115.568L310.266 115.568L310.266 118.603L306.349 118.603C306.116 121.146 305.214 123.142 303.642 124.591C302.056 126.027 299.909 126.745 297.202 126.745L297.202 122.951C299.103 122.951 300.565 122.452 301.591 121.454C302.616 120.456 303.129 119.041 303.129 117.208C303.129 115.417 302.698 114.009 301.837 112.984C300.976 111.958 299.8 111.446 298.31 111.446ZM291.029 101.192L276.141 99.6743L276.141 84.3755L279.647 84.3755L279.647 96.4546L287.789 97.3569C286.928 95.894 286.497 94.2329 286.497 92.3735C286.497 89.6528 287.399 87.4927 289.204 85.8931C290.995 84.2935 293.422 83.4937 296.484 83.4937C299.561 83.4937 301.987 84.3276 303.765 85.9956C305.528 87.6499 306.41 89.9673 306.41 92.9478C306.41 95.5864 305.679 97.7397 304.216 99.4077C302.753 101.076 300.729 102.026 298.146 102.258L298.146 98.6694C299.854 98.437 301.146 97.8286 302.021 96.8442C302.883 95.8599 303.313 94.561 303.313 92.9478C303.313 91.1841 302.712 89.8032 301.509 88.8052C300.306 87.7935 298.645 87.2876 296.525 87.2876C294.529 87.2876 292.93 87.8345 291.727 88.9282C290.51 90.0083 289.901 91.4507 289.901 93.2554C289.901 94.9097 290.264 96.2085 290.988 97.1519L291.809 98.1567L291.029 101.192ZM304.011 78.8794C303.354 78.8794 302.808 78.688 302.37 78.3052C301.933 77.9087 301.714 77.3208 301.714 76.5415C301.714 75.7622 301.933 75.1743 302.37 74.7778C302.808 74.3677 303.354 74.1626 304.011 74.1626C304.64 74.1626 305.166 74.3677 305.59 74.7778C306.014 75.1743 306.226 75.7622 306.226 76.5415C306.226 77.3208 306.014 77.9087 305.59 78.3052C305.166 78.688 304.64 78.8794 304.011 78.8794ZM293.265 49.5532C297.708 49.5532 301.01 50.312 303.17 51.8296C305.33 53.3472 306.41 55.7192 306.41 58.9458C306.41 62.1313 305.357 64.4897 303.252 66.021C301.133 67.5522 297.975 68.3452 293.777 68.3999L288.712 68.3999C284.323 68.3999 281.063 67.6411 278.93 66.1235C276.797 64.606 275.73 62.2271 275.73 58.9868C275.73 55.7739 276.763 53.4087 278.827 51.8911C280.878 50.3735 284.05 49.5942 288.343 49.5532L293.265 49.5532ZM288.076 53.3472C284.863 53.3472 282.525 53.7983 281.063 54.7007C279.586 55.603 278.848 57.0317 278.848 58.9868C278.848 60.9282 279.579 62.3433 281.042 63.2319C282.505 64.1206 284.754 64.5786 287.789 64.606L293.859 64.606C297.086 64.606 299.472 64.1411 301.017 63.2114C302.548 62.2681 303.313 60.8462 303.313 58.9458C303.313 57.0728 302.589 55.6851 301.14 54.7827C299.69 53.8667 297.407 53.3882 294.29 53.3472L288.076 53.3472ZM293.265 25.9692C297.708 25.9692 301.01 26.728 303.17 28.2456C305.33 29.7632 306.41 32.1353 306.41 35.3618C306.41 38.5474 305.357 40.9058 303.252 42.437C301.133 43.9683 297.975 44.7612 293.777 44.8159L288.712 44.8159C284.323 44.8159 281.063 44.0571 278.93 42.5396C276.797 41.022 275.73 38.6431 275.73 35.4028C275.73 32.1899 276.763 29.8247 278.827 28.3071C280.878 26.7896 284.05 26.0103 288.343 25.9692L293.265 25.9692ZM288.076 29.7632C284.863 29.7632 282.525 30.2144 281.063 31.1167C279.586 32.019 278.848 33.4478 278.848 35.4028C278.848 37.3442 279.579 38.7593 281.042 39.6479C282.505 40.5366 284.754 40.9946 287.789 41.022L293.859 41.022C297.086 41.022 299.472 40.5571 301.017 39.6274C302.548 38.6841 303.313 37.2622 303.313 35.3618C303.313 33.4888 302.589 32.1011 301.14 31.1987C299.69 30.2827 297.407 29.8042 294.29 29.7632L288.076 29.7632ZM293.265 2.38525C297.708 2.38525 301.01 3.14404 303.17 4.66162C305.33 6.1792 306.41 8.55127 306.41 11.7778C306.41 14.9634 305.357 17.3218 303.252 18.853C301.133 20.3843 297.975 21.1772 293.777 21.2319L288.712 21.2319C284.323 21.2319 281.063 20.4731 278.93 18.9556C276.797 17.438 275.73 15.0591 275.73 11.8188C275.73 8.60596 276.763 6.24072 278.827 4.72314C280.878 3.20557 284.05 2.42627 288.343 2.38525L293.265 2.38525ZM288.076 6.1792C284.863 6.1792 282.525 6.63037 281.063 7.53271C279.586 8.43506 278.848 9.86377 278.848 11.8188C278.848 13.7603 279.579 15.1753 281.042 16.064C282.505 16.9526 284.754 17.4106 287.789 17.438L293.859 17.438C297.086 17.438 299.472 16.9731 301.017 16.0435C302.548 15.1001 303.313 13.6782 303.313 11.7778C303.313 9.90479 302.589 8.51709 301.14 7.61475C299.69 6.69873 297.407 6.22022 294.29 6.1792L288.076 6.1792Z" fill="#D4DAE3"/>
<path d="M416.239 530.133C415.461 530.133 414.805 530.408 414.271 530.958C413.738 531.5 413.256 532.418 412.824 533.713C412.274 535.516 411.559 536.832 410.679 537.661C409.79 538.482 408.664 538.893 407.302 538.893C405.914 538.893 404.775 538.491 403.887 537.687C402.998 536.874 402.469 535.761 402.3 534.348L399.52 534.348L399.52 532.456L402.312 532.456C402.507 531.034 403.104 529.93 404.103 529.143C405.101 528.347 406.468 527.949 408.203 527.949L408.203 530.285C407.01 530.285 406.062 530.569 405.359 531.136C404.657 531.703 404.306 532.469 404.306 533.434C404.306 534.441 404.568 535.211 405.093 535.744C405.609 536.277 406.333 536.544 407.264 536.544C408.127 536.544 408.817 536.265 409.333 535.706C409.841 535.139 410.306 534.212 410.729 532.926C411.144 531.631 411.605 530.624 412.113 529.904C412.613 529.176 413.197 528.643 413.865 528.305C414.534 527.958 415.317 527.784 416.214 527.784C417.644 527.784 418.795 528.216 419.667 529.079C420.539 529.934 421.055 531.136 421.216 532.685L423.641 532.685L423.641 534.563L421.216 534.563C421.072 536.138 420.513 537.373 419.54 538.271C418.558 539.159 417.229 539.604 415.554 539.604L415.554 537.255C416.73 537.255 417.636 536.946 418.271 536.328C418.905 535.71 419.223 534.834 419.223 533.7C419.223 532.591 418.956 531.72 418.423 531.085C417.89 530.45 417.162 530.133 416.239 530.133ZM413.116 513.273C415.867 513.273 417.911 513.743 419.248 514.683C420.585 515.622 421.254 517.09 421.254 519.088C421.254 521.06 420.602 522.52 419.299 523.468C417.987 524.416 416.032 524.907 413.434 524.94L410.298 524.94C407.581 524.94 405.562 524.471 404.242 523.531C402.922 522.592 402.262 521.119 402.262 519.113C402.262 517.124 402.901 515.66 404.179 514.721C405.448 513.781 407.412 513.299 410.069 513.273L413.116 513.273ZM409.904 515.622C407.915 515.622 406.468 515.901 405.562 516.46C404.648 517.019 404.191 517.903 404.191 519.113C404.191 520.315 404.644 521.191 405.55 521.741C406.455 522.291 407.848 522.575 409.727 522.592L413.484 522.592C415.482 522.592 416.959 522.304 417.915 521.729C418.863 521.145 419.337 520.264 419.337 519.088C419.337 517.928 418.888 517.069 417.991 516.511C417.094 515.944 415.681 515.647 413.751 515.622L409.904 515.622ZM424.682 510.1L423.768 511.433C422.659 510.637 421.516 510.222 420.34 510.188L418.22 510.188L418.22 507.891L420.061 507.891C420.915 507.891 421.77 508.102 422.625 508.525C423.48 508.94 424.165 509.465 424.682 510.1ZM421 497.442L421 499.804L405.347 499.804L407.086 504.539L404.953 504.539L402.427 497.811L402.427 497.442L421 497.442Z" fill="#D4DAE3"/>
</svg>
