<?xml version="1.0" encoding="utf-8"?>
<!-- Generator: Adobe Illustrator 21.0.0, SVG Export Plug-In . SVG Version: 6.00 Build 0)  -->
<svg version="1.1" id="Шар_1" xmlns="http://www.w3.org/2000/svg" xmlns:xlink="http://www.w3.org/1999/xlink" x="0px" y="0px"
	 viewBox="0 0 1340 904" style="enable-background:new 0 0 1340 904;" xml:space="preserve">
<style type="text/css">
	.st0{fill:#FFFFFF;}
	.st1{fill:#2D213E;}
	.st2{fill:#FFFFFF;stroke:#000000;stroke-miterlimit:10;}
	.st3{fill:none;stroke:#000000;stroke-miterlimit:10;}
	.st4{fill:#28233B;}
	.st5{fill:#00C9D1;}
	.st6{fill:#00C9D1;stroke:#000000;stroke-linejoin:round;stroke-miterlimit:10;}
	.st7{fill:#252132;}
	.st8{fill:#006DE9;}
	.st9{fill:none;stroke:#FFFFFF;stroke-miterlimit:10;}
	.st10{fill:none;stroke:#282230;stroke-miterlimit:10;}
	.st11{fill:#006BE6;}
	.st12{stroke:#FFFFFF;stroke-miterlimit:10;}
	.st13{fill:none;stroke:#000000;stroke-width:2;stroke-miterlimit:10;}
	.st14{fill:none;stroke:#2D213E;stroke-miterlimit:10;}
	.st15{fill:#CEEDE6;}
	.st16{fill:none;stroke:#22211B;stroke-miterlimit:10;}
	.st17{fill:#77C7CD;}
</style>
<polygon class="st0" points="879.5,325.9 879.5,377 993.3,379.3 993.3,327.6 955.5,315.7 "/>
<polygon class="st0" points="598.3,284.3 598.3,341.1 714,343.6 714,286.2 675.6,273 "/>
<g>
	<g>
		<g>
			<polyline class="st0" points="781.9,763.9 780.3,707.2 720.6,672.7 707.3,763.9 			"/>
			<path d="M781.9,763.9l-1.1-28.4l-1-28.4l0.2,0.4l-59.7-34.5l0.7-0.3c-2.3,15.2-4.4,30.4-6.8,45.6l-3.5,22.8l-3.5,22.8l3.1-22.8
				l3.2-22.8c2.1-15.2,4.3-30.4,6.5-45.6l0.1-0.7l0.6,0.4l59.7,34.5l0.2,0.1l0,0.2l0.7,28.4L781.9,763.9z"/>
		</g>
		<g>
			<polyline class="st1" points="989.8,336.1 989.8,377.4 998.2,362.4 998.7,337.5 			"/>
			<path class="st2" d="M985.8,485.7l-6.5-59.5l-86.7,2.9l-8.9,58.2c4.9,24.4,26.5,42.1,51.1,42
				C959.9,529.1,981.6,510.7,985.8,485.7z"/>
			<path class="st2" d="M986.2,371c3.3-16.2,8.7-19,12.7-18.5c2.8,0.3,5.1,2.5,6.1,5.2c7.6,21.6-14.1,34.3-14.1,34.3
				c-0.3,5.9-0.8,10.9-1.3,15c-2.4,19.1-13.7,36.2-30.9,45c-8.9,4.6-18.7,6.7-28.4,5.8c-28.7-2.6-53.4-31.1-51.2-65.9
				c0,0-17.3-12.9-15.1-30.6c0.6-4.6,3.9-8.5,8.2-9.2c4.7-0.8,10.3,1.9,12,18.4"/>
			<path class="st3" d="M993.7,376.8c0,0-3.1-13.6,6.2-19.6"/>
			<path class="st3" d="M877.4,373.9c0,0,2.8-12.5-5.4-18.2"/>
			<path class="st3" d="M928,398.2l6.3,4.2c2.1,1.4,4.9,1.4,7,0l6.3-4.2"/>
			<path class="st3" d="M934,418.9c0,0,13.2,5.8,25-8.5"/>
			<path class="st4" d="M964,359.5c-1.5-0.3-2.9-0.9-4.1-1.8c-1.6-1.3-3.1-3.3-1.6-6.2c2.7-5.2,11.6,0.1,11.6,0.1s10.3,5.6,11,8.8
				C981.5,363,968.3,360.4,964,359.5z"/>
			<path class="st4" d="M911.7,359.5c1.5-0.3,2.9-0.9,4.1-1.8c1.6-1.3,3.1-3.3,1.6-6.2c-2.7-5.2-11.6,0.1-11.6,0.1s-10.3,5.6-11,8.8
				C894.2,363,907.4,360.4,911.7,359.5z"/>
			<g>
				<polyline class="st0" points="1105.2,763.9 1107.7,697 1161.8,662.5 1176.5,763.8 				"/>
				<polygon points="1105.2,763.9 1106.2,730.4 1107.3,696.9 1107.3,696.7 1107.5,696.6 1161.5,662.1 1162.1,661.7 1162.2,662.4 
					1169.5,713.1 1173,738.4 1176.5,763.8 1172.6,738.5 1168.8,713.2 1161.3,662.5 1162,662.9 1107.9,697.3 1108.1,697 
					1106.7,730.4 				"/>
			</g>
			<path class="st1" d="M901.9,286.7c0,0,18.4-37.9,80.6,1.5c0,0,20.1-20,30.6-1.7c7.6,13.3,3,27.4,1.4,31.1
				c-1.6,3.8-5.2,11.8-13.7,18.1c0,0-6.4,4.8-15.7,7.1c-15,3.8-48.2-3.7-79.7-16.7c0,0-14,29.4-32,26.1c0,0-17.6-37.5,1.5-63
				C874.9,289.3,886.1,272.8,901.9,286.7z"/>
			<path class="st3" d="M950.7,376.6c0,0,11.4-12,25,0.5"/>
			<path class="st3" d="M898.9,375.9c0,0,11.4-12,25,0.5"/>
			<path class="st5" d="M988.5,491.5l72.7,0.3c28.9,1.5,44,13.9,49.1,18.7c11.9,11.2,19.1,27.1,26.8,44c3.2,7.1,5.2,12.6,5.9,14.2
				c13.6,32.8,27.3,65.7,40.9,98.5c-23.6,13.5-47.2,27.1-70.8,40.6l-2.2,55.9l-329,0.1l-3.1-54.3l-81.7-50.4l60.2-128.8
				c0,0,21.3-33.2,47.2-36.5c26.6-3.4,82.9-1,82.9-1l48.6,34.7L988.5,491.5z"/>
			<polyline class="st6" points="936,527.7 941.1,513.8 949.8,491.3 986.8,469.3 992.6,490.7 			"/>
			<polyline class="st6" points="935.5,527.6 929.8,514 921.1,491.4 884.1,469.4 880.9,493.2 			"/>
			<polygon class="st6" points="921.1,491.4 916.8,530 880.9,493.2 884.1,469.4 			"/>
			<polygon class="st6" points="950.1,491.4 954.4,530 993.2,490.7 987.1,469.4 			"/>
			<line class="st6" x1="935.5" y1="527.6" x2="935.5" y2="763.8"/>
			<line class="st6" x1="1115.4" y1="603.2" x2="1110.9" y2="763.8"/>
		</g>
		<line class="st6" x1="776.7" y1="643.8" x2="781.9" y2="762.3"/>
	</g>
	<g>
		<path class="st1" d="M452.2,350c0,0-25.2-42-86.5-44.2c0,0-12.6,29.5-34,43.7l-13.6,4.4c0,0-13.4-28.2,19.6-65.3
			c0,0,35.6-35.7,86.5-6.1c0,0,39.2,24.1,37,71.2C461.1,357.2,452.6,346.1,452.2,350z"/>
		<g>
			<polyline class="st0" points="575.1,763.9 570.5,737 627.2,711.6 639.7,763.2 			"/>
			<path d="M575.1,763.9c-0.9-4.5-1.8-8.9-2.6-13.4c-0.9-4.5-1.7-9-2.5-13.4l-0.1-0.4l0.3-0.1l56.7-25.4l0.5-0.2l0.1,0.6
				c2,8.6,4.1,17.2,6.1,25.8c2,8.6,4,17.2,5.9,25.9c-2.3-8.6-4.4-17.1-6.6-25.7c-2.2-8.6-4.2-17.2-6.4-25.8l0.7,0.3l-56.7,25.4
				l0.3-0.5c0.8,4.5,1.5,9,2.2,13.5C573.8,754.9,574.5,759.4,575.1,763.9z"/>
		</g>
		<g>
			<polyline class="st0" points="227.7,763.8 233.8,734.1 180,702.8 166.1,763.8 			"/>
			<path d="M227.7,763.8l1.4-7.5c0.4-2.5,0.9-5,1.4-7.4c0.9-5,1.9-9.9,2.9-14.9l0.2,0.5l-53.8-31.3l0.7-0.3
				c-2.4,10.2-4.7,20.3-7.1,30.5l-3.6,15.2l-3.7,15.2l3.3-15.3l3.3-15.3c2.2-10.2,4.6-20.3,6.8-30.5l0.1-0.6l0.6,0.3l53.8,31.3
				l0.3,0.2l-0.1,0.3c-1,4.9-2.1,9.9-3.2,14.8c-0.6,2.5-1.1,4.9-1.7,7.4L227.7,763.8z"/>
		</g>
		<path class="st1" d="M326,348.2c-0.2,12.6-2.5,45.5-25.6,77.3c-12.8,17.6-27.6,28.7-38.9,35.5c-10,6-16.8,16.5-17.5,28.2
			c-0.2,3.4,0,7,1.1,10.6c2.4,8.5,8.3,14.7,26.3,26.6c13.6,9,33.1,22.1,51.8,28.9c34.5,12.5,84.9,17.3,163.2-8.2
			c0,0,51.8-26.4,56.1-49.9s-87.5-130-87.5-130L326,348.2z"/>
		<path class="st2" d="M354.8,490.3l-0.5-54l75.4-4.8V487C429.7,487,400.9,514.3,354.8,490.3z"/>
		<path class="st2" d="M452.5,349.4c0,0,19.4-2.6,19.4,11.6s-24.3,25-24.3,25s-0.6,34.9-20.2,50.8c0,0-20.9,22.3-48.9,12.3
			c-27.8-9.9-34-26.1-34-26.1s-7.8-11.2-6.3-36.6c0,0-25.8-3-27.6-24.6c0,0,1.9-17.2,20.2-12.3"/>
		<path class="st3" d="M449.9,373.1c0,0-2.5-12.3,8.7-18.2"/>
		<path class="st3" d="M332.7,372.8c0,0,3.1-13.7-10.1-17.3"/>
		<path class="st3" d="M396.2,365.3l5.9,11.3c0.8,1.6,1.6,3.2,2.6,4.7c1,1.6,2.5,4.9-0.9,6.9c-4.4,2.7-9.2,5.6-9.2,5.6"/>
		<path class="st0" d="M451.7,349.6c-23.9-41.4-86-43.8-86-43.8c-2.3,5.5-5.5,11.8-10,18.3c-8,11.8-17,20-24,25.3"/>
		<path class="st7" d="M409,342.8c-0.3-0.4-1-1.4-1-2.7c0-1.1,0.6-2.3,2-3.5c5.1-4.4,19.7,9.1,19.7,9.1c0.5,0.7,0.8,1.3,0.6,1.8
			C429.1,350.7,412.3,347.6,409,342.8z"/>
		<path class="st7" d="M374.2,342.8c0.3-0.4,1-1.4,1-2.7c0-1.1-0.6-2.3-2-3.5c-5.1-4.4-19.7,9.1-19.7,9.1c-0.5,0.7-0.8,1.3-0.6,1.8
			C354,350.7,370.9,347.6,374.2,342.8z"/>
		<path class="st3" d="M407.3,363c0,0,11.4-12,25,0.5"/>
		<path class="st3" d="M355.5,362.3c0,0,11.4-12,25,0.5"/>
		<path class="st8" d="M346.8,475.4c0,0,34.6,0.6,90.8,0l1.1,19l67.9,4.5c0,0,69.3,1.9,80.9,59.7l44,150.5l-62.2,27.8l5.7,27
			c-38.9,0.8-78.2,0-179.9-0.7c-85.5-0.6-124.8,0.7-167.5,0.6c0,0,0,0,5.9-27.5l-74.7-43l48.6-117.8c0,0,7.4-17.8,7.8-18.6
			c15.6-33.9,25.4-53.9,61.2-56.9l69.9-6.3L346.8,475.4z"/>
		<line class="st9" x1="530" y1="550.3" x2="573.2" y2="763.8"/>
		<line class="st9" x1="269.7" y1="549.1" x2="227.7" y2="763.8"/>
		<line class="st9" x1="392.3" y1="479.4" x2="392.4" y2="505.9"/>
		<line class="st9" x1="425.9" y1="477.9" x2="425.9" y2="504.3"/>
		<line class="st9" x1="357.8" y1="477.2" x2="357.6" y2="504.4"/>
		<circle class="st1" cx="360" cy="255.6" r="39.6"/>
		<path class="st1" d="M360.1,305.8"/>
		<path class="st10" d="M373.2,400.5c0,0,4.7,16.4,25.4,8.6"/>
	</g>
	<g>
		<path class="st11" d="M603.6,298.4c0,0-0.5,33.4-1.5,39c-0.3,1.7-5.6,0.7-7-1.3c-2.5-3.8-7.1-20.5-6.7-33.2
			c0.6-19.3,2.9-39.1,2.9-39.1"/>
		<g>
			<g>
				<path class="st1" d="M706.7,459.9l72.7,0.3c28.9,1.5,44,13.9,49.1,18.7c11.9,11.2,19.1,27.1,26.8,44c3.2,7.1,5.2,12.6,5.9,14.2
					c13.6,32.8,27.3,65.7,40.9,98.5c-23.6,13.5-47.2,27.1-70.8,40.6l11.5,89.3l-355.3-1.8l8.1-85.9l-80.2-50.2l60.2-128.8
					c0,0,21.3-33.2,47.2-36.5c26.6-3.4,82.9-1,82.9-1L706.7,459.9z"/>
				<path class="st2" d="M706.8,458.2l-6.5-59.5l-86.7,2.9l-8.9,58.2c4.9,24.4,26.5,42.1,51.1,42
					C680.9,501.6,702.6,483.1,706.8,458.2z"/>
				<path class="st11" d="M667.6,286.4c-29.1,13.6-45.1,19.5-57.5,15.3c-9.6-3.2-15.1-11-17.8-15.2c-10.9-16.4-8.5-37.8,0.7-52.3
					c1.8-2.9,15.9-25.4,32.9-20.9c10,2.6,17.6,13.7,19,27.5c7.6-13.8,24-17.5,33.7-11c7.1,4.8,10.5,14.9,8.1,24.9
					c10.5-6.9,22.3-8.2,30.4-3c7.2,4.6,8.9,13,10.2,18.5c4,17.4-3.8,32.2-6.7,37.2l-0.7,29.8l-12.5,1
					C707.3,338.2,711.2,266.1,667.6,286.4z"/>
				<path class="st2" d="M707.9,336.7c3.4-16.2,9.1-19,13.2-18.5c2.9,0.3,5.3,2.5,6.4,5.2c8,21.6-14.7,34.3-14.7,34.3
					c-1.4,24.3-5.3,32.6-5.3,32.6s-6.3,33.3-57,33.2c-53.3,0-54.2-65.9-54.2-65.9s-18-12.9-15.7-30.6c0.6-4.6,4-8.5,8.6-9.2
					c4.9-0.8,10.8,1.9,12.5,18.4"/>
				<path class="st3" d="M716.1,343.1c0,0-3.1-13.6,6.2-19.6"/>
				<path class="st3" d="M593.8,341.7c0,0,2.8-12.5-5.4-18.2"/>
				<path class="st3" d="M646.1,358.3l6.3,4.2c2.1,1.4,4.9,1.4,7,0l6.3-4.2"/>
				<path class="st4" d="M682.1,313.9c-1.5-0.3-2.9-0.9-4.1-1.8c-1.6-1.3-3.1-3.3-1.6-6.2c2.7-5.2,11.6,0.1,11.6,0.1
					s10.3,5.6,11,8.8C699.6,317.5,686.4,314.9,682.1,313.9z"/>
				<path class="st4" d="M629.8,313.9c1.5-0.3,2.9-0.9,4.1-1.8c1.6-1.3,3.1-3.3,1.6-6.2c-2.7-5.2-11.6,0.1-11.6,0.1
					s-10.3,5.6-11,8.8C612.3,317.5,625.5,314.9,629.8,313.9z"/>
				<g>
					<polyline class="st0" points="842.4,762.3 831.4,674.5 891.1,640 923.9,761.8 					"/>
					<path d="M842.4,762.3l-5.7-43.9l-5.6-43.9l0-0.2l0.2-0.1l29.8-17.3c9.9-5.8,19.9-11.5,29.8-17.3l0.5-0.3l0.2,0.6l16.2,61
						l8.1,30.5l8,30.5l-8.4-30.4l-8.3-30.4l-16.5-60.9l0.7,0.3c-9.9,5.8-19.9,11.5-29.8,17.2l-29.9,17.2l0.2-0.4l5.4,43.9
						L842.4,762.3z"/>
				</g>
				<g>
					<polyline class="st0" points="404.8,763 437.9,640 497.6,674.5 488.3,763 					"/>
					<polygon points="404.8,763 412.9,732.2 421.1,701.4 437.5,639.9 437.6,639.3 438.2,639.6 453.1,648.2 468,656.8 497.8,674.2 
						498,674.3 498,674.5 493.2,718.8 488.3,763 492.7,718.7 497.2,674.4 497.4,674.8 467.5,657.6 452.6,649 437.7,640.4 
						438.4,640.1 421.7,701.6 413.3,732.3 					"/>
				</g>
				<path class="st3" d="M667.2,337.5c0,0,11.4-12,25,0.5"/>
				<path class="st3" d="M615.4,336.8c0,0,11.4-12,25,0.5"/>
				<path class="st3" d="M641.4,377.3c0,0,15.1,8.7,28,0"/>
			</g>
			<line class="st12" x1="487.6" y1="762" x2="505.6" y2="587.3"/>
			<line class="st12" x1="842.2" y1="763.2" x2="823.2" y2="591.4"/>
		</g>
	</g>
	<line class="st13" x1="72.3" y1="763.8" x2="1267.7" y2="763.8"/>
</g>
<circle class="st14" cx="67.4" cy="667.3" r="16"/>
<g>
	<polyline class="st15" points="82.7,116.1 129.5,131.9 143.5,84.5 96.7,68.8 82.7,116.1 	"/>
	<polyline class="st14" points="84.7,125 131.5,140.8 145.5,93.4 98.7,77.7 84.7,125 	"/>
</g>
<polyline class="st1" points="160.5,388 118.3,457.7 79.1,386.3 160.5,388 "/>
<ellipse transform="matrix(0.3656 -0.9308 0.9308 0.3656 -234.4552 560.8702)" class="st14" cx="294.2" cy="452.4" rx="7.7" ry="7.7"/>
<ellipse transform="matrix(0.3656 -0.9308 0.9308 0.3656 200.7785 948.3022)" class="st14" cx="796" cy="326.9" rx="5.7" ry="5.7"/>
<ellipse transform="matrix(0.3656 -0.9308 0.9308 0.3656 105.1364 620.6581)" class="st14" cx="507.9" cy="233.2" rx="7.7" ry="7.7"/>
<circle class="st14" cx="1233.3" cy="635.1" r="10"/>
<g>
	<path class="st5" d="M1231.5,415.5c-15.1,7.9-20.7,27-12.6,42.6c8.2,15.7,27,22,42.1,14.2c15.1-7.9,20.7-27,12.6-42.6
		C1265.5,414,1246.6,407.7,1231.5,415.5"/>
	<path class="st16" d="M1234.5,426.6c-15.1,7.9-20.7,27-12.6,42.6c8.2,15.7,27,22,42.1,14.2c15.1-7.9,20.7-27,12.6-42.6
		C1268.5,425.1,1249.6,418.7,1234.5,426.6"/>
</g>
<g>
	<polyline class="st15" points="1204.9,120.9 1139.8,142.8 1120.4,77 1185.5,55.1 1204.9,120.9 	"/>
	<polyline class="st14" points="1202.2,133.3 1137.1,155.1 1117.7,89.3 1182.8,67.5 1202.2,133.3 	"/>
</g>
<g>
	<path class="st8" d="M909.3,174.9c4.4-11.2,17.4-16.6,29.1-12c11.6,4.6,17.5,17.4,13.1,28.6c-4.4,11.2-17.4,16.6-29,12
		C910.8,199,904.9,186.2,909.3,174.9"/>
	<path class="st14" d="M918.3,168.3c4.4-11.2,17.4-16.6,29.1-12c11.6,4.6,17.5,17.4,13.1,28.6c-4.4,11.2-17.4,16.6-29,12
		C919.8,192.4,913.9,179.6,918.3,168.3"/>
</g>
<polyline class="st14" points="381.7,54.3 374.3,135.5 448.3,101.3 381.7,54.3 "/>
<circle class="st1" cx="1116.7" cy="262.3" r="6.9"/>
<g>
	<path class="st17" d="M701.6,120.4l19.6-17.5c2.4-2.1,1.6-6.1-1.5-7.1l-24.9-8.2c-3.1-1-6.1,1.7-5.4,4.8l5.4,25.7
		C695.4,121.3,699.2,122.5,701.6,120.4z"/>
	<path class="st14" d="M697,116.8l19.6-17.5c2.4-2.1,1.6-6.1-1.5-7.1L690.2,84c-3.1-1-6.1,1.7-5.4,4.8l5.4,25.7
		C690.8,117.6,694.6,118.9,697,116.8z"/>
</g>
<g>
	<g>
		<path class="st8" d="M219.1,258.6l-6.4-1.8c-1.2-0.3-2.4,0-3.3,0.9l-4.6,4.8c-2.2,2.3-5.9,0.6-6.3-2.8l-0.8-7.2
			c-0.2-1.3-0.9-2.6-2-3.3l-5.8-3.7c-2.7-1.7-2.7-6.1,0.1-7.4l5.9-2.7c1.1-0.5,1.9-1.6,2.1-2.9l1-7.1c0.5-3.3,4.2-4.4,6.4-1.7
			l4.5,5.5c0.8,1,2.1,1.6,3.3,1.5l6.5-0.7c3-0.3,5.3,3.4,3.8,6.3l-3.1,6.1c-0.6,1.1-0.6,2.6-0.1,3.8l3,6.6
			C224.5,256.1,222.1,259.5,219.1,258.6z"/>
	</g>
	<g>
		<path class="st14" d="M223,257.5l-6.4-1.8c-1.2-0.3-2.4,0-3.3,0.9l-4.6,4.8c-2.2,2.3-5.9,0.6-6.3-2.8l-0.8-7.2
			c-0.2-1.3-0.9-2.6-2-3.3l-5.8-3.7c-2.7-1.7-2.7-6.1,0.1-7.4l5.9-2.7c1.1-0.5,1.9-1.6,2.1-2.9l1-7.1c0.5-3.3,4.2-4.4,6.4-1.7
			l4.5,5.5c0.8,1,2.1,1.6,3.3,1.5l6.5-0.7c3-0.3,5.3,3.4,3.8,6.3l-3.1,6.1c-0.6,1.1-0.6,2.6-0.1,3.8l3,6.6
			C228.4,255,226,258.3,223,257.5z"/>
	</g>
</g>
</svg>
