<svg width="100" height="100" viewBox="0 0 100 100" fill="none" xmlns="http://www.w3.org/2000/svg">
<path d="M66.6945 66.0713C77.3357 49.3734 75.998 51.4566 76.3047 51.0213C80.1789 45.5568 82.2266 39.1254 82.2266 32.4219C82.2266 14.6445 67.8006 0 50 0C32.2574 0 17.7734 14.6156 17.7734 32.4219C17.7734 39.1211 19.8641 45.7209 23.8652 51.259L33.3051 66.0715C23.2123 67.6225 6.05469 72.2445 6.05469 82.4219C6.05469 86.1318 8.47617 91.4189 20.0121 95.5389C28.0672 98.4156 38.717 100 50 100C71.0986 100 93.9453 94.0484 93.9453 82.4219C93.9453 72.2428 76.8078 67.6256 66.6945 66.0713ZM28.7596 48.0361C28.7273 47.9857 28.6937 47.9365 28.6586 47.8881C25.3291 43.3076 23.6328 37.8791 23.6328 32.4219C23.6328 17.7699 35.4309 5.85938 50 5.85938C64.5389 5.85938 76.3672 17.7752 76.3672 32.4219C76.3672 37.8879 74.7029 43.1322 71.5535 47.592C71.2713 47.9643 72.7438 45.6768 50 81.365L28.7596 48.0361ZM50 94.1406C26.9543 94.1406 11.9141 87.3666 11.9141 82.4219C11.9141 79.0984 19.6422 73.6338 36.7672 71.5037L47.5293 88.391C48.0672 89.2352 48.9988 89.7461 49.9998 89.7461C51.0008 89.7461 51.9326 89.235 52.4703 88.391L63.2322 71.5037C80.3576 73.6338 88.0859 79.0984 88.0859 82.4219C88.0859 87.3246 73.1811 94.1406 50 94.1406Z" fill="#D2DCF6"/>
<path d="M50 17.7734C41.9229 17.7734 35.3516 24.3447 35.3516 32.4219C35.3516 40.499 41.9229 47.0703 50 47.0703C58.0771 47.0703 64.6484 40.499 64.6484 32.4219C64.6484 24.3447 58.0771 17.7734 50 17.7734ZM50 41.2109C45.1537 41.2109 41.2109 37.2682 41.2109 32.4219C41.2109 27.5756 45.1537 23.6328 50 23.6328C54.8463 23.6328 58.7891 27.5756 58.7891 32.4219C58.7891 37.2682 54.8463 41.2109 50 41.2109Z" fill="#D2DCF6"/>
</svg>
