<svg width="64" height="67" viewBox="0 0 64 67" fill="none" xmlns="http://www.w3.org/2000/svg">
<path d="M45.3334 13.6667H8.00002C5.06669 13.6667 2.66669 16.0667 2.66669 19V40.3333C2.66669 43.2667 5.06669 45.6667 8.00002 45.6667H45.3334C48.2667 45.6667 50.6667 43.2667 50.6667 40.3333V19C50.6667 16.0667 48.2667 13.6667 45.3334 13.6667ZM8.00002 40.3333V19H45.3334V40.3333H8.00002Z" fill="#51A653"/>
<path d="M26.6667 21.6667C22.24 21.6667 18.6667 25.24 18.6667 29.6667C18.6667 34.0933 22.24 37.6667 26.6667 37.6667C31.0934 37.6667 34.6667 34.0933 34.6667 29.6667C34.6667 25.24 31.0934 21.6667 26.6667 21.6667Z" fill="#51A653"/>
<path d="M61.3333 21.6667V51.0001C61.3333 53.9334 58.9333 56.3334 56 56.3334H10.6666C10.6666 53.6668 10.6666 53.9334 10.6666 51.0001H56V21.6667C58.9333 21.6667 58.6666 21.6667 61.3333 21.6667Z" fill="#51A653"/>
<mask id="path-4-outside-1" maskUnits="userSpaceOnUse" x="13" y="0.5" width="28" height="26" fill="black">
<rect fill="white" x="13" y="0.5" width="28" height="26"/>
<path fill-rule="evenodd" clip-rule="evenodd" d="M30.375 2.5H23.625V13.75H18L27 22.75L36 13.75H30.375V2.5Z"/>
</mask>
<path fill-rule="evenodd" clip-rule="evenodd" d="M30.375 2.5H23.625V13.75H18L27 22.75L36 13.75H30.375V2.5Z" fill="black"/>
<path d="M23.625 2.5V0.5H21.625V2.5H23.625ZM30.375 2.5H32.375V0.5H30.375V2.5ZM23.625 13.75V15.75H25.625V13.75H23.625ZM18 13.75V11.75H13.1716L16.5858 15.1642L18 13.75ZM27 22.75L25.5858 24.1642L27 25.5784L28.4142 24.1642L27 22.75ZM36 13.75L37.4142 15.1642L40.8284 11.75H36V13.75ZM30.375 13.75H28.375V15.75H30.375V13.75ZM23.625 4.5H30.375V0.5H23.625V4.5ZM25.625 13.75V2.5H21.625V13.75H25.625ZM18 15.75H23.625V11.75H18V15.75ZM28.4142 21.3358L19.4142 12.3358L16.5858 15.1642L25.5858 24.1642L28.4142 21.3358ZM34.5858 12.3358L25.5858 21.3358L28.4142 24.1642L37.4142 15.1642L34.5858 12.3358ZM30.375 15.75H36V11.75H30.375V15.75ZM28.375 2.5V13.75H32.375V2.5H28.375Z" fill="white" mask="url(#path-4-outside-1)"/>
</svg>
