<svg width="428" height="322" viewBox="0 0 428 322" fill="none" xmlns="http://www.w3.org/2000/svg">
<g opacity="0.5" filter="url(#filter0_f)">
<path d="M46.2 227.785L86.3224 239.633L46.2 260.101L5 239.633L46.2 227.785Z" fill="#00ACC1"/>
</g>
<path d="M5.80737 187.805L46.1191 207.961V259.201L5.80737 239.045V187.805Z" fill="#8DDEE6"/>
<path d="M5.80737 187.805L46.1191 207.961V259.201L5.80737 239.045V187.805Z" fill="url(#paint0_linear)" fill-opacity="0.4"/>
<path d="M86.4315 187.805L46.1198 207.961V259.201L86.4315 239.045V187.805Z" fill="#4CA9C6"/>
<path d="M45.8112 168.28L86.5923 188.275L46.12 207.962L5.96885 187.966L45.8112 168.28Z" fill="#6CC3D4"/>
<path d="M45.8112 168.28L86.5923 188.275L46.12 207.962L5.96885 187.966L45.8112 168.28Z" fill="url(#paint1_linear)" fill-opacity="0.8"/>
<g opacity="0.5" filter="url(#filter1_f)">
<path d="M103.773 255.969L143.895 267.818L103.773 288.286L62.5729 267.818L103.773 255.969Z" fill="#00ACC1"/>
</g>
<path d="M63.3802 215.99L103.692 236.146V287.385L63.3802 267.229V215.99Z" fill="#8DDEE6"/>
<path d="M63.3802 215.99L103.692 236.146V287.385L63.3802 267.229V215.99Z" fill="url(#paint2_linear)" fill-opacity="0.4"/>
<path d="M144.004 215.99L103.693 236.146V287.385L144.004 267.229V215.99Z" fill="#4CA9C6"/>
<path d="M103.384 196.464L144.165 216.46L103.693 236.146L63.5417 216.151L103.384 196.464Z" fill="#6CC3D4"/>
<path d="M103.384 196.464L144.165 216.46L103.693 236.146L63.5417 216.151L103.384 196.464Z" fill="url(#paint3_linear)" fill-opacity="0.8"/>
<g opacity="0.5" filter="url(#filter2_f)">
<path d="M161.346 284.206L201.468 296.054L161.346 316.522L120.146 296.054L161.346 284.206Z" fill="#00ACC1"/>
</g>
<path d="M120.953 244.227L161.265 264.382V315.622L120.953 295.466V244.227Z" fill="#8DDEE6"/>
<path d="M120.953 244.227L161.265 264.382V315.622L120.953 295.466V244.227Z" fill="url(#paint4_linear)" fill-opacity="0.4"/>
<path d="M201.577 244.227L161.265 264.382V315.622L201.577 295.466V244.227Z" fill="#4CA9C6"/>
<path d="M160.957 224.701L201.738 244.696L161.266 264.383L121.115 244.388L160.957 224.701Z" fill="#6CC3D4"/>
<path d="M160.957 224.701L201.738 244.696L161.266 264.383L121.115 244.388L160.957 224.701Z" fill="url(#paint5_linear)" fill-opacity="0.8"/>
<g opacity="0.5" filter="url(#filter3_f)">
<path d="M382.424 228.937L422.546 240.785L382.424 261.253L341.224 240.785L382.424 228.937Z" fill="#00ACC1"/>
</g>
<path d="M341.233 188.957L381.545 209.113V260.352L341.233 240.196V188.957Z" fill="#8DDEE6"/>
<path d="M341.233 188.957L381.545 209.113V260.352L341.233 240.196V188.957Z" fill="url(#paint6_linear)" fill-opacity="0.4"/>
<path d="M421.856 188.957L381.544 209.113V260.352L421.856 240.196V188.957Z" fill="#4CA9C6"/>
<path d="M381.236 169.431L422.017 189.427L381.544 209.113L341.393 189.118L381.236 169.431Z" fill="#6CC3D4"/>
<path d="M381.236 169.431L422.017 189.427L381.544 209.113L341.393 189.118L381.236 169.431Z" fill="url(#paint7_linear)" fill-opacity="0.8"/>
<g opacity="0.5" filter="url(#filter4_f)">
<path d="M325.12 255.97L365.242 267.818L325.12 288.286L283.92 267.818L325.12 255.97Z" fill="#00ACC1"/>
</g>
<path d="M283.929 215.99L324.241 236.146V287.385L283.929 267.229V215.99Z" fill="#8DDEE6"/>
<path d="M283.929 215.99L324.241 236.146V287.385L283.929 267.229V215.99Z" fill="url(#paint8_linear)" fill-opacity="0.4"/>
<path d="M364.552 215.99L324.24 236.146V287.385L364.552 267.229V215.99Z" fill="#4CA9C6"/>
<path d="M323.932 196.464L364.713 216.46L324.24 236.146L284.089 216.151L323.932 196.464Z" fill="#6CC3D4"/>
<path d="M323.932 196.464L364.713 216.46L324.24 236.146L284.089 216.151L323.932 196.464Z" fill="url(#paint9_linear)" fill-opacity="0.8"/>
<g opacity="0.5" filter="url(#filter5_f)">
<path d="M267.279 284.206L307.401 296.054L267.279 316.523L226.079 296.054L267.279 284.206Z" fill="#00ACC1"/>
</g>
<path d="M226.088 244.227L266.4 264.383V315.622L226.088 295.466V244.227Z" fill="#8DDEE6"/>
<path d="M226.088 244.227L266.4 264.383V315.622L226.088 295.466V244.227Z" fill="url(#paint10_linear)" fill-opacity="0.4"/>
<path d="M306.711 244.227L266.399 264.383V315.622L306.711 295.466V244.227Z" fill="#4CA9C6"/>
<path d="M266.091 224.701L306.872 244.696L266.4 264.383L226.248 244.388L266.091 224.701Z" fill="#6CC3D4"/>
<path d="M266.091 224.701L306.872 244.696L266.4 264.383L226.248 244.388L266.091 224.701Z" fill="url(#paint11_linear)" fill-opacity="0.8"/>
<path d="M117.236 127.128L157.547 147.284V198.354L117.236 178.198V127.128Z" fill="#D8E0F9"/>
<path d="M117.236 127.128L157.547 147.284V198.354L117.236 178.198V127.128Z" fill="url(#paint12_linear)" fill-opacity="0.4"/>
<path d="M197.859 127.128L157.547 147.284V198.354L197.859 178.198V127.128Z" fill="#B8C5E5"/>
<path d="M157.24 107.602L198.021 127.597L157.549 147.283L117.398 127.288L157.24 107.602Z" fill="#C9D4F0"/>
<path d="M157.24 107.602L198.021 127.597L157.549 147.283L117.398 127.288L157.24 107.602Z" fill="url(#paint13_linear)" fill-opacity="0.8"/>
<path d="M228.718 127.128L269.029 147.284V198.354L228.718 178.198V127.128Z" fill="#D8E0F9"/>
<path d="M228.718 127.128L269.029 147.284V198.354L228.718 178.198V127.128Z" fill="url(#paint14_linear)" fill-opacity="0.4"/>
<path d="M309.341 127.128L269.029 147.284V198.354L309.341 178.198V127.128Z" fill="#B8C5E5"/>
<path d="M268.722 107.602L309.502 127.597L269.03 147.283L228.88 127.288L268.722 107.602Z" fill="#C9D4F0"/>
<path d="M268.722 107.602L309.502 127.597L269.03 147.283L228.88 127.288L268.722 107.602Z" fill="url(#paint15_linear)" fill-opacity="0.8"/>
<path d="M173.247 40.4198L213.558 60.5755V111.646L173.247 91.49V40.4198Z" fill="#FAD2A4"/>
<path d="M173.247 40.4198L213.558 60.5755V111.646L173.247 91.49V40.4198Z" fill="url(#paint16_linear)" fill-opacity="0.4"/>
<path d="M253.87 40.4198L213.558 60.5755V111.646L253.87 91.49V40.4198Z" fill="#FFB560"/>
<path d="M213.25 20.894L254.031 40.8892L213.559 60.5756L173.408 40.5804L213.25 20.894Z" fill="#FFBA6B"/>
<path d="M213.25 20.894L254.031 40.8892L213.559 60.5756L173.408 40.5804L213.25 20.894Z" fill="url(#paint17_linear)" fill-opacity="0.8"/>
<ellipse cx="235.854" cy="79.0529" rx="2.0196" ry="2.69279" fill="black" fill-opacity="0.1"/>
<ellipse cx="268.482" cy="127.523" rx="2.15424" ry="2.87231" transform="rotate(-90 268.482 127.523)" fill="#C8D2EC" fill-opacity="0.75"/>
<path d="M236.257 79.0527L268.571 94.9402V127.658" stroke="#B8C5E5" stroke-width="2" stroke-linecap="round"/>
<ellipse cx="291.864" cy="165.761" rx="2.0196" ry="2.69279" fill="black" fill-opacity="0.1"/>
<ellipse cx="324.492" cy="214.232" rx="2.15424" ry="2.87231" transform="rotate(-90 324.492 214.232)" fill="#4CA9C6"/>
<path d="M292.267 165.761L324.58 181.648V214.366" stroke="#7CCAD9" stroke-width="2" stroke-linecap="round"/>
<ellipse rx="2.0196" ry="2.69279" transform="matrix(-1 0 0 1 190.167 79.0529)" fill="black" fill-opacity="0.1"/>
<ellipse rx="2.15424" ry="2.87231" transform="matrix(4.37114e-08 -1 -1 -4.37114e-08 157.537 127.523)" fill="#C8D2EC" fill-opacity="0.75"/>
<path d="M189.763 79.0527L157.449 94.9402V127.658" stroke="#B8C5E5" stroke-width="2" stroke-linecap="round"/>
<ellipse rx="2.0196" ry="2.69279" transform="matrix(-1 0 0 1 135.233 165.761)" fill="black" fill-opacity="0.1"/>
<ellipse rx="2.15424" ry="2.87231" transform="matrix(4.37114e-08 -1 -1 -4.37114e-08 102.592 214.742)" fill="#4CA9C6"/>
<ellipse rx="2.15424" ry="2.87231" transform="matrix(4.37114e-08 -1 -1 -4.37114e-08 162.167 245.534)" fill="#4CA9C6"/>
<ellipse rx="2.15424" ry="2.87231" transform="matrix(4.37114e-08 -1 -1 -4.37114e-08 45.8708 187.395)" fill="#4CA9C6"/>
<path d="M134.829 165.761L102.515 181.648V214.366" stroke="#7CCAD9" stroke-width="2" stroke-linecap="round"/>
<path d="M162.173 245.107V211.715L45.8766 154.718V186.958" stroke="#7CCAD9" stroke-width="2" stroke-linecap="round" stroke-linejoin="round"/>
<ellipse cx="264.646" cy="245.534" rx="2.15424" ry="2.87231" transform="rotate(-90 264.646 245.534)" fill="#4CA9C6"/>
<ellipse cx="380.943" cy="187.395" rx="2.15424" ry="2.87231" transform="rotate(-90 380.943 187.395)" fill="#4CA9C6"/>
<path d="M264.64 245.107V211.715L380.937 154.718V186.958" stroke="#7CCAD9" stroke-width="2" stroke-linecap="round" stroke-linejoin="round"/>
<defs>
<filter id="filter0_f" x="0" y="222.785" width="91.3224" height="42.3164" filterUnits="userSpaceOnUse" color-interpolation-filters="sRGB">
<feFlood flood-opacity="0" result="BackgroundImageFix"/>
<feBlend mode="normal" in="SourceGraphic" in2="BackgroundImageFix" result="shape"/>
<feGaussianBlur stdDeviation="2.5" result="effect1_foregroundBlur"/>
</filter>
<filter id="filter1_f" x="57.5729" y="250.969" width="91.3224" height="42.3164" filterUnits="userSpaceOnUse" color-interpolation-filters="sRGB">
<feFlood flood-opacity="0" result="BackgroundImageFix"/>
<feBlend mode="normal" in="SourceGraphic" in2="BackgroundImageFix" result="shape"/>
<feGaussianBlur stdDeviation="2.5" result="effect1_foregroundBlur"/>
</filter>
<filter id="filter2_f" x="115.146" y="279.206" width="91.3224" height="42.3164" filterUnits="userSpaceOnUse" color-interpolation-filters="sRGB">
<feFlood flood-opacity="0" result="BackgroundImageFix"/>
<feBlend mode="normal" in="SourceGraphic" in2="BackgroundImageFix" result="shape"/>
<feGaussianBlur stdDeviation="2.5" result="effect1_foregroundBlur"/>
</filter>
<filter id="filter3_f" x="336.224" y="223.937" width="91.3224" height="42.3164" filterUnits="userSpaceOnUse" color-interpolation-filters="sRGB">
<feFlood flood-opacity="0" result="BackgroundImageFix"/>
<feBlend mode="normal" in="SourceGraphic" in2="BackgroundImageFix" result="shape"/>
<feGaussianBlur stdDeviation="2.5" result="effect1_foregroundBlur"/>
</filter>
<filter id="filter4_f" x="278.92" y="250.97" width="91.3224" height="42.3164" filterUnits="userSpaceOnUse" color-interpolation-filters="sRGB">
<feFlood flood-opacity="0" result="BackgroundImageFix"/>
<feBlend mode="normal" in="SourceGraphic" in2="BackgroundImageFix" result="shape"/>
<feGaussianBlur stdDeviation="2.5" result="effect1_foregroundBlur"/>
</filter>
<filter id="filter5_f" x="221.079" y="279.206" width="91.3224" height="42.3164" filterUnits="userSpaceOnUse" color-interpolation-filters="sRGB">
<feFlood flood-opacity="0" result="BackgroundImageFix"/>
<feBlend mode="normal" in="SourceGraphic" in2="BackgroundImageFix" result="shape"/>
<feGaussianBlur stdDeviation="2.5" result="effect1_foregroundBlur"/>
</filter>
<linearGradient id="paint0_linear" x1="46.1993" y1="209.238" x2="5.80735" y2="242.056" gradientUnits="userSpaceOnUse">
<stop stop-color="white"/>
<stop offset="1" stop-color="white" stop-opacity="0"/>
</linearGradient>
<linearGradient id="paint1_linear" x1="5.80792" y1="188.201" x2="86.5921" y2="188.201" gradientUnits="userSpaceOnUse">
<stop stop-color="white"/>
<stop offset="1" stop-color="white" stop-opacity="0"/>
</linearGradient>
<linearGradient id="paint2_linear" x1="103.772" y1="237.423" x2="63.3802" y2="270.241" gradientUnits="userSpaceOnUse">
<stop stop-color="white"/>
<stop offset="1" stop-color="white" stop-opacity="0"/>
</linearGradient>
<linearGradient id="paint3_linear" x1="63.3808" y1="216.386" x2="144.165" y2="216.386" gradientUnits="userSpaceOnUse">
<stop stop-color="white"/>
<stop offset="1" stop-color="white" stop-opacity="0"/>
</linearGradient>
<linearGradient id="paint4_linear" x1="161.345" y1="265.659" x2="120.953" y2="298.478" gradientUnits="userSpaceOnUse">
<stop stop-color="white"/>
<stop offset="1" stop-color="white" stop-opacity="0"/>
</linearGradient>
<linearGradient id="paint5_linear" x1="120.954" y1="244.622" x2="201.738" y2="244.622" gradientUnits="userSpaceOnUse">
<stop stop-color="white"/>
<stop offset="1" stop-color="white" stop-opacity="0"/>
</linearGradient>
<linearGradient id="paint6_linear" x1="381.625" y1="210.39" x2="341.233" y2="243.208" gradientUnits="userSpaceOnUse">
<stop stop-color="white"/>
<stop offset="1" stop-color="white" stop-opacity="0"/>
</linearGradient>
<linearGradient id="paint7_linear" x1="341.232" y1="189.353" x2="422.016" y2="189.353" gradientUnits="userSpaceOnUse">
<stop stop-color="white"/>
<stop offset="1" stop-color="white" stop-opacity="0"/>
</linearGradient>
<linearGradient id="paint8_linear" x1="324.321" y1="237.423" x2="283.929" y2="270.241" gradientUnits="userSpaceOnUse">
<stop stop-color="white"/>
<stop offset="1" stop-color="white" stop-opacity="0"/>
</linearGradient>
<linearGradient id="paint9_linear" x1="283.928" y1="216.386" x2="364.713" y2="216.386" gradientUnits="userSpaceOnUse">
<stop stop-color="white"/>
<stop offset="1" stop-color="white" stop-opacity="0"/>
</linearGradient>
<linearGradient id="paint10_linear" x1="266.48" y1="265.659" x2="226.088" y2="298.478" gradientUnits="userSpaceOnUse">
<stop stop-color="white"/>
<stop offset="1" stop-color="white" stop-opacity="0"/>
</linearGradient>
<linearGradient id="paint11_linear" x1="226.088" y1="244.622" x2="306.872" y2="244.622" gradientUnits="userSpaceOnUse">
<stop stop-color="white"/>
<stop offset="1" stop-color="white" stop-opacity="0"/>
</linearGradient>
<linearGradient id="paint12_linear" x1="157.628" y1="146.71" x2="117.236" y2="178.014" gradientUnits="userSpaceOnUse">
<stop stop-color="white"/>
<stop offset="1" stop-color="white" stop-opacity="0"/>
</linearGradient>
<linearGradient id="paint13_linear" x1="117.237" y1="127.523" x2="198.02" y2="127.523" gradientUnits="userSpaceOnUse">
<stop stop-color="white"/>
<stop offset="1" stop-color="white" stop-opacity="0"/>
</linearGradient>
<linearGradient id="paint14_linear" x1="269.11" y1="146.71" x2="228.718" y2="178.014" gradientUnits="userSpaceOnUse">
<stop stop-color="white"/>
<stop offset="1" stop-color="white" stop-opacity="0"/>
</linearGradient>
<linearGradient id="paint15_linear" x1="228.719" y1="127.523" x2="309.502" y2="127.523" gradientUnits="userSpaceOnUse">
<stop stop-color="white"/>
<stop offset="1" stop-color="white" stop-opacity="0"/>
</linearGradient>
<linearGradient id="paint16_linear" x1="213.639" y1="60.0014" x2="173.247" y2="91.3051" gradientUnits="userSpaceOnUse">
<stop stop-color="white"/>
<stop offset="1" stop-color="white" stop-opacity="0"/>
</linearGradient>
<linearGradient id="paint17_linear" x1="173.247" y1="40.8152" x2="254.031" y2="40.8152" gradientUnits="userSpaceOnUse">
<stop stop-color="white"/>
<stop offset="1" stop-color="white" stop-opacity="0"/>
</linearGradient>
</defs>
</svg>
