<svg width="16" height="16" viewBox="0 0 16 16" fill="none" xmlns="http://www.w3.org/2000/svg">
<g clip-path="url(#clip0)">
<path d="M16 2.66675H0V13.3335H16V2.66675Z" fill="#F0F0F0"/>
<path d="M9 2.6665H7V6.99982H0V8.99982H7V13.3331H9V8.99982H16V6.99982H9V2.6665Z" fill="#D80027"/>
<path d="M12.3062 9.85498L16.0004 11.9074V9.85498H12.3062Z" fill="#0052B4"/>
<path d="M9.73926 9.85498L16.0001 13.3332V12.3497L11.5097 9.85498H9.73926Z" fill="#0052B4"/>
<path d="M14.3324 13.3333L9.73926 10.7812V13.3333H14.3324Z" fill="#0052B4"/>
<path d="M9.73926 9.85498L16.0001 13.3332V12.3497L11.5097 9.85498H9.73926Z" fill="#F0F0F0"/>
<path d="M9.73926 9.85498L16.0001 13.3332V12.3497L11.5097 9.85498H9.73926Z" fill="#D80027"/>
<path d="M2.82316 9.85498L0 11.4234V9.85498H2.82316Z" fill="#0052B4"/>
<path d="M6.26067 10.2974V13.3333H0.796387L6.26067 10.2974Z" fill="#0052B4"/>
<path d="M4.49041 9.85498L0 12.3497V13.3332L6.26088 9.85498H4.49041Z" fill="#D80027"/>
<path d="M3.69422 6.14466L0 4.09229V6.14466H3.69422Z" fill="#0052B4"/>
<path d="M6.26088 6.14475L0 2.6665V3.65007L4.49041 6.14475H6.26088Z" fill="#0052B4"/>
<path d="M1.66748 2.6665L6.26067 5.2185V2.6665H1.66748Z" fill="#0052B4"/>
<path d="M6.26088 6.14475L0 2.6665V3.65007L4.49041 6.14475H6.26088Z" fill="#F0F0F0"/>
<path d="M6.26088 6.14475L0 2.6665V3.65007L4.49041 6.14475H6.26088Z" fill="#D80027"/>
<path d="M13.1772 6.14485L16.0004 4.57642V6.14485H13.1772Z" fill="#0052B4"/>
<path d="M9.73926 5.70247V2.6665H15.2035L9.73926 5.70247Z" fill="#0052B4"/>
<path d="M11.5097 6.14475L16.0001 3.65007V2.6665L9.73926 6.14475H11.5097Z" fill="#D80027"/>
</g>
<defs>
<clipPath id="clip0">
<rect width="16" height="16" fill="white"/>
</clipPath>
</defs>
</svg>
