<svg width="168" height="118" viewBox="0 0 168 118" fill="none" xmlns="http://www.w3.org/2000/svg">
<path d="M0.30953 12.0878C-0.194468 12.7452 -0.0700465 13.6868 0.587432 14.1908L11.3017 22.4039C11.9591 22.9079 12.9007 22.7835 13.4047 22.126C13.9087 21.4685 13.7843 20.527 13.1268 20.023L3.60304 12.7224L10.9036 3.19867C11.4076 2.54119 11.2832 1.59963 10.6257 1.09563C9.9682 0.591635 9.02664 0.716056 8.52264 1.37354L0.30953 12.0878ZM154.216 115.225C153.788 115.934 154.016 116.856 154.725 117.284C155.434 117.712 156.356 117.484 156.784 116.775L154.216 115.225ZM1.69651 14.4874C71.5265 5.25984 118.269 16.5456 143.174 36.9725C155.599 47.1633 162.6 59.6297 164.404 73.0361C166.21 86.4567 162.824 100.96 154.216 115.225L156.784 116.775C165.676 102.04 169.29 86.8561 167.377 72.6361C165.462 58.402 158.026 45.2746 145.076 34.653C119.231 13.455 71.4735 2.24076 1.30349 11.5133L1.69651 14.4874Z" fill="#4F4F4F"/>
</svg>
