<svg width="584" height="179" viewBox="0 0 584 179" fill="none" xmlns="http://www.w3.org/2000/svg">
<path d="M2.6703 120.6C1.8556 120.45 1.07341 120.989 0.923229 121.803C0.773048 122.618 1.31175 123.4 2.12645 123.551L2.6703 120.6ZM576.364 111.494C577.189 111.569 577.919 110.961 577.994 110.136L579.216 96.6912C579.291 95.8662 578.683 95.1366 577.858 95.0616C577.033 94.9866 576.303 95.5946 576.228 96.4196L575.142 108.37L563.191 107.284C562.366 107.209 561.637 107.817 561.561 108.642C561.486 109.467 562.095 110.197 562.92 110.272L576.364 111.494ZM2.12645 123.551C42.2726 130.951 89.4229 123.097 139.604 109.973C164.714 103.406 190.638 95.5038 216.872 87.4976C243.117 79.4883 269.673 71.3745 296.095 64.3673C401.911 36.3045 504.738 26.2293 575.348 110.96L577.652 109.04C505.761 22.7707 401.137 33.4061 295.326 61.4676C268.841 68.4914 242.231 76.622 215.996 84.6283C189.752 92.6377 163.886 100.522 138.844 107.071C88.7219 120.179 42.1228 127.873 2.6703 120.6L2.12645 123.551Z" fill="#4F4F4F"/>
</svg>
