<svg width="184" height="52" viewBox="0 0 184 52" fill="none" xmlns="http://www.w3.org/2000/svg">
<path d="M66.7316 18.822C67.3526 18.822 67.7666 19.2172 68.0112 20.0075C70.1 25.9914 71.1914 29.0775 71.2854 29.3033C71.436 29.5103 71.5865 29.6232 71.7371 29.6232H71.8876C72.1887 29.6232 72.4145 29.2845 72.565 28.6259L75.7828 19.5371C76.0651 19.0478 76.4038 18.8032 76.8366 18.8032H76.9683C77.3823 18.8032 77.721 19.029 78.0032 19.4995C78.0785 19.6688 79.1323 22.6796 81.1834 28.5694C81.3904 29.228 81.5785 29.5667 81.7667 29.5667C81.7667 29.6044 81.8232 29.6232 81.9172 29.6232H82.0678C82.3689 29.6232 82.5947 29.2845 82.7452 28.6259L85.963 19.5371C86.2076 19.0478 86.6028 18.8032 87.1108 18.8032C87.6189 18.8032 87.9953 19.0667 88.2399 19.5936C88.2963 19.7441 88.3151 19.8946 88.3151 20.0452C88.3151 20.2522 88.1082 20.9108 87.6942 22.021L83.1216 34.9861C82.971 35.3437 82.7264 35.5883 82.3689 35.72L82.0678 35.7953H81.842C81.4845 35.72 81.2398 35.6071 81.0893 35.4189C80.9011 35.2308 80.6753 34.7039 80.4307 33.8571L77.4011 25.314C77.2505 25.107 77.1 25.0129 76.9495 25.0129H76.8177C76.4979 25.0129 76.2532 25.4081 76.0651 26.1796C76.0274 26.2737 74.9736 29.2468 72.9226 35.099C72.772 35.4001 72.5274 35.6259 72.1511 35.7576C72.1322 35.7576 72.0758 35.7765 71.9441 35.8141H71.7182C71.4172 35.8141 71.1161 35.6447 70.8338 35.306C70.7209 35.1367 70.5328 34.6286 70.2693 33.8195C67.1456 24.9565 65.565 20.4591 65.5462 20.3086C65.5273 20.2145 65.5273 20.1204 65.5273 20.064C65.5273 19.5559 65.7908 19.1796 66.3177 18.9349C66.4118 18.8409 66.5623 18.822 66.7316 18.822Z" fill="white"/>
<path d="M98.3063 12.0667H98.4192C98.9084 12.0667 99.3224 12.3301 99.6611 12.8758C99.7552 13.1016 99.7929 13.2898 99.7929 13.4215V19.0667C99.7929 19.4054 99.9622 19.6312 100.301 19.7629C100.357 19.7818 100.414 19.7818 100.451 19.7818H100.489C100.658 19.7818 100.997 19.65 101.524 19.3866C102.446 19.0291 103.368 18.8597 104.253 18.8597C106.097 18.8597 107.734 19.4995 109.202 20.7603C109.879 21.4377 110.312 21.9269 110.462 22.2468C110.97 23.0183 111.309 23.8463 111.478 24.7119C111.591 25.1447 111.667 25.8598 111.667 26.8383V34.1394C111.667 34.9109 111.366 35.419 110.782 35.6824C110.575 35.7577 110.406 35.7953 110.274 35.7953H110.18C109.653 35.7953 109.239 35.5131 108.919 34.9297C108.825 34.7604 108.788 34.4969 108.788 34.1394V26.2926C108.788 25.0318 108.355 23.9404 107.489 23.056C106.567 22.1716 105.495 21.7199 104.271 21.7199C102.973 21.7199 101.863 22.2468 100.903 23.2818C100.169 24.1286 99.8117 25.1447 99.8117 26.3114V34.4216C99.8117 34.8356 99.6047 35.1932 99.1907 35.5319C98.9461 35.7012 98.6826 35.7765 98.438 35.7765H98.3251C97.8547 35.7765 97.4595 35.5319 97.1396 35.0426C97.0079 34.8356 96.9326 34.4969 96.9326 34.0453V13.7602C96.9326 12.9699 97.2149 12.4618 97.7982 12.1984C97.9864 12.1043 98.1558 12.0667 98.3063 12.0667Z" fill="white"/>
<path d="M129.054 18.822H129.336C131.086 18.822 132.78 19.4242 134.417 20.6097C135.17 21.2306 135.697 21.7763 135.979 22.228C137.108 23.771 137.672 25.4645 137.672 27.3086C137.672 29.5291 136.863 31.5237 135.245 33.2549C134.379 34.0829 133.551 34.6474 132.761 34.9673C131.576 35.4942 130.447 35.7576 129.336 35.7576H129.054C127.285 35.7576 125.592 35.1555 123.955 33.9512C123.352 33.4619 122.882 32.9727 122.524 32.521C121.32 30.9592 120.699 29.2092 120.699 27.271C120.699 25.1823 121.433 23.2817 122.882 21.607C123.635 20.8543 124.18 20.3839 124.5 20.2145C125.987 19.2925 127.511 18.822 129.054 18.822ZM123.597 27.3086V27.4215C123.597 28.8517 124.162 30.1501 125.291 31.3355C126.457 32.3705 127.718 32.8974 129.092 32.8974H129.299C130.823 32.8974 132.178 32.2764 133.382 31.0533C134.323 29.9242 134.793 28.7011 134.793 27.4404V27.3275C134.793 25.7468 134.21 24.392 133.062 23.2441C132.422 22.6796 131.764 22.2656 131.086 22.0398C130.447 21.8328 129.863 21.7199 129.355 21.7199H129.035C128.113 21.7199 127.154 22.0022 126.194 22.5855C125.855 22.7925 125.441 23.1312 124.952 23.6393C124.369 24.3731 124.011 25.0317 123.861 25.6151C123.672 26.0667 123.597 26.65 123.597 27.3086Z" fill="white"/>
<path d="M148.174 12.0667C148.719 12.0667 149.133 12.3677 149.416 12.9511C149.453 13.1392 149.491 13.365 149.491 13.6097V34.2335C149.491 34.9674 149.227 35.4378 148.719 35.6636C148.606 35.72 148.437 35.7577 148.192 35.7765C147.647 35.7765 147.214 35.4754 146.932 34.8921C146.894 34.7227 146.856 34.4969 146.856 34.2335V13.6285C146.856 12.8946 147.12 12.4242 147.647 12.1984C147.741 12.1419 147.91 12.0855 148.174 12.0667Z" fill="white"/>
<path d="M159.897 18.8599H160.122C160.499 18.8599 160.837 19.048 161.157 19.4244C161.327 19.7066 161.421 19.9513 161.421 20.1959V34.403C161.421 34.9299 161.139 35.3439 160.574 35.6637C160.348 35.739 160.179 35.7767 160.066 35.7767H159.934C159.464 35.7767 159.087 35.532 158.768 35.0428C158.636 34.8358 158.561 34.5159 158.561 34.0643V20.5534C158.561 19.8007 158.786 19.3115 159.238 19.0669C159.464 18.9351 159.69 18.8599 159.897 18.8599Z" fill="white"/>
<path d="M171.938 18.8408H172.013C172.484 18.8408 172.898 19.0666 173.218 19.5371C175.513 22.6231 176.699 24.2038 176.755 24.2414C176.906 24.3731 177.094 24.4484 177.282 24.4484C177.564 24.4484 177.847 24.2038 178.129 23.7333C178.148 23.7333 179.239 22.2844 181.422 19.3677C181.742 19.0102 182.099 18.8408 182.513 18.8408H182.589C183.078 18.8408 183.492 19.0854 183.812 19.5935C183.925 19.8193 183.981 20.0451 183.981 20.2521V20.2709C183.981 20.6473 183.793 21.0424 183.417 21.4752L179.371 26.8758C179.277 27.0075 179.239 27.1581 179.239 27.3086C179.239 27.5156 179.446 27.8543 179.86 28.3248C182.401 31.7119 183.718 33.4995 183.849 33.6689C183.944 33.8947 184 34.1017 184 34.3087C184 34.8732 183.718 35.306 183.172 35.6071C182.946 35.7012 182.739 35.7388 182.57 35.7388C182.005 35.7388 181.497 35.4001 181.065 34.7038L177.79 30.357C177.64 30.2065 177.489 30.15 177.32 30.15H177.263C176.962 30.15 176.68 30.3759 176.417 30.8275L173.067 35.2684C172.747 35.6071 172.39 35.7576 171.995 35.7576C171.543 35.7576 171.148 35.5506 170.828 35.1366C170.659 34.892 170.564 34.6098 170.564 34.3087C170.564 33.8947 170.771 33.4807 171.185 33.0291C171.204 32.9915 172.54 31.2038 175.175 27.685C175.269 27.5532 175.306 27.4027 175.306 27.2522C175.306 27.0452 175.099 26.7065 174.685 26.236C172.107 22.7925 170.828 21.0613 170.828 21.0613C170.659 20.8166 170.564 20.5344 170.564 20.2521V20.2333C170.564 19.6688 170.847 19.236 171.411 18.9349C171.618 18.8785 171.806 18.8408 171.938 18.8408Z" fill="white"/>
<path d="M133.232 31.5803L137.654 27.384V33.8948C137.654 34.9298 136.807 35.7766 135.772 35.7766H128.791L133.232 31.5803Z" fill="white"/>
<path d="M50.2846 30.056L30.0372 50.3035C27.7979 52.5427 24.1474 52.5427 21.9081 50.3035L1.67945 30.056C-0.559816 27.8167 -0.559816 24.1662 1.67945 21.9269L21.9081 1.67945C24.1474 -0.559816 27.7979 -0.559816 30.0372 1.67945L50.2658 21.9081C52.5239 24.1662 52.5239 27.8167 50.2846 30.056Z" fill="url(#paint0_linear)"/>
<path d="M36.1713 23.9215L32.3137 34.9861C32.1632 35.3436 31.9186 35.5883 31.5611 35.72L31.3541 35.7576C31.2976 35.7764 31.2412 35.7764 31.1659 35.7764H31.1094C31.053 35.7764 30.9777 35.7764 30.9213 35.7576C30.6202 35.6824 30.3944 35.5695 30.2438 35.4001C30.0557 35.2119 29.8299 34.685 29.5852 33.8383L26.5556 25.2952C26.4051 25.0882 26.2546 24.9941 26.104 24.9941H25.9723C25.6524 24.9941 25.4078 25.3893 25.2196 26.1608C25.182 26.2549 24.1282 29.228 22.0771 35.0802C21.9454 35.3625 21.7008 35.5883 21.3809 35.72C21.3432 35.7388 21.3056 35.7388 21.2492 35.7576C21.2303 35.7576 21.2115 35.7576 21.1927 35.7764C21.1362 35.7953 21.061 35.7953 20.9857 35.7953H20.854C20.5529 35.7953 20.2518 35.6259 19.9696 35.2872C19.8567 35.1178 19.6685 34.6098 19.405 33.8006C16.2814 24.9377 14.7007 20.4403 14.6819 20.2898C14.6631 20.1957 14.6631 20.1016 14.6631 20.0451C14.6631 19.5371 14.9265 19.1607 15.4534 18.9161C15.6039 18.8597 15.7545 18.8408 15.905 18.8408C16.526 18.8408 16.94 19.236 17.1846 20.0263C19.2733 26.0102 20.3647 29.0963 20.4588 29.3221C20.6094 29.5291 20.7599 29.642 20.9104 29.642H21.061C21.3621 29.642 21.5879 29.3033 21.7384 28.6447L24.9562 19.5559C25.2384 19.0666 25.5771 18.822 26.0099 18.822H26.1417C26.5556 18.822 26.8944 19.0478 27.1766 19.5183C27.2519 19.6876 28.3057 22.6984 30.3567 28.5882C30.5637 29.2468 30.7519 29.5855 30.9401 29.5855C30.9401 29.6232 30.9965 29.642 31.0906 29.642H31.2412C31.5422 29.642 31.768 29.3033 31.9186 28.6447L33.8191 23.2629L36.1713 23.9215ZM36.2089 23.6393C36.2089 24.3167 35.6632 24.8624 34.9858 24.8624C34.3084 24.8624 33.7627 24.3167 33.7627 23.6393C33.7627 22.9618 34.3084 22.4161 34.9858 22.4161C35.6632 22.4161 36.2089 22.943 36.2089 23.6393ZM37.2815 20.0451C37.2815 20.7226 36.7358 21.2683 36.0584 21.2683C35.381 21.2683 34.8353 20.7226 34.8353 20.0451C34.8353 19.3677 35.381 18.822 36.0584 18.822C36.7358 18.822 37.2815 19.3677 37.2815 20.0451Z" fill="white"/>
<defs>
<linearGradient id="paint0_linear" x1="-0.0130969" y1="26.1288" x2="51.9615" y2="25.8518" gradientUnits="userSpaceOnUse">
<stop stop-color="#00629E"/>
<stop offset="1" stop-color="#00CBD6"/>
</linearGradient>
</defs>
</svg>
