<svg width="32" height="32" viewBox="0 0 32 32" fill="none" xmlns="http://www.w3.org/2000/svg">
<circle cx="16" cy="16" r="16" fill="#F3FBF5"/>
<path d="M9.45439 8C8.65119 8 8 8.65119 8 9.45439V13.8193C8 14.6225 8.65119 15.2737 9.45439 15.2737H13.8193C14.6225 15.2737 15.2737 14.6225 15.2737 13.8193V9.45439C15.2737 8.65119 14.6225 8 13.8193 8H9.45439ZM18.1824 8C17.3775 8 16.7281 8.65119 16.7281 9.45439V13.8193C16.7281 14.6225 17.3775 15.2737 18.1824 15.2737H22.5456C23.3505 15.2737 24 14.6225 24 13.8193V9.45439C24 8.65119 23.3505 8 22.5456 8H18.1824ZM11.636 9.45439C12.0402 9.45439 12.3649 9.78085 12.3649 10.1816V10.9088H13.0921C13.4945 10.9088 13.8193 11.237 13.8193 11.636C13.8193 12.0367 13.4945 12.3649 13.0921 12.3649H12.3649V13.0921C12.3649 13.4911 12.0402 13.8193 11.636 13.8193C11.2335 13.8193 10.9088 13.4911 10.9088 13.0921V12.3649H10.1816C9.77912 12.3649 9.45439 12.0367 9.45439 11.636C9.45439 11.237 9.77912 10.9088 10.1816 10.9088H10.9088V10.1816C10.9088 9.78085 11.2335 9.45439 11.636 9.45439ZM18.9096 10.9088H21.8184C22.2226 10.9088 22.5456 11.237 22.5456 11.636C22.5456 12.0367 22.2226 12.3649 21.8184 12.3649H18.9096C18.5055 12.3649 18.1824 12.0367 18.1824 11.636C18.1824 11.237 18.5055 10.9088 18.9096 10.9088ZM9.45439 16.7281C8.65119 16.7281 8 17.3775 8 18.1824V22.5456C8 23.3505 8.65119 24 9.45439 24H13.8193C14.6225 24 15.2737 23.3505 15.2737 22.5456V18.1824C15.2737 17.3775 14.6225 16.7281 13.8193 16.7281H9.45439ZM18.1824 16.7281C17.3775 16.7281 16.7281 17.3775 16.7281 18.1824V22.5456C16.7281 23.3505 17.3775 24 18.1824 24H22.5456C23.3505 24 24 23.3505 24 22.5456V18.1824C24 17.3775 23.3505 16.7281 22.5456 16.7281H18.1824ZM18.9096 18.1824H21.8184C22.2226 18.1824 22.5456 18.5089 22.5456 18.9096C22.5456 19.3104 22.2226 19.6368 21.8184 19.6368H18.9096C18.5055 19.6368 18.1824 19.3104 18.1824 18.9096C18.1824 18.5089 18.5055 18.1824 18.9096 18.1824ZM10.546 18.5452C10.7309 18.5452 10.9174 18.6177 11.0608 18.7594L11.636 19.3363L12.2129 18.7594C12.4979 18.4744 12.9574 18.4744 13.2424 18.7594C13.5256 19.0426 13.5256 19.5038 13.2424 19.7871L12.6654 20.364L13.2424 20.9409C13.5256 21.2242 13.5256 21.6854 13.2424 21.9687C13.1007 22.1121 12.9159 22.1829 12.7276 22.1829C12.5411 22.1829 12.3563 22.1121 12.2129 21.9687L11.636 21.3935L11.0608 21.9687C10.9174 22.1121 10.7326 22.1829 10.546 22.1829C10.3578 22.1829 10.1729 22.1121 10.0313 21.9687C9.74803 21.6854 9.74803 21.2242 10.0313 20.9409L10.6082 20.364L10.0313 19.7871C9.74803 19.5038 9.74803 19.0426 10.0313 18.7594C10.1729 18.6177 10.3612 18.5452 10.546 18.5452ZM18.9096 21.0912H21.8184C22.2226 21.0912 22.5456 21.4177 22.5456 21.8184C22.5456 22.2192 22.2226 22.5456 21.8184 22.5456H18.9096C18.5055 22.5456 18.1824 22.2192 18.1824 21.8184C18.1824 21.4177 18.5055 21.0912 18.9096 21.0912Z" fill="#25772F"/>
</svg>
