<svg xmlns="http://www.w3.org/2000/svg" width="210.344" height="86.084" viewBox="0 0 132.275 86.084">
  <g id="_23andMe_logo" data-name="23andMe_logo" transform="translate(0.025 -0.033)">
    <g id="Group_238" data-name="Group 238" transform="translate(-0.025 44.6)">
      <path id="Path_581" data-name="Path 581" d="M.719,319.822a6.9,6.9,0,0,0,12.314,6.23l.079-.159,2.751-5.6L9.965,301Z" transform="translate(0.025 -301)" fill="#7ac043"/>
    </g>
    <path id="Path_582" data-name="Path 582" d="M163.117.744a6.893,6.893,0,0,0-9.233,3.148h0L142.8,26.484,148.686,45.8,166.265,9.963A6.89,6.89,0,0,0,163.117.744h0" transform="translate(-123.933 0)" fill="#7ac043"/>
    <path id="Path_583" data-name="Path 583" d="M31.271,139.985a6.914,6.914,0,0,0,8.611,4.59h0a6.9,6.9,0,0,0,4.59-8.611h0L34.9,104.55l-8.9,18.121,5.278,17.314ZM25.12,72.527a6.9,6.9,0,0,0-13.2,4.021l8.174,26.811L29,85.238,25.12,72.527Z" transform="translate(-10.129 -58.755)" fill="#d50f67"/>
    <path id="Path_584" data-name="Path 584" d="M75.5,218.021l5.886,19.312,8.9-18.121L84.4,199.9Z" transform="translate(-65.535 -173.43)" fill="#49a847"/>
    <path id="Path_585" data-name="Path 585" d="M265.482,278.942H254.926a5.337,5.337,0,0,1-.026-.608c0-2.659,1.045-4.4,3.624-6.1,1.336-.886,2.143-1.429,2.474-1.653a3.5,3.5,0,0,0,.86-.952,2.651,2.651,0,0,0,.344-1.309,1.857,1.857,0,0,0-1.944-1.958c-1.4,0-2.2.979-2.235,2.8h-3.108c.053-2.011.516-3.175,1.68-4.127a5.6,5.6,0,0,1,3.69-1.19c3.2,0,5.225,1.68,5.225,4.339,0,2.1-1.071,3.558-3.995,5.436-2.222,1.429-2.5,1.706-2.725,2.738h6.693Zm4.418-4.577a2.233,2.233,0,0,0,2.421,2.354,1.99,1.99,0,0,0,2.262-1.958c0-1.428-.886-1.984-3.175-1.984h-.344v-2.54h.331c2.2,0,3.055-.542,3.055-1.918a1.941,1.941,0,0,0-2.077-1.944c-1.455,0-2.235.86-2.235,2.447v.026H266.9c.093-1.918.542-2.923,1.706-3.849a5.963,5.963,0,0,1,3.849-1.164c3.135,0,5.185,1.614,5.185,4.087a3.422,3.422,0,0,1-2.778,3.479,3.747,3.747,0,0,1,1.19.423,3.3,3.3,0,0,1,1.772,3.108c0,2.659-2.1,4.312-5.41,4.312-3.624,0-5.7-1.892-5.7-5.251h3.227a2.358,2.358,0,0,0-.04.37m15.965-.463-1.058.159c-1.958.3-2.738.741-2.738,1.614,0,.794.7,1.336,1.706,1.336,1.614,0,2.447-1.045,2.5-3.175Zm-1.495-6.561a5.1,5.1,0,0,1,3.783,1.309c.82.82,1.1,1.733,1.1,3.73-.026.159-.026.7-.053,1.64v1.045a17.84,17.84,0,0,0,.3,3.876H286.87a5.37,5.37,0,0,1-.119-1.257v-.463a3.891,3.891,0,0,1-3.809,1.984c-2.407,0-4.087-1.4-4.087-3.413a3.256,3.256,0,0,1,.86-2.2,5.176,5.176,0,0,1,3.016-1.336,33.048,33.048,0,0,1,3.545-.463c0-1.587-.556-2.262-1.865-2.262-1.23,0-1.865.556-1.944,1.653h-3.2C279.436,268.8,281.328,267.342,284.37,267.342Zm9.92,1.733a3.91,3.91,0,0,1,3.294-1.653,3.6,3.6,0,0,1,3.518,2.2,7.2,7.2,0,0,1,.331,2.936v6.4h-3.108v-6.614c0-1.825-.516-2.54-1.8-2.54-1.429,0-2.077,1.045-2.077,3.307v5.833h-3.108v-11.27h2.95v1.4Zm14.074,7.579c1.428,0,2.381-1.336,2.381-3.36-.026-2.077-.886-3.32-2.341-3.32s-2.354,1.309-2.354,3.333C306.049,275.278,307.015,276.654,308.364,276.654Zm5.436,2.288h-2.936v-1.495a3.639,3.639,0,0,1-3.294,1.746c-2.738,0-4.643-2.407-4.643-5.86,0-3.532,1.825-5.926,4.51-5.926a3.49,3.49,0,0,1,3.267,1.68V263.4h3.108v15.542Zm19.933,0h-3.108V266.429l-3.809,12.513H323.43l-3.836-12.513v12.513h-3.108V263.4H321.7l3.571,11.759,3.505-11.759h4.973Zm10.039-6.931a2.262,2.262,0,0,0-2.354-2.315,2.378,2.378,0,0,0-2.447,2.315Zm-2.235,7.2c-3.505,0-5.741-2.315-5.741-5.952,0-3.505,2.262-5.833,5.648-5.833,3.413,0,5.555,2.341,5.555,6.111,0,.185-.026.331-.026.728H339a2.423,2.423,0,0,0,2.619,2.566,1.939,1.939,0,0,0,2.05-1.336h3.307c-.728,2.421-2.645,3.717-5.436,3.717Zm9.656-10.132a1.131,1.131,0,0,0-.423-.053H350.6v.807h.278a.6.6,0,0,0,.4-.106.376.376,0,0,0,.146-.331A.33.33,0,0,0,351.194,269.074Zm-1.323,2.222v-2.764c.45,0,.9,0,1.336.013a1.252,1.252,0,0,1,.542.145.711.711,0,0,1,.37.661.594.594,0,0,1-.2.5.925.925,0,0,1-.476.185,1.123,1.123,0,0,1,.4.159.77.77,0,0,1,.238.622v.251a.664.664,0,0,0,.026.159l.026.079h-.688a1.889,1.889,0,0,1-.04-.384,1.523,1.523,0,0,0-.04-.344.327.327,0,0,0-.2-.2.768.768,0,0,0-.251-.04l-.159-.013h-.145v.979C350.6,271.3,349.871,271.3,349.871,271.3Zm-.37-2.831a1.978,1.978,0,0,0-.6,1.442,1.957,1.957,0,0,0,.608,1.468,2,2,0,0,0,1.455.608,1.969,1.969,0,0,0,1.455-.608,2.028,2.028,0,0,0,.608-1.468,2.078,2.078,0,0,0-2.05-2.063A1.93,1.93,0,0,0,349.5,268.466Zm3.2,3.227a2.487,2.487,0,0,1-4.233-1.8,2.371,2.371,0,0,1,.78-1.812,2.43,2.43,0,0,1,1.72-.675,2.5,2.5,0,0,1,1.733,4.286Z" transform="translate(-221.206 -228.53)" fill="#9c9ea1"/>
  </g>
</svg>
