<svg id="ancestry-dna" xmlns="http://www.w3.org/2000/svg" width="210.344" height="86" viewBox="0 0 210.344 28.949">
  <path id="Path_586" data-name="Path 586" d="M1118.417,25.524c5.057,0,7.183-3.445,7.183-8.209,0-4.837-2.2-8.136-7.183-8.136h-2.858V25.524ZM1114.24,8.08h4.324c5.717,0,8.428,3.592,8.428,9.235s-2.711,9.381-8.428,9.381h-4.324V8.08Zm17,0h1.319l7.842,13.12,2.126,3.665h.147c-.073-1.832-.147-3.591-.147-5.424V8.08h1.246V26.623h-1.319L1134.615,13.5l-2.125-3.665h-.147c.073,1.759.147,3.445.147,5.277V26.623h-1.246Zm25.945,11.14-1.172-3.445c-.733-2.2-1.393-4.178-2.052-6.45h-.147c-.66,2.272-1.319,4.178-2.052,6.45l-1.173,3.445Zm.293,1.1h-7.329l-2.2,6.376h-1.319l6.523-18.543h1.319L1161,26.7h-1.392l-2.126-6.376Z" transform="translate(-952.556 -6.908)" fill="#9cbe30" fill-rule="evenodd"/>
  <path id="Path_587" data-name="Path 587" d="M275.468,20.852a6.334,6.334,0,0,0-3.591,1.393,2.814,2.814,0,0,0-.806,2.052,2.164,2.164,0,0,0,2.126,2.273,2.966,2.966,0,0,0,1.832-.733,1.17,1.17,0,0,0,.366-.733Zm3.078,7.842a3.132,3.132,0,0,1-3.078-2.418,4.533,4.533,0,0,1-3.958,2.418A3.709,3.709,0,0,1,267.7,25.03c0-2.859,2.712-4.911,7.842-4.984v-.733a2.915,2.915,0,0,0-3.078-3.3,5.5,5.5,0,0,0-4.031,2.2c-.073.073-.513-.367-.513-.44a7.168,7.168,0,0,1,6.23-4.1c2.859,0,4.911,2.052,4.837,5.424l-.22,5.716c0,1.32.587,1.905,1.246,1.905a1.78,1.78,0,0,0,1.539-1.319c0-.074.44.147.44.22a3.312,3.312,0,0,1-3.445,3.079Zm18.177-.513h-3.885a1.252,1.252,0,0,1,0-.733c1.613-.22,1.832-.366,1.832-3.518v-4.4c0-1.906-1.172-3.372-2.858-3.372a3.514,3.514,0,0,0-2.785,1.319,3.673,3.673,0,0,0-.587,2.272V23.93c0,3.152.367,3.3,1.906,3.518,0,0,.073.733,0,.733h-7.475c-.073,0-.073-.733-.073-.733,1.759-.293,1.979-.366,1.979-3.518V18.58c0-3.151-.367-3.371-2.272-3.664-.147,0-.073-.733,0-.733h5.571v3.225h.073c1.246-2.272,3.152-3.665,5.424-3.665,2.565,0,4.691,1.979,4.691,5.424V23.93c0,3.152.293,3.3,2.052,3.518.147,0,.073.733,0,.733h-3.591Zm11.8.586a7.166,7.166,0,0,1-7.256-7.4,7.29,7.29,0,0,1,7.549-7.622c2.2,0,3.225.733,3.958.733a.771.771,0,0,0,.733-.586,1.5,1.5,0,0,1,.806,0v5.277a1.776,1.776,0,0,1-.879,0c-1.172-2.418-2.785-4.471-4.691-4.471-2.345,0-3.665,2.492-3.665,5.937,0,3.665,1.905,6.083,4.544,6.083A5.779,5.779,0,0,0,314.166,24c.074-.146.66.147.66.293a7.016,7.016,0,0,1-6.3,4.471m17.737-9.381V18.36c0-2.272-1.1-3.591-2.492-3.591-1.759,0-3.078,1.905-3.371,4.617h5.863ZM320.4,21.072c0,3.078,1.759,5.57,4.764,5.57a5.8,5.8,0,0,0,4.471-2.565c0-.073.586.147.586.22a6.672,6.672,0,0,1-6.377,4.4,7.057,7.057,0,0,1-7.329-7.4,7.389,7.389,0,0,1,7.623-7.622,5.963,5.963,0,0,1,6.3,5.717v1.026h-9.968a2.026,2.026,0,0,0-.073.66Zm17.444,7.549a10.654,10.654,0,0,1-4.911-1.026,30.684,30.684,0,0,1-.293-3.885c0-.073.806-.147.88,0,1.173,2.492,2.859,4.031,4.691,4.031,1.539,0,2.638-.733,2.638-2.126,0-1.466-1.686-2.125-3.518-2.859-2.125-.806-4.544-1.906-4.544-4.617,0-2.126,1.832-4.324,5.277-4.324a20.952,20.952,0,0,1,3.078.586.771.771,0,0,0,.733-.586,1.506,1.506,0,0,1,.806,0v4.837a2.08,2.08,0,0,1-.952,0c-1.173-2.2-2.565-3.738-4.178-3.738a2.041,2.041,0,0,0-2.272,1.832c0,1.392,1.685,2.052,3.445,2.785,2.126.879,4.617,1.979,4.617,4.764.073,2.419-2.126,4.324-5.5,4.324M345.1,15.8c-.22,0-.22-.587-.074-.733,1.539-1.319,4.1-3.665,5.5-5.13.073-.073.586,0,.586.147V14.4h4.984c.147,0,.147,1.319,0,1.319h-4.983v8.136c0,1.832,1.1,2.712,2.272,2.712a2.95,2.95,0,0,0,2.272-1.613c0-.073.587.22.587.366a4.951,4.951,0,0,1-4.618,3.518c-2.272,0-4.1-1.393-4.1-4.324V15.941L345.1,15.8Zm23.013,2.272c-.44,0-1.539-1.319-2.345-1.319a1.966,1.966,0,0,0-1.172.586,5.081,5.081,0,0,0-1.1,3.152V24c0,3.152.513,3.3,2.2,3.518,0,0,.073.733,0,.733H358a1.253,1.253,0,0,1,0-.733c1.759-.293,1.979-.367,1.979-3.518v-5.35c0-3.152-.366-3.372-2.272-3.665-.146,0-.073-.733,0-.733h5.644v3.665h.147a12.094,12.094,0,0,1,.66-1.393c1.026-1.686,2.272-2.712,3.591-2.712a2.193,2.193,0,0,1,2.272,1.979,2.955,2.955,0,0,1-1.906,2.272m17.151-2.346c-.587.587-1.026,1.759-1.979,4.324l-4.764,12.167c-1.686,4.324-3.151,5.2-5.277,5.2-1.173,0-2.492-.587-2.492-.953-.073-.586.733-2.712,1.172-2.712a13.322,13.322,0,0,0,2.785.807c1.246,0,2.053-.733,2.712-2.565l.879-2.345c-.367-1.172-3.812-8.8-4.178-9.895-.879-2.052-1.466-3.665-2.052-4.178a2.652,2.652,0,0,0-1.759-.66,1.261,1.261,0,0,1,0-.733c.953,0,2.932.073,4.031.073s3.005-.073,3.958-.073a1.253,1.253,0,0,1,0,.733c-2.2.293-1.979,1.026-.733,3.958l2.565,6.157,1.979-5.351a12.29,12.29,0,0,0,1.1-3.591c0-.733-.513-1.1-1.978-1.172a1.5,1.5,0,0,1,0-.806c1.026,0,2.345.073,3.225.073.66,0,1.319-.073,2.566-.073.073,0,.147.806,0,.806a2.352,2.352,0,0,0-1.758.806" transform="translate(-228.854 -8.466)" fill="#54524f" fill-rule="evenodd"/>
  <path id="Path_588" data-name="Path 588" d="M21.914,4.837c-2.565-2.785-5.13-2.345-5.57-2.272.22.073.44,4.91,3.151,7.476,1.832,1.686,5.57,1.1,5.57,1.1a13.875,13.875,0,0,0-3.151-6.3m3.079,9.381a8.59,8.59,0,0,0-6.3,3.005c-2.272,2.859-2.2,5.13-2.712,5.643.44.147,5.057.587,7.036-2.418a11.632,11.632,0,0,0,1.979-6.23M4.91,12.313c.513.073,2.272,2.345,5.424,2.639,3.445.366,4.618-1.393,4.691-1.393,0-.22-2.785-3.225-5.863-3.225-2.125,0-4.251,1.979-4.251,1.979m12.533,1.466c-.073.073-2.932,3.885-9.675,2.859A13.835,13.835,0,0,1,0,12.753,14.31,14.31,0,0,1,9.308,8.942a15.472,15.472,0,0,1,8.136,2.785h3.005c-2.419-.733-5.351-2.052-6.67-4.984-1.172-2.712-.953-4.325-1.466-6.6,0,0,5.424-.44,9.6,2.272,3.811,2.492,5.937,9.088,6.01,9.308H30.27L29.757,0l2.932.073c-.513,3.078.147,25.066,0,25.066-.294.073-2.785.22-3.005-.367,0,0,.586-10.774.66-10.994H28.071c0,.147-.22,6.23-4.837,9.455s-11.287,2.272-11.287,2.272c.807-1.246,0-2.565,2.345-6.157a16.066,16.066,0,0,1,6.23-5.57H17.444M208.635,2.974c.272,0,.461-.1.461-.335,0-.208-.109-.344-.435-.344h-.289v.678h.263Zm-.552-.932h.625c.352,0,.7.127.7.579a.54.54,0,0,1-.361.507l.443.778h-.336l-.353-.688h-.425v.688h-.29V2.042h0Zm1.981.968a1.373,1.373,0,1,0-2.732,0,1.37,1.37,0,1,0,2.731,0Zm-3.012,0a1.65,1.65,0,1,1,3.293,0,1.649,1.649,0,1,1-3.293,0Z" fill="#9cbe30" fill-rule="evenodd"/>
</svg>
