<svg xmlns="http://www.w3.org/2000/svg" width="210.344" height="86" viewBox="0 0 176.063 31.451">
  <path id="myheritage-logo" d="M33.549,14.639a14.152,14.152,0,1,0-17.06,13.824c2.141.431,2.437-5.019,1.85-8.634-.01,0-.645-.037-.858-.046-.44-.018-.855.485-1.124.583-.458.167-.545-.289-.875-.289a3.084,3.084,0,0,1-1.747.248,1.97,1.97,0,0,1-1.431-1.183l-.325-.171a1.673,1.673,0,0,1-1.17-1.549c-.063-.589.967-1.035.677-1.219-1.249-.791-.846-1.414-.834-1.446.159-.419.765-1.326.543-1.467-.612-.39.393-2.66,1.277-3.291a3.3,3.3,0,0,1,1.657-2.142c-.041-.815,1.1-1.277,1.1-1.277.8-.257.239-.916,1.768-.811.358.024.347-.382,1.235-.4a6.328,6.328,0,0,1,1.325-.206c1.378-.06,1.315.872,1.776.713.583-.2,2.524.753,2.725,2.713.872-.067,3.16,2.452,3.093,4.311,1.5,1.689-.546,3.289-.628,3.6a3.267,3.267,0,0,1,.241,1.538,3.478,3.478,0,0,1-1.06,1.483c-.619.445-1.076.948-1.812.81-.76-.142-.616-.842-.842-1.013a2.868,2.868,0,0,1-2.165.727c-.111-.019-.52-.06-.573-.066-.451,2.661-.387,8.607,1.5,8.6a14.273,14.273,0,0,0,11.74-13.942Zm-29.451,0C4.1,7.1,9.987.524,17.412.091,6.767-.892,0,6.667,0,14.639S6.925,30.318,17.413,29.187C9.987,28.754,4.1,22.173,4.1,14.639ZM21.383.091C28.809.524,34.7,7.1,34.7,14.639S28.809,28.754,21.383,29.187C32.141,30.134,38.8,22.611,38.8,14.639S32.167-.839,21.383.091Zm82.609,15.75H99.368v-.058a3.965,3.965,0,0,1,.626-2.412,2.075,2.075,0,0,1,1.76-.834,1.993,1.993,0,0,1,1.76.877,2.626,2.626,0,0,1,.373.906,6.852,6.852,0,0,1,.1,1.345Zm3.655-1.973a6.36,6.36,0,0,0-1.537-2.617,4.911,4.911,0,0,0-1.91-1.169,7.5,7.5,0,0,0-2.506-.409,6.789,6.789,0,0,0-2.685.5,6.261,6.261,0,0,0-2.118,1.521A6.72,6.72,0,0,0,95.429,14.2a11.37,11.37,0,0,0-.448,3.421,9.491,9.491,0,0,0,.507,3.187,6.909,6.909,0,0,0,1.447,2.442,6.433,6.433,0,0,0,2.283,1.564,7.738,7.738,0,0,0,2.984.556,8.926,8.926,0,0,0,5.416-1.813.4.4,0,0,0,.109-.616l-1.016-1.532c-.252-.4-.5-.3-.7-.149a5.913,5.913,0,0,1-3.477,1.186,3.031,3.031,0,0,1-2.387-.936,3.908,3.908,0,0,1-.835-2.69v-.117h8.221c.708,0,.61-.906.61-.906a13.312,13.312,0,0,0-.492-3.933Zm59.64,1.915a3.964,3.964,0,0,1,.627-2.412,2.075,2.075,0,0,1,1.76-.834,1.992,1.992,0,0,1,1.76.877,2.624,2.624,0,0,1,.373.906,6.855,6.855,0,0,1,.1,1.345v.176h-4.625Zm8.161,2.924c.709,0,.611-.906.611-.906a13.316,13.316,0,0,0-.492-3.933,6.36,6.36,0,0,0-1.536-2.617,4.912,4.912,0,0,0-1.91-1.169,7.5,7.5,0,0,0-2.506-.409,6.787,6.787,0,0,0-2.685.5,6.261,6.261,0,0,0-2.119,1.521,6.719,6.719,0,0,0-1.462,2.514,11.37,11.37,0,0,0-.448,3.421,9.49,9.49,0,0,0,.507,3.187,6.91,6.91,0,0,0,1.447,2.442,6.434,6.434,0,0,0,2.283,1.564,7.736,7.736,0,0,0,2.983.556,8.926,8.926,0,0,0,5.416-1.813.4.4,0,0,0,.108-.616l-1.016-1.532c-.251-.4-.5-.3-.7-.149a5.913,5.913,0,0,1-3.476,1.186,3.03,3.03,0,0,1-2.387-.936,3.908,3.908,0,0,1-.835-2.69v-.117Zm-20.9-1.754a2.739,2.739,0,0,1-1.7-.5,1.924,1.924,0,0,1-.656-1.637,2.13,2.13,0,0,1,.626-1.637,2.481,2.481,0,0,1,1.76-.585,2.538,2.538,0,0,1,1.775.585,2.1,2.1,0,0,1,.642,1.637Q156.994,16.952,154.548,16.951Zm6.713-4.21a3.988,3.988,0,0,0,1.492-.263,4.137,4.137,0,0,0,.937-.54.479.479,0,0,0,.091-.732l-1-1.486c-.226-.375-.418-.486-.821-.224a5.118,5.118,0,0,1-1.072.6,4.334,4.334,0,0,1-1.656.336,4.119,4.119,0,0,1-.82-.088q-.433-.087-1.06-.234-.835-.2-1.462-.292a9.256,9.256,0,0,0-1.283-.088,9.047,9.047,0,0,0-2.655.366,6.169,6.169,0,0,0-2.029,1.023,4.544,4.544,0,0,0-1.76,3.67,3.9,3.9,0,0,0,3.282,4.152,6.738,6.738,0,0,0-1.507.527,2.944,2.944,0,0,0-.835.614,1.63,1.63,0,0,0-.373.673,2.822,2.822,0,0,0-.09.7,2.317,2.317,0,0,0,.314,1.257,1.7,1.7,0,0,0,.85.7,10.893,10.893,0,0,0,3.67.468l1.7.029a5.154,5.154,0,0,1,2,.395,1.381,1.381,0,0,1,.805,1.389,1.5,1.5,0,0,1-.268.863,2.194,2.194,0,0,1-.716.658,3.03,3.03,0,0,1-1.1.395,8.77,8.77,0,0,1-1.4.1,3.982,3.982,0,0,1-2.133-.468,1.529,1.529,0,0,1-.731-1.374,3.418,3.418,0,0,1,.03-.511c.02-.127.069-.5-.3-.453H148.1a4.633,4.633,0,0,0-.239.57,2.956,2.956,0,0,0-.119.95A3.5,3.5,0,0,0,149,29.086a5.574,5.574,0,0,0,2.6,1.272,15.065,15.065,0,0,0,3.192.336,12.894,12.894,0,0,0,3.4-.439,5.6,5.6,0,0,0,2.626-1.491,4.338,4.338,0,0,0,1.223-3.1,4.108,4.108,0,0,0-1.313-3.187,4.541,4.541,0,0,0-1.85-1.024,11.376,11.376,0,0,0-2.775-.322l-2.148-.029q-.657,0-.657-.351a.761.761,0,0,1,.4-.6,7.872,7.872,0,0,1,1.179-.629,3.182,3.182,0,0,0,.328.029h.268a7.209,7.209,0,0,0,2.253-.336,5.923,5.923,0,0,0,1.79-.921,4.116,4.116,0,0,0,1.178-1.4,3.865,3.865,0,0,0,.418-1.783,3.747,3.747,0,0,0-.224-1.345,3.83,3.83,0,0,0-.671-1.111q.179.029.462.058a5.628,5.628,0,0,0,.582.029ZM142.375,21.63a3.254,3.254,0,0,1-.984.76,2.485,2.485,0,0,1-1.1.263,1.636,1.636,0,0,1-1.268-.541,2.024,2.024,0,0,1-.492-1.418,1.9,1.9,0,0,1,.82-1.813,6.377,6.377,0,0,1,2.909-.468h.179Zm4.61.98a2.543,2.543,0,0,1-.433-.717,2.749,2.749,0,0,1-.179-.833q-.03-.453-.03-1.067l.089-5.029V13.94a4.731,4.731,0,0,0-.045-.7q-.039-.257-.089-.512a2.891,2.891,0,0,0-.134-.453,3.454,3.454,0,0,0-1.715-1.93,6.808,6.808,0,0,0-3.207-.673,10.191,10.191,0,0,0-2.044.2,11.924,11.924,0,0,0-2.134.673q-.805.322-1.343.585-.328.162-.644.346a.521.521,0,0,0-.223.737l1.132,1.869a.542.542,0,0,0,.813.176,12.5,12.5,0,0,1,1.845-.935,5.6,5.6,0,0,1,2.059-.439,1.7,1.7,0,0,1,1.447.483,3.179,3.179,0,0,1,.343,1.74v.614a3.778,3.778,0,0,0-.448-.029H141.6a9.887,9.887,0,0,0-5.5,1.243,4.382,4.382,0,0,0-1.835,3.9,4.43,4.43,0,0,0,1.343,3.465,5.646,5.646,0,0,0,3.909,1.214,5.239,5.239,0,0,0,3.073-.819,3.023,3.023,0,0,0,.462-.351q.224-.2.463-.438a3.245,3.245,0,0,0,.88,1.053,6.122,6.122,0,0,0,.722.49.673.673,0,0,0,.967-.185c.411-.451,1.027-1.135,1.374-1.575a.429.429,0,0,0-.033-.653,3.429,3.429,0,0,1-.433-.43Zm-13.608.022c-.058-.253-.313-.264-.482-.22s-.319.082-.44.11a2.584,2.584,0,0,1-.582.073,1.616,1.616,0,0,1-1.387-.483,3.624,3.624,0,0,1-.343-1.915V12.683h2.566l.813-2.157c.145-.413-.107-.533-.33-.533h-3.049q0-1.14.06-2.324.036-.724.1-1.388c.074-.726-.438-.673-.76-.613l-3.214.787a13.6,13.6,0,0,0-.134,1.637q-.015.79-.015,1.9h-1.522v2.69h1.521v8.129q0,.526.015.863t.03.57a2,2,0,0,0,.075.439q.06.2.149.438a2.949,2.949,0,0,0,1.477,1.594,5.516,5.516,0,0,0,2.64.6,8.533,8.533,0,0,0,2.971-.564.327.327,0,0,0,.218-.4c-.095-.437-.274-1.262-.373-1.721ZM121.1,3.443a2.469,2.469,0,0,0-1.775.7A2.3,2.3,0,0,0,118.6,5.87a2.322,2.322,0,0,0,.716,1.725,2.382,2.382,0,0,0,1.731.7,2.419,2.419,0,0,0,1.76-.7,2.322,2.322,0,0,0,.716-1.725A2.4,2.4,0,0,0,121.1,3.443ZM122.667,9.7c-.758.118-2.466.38-3.235.5-.367.064-.389.177-.389.412V24.557c0,.322.192.406.425.406h3.221c.28,0,.352-.077.352-.383V10.025c0-.36-.125-.365-.375-.326Zm-5.093,0a3.757,3.757,0,0,0-.731-.058,3.39,3.39,0,0,0-2.029.643,7.431,7.431,0,0,0-1.551,1.491,4.973,4.973,0,0,0-.627-2.135l-3.58.936a9.054,9.054,0,0,1,.4,1.754,18.386,18.386,0,0,1,.164,2.631v9.563a.4.4,0,0,0,.426.437h3.13c.256,0,.442-.074.442-.437V14.378a3.223,3.223,0,0,1,2.446-1.257,2.762,2.762,0,0,1,.612.049c.369.055.6.113.731-.317.2-.634.532-1.659.732-2.287.178-.56-.1-.746-.569-.867ZM93.308,4.642H89.9c-.4,0-.458.118-.458.464v7.43H83.479V5.106c0-.429-.2-.479-.6-.464H79.831c-.437,0-.5.144-.5.479V24.5c0,.357.167.467.385.467H83.03c.243,0,.45-.054.45-.452V15.9h5.967V24.5a.427.427,0,0,0,.466.459h3.366c.282,0,.4-.158.4-.437V5.091c0-.371-.125-.449-.375-.449ZM77.989,9.993H74.7c-.359,0-.432.057-.525.376l-2.182,6.759q-.186.551-.341,1.111-.137.48-.254.965-.076.336-.149.672-.09.41-.164.775t-.119.643q-.045.279-.045.307l-.806-3.1L67.59,10.182a.491.491,0,0,0-.6-.37l-3.139.359c-.377.043-.432.237-.333.49l4.894,14.3H69.43q-.129.274-.239.556-.082.215-.179.424-.088.187-.194.366t-.253.409a4.324,4.324,0,0,1-1.134,1.228,4.677,4.677,0,0,1-1.133.57q-.428.155-.864.288a.384.384,0,0,0-.232.6l.94,1.763a.549.549,0,0,0,.648.273,9.811,9.811,0,0,0,1.522-.407,6.959,6.959,0,0,0,1.716-.892,4.336,4.336,0,0,0,.776-.7,6.913,6.913,0,0,0,.7-.979,12.867,12.867,0,0,0,.7-1.374q.358-.8.746-1.886l5.385-14.753C78.487,10.017,78.254,9.993,77.989,9.993ZM61.964,5.085c-.045-.356-.177-.443-.54-.443H57.057a.513.513,0,0,0-.571.456l-2.678,9.632q-.478,1.784-.746,3.3-.058-.367-.134-.731t-.149-.716q-.082-.4-.179-.79-.122-.491-.254-.979l-2.6-9.734c-.142-.437-.387-.441-.674-.441H44.7c-.351,0-.434.191-.456.472L42.394,24.5c-.028.34.168.452.5.46h3.047c.322,0,.536-.066.583-.437l.687-10.178q.059-.936.09-1.842.059-.847.06-1.7.149.819.388,1.754.213.865.448,1.725l2.833,10.237a.505.505,0,0,0,.552.435h2.6c.419-.015.523-.064.643-.422l3.157-10.689q.269-.936.433-1.593t.343-1.535q0,.819.045,1.623t.1,1.769s.643,8.6.75,10.487c.019.338.192.361.437.361h3.274c.21,0,.4-.1.362-.437-.3-2.664-1.525-16.752-1.77-19.441" transform="translate(0 -0.004)" fill="#e85f30" fill-rule="evenodd"/>
</svg>
