<svg xmlns="http://www.w3.org/2000/svg" width="19.827" height="26.473" viewBox="0 0 19.827 26.473">
  <g id="document" transform="translate(0)">
    <path id="Path_577" data-name="Path 577" d="M5.816,4.929V0H5.76a.776.776,0,0,0-.548.227L.227,5.212A.776.776,0,0,0,0,5.76v.055H4.93a.887.887,0,0,0,.886-.886Zm0,0" transform="translate(0)" fill="#25772f"/>
    <path id="Path_578" data-name="Path 578" d="M17.391,0H7.367V4.929A2.44,2.44,0,0,1,4.93,7.366H0v16.67a2.44,2.44,0,0,0,2.437,2.437H17.391a2.436,2.436,0,0,0,2.437-2.437V2.437A2.436,2.436,0,0,0,17.391,0ZM13.785,17.108a.775.775,0,0,1-1.1,0l-2-2v5.6a.776.776,0,0,1-1.551,0v-5.6l-2,2a.776.776,0,0,1-1.1-1.1l3.323-3.323a.775.775,0,0,1,1.1,0l3.323,3.323a.775.775,0,0,1,0,1.1Zm-.548-6.419H6.591a.776.776,0,1,1,0-1.551h6.646a.776.776,0,1,1,0,1.551Zm0,0" transform="translate(0)" fill="#25772f"/>
  </g>
</svg>
