<svg xmlns="http://www.w3.org/2000/svg" width="210.344" height="86" viewBox="0 0 138 71.758">
  <g id="Group_10955" data-name="Group 10955" transform="translate(552 490.56)">
    <g id="Group_5786" data-name="Group 5786" transform="translate(-552 -490.56)">
      <g id="Group_5785" data-name="Group 5785" transform="translate(0 52.44)">
        <path id="Path_57085" data-name="Path 57085" d="M0,667.41H8.154v1.5H1.794V673.7h5.39v1.51H1.794v6.348H0Z" transform="translate(0 -666.202)" fill="#505759"/>
        <path id="Path_57086" data-name="Path 57086" d="M109.39,715.974c0-2.174,1.964-3.26,6.428-3.726,0-1.271-.431-2.5-2.157-2.5a5.889,5.889,0,0,0-3.127,1.067l-.69-1.169a8.052,8.052,0,0,1,4.119-1.292c2.567,0,3.646,1.619,3.646,4.1v6.108h-1.467l-.152-1.19h-.063a5.744,5.744,0,0,1-3.473,1.435,2.79,2.79,0,0,1-3.064-2.833Zm6.428.138v-2.767c-3.494.414-4.7,1.229-4.7,2.5,0,1.128.82,1.6,1.855,1.6a4.341,4.341,0,0,0,2.848-1.328Z" transform="translate(-100.284 -703.732)" fill="#505759"/>
        <path id="Path_57087" data-name="Path 57087" d="M247.8,708.6h1.467l.15,1.434h.065a4.68,4.68,0,0,1,3.257-1.679,2.745,2.745,0,0,1,2.9,1.9,5.021,5.021,0,0,1,3.45-1.9c2.157,0,3.192,1.351,3.192,3.889v6.305H260.51v-6.08c0-1.863-.625-2.661-1.942-2.661a3.893,3.893,0,0,0-2.632,1.534v7.206h-1.768v-6.08c0-1.863-.627-2.661-1.964-2.661a3.983,3.983,0,0,0-2.632,1.535v7.206H247.8Z" transform="translate(-227.172 -703.738)" fill="#505759"/>
        <path id="Path_57088" data-name="Path 57088" d="M458.8,659.225a1.232,1.232,0,1,1,1.23,1.151,1.232,1.232,0,0,1-1.23-1.151Zm.323,3.3h1.768v10.488h-1.768Z" transform="translate(-420.565 -657.65)" fill="#505759"/>
        <path id="Path_57089" data-name="Path 57089" d="M526.44,666.148V652.9h1.769v13.375c0,.562.237.777.5.777a1.487,1.487,0,0,0,.388-.043l.237,1.337a2.379,2.379,0,0,1-1.014.172C526.98,668.517,526.44,667.676,526.44,666.148Z" transform="translate(-482.568 -652.9)" fill="#505759"/>
        <path id="Path_57090" data-name="Path 57090" d="M574.843,726.237l.345-1.4a3.076,3.076,0,0,0,.8.151c1.187,0,1.942-.949,2.372-2.244l.237-.777-4.206-10.506h1.834l2.135,5.8c.323.905.69,1.984,1.014,2.955h.087c.3-.949.6-2.029.885-2.955l1.877-5.8h1.725L580,722.805c-.733,2.07-1.812,3.646-3.926,3.646a3.475,3.475,0,0,1-1.23-.214Z" transform="translate(-526.52 -707.133)" fill="#505759"/>
        <path id="Path_57091" data-name="Path 57091" d="M698.674,668.914H694.41v-1.5h10.35v1.5h-4.278v12.641h-1.808Z" transform="translate(-636.537 -666.202)" fill="#505759"/>
        <path id="Path_57092" data-name="Path 57092" d="M835.42,708.6h1.467l.151,1.8h.066a3.588,3.588,0,0,1,2.977-2.047,2.726,2.726,0,0,1,1.122.2l-.345,1.474a3.091,3.091,0,0,0-1.014-.164c-.885,0-1.942.614-2.654,2.292v6.388h-1.768v-9.95Z" transform="translate(-765.797 -703.734)" fill="#505759"/>
        <path id="Path_57093" data-name="Path 57093" d="M913.443,713.6a4.9,4.9,0,0,1,4.7-5.244c2.674,0,4.186,1.824,4.186,4.674a6.079,6.079,0,0,1-.066.966h-7.075a3.391,3.391,0,0,0,3.494,3.465,4.906,4.906,0,0,0,2.61-.78l.626,1.1a6.467,6.467,0,0,1-3.45,1.025,4.876,4.876,0,0,1-5.026-5.211Zm7.333-.82c0-2.009-.949-3.1-2.59-3.1a3.155,3.155,0,0,0-3.021,3.1Z" transform="translate(-837.318 -703.733)" fill="#505759"/>
        <path id="Path_57094" data-name="Path 57094" d="M1041.993,713.6a4.9,4.9,0,0,1,4.7-5.244c2.676,0,4.184,1.824,4.184,4.674a6.191,6.191,0,0,1-.064.966h-7.075a3.389,3.389,0,0,0,3.494,3.465,4.916,4.916,0,0,0,2.611-.78l.625,1.1a6.465,6.465,0,0,1-3.45,1.025,4.876,4.876,0,0,1-5.029-5.211Zm7.335-.82c0-2.009-.949-3.1-2.588-3.1a3.155,3.155,0,0,0-3.021,3.1Z" transform="translate(-955.154 -703.733)" fill="#505759"/>
        <path id="Path_57095" data-name="Path 57095" d="M1194.14,668.45h3.969c4.293,0,7.055,2.135,7.055,6.968s-2.76,7.1-6.882,7.1h-4.14Zm3.774,11.5c2.394,0,3.991-1.166,3.991-4.531s-1.6-4.4-3.991-4.4h-.6v8.93Z" transform="translate(-1094.618 -667.156)" fill="#505759"/>
        <path id="Path_57096" data-name="Path 57096" d="M1353.55,668.452h3.257l3.668,6.99,1.38,3.106h.087c-.13-1.489-.388-3.474-.388-5.134v-4.968h3.019v14.065h-3.257l-3.668-7.012-1.38-3.064h-.087c.13,1.554.388,3.429.388,5.091v4.983h-3.019Z" transform="translate(-1240.728 -667.157)" fill="#505759"/>
        <path id="Path_57097" data-name="Path 57097" d="M1508.8,668.45h3.817l4.4,14.065h-3.366l-.864-3.344H1508.5l-.864,3.344H1504.4Zm.345,8.24h3l-.324-1.294c-.388-1.4-.776-3.064-1.143-4.531h-.087c-.345,1.489-.712,3.128-1.1,4.531Z" transform="translate(-1379.019 -667.156)" fill="#505759"/>
      </g>
      <path id="Path_57098" data-name="Path 57098" d="M209.731,17.614a22.3,22.3,0,0,1-8.82,1.281c.36-4.669-1.369-10.415-12.924-8.428l-1.38,1.38S197.813,9.428,198.2,18.22a7.11,7.11,0,0,1-1.2-.643,33.862,33.862,0,0,0-6.2-3.416h0a13.386,13.386,0,0,0-7.286-1.31c-2.833.185-4.1,2.122-5.789,6.1q-1.886-1.2-3.98-2.7a6.925,6.925,0,0,0-5.171-2.111c-3.566.29-6.1,2.082-10.311,8.8a30.054,30.054,0,0,0-4.5-6.254,13.15,13.15,0,0,0-6.176-4.3c-4.315-1.13-5.73.712-15.854,8.76C125.575,14.5,113.954,7.2,85.53,0l6.316,11.239s14.011-1.488,29.785,8.288a32.155,32.155,0,0,1,6.054,4.8c-.842.651-1.726,1.332-2.665,2.044-16.406,12.472-24.9,11.925-24.9,11.925-5.894,5.952-10.811,4.891-10.811,4.891,12.558,7.827,31.392-5.635,41.9-14.547,5.005,7.288,5.737,13.8,16.756,13.548l2.241-.664a8.461,8.461,0,0,0,1.2-.353l.367-.109h-.092c3.174-1.319,5.36-4.439,7.353-8.236a12.282,12.282,0,0,0,8.832,4.692l3.065-.414.164.048a8.879,8.879,0,0,0,1.74-.3l.7-.094s-.1-.008-.276-.03c4.714-1.6,6.325-7.2,7.536-12.513,5.572,2.712,11.667,4.562,15.522,2.426a.028.028,0,0,1-.01.025,20.125,20.125,0,0,0,3.38-2.437,19.079,19.079,0,0,0,.843-2.8,13.138,13.138,0,0,0,6.174-1.2Zm-74.7,7.68c1.536-1.38,2.687-2.474,3.344-3.069,3.987-3.616,6.118-6.05,8.261-6.737a8.391,8.391,0,0,1,2.946,2.582,103,103,0,0,1,5.923,9.548c-.5.883-1.018,1.816-1.565,2.815-2.76,5.051-5.738,7.337-8.32,8.263a22.76,22.76,0,0,1-2.318-1.8C139.546,33.578,138,29.63,135.031,25.294Zm38.944,2.76c-2.037,4.645-4.278,6.516-6.1,7.188a12.438,12.438,0,0,1-6.838-6.493,94.966,94.966,0,0,1,4.319-8.466,8.512,8.512,0,0,1,3.458-3.333c1.479,1.07,4.314,3.036,7.7,4.99-.708,1.764-1.524,3.8-2.543,6.115Zm7.5-6.883c.208-.905.421-1.775.656-2.583a5.992,5.992,0,0,1,3.409-4.108l.19.062c4.725,1.74,8.087,5.146,12.282,6.421a23.912,23.912,0,0,1-.976,3.752c-2.527.876-7.281.987-15.565-3.542Z" transform="translate(-78.63 0)" fill="#fa4616"/>
    </g>
  </g>
</svg>
