<svg id="Childhood_Intelligence" data-name="Childhood Intelligence" xmlns="http://www.w3.org/2000/svg" width="48" height="48" viewBox="0 0 48 48">
  <circle id="Ellipse_38" data-name="Ellipse 38" cx="24" cy="24" r="24" fill="#ddefe2"/>
  <path id="Path_49" data-name="Path 49" d="M23.732,13a.409.409,0,0,0-.165.041,4.133,4.133,0,0,0-1.98,3.492c-.038,0-.074.012-.11.014a2.949,2.949,0,0,0-3.025-1.787.441.441,0,0,0,.055.88c.07-.005,1.55-.069,2.049.99a8.982,8.982,0,0,0-7.741,7.837,2.194,2.194,0,0,0-.1,4.3C13.932,33.357,18.444,35,22,35s8.068-1.643,9.281-6.229a2.194,2.194,0,0,0-.1-4.3,9.027,9.027,0,0,0-8.731-7.92,3.255,3.255,0,0,1,1.5-2.709.444.444,0,0,0,.206-.591A.45.45,0,0,0,23.732,13ZM18.48,24.44a1.32,1.32,0,1,1-1.32,1.32A1.32,1.32,0,0,1,18.48,24.44Zm7.04,0a1.32,1.32,0,1,1-1.32,1.32A1.32,1.32,0,0,1,25.52,24.44ZM19.3,29.816a.441.441,0,0,1,.33.083A4.132,4.132,0,0,0,22,30.6a4.053,4.053,0,0,0,2.365-.7.442.442,0,0,1,.619.083.423.423,0,0,1-.069.6,5.2,5.2,0,0,1-5.83,0,.423.423,0,0,1-.069-.6A.435.435,0,0,1,19.3,29.816Z" fill="#25772f"/>
  <path id="Path_50" data-name="Path 50" d="M32.069,20.266l-.353-.354-1.164-1.164h-.005l-.006,0-.353-.354m1.882,1.871L33.6,18.759h0l-1.164,1.164-.354.354.354.354L33.6,21.795a.008.008,0,0,1,0,.011l.354.354m-1.882-1.893.354-.354m-.354.354.354-.354m-2.236-1.518.354.354a.008.008,0,0,0,0,.011h0L31.7,19.923l.354.354-.354.354-1.164,1.164a.008.008,0,0,0,0,.011l-.354.354m0-3.764a.508.508,0,0,0,0,.718l.811.811h0l.354.354L31,20.631h0l-.811.811a.508.508,0,0,0,0,.718m0-3.764a.508.508,0,0,1,.718,0l.811.811h0v2.143l-.811.811a.508.508,0,0,1-.718,0m0,0,.353-.354,0,0h.007l0,0,1.164-1.164.353-.354.354.354,1.164,1.164h0l0,0H33.6l0,0,.353.354m0,0a.508.508,0,0,0,0-.718l-.811-.811.093,1.528a.508.508,0,0,0,.718,0Zm-1.528-2.246,1.164-1.164ZM30.1,25.577l.138.276H33.9l.138-.276A9.24,9.24,0,0,1,35.294,23.8c.2-.236.4-.478.6-.74a5.152,5.152,0,0,0,1.246-3.288,5.069,5.069,0,0,0-10.139,0,5.152,5.152,0,0,0,1.246,3.288c.2.261.4.5.6.74A9.241,9.241,0,0,1,30.1,25.577Zm.447.292h-.5v1.008a1.515,1.515,0,0,0,1.12,1.463,1.008,1.008,0,0,0,1.805,0,1.515,1.515,0,0,0,1.121-1.463V25.869H30.546Z" fill="#25772f" stroke="#f3fbf5" stroke-width="1"/>
  <circle id="Ellipse_39" data-name="Ellipse 39" cx="3.3" cy="3.3" r="3.3" transform="translate(28.6 17.4)" fill="#25772f"/>
</svg>
