<svg id="Hearing_Function" data-name="Hearing Function" xmlns="http://www.w3.org/2000/svg" width="48" height="48" viewBox="0 0 48 48">
  <circle id="Ellipse_40" data-name="Ellipse 40" cx="24" cy="24" r="24" fill="#ddefe2"/>
  <path id="Path_51" data-name="Path 51" d="M24,12a8.017,8.017,0,0,0-8,8,1,1,0,1,0,2,0,6,6,0,1,1,12,0,8.953,8.953,0,0,1-2.731,6.617c-.705.753-1.437,1.382-2.054,2.024A3.416,3.416,0,0,0,24,31a3,3,0,0,1-6,0,1,1,0,1,0-2,0,5,5,0,0,0,10,0,2.175,2.175,0,0,1,.66-.971c.508-.532,1.278-1.2,2.071-2.045A11.239,11.239,0,0,0,32,20,8.009,8.009,0,0,0,24,12Zm.715,4A3.532,3.532,0,0,0,21,19.5c0,2.035-2,2.368-2,3.5,0,.917,1,1.14,1,2s-1,1-1,2,1.273,2,2.5,2S24,27.445,24,26s-1-2.437-1-5.332c0-1.72.5-2.67,1.715-2.67C25.329,18,26,18.32,26,19a1,1,0,1,0,2,0,1.132,1.132,0,0,0-.019-.2A3.188,3.188,0,0,0,24.716,16Z" fill="#25772f"/>
</svg>
