<svg id="Mathematical_Ability" data-name="Mathematical Ability" xmlns="http://www.w3.org/2000/svg" width="48" height="48" viewBox="0 0 48 48">
  <circle id="Ellipse_41" data-name="Ellipse 41" cx="24" cy="24" r="24" fill="#ddefe2"/>
  <path id="Path_52" data-name="Path 52" d="M14.182,12A2.182,2.182,0,0,0,12,14.182v6.547a2.182,2.182,0,0,0,2.182,2.182h6.547a2.182,2.182,0,0,0,2.182-2.182V14.182A2.182,2.182,0,0,0,20.729,12Zm13.092,0a2.18,2.18,0,0,0-2.182,2.182v6.547a2.18,2.18,0,0,0,2.182,2.182h6.545A2.18,2.18,0,0,0,36,20.729V14.182A2.18,2.18,0,0,0,33.818,12Zm-9.82,2.182a1.091,1.091,0,0,1,1.093,1.091v1.091h1.091a1.092,1.092,0,0,1,0,2.184H18.547v1.091a1.092,1.092,0,0,1-2.184,0V18.547H15.272a1.092,1.092,0,0,1,0-2.184h1.091V15.272A1.091,1.091,0,0,1,17.454,14.182Zm10.91,2.182h4.363a1.092,1.092,0,0,1,0,2.184H28.365a1.092,1.092,0,0,1,0-2.184ZM14.182,25.092A2.18,2.18,0,0,0,12,27.274v6.545A2.18,2.18,0,0,0,14.182,36h6.547a2.18,2.18,0,0,0,2.182-2.182V27.274a2.18,2.18,0,0,0-2.182-2.182Zm13.092,0a2.178,2.178,0,0,0-2.182,2.182v6.545A2.178,2.178,0,0,0,27.274,36h6.545A2.178,2.178,0,0,0,36,33.818V27.274a2.178,2.178,0,0,0-2.182-2.182Zm1.091,2.182h4.363a1.091,1.091,0,1,1,0,2.182H28.365a1.091,1.091,0,0,1,0-2.182Zm-12.545.544a1.1,1.1,0,0,1,.772.321l.863.865.865-.865a1.091,1.091,0,0,1,1.544,1.542L19,30.546l.865.865a1.091,1.091,0,0,1,0,1.542,1.088,1.088,0,0,1-1.544,0l-.865-.863-.863.863a1.091,1.091,0,0,1-1.544-1.542l.865-.865-.865-.865a1.092,1.092,0,0,1,.772-1.863Zm12.545,3.819h4.363a1.091,1.091,0,1,1,0,2.182H28.365a1.091,1.091,0,0,1,0-2.182Z" fill="#25772f"/>
</svg>
