<svg id="Reading_and_Spelling_Ability" data-name="Reading and Spelling Ability" xmlns="http://www.w3.org/2000/svg" width="48" height="48" viewBox="0 0 48 48">
  <circle id="Ellipse_43" data-name="Ellipse 43" cx="24" cy="24" r="24" fill="#ddefe2"/>
  <path id="Path_54" data-name="Path 54" d="M21.8,12a1.481,1.481,0,0,0-1.081.335,1.5,1.5,0,0,0-.33,1.093v8.629a1.526,1.526,0,0,0,.325,1.081,1.433,1.433,0,0,0,1.08.342h3.514A12.369,12.369,0,0,0,26.9,23.39a4.769,4.769,0,0,0,1.2-.31,2.964,2.964,0,0,0,1.333-1.137,3.19,3.19,0,0,0,.493-1.737,2.8,2.8,0,0,0-2.265-2.8,2.64,2.64,0,0,0,1.725-2.523,2.737,2.737,0,0,0-.164-.949,2.7,2.7,0,0,0-.481-.823,2.8,2.8,0,0,0-.719-.617,3.089,3.089,0,0,0-1.08-.392A8.534,8.534,0,0,0,25.52,12Zm.917,1.745H24.6a4.8,4.8,0,0,1,1.886.285,1.145,1.145,0,0,1,.619,1.157,1.377,1.377,0,0,1-.2.734,1.274,1.274,0,0,1-.721.629,4.324,4.324,0,0,1-1.346.164H22.72Zm0,4.634h2.416a3.443,3.443,0,0,1,1.826.392,1.386,1.386,0,0,1,.607,1.264c0,1.13-.783,1.7-2.357,1.7H22.72ZM16.1,20.349a1.532,1.532,0,0,0-.773.179,1.391,1.391,0,0,0-.51.461,4.127,4.127,0,0,0-.362.726c-.114.288-.213.538-.295.746L11.327,29.67c-.114.285-.2.51-.253.674a1.591,1.591,0,0,0-.074.468.963.963,0,0,0,.327.7,1.04,1.04,0,0,0,.748.31.839.839,0,0,0,.719-.292,4.978,4.978,0,0,0,.53-1.125l.528-1.42h4.518l.525,1.39c.074.171.156.372.258.595a2.273,2.273,0,0,0,.275.5.883.883,0,0,0,.315.258,1.006,1.006,0,0,0,.456.1,1.07,1.07,0,0,0,.778-.322.978.978,0,0,0,.322-.7,3.6,3.6,0,0,0-.342-1.192l-2.9-7.16c-.139-.359-.253-.644-.342-.86a3.2,3.2,0,0,0-.322-.6,1.469,1.469,0,0,0-.51-.456A1.558,1.558,0,0,0,16.1,20.349Zm-.015,2.367L17.763,27.3H14.445Zm15.356,1.807a5.518,5.518,0,0,0-2.084.392,4.881,4.881,0,0,0-1.7,1.15,5.113,5.113,0,0,0-1.118,1.812,6.9,6.9,0,0,0-.392,2.4,7.528,7.528,0,0,0,.156,1.561,6.135,6.135,0,0,0,.463,1.378,5.515,5.515,0,0,0,.751,1.17A4.255,4.255,0,0,0,29.9,35.834,7.233,7.233,0,0,0,31.5,36a5.153,5.153,0,0,0,2.032-.369,4.313,4.313,0,0,0,1.433-.966,4.212,4.212,0,0,0,.818-1.212,2.922,2.922,0,0,0,.26-1.148.933.933,0,0,0-.285-.7.951.951,0,0,0-.689-.28.817.817,0,0,0-.684.278,2.354,2.354,0,0,0-.349.716,2.954,2.954,0,0,1-1.011,1.41,2.747,2.747,0,0,1-1.643.481,2.841,2.841,0,0,1-1.561-.424,2.7,2.7,0,0,1-1.028-1.279,5.6,5.6,0,0,1-.362-2.156,4.769,4.769,0,0,1,.82-2.991,2.654,2.654,0,0,1,2.208-1.053,2.525,2.525,0,0,1,1.465.411,3.374,3.374,0,0,1,1.033,1.232,2.865,2.865,0,0,0,.478.706.9.9,0,0,0,.647.2.876.876,0,0,0,.662-.295.966.966,0,0,0,.268-.684,2.627,2.627,0,0,0-.558-1.5,4.364,4.364,0,0,0-1.611-1.323A5.2,5.2,0,0,0,31.444,24.523Z" fill="#25772f"/>
</svg>
