<svg width="201" height="296" viewBox="0 0 201 296" fill="none" xmlns="http://www.w3.org/2000/svg">
<path d="M180.178 254.127L180.178 254.127C167.415 266.937 150.072 274.122 131.993 274.093H131.992H126.712H126.212V274.593V295.215H106.093V274.593V274.093H105.593H73.9154H73.4157V274.593V295.215H53.2965V274.593V274.093H52.7967H0.499721V253.971H21.1187H21.6184V253.471V42.2534V41.7537H21.1187H0.499721V21.6313H52.7967H53.2965V21.1316V0.509487H73.4157V21.1316V21.6313H73.9154H105.593H106.093V21.1316V0.509487H126.212V21.1316V21.6313H126.712H131.992C159.562 21.621 184.421 38.2275 194.971 63.7025C205.519 89.1795 199.68 118.502 180.172 137.988L180.172 137.988C178.273 139.887 176.254 141.663 174.13 143.304L174.13 143.305L168.759 147.457L168.252 147.849L168.756 148.245L174.09 152.432C189.402 164.462 198.83 182.471 199.995 201.912C201.158 221.348 193.947 240.356 180.178 254.127ZM42.2374 41.7537H41.7377V42.2534V137.301V137.801H42.2374H131.992C158.512 137.801 180.009 116.301 180.009 89.7774C180.009 63.254 158.512 41.7537 131.992 41.7537H42.2374ZM41.7377 253.471V253.971H42.2374H131.992C158.512 253.971 180.009 232.471 180.009 205.947C180.009 179.424 158.512 157.924 131.992 157.924H42.2374H41.7377V158.423V253.471Z" stroke="#D2DCF6" stroke-width="0.999442"/>
</svg>
