<svg width="41" height="61" viewBox="0 0 41 61" fill="none" xmlns="http://www.w3.org/2000/svg">
<path d="M36.7077 52.5618C39.5223 49.7472 40.9964 45.862 40.7586 41.8893C40.5205 37.9158 38.5932 34.2349 35.463 31.776L34.3807 30.9264L35.4706 30.0839C35.905 29.7483 36.3181 29.385 36.7065 28.9966C40.6942 25.0139 41.8878 19.0206 39.7316 13.8133C37.5749 8.6064 32.4932 5.21215 26.8573 5.21424H25.7859V0.928528H21.5001V5.21424H15.0716V0.928528H10.7859V5.21424H0.0715637V9.49996H4.35728V52.3571H0.0715637V56.6428H10.7859V60.9285H15.0716V56.6428H21.5001V60.9285H25.7859V56.6428H26.8573C30.5533 56.6487 34.0986 55.1801 36.7077 52.5618ZM8.64299 9.49996H26.8573C32.183 9.49996 36.5001 13.8171 36.5001 19.1428C36.5001 24.4686 32.183 28.7857 26.8573 28.7857H8.64299V9.49996ZM8.64299 52.3571V33.0714H26.8573C32.183 33.0714 36.5001 37.3885 36.5001 42.7142C36.5001 48.04 32.183 52.3571 26.8573 52.3571H8.64299Z" fill="white"/>
</svg>
