<svg width="58" height="58" viewBox="0 0 58 58" fill="none" xmlns="http://www.w3.org/2000/svg">
<path d="M25.0087 42.676L19.677 48.0077C17.0069 50.6777 12.6624 50.6786 9.99105 48.0077C7.32143 45.3376 7.32232 40.9931 9.99238 38.3231L20.6979 27.6176C23.1719 25.1436 27.0845 24.9608 29.7692 27.072C29.9816 27.2388 30.1864 27.4207 30.3825 27.6167C31.5715 28.8053 33.4149 28.8247 34.5792 27.6601L37.9342 24.305C37.3829 23.4683 36.7457 22.6877 36.0284 21.9704C35.0172 20.9597 33.8959 20.1247 32.7012 19.4676C28.0266 16.8891 22.2453 17.0179 17.68 19.8534C16.7317 20.4424 15.8347 21.1482 15.0117 21.9717L4.34604 32.6374C-1.44853 38.4319 -1.44853 47.8599 4.34516 53.654C10.1402 59.4486 19.5677 59.4486 25.3627 53.654L34.9575 44.0592C31.606 44.5026 28.1562 44.0424 25.0087 42.676Z" fill="#51A653"/>
<path d="M53.6538 4.34549C47.8597 -1.44864 38.4321 -1.44864 32.6371 4.34637L23.0432 13.9403C26.3947 13.4964 29.8445 13.9566 32.992 15.3235L38.3242 9.99138C40.9942 7.32132 45.3378 7.32132 48.0079 9.99138C50.6788 12.6623 50.6788 17.0059 48.0088 19.676L37.302 30.3828C34.8554 32.8294 30.9724 32.9984 28.2909 30.8974C28.0714 30.7271 27.8616 30.5408 27.6603 30.3394C26.4912 29.1703 24.5898 29.1712 23.4207 30.3403L20.0656 33.6954C20.6174 34.5304 21.2555 35.3118 21.9715 36.0278C22.9897 37.046 24.1207 37.885 25.3239 38.5456C30.0241 41.1259 35.8346 40.975 40.403 38.0947C41.3208 37.5164 42.1894 36.8274 42.9877 36.0287L53.6538 25.363C59.4484 19.568 59.4484 10.1405 53.6538 4.34549Z" fill="#51A653"/>
</svg>
