<svg width="32" height="32" viewBox="0 0 32 32" fill="none" xmlns="http://www.w3.org/2000/svg">
<path d="M31.3321 1.9331L19.6313 10.3922L17.7113 11.7835C16.6942 12.5349 15.3058 12.5349 14.2887 11.7835L12.3687 10.3922L0.653931 1.94699C1.30552 1.03578 2.35806 0.496495 3.47829 0.500017H28.5217C29.6337 0.500995 30.6783 1.03362 31.3321 1.9331Z" fill="#9FC2DF"/>
<path d="M0.653964 1.94736L12.3687 10.3925L1.01572 21.7456C0.363812 21.092 -0.00160005 20.2061 3.03773e-05 19.2829V3.97868C-0.00303483 3.24929 0.225943 2.5379 0.653964 1.94736Z" fill="#1C9AE2"/>
<path d="M32 3.97832V19.2827C32.0016 20.2058 31.6363 21.0917 30.9844 21.7453L19.6313 10.3922L31.3322 1.93311C31.7666 2.52645 32.0005 3.24286 32 3.97832Z" fill="#1C9AE2"/>
<path d="M20.8695 25.5435C19.9457 25.5435 19.4782 24.8478 19.4782 23.4565C19.501 21.5126 17.9436 19.9183 15.9997 19.8956C14.0557 19.8728 12.4615 21.4302 12.4387 23.3741C12.416 25.3181 13.9734 26.9123 15.9173 26.9351C16.9591 26.9473 17.9528 26.4973 18.6309 25.7062C19.0928 26.4978 19.9536 26.9702 20.8695 26.9347C23.6521 26.9347 23.6521 24.3163 23.6521 23.4565C23.6522 19.2304 20.2263 15.8043 16.0001 15.8042C11.774 15.804 8.34791 19.23 8.34778 23.4562C8.34771 27.6824 11.7736 31.1084 15.9998 31.1086C17.9853 31.1086 19.8932 30.3369 21.3203 28.9564C21.5965 28.6874 21.6024 28.2455 21.3335 27.9693C21.0646 27.693 20.6226 27.6871 20.3464 27.956C17.8576 30.3565 13.8941 30.2849 11.4937 27.7961C9.09321 25.3074 9.16482 21.3439 11.6536 18.9434C14.1423 16.543 18.1058 16.6146 20.5063 19.1033C21.6335 20.272 22.2626 21.8329 22.2608 23.4566C22.2608 25.0162 21.9102 25.5435 20.8695 25.5435ZM16 25.5435C14.8474 25.5435 13.913 24.6091 13.913 23.4565C13.913 22.3039 14.8474 21.3695 16 21.3695C17.1526 21.3695 18.0869 22.3039 18.0869 23.4565C18.0869 24.6091 17.1526 25.5435 16 25.5435Z" fill="#9FC2DF"/>
<path d="M19.6314 10.3922L17.7114 11.7835C16.6942 12.5349 15.3059 12.5349 14.2888 11.7835L12.3688 10.3922L1.01575 21.7452C1.66929 22.3971 2.5552 22.7625 3.47835 22.7608H6.99134C7.36771 17.7859 11.7058 14.0579 16.6808 14.4343C21.1325 14.7711 24.6706 18.3092 25.0074 22.7608H28.5218C29.4449 22.7625 30.3308 22.3971 30.9844 21.7452L19.6314 10.3922Z" fill="#198BC9"/>
</svg>
