<svg width="42" height="42" viewBox="0 0 42 42" fill="none" xmlns="http://www.w3.org/2000/svg">
<path d="M22.4063 29.5L21.2438 36.9813C21.1689 36.9813 21.075 37 21.0001 37C12.2063 37 5 29.7938 5 21.0001C5 17.7188 6.05632 14.6813 7.74376 12.1501C8.19376 12.1876 10.5563 10.3126 11.0813 10.2751L21.0001 27.0562L22.4063 29.5Z" fill="white"/>
<path d="M22.4062 29.5L21.2437 36.9812C21.1688 36.9812 21.0749 37 20.9999 37V27.0562L22.4062 29.5Z" fill="#00C8C8"/>
<path d="M37 21C37 28.2937 32.025 34.5061 25.3312 36.3811L21.7686 26.55L20.9999 25.4812L13.8374 15.4313L20.9999 10.5187L27.1686 6.23749C32.9062 8.65629 37 14.3812 37 21Z" fill="white"/>
<path d="M31.7625 24.075C31.35 23.1936 30.4687 22.9874 29.6812 22.8186C28.1625 22.4811 27.5437 22.1625 26.7562 20.8312C25.6499 19.0125 24.2624 18.8624 22.5375 20.1C22.1249 20.3999 21.75 20.6812 20.9999 20.8125C20.7 20.8499 20.3624 20.8874 19.9312 20.8874C18.4312 20.8874 17.5312 20.0248 17.2312 19.2749C17.1187 18.9936 16.8937 18.2811 17.4374 17.7374C17.6999 17.4749 17.8312 17.4749 18.7312 17.9248C19.2938 18.2062 20.1374 18.6186 21 18.4123C21.3938 18.3374 21.7874 18.131 22.1813 17.7373C24.9 15.0186 30.375 18.0936 30.375 13.9123C30.375 12.3186 28.125 8.67493 27.1687 6.23731C25.5187 5.54369 23.2125 5 20.9999 5C16.3312 5 12.15 7.08756 9.22484 10.2751C8.69991 10.8749 8.19359 11.4937 7.74365 12.15C8.19365 12.1875 8.68116 12.1875 9.20622 12.15C9.82491 12.1313 11.2875 12.075 11.5312 12.3187C11.5312 12.3187 11.625 12.6937 10.9124 13.8375C9.37491 16.35 8.90616 17.9062 9.35609 19.05C9.80622 20.175 10.9499 20.4937 11.8687 20.7562C13.1812 21.1125 16.8937 22.9499 17.1187 23.4186V24.9937C17.1187 26.175 18.2438 26.7938 19.1249 27.3187C19.4812 27.525 20.2313 27.9563 20.2874 28.1625C20.2874 31.4437 20.5688 34.0749 20.9999 36.0061C21.0749 36.3624 21.1688 36.6812 21.2437 36.9812C22.4437 36.9624 23.9999 36.7749 25.3312 36.3812C25.3312 34.7687 25.3312 33.0812 25.3125 32.575C25.4437 32.2562 26.5313 31.5624 27.2438 31.0937C29.775 29.4436 33.0187 26.8312 31.7625 24.075Z" fill="#D85736"/>
<circle cx="21" cy="21" r="20" stroke="black" stroke-width="2"/>
</svg>
