<svg width="64" height="64" viewBox="0 0 64 64" fill="none" xmlns="http://www.w3.org/2000/svg">
<g clip-path="url(#clip0)">
<path d="M30.125 5.75H33.875V13.25H30.125V5.75Z" fill="black"/>
<path d="M39.2676 14.5788L44.5695 9.27686L47.2205 11.9278L41.9186 17.2298L39.2676 14.5788Z" fill="black"/>
<path d="M16.7699 11.9252L19.4209 9.27422L24.7229 14.5762L22.0719 17.2272L16.7699 11.9252Z" fill="black"/>
<path d="M47.9 28.25C44.8312 24.4583 40.1357 21.6745 34.8877 20.975L23.525 32.3376L24.875 33.65C27.0501 35.8626 30.6127 35.8626 32.825 33.65L36.8003 29.675L40.4377 33.9876C42.6128 36.1625 46.1753 36.1625 48.3877 33.9876L51.0503 36.6125C49.2128 38.45 46.8128 39.3501 44.4126 39.3501C43.9251 39.3501 43.4751 39.3126 42.9876 39.2375L50.4502 50.75H64V28.25H47.9Z" fill="#9B51E0"/>
<path d="M32 58.25C37.5875 58.25 42.9124 55.9625 46.775 51.9876L36.1625 35.6374L35.4875 36.3126C31.7064 40.0148 25.7875 39.9263 22.2126 36.2751L18.2001 32.375L29.6751 20.8628C24.3874 21.5 19.5124 24.1251 16.1 28.25H0V50.75H16.1C20 55.475 25.85 58.25 32 58.25Z" fill="#9B51E0"/>
</g>
<defs>
<clipPath id="clip0">
<rect width="64" height="64" fill="white"/>
</clipPath>
</defs>
</svg>
