<svg width="60" height="50" viewBox="0 0 60 50" fill="none" xmlns="http://www.w3.org/2000/svg">
<path d="M23.7191 0.75739C24.5573 0.417602 25.4714 0.40204 26.3542 0.27235C27.5198 -0.0959699 28.7666 0.0311256 29.9741 0C31.3545 0.0285318 32.7769 -0.0933772 34.1258 0.267161C35.9542 0.36832 37.7039 0.910424 39.4432 1.43437C39.9487 1.65225 40.4752 1.82863 40.9729 2.06726C45.266 3.85698 48.7498 7.28858 50.8793 11.3634C51.1046 11.7785 51.2958 12.2142 51.5001 12.6422C51.8014 13.314 52.0528 14.0039 52.3383 14.6809C52.4719 15.1245 52.595 15.5732 52.7365 16.0167C53.0194 16.7586 53.2371 17.573 53.3363 18.3122C53.3966 18.761 53.4489 19.2097 53.5092 19.661C53.6847 20.9761 53.6606 23.7463 53.6606 23.7463H55.5733C55.5733 23.7463 55.4711 14.4138 55.7828 9.76826C56.2386 9.11203 56.8829 8.60104 57.6871 8.44023C58.5646 8.48173 59.463 8.97456 59.8062 9.80976C59.9319 10.1288 59.9948 10.4582 60 10.8006C59.9948 18.7869 59.9974 34.7595 59.9974 34.7595H53.9467C53.9467 34.7595 53.9728 37.566 53.5328 38.8474C53.4594 39.1975 53.3913 39.5529 53.3311 39.9082C53.1241 40.4088 52.9329 40.9146 52.7129 41.41C51.5028 44.1076 49.127 46.1515 46.4919 47.4458C41.8347 49.5831 36.6169 50.0526 31.551 49.9955C30.3723 49.9955 29.3246 49.9955 28.3554 49.9722C26.1051 49.918 23.8239 49.6065 21.6131 49.456C21.0761 49.3886 20.5391 49.3315 20.0048 49.2563C19.24 49.0877 18.4227 48.9762 17.6919 48.6416C16.5001 48.3951 15.3868 47.8997 14.2527 47.4743C13.8257 47.2565 13.3883 47.0542 12.9692 46.8233C12.5998 46.6028 12.2305 46.3876 11.8559 46.18C9.71066 44.7742 7.8771 42.8003 6.97865 40.3855C6.701 39.8071 6.53603 39.2313 6.40506 38.5828C6.15832 37.3612 6.06711 36.1083 6.00948 34.8659C4.04762 34.8218 1.95212 34.8218 0.0163572 34.7855C0.00849903 26.8822 0.016356 18.9788 0.0111173 11.0755C-0.096277 9.9991 0.582142 8.80336 1.71109 8.60364C2.861 8.29498 3.94809 9.02902 4.17859 10.1807C4.15245 14.6731 4.17859 19.259 4.17859 23.7463C4.70513 23.7463 5.45591 23.7463 5.97738 23.7463C6.00882 23.0122 5.97935 22.1978 6.01215 21.4637C6.05144 20.5844 6.21641 19.7155 6.35 18.8414C6.64599 18.0944 6.59884 17.254 6.96294 16.5277C7.18296 15.3371 7.75399 14.2633 8.17309 13.1376C8.5948 12.3491 9.03224 11.5684 9.48539 10.7954C11.5075 7.72434 14.2396 5.10979 17.4221 3.23447C17.7626 3.06587 18.1005 2.89468 18.4332 2.71052C18.8811 2.48486 19.3342 2.27217 19.7926 2.06467C20.2798 1.83901 20.788 1.65744 21.283 1.44215C22.0846 1.17759 22.8887 0.915612 23.7191 0.75739ZM29.314 5.04494C26.4642 5.9839 24.1879 8.16529 22.839 10.7876C22.2836 12.1208 21.9143 13.5371 21.875 14.9844C21.9379 16.2605 22.2732 17.5082 22.818 18.665C23.7217 20.1512 24.2168 20.8153 25.6575 21.7231C26.5966 22.3149 27.2291 22.7995 28.2768 23.1497C28.9055 23.3598 30.7802 23.4579 31.3283 23.4895C34.4324 23.6684 37.0517 23.4895 40.1556 24.1146C42.7218 24.6314 45.1927 26.1792 45.9785 28.7134C46.4369 29.9117 46.4133 31.219 46.4081 32.4822L46.4133 32.5977C46.4133 32.7844 46.4159 32.9872 46.4133 33.174V33.2759C46.4552 34.801 45.9733 36.2613 45.266 37.5997C44.5536 38.7047 43.6368 39.6722 42.5812 40.4633C42.2118 40.6838 41.8451 40.9068 41.4784 41.1299C41.0567 41.3374 40.6245 41.5216 40.1975 41.7213C39.2624 42.0326 38.2722 42.3645 37.3137 42.6032C35.5954 43.0312 34.1704 43.0779 32.3551 43.0779C30.7041 43.0779 28.8871 43.0934 27.2291 42.9923C25.571 42.8911 24.0151 42.8885 22.4068 42.4268C20.8561 42.2582 19.3421 41.8043 17.9329 41.1481C17.0292 40.7097 16.1805 40.1313 15.5257 39.3687C14.1767 37.8617 13.7209 35.8645 13.4406 33.9295C13.3699 31.704 13.4852 29.4734 13.3883 27.2505C13.2363 26.0236 11.5364 25.6242 10.7296 26.5242C10.4231 27.1286 10.169 27.7666 10.2581 28.4618C10.3786 31.7533 9.92282 35.1097 10.8029 38.3338C11.023 38.7592 11.2168 39.1975 11.429 39.6281C11.7931 40.1832 12.1991 40.7071 12.6155 41.2233C13.3254 41.8251 14.0221 42.4527 14.8341 42.917C15.8662 43.5681 17.0318 43.9416 18.1608 44.3877C18.6951 44.5148 19.2452 44.616 19.7507 44.8494C21.414 45.1244 23.059 45.4979 24.7511 45.5497C26.1184 45.8636 27.5381 45.7443 28.9316 45.7936C32.9759 45.9077 37.0307 45.6691 40.9965 44.8572C42.2223 44.4474 43.4875 44.1361 44.6557 43.5681C45.8318 42.9559 46.911 42.1648 47.7754 41.161C48.9698 39.7033 49.5697 37.8332 49.5644 35.9657C49.6797 35.6414 49.7294 35.3068 49.7163 34.9644C49.7085 31.0686 49.7059 27.1727 49.719 23.2768C49.7032 22.675 49.7269 20.9037 49.6247 20.2965C49.3628 18.7402 49.2265 18.512 48.8886 17.0542C48.645 16.468 48.4983 15.8507 48.2626 15.2619C46.5364 10.5023 42.1961 7.20558 37.6096 5.34323C36.5566 4.93341 35.4355 4.77519 34.3406 4.52878C32.6511 4.20715 30.9328 4.57806 29.314 5.04494Z" fill="#3A77B9"/>
</svg>
