<svg width="122" height="78" viewBox="0 0 122 78" fill="none" xmlns="http://www.w3.org/2000/svg">
<mask id="mask0" mask-type="alpha" maskUnits="userSpaceOnUse" x="0" y="0" width="122" height="78">
<rect width="122" height="78" fill="white"/>
</mask>
<g mask="url(#mask0)">
<path fill-rule="evenodd" clip-rule="evenodd" d="M74.0253 1.54126C74.4168 1.70898 75.0879 2.37986 75.9826 3.49801C76.7096 4.44843 79.0584 6.90835 81.1276 9.03282L84.9305 12.8345L88.23 12.9463C94.829 13.17 96.8982 13.5054 98.0726 14.4558C99.0792 15.2944 99.0792 15.2944 100.645 18.4812C100.869 18.9843 101.484 19.767 101.987 20.2702C102.491 20.7733 103.162 21.6679 103.553 22.3947C103.889 23.0655 104.895 24.9105 105.79 26.4759C107.356 29.2153 108.027 30.3894 109.09 32.4021C110.767 35.4769 105.79 36.651 102.882 33.8556C102.323 33.2966 102.323 33.2966 102.323 35.7565C102.323 38.6637 101.428 37.7691 108.586 42.074L111.774 43.9748L112.892 43.9189L114.011 43.863L114.123 44.6457C114.235 45.4284 114.458 45.708 115.521 46.267L116.08 46.5466V49.2301C116.08 51.5782 116.024 51.9137 115.744 52.0255C115.521 52.1373 94.3816 56.4422 89.6281 57.3367C88.957 57.4485 87.5589 57.728 86.6082 57.9517C84.4831 58.3989 83.6442 58.2312 79.1144 56.1626C78.7229 55.9949 76.2063 54.9886 68.4329 51.8019C65.6926 50.6837 63.1202 49.6774 62.7846 49.5097C62.0576 49.2301 61.6102 49.2301 60.6595 49.6774C60.1003 49.901 59.4851 50.1806 53.7249 52.5287C48.8036 54.5413 46.5108 55.4917 43.435 56.7776C39.5203 58.4548 39.9677 58.4548 31.6909 56.7776C28 55.9949 24.4208 55.324 23.8057 55.1563C17.7659 53.9822 8.70625 52.1373 8.3707 51.9696C7.97924 51.8019 7.97924 51.6901 7.97924 49.3979C7.97924 47.2734 7.92332 46.9379 7.53185 46.0434C7.14038 45.2048 7.08446 44.7576 7.08446 43.304C7.08446 41.2354 7.30815 41.459 4.95935 41.0677C3.22571 40.7881 2.61055 40.5645 2.83425 40.3409C2.89017 40.285 3.50534 40.3409 4.23235 40.5086C4.95935 40.6204 5.91006 40.7881 6.30152 40.8441L7.08446 40.9559V38.8873V36.8187L3.84088 33.5761C2.05131 31.7871 0.653217 30.2776 0.70914 30.2217C0.765064 30.1658 2.16316 31.4516 3.84088 33.0729C7.14038 36.3715 7.08446 36.3156 7.08446 35.3651C7.08446 34.5265 7.19631 34.4147 7.75555 34.6383C8.03517 34.7502 9.43326 35.0297 10.8873 35.3651C17.3744 36.651 17.0389 36.4274 17.0389 39.2227C17.0389 40.5086 17.0948 40.9 17.2626 40.8441C17.7659 40.6763 20.5062 38.9432 21.0095 38.5518C21.6806 37.9928 21.7924 37.4337 21.6806 35.2533L21.5687 33.4084L20.9536 33.9115C19.2199 35.3092 16.8152 35.7565 15.4171 34.862C14.019 34.0234 14.0749 33.7997 16.0882 30.1658C17.0389 28.5445 17.7659 27.1468 17.7659 27.0909C17.7659 26.6436 21.5128 20.4938 22.2957 19.767C22.9668 19.0961 23.3583 18.5371 23.8057 17.363C25.2038 14.0086 26.4341 13.2818 31.2995 13.0581C33.089 13.0022 35.6056 12.8345 36.8359 12.7786L39.0729 12.6668L42.5961 9.08873C44.5534 7.13198 46.5108 5.0075 46.9582 4.44843C50.1458 0.423108 49.6984 0.42311 56.633 3.94527C61.1628 6.23746 62.0017 6.57291 62.3931 6.46109C62.6728 6.40519 64.9656 5.23113 67.4822 3.94527C71.285 2.04442 72.795 1.31762 73.5779 1.09399C73.4101 1.26172 73.6898 1.37353 74.0253 1.54126ZM42.7639 9.25645C38.8492 13.2818 38.9051 13.2259 35.2701 14.6795C33.9838 15.1826 32.5857 15.7976 32.1383 15.9653C30.9639 16.4685 22.6872 23.5687 22.2957 24.4632C21.7365 25.5814 21.6806 40.1732 22.2398 40.6763C23.9175 42.3535 27.3289 39.8936 27.8881 36.5951C28.1677 35.0856 28.727 31.3957 29.0066 29.5508C29.2303 27.8736 29.3421 27.7058 31.9146 25.5814C33.7042 24.1278 35.8293 22.0592 36.3886 21.2765C36.5563 20.997 36.8919 20.5497 37.1156 20.3261C37.507 19.8229 37.9544 19.2079 39.2966 17.2512C39.744 16.5803 40.1914 16.0771 40.3032 16.0771C40.5269 16.0771 40.3032 16.4126 38.4018 19.0961C37.4511 20.4379 36.6122 21.612 36.5004 21.7797C36.3886 21.9474 36.053 22.4506 35.6615 22.9537C35.326 23.4569 34.7108 24.2955 34.3753 24.7987C34.0397 25.3577 33.7042 25.805 33.6483 25.8609C32.4739 26.979 31.8028 28.6004 31.3554 31.843C31.1317 33.1847 30.908 34.7502 30.7962 35.3092C30.6284 36.2596 30.181 39.1109 29.6218 42.9126C29.2862 45.2048 29.3981 45.6521 30.4047 45.8757C31.2995 46.0434 31.2995 46.0434 31.2995 42.0181C31.2995 39.9495 31.2995 38.2723 31.3554 38.2723C31.4113 38.2723 32.5857 38.4959 33.9838 38.7755C35.3819 39.055 36.5563 39.2786 36.6122 39.2227C36.7241 39.1109 37.0596 37.3778 37.4511 34.9738C37.7866 32.9611 37.3952 33.5202 41.2539 29.5508C42.4842 28.3208 43.7705 26.9231 44.162 26.4759C45.5601 24.9105 46.8463 24.4632 48.0207 25.1341C49.8662 26.2523 50.0899 27.3704 49.5307 32.0666C48.8596 37.6014 49.0833 38.3841 51.1524 38.9991C53.1098 39.5582 53.7809 38.9432 56.1856 34.1911C58.3666 29.8862 58.814 28.7122 59.0377 26.6436C59.1496 25.8609 59.3733 24.2396 59.541 23.0096C59.7647 21.7797 60.0443 19.7111 60.268 18.3693C60.4358 17.0276 60.7154 15.574 60.7714 15.1267C60.995 13.8409 61.778 14.344 52.2709 8.8651C50.5373 7.85877 48.5799 6.74063 47.9089 6.29337C47.2378 5.90202 46.6226 5.56657 46.5667 5.56657C46.4548 5.51067 44.7771 7.18789 42.7639 9.25645ZM73.6898 7.46742C71.9561 8.52966 69.5514 9.92734 68.377 10.5982C63.8472 13.2259 63.232 13.6172 63.0642 13.8968C62.8965 14.1763 63.0642 15.7417 63.9031 21.2206C64.0149 22.0033 64.2386 23.6246 64.4064 24.7987C64.9656 28.8799 65.0775 29.2153 67.3704 33.7438C69.9988 39.055 70.6699 39.67 72.795 38.8873C74.6405 38.1605 74.9201 36.7069 74.249 32.0107C73.5779 27.594 73.9694 25.9727 75.8708 25.0223C77.213 24.3514 77.7163 24.575 80.9039 27.8736C84.9864 32.0666 85.8811 32.9611 85.9371 33.3525C86.1608 34.3588 86.6082 37.0424 87.0555 39.5582C87.7266 43.5276 88.1181 44.2544 89.4603 43.9189C90.6347 43.6394 90.6906 43.6394 90.6906 44.478C90.6906 45.6521 90.8584 45.7639 92.3683 45.7639C93.9901 45.7639 94.4934 45.4284 94.3816 44.4221C93.9901 41.6267 93.7105 39.3905 93.5427 38.5518C93.3749 37.6014 93.2072 36.5951 92.592 32.0666C92.2006 29.439 91.8091 28.1531 90.9143 26.8672C89.5721 24.9105 89.0129 24.0719 87.8385 22.3947C87.1674 21.4442 86.5522 20.6056 86.4404 20.4379C86.0489 19.8788 84.483 17.6425 83.9797 16.9157C83.4205 16.133 83.3646 15.9653 83.5883 15.9653C83.6442 15.9653 84.1475 16.5244 84.5949 17.2512C87.8385 22.0592 88.4537 22.7301 91.9209 25.6373C93.3749 26.8672 94.4934 27.9295 94.5494 28.0972C94.6612 28.6563 94.9408 30.5012 95.2764 32.6816C95.4441 33.6879 95.6119 34.9179 95.7237 35.3651C95.8356 35.8124 95.9474 36.5392 96.0034 37.0424C96.283 39.3346 98.1844 41.0677 100.477 41.0677C101.987 41.0677 102.043 40.9 101.875 31.9548C101.764 23.7923 101.875 24.4073 99.5825 22.3947C98.6877 21.612 97.6252 20.7174 97.1778 20.3261C96.7304 19.9347 95.8915 19.2079 95.2764 18.7048C94.7171 18.2016 94.102 17.7544 94.046 17.6425C93.4309 16.9717 92.0887 16.133 90.9143 15.6299C88.23 14.5676 85.8252 13.5054 85.1541 13.17C84.7627 12.9463 82.9731 11.2691 80.9039 9.14463C78.9466 7.13197 77.2689 5.51066 77.157 5.51066C76.9333 5.56657 75.4234 6.40518 73.6898 7.46742ZM61.4984 13.3377C61.2747 13.7849 61.1069 14.6795 60.268 20.4938C59.8766 23.2333 59.2614 27.035 59.0377 28.209C58.814 29.439 58.4225 30.3894 56.4652 34.247C54.7316 37.6573 54.6757 37.881 55.5145 37.881C55.6823 37.881 57.0245 38.1046 58.4226 38.44C59.8766 38.7196 61.3865 38.9991 61.8339 38.9991C62.6728 38.9991 67.8737 38.0487 68.5448 37.7692C68.8803 37.6014 68.8244 37.4337 66.8111 33.3525C64.4623 28.6563 64.7979 29.6626 63.9031 23.5128C63.6794 22.0033 63.0083 17.4748 62.5609 14.7354C62.3372 13.114 61.8339 12.555 61.4984 13.3377ZM34.2075 13.3936C25.6512 13.9527 25.7071 13.8967 23.9735 17.5307C23.582 18.3693 23.2464 19.152 23.3024 19.152C23.3583 19.2079 25.8749 18.2575 26.8815 17.8103C28 17.3071 29.7895 16.5803 29.9573 16.5803C30.0692 16.5803 30.3488 16.4685 30.6284 16.3008C31.5232 15.8535 36.7241 13.729 36.8919 13.729C36.9478 13.729 37.2274 13.6172 37.3952 13.4495C37.7867 13.17 37.7307 13.17 34.2075 13.3936ZM86.2726 13.4495C86.4404 13.6172 86.6641 13.729 86.7759 13.729C86.8878 13.729 87.5029 13.9527 88.23 14.2881C90.2991 15.1826 90.5228 15.2385 91.8091 15.7976C92.4802 16.0771 93.1513 16.3567 93.2072 16.4685C93.319 16.5244 93.4868 16.6362 93.5986 16.6362C93.8223 16.6362 94.773 17.0276 96.7304 17.8662C96.9541 17.978 97.6252 18.2575 98.2403 18.4812C98.8555 18.7607 99.6384 19.0402 99.8621 19.2079C100.533 19.5434 100.477 19.4316 99.5266 17.4189C98.6877 15.6299 98.0166 14.8472 96.9541 14.2881C95.7238 13.5613 85.4897 12.7786 86.2726 13.4495ZM7.69962 17.0835C11.3347 17.8103 12.5091 18.1457 12.7328 18.4252C12.9005 18.6489 12.9565 19.9347 12.9565 23.401C12.9565 28.5444 12.9005 28.9358 11.9498 29.4949C11.6702 29.6626 10.7754 30.2217 9.88065 30.7807C7.86739 32.0666 8.09109 32.1225 5.57451 29.7185C2.7224 26.979 3.00202 27.7617 3.00202 21.7238C3.00202 15.4622 2.83425 15.9653 4.45604 16.3567C5.18305 16.5803 6.63707 16.8598 7.69962 17.0835ZM3.72903 17.1394C3.56126 17.3071 3.50533 18.6489 3.50533 22.0033V26.6995L4.17642 27.4822C7.75554 31.5075 7.69962 31.5075 10.1043 30.1099C12.3972 28.7122 12.2295 29.2153 12.2295 23.7923C12.2295 18.2575 12.4531 18.8166 9.65696 18.2016C6.52522 17.5307 4.51196 17.1394 4.23235 17.0276C4.06457 16.9717 3.84088 17.0276 3.72903 17.1394ZM29.2862 17.0835C29.1185 17.1953 28.5592 17.4189 27.944 17.6984C27.3848 17.9221 26.0426 18.4811 24.9801 18.9284C23.9175 19.3757 23.0228 19.767 22.9109 19.767C22.1839 19.767 20.5621 22.2269 16.5915 29.5508C16.3119 30.1098 15.7527 31.0603 15.4171 31.6753C14.2427 33.7438 14.2427 34.1352 15.6408 34.6942C17.6541 35.5329 19.891 34.7502 21.1773 32.8493C21.6247 32.1784 21.6247 32.1225 21.6247 28.6004C21.6247 24.1278 21.4569 24.5191 25.2597 21.1647C29.9573 17.0835 30.0692 16.9716 29.7895 16.9716C29.6777 16.9157 29.454 17.0276 29.2862 17.0835ZM93.6546 17.0276C93.6546 17.0835 94.046 17.4748 94.5494 17.8662C95.0527 18.2575 95.8915 18.9843 96.4508 19.4875C97.01 19.9906 97.9607 20.8293 98.5759 21.3324C102.043 24.2955 101.931 24.0719 101.931 28.4885C101.931 32.1784 102.043 32.7375 103.05 33.632C105.51 35.8683 109.928 35.0297 108.642 32.5698C108.363 32.0107 107.971 31.3398 105.399 26.7554C104.28 24.7987 103.106 22.6742 102.77 22.0033C101.931 20.4379 101.316 19.9906 98.6877 18.9284C97.4574 18.4811 96.1711 17.9221 95.7797 17.7544C93.9901 16.9157 93.6546 16.8598 93.6546 17.0276ZM6.58115 20.2702C6.69299 20.2702 7.30815 21.4442 7.53185 22.171C7.69962 22.786 7.92332 22.6742 8.25886 21.7797C8.65033 20.7174 8.8181 20.6056 9.82473 20.8852L10.6636 21.0529L9.93657 22.2828C9.15364 23.6246 9.15364 23.7923 9.93657 23.7923C10.384 23.7923 10.4399 23.8482 10.4399 24.3514C10.4399 24.7987 10.384 24.8546 10.1043 24.7987C8.92995 24.4632 8.5944 24.4632 8.65033 24.7987C8.70625 25.0223 8.92995 25.19 9.54511 25.3018C10.328 25.4696 10.384 25.4696 10.384 25.9727C10.384 26.3641 10.328 26.4759 10.0484 26.42C8.76217 26.0286 8.5944 26.0845 8.53848 26.6995C8.42663 27.6499 6.80484 27.4263 6.80484 26.42C6.80484 25.8609 6.74892 25.805 5.91006 25.5814C5.12713 25.4137 5.01528 25.3018 5.01528 24.9105C5.01528 24.4632 5.01528 24.4632 5.91006 24.575C6.86077 24.6869 7.25223 24.2396 6.35745 24.0719C6.13375 24.016 5.68636 23.9601 5.46267 23.9042C5.12712 23.8482 5.01528 23.6805 5.01528 23.3451C5.01528 22.8978 5.0712 22.8978 5.57451 23.0096C6.2456 23.1214 6.2456 23.0096 5.51859 21.4442C4.8475 19.9906 4.8475 19.9347 5.74229 20.1025C6.13375 20.2143 6.52522 20.2702 6.58115 20.2702ZM33.4246 24.6868C32.9213 25.1341 32.6417 25.9727 32.9772 25.9727C33.145 25.9727 34.1516 24.4073 34.0398 24.2955C34.0398 24.2396 33.7042 24.4073 33.4246 24.6868ZM89.5721 24.5191C89.5721 24.575 89.7399 24.7987 89.9077 24.9664C90.0754 25.1341 90.2991 25.4136 90.3551 25.6373C90.5228 26.0845 90.8025 26.0845 90.8025 25.5814C90.8025 25.3577 90.5788 25.0223 90.3551 24.7987C89.9077 24.3514 89.5721 24.2396 89.5721 24.5191ZM117.981 26.6995C118.037 29.3272 118.149 29.1594 115.8 29.7744C113.34 30.4453 113.508 30.613 113.563 27.7617L113.619 25.3018L114.402 25.0782C115.577 24.7428 117.478 24.3514 117.702 24.4073C117.87 24.4632 117.981 25.4136 117.981 26.6995ZM115.465 25.2459L114.067 25.5255L114.011 27.6499L113.955 29.7744L114.906 29.6626C115.409 29.6067 116.248 29.439 116.695 29.2712L117.534 28.9917V26.9791C117.478 24.6309 117.702 24.7987 115.465 25.2459ZM45.7278 25.4136C44.7212 26.0286 37.8426 33.3525 37.8426 33.7997C37.8426 34.1352 38.3459 34.4147 39.3525 34.5824C41.4217 34.9738 46.1752 35.9242 47.3496 36.2037C48.6918 36.5392 48.6359 36.5951 48.9714 33.7997C49.1392 32.458 49.307 30.6689 49.4188 29.8303C49.8103 26.42 47.8529 24.1278 45.7278 25.4136ZM75.9826 25.3577C74.7523 25.9168 74.0253 27.3704 74.1931 28.9917C74.5286 32.1784 75.0319 36.2597 75.1997 36.3715C75.3115 36.4833 75.5912 36.4274 75.9267 36.3156C76.2623 36.2037 76.9333 36.036 77.4926 35.9242C81.2954 35.1974 85.3778 34.3029 85.6015 34.1352C86.1049 33.6879 86.1608 33.7438 80.2328 27.594C77.7163 25.0223 77.213 24.7428 75.9826 25.3577ZM31.0758 26.6436C29.7895 27.7058 29.3981 28.4885 29.1744 30.4453C28.8948 32.4021 28.8948 32.4021 30.0132 31.8989C31.0199 31.4516 31.0199 31.3398 31.2436 29.8862C31.3554 28.9917 31.5791 28.3767 32.418 26.9231C33.089 25.6373 32.418 25.5255 31.0758 26.6436ZM91.138 25.9168C90.9143 26.1404 91.0261 26.4759 91.6413 27.4822C92.0328 28.0972 92.3124 28.9358 92.4802 29.6626C92.8157 31.4516 92.8157 31.4516 93.7664 31.8989C94.2697 32.1225 94.7171 32.2902 94.7171 32.2902C94.829 32.1784 94.2138 28.3208 94.046 27.9854C93.4868 27.2027 91.3617 25.6932 91.138 25.9168ZM116.975 25.9727C117.31 26.1964 116.919 26.4759 116.416 26.4759C116.248 26.4759 116.08 26.5318 116.08 26.6436C116.08 26.7554 116.248 26.8113 116.416 26.8113C116.975 26.8113 117.422 27.4263 117.143 27.8736C116.807 28.4885 115.968 28.9917 115.409 28.8799C114.402 28.6563 114.179 27.9854 115.185 28.1531C115.912 28.3208 115.856 27.7617 115.185 27.5381C114.794 27.4263 114.626 27.2586 114.626 26.9231C114.682 26.1404 116.248 25.5255 116.975 25.9727ZM116.08 27.8177C116.08 27.9854 116.136 28.0972 116.248 28.0972C116.36 28.0972 116.416 27.9854 116.416 27.8177C116.416 27.6499 116.36 27.5381 116.248 27.5381C116.136 27.594 116.08 27.7058 116.08 27.8177ZM29.8455 32.3461C28.9507 32.6816 28.7829 32.8493 28.7829 33.4084C28.7829 33.9115 28.7829 33.9115 29.6218 33.4084C30.2929 33.017 30.908 32.4021 30.908 32.1225C30.908 31.9548 30.7962 32.0107 29.8455 32.3461ZM92.9276 32.4021C93.0394 32.9052 95.1086 34.1911 95.1086 33.7438C95.1086 33.2966 94.6612 32.6816 94.1579 32.5139C92.9276 32.0107 92.8157 31.9548 92.9276 32.4021ZM120.889 32.6816C120.778 32.8493 119.883 33.8556 118.82 34.862C117.758 35.8683 116.975 36.5951 117.087 36.4833C117.199 36.2597 120.945 32.4021 121.057 32.4021C121.057 32.4021 121.001 32.5139 120.889 32.6816ZM29.6777 33.7438C28.5033 34.5824 28.5033 34.6383 28.3355 35.9801C28.2796 36.7069 28.1678 37.3778 28.1678 37.4337C28.1678 37.5455 28.5592 37.7132 29.0066 37.8251L29.8455 38.0487L30.0132 37.3778C30.181 36.7069 30.5725 34.1911 30.5725 33.632C30.5725 33.1847 30.4047 33.1848 29.6777 33.7438ZM93.1513 34.3029C93.2072 34.862 93.3749 35.9242 93.5427 36.651L93.7664 37.9369L94.5494 37.8251C94.9967 37.7691 95.3882 37.6573 95.4441 37.6573C95.556 37.6014 95.3882 35.9801 95.1645 34.8061C95.1086 34.5265 93.4309 33.2966 93.0953 33.2966C93.0394 33.2407 93.0953 33.7438 93.1513 34.3029ZM37.8985 34.9179C37.6189 35.2533 37.1156 38.7755 37.2833 39.1668C37.507 39.6141 39.0729 39.8377 39.7999 39.6141C40.2473 39.4464 44.7771 36.7628 45.2804 36.3715C45.4482 36.2038 43.8264 35.8124 39.7999 35.0856C39.2407 34.9738 38.6814 34.862 38.4577 34.8061C38.29 34.7502 38.0103 34.8061 37.8985 34.9179ZM84.9305 34.7502C84.8745 34.8061 84.0357 34.9738 82.9731 35.1974C78.7788 35.9801 78.1637 36.1478 78.3874 36.3156C78.611 36.5392 83.5324 39.4464 83.9238 39.67C84.6508 40.0054 86.5522 39.5582 86.5522 39.055C86.5522 36.9305 85.4897 34.1911 84.9305 34.7502ZM7.6437 35.5888C7.42 35.8124 7.36408 44.6457 7.58778 45.2048C7.81147 45.8198 11.5584 49.6215 11.9498 49.6215C12.2854 49.6215 15.473 47.8325 15.9204 47.3852C16.256 47.0498 16.3119 37.4896 15.9763 37.266C15.8086 37.1542 14.0749 36.7628 10.1043 35.9242C9.15364 35.7006 8.31479 35.5329 8.14701 35.4769C7.97924 35.421 7.75555 35.477 7.6437 35.5888ZM43.2672 38.0487C41.8132 38.9432 40.5269 39.67 40.471 39.67C40.1355 39.67 40.3591 40.0613 40.7506 40.2291C41.198 40.3968 41.198 40.4527 41.0862 41.4031C40.9184 42.5772 41.0302 42.5772 42.2046 41.7386C43.379 40.9559 44.3857 40.7881 45.6719 41.1795C46.2311 41.3472 46.7904 41.459 46.9582 41.459C47.2378 41.459 50.2017 39.8936 50.5373 39.5582C50.5932 39.5023 50.2577 39.1668 49.8662 38.7755C49.4747 38.3841 49.0273 37.8251 48.8596 37.5455C48.524 36.8746 48.1326 36.651 46.8463 36.5392L45.8397 36.4274L43.2672 38.0487ZM76.3182 36.651C75.6471 36.7628 75.0319 36.8746 75.0319 36.9864C74.8642 37.4896 73.8575 38.7755 73.5779 38.8873C72.7391 39.1668 72.795 39.4464 73.8575 40.1173C76.1504 41.5149 76.2622 41.5708 77.9959 41.1795C79.7295 40.844 79.9532 40.9 81.2395 41.6827C85.266 44.2544 86.0489 44.6457 86.5522 44.478L87.1115 44.3103L85.8812 43.5276C82.7494 41.5149 82.4698 41.3472 82.4139 40.8441C82.358 40.4527 82.4698 40.3409 82.8053 40.2291C83.085 40.1732 83.2527 40.0054 83.1968 39.9495C83.1409 39.7818 77.7163 36.4274 77.5485 36.4833C77.6044 36.4833 77.0452 36.5951 76.3182 36.651ZM11.9498 38.3841C12.0058 38.5518 12.3972 38.8873 12.8446 39.1668C14.0749 39.8936 14.746 41.2354 13.8512 41.1236C12.9005 41.0118 12.6209 40.9 12.5091 40.5645C12.3413 40.0054 11.8939 40.1172 11.8939 40.7322C11.8939 41.2913 12.2295 41.6827 13.2361 42.3535C15.3053 43.7512 14.8579 46.7143 12.6209 46.5466C12.0617 46.4907 11.9498 46.5466 11.9498 46.882C11.8939 47.4411 11.5024 47.2734 11.3906 46.6584C11.3347 46.323 11.111 46.0434 10.4958 45.6521C9.60103 45.093 8.98587 44.3103 8.76218 43.4717C8.65033 42.9126 8.53848 42.9685 9.9925 43.2481C10.328 43.304 10.5517 43.5276 10.7754 43.9748C11.1669 44.8135 11.3906 44.7576 11.3906 43.7512C11.3906 42.9685 11.3347 42.8567 10.6077 42.4094C8.42663 41.0677 8.42663 38.3282 10.6077 38.3282C11.055 38.3282 11.4465 38.2723 11.4465 38.1605C11.3347 37.9369 11.838 38.0487 11.9498 38.3841ZM55.2908 39.2227C54.3401 39.5582 53.3894 39.8936 53.0539 40.0054C52.7183 40.1173 52.1591 40.1732 51.5998 40.1173C50.7051 40.0054 50.5932 40.0613 49.4188 40.7322C48.2444 41.459 47.9089 41.7945 48.4122 41.7945C48.8036 41.7945 48.9155 42.4654 48.6359 42.8008C48.3563 43.1362 46.1193 44.5898 43.8823 45.8757C41.3098 47.3293 41.0302 47.6647 41.0302 49.5097C41.0302 50.9074 40.9743 51.0192 39.5762 51.9137C38.8492 52.3609 38.6255 52.7523 39.0729 52.7523C39.1288 52.7523 40.8625 51.746 42.9316 50.516C45.0008 49.286 46.9022 48.112 47.1819 47.9443C47.4615 47.7765 48.9714 46.882 50.4814 45.9316C53.9486 43.8071 53.7809 43.9189 57.8074 41.459C59.6529 40.3409 61.1628 39.3905 61.1628 39.3345C61.1628 39.2227 60.8273 39.1109 58.7581 38.7196C56.9685 38.5518 57.2482 38.4959 55.2908 39.2227ZM64.7979 38.8873C64.1827 39.055 63.4557 39.2227 63.1761 39.2786C62.3931 39.4464 62.4491 39.5023 63.7353 40.285C64.3505 40.6204 66.0841 41.6827 67.5941 42.6331C69.104 43.5835 71.0613 44.7575 71.9561 45.2607C72.8509 45.7639 75.2556 47.2175 77.2689 48.5033C83.1968 52.1373 84.1475 52.6964 84.7067 52.6964C85.266 52.6964 85.3219 52.5287 84.8186 52.0814C84.4831 51.8019 84.4831 51.5782 84.4831 50.516C84.4831 49.8451 84.4831 49.1742 84.4831 49.0624C84.4831 48.9506 82.4698 47.6088 79.9532 46.0993C74.7523 42.9126 74.6405 42.8008 75.0879 42.0181C75.2556 41.7386 75.3675 41.459 75.3675 41.459C75.3675 41.459 74.8642 41.1795 74.3608 40.7881C73.522 40.2291 73.1864 40.1732 71.7883 40.0613C70.6139 40.0054 69.831 39.8377 68.8244 39.3905C67.0907 38.6637 66.14 38.5519 64.7979 38.8873ZM20.674 39.1668C20.3384 39.3905 19.5555 39.8936 18.9403 40.285C16.8152 41.5708 16.8711 41.459 16.8711 43.0803C16.8711 44.5898 16.9271 44.7016 17.71 44.1426C17.9896 43.9749 19.0522 43.304 20.0588 42.689C21.0654 42.074 22.0161 41.5149 22.072 41.459C22.1839 41.4031 22.128 41.2354 21.9602 41.0118C21.7924 40.844 21.6247 40.285 21.5687 39.7818C21.401 38.6637 21.401 38.6637 20.674 39.1668ZM102.323 38.9991C101.931 40.0613 101.708 41.3472 101.875 41.5149C102.043 41.6827 103.106 42.3535 104.895 43.4158C108.978 45.8198 109.481 46.4348 107.971 47.0497L107.132 47.3852L107.747 47.7206C108.307 48.0002 108.418 48.0002 109.034 47.7765L109.705 47.497V46.267C109.705 44.9812 109.984 44.478 110.823 44.478C111.662 44.478 110.823 43.863 107.356 41.7945C105.287 40.5645 103.329 39.3905 102.994 39.1668C102.546 38.8873 102.379 38.8314 102.323 38.9991ZM31.9146 39.055C31.8587 39.1109 31.8028 41.4031 31.8028 44.0308V48.8947L33.3687 50.516C36.3326 53.6468 35.8852 53.4791 38.1781 52.1373C40.5828 50.6837 40.3591 51.3546 40.3591 45.7639V40.9L39.9677 40.7322C39.744 40.6204 38.0663 40.2291 36.1649 39.8377C34.3194 39.4464 32.6417 39.055 32.418 38.9991C32.1943 38.9991 31.9706 38.9991 31.9146 39.055ZM10.8314 39.9495C10.6636 40.1172 10.6636 40.285 10.8314 40.5645C11.111 41.0677 11.3906 41.0118 11.3906 40.3968C11.3347 39.7818 11.111 39.5582 10.8314 39.9495ZM121.057 40.6204C121.057 40.844 115.968 41.7945 115.8 41.5708C115.577 41.3472 115.856 41.2913 118.261 40.8441C121.225 40.3409 121.057 40.3409 121.057 40.6204ZM37.1156 42.1299C38.4018 42.8008 38.8492 44.0308 37.8426 43.9748C36.8919 43.9189 36.8919 43.9189 36.6682 43.5276C36.4445 43.0244 35.7734 42.9126 35.6056 43.304C35.3819 43.9189 35.8293 44.7576 36.5563 44.9253C37.563 45.1489 37.6748 46.1552 36.7241 45.9875C36.1649 45.8757 35.3819 46.7143 35.7734 46.9938C35.9412 47.1057 37.6189 47.6088 37.9544 47.6088C38.4577 47.6088 39.0729 48.8388 38.7374 49.0624C38.4018 49.286 37.3393 49.1183 36.1089 48.5592C35.326 48.2238 34.8786 48.112 34.4871 48.1679C33.5924 48.3356 33.2009 47.2734 33.8161 46.4907C34.4312 45.7639 34.3753 45.4843 33.7601 45.2607C33.145 45.0371 33.0331 44.2544 33.6483 44.3103C33.9279 44.3103 33.9279 44.2544 33.872 43.5276C33.5924 41.9063 35.2701 41.1795 37.1156 42.1299ZM26.8815 43.5276C25.8189 44.1985 24.7005 44.8694 24.4768 44.9812C24.2531 45.1489 23.2464 45.7639 22.3517 46.3229C20.1706 47.7206 19.6114 47.8884 18.3251 47.6088C17.5981 47.4411 17.2626 47.4411 16.9271 47.6088C16.3678 47.8884 16.3678 48.112 16.983 48.2238C17.2626 48.2797 18.4929 48.5592 19.7792 48.7829C22.6872 49.3979 23.6938 49.5097 24.0294 49.2301C24.3649 48.9506 24.2531 48.7829 23.582 48.6152C22.2398 48.3356 22.855 47.497 25.8189 45.708C28.6151 43.9748 29.1185 43.5835 29.1185 42.8567C29.1185 42.1858 29.1744 42.1299 26.8815 43.5276ZM94.4375 42.6331C94.4934 42.8008 94.5494 43.0803 94.5494 43.3599C94.5494 43.6953 94.773 43.9189 95.5001 44.3103C100.365 47.1616 101.596 48.3356 99.918 48.6711C99.6384 48.727 99.4147 48.8947 99.4147 49.0065C99.5266 49.3979 100.254 49.6215 100.925 49.4538C103.777 48.8388 106.293 48.3356 106.685 48.2797C107.244 48.1679 107.3 47.9443 106.797 47.6647C106.517 47.497 106.126 47.497 105.119 47.6647C103.609 47.9443 104.168 48.1679 98.7436 44.8135C94.6612 42.2976 94.2697 42.074 94.4375 42.6331ZM11.8939 44.1985C11.8939 44.8694 12.2854 45.2048 12.6768 44.8694C12.9565 44.5898 12.6209 43.6953 12.2295 43.6394C11.9498 43.5835 11.8939 43.6953 11.8939 44.1985ZM88.6214 44.5339C86.1049 45.093 85.1541 45.3166 84.9864 45.4284C84.8186 45.5403 84.8186 46.323 84.8745 48.6152C84.9864 52.0814 84.9305 51.8578 86.72 52.8641L87.6148 53.3673L88.957 51.9696L90.2991 50.5719V47.4411C90.2991 43.863 90.4669 44.1426 88.6214 44.5339ZM112.165 44.478C111.718 44.5339 111.047 44.7016 110.711 44.8135L110.04 44.9812L109.984 46.3789C109.928 49.0065 109.984 49.286 110.879 49.8451C111.718 50.4042 111.998 50.3483 112.948 49.1183C113.675 48.2238 113.675 48.2238 113.563 45.5403C113.563 44.1426 113.675 44.1985 112.165 44.478ZM112.948 45.708C113.172 45.9316 113.06 46.0434 112.557 46.0993C111.886 46.2111 111.942 46.3789 112.613 46.6584C113.731 47.1057 112.669 48.8388 111.382 48.6152C110.488 48.4474 110.264 48.1679 110.767 47.9443C111.047 47.7765 111.271 47.7765 111.382 47.8884C111.55 48.0002 111.606 48.0002 111.606 47.7206C111.606 47.497 111.494 47.3293 111.271 47.3293C111.103 47.3293 110.823 47.2175 110.711 47.0497C110.04 46.2111 112.165 44.9253 112.948 45.708ZM89.5162 46.2111C90.0195 46.4907 89.5721 47.3293 88.901 47.3293C88.2299 47.3293 87.6148 47.6088 87.6148 47.8884C87.6148 48.0002 87.8385 48.0561 88.174 47.9443C88.4536 47.8884 88.7333 47.8884 88.7333 48.0002C88.7333 48.2797 88.3418 48.5592 88.0063 48.5592C87.8385 48.5592 87.6148 48.6711 87.5589 48.7829C87.447 48.9506 87.6148 48.9506 88.1181 48.8388C88.6774 48.727 88.7892 48.727 88.7333 49.0624C88.6773 49.286 88.5096 49.3979 88.174 49.4538C87.8944 49.5097 87.7266 49.6215 87.7266 49.7333C87.8385 50.0687 88.6774 50.0687 89.1247 49.7892C89.684 49.3979 89.7958 49.4538 89.7958 50.0687C89.7958 50.7396 89.0129 51.131 87.7826 51.131C86.8319 51.131 85.2101 49.8451 85.7693 49.5097C86.1608 49.286 86.1608 49.0065 85.7693 49.0065C85.4897 49.0065 85.4897 48.9506 85.8252 48.6152C85.993 48.3915 86.2726 48.0002 86.4404 47.7206C86.8878 46.6584 88.8451 45.7639 89.5162 46.2111ZM113.955 46.3229C113.955 46.7143 114.235 46.8261 114.682 46.6025L115.073 46.4348L114.682 46.2111C114.179 45.9875 113.955 45.9875 113.955 46.3229ZM90.6347 46.882C90.6347 47.3293 90.8025 47.5529 91.6413 48.0561C93.4868 49.2301 93.5427 50.2924 91.7532 50.2924C91.1939 50.2924 91.1939 50.5719 91.7532 50.8514C92.0887 51.0192 92.4802 51.0192 93.3749 50.8514C95.3323 50.516 98.9673 49.7333 99.0792 49.6215C99.3588 49.3419 98.464 49.0065 97.737 49.1183C95.3882 49.5097 95.6119 49.5656 93.2072 48.0561C90.7465 46.4907 90.6347 46.4348 90.6347 46.882ZM114.458 47.1057C114.179 47.1616 114.011 47.3852 113.955 47.6088C113.899 48.112 114.123 48.112 114.738 47.5529C115.409 46.9939 115.353 46.882 114.458 47.1057ZM29.5099 48.6711C28.1118 49.5097 27.8322 49.5656 25.763 49.1742C25.1479 49.0624 24.309 49.4538 24.5327 49.6774C25.036 50.1806 31.5791 51.131 32.0824 50.7396C32.4739 50.4601 32.418 50.4042 31.4673 50.2365C30.5725 50.0128 30.4606 49.8451 30.7402 49.2301C31.3554 47.6088 31.2436 47.5529 29.5099 48.6711ZM108.81 48.1679C108.083 48.2238 108.083 48.4474 108.81 48.8947C109.593 49.3979 109.649 49.3419 109.649 48.727C109.705 48.112 109.593 48.0561 108.81 48.1679ZM16.1441 48.6711C16.1441 48.727 16.9271 49.5656 17.8218 50.516L19.4995 52.2491L20.4503 51.746C23.7498 49.9569 23.7498 50.0128 21.345 49.5656C20.618 49.4538 19.2199 49.1742 18.2692 48.9506C16.4797 48.5592 16.1441 48.5033 16.1441 48.6711ZM103.721 49.2301C100.03 49.9569 100.086 49.9569 102.323 51.1869C104.392 52.3609 104.056 52.4727 107.076 49.1183C107.747 48.3915 107.803 48.3915 103.721 49.2301ZM25.763 51.9137C27.9441 53.9822 27.6644 53.9263 29.5099 52.7523C31.4673 51.4664 31.5232 51.5782 28.4474 50.9633C27.7204 50.7955 26.546 50.5719 25.8749 50.4601C23.6938 49.9569 23.6938 50.0128 25.763 51.9137ZM97.737 50.4601C96.7304 50.6837 94.6612 51.131 93.2631 51.3546C92.4242 51.5223 92.5361 51.6901 94.102 52.6964C96.0034 53.9263 95.7238 53.9822 97.7929 52.0814C100.03 50.0128 100.03 49.9569 97.737 50.4601ZM90.1873 51.2428L89.8517 51.6341L90.5228 51.5223C91.3058 51.4105 91.4176 51.2987 91.2498 51.0751C91.0821 50.7396 90.5788 50.8514 90.1873 51.2428ZM33.3127 53.2555C35.7734 55.6036 35.4378 55.4917 37.2274 54.3736C38.0663 53.8704 38.7933 53.3114 38.8492 53.1995C38.961 52.8082 37.9544 52.9759 37.2274 53.4232C36.2208 54.0382 35.8852 53.9823 35.1023 53.1436C34.2634 52.305 33.2009 51.746 32.362 51.746H31.7469L33.3127 53.2555ZM90.5788 51.9137C89.7399 52.1373 89.0129 52.5287 88.3977 53.2555C87.7266 53.9823 87.6148 54.0382 86.6641 53.4232C85.9371 52.9759 84.8186 52.8082 84.8186 53.1436C84.8186 53.3114 86.6641 54.5972 87.6148 55.1004C88.1181 55.3799 88.174 55.324 90.1314 53.4791C92.0328 51.6341 92.0887 51.5223 90.5788 51.9137ZM34.3753 64.6046C33.9279 64.8283 33.9279 75.842 34.3753 76.0097C35.0464 76.2892 34.3194 76.457 32.7535 76.457C31.0758 76.457 30.5725 76.2892 31.2436 75.8979C31.5791 75.7301 31.5791 75.5625 31.5791 71.8726C31.5791 67.9591 31.5232 67.6236 31.0199 68.6299C30.6843 69.2449 29.5099 71.4812 28.2237 73.8293C27.7763 74.612 27.3289 75.4506 27.1611 75.7302C26.8256 76.3451 26.7697 76.2893 25.4834 73.8852C24.9242 72.8789 24.1412 71.3694 23.7498 70.5867C23.3583 69.804 22.855 68.8536 22.6313 68.5181C22.4635 68.1268 22.2398 67.8472 22.1839 67.8472C22.128 67.8472 22.128 69.6363 22.128 71.8726C22.128 75.2829 22.1839 75.8979 22.4076 75.8979C22.5754 75.8979 22.6872 76.0097 22.6872 76.1774C22.6872 76.401 22.4076 76.457 21.1213 76.457C19.4995 76.457 19.1081 76.3451 19.6114 75.8979C20.0588 75.5624 20.0029 64.7723 19.5555 64.5487C19.3318 64.4369 19.8351 64.381 21.401 64.381C23.4142 64.381 23.582 64.381 23.4142 64.6605C23.2465 64.9401 23.6379 65.7787 26.4341 70.8103L26.9374 71.6489L28.6711 68.5741C29.7336 66.7291 30.4047 65.2755 30.4606 64.996V64.4369L32.0824 64.3251C33.9838 64.2692 34.8227 64.3251 34.3753 64.6046ZM52.4946 66.0023C52.5505 66.1141 54.3401 66.17 57.2481 66.17C59.8206 66.17 62.0017 66.2259 62.1694 66.3378C62.3372 66.4496 61.6102 67.5118 59.2055 70.5308C57.4159 72.7112 55.9619 74.612 55.9619 74.6679C55.9619 74.8357 61.6102 74.7797 61.7221 74.612C62.0017 74.1648 62.1694 74.5002 62.1694 75.5625V76.6806L57.2481 76.6247C51.8235 76.5688 51.7117 76.5688 52.4946 75.5625C53.8927 73.8293 58.2548 68.1827 58.2548 68.1268C58.2548 67.9031 52.7742 68.0709 52.4946 68.2945C52.1032 68.6859 51.9913 68.4622 51.9913 67.1205C52.0472 65.8905 52.215 65.4991 52.4946 66.0023ZM91.6972 66.0023C91.6972 66.1141 93.3749 66.17 96.3389 66.17C99.3029 66.17 100.981 66.1141 100.981 66.0023C100.981 65.8905 101.037 65.8346 101.148 65.8346C101.26 65.8346 101.316 66.3937 101.316 67.0645C101.316 68.1827 101.148 68.574 100.869 68.1268C100.813 68.015 100.03 67.9591 99.0792 67.9591H97.4015V71.9285C97.4015 75.3947 97.4574 75.8979 97.6811 76.0097C98.2962 76.2333 97.6252 76.457 96.3389 76.457C95.2204 76.457 94.9408 76.401 94.9408 76.1774C94.9408 76.0097 94.9967 75.8979 95.1086 75.8979C95.2204 75.8979 95.2764 74.4443 95.2764 71.8726V67.9032H93.5986C92.6479 67.9032 91.865 67.959 91.8091 68.0709C91.5295 68.5181 91.3617 68.1268 91.3617 67.0086C91.3617 66.2818 91.4176 65.7787 91.5295 65.7787C91.6413 65.7787 91.6972 65.8905 91.6972 66.0023ZM46.0634 66.5055C51.0965 68.1827 51.0406 74.5561 46.0634 76.1215C41.5336 77.5192 37.6189 75.2829 37.563 71.3135C37.563 67.4 41.7013 65.0519 46.0634 66.5055ZM71.5087 66.6173C71.4528 67.0086 71.6765 67.5118 73.4661 71.2576C74.0253 72.3757 74.6964 73.8293 74.976 74.5002C75.3115 75.1711 75.6471 75.7302 75.8149 75.7861C76.6537 76.1215 76.0386 76.4011 74.4727 76.4011C72.795 76.4011 72.7391 76.401 73.0746 75.8979C73.2424 75.6183 73.1864 75.3947 72.795 74.6679L72.3476 73.7175H69.8869H67.4263L67.0348 74.4443C66.6993 75.0034 66.6434 75.3388 66.7552 75.7861L66.8671 76.4011H65.413C64.2386 76.4011 63.959 76.3451 63.959 76.1215C63.959 75.9538 64.0709 75.842 64.1268 75.842C64.2386 75.842 64.6301 75.1152 65.0216 74.2766C66.0841 72.0403 66.4756 71.1458 67.2026 69.5245C67.9855 67.7913 68.377 66.8409 68.2092 66.7291C67.7618 66.2818 68.377 66.0582 69.8869 66.1141C71.4528 66.2259 71.5087 66.2819 71.5087 66.6173ZM86.3845 66.4496C89.5721 67.1763 90.1314 70.6426 87.2233 71.8167C86.3845 72.1521 86.3845 72.0403 87.5029 73.7175C88.6214 75.3947 89.1247 75.9538 89.4044 75.9538C89.5162 75.9538 89.5721 76.0656 89.5721 76.2333C89.5721 76.4569 89.2366 76.5129 87.8385 76.5129H86.1049L86.2167 76.0656C86.3285 75.6743 86.1049 75.2829 85.3219 74.0529L84.3153 72.3757H82.6935H81.0717V74.1648C81.0717 75.227 81.1276 75.9538 81.2395 75.9538C81.3513 75.9538 81.4072 76.0656 81.4072 76.2333C81.4072 76.4569 81.1276 76.5129 79.8973 76.5129C78.3874 76.5129 78.1637 76.4011 78.667 75.9538C79.0584 75.6184 79.0584 67.0645 78.667 66.7291C78.4992 66.6173 78.4433 66.4496 78.4992 66.3378C78.667 66.0023 84.9864 66.1141 86.3845 66.4496ZM42.4283 68.015C40.6388 68.5181 39.5203 70.0276 39.6321 71.7048C39.9677 74.9475 45.0008 75.9538 46.9582 73.1584C48.8596 70.419 45.8397 67.0645 42.4283 68.015ZM81.0717 69.2449C81.0717 70.8103 81.0158 70.8103 83.2527 70.8103C85.8812 70.8103 86.8878 70.419 86.8878 69.3008C86.8878 68.2386 86.4404 68.0709 83.5883 68.015L81.0158 67.9591V69.2449H81.0717ZM69.4955 68.7977C69.3836 69.0213 69.0481 69.7481 68.7685 70.4749C68.4888 71.2017 68.2092 71.8726 68.1533 71.9844C68.0974 72.1521 68.4888 72.208 69.8869 72.208C70.8936 72.208 71.6765 72.1521 71.6206 72.0962C71.5647 72.0403 71.285 71.3135 70.8936 70.5867C70.5021 69.804 70.2225 69.1331 70.2225 69.0772C70.2225 68.574 69.6632 68.4622 69.4955 68.7977Z" fill="white"/>
</g>
</svg>
