<svg width="162" height="162" viewBox="0 0 162 162" fill="none" xmlns="http://www.w3.org/2000/svg">
<ellipse cx="81.1157" cy="81.0917" rx="80.5889" ry="80.5649" fill="white"/>
<path fill-rule="evenodd" clip-rule="evenodd" d="M75.9324 0.158985C37.9029 2.47589 6.35209 31.4898 0.87415 69.1394C-6.71068 121.27 36.112 166.397 88.6265 161.657C125.761 158.287 156.1 129.274 161.209 92.2558C168.267 41.3893 127.13 -3.00042 75.9324 0.158985ZM94.2097 47.6028C94.5785 47.7608 95.2105 48.3926 96.0533 49.4458C96.738 50.3409 98.9503 52.6578 100.899 54.6588L104.481 58.2395L107.589 58.3448C113.804 58.5554 115.753 58.8713 116.859 59.7665C117.807 60.5564 117.807 60.5564 119.282 63.5578C119.493 64.0317 120.072 64.7689 120.546 65.2428C121.02 65.7167 121.652 66.5592 122.021 67.2438C122.337 67.8757 123.285 69.6133 124.128 71.0877C125.603 73.6679 126.235 74.7737 127.235 76.6693C128.816 79.5655 124.128 80.6713 121.389 78.0384C120.862 77.5119 120.862 77.5119 120.862 79.8288C120.862 82.5669 120.019 81.7244 126.761 85.779L129.764 87.5693L130.817 87.5167L131.871 87.464L131.976 88.2012C132.081 88.9384 132.292 89.2017 133.293 89.7282L133.819 89.9915V92.5191C133.819 94.7306 133.767 95.0466 133.503 95.1519C133.293 95.2572 113.383 99.3118 108.905 100.154C108.273 100.26 106.956 100.523 106.061 100.734C104.06 101.155 103.269 100.997 99.0029 99.0485C98.6342 98.8905 96.264 97.9427 88.9425 94.9413C86.3615 93.8881 83.9386 92.9403 83.6226 92.7823C82.9378 92.5191 82.5165 92.5191 81.621 92.9403C81.0943 93.1509 80.5149 93.4142 75.0896 95.6258C70.4545 97.5215 68.2949 98.4166 65.3979 99.6277C61.7108 101.207 62.1322 101.207 54.3367 99.6277C50.8603 98.8905 47.4893 98.2586 46.9099 98.1007C41.2213 96.9949 32.6883 95.2572 32.3723 95.0992C32.0036 94.9413 32.0036 94.836 32.0036 92.677C32.0036 90.6761 31.9509 90.3601 31.5822 89.5176C31.2135 88.7278 31.1608 88.3065 31.1608 86.9374C31.1608 84.9891 31.3715 85.1998 29.1593 84.8312C27.5264 84.5679 26.947 84.3572 27.1577 84.1466C27.2104 84.094 27.7898 84.1466 28.4745 84.3046C29.1593 84.4099 30.0547 84.5679 30.4234 84.6205L31.1608 84.7258V82.7775V80.8292L28.1058 77.7751C26.4203 76.0901 25.1035 74.6684 25.1562 74.6157C25.2088 74.5631 26.5256 75.7742 28.1058 77.3012C31.2135 80.408 31.1608 80.3553 31.1608 79.4602C31.1608 78.6703 31.2662 78.565 31.7929 78.7756C32.0562 78.8809 33.3731 79.1442 34.7425 79.4602C40.8525 80.6713 40.5365 80.4606 40.5365 83.0935C40.5365 84.3046 40.5892 84.6732 40.7472 84.6205C41.2212 84.4626 43.8022 82.8302 44.2763 82.4616C44.9083 81.935 45.0137 81.4085 44.9083 79.3549L44.803 77.6172L44.2236 78.0911C42.5907 79.4075 40.3258 79.8288 39.009 78.9862C37.6922 78.1964 37.7449 77.9858 39.6411 74.5631C40.5365 73.036 41.2212 71.7196 41.2212 71.667C41.2212 71.2457 44.7503 65.4534 45.4877 64.7689C46.1198 64.137 46.4885 63.6105 46.9099 62.5047C48.2267 59.3453 49.3855 58.6607 53.968 58.4501C55.6535 58.3974 58.0238 58.2395 59.1826 58.1868L61.2895 58.0815L64.6078 54.7115C66.4514 52.8685 68.2949 50.8675 68.7163 50.3409C71.7186 46.5496 71.2972 46.5497 77.8286 49.867C82.0951 52.026 82.8852 52.3419 83.2539 52.2366C83.5172 52.1839 85.6768 51.0781 88.0471 49.867C91.6288 48.0767 93.051 47.3922 93.7884 47.1815C93.6303 47.3395 93.8937 47.4448 94.2097 47.6028ZM64.7658 54.8694C61.0788 58.6607 61.1314 58.6081 57.7077 59.9771C56.4963 60.451 55.1795 61.0303 54.7581 61.1882C53.6519 61.6622 45.8564 68.3496 45.4877 69.1921C44.961 70.2452 44.9083 83.9886 45.435 84.4626C47.0152 86.0423 50.2282 83.7254 50.755 80.6186C51.0183 79.1969 51.5451 75.7215 51.8084 73.9838C52.0191 72.4041 52.1245 72.2462 54.5474 70.2452C56.2329 68.8761 58.2345 66.9278 58.7612 66.1906C58.9192 65.9274 59.2352 65.5061 59.4459 65.2955C59.8146 64.8216 60.236 64.2423 61.5001 62.3993C61.9215 61.7675 62.3429 61.2936 62.4482 61.2936C62.6589 61.2936 62.4482 61.6095 60.6574 64.137C59.762 65.4008 58.9719 66.5066 58.8665 66.6646C58.7612 66.8225 58.4451 67.2964 58.0764 67.7703C57.7604 68.2443 57.181 69.0341 56.865 69.508C56.5489 70.0346 56.2329 70.4558 56.1802 70.5085C55.0741 71.5616 54.442 73.0887 54.0207 76.1428C53.81 77.4065 53.5993 78.8809 53.4939 79.4075C53.3359 80.3027 52.9145 82.9882 52.3878 86.5688C52.0718 88.7278 52.1771 89.149 53.1252 89.3596C53.968 89.5176 53.968 89.5176 53.968 85.7263C53.968 83.778 53.968 82.1983 54.0207 82.1983C54.0733 82.1983 55.1795 82.4089 56.4963 82.6722C57.8131 82.9355 58.9192 83.1461 58.9719 83.0935C59.0772 82.9882 59.3932 81.3558 59.762 79.0916C60.078 77.1959 59.7093 77.7225 63.3437 73.9838C64.5025 72.8254 65.7139 71.509 66.0826 71.0877C67.3995 69.6133 68.6109 69.1921 69.7171 69.824C71.4552 70.8771 71.6659 71.9302 71.1392 76.3534C70.5071 81.5664 70.7178 82.3036 72.6667 82.8829C74.5102 83.4094 75.1423 82.8302 77.4072 78.3544C79.4615 74.2998 79.8828 73.194 80.0935 71.2457C80.1989 70.5085 80.4096 68.9815 80.5676 67.823C80.7783 66.6646 81.0416 64.7162 81.2523 63.4525C81.4103 62.1887 81.6737 60.8196 81.7264 60.3984C81.9371 59.1873 82.6745 59.6612 73.7202 54.5008C72.0873 53.553 70.2438 52.4999 69.6117 52.0786C68.9796 51.71 68.4002 51.3941 68.3476 51.3941C68.2422 51.3414 66.662 52.9211 64.7658 54.8694ZM93.8937 53.1844C92.2609 54.1849 89.9959 55.5013 88.8898 56.1332C84.6234 58.6081 84.044 58.9767 83.8859 59.2399C83.7279 59.5032 83.8859 60.9776 84.676 66.138C84.7814 66.8752 84.9921 68.4022 85.1501 69.508C85.6768 73.352 85.7822 73.6679 87.9417 77.9331C90.4173 82.9355 91.0494 83.5147 93.0509 82.7775C94.7891 82.093 95.0525 80.7239 94.4204 76.3008C93.7884 72.1409 94.1571 70.6138 95.9479 69.7187C97.2121 69.0868 97.6861 69.2974 100.688 72.4041C104.534 76.3534 105.376 77.1959 105.429 77.5645C105.64 78.5123 106.061 81.0399 106.482 83.4094C107.114 87.1481 107.483 87.8326 108.747 87.5167C109.853 87.2534 109.906 87.2534 109.906 88.0432C109.906 89.149 110.064 89.2543 111.486 89.2543C113.014 89.2543 113.488 88.9384 113.383 87.9906C113.014 85.3577 112.75 83.2514 112.592 82.4616C112.434 81.5664 112.276 80.6186 111.697 76.3534C111.328 73.8785 110.96 72.6674 110.117 71.4563C108.853 69.6133 108.326 68.8235 107.22 67.2438C106.588 66.3486 106.008 65.5588 105.903 65.4008C105.534 64.8742 104.059 62.768 103.585 62.0834C103.059 61.3462 103.006 61.1882 103.217 61.1882C103.269 61.1882 103.743 61.7148 104.165 62.3993C107.22 66.9278 107.799 67.5597 111.065 70.2979C112.434 71.4563 113.488 72.4568 113.541 72.6148C113.646 73.1413 113.909 74.879 114.225 76.9326C114.383 77.8805 114.541 79.0389 114.647 79.4602C114.752 79.8814 114.857 80.566 114.91 81.0399C115.173 83.1988 116.964 84.8312 119.124 84.8312C120.546 84.8312 120.599 84.6732 120.441 76.2481C120.335 68.5602 120.441 69.1394 118.281 67.2438C117.438 66.5066 116.438 65.6641 116.016 65.2955C115.595 64.9269 114.805 64.2423 114.225 63.7684C113.699 63.2945 113.119 62.8733 113.066 62.768C112.487 62.1361 111.223 61.3462 110.117 60.8723C107.589 59.8718 105.324 58.8713 104.692 58.5554C104.323 58.3448 102.637 56.7651 100.688 54.7641C98.8449 52.8685 97.2647 51.3414 97.1594 51.3414C96.9487 51.3941 95.5266 52.1839 93.8937 53.1844ZM82.4111 58.7134C82.2004 59.1346 82.0424 59.9771 81.2523 65.4534C80.8836 68.0336 80.3042 71.6143 80.0935 72.7201C79.8828 73.8785 79.5141 74.7737 77.6706 78.407C76.0378 81.6191 75.9851 81.8297 76.7752 81.8297C76.9332 81.8297 78.1973 82.0403 79.5141 82.3563C80.8836 82.6196 82.3058 82.8829 82.7271 82.8829C83.5172 82.8829 88.4158 81.9877 89.0478 81.7244C89.3639 81.5664 89.3112 81.4085 87.415 77.5645C85.2028 73.1413 85.5188 74.0892 84.676 68.2969C84.4653 66.8752 83.8333 62.61 83.4119 60.0298C83.2012 58.5027 82.7271 57.9762 82.4111 58.7134ZM56.7069 58.766C48.6481 59.2926 48.7007 59.2399 47.0679 62.6626C46.6992 63.4525 46.3832 64.1897 46.4358 64.1897C46.4885 64.2423 48.8588 63.3472 49.8069 62.9259C50.8603 62.452 52.5458 61.7675 52.7038 61.7675C52.8092 61.7675 53.0726 61.6622 53.3359 61.5042C54.1787 61.0829 59.0772 59.082 59.2352 59.082C59.2879 59.082 59.5513 58.9767 59.7093 58.8187C60.078 58.5554 60.0253 58.5554 56.7069 58.766ZM105.745 58.8187C105.903 58.9767 106.114 59.082 106.219 59.082C106.324 59.082 106.904 59.2926 107.589 59.6085C109.537 60.4511 109.748 60.5037 110.96 61.0303C111.592 61.2936 112.224 61.5568 112.276 61.6622C112.382 61.7148 112.54 61.8201 112.645 61.8201C112.856 61.8201 113.751 62.1887 115.595 62.9786C115.805 63.0839 116.438 63.3472 117.017 63.5578C117.596 63.8211 118.334 64.0844 118.544 64.2423C119.176 64.5583 119.124 64.453 118.228 62.5573C117.438 60.8723 116.806 60.1351 115.805 59.6085C114.647 58.924 105.008 58.1868 105.745 58.8187ZM31.7402 62.2414C35.1639 62.9259 36.27 63.2419 36.4807 63.5051C36.6387 63.7158 36.6914 64.9269 36.6914 68.1916C36.6914 73.036 36.6387 73.4046 35.7433 73.9312C35.4799 74.0892 34.6372 74.6157 33.7944 75.1423C31.8982 76.3534 32.1089 76.4061 29.7387 74.1418C27.0524 71.5616 27.3157 72.2988 27.3157 66.6119C27.3157 60.7143 27.1577 61.1882 28.6852 61.5568C29.3699 61.7675 30.7394 62.0308 31.7402 62.2414ZM28.0005 62.294C27.8424 62.452 27.7898 63.7158 27.7898 66.8752V71.2984L28.4218 72.0355C31.7929 75.8268 31.7402 75.8268 34.0051 74.5104C36.1647 73.194 36.0067 73.6679 36.0067 68.5602C36.0067 63.3472 36.2174 63.8737 33.5837 63.2945C30.6341 62.6626 28.7379 62.294 28.4745 62.1887C28.3165 62.1361 28.1058 62.1887 28.0005 62.294ZM52.0718 62.2414C51.9138 62.3467 51.387 62.5573 50.8076 62.8206C50.2809 63.0312 49.0168 63.5578 48.016 63.9791C47.0152 64.4003 46.1725 64.7689 46.0671 64.7689C45.3824 64.7689 43.8549 67.0858 40.1151 73.9838C39.8518 74.5104 39.325 75.4056 39.009 75.9848C37.9029 77.9331 37.9029 78.3017 39.2197 78.8283C41.1159 79.6181 43.2228 78.8809 44.4343 77.0906C44.8556 76.4587 44.8556 76.4061 44.8556 73.0887C44.8556 68.8761 44.6976 69.2447 48.2794 66.0853C52.7038 62.2414 52.8092 62.1361 52.5458 62.1361C52.4405 62.0834 52.2298 62.1887 52.0718 62.2414ZM112.698 62.1887C112.698 62.2414 113.066 62.61 113.541 62.9786C114.015 63.3472 114.805 64.0317 115.331 64.5056C115.858 64.9795 116.754 65.7694 117.333 66.2433C120.599 69.0341 120.493 68.8235 120.493 72.9834C120.493 76.4587 120.599 76.9853 121.547 77.8278C123.864 79.9341 128.025 79.1442 126.814 76.8273C126.551 76.3008 126.182 75.6689 123.759 71.351C122.706 69.508 121.599 67.5071 121.283 66.8752C120.493 65.4008 119.914 64.9795 117.438 63.9791C116.28 63.5578 115.068 63.0312 114.699 62.8733C113.014 62.0834 112.698 62.0308 112.698 62.1887ZM30.6868 65.2428C30.7921 65.2428 31.3715 66.3486 31.5822 67.0331C31.7402 67.6124 31.9509 67.5071 32.2669 66.6646C32.6356 65.6641 32.7937 65.5588 33.7418 65.822L34.5318 65.98L33.8471 67.1385C33.1097 68.4022 33.1097 68.5602 33.8471 68.5602C34.2685 68.5602 34.3212 68.6129 34.3212 69.0868C34.3212 69.508 34.2685 69.5607 34.0051 69.508C32.899 69.1921 32.583 69.1921 32.6356 69.508C32.6883 69.7186 32.899 69.8766 33.4784 69.9819C34.2158 70.1399 34.2685 70.1399 34.2685 70.6138C34.2685 70.9824 34.2158 71.0877 33.9524 71.0351C32.741 70.6665 32.583 70.7191 32.5303 71.2984C32.4249 72.1935 30.8975 71.9829 30.8975 71.0351C30.8975 70.5085 30.8448 70.4558 30.0547 70.2452C29.3173 70.0872 29.2119 69.9819 29.2119 69.6133C29.2119 69.1921 29.2119 69.1921 30.0547 69.2974C30.9501 69.4027 31.3188 68.9815 30.4761 68.8235C30.2654 68.7708 29.844 68.7182 29.6333 68.6655C29.3173 68.6129 29.2119 68.4549 29.2119 68.1389C29.2119 67.7177 29.2646 67.7177 29.7387 67.823C30.3707 67.9283 30.3707 67.823 29.686 66.3486C29.0539 64.9795 29.0539 64.9269 29.8967 65.0848C30.2654 65.1902 30.6341 65.2428 30.6868 65.2428ZM55.9695 69.4027C55.4955 69.824 55.2321 70.6138 55.5482 70.6138C55.7062 70.6138 56.6543 69.1394 56.5489 69.0341C56.5489 68.9815 56.2329 69.1394 55.9695 69.4027ZM108.853 69.2447C108.853 69.2974 109.011 69.508 109.169 69.666C109.327 69.824 109.537 70.0872 109.59 70.2979C109.748 70.7191 110.011 70.7191 110.011 70.2452C110.011 70.0346 109.801 69.7186 109.59 69.508C109.169 69.0868 108.853 68.9815 108.853 69.2447ZM135.61 71.2984C135.663 73.7732 135.768 73.6153 133.556 74.1945C131.238 74.8264 131.396 74.9843 131.449 72.2988L131.502 69.9819L132.239 69.7713C133.345 69.4554 135.136 69.0868 135.347 69.1394C135.505 69.1921 135.61 70.0872 135.61 71.2984ZM133.24 69.9293L131.923 70.1926L131.871 72.1935L131.818 74.1945L132.713 74.0892C133.187 74.0365 133.977 73.8785 134.399 73.7206L135.189 73.4573V71.5616C135.136 69.3501 135.347 69.508 133.24 69.9293ZM67.5575 70.0872C66.6094 70.6665 60.1307 77.5645 60.1307 77.9858C60.1307 78.3017 60.6047 78.565 61.5528 78.723C63.5017 79.0916 67.9789 79.9867 69.085 80.25C70.3491 80.566 70.2965 80.6186 70.6125 77.9858C70.7705 76.722 70.9285 75.037 71.0339 74.2471C71.4026 71.0351 69.559 68.8761 67.5575 70.0872ZM96.0533 70.0346C94.8945 70.5612 94.2097 71.9302 94.3678 73.4573C94.6838 76.4587 95.1579 80.3027 95.3159 80.408C95.4212 80.5133 95.6846 80.4606 96.0006 80.3553C96.3166 80.25 96.9487 80.092 97.4754 79.9867C101.057 79.3022 104.902 78.4597 105.113 78.3017C105.587 77.8805 105.64 77.9331 100.056 72.1409C97.6861 69.7186 97.2121 69.4554 96.0533 70.0346ZM53.7573 71.2457C52.5458 72.2462 52.1771 72.9834 51.9664 74.8264C51.7031 76.6693 51.7031 76.6694 52.7565 76.1954C53.7046 75.7742 53.7046 75.6689 53.9153 74.2998C54.0207 73.4573 54.2313 72.8781 55.0214 71.509C55.6535 70.2979 55.0214 70.1926 53.7573 71.2457ZM110.328 70.5612C110.117 70.7718 110.222 71.0877 110.802 72.0355C111.17 72.6148 111.434 73.4046 111.592 74.0892C111.908 75.7742 111.908 75.7742 112.803 76.1954C113.277 76.4061 113.699 76.564 113.699 76.564C113.804 76.4587 113.225 72.8254 113.066 72.5095C112.54 71.7723 110.538 70.3505 110.328 70.5612ZM134.662 70.6138C134.978 70.8244 134.61 71.0877 134.135 71.0877C133.977 71.0877 133.819 71.1404 133.819 71.2457C133.819 71.351 133.977 71.4037 134.135 71.4037C134.662 71.4037 135.084 71.9829 134.82 72.4041C134.504 72.9834 133.714 73.4573 133.187 73.352C132.239 73.1413 132.029 72.5095 132.977 72.6674C133.661 72.8254 133.609 72.2988 132.977 72.0882C132.608 71.9829 132.45 71.8249 132.45 71.509C132.503 70.7718 133.977 70.1926 134.662 70.6138ZM133.819 72.3515C133.819 72.5095 133.872 72.6148 133.977 72.6148C134.083 72.6148 134.135 72.5095 134.135 72.3515C134.135 72.1935 134.083 72.0882 133.977 72.0882C133.872 72.1409 133.819 72.2462 133.819 72.3515ZM52.5985 76.6167C51.7557 76.9326 51.5977 77.0906 51.5977 77.6172C51.5977 78.0911 51.5977 78.0911 52.3878 77.6172C53.0199 77.2486 53.5993 76.6693 53.5993 76.4061C53.5993 76.2481 53.4939 76.3008 52.5985 76.6167ZM112.013 76.6693C112.118 77.1433 114.067 78.3544 114.067 77.9331C114.067 77.5119 113.646 76.9326 113.172 76.7747C112.013 76.3008 111.908 76.2481 112.013 76.6693ZM138.349 76.9326C138.244 77.0906 137.401 78.0384 136.4 78.9862C135.4 79.9341 134.662 80.6186 134.768 80.5133C134.873 80.3027 138.402 76.6693 138.507 76.6693C138.507 76.6693 138.455 76.7747 138.349 76.9326ZM52.4405 77.9331C51.3344 78.723 51.3344 78.7756 51.1763 80.0394C51.1237 80.7239 51.0183 81.3558 51.0183 81.4085C51.0183 81.5138 51.387 81.6717 51.8084 81.7771L52.5985 81.9877L52.7565 81.3558C52.9145 80.7239 53.2832 78.3544 53.2832 77.8278C53.2832 77.4065 53.1252 77.4065 52.4405 77.9331ZM112.224 78.4597C112.276 78.9862 112.434 79.9867 112.592 80.6713L112.803 81.8824L113.541 81.7771C113.962 81.7244 114.331 81.6191 114.383 81.6191C114.489 81.5664 114.331 80.0394 114.12 78.9336C114.067 78.6703 112.487 77.5119 112.171 77.5119C112.118 77.4592 112.171 77.9331 112.224 78.4597ZM60.1833 79.0389C59.92 79.3549 59.4459 82.6722 59.6039 83.0408C59.8146 83.4621 61.2895 83.6727 61.9742 83.4621C62.3956 83.3041 66.662 80.7766 67.1361 80.408C67.2941 80.25 65.7666 79.8814 61.9742 79.1969C61.4475 79.0916 60.9207 78.9863 60.7101 78.9336C60.552 78.8809 60.2887 78.9336 60.1833 79.0389ZM104.481 78.8809C104.428 78.9336 103.638 79.0916 102.637 79.3022C98.6869 80.0394 98.1075 80.1974 98.3182 80.3553C98.5289 80.566 103.164 83.3041 103.533 83.5147C104.218 83.8307 106.008 83.4094 106.008 82.9355C106.008 80.9345 105.008 78.3544 104.481 78.8809ZM31.6875 79.6708C31.4768 79.8814 31.4242 88.2012 31.6349 88.7278C31.8456 89.307 35.3746 92.8877 35.7433 92.8877C36.0593 92.8877 39.0617 91.2026 39.4831 90.7814C39.7991 90.4654 39.8518 81.4611 39.5357 81.2505C39.3777 81.1452 37.7449 80.7766 34.0051 79.9867C33.1097 79.7761 32.3196 79.6181 32.1616 79.5655C32.0036 79.5128 31.7929 79.5655 31.6875 79.6708ZM65.2399 81.9877C63.8704 82.8302 62.6589 83.5147 62.6063 83.5147C62.2902 83.5147 62.5009 83.8833 62.8696 84.0413C63.291 84.1993 63.291 84.2519 63.1857 85.1471C63.0276 86.2529 63.133 86.2529 64.2391 85.463C65.3452 84.7258 66.2933 84.5679 67.5048 84.9365C68.0315 85.0944 68.5583 85.1998 68.7163 85.1998C68.9796 85.1998 71.7713 83.7254 72.0873 83.4094C72.14 83.3568 71.824 83.0408 71.4552 82.6722C71.0865 82.3036 70.6652 81.7771 70.5071 81.5138C70.1911 80.8819 69.8224 80.6713 68.6109 80.5659L67.6628 80.4606L65.2399 81.9877ZM96.3693 80.6713C95.7372 80.7766 95.1578 80.8819 95.1578 80.9872C94.9998 81.4611 94.0517 82.6722 93.7884 82.7775C92.9983 83.0408 93.051 83.3041 94.0517 83.936C96.2113 85.2524 96.3166 85.3051 97.9495 84.9365C99.5823 84.6205 99.793 84.6732 101.004 85.4104C104.797 87.8326 105.534 88.2012 106.008 88.0432L106.535 87.8853L105.376 87.1481C102.427 85.2524 102.163 85.0944 102.111 84.6205C102.058 84.2519 102.163 84.1466 102.479 84.0413C102.743 83.9886 102.901 83.8307 102.848 83.778C102.795 83.62 97.6861 80.4606 97.5281 80.5133C97.5808 80.5133 97.0541 80.6186 96.3693 80.6713ZM35.7433 82.3036C35.796 82.4616 36.1647 82.7775 36.5861 83.0408C37.7449 83.7254 38.3769 84.9891 37.5342 84.8838C36.6387 84.7785 36.3754 84.6732 36.27 84.3572C36.112 83.8307 35.6906 83.936 35.6906 84.5152C35.6906 85.0418 36.0067 85.4104 36.9548 86.0423C38.9037 87.3587 38.4823 90.1495 36.3754 89.9915C35.8487 89.9389 35.7433 89.9915 35.7433 90.3075C35.6906 90.834 35.3219 90.6761 35.2166 90.0968C35.1639 89.7809 34.9532 89.5176 34.3738 89.149C33.5311 88.6224 32.9517 87.8853 32.741 87.0954C32.6356 86.5688 32.5303 86.6215 33.8998 86.8848C34.2158 86.9374 34.4265 87.1481 34.6372 87.5693C35.0059 88.3592 35.2166 88.3065 35.2166 87.3587C35.2166 86.6215 35.1639 86.5162 34.4792 86.0949C32.4249 84.8312 32.4249 82.251 34.4792 82.251C34.9006 82.251 35.2693 82.1983 35.2693 82.093C35.1639 81.8824 35.638 81.9877 35.7433 82.3036ZM76.5645 83.0935C75.669 83.4094 74.7736 83.7254 74.4576 83.8307C74.1415 83.936 73.6148 83.9886 73.0881 83.936C72.2453 83.8307 72.14 83.8833 71.0339 84.5152C69.9277 85.1998 69.6117 85.5157 70.0858 85.5157C70.4545 85.5157 70.5598 86.1476 70.2964 86.4635C70.0331 86.7795 67.9262 88.1485 65.8193 89.3596C63.3964 90.7287 63.133 91.0447 63.133 92.7823C63.133 94.0988 63.0803 94.2041 61.7635 95.0466C61.0788 95.4678 60.8681 95.8364 61.2895 95.8364C61.3421 95.8364 62.975 94.8886 64.9239 93.7302C66.8727 92.5717 68.6636 91.4659 68.927 91.3079C69.1903 91.15 70.6125 90.3075 72.0346 89.4123C75.3003 87.4113 75.1423 87.5167 78.9347 85.1998C80.6729 84.1466 82.0951 83.2514 82.0951 83.1988C82.0951 83.0935 81.779 82.9882 79.8302 82.6196C78.1446 82.4616 78.408 82.4089 76.5645 83.0935ZM85.5188 82.7775C84.9394 82.9355 84.2546 83.0935 83.9913 83.1461C83.2539 83.3041 83.3065 83.3568 84.518 84.094C85.0974 84.4099 86.7303 85.4104 88.1524 86.3055C89.5746 87.2007 91.4181 88.3065 92.2609 88.7804C93.1036 89.2543 95.3685 90.6234 97.2647 91.8345C102.848 95.2572 103.743 95.7838 104.27 95.7838C104.797 95.7838 104.85 95.6258 104.376 95.2046C104.059 94.9413 104.059 94.7306 104.059 93.7302C104.059 93.0983 104.059 92.4664 104.059 92.3611C104.059 92.2558 102.163 90.992 99.793 89.5703C94.8945 86.5688 94.7891 86.4635 95.2105 85.7263C95.3685 85.463 95.4739 85.1998 95.4739 85.1998C95.4739 85.1998 94.9998 84.9365 94.5258 84.5679C93.7357 84.0413 93.4197 83.9886 92.1029 83.8833C90.9967 83.8307 90.2593 83.6727 89.3112 83.2514C87.6784 82.5669 86.7829 82.4616 85.5188 82.7775ZM43.9602 83.0408C43.6442 83.2515 42.9068 83.7254 42.3274 84.094C40.3258 85.3051 40.3785 85.1998 40.3785 86.7268C40.3785 88.1485 40.4312 88.2539 41.1686 87.7273C41.4319 87.5693 42.4327 86.9374 43.3808 86.3582C44.3289 85.779 45.2244 85.2524 45.277 85.1998C45.3824 85.1471 45.3297 84.9891 45.1717 84.7785C45.0137 84.6205 44.8557 84.094 44.803 83.62C44.645 82.5669 44.645 82.5669 43.9602 83.0408ZM120.862 82.8829C120.493 83.8833 120.283 85.0944 120.441 85.2524C120.599 85.4104 121.599 86.0423 123.285 87.0427C127.13 89.307 127.604 89.8862 126.182 90.4654L125.392 90.7814L125.971 91.0973C126.498 91.3606 126.603 91.3606 127.183 91.15L127.815 90.8867V89.7282C127.815 88.5171 128.078 88.0432 128.868 88.0432C129.658 88.0432 128.868 87.464 125.603 85.5157C123.654 84.3572 121.81 83.2515 121.494 83.0408C121.073 82.7775 120.915 82.7249 120.862 82.8829ZM54.5474 82.9355C54.4947 82.9882 54.442 85.1471 54.442 87.622V92.2031L55.9169 93.7302C58.7085 96.6789 58.2871 96.521 60.4467 95.2572C62.7116 93.8881 62.5009 94.52 62.5009 89.2543V84.6732L62.1322 84.5152C61.9215 84.4099 60.3413 84.0413 58.5505 83.6727C56.8123 83.3041 55.2321 82.9355 55.0214 82.8829C54.8107 82.8829 54.6001 82.8829 54.5474 82.9355ZM34.6899 83.778C34.5318 83.936 34.5318 84.094 34.6899 84.3572C34.9532 84.8312 35.2166 84.7785 35.2166 84.1993C35.1639 83.6201 34.9532 83.4094 34.6899 83.778ZM138.507 84.4099C138.507 84.6205 133.714 85.5157 133.556 85.3051C133.345 85.0944 133.609 85.0418 135.874 84.6205C138.665 84.1466 138.507 84.1466 138.507 84.4099ZM59.4459 85.8316C60.6574 86.4635 61.0788 87.622 60.1307 87.5693C59.2352 87.5167 59.2352 87.5167 59.0245 87.1481C58.8139 86.6741 58.1818 86.5688 58.0238 86.9374C57.8131 87.5167 58.2345 88.3065 58.9192 88.4645C59.8673 88.6751 59.9726 89.6229 59.0772 89.465C58.5505 89.3596 57.8131 90.1495 58.1818 90.4128C58.3398 90.5181 59.92 90.992 60.236 90.992C60.7101 90.992 61.2895 92.1505 60.9734 92.3611C60.6574 92.5717 59.6566 92.4137 58.4978 91.8872C57.7604 91.5712 57.339 91.4659 56.9703 91.5186C56.1276 91.6765 55.7588 90.6761 56.3382 89.9389C56.9176 89.2543 56.865 88.9911 56.2856 88.7804C55.7062 88.5698 55.6008 87.8326 56.1802 87.8853C56.4436 87.8853 56.4436 87.8326 56.3909 87.1481C56.1276 85.621 57.7077 84.9365 59.4459 85.8316ZM49.8069 87.1481C48.8061 87.7799 47.7526 88.4118 47.5419 88.5171C47.3313 88.6751 46.3831 89.2543 45.5404 89.7809C43.4862 91.0973 42.9594 91.2553 41.748 90.992C41.0632 90.834 40.7472 90.834 40.4312 90.992C39.9044 91.2553 39.9044 91.4659 40.4838 91.5712C40.7472 91.6239 41.906 91.8872 43.1175 92.0978C45.8564 92.677 46.8045 92.7823 47.1206 92.5191C47.4366 92.2558 47.3313 92.0978 46.6992 91.9398C45.435 91.6765 46.0144 90.8867 48.8061 89.2017C51.4397 87.5693 51.9138 87.2007 51.9138 86.5162C51.9138 85.8843 51.9664 85.8316 49.8069 87.1481ZM113.435 86.3055C113.488 86.4635 113.541 86.7268 113.541 86.9901C113.541 87.306 113.751 87.5167 114.436 87.8853C119.018 90.5708 120.177 91.6766 118.597 91.9925C118.334 92.0451 118.123 92.2031 118.123 92.3084C118.228 92.677 118.913 92.8876 119.545 92.7297C122.231 92.1505 124.602 91.6765 124.97 91.6239C125.497 91.5186 125.55 91.3079 125.076 91.0447C124.812 90.8867 124.444 90.8867 123.496 91.0447C122.073 91.3079 122.6 91.5186 117.491 88.3592C113.646 85.9896 113.277 85.779 113.435 86.3055ZM35.6906 87.7799C35.6906 88.4118 36.0593 88.7278 36.4281 88.4118C36.6914 88.1485 36.3754 87.306 36.0067 87.2534C35.7433 87.2007 35.6906 87.306 35.6906 87.7799ZM107.957 88.0959C105.587 88.6224 104.692 88.8331 104.534 88.9384C104.376 89.0437 104.376 89.7809 104.428 91.9398C104.534 95.2046 104.481 94.9939 106.166 95.9417L107.009 96.4157L108.273 95.0992L109.537 93.7828V90.834C109.537 87.464 109.695 87.7273 107.957 88.0959ZM130.132 88.0432C129.711 88.0959 129.079 88.2539 128.763 88.3592L128.131 88.5171L128.078 89.8336C128.025 92.3084 128.078 92.5717 128.921 93.0983C129.711 93.6248 129.974 93.5722 130.87 92.4137C131.555 91.5712 131.555 91.5712 131.449 89.0437C131.449 87.7273 131.555 87.7799 130.132 88.0432ZM130.87 89.2017C131.08 89.4123 130.975 89.5176 130.501 89.5703C129.869 89.6756 129.922 89.8336 130.554 90.0968C131.607 90.5181 130.606 92.1505 129.395 91.9398C128.552 91.7819 128.341 91.5186 128.816 91.3079C129.079 91.15 129.29 91.15 129.395 91.2553C129.553 91.3606 129.606 91.3606 129.606 91.0973C129.606 90.8867 129.5 90.7287 129.29 90.7287C129.132 90.7287 128.868 90.6234 128.763 90.4654C128.131 89.6756 130.132 88.4645 130.87 89.2017ZM108.8 89.6756C109.274 89.9389 108.853 90.7287 108.221 90.7287C107.589 90.7287 107.009 90.992 107.009 91.2553C107.009 91.3606 107.22 91.4133 107.536 91.3079C107.799 91.2553 108.063 91.2553 108.063 91.3606C108.063 91.6239 107.694 91.8872 107.378 91.8872C107.22 91.8872 107.009 91.9925 106.956 92.0978C106.851 92.2558 107.009 92.2558 107.483 92.1505C108.01 92.0451 108.115 92.0451 108.063 92.3611C108.01 92.5717 107.852 92.677 107.536 92.7297C107.273 92.7823 107.115 92.8876 107.115 92.993C107.22 93.3089 108.01 93.3089 108.431 93.0456C108.958 92.677 109.063 92.7297 109.063 93.3089C109.063 93.9408 108.326 94.3094 107.167 94.3094C106.272 94.3094 104.744 93.0983 105.271 92.7823C105.64 92.5717 105.64 92.3084 105.271 92.3084C105.008 92.3084 105.008 92.2558 105.324 91.9398C105.482 91.7292 105.745 91.3606 105.903 91.0973C106.324 90.0968 108.168 89.2543 108.8 89.6756ZM131.818 89.7809C131.818 90.1495 132.081 90.2548 132.503 90.0442L132.871 89.8862L132.503 89.6756C132.029 89.465 131.818 89.465 131.818 89.7809ZM109.853 90.3075C109.853 90.7287 110.011 90.9393 110.802 91.4133C112.54 92.5191 112.592 93.5195 110.907 93.5195C110.38 93.5195 110.38 93.7828 110.907 94.0461C111.223 94.2041 111.592 94.2041 112.434 94.0461C114.278 93.7302 117.702 92.993 117.807 92.8877C118.07 92.6244 117.228 92.3084 116.543 92.4137C114.331 92.7823 114.541 92.835 112.276 91.4133C109.959 89.9389 109.853 89.8862 109.853 90.3075ZM132.292 90.5181C132.029 90.5708 131.871 90.7814 131.818 90.992C131.765 91.4659 131.976 91.4659 132.555 90.9394C133.187 90.4128 133.135 90.3075 132.292 90.5181ZM52.2825 91.9925C50.9657 92.7823 50.7023 92.835 48.7534 92.4664C48.174 92.3611 47.3839 92.7297 47.5946 92.9403C48.0687 93.4142 54.2313 94.3094 54.7054 93.9408C55.0741 93.6775 55.0214 93.6248 54.126 93.4669C53.2832 93.2562 53.1779 93.0983 53.4413 92.5191C54.0207 90.992 53.9153 90.9394 52.2825 91.9925ZM126.972 91.5186C126.287 91.5712 126.287 91.7819 126.972 92.2031C127.709 92.677 127.762 92.6244 127.762 92.0451C127.815 91.4659 127.709 91.4133 126.972 91.5186ZM39.6937 91.9925C39.6937 92.0451 40.4312 92.835 41.2739 93.7302L42.8541 95.3625L43.7495 94.8886C46.8572 93.2036 46.8572 93.2562 44.5923 92.835C43.9075 92.7297 42.5907 92.4664 41.6953 92.2558C40.0098 91.8872 39.6937 91.8345 39.6937 91.9925ZM122.179 92.5191C118.702 93.2036 118.755 93.2036 120.862 94.362C122.811 95.4678 122.495 95.5732 125.339 92.4137C125.971 91.7292 126.024 91.7292 122.179 92.5191ZM48.7534 95.0466C50.8076 96.9949 50.5443 96.9422 52.2825 95.8364C54.126 94.6253 54.1787 94.7306 51.2817 94.1514C50.597 93.9934 49.4908 93.7828 48.8588 93.6775C46.8045 93.2036 46.8045 93.2562 48.7534 95.0466ZM116.543 93.6775C115.595 93.8881 113.646 94.3094 112.329 94.52C111.539 94.678 111.644 94.836 113.119 95.7838C114.91 96.9422 114.647 96.9949 116.596 95.2046C118.702 93.2562 118.702 93.2036 116.543 93.6775ZM109.432 94.4147L109.116 94.7833L109.748 94.678C110.486 94.5727 110.591 94.4674 110.433 94.2567C110.275 93.9408 109.801 94.0461 109.432 94.4147ZM55.8642 96.3103C58.1818 98.5219 57.8657 98.4166 59.5513 97.3635C60.3414 96.8896 61.0261 96.363 61.0788 96.2577C61.1841 95.8891 60.236 96.0471 59.5513 96.4683C58.6032 97.0475 58.2871 96.9949 57.5497 96.205C56.7596 95.4152 55.7589 94.8886 54.9688 94.8886H54.3894L55.8642 96.3103ZM109.801 95.0466C109.011 95.2572 108.326 95.6258 107.747 96.3103C107.115 96.9949 107.009 97.0475 106.114 96.4683C105.429 96.0471 104.376 95.8891 104.376 96.205C104.376 96.363 106.114 97.5741 107.009 98.048C107.483 98.3113 107.536 98.2586 109.379 96.521C111.17 94.7833 111.223 94.678 109.801 95.0466ZM56.865 107C56.4436 107.21 56.4436 117.584 56.865 117.742C57.497 118.005 56.8123 118.163 55.3375 118.163C53.7573 118.163 53.2832 118.005 53.9153 117.636C54.2313 117.478 54.2313 117.32 54.2313 113.845C54.2313 110.159 54.1787 109.843 53.7046 110.791C53.3886 111.37 52.2825 113.476 51.071 115.688C50.6496 116.425 50.2282 117.215 50.0702 117.478C49.7542 118.058 49.7015 118.005 48.4901 115.741C47.9633 114.793 47.2259 113.371 46.8572 112.634C46.4885 111.897 46.0144 111.002 45.8038 110.686C45.6457 110.317 45.435 110.054 45.3824 110.054C45.3297 110.054 45.3297 111.739 45.3297 113.845C45.3297 117.057 45.3824 117.636 45.5931 117.636C45.7511 117.636 45.8564 117.742 45.8564 117.9C45.8564 118.11 45.5931 118.163 44.3816 118.163C42.8541 118.163 42.4854 118.058 42.9594 117.636C43.3808 117.32 43.3281 107.158 42.9068 106.947C42.6961 106.842 43.1701 106.789 44.645 106.789C46.5412 106.789 46.6992 106.789 46.5412 107.052C46.3832 107.316 46.7519 108.105 49.3855 112.845L49.8595 113.634L51.4924 110.738C52.4932 109.001 53.1252 107.632 53.1779 107.368V106.842L54.7054 106.736C56.4963 106.684 57.2863 106.736 56.865 107ZM73.9309 108.316C73.9835 108.421 75.669 108.474 78.408 108.474C80.8309 108.474 82.8852 108.527 83.0432 108.632C83.2012 108.737 82.5165 109.738 80.2515 112.581C78.566 114.635 77.1965 116.425 77.1965 116.478C77.1965 116.636 82.5165 116.583 82.6218 116.425C82.8852 116.004 83.0432 116.32 83.0432 117.32V118.374L78.408 118.321C73.2988 118.268 73.1934 118.268 73.9309 117.32C75.2477 115.688 79.3561 110.37 79.3561 110.317C79.3561 110.106 74.1942 110.264 73.9309 110.475C73.5621 110.844 73.4568 110.633 73.4568 109.369C73.5095 108.211 73.6675 107.842 73.9309 108.316ZM110.854 108.316C110.854 108.421 112.434 108.474 115.226 108.474C118.018 108.474 119.598 108.421 119.598 108.316C119.598 108.211 119.651 108.158 119.756 108.158C119.861 108.158 119.914 108.685 119.914 109.317C119.914 110.37 119.756 110.738 119.493 110.317C119.44 110.212 118.702 110.159 117.807 110.159H116.227V113.898C116.227 117.162 116.28 117.636 116.49 117.742C117.07 117.952 116.438 118.163 115.226 118.163C114.173 118.163 113.909 118.11 113.909 117.9C113.909 117.742 113.962 117.636 114.067 117.636C114.173 117.636 114.225 116.267 114.225 113.845V110.106H112.645C111.75 110.106 111.012 110.159 110.96 110.264C110.696 110.686 110.538 110.317 110.538 109.264C110.538 108.579 110.591 108.105 110.696 108.105C110.802 108.105 110.854 108.211 110.854 108.316ZM67.8735 108.79C72.614 110.37 72.5614 116.373 67.8735 117.847C63.6071 119.163 59.92 117.057 59.8673 113.319C59.8673 109.633 63.7651 107.421 67.8735 108.79ZM91.8395 108.895C91.7868 109.264 91.9975 109.738 93.683 113.266C94.2097 114.319 94.8418 115.688 95.1052 116.32C95.4212 116.952 95.7373 117.478 95.8953 117.531C96.6854 117.847 96.1059 118.11 94.6311 118.11C93.0509 118.11 92.9983 118.11 93.3143 117.636C93.4723 117.373 93.4197 117.162 93.0509 116.478L92.6296 115.583H90.312H87.9944L87.6257 116.267C87.3097 116.794 87.257 117.11 87.3623 117.531L87.4677 118.11H86.0982C84.9921 118.11 84.7287 118.058 84.7287 117.847C84.7287 117.689 84.834 117.584 84.8867 117.584C84.9921 117.584 85.3608 116.899 85.7295 116.109C86.7303 114.003 87.099 113.161 87.7837 111.633C88.5211 110.001 88.8898 109.106 88.7318 109.001C88.3104 108.579 88.8898 108.369 90.312 108.421C91.7868 108.527 91.8395 108.579 91.8395 108.895ZM105.85 108.737C108.853 109.422 109.379 112.687 106.64 113.792C105.85 114.108 105.85 114.003 106.904 115.583C107.957 117.162 108.431 117.689 108.695 117.689C108.8 117.689 108.853 117.794 108.853 117.952C108.853 118.163 108.537 118.216 107.22 118.216H105.587L105.692 117.794C105.798 117.426 105.587 117.057 104.85 115.899L103.901 114.319H102.374H100.846V116.004C100.846 117.004 100.899 117.689 101.004 117.689C101.11 117.689 101.163 117.794 101.163 117.952C101.163 118.163 100.899 118.216 99.7404 118.216C98.3182 118.216 98.1075 118.11 98.5816 117.689C98.9503 117.373 98.9503 109.317 98.5816 109.001C98.4235 108.895 98.3709 108.737 98.4235 108.632C98.5816 108.316 104.534 108.421 105.85 108.737ZM64.4498 110.212C62.7643 110.686 61.7108 112.107 61.8162 113.687C62.1322 116.741 66.8727 117.689 68.7163 115.056C70.5071 112.476 67.6628 109.317 64.4498 110.212ZM100.846 111.37C100.846 112.845 100.794 112.845 102.901 112.845C105.376 112.845 106.324 112.476 106.324 111.423C106.324 110.422 105.903 110.264 103.217 110.212L100.794 110.159V111.37H100.846ZM89.9433 110.949C89.8379 111.16 89.5219 111.844 89.2585 112.529C88.9952 113.213 88.7318 113.845 88.6791 113.95C88.6265 114.108 88.9952 114.161 90.312 114.161C91.2601 114.161 91.9975 114.108 91.9448 114.056C91.8922 114.003 91.6288 113.318 91.2601 112.634C90.8914 111.897 90.628 111.265 90.628 111.212C90.628 110.738 90.1013 110.633 89.9433 110.949Z" fill="#302D39"/>
</svg>
