<svg width="42" height="54" viewBox="0 0 42 54" fill="none" xmlns="http://www.w3.org/2000/svg">
<path d="M11.1264 34.9739V54H0V0H21.0659C25.1209 0 28.6813 0.741758 31.7473 2.22527C34.8379 3.70879 37.2115 5.8228 38.8681 8.56731C40.5247 11.2871 41.353 14.3901 41.353 17.8764C41.353 23.1676 39.5357 27.3462 35.9011 30.4121C32.2912 33.4533 27.2843 34.9739 20.8805 34.9739H11.1264ZM11.1264 25.9615H21.0659C24.0082 25.9615 26.2459 25.2692 27.7788 23.8846C29.3365 22.5 30.1154 20.522 30.1154 17.9506C30.1154 15.3049 29.3365 13.1662 27.7788 11.5343C26.2212 9.90247 24.0701 9.06181 21.3256 9.01236H11.1264V25.9615Z" fill="white"/>
</svg>
