<svg width="212" height="277" viewBox="0 0 212 277" fill="none" xmlns="http://www.w3.org/2000/svg">
<path d="M57.3437 275.654H57.8437V275.154V179.281H106.666C139.124 179.281 164.57 171.56 182.942 156.056L182.942 156.056C201.447 140.419 210.688 119.107 210.688 92.1765C210.688 74.4353 206.479 58.6263 198.051 44.7644C189.62 30.7737 177.541 20.0016 161.832 12.4481C146.249 4.8954 128.169 1.12695 107.604 1.12695H1.08203H0.582031V1.62695V275.154V275.654H1.08203H57.3437ZM141.216 122.237L141.213 122.239C133.586 129.14 122.41 132.63 107.604 132.63H57.8437V47.7775H108.912C122.685 48.0269 133.422 52.2489 141.187 60.397C148.96 68.554 152.864 79.256 152.864 92.5523C152.864 105.471 148.962 115.34 141.216 122.237Z" stroke="#D2DCF6"/>
</svg>
