<svg width="72" height="72" viewBox="0 0 72 72" fill="none" xmlns="http://www.w3.org/2000/svg">
<path d="M66.5184 41.3035L63.3144 40.7112C63.0765 40.6671 62.9037 40.4594 62.9037 40.2174V40.0318C64.9038 38.7577 66.2345 36.5221 66.2345 33.98V31.5846C66.2345 27.6299 63.0172 24.4127 59.0626 24.4127C55.1081 24.4127 51.8908 27.6299 51.8908 31.5846V33.98C51.8908 36.5215 53.2208 38.7568 55.2201 40.031V40.2176C55.2201 40.4597 55.0472 40.6673 54.8092 40.7113L51.6066 41.3035C49.9385 41.6119 48.5113 42.5232 47.5314 43.7863C46.5515 42.5231 45.1243 41.6119 43.4561 41.3035L40.2521 40.7112C40.0141 40.6671 39.8413 40.4594 39.8413 40.2174V40.0318C41.8414 38.7577 43.1722 36.5221 43.1722 33.98V31.5846C43.1722 27.6299 39.9548 24.4127 36.0003 24.4127C32.0458 24.4127 28.8284 27.6299 28.8284 31.5846V33.98C28.8284 36.5215 30.1584 38.7568 32.1577 40.031V40.2176C32.1577 40.4597 31.9849 40.6673 31.7468 40.7113L28.5442 41.3035C26.8761 41.6119 25.4489 42.5232 24.469 43.7863C23.4892 42.5231 22.062 41.6119 20.3937 41.3035L17.1897 40.7112C16.9518 40.6671 16.779 40.4594 16.779 40.2174V40.0318C18.7791 38.7577 20.1098 36.5221 20.1098 33.98V31.5846C20.1098 27.6299 16.8924 24.4127 12.9379 24.4127C8.98341 24.4127 5.76605 27.6299 5.76605 31.5846V33.98C5.76605 36.5215 7.09608 38.7568 9.09534 40.031V40.2176C9.09534 40.4597 8.92252 40.6673 8.68444 40.7113L5.48184 41.3035C2.30527 41.8907 0 44.6613 0 47.8913V61.2776C0 62.0542 0.629719 62.6838 1.40625 62.6838H70.5938C71.3703 62.6838 72 62.0542 72 61.2776V47.8915C72 44.6613 69.6946 41.8907 66.5184 41.3035ZM12.9375 27.2252C14.9392 27.2252 16.6303 28.5814 17.1398 30.4232L15.5585 29.4942C14.9663 29.1462 14.2095 29.2771 13.7683 29.8034C12.8295 30.9238 11.4526 31.5665 9.99098 31.5665H8.57812C8.58811 29.171 10.5398 27.2252 12.9375 27.2252ZM8.59711 34.3788H9.99084C11.8797 34.3788 13.6783 33.6958 15.0778 32.4736L17.2969 33.7774V33.98C17.2969 36.3837 15.3413 38.3394 12.9375 38.3394C10.6682 38.3394 8.79933 36.5962 8.59711 34.3788ZM14.2111 41.4614L12.9379 42.692L11.6629 41.4601C11.7156 41.3302 11.7617 41.1973 11.7977 41.0602C12.1691 41.1198 12.5497 41.1517 12.9375 41.1517C13.3249 41.1517 13.7049 41.1198 14.0757 41.0605C14.1119 41.1979 14.1583 41.3312 14.2111 41.4614ZM23.0624 59.8712H21.2743H20.8057V50.5213V50.1787C20.8057 49.4021 20.176 48.7725 19.3995 48.7725C18.623 48.7725 17.9932 49.4021 17.9932 50.1787V50.5213V59.8713H7.88175V50.5213V50.1787C7.88175 49.4021 7.25203 48.7725 6.4755 48.7725C5.69897 48.7725 5.06925 49.4021 5.06925 50.1787V50.5213V59.8713H2.8125V47.8913C2.8125 46.0174 4.14998 44.4099 5.99273 44.0691L9.19533 43.477C9.33272 43.4515 9.46533 43.4151 9.59555 43.3738L11.5317 45.2443V49.5181C11.5317 50.2948 12.1614 50.9243 12.9379 50.9243C13.7145 50.9243 14.3442 50.2948 14.3442 49.5181V45.2441L16.279 43.374C16.409 43.4152 16.5413 43.4515 16.6781 43.4768L19.882 44.0691C21.7247 44.4097 23.0624 46.0174 23.0624 47.8913V59.8712ZM36 27.2252C38.0017 27.2252 39.6928 28.5814 40.2023 30.4232L38.621 29.4942C38.0288 29.1462 37.2719 29.2771 36.8308 29.8034C35.892 30.9238 34.5151 31.5665 33.0535 31.5665H31.6406C31.6506 29.171 33.6023 27.2252 36 27.2252ZM31.6596 34.3788H33.0533C34.9422 34.3788 36.7408 33.6958 38.1403 32.4736L40.3594 33.7774V33.98C40.3594 36.3837 38.4038 38.3394 36 38.3394C33.7307 38.3394 31.8618 36.5962 31.6596 34.3788ZM37.2736 41.4614L36.0004 42.692L34.7254 41.4601C34.7781 41.3302 34.8242 41.1973 34.8602 41.0602C35.2316 41.1198 35.6122 41.1517 36 41.1517C36.3874 41.1517 36.7674 41.1198 37.1382 41.0605C37.1744 41.1979 37.2208 41.3312 37.2736 41.4614ZM46.1249 59.8712H44.3368H43.8682V50.5213V50.1787C43.8682 49.4021 43.2385 48.7725 42.462 48.7725C41.6855 48.7725 41.0557 49.4021 41.0557 50.1787V50.5213V59.8713H30.9443V50.5213V50.1787C30.9443 49.4021 30.3145 48.7725 29.538 48.7725C28.7615 48.7725 28.1318 49.4021 28.1318 50.1787V50.5213V59.8713H25.875V47.8915V47.8913C25.875 46.0174 27.2125 44.4099 29.0552 44.0691L32.2578 43.477C32.3952 43.4515 32.5278 43.4151 32.658 43.3738L34.5938 45.2438V49.5181C34.5938 50.2948 35.2235 50.9243 36 50.9243C36.7765 50.9243 37.4062 50.2948 37.4062 49.5181V45.2446L39.3415 43.374C39.4715 43.4152 39.6038 43.4515 39.7406 43.4768L42.9445 44.0691C44.7872 44.4097 46.1249 46.0174 46.1249 47.8913V59.8712ZM59.0625 27.2252C61.0642 27.2252 62.7553 28.5814 63.2648 30.4232L61.6835 29.4942C61.0914 29.1462 60.3344 29.2771 59.8933 29.8034C58.9545 30.9238 57.5776 31.5665 56.116 31.5665H54.7031C54.7131 29.171 56.6648 27.2252 59.0625 27.2252ZM54.7221 34.3788H56.1158C58.0047 34.3788 59.8033 33.6958 61.2028 32.4736L63.4219 33.7774V33.98C63.4219 36.3837 61.4663 38.3394 59.0625 38.3394C56.7932 38.3394 54.9243 36.5962 54.7221 34.3788ZM60.3361 41.4614L59.0629 42.692L57.7879 41.4601C57.8406 41.3302 57.8867 41.1973 57.9227 41.0602C58.2941 41.1198 58.6747 41.1517 59.0625 41.1517C59.4499 41.1517 59.8299 41.1198 60.2007 41.0605C60.2369 41.1979 60.2833 41.3312 60.3361 41.4614ZM69.1874 59.8712H68.2314H66.9307V50.5213V50.1787C66.9307 49.4021 66.301 48.7725 65.5245 48.7725C64.748 48.7725 64.1182 49.4021 64.1182 50.1787V50.5213V59.8713H54.0068V50.5213V50.1787C54.0068 49.4021 53.377 48.7725 52.6005 48.7725C51.824 48.7725 51.1943 49.4021 51.1943 50.1787V50.5213V59.8713H50.5898H48.9375V47.8915V47.8913C48.9375 46.0174 50.275 44.4099 52.1177 44.0691L55.3203 43.477C55.4577 43.4515 55.5903 43.4151 55.7205 43.3738L58.0043 45.5802V49.5181C58.0043 50.2948 58.634 50.9243 59.4105 50.9243C60.1871 50.9243 60.8168 50.2948 60.8168 49.5181V44.9081L62.404 43.374C62.534 43.4152 62.6663 43.4515 62.8031 43.4768L66.007 44.0691C67.8497 44.4097 69.1874 46.0174 69.1874 47.8913V59.8712Z" fill="#D2DCF6"/>
<path d="M24.4688 9.31622C20.5142 9.31622 17.2969 12.5334 17.2969 16.4881V18.8835C17.2969 22.8382 20.5142 26.0554 24.4688 26.0554C28.4233 26.0554 31.6406 22.8382 31.6406 18.8835V16.4881C31.6406 12.5334 28.4233 9.31622 24.4688 9.31622ZM24.4688 12.1287C26.4704 12.1287 28.1616 13.4849 28.671 15.3267L27.0897 14.3977C26.4975 14.0498 25.7407 14.1806 25.2996 14.7069C24.3608 15.8273 22.9839 16.47 21.5222 16.47H20.1094C20.1194 14.0746 22.0711 12.1287 24.4688 12.1287ZM28.8281 18.8835C28.8281 21.2872 26.8726 23.2429 24.4688 23.2429C22.1995 23.2429 20.3306 21.4997 20.1284 19.2823H21.5221C23.411 19.2823 25.2096 18.5993 26.6091 17.3771L28.8281 18.6809V18.8835Z" fill="#D2DCF6"/>
<path d="M47.5312 9.31622C43.5767 9.31622 40.3594 12.5334 40.3594 16.4881V18.8835C40.3594 22.8382 43.5767 26.0554 47.5312 26.0554C51.4858 26.0554 54.7031 22.8382 54.7031 18.8835V16.4881C54.7031 12.5334 51.4858 9.31622 47.5312 9.31622ZM47.5312 12.1287C49.5329 12.1287 51.2241 13.4849 51.7335 15.3267L50.1522 14.3977C49.5602 14.0498 48.8032 14.1806 48.3621 14.7069C47.4232 15.8273 46.0464 16.47 44.5847 16.47H43.1719C43.1819 14.0746 45.1336 12.1287 47.5312 12.1287ZM51.8906 18.8835C51.8906 21.2872 49.9351 23.2429 47.5312 23.2429C45.262 23.2429 43.3931 21.4997 43.1909 19.2823H44.5846C46.4735 19.2823 48.2721 18.5993 49.6716 17.3771L51.8906 18.6809V18.8835Z" fill="#D2DCF6"/>
<path d="M24.4688 28.4113C23.6922 28.4113 23.0625 29.0409 23.0625 29.8176V34.6994C23.0625 35.476 23.6922 36.1056 24.4688 36.1056C25.2453 36.1056 25.875 35.476 25.875 34.6994V29.8176C25.875 29.0409 25.2453 28.4113 24.4688 28.4113Z" fill="#D2DCF6"/>
<path d="M25.4628 38.1982C25.2014 37.9352 24.8386 37.7861 24.4688 37.7861C24.0989 37.7861 23.7361 37.9352 23.4745 38.1982C23.213 38.4597 23.0625 38.8225 23.0625 39.1924C23.0625 39.5622 23.2128 39.925 23.4745 40.1866C23.7361 40.4482 24.0989 40.5986 24.4688 40.5986C24.8386 40.5986 25.2014 40.4482 25.4628 40.1866C25.7244 39.925 25.875 39.5622 25.875 39.1924C25.875 38.8225 25.7245 38.4597 25.4628 38.1982Z" fill="#D2DCF6"/>
<path d="M47.5312 32.9038C46.7547 32.9038 46.125 33.5334 46.125 34.3101V39.1919C46.125 39.9685 46.7547 40.5981 47.5312 40.5981C48.3078 40.5981 48.9375 39.9685 48.9375 39.1919V34.3101C48.9375 33.5334 48.3078 32.9038 47.5312 32.9038Z" fill="#D2DCF6"/>
<path d="M48.5253 28.8226C48.2639 28.561 47.9011 28.412 47.5312 28.412C47.1614 28.412 46.7986 28.561 46.537 28.8226C46.2755 29.0856 46.125 29.447 46.125 29.8168C46.125 30.1881 46.2753 30.5509 46.537 30.811C46.7986 31.074 47.1614 31.2231 47.5312 31.2231C47.9011 31.2231 48.2639 31.074 48.5253 30.811C48.7869 30.5495 48.9375 30.1881 48.9375 29.8168C48.9375 29.447 48.787 29.0856 48.5253 28.8226Z" fill="#D2DCF6"/>
</svg>
