<svg width="420" height="189" viewBox="0 0 420 189" fill="none" xmlns="http://www.w3.org/2000/svg">
<path d="M101.284 88.6542L101.284 88.6543C98.6343 90.3475 94.6131 91.6761 89.1752 92.6118C83.8586 93.5266 77.2261 94.0598 69.2716 94.2074V20.8509C69.2716 17.1871 70.3996 14.9019 72.5017 13.7704L72.5075 13.7672C74.8089 12.4891 78.6411 11.8156 84.0875 11.8156C95.8917 11.8156 103.741 15.6221 107.832 23.1053C111.988 30.7069 114.085 40.7328 114.085 53.2174C114.085 71.5327 109.744 83.2485 101.284 88.6542ZM1.29357 180.17L0.828125 180.202V180.669V187.652V188.152H1.32812H92.9546H93.4546V187.652V180.669V180.187L92.9738 180.169C83.6757 179.811 77.4782 178.067 74.2156 175.063C72.6112 173.586 71.3699 171.248 70.5322 167.987C69.6955 164.729 69.2716 160.589 69.2716 155.554V104.751C85.4177 104.744 97.6284 104.386 105.895 103.675C114.279 102.954 122.657 100.882 131.03 97.4622L131.03 97.4623L131.042 97.4572C142.124 92.5938 150.099 86.1786 154.914 78.1881C159.797 70.1439 162.242 61.5489 162.242 52.4116C162.242 33.7609 156.059 20.4985 143.599 12.7709C131.303 5.08923 113.37 1.28027 89.8645 1.28027H1.32812H0.828125V1.78027V8.7639V9.21193L1.27347 9.2609C10.2222 10.2449 16.1258 12.1156 19.1339 14.7789L19.1338 14.7789L19.14 14.7842C20.5912 16.0276 21.7325 18.2131 22.5058 21.4376C23.2768 24.6526 23.6676 28.8399 23.6676 34.0124V155.554C23.6676 160.411 23.2772 164.431 22.506 167.625C21.7338 170.823 20.5886 173.156 19.1069 174.679L19.1067 174.679C16.2018 177.669 10.3277 179.544 1.29357 180.17ZM168.858 180.169L168.362 180.173V180.669V187.652V188.152H168.862H233.216H233.716V187.652V180.669V180.187L233.235 180.169C227.438 179.946 222.693 179.256 218.988 178.109C215.28 176.962 212.651 175.37 211.034 173.37C207.737 169.295 206.04 162.764 206.04 153.674V29.6776H206.419L274.405 187.85L274.535 188.152H274.864H282.253H282.586L282.715 187.845L350.03 26.4544H351.212V160.389C351.212 168.668 349.16 173.845 345.275 176.211C341.261 178.564 335.225 179.901 327.109 180.169L326.626 180.185V180.669V187.652V188.152H327.126H418.484H418.984V187.652V180.669V180.187L418.503 180.169C409.205 179.811 403.007 178.067 399.745 175.063C398.14 173.586 396.899 171.248 396.061 167.987C395.225 164.729 394.801 160.589 394.801 155.554V34.0124C394.801 28.7067 395.225 24.4215 396.062 21.1424C396.9 17.8555 398.138 15.6395 399.716 14.3942L399.722 14.3891C402.997 11.7187 409.217 9.97797 418.522 9.26243L418.984 9.22693V8.7639V1.78027V1.28027H418.484H349.159H348.828L348.699 1.58542L294.954 128.597H293.332L239.318 1.5846L239.189 1.28027H238.858H169.534H169.034V1.78027V8.7639V9.22623L169.495 9.26237C178.621 9.97787 184.865 11.5396 188.332 13.8789L188.339 13.8837C191.699 16.0666 193.485 20.7584 193.485 28.2375V158.778C193.485 165.967 191.931 171.291 188.905 174.835C187.427 176.523 185.047 177.839 181.697 178.742C178.349 179.645 174.073 180.124 168.858 180.169Z" stroke="#D2DCF6"/>
</svg>
