<svg width="84" height="38" viewBox="0 0 84 38" fill="none" xmlns="http://www.w3.org/2000/svg">
<path d="M13.5807 18.7208C16.8812 18.6667 19.0815 18.2879 20.1816 17.5845C21.9311 16.4663 22.8058 14.0586 22.8058 10.3614C22.8058 7.83639 22.382 5.79839 21.5343 4.24734C20.6866 2.6963 19.0634 1.92077 16.6647 1.92077C15.5646 1.92077 14.771 2.05604 14.2841 2.32657C13.8151 2.57907 13.5807 3.08406 13.5807 3.84155V18.7208ZM0 36.0348C1.82158 35.9085 3.03897 35.5298 3.65217 34.8985C4.28341 34.2493 4.59903 32.9417 4.59903 30.9758V6.49275C4.59903 4.40064 4.28341 3.08406 3.65217 2.54299C3.02093 1.9839 1.80354 1.60515 0 1.40676V0H17.828C22.5533 0 26.1424 0.766506 28.5952 2.29952C31.066 3.83253 32.3014 6.4657 32.3014 10.199C32.3014 12.0206 31.8145 13.734 30.8406 15.3391C29.8847 16.9262 28.2976 18.2068 26.0792 19.1807C24.4019 19.866 22.7246 20.2808 21.0473 20.4251C19.37 20.5694 16.8812 20.6415 13.5807 20.6415V30.9758C13.5807 33.0138 13.9233 34.3485 14.6087 34.9797C15.294 35.6109 16.5746 35.9626 18.4502 36.0348V37.4415H0V36.0348Z" fill="white"/>
<path d="M33.7353 36.0348C35.8454 36.0167 37.2161 35.647 37.8473 34.9256C38.4786 34.1861 38.7942 33.086 38.7942 31.6251V5.32947C38.7942 3.81449 38.4335 2.82254 37.7121 2.35362C36.9907 1.86667 35.7101 1.55105 33.8705 1.40676V0H47.83L58.7324 25.6464H59.1923L70.0406 0H84V1.40676C82.1243 1.55105 80.8438 1.90274 80.1585 2.46184C79.4731 3.0029 79.1304 4.34654 79.1304 6.49275V30.9758C79.1304 33.0138 79.4731 34.3485 80.1585 34.9797C80.8438 35.6109 82.1243 35.9626 84 36.0348V37.4415H65.6039V36.0348C67.2451 35.9807 68.4805 35.7101 69.3101 35.2232C70.1398 34.7182 70.5546 33.627 70.5546 31.9498V4.86957H70.1488L56.5681 37.4415H55.0802L41.3643 5.51884H41.1208V30.5971C41.1208 32.4367 41.4634 33.7803 42.1488 34.628C42.8341 35.4757 44.3491 35.9446 46.6937 36.0348V37.4415H33.7353V36.0348Z" fill="white"/>
</svg>
