<svg width="12" height="12" viewBox="0 0 12 12" fill="none" xmlns="http://www.w3.org/2000/svg">
<path d="M10.0212 3.34387V0H1.99146V3.34387L0.257812 4.70343V12H11.7548V4.70343L10.0212 3.34387ZM10.0212 4.23724L10.8335 4.87427L10.0212 5.51157V4.23724ZM2.69458 0.703125H9.31805V6.06281L6.00632 8.66016L2.69458 6.06281V0.703125ZM1.99146 4.23724V5.51157L1.17911 4.87427L1.99146 4.23724ZM11.0517 11.2969H0.960938V5.59689L6.00632 9.55362L11.0517 5.59689V11.2969Z" fill="white"/>
<path d="M4.28159 6.2341C4.74731 6.62906 5.34964 6.86719 6.00635 6.86719C6.28311 6.86719 6.55594 6.82498 6.8175 6.74176L6.65601 6.2341L6.60428 6.07169C6.41183 6.13293 6.21069 6.16406 6.00635 6.16406C4.92072 6.16406 4.0376 5.28094 4.0376 4.19531C4.0376 3.10968 4.92072 2.22656 6.00635 2.22656C7.09198 2.22656 7.9751 3.10968 7.9751 4.19531V5.05756C7.9751 5.26804 7.8038 5.43933 7.59332 5.43933C7.38284 5.43933 7.21155 5.26804 7.21155 5.05756V3.04074H6.58102C6.40479 2.9534 6.20959 2.90698 6.00919 2.90698C5.29874 2.90698 4.72104 3.48495 4.72104 4.19531C4.72104 4.90567 5.29874 5.48364 6.00919 5.48364C6.20016 5.48364 6.38464 5.44244 6.55246 5.36417C6.68512 5.81342 7.10159 6.14246 7.59332 6.14246C8.19144 6.14246 8.67822 5.65567 8.67822 5.05756V4.19531C8.67822 3.74039 8.56406 3.31174 8.36255 2.93646C8.01263 2.28378 7.39905 1.79251 6.66516 1.60574C6.45422 1.552 6.23367 1.52344 6.00635 1.52344C5.77902 1.52344 5.55847 1.552 5.34753 1.60574C4.61374 1.79251 4.00015 2.28378 3.65015 2.93646C3.44864 3.31174 3.33447 3.74039 3.33447 4.19531C3.33447 5.01187 3.7027 5.74384 4.28159 6.2341ZM6.50842 4.50073C6.48517 4.53845 6.45798 4.57361 6.42657 4.60547C6.3157 4.71817 6.16739 4.78052 6.00919 4.78052C5.68665 4.78052 5.42416 4.51804 5.42416 4.19531C5.42416 3.87259 5.68665 3.61011 6.00919 3.61011C6.15329 3.61011 6.29163 3.66284 6.39874 3.7587C6.44186 3.79715 6.47867 3.84119 6.50842 3.88971V4.50073Z" fill="white"/>
</svg>
