<svg width="32" height="32" viewBox="0 0 32 32" fill="none" xmlns="http://www.w3.org/2000/svg">
<path d="M23.893 12.4243C23.893 11.0895 23.9141 9.41755 23.8836 8.08297C23.8703 7.508 23.8073 6.92163 23.6711 6.36375C22.6964 2.37512 18.8354 -0.105415 14.7812 0.628261C11.1923 1.2776 8.52062 4.47984 8.52062 8.13198V12.0824V12.4158C8.38528 12.4158 8.29439 12.4155 8.20265 12.4158H4.93117C4.14108 12.4158 3.5 13.0566 3.5 13.847V30.0519C3.5 30.842 4.14108 31.4831 4.93117 31.4831H27.5685C28.3592 31.4831 29 30.842 29 30.0519V13.847C29 13.0566 28.3592 12.4158 27.5685 12.4158L23.893 12.4243ZM18.3465 27.6013H14.1367C13.4751 27.6013 12.9392 27.056 12.9392 26.3836C12.9392 26.3656 12.9412 26.3474 12.9418 26.3294C12.9403 26.3294 12.9401 26.0385 12.9395 25.7479C12.9392 25.4262 13.0851 24.5259 13.5267 23.8748C13.9943 23.1859 14.6251 22.738 15.3095 22.5365C14.4074 22.1687 13.772 21.2834 13.772 20.25C13.772 18.8855 14.8775 17.7803 16.2415 17.7803C17.6059 17.7803 18.7109 18.8855 18.7109 20.25C18.7109 21.3097 18.043 22.2134 17.1048 22.5636C17.7692 22.7781 18.3975 23.2226 18.8921 23.9047C19.3539 24.5415 19.5431 25.4271 19.5431 25.7482V26.3303C19.5414 26.3479 19.5431 26.3659 19.5431 26.3841C19.5434 27.056 19.0075 27.6013 18.3465 27.6013ZM21.1022 9.93212C20.6572 11.2459 19.8144 12.2984 18.934 13.3261C18.2541 14.1191 17.4552 14.7863 16.6044 15.391C16.5634 15.4203 16.5195 15.4445 16.4093 15.5126C16.9167 14.6362 17.3259 13.8036 17.4444 12.8332C16.238 13.1187 15.1003 12.9939 13.9988 12.5084C12.0437 11.6471 10.8752 9.76801 11.0747 7.64676C11.2379 5.90104 12.1973 4.64282 13.7304 3.83022C16.1999 2.52157 19.3531 3.35867 20.7649 5.68678C21.5875 7.04244 21.6003 8.46221 21.1022 9.93212Z" fill="#005BAC"/>
</svg>
