<svg width="71" height="64" viewBox="0 0 71 64" fill="none" xmlns="http://www.w3.org/2000/svg">
<path fill-rule="evenodd" clip-rule="evenodd" d="M51.9773 16.2573C51.9773 23.5791 46.0418 29.5147 38.7199 29.5147C31.3981 29.5147 25.4626 23.5791 25.4626 16.2573C25.4626 8.93551 31.3981 3 38.7199 3C46.0418 3 51.9773 8.93551 51.9773 16.2573ZM11 59.7948C11 44.5103 23.4353 32.0749 38.7199 32.0749C54.0045 32.0749 66.4399 44.5102 66.4399 59.7948C66.4399 60.4601 65.8999 61 65.2347 61H12.2053C11.54 61 11 60.4601 11 59.7948Z" fill="#56CCF2"/>
<rect x="8" y="16" width="4" height="20" fill="black"/>
<rect x="20" y="24" width="4" height="20" transform="rotate(90 20 24)" fill="black"/>
</svg>
